<svg width="2229" height="133" viewBox="0 0 2229 133" fill="none" xmlns="http://www.w3.org/2000/svg">
<mask id="path-1-outside-1_1707_605" maskUnits="userSpaceOnUse" x="-0.28125" y="-0.335938" width="2230" height="133" fill="black">
<rect fill="white" x="-0.28125" y="-0.335938" width="2230" height="133"/>
<path d="M66.0628 130.128C28.9268 130.128 1.99875 102.32 1.99875 66.0641C1.99875 29.8081 28.9268 2.00005 66.0628 2.00005C88.4148 2.00005 108.127 13.0881 118.863 30.5121L94.5748 44.5921C89.1188 35.0881 78.5588 29.4561 66.0628 29.4561C44.2388 29.4561 30.1588 44.0641 30.1588 66.0641C30.1588 88.0641 44.2388 102.672 66.0628 102.672C78.5588 102.672 89.2948 97.0401 94.5748 87.5361L118.863 101.616C108.303 119.04 88.5908 130.128 66.0628 130.128ZM197.004 4.46405H225.164V127.664H197.004V78.7361H158.284V127.664H130.124V4.46405H158.284V51.6321H197.004V4.46405ZM272.536 100.56H321.816V127.664H244.376V4.46405H320.936V31.5681H272.536V51.9841H316.536V78.7361H272.536V100.56ZM363.928 100.56H413.208V127.664H335.768V4.46405H412.328V31.5681H363.928V51.9841H407.928V78.7361H363.928V100.56ZM491.928 127.664L468.696 87.1841H455.32V127.664H427.16V4.46405H476.44C499.848 4.46405 518.68 23.2961 518.68 46.7041C518.68 61.8401 509.528 75.5681 495.976 82.4321L522.2 127.664H491.928ZM455.32 30.8641V62.5441H476.44C484.184 62.5441 490.52 55.6801 490.52 46.7041C490.52 37.7281 484.184 30.8641 476.44 30.8641H455.32ZM634.353 130.128C597.217 130.128 570.289 102.32 570.289 66.0641C570.289 29.8081 597.217 2.00005 634.353 2.00005C656.705 2.00005 676.417 13.0881 687.153 30.5121L662.865 44.5921C657.409 35.0881 646.849 29.4561 634.353 29.4561C612.529 29.4561 598.449 44.0641 598.449 66.0641C598.449 88.0641 612.529 102.672 634.353 102.672C646.849 102.672 657.585 97.0401 662.865 87.5361L687.153 101.616C676.593 119.04 656.881 130.128 634.353 130.128ZM765.294 4.46405H793.454V127.664H765.294V78.7361H726.574V127.664H698.414V4.46405H726.574V51.6321H765.294V4.46405ZM840.826 100.56H890.106V127.664H812.666V4.46405H889.226V31.5681H840.826V51.9841H884.826V78.7361H840.826V100.56ZM932.218 100.56H981.498V127.664H904.058V4.46405H980.618V31.5681H932.218V51.9841H976.218V78.7361H932.218V100.56ZM1060.22 127.664L1036.99 87.1841H1023.61V127.664H995.45V4.46405H1044.73C1068.14 4.46405 1086.97 23.2961 1086.97 46.7041C1086.97 61.8401 1077.82 75.5681 1064.27 82.4321L1090.49 127.664H1060.22ZM1023.61 30.8641V62.5441H1044.73C1052.47 62.5441 1058.81 55.6801 1058.81 46.7041C1058.81 37.7281 1052.47 30.8641 1044.73 30.8641H1023.61ZM1202.64 130.128C1165.51 130.128 1138.58 102.32 1138.58 66.0641C1138.58 29.8081 1165.51 2.00005 1202.64 2.00005C1225 2.00005 1244.71 13.0881 1255.44 30.5121L1231.16 44.5921C1225.7 35.0881 1215.14 29.4561 1202.64 29.4561C1180.82 29.4561 1166.74 44.0641 1166.74 66.0641C1166.74 88.0641 1180.82 102.672 1202.64 102.672C1215.14 102.672 1225.88 97.0401 1231.16 87.5361L1255.44 101.616C1244.88 119.04 1225.17 130.128 1202.64 130.128ZM1333.58 4.46405H1361.74V127.664H1333.58V78.7361H1294.86V127.664H1266.7V4.46405H1294.86V51.6321H1333.58V4.46405ZM1409.12 100.56H1458.4V127.664H1380.96V4.46405H1457.52V31.5681H1409.12V51.9841H1453.12V78.7361H1409.12V100.56ZM1500.51 100.56H1549.79V127.664H1472.35V4.46405H1548.91V31.5681H1500.51V51.9841H1544.51V78.7361H1500.51V100.56ZM1628.51 127.664L1605.28 87.1841H1591.9V127.664H1563.74V4.46405H1613.02C1636.43 4.46405 1655.26 23.2961 1655.26 46.7041C1655.26 61.8401 1646.11 75.5681 1632.56 82.4321L1658.78 127.664H1628.51ZM1591.9 30.8641V62.5441H1613.02C1620.76 62.5441 1627.1 55.6801 1627.1 46.7041C1627.1 37.7281 1620.76 30.8641 1613.02 30.8641H1591.9ZM1770.93 130.128C1733.8 130.128 1706.87 102.32 1706.87 66.0641C1706.87 29.8081 1733.8 2.00005 1770.93 2.00005C1793.29 2.00005 1813 13.0881 1823.73 30.5121L1799.45 44.5921C1793.99 35.0881 1783.43 29.4561 1770.93 29.4561C1749.11 29.4561 1735.03 44.0641 1735.03 66.0641C1735.03 88.0641 1749.11 102.672 1770.93 102.672C1783.43 102.672 1794.17 97.0401 1799.45 87.5361L1823.73 101.616C1813.17 119.04 1793.46 130.128 1770.93 130.128ZM1901.87 4.46405H1930.03V127.664H1901.87V78.7361H1863.15V127.664H1834.99V4.46405H1863.15V51.6321H1901.87V4.46405ZM1977.41 100.56H2026.69V127.664H1949.25V4.46405H2025.81V31.5681H1977.41V51.9841H2021.41V78.7361H1977.41V100.56ZM2068.8 100.56H2118.08V127.664H2040.64V4.46405H2117.2V31.5681H2068.8V51.9841H2112.8V78.7361H2068.8V100.56ZM2196.8 127.664L2173.57 87.1841H2160.19V127.664H2132.03V4.46405H2181.31C2204.72 4.46405 2223.55 23.2961 2223.55 46.7041C2223.55 61.8401 2214.4 75.5681 2200.85 82.4321L2227.07 127.664H2196.8ZM2160.19 30.8641V62.5441H2181.31C2189.05 62.5441 2195.39 55.6801 2195.39 46.7041C2195.39 37.7281 2189.05 30.8641 2181.31 30.8641H2160.19Z"/>
</mask>
<path d="M118.863 30.5121L119.866 32.2423L120.565 29.4629L118.863 30.5121ZM94.5748 44.5921L92.8403 45.5878L95.5778 46.3223L94.5748 44.5921ZM94.5748 87.5361L95.5778 85.8058L92.8264 86.5648L94.5748 87.5361ZM118.863 101.616L120.573 102.653L119.866 99.8858L118.863 101.616ZM66.0628 130.128V128.128C30.0494 128.128 3.99875 101.234 3.99875 66.0641H1.99875H-0.00124979C-0.00124979 103.406 27.8041 132.128 66.0628 132.128V130.128ZM1.99875 66.0641H3.99875C3.99875 30.8944 30.0494 4.00005 66.0628 4.00005V2.00005V5.34058e-05C27.8041 5.34058e-05 -0.00124979 28.7217 -0.00124979 66.0641H1.99875ZM66.0628 2.00005V4.00005C87.7497 4.00005 106.803 14.7525 117.16 31.5612L118.863 30.5121L120.565 29.4629C109.45 11.4236 89.0798 5.34058e-05 66.0628 5.34058e-05V2.00005ZM118.863 30.5121L117.86 28.7818L93.5717 42.8618L94.5748 44.5921L95.5778 46.3223L119.866 32.2423L118.863 30.5121ZM94.5748 44.5921L96.3093 43.5963C90.4427 33.3772 79.1598 27.4561 66.0628 27.4561V29.4561V31.4561C77.9577 31.4561 87.7948 36.7989 92.8403 45.5878L94.5748 44.5921ZM66.0628 29.4561V27.4561C54.6913 27.4561 45.1719 31.2721 38.4954 38.1132C31.8241 44.9489 28.1588 54.6327 28.1588 66.0641H30.1588H32.1588C32.1588 55.4955 35.5334 46.8752 41.3581 40.907C47.1776 34.944 55.6102 31.4561 66.0628 31.4561V29.4561ZM30.1588 66.0641H28.1588C28.1588 77.4955 31.8241 87.1792 38.4954 94.015C45.1719 100.856 54.6913 104.672 66.0628 104.672V102.672V100.672C55.6102 100.672 47.1776 97.1841 41.3581 91.2212C35.5334 85.2529 32.1588 76.6327 32.1588 66.0641H30.1588ZM66.0628 102.672V104.672C79.1401 104.672 90.6251 98.7637 96.3231 88.5073L94.5748 87.5361L92.8264 86.5648C87.9644 95.3164 77.9774 100.672 66.0628 100.672V102.672ZM94.5748 87.5361L93.5717 89.2663L117.86 103.346L118.863 101.616L119.866 99.8858L95.5778 85.8058L94.5748 87.5361ZM118.863 101.616L117.152 100.579C106.975 117.371 87.932 128.128 66.0628 128.128V130.128V132.128C89.2495 132.128 109.63 120.709 120.573 102.653L118.863 101.616ZM197.004 4.46405V2.46405L195.004 4.46405H197.004ZM225.164 4.46405H227.164L225.164 2.46405V4.46405ZM225.164 127.664V129.664L227.164 127.664H225.164ZM197.004 127.664H195.004L197.004 129.664V127.664ZM197.004 78.7361H199.004L197.004 76.7361V78.7361ZM158.284 78.7361V76.7361L156.284 78.7361H158.284ZM158.284 127.664V129.664L160.284 127.664H158.284ZM130.124 127.664H128.124L130.124 129.664V127.664ZM130.124 4.46405V2.46405L128.124 4.46405H130.124ZM158.284 4.46405H160.284L158.284 2.46405V4.46405ZM158.284 51.6321H156.284L158.284 53.6321V51.6321ZM197.004 51.6321V53.6321L199.004 51.6321H197.004ZM197.004 4.46405V6.46405H225.164V4.46405V2.46405H197.004V4.46405ZM225.164 4.46405H223.164V127.664H225.164H227.164V4.46405H225.164ZM225.164 127.664V125.664H197.004V127.664V129.664H225.164V127.664ZM197.004 127.664H199.004V78.7361H197.004H195.004V127.664H197.004ZM197.004 78.7361V76.7361H158.284V78.7361V80.7361H197.004V78.7361ZM158.284 78.7361H156.284V127.664H158.284H160.284V78.7361H158.284ZM158.284 127.664V125.664H130.124V127.664V129.664H158.284V127.664ZM130.124 127.664H132.124V4.46405H130.124H128.124V127.664H130.124ZM130.124 4.46405V6.46405H158.284V4.46405V2.46405H130.124V4.46405ZM158.284 4.46405H156.284V51.6321H158.284H160.284V4.46405H158.284ZM158.284 51.6321V53.6321H197.004V51.6321V49.6321H158.284V51.6321ZM197.004 51.6321H199.004V4.46405H197.004H195.004V51.6321H197.004ZM272.536 100.56H270.536L272.536 102.56V100.56ZM321.815 100.56H323.815L321.815 98.5601V100.56ZM321.815 127.664V129.664L323.815 127.664H321.815ZM244.376 127.664H242.376L244.376 129.664V127.664ZM244.376 4.46405V2.46405L242.376 4.46405H244.376ZM320.936 4.46405H322.936L320.936 2.46405V4.46405ZM320.936 31.5681V33.5681L322.936 31.5681H320.936ZM272.536 31.5681V29.5681L270.536 31.5681H272.536ZM272.536 51.9841H270.536L272.536 53.9841V51.9841ZM316.536 51.9841H318.536L316.536 49.9841V51.9841ZM316.536 78.7361V80.7361L318.536 78.7361H316.536ZM272.536 78.7361V76.7361L270.536 78.7361H272.536ZM272.536 100.56V102.56H321.815V100.56V98.5601H272.536V100.56ZM321.815 100.56H319.815V127.664H321.815H323.815V100.56H321.815ZM321.815 127.664V125.664H244.376V127.664V129.664H321.815V127.664ZM244.376 127.664H246.376V4.46405H244.376H242.376V127.664H244.376ZM244.376 4.46405V6.46405H320.936V4.46405V2.46405H244.376V4.46405ZM320.936 4.46405H318.936V31.5681H320.936H322.936V4.46405H320.936ZM320.936 31.5681V29.5681H272.536V31.5681V33.5681H320.936V31.5681ZM272.536 31.5681H270.536V51.9841H272.536H274.536V31.5681H272.536ZM272.536 51.9841V53.9841H316.536V51.9841V49.9841H272.536V51.9841ZM316.536 51.9841H314.536V78.7361H316.536H318.536V51.9841H316.536ZM316.536 78.7361V76.7361H272.536V78.7361V80.7361H316.536V78.7361ZM272.536 78.7361H270.536V100.56H272.536H274.536V78.7361H272.536ZM363.928 100.56H361.928L363.928 102.56V100.56ZM413.208 100.56H415.208L413.208 98.5601V100.56ZM413.208 127.664V129.664L415.208 127.664H413.208ZM335.768 127.664H333.768L335.768 129.664V127.664ZM335.768 4.46405V2.46405L333.768 4.46405H335.768ZM412.328 4.46405H414.328L412.328 2.46405V4.46405ZM412.328 31.5681V33.5681L414.328 31.5681H412.328ZM363.928 31.5681V29.5681L361.928 31.5681H363.928ZM363.928 51.9841H361.928L363.928 53.9841V51.9841ZM407.928 51.9841H409.928L407.928 49.9841V51.9841ZM407.928 78.7361V80.7361L409.928 78.7361H407.928ZM363.928 78.7361V76.7361L361.928 78.7361H363.928ZM363.928 100.56V102.56H413.208V100.56V98.5601H363.928V100.56ZM413.208 100.56H411.208V127.664H413.208H415.208V100.56H413.208ZM413.208 127.664V125.664H335.768V127.664V129.664H413.208V127.664ZM335.768 127.664H337.768V4.46405H335.768H333.768V127.664H335.768ZM335.768 4.46405V6.46405H412.328V4.46405V2.46405H335.768V4.46405ZM412.328 4.46405H410.328V31.5681H412.328H414.328V4.46405H412.328ZM412.328 31.5681V29.5681H363.928V31.5681V33.5681H412.328V31.5681ZM363.928 31.5681H361.928V51.9841H363.928H365.928V31.5681H363.928ZM363.928 51.9841V53.9841H407.928V51.9841V49.9841H363.928V51.9841ZM407.928 51.9841H405.928V78.7361H407.928H409.928V51.9841H407.928ZM407.928 78.7361V76.7361H363.928V78.7361V80.7361H407.928V78.7361ZM363.928 78.7361H361.928V100.56H363.928H365.928V78.7361H363.928ZM491.928 127.664L490.193 128.66L491.928 129.664V127.664ZM468.696 87.1841L470.43 86.1885L468.696 85.1841V87.1841ZM455.32 87.1841V85.1841L453.32 87.1841H455.32ZM455.32 127.664V129.664L457.32 127.664H455.32ZM427.16 127.664H425.16L427.16 129.664V127.664ZM427.16 4.46405V2.46405L425.16 4.46405H427.16ZM495.976 82.4321L495.072 80.6479L494.246 83.4352L495.976 82.4321ZM522.2 127.664V129.664L523.93 126.661L522.2 127.664ZM455.32 30.8641V28.8641L453.32 30.8641H455.32ZM455.32 62.5441H453.32L455.32 64.5441V62.5441ZM491.928 127.664L493.662 126.669L470.43 86.1885L468.696 87.1841L466.961 88.1796L490.193 128.66L491.928 127.664ZM468.696 87.1841V85.1841H455.32V87.1841V89.1841H468.696V87.1841ZM455.32 87.1841H453.32V127.664H455.32H457.32V87.1841H455.32ZM455.32 127.664V125.664H427.16V127.664V129.664H455.32V127.664ZM427.16 127.664H429.16V4.46405H427.16H425.16V127.664H427.16ZM427.16 4.46405V6.46405H476.44V4.46405V2.46405H427.16V4.46405ZM476.44 4.46405V6.46405C498.743 6.46405 516.68 24.4006 516.68 46.7041H518.68H520.68C520.68 22.1915 500.952 2.46405 476.44 2.46405V4.46405ZM518.68 46.7041H516.68C516.68 61.0209 508.012 74.0939 495.072 80.6479L495.976 82.4321L496.879 84.2163C511.044 77.0422 520.68 62.6592 520.68 46.7041H518.68ZM495.976 82.4321L494.246 83.4352L520.47 128.667L522.2 127.664L523.93 126.661L497.706 81.4289L495.976 82.4321ZM522.2 127.664V125.664H491.928V127.664V129.664H522.2V127.664ZM455.32 30.8641H453.32V62.5441H455.32H457.32V30.8641H455.32ZM455.32 62.5441V64.5441H476.44V62.5441V60.5441H455.32V62.5441ZM476.44 62.5441V64.5441C485.483 64.5441 492.52 56.5795 492.52 46.7041H490.52H488.52C488.52 54.7806 482.885 60.5441 476.44 60.5441V62.5441ZM490.52 46.7041H492.52C492.52 36.8286 485.483 28.8641 476.44 28.8641V30.8641V32.8641C482.885 32.8641 488.52 38.6275 488.52 46.7041H490.52ZM476.44 30.8641V28.8641H455.32V30.8641V32.8641H476.44V30.8641ZM687.153 30.5121L688.156 32.2423L688.856 29.4629L687.153 30.5121ZM662.865 44.5921L661.13 45.5878L663.868 46.3223L662.865 44.5921ZM662.865 87.5361L663.868 85.8058L661.117 86.5648L662.865 87.5361ZM687.153 101.616L688.863 102.653L688.156 99.8858L687.153 101.616ZM634.353 130.128V128.128C598.34 128.128 572.289 101.234 572.289 66.0641H570.289H568.289C568.289 103.406 596.094 132.128 634.353 132.128V130.128ZM570.289 66.0641H572.289C572.289 30.8944 598.34 4.00005 634.353 4.00005V2.00005V5.34058e-05C596.094 5.34058e-05 568.289 28.7217 568.289 66.0641H570.289ZM634.353 2.00005V4.00005C656.04 4.00005 675.093 14.7525 685.45 31.5612L687.153 30.5121L688.856 29.4629C677.741 11.4236 657.37 5.34058e-05 634.353 5.34058e-05V2.00005ZM687.153 30.5121L686.15 28.7818L661.862 42.8618L662.865 44.5921L663.868 46.3223L688.156 32.2423L687.153 30.5121ZM662.865 44.5921L664.599 43.5963C658.733 33.3772 647.45 27.4561 634.353 27.4561V29.4561V31.4561C646.248 31.4561 656.085 36.7989 661.13 45.5878L662.865 44.5921ZM634.353 29.4561V27.4561C622.982 27.4561 613.462 31.2721 606.786 38.1132C600.114 44.9489 596.449 54.6327 596.449 66.0641H598.449H600.449C600.449 55.4955 603.824 46.8752 609.648 40.907C615.468 34.944 623.9 31.4561 634.353 31.4561V29.4561ZM598.449 66.0641H596.449C596.449 77.4955 600.114 87.1792 606.786 94.015C613.462 100.856 622.982 104.672 634.353 104.672V102.672V100.672C623.9 100.672 615.468 97.1841 609.648 91.2212C603.824 85.2529 600.449 76.6327 600.449 66.0641H598.449ZM634.353 102.672V104.672C647.43 104.672 658.915 98.7637 664.613 88.5073L662.865 87.5361L661.117 86.5648C656.255 95.3164 646.268 100.672 634.353 100.672V102.672ZM662.865 87.5361L661.862 89.2663L686.15 103.346L687.153 101.616L688.156 99.8858L663.868 85.8058L662.865 87.5361ZM687.153 101.616L685.443 100.579C675.266 117.371 656.222 128.128 634.353 128.128V130.128V132.128C657.54 132.128 677.92 120.709 688.863 102.653L687.153 101.616ZM765.294 4.46405V2.46405L763.294 4.46405H765.294ZM793.454 4.46405H795.454L793.454 2.46405V4.46405ZM793.454 127.664V129.664L795.454 127.664H793.454ZM765.294 127.664H763.294L765.294 129.664V127.664ZM765.294 78.7361H767.294L765.294 76.7361V78.7361ZM726.574 78.7361V76.7361L724.574 78.7361H726.574ZM726.574 127.664V129.664L728.574 127.664H726.574ZM698.414 127.664H696.414L698.414 129.664V127.664ZM698.414 4.46405V2.46405L696.414 4.46405H698.414ZM726.574 4.46405H728.574L726.574 2.46405V4.46405ZM726.574 51.6321H724.574L726.574 53.6321V51.6321ZM765.294 51.6321V53.6321L767.294 51.6321H765.294ZM765.294 4.46405V6.46405H793.454V4.46405V2.46405H765.294V4.46405ZM793.454 4.46405H791.454V127.664H793.454H795.454V4.46405H793.454ZM793.454 127.664V125.664H765.294V127.664V129.664H793.454V127.664ZM765.294 127.664H767.294V78.7361H765.294H763.294V127.664H765.294ZM765.294 78.7361V76.7361H726.574V78.7361V80.7361H765.294V78.7361ZM726.574 78.7361H724.574V127.664H726.574H728.574V78.7361H726.574ZM726.574 127.664V125.664H698.414V127.664V129.664H726.574V127.664ZM698.414 127.664H700.414V4.46405H698.414H696.414V127.664H698.414ZM698.414 4.46405V6.46405H726.574V4.46405V2.46405H698.414V4.46405ZM726.574 4.46405H724.574V51.6321H726.574H728.574V4.46405H726.574ZM726.574 51.6321V53.6321H765.294V51.6321V49.6321H726.574V51.6321ZM765.294 51.6321H767.294V4.46405H765.294H763.294V51.6321H765.294ZM840.826 100.56H838.826L840.826 102.56V100.56ZM890.106 100.56H892.106L890.106 98.5601V100.56ZM890.106 127.664V129.664L892.106 127.664H890.106ZM812.666 127.664H810.666L812.666 129.664V127.664ZM812.666 4.46405V2.46405L810.666 4.46405H812.666ZM889.226 4.46405H891.226L889.226 2.46405V4.46405ZM889.226 31.5681V33.5681L891.226 31.5681H889.226ZM840.826 31.5681V29.5681L838.826 31.5681H840.826ZM840.826 51.9841H838.826L840.826 53.9841V51.9841ZM884.826 51.9841H886.826L884.826 49.9841V51.9841ZM884.826 78.7361V80.7361L886.826 78.7361H884.826ZM840.826 78.7361V76.7361L838.826 78.7361H840.826ZM840.826 100.56V102.56H890.106V100.56V98.5601H840.826V100.56ZM890.106 100.56H888.106V127.664H890.106H892.106V100.56H890.106ZM890.106 127.664V125.664H812.666V127.664V129.664H890.106V127.664ZM812.666 127.664H814.666V4.46405H812.666H810.666V127.664H812.666ZM812.666 4.46405V6.46405H889.226V4.46405V2.46405H812.666V4.46405ZM889.226 4.46405H887.226V31.5681H889.226H891.226V4.46405H889.226ZM889.226 31.5681V29.5681H840.826V31.5681V33.5681H889.226V31.5681ZM840.826 31.5681H838.826V51.9841H840.826H842.826V31.5681H840.826ZM840.826 51.9841V53.9841H884.826V51.9841V49.9841H840.826V51.9841ZM884.826 51.9841H882.826V78.7361H884.826H886.826V51.9841H884.826ZM884.826 78.7361V76.7361H840.826V78.7361V80.7361H884.826V78.7361ZM840.826 78.7361H838.826V100.56H840.826H842.826V78.7361H840.826ZM932.218 100.56H930.218L932.218 102.56V100.56ZM981.498 100.56H983.498L981.498 98.5601V100.56ZM981.498 127.664V129.664L983.498 127.664H981.498ZM904.058 127.664H902.058L904.058 129.664V127.664ZM904.058 4.46405V2.46405L902.058 4.46405H904.058ZM980.618 4.46405H982.618L980.618 2.46405V4.46405ZM980.618 31.5681V33.5681L982.618 31.5681H980.618ZM932.218 31.5681V29.5681L930.218 31.5681H932.218ZM932.218 51.9841H930.218L932.218 53.9841V51.9841ZM976.218 51.9841H978.218L976.218 49.9841V51.9841ZM976.218 78.7361V80.7361L978.218 78.7361H976.218ZM932.218 78.7361V76.7361L930.218 78.7361H932.218ZM932.218 100.56V102.56H981.498V100.56V98.5601H932.218V100.56ZM981.498 100.56H979.498V127.664H981.498H983.498V100.56H981.498ZM981.498 127.664V125.664H904.058V127.664V129.664H981.498V127.664ZM904.058 127.664H906.058V4.46405H904.058H902.058V127.664H904.058ZM904.058 4.46405V6.46405H980.618V4.46405V2.46405H904.058V4.46405ZM980.618 4.46405H978.618V31.5681H980.618H982.618V4.46405H980.618ZM980.618 31.5681V29.5681H932.218V31.5681V33.5681H980.618V31.5681ZM932.218 31.5681H930.218V51.9841H932.218H934.218V31.5681H932.218ZM932.218 51.9841V53.9841H976.218V51.9841V49.9841H932.218V51.9841ZM976.218 51.9841H974.218V78.7361H976.218H978.218V51.9841H976.218ZM976.218 78.7361V76.7361H932.218V78.7361V80.7361H976.218V78.7361ZM932.218 78.7361H930.218V100.56H932.218H934.218V78.7361H932.218ZM1060.22 127.664L1058.48 128.66L1060.22 129.664V127.664ZM1036.99 87.1841L1038.72 86.1885L1036.99 85.1841V87.1841ZM1023.61 87.1841V85.1841L1021.61 87.1841H1023.61ZM1023.61 127.664V129.664L1025.61 127.664H1023.61ZM995.45 127.664H993.45L995.45 129.664V127.664ZM995.45 4.46405V2.46405L993.45 4.46405H995.45ZM1064.27 82.4321L1063.36 80.6479L1062.54 83.4352L1064.27 82.4321ZM1090.49 127.664V129.664L1092.22 126.661L1090.49 127.664ZM1023.61 30.8641V28.8641L1021.61 30.8641H1023.61ZM1023.61 62.5441H1021.61L1023.61 64.5441V62.5441ZM1060.22 127.664L1061.95 126.669L1038.72 86.1885L1036.99 87.1841L1035.25 88.1796L1058.48 128.66L1060.22 127.664ZM1036.99 87.1841V85.1841H1023.61V87.1841V89.1841H1036.99V87.1841ZM1023.61 87.1841H1021.61V127.664H1023.61H1025.61V87.1841H1023.61ZM1023.61 127.664V125.664H995.45V127.664V129.664H1023.61V127.664ZM995.45 127.664H997.45V4.46405H995.45H993.45V127.664H995.45ZM995.45 4.46405V6.46405H1044.73V4.46405V2.46405H995.45V4.46405ZM1044.73 4.46405V6.46405C1067.03 6.46405 1084.97 24.4006 1084.97 46.7041H1086.97H1088.97C1088.97 22.1915 1069.24 2.46405 1044.73 2.46405V4.46405ZM1086.97 46.7041H1084.97C1084.97 61.0209 1076.3 74.0939 1063.36 80.6479L1064.27 82.4321L1065.17 84.2163C1079.33 77.0422 1088.97 62.6592 1088.97 46.7041H1086.97ZM1064.27 82.4321L1062.54 83.4352L1088.76 128.667L1090.49 127.664L1092.22 126.661L1066 81.4289L1064.27 82.4321ZM1090.49 127.664V125.664H1060.22V127.664V129.664H1090.49V127.664ZM1023.61 30.8641H1021.61V62.5441H1023.61H1025.61V30.8641H1023.61ZM1023.61 62.5441V64.5441H1044.73V62.5441V60.5441H1023.61V62.5441ZM1044.73 62.5441V64.5441C1053.77 64.5441 1060.81 56.5795 1060.81 46.7041H1058.81H1056.81C1056.81 54.7806 1051.17 60.5441 1044.73 60.5441V62.5441ZM1058.81 46.7041H1060.81C1060.81 36.8286 1053.77 28.8641 1044.73 28.8641V30.8641V32.8641C1051.17 32.8641 1056.81 38.6275 1056.81 46.7041H1058.81ZM1044.73 30.8641V28.8641H1023.61V30.8641V32.8641H1044.73V30.8641ZM1255.44 30.5121L1256.45 32.2423L1257.15 29.4629L1255.44 30.5121ZM1231.16 44.5921L1229.42 45.5878L1232.16 46.3223L1231.16 44.5921ZM1231.16 87.5361L1232.16 85.8058L1229.41 86.5648L1231.16 87.5361ZM1255.44 101.616L1257.15 102.653L1256.45 99.8858L1255.44 101.616ZM1202.64 130.128V128.128C1166.63 128.128 1140.58 101.234 1140.58 66.0641H1138.58H1136.58C1136.58 103.406 1164.38 132.128 1202.64 132.128V130.128ZM1138.58 66.0641H1140.58C1140.58 30.8944 1166.63 4.00005 1202.64 4.00005V2.00005V5.34058e-05C1164.38 5.34058e-05 1136.58 28.7217 1136.58 66.0641H1138.58ZM1202.64 2.00005V4.00005C1224.33 4.00005 1243.38 14.7525 1253.74 31.5612L1255.44 30.5121L1257.15 29.4629C1246.03 11.4236 1225.66 5.34058e-05 1202.64 5.34058e-05V2.00005ZM1255.44 30.5121L1254.44 28.7818L1230.15 42.8618L1231.16 44.5921L1232.16 46.3223L1256.45 32.2423L1255.44 30.5121ZM1231.16 44.5921L1232.89 43.5963C1227.02 33.3772 1215.74 27.4561 1202.64 27.4561V29.4561V31.4561C1214.54 31.4561 1224.38 36.7989 1229.42 45.5878L1231.16 44.5921ZM1202.64 29.4561V27.4561C1191.27 27.4561 1181.75 31.2721 1175.08 38.1132C1168.4 44.9489 1164.74 54.6327 1164.74 66.0641H1166.74H1168.74C1168.74 55.4955 1172.11 46.8752 1177.94 40.907C1183.76 34.944 1192.19 31.4561 1202.64 31.4561V29.4561ZM1166.74 66.0641H1164.74C1164.74 77.4955 1168.4 87.1792 1175.08 94.015C1181.75 100.856 1191.27 104.672 1202.64 104.672V102.672V100.672C1192.19 100.672 1183.76 97.1841 1177.94 91.2212C1172.11 85.2529 1168.74 76.6327 1168.74 66.0641H1166.74ZM1202.64 102.672V104.672C1215.72 104.672 1227.21 98.7637 1232.9 88.5073L1231.16 87.5361L1229.41 86.5648C1224.54 95.3164 1214.56 100.672 1202.64 100.672V102.672ZM1231.16 87.5361L1230.15 89.2663L1254.44 103.346L1255.44 101.616L1256.45 99.8858L1232.16 85.8058L1231.16 87.5361ZM1255.44 101.616L1253.73 100.579C1243.56 117.371 1224.51 128.128 1202.64 128.128V130.128V132.128C1225.83 132.128 1246.21 120.709 1257.15 102.653L1255.44 101.616ZM1333.58 4.46405V2.46405L1331.58 4.46405H1333.58ZM1361.74 4.46405H1363.74L1361.74 2.46405V4.46405ZM1361.74 127.664V129.664L1363.74 127.664H1361.74ZM1333.58 127.664H1331.58L1333.58 129.664V127.664ZM1333.58 78.7361H1335.58L1333.58 76.7361V78.7361ZM1294.86 78.7361V76.7361L1292.86 78.7361H1294.86ZM1294.86 127.664V129.664L1296.86 127.664H1294.86ZM1266.7 127.664H1264.7L1266.7 129.664V127.664ZM1266.7 4.46405V2.46405L1264.7 4.46405H1266.7ZM1294.86 4.46405H1296.86L1294.86 2.46405V4.46405ZM1294.86 51.6321H1292.86L1294.86 53.6321V51.6321ZM1333.58 51.6321V53.6321L1335.58 51.6321H1333.58ZM1333.58 4.46405V6.46405H1361.74V4.46405V2.46405H1333.58V4.46405ZM1361.74 4.46405H1359.74V127.664H1361.74H1363.74V4.46405H1361.74ZM1361.74 127.664V125.664H1333.58V127.664V129.664H1361.74V127.664ZM1333.58 127.664H1335.58V78.7361H1333.58H1331.58V127.664H1333.58ZM1333.58 78.7361V76.7361H1294.86V78.7361V80.7361H1333.58V78.7361ZM1294.86 78.7361H1292.86V127.664H1294.86H1296.86V78.7361H1294.86ZM1294.86 127.664V125.664H1266.7V127.664V129.664H1294.86V127.664ZM1266.7 127.664H1268.7V4.46405H1266.7H1264.7V127.664H1266.7ZM1266.7 4.46405V6.46405H1294.86V4.46405V2.46405H1266.7V4.46405ZM1294.86 4.46405H1292.86V51.6321H1294.86H1296.86V4.46405H1294.86ZM1294.86 51.6321V53.6321H1333.58V51.6321V49.6321H1294.86V51.6321ZM1333.58 51.6321H1335.58V4.46405H1333.58H1331.58V51.6321H1333.58ZM1409.12 100.56H1407.12L1409.12 102.56V100.56ZM1458.4 100.56H1460.4L1458.4 98.5601V100.56ZM1458.4 127.664V129.664L1460.4 127.664H1458.4ZM1380.96 127.664H1378.96L1380.96 129.664V127.664ZM1380.96 4.46405V2.46405L1378.96 4.46405H1380.96ZM1457.52 4.46405H1459.52L1457.52 2.46405V4.46405ZM1457.52 31.5681V33.5681L1459.52 31.5681H1457.52ZM1409.12 31.5681V29.5681L1407.12 31.5681H1409.12ZM1409.12 51.9841H1407.12L1409.12 53.9841V51.9841ZM1453.12 51.9841H1455.12L1453.12 49.9841V51.9841ZM1453.12 78.7361V80.7361L1455.12 78.7361H1453.12ZM1409.12 78.7361V76.7361L1407.12 78.7361H1409.12ZM1409.12 100.56V102.56H1458.4V100.56V98.5601H1409.12V100.56ZM1458.4 100.56H1456.4V127.664H1458.4H1460.4V100.56H1458.4ZM1458.4 127.664V125.664H1380.96V127.664V129.664H1458.4V127.664ZM1380.96 127.664H1382.96V4.46405H1380.96H1378.96V127.664H1380.96ZM1380.96 4.46405V6.46405H1457.52V4.46405V2.46405H1380.96V4.46405ZM1457.52 4.46405H1455.52V31.5681H1457.52H1459.52V4.46405H1457.52ZM1457.52 31.5681V29.5681H1409.12V31.5681V33.5681H1457.52V31.5681ZM1409.12 31.5681H1407.12V51.9841H1409.12H1411.12V31.5681H1409.12ZM1409.12 51.9841V53.9841H1453.12V51.9841V49.9841H1409.12V51.9841ZM1453.12 51.9841H1451.12V78.7361H1453.12H1455.12V51.9841H1453.12ZM1453.12 78.7361V76.7361H1409.12V78.7361V80.7361H1453.12V78.7361ZM1409.12 78.7361H1407.12V100.56H1409.12H1411.12V78.7361H1409.12ZM1500.51 100.56H1498.51L1500.51 102.56V100.56ZM1549.79 100.56H1551.79L1549.79 98.5601V100.56ZM1549.79 127.664V129.664L1551.79 127.664H1549.79ZM1472.35 127.664H1470.35L1472.35 129.664V127.664ZM1472.35 4.46405V2.46405L1470.35 4.46405H1472.35ZM1548.91 4.46405H1550.91L1548.91 2.46405V4.46405ZM1548.91 31.5681V33.5681L1550.91 31.5681H1548.91ZM1500.51 31.5681V29.5681L1498.51 31.5681H1500.51ZM1500.51 51.9841H1498.51L1500.51 53.9841V51.9841ZM1544.51 51.9841H1546.51L1544.51 49.9841V51.9841ZM1544.51 78.7361V80.7361L1546.51 78.7361H1544.51ZM1500.51 78.7361V76.7361L1498.51 78.7361H1500.51ZM1500.51 100.56V102.56H1549.79V100.56V98.5601H1500.51V100.56ZM1549.79 100.56H1547.79V127.664H1549.79H1551.79V100.56H1549.79ZM1549.79 127.664V125.664H1472.35V127.664V129.664H1549.79V127.664ZM1472.35 127.664H1474.35V4.46405H1472.35H1470.35V127.664H1472.35ZM1472.35 4.46405V6.46405H1548.91V4.46405V2.46405H1472.35V4.46405ZM1548.91 4.46405H1546.91V31.5681H1548.91H1550.91V4.46405H1548.91ZM1548.91 31.5681V29.5681H1500.51V31.5681V33.5681H1548.91V31.5681ZM1500.51 31.5681H1498.51V51.9841H1500.51H1502.51V31.5681H1500.51ZM1500.51 51.9841V53.9841H1544.51V51.9841V49.9841H1500.51V51.9841ZM1544.51 51.9841H1542.51V78.7361H1544.51H1546.51V51.9841H1544.51ZM1544.51 78.7361V76.7361H1500.51V78.7361V80.7361H1544.51V78.7361ZM1500.51 78.7361H1498.51V100.56H1500.51H1502.51V78.7361H1500.51ZM1628.51 127.664L1626.77 128.66L1628.51 129.664V127.664ZM1605.28 87.1841L1607.01 86.1885L1605.28 85.1841V87.1841ZM1591.9 87.1841V85.1841L1589.9 87.1841H1591.9ZM1591.9 127.664V129.664L1593.9 127.664H1591.9ZM1563.74 127.664H1561.74L1563.74 129.664V127.664ZM1563.74 4.46405V2.46405L1561.74 4.46405H1563.74ZM1632.56 82.4321L1631.65 80.6479L1630.83 83.4352L1632.56 82.4321ZM1658.78 127.664V129.664L1660.51 126.661L1658.78 127.664ZM1591.9 30.8641V28.8641L1589.9 30.8641H1591.9ZM1591.9 62.5441H1589.9L1591.9 64.5441V62.5441ZM1628.51 127.664L1630.24 126.669L1607.01 86.1885L1605.28 87.1841L1603.54 88.1796L1626.77 128.66L1628.51 127.664ZM1605.28 87.1841V85.1841H1591.9V87.1841V89.1841H1605.28V87.1841ZM1591.9 87.1841H1589.9V127.664H1591.9H1593.9V87.1841H1591.9ZM1591.9 127.664V125.664H1563.74V127.664V129.664H1591.9V127.664ZM1563.74 127.664H1565.74V4.46405H1563.74H1561.74V127.664H1563.74ZM1563.74 4.46405V6.46405H1613.02V4.46405V2.46405H1563.74V4.46405ZM1613.02 4.46405V6.46405C1635.32 6.46405 1653.26 24.4006 1653.26 46.7041H1655.26H1657.26C1657.26 22.1915 1637.53 2.46405 1613.02 2.46405V4.46405ZM1655.26 46.7041H1653.26C1653.26 61.0209 1644.59 74.0939 1631.65 80.6479L1632.56 82.4321L1633.46 84.2163C1647.62 77.0422 1657.26 62.6592 1657.26 46.7041H1655.26ZM1632.56 82.4321L1630.83 83.4352L1657.05 128.667L1658.78 127.664L1660.51 126.661L1634.29 81.4289L1632.56 82.4321ZM1658.78 127.664V125.664H1628.51V127.664V129.664H1658.78V127.664ZM1591.9 30.8641H1589.9V62.5441H1591.9H1593.9V30.8641H1591.9ZM1591.9 62.5441V64.5441H1613.02V62.5441V60.5441H1591.9V62.5441ZM1613.02 62.5441V64.5441C1622.06 64.5441 1629.1 56.5795 1629.1 46.7041H1627.1H1625.1C1625.1 54.7806 1619.47 60.5441 1613.02 60.5441V62.5441ZM1627.1 46.7041H1629.1C1629.1 36.8286 1622.06 28.8641 1613.02 28.8641V30.8641V32.8641C1619.47 32.8641 1625.1 38.6275 1625.1 46.7041H1627.1ZM1613.02 30.8641V28.8641H1591.9V30.8641V32.8641H1613.02V30.8641ZM1823.73 30.5121L1824.74 32.2423L1825.44 29.4629L1823.73 30.5121ZM1799.45 44.5921L1797.71 45.5878L1800.45 46.3223L1799.45 44.5921ZM1799.45 87.5361L1800.45 85.8058L1797.7 86.5648L1799.45 87.5361ZM1823.73 101.616L1825.44 102.653L1824.74 99.8858L1823.73 101.616ZM1770.93 130.128V128.128C1734.92 128.128 1708.87 101.234 1708.87 66.0641H1706.87H1704.87C1704.87 103.406 1732.67 132.128 1770.93 132.128V130.128ZM1706.87 66.0641H1708.87C1708.87 30.8944 1734.92 4.00005 1770.93 4.00005V2.00005V5.34058e-05C1732.67 5.34058e-05 1704.87 28.7217 1704.87 66.0641H1706.87ZM1770.93 2.00005V4.00005C1792.62 4.00005 1811.67 14.7525 1822.03 31.5612L1823.73 30.5121L1825.44 29.4629C1814.32 11.4236 1793.95 5.34058e-05 1770.93 5.34058e-05V2.00005ZM1823.73 30.5121L1822.73 28.7818L1798.44 42.8618L1799.45 44.5921L1800.45 46.3223L1824.74 32.2423L1823.73 30.5121ZM1799.45 44.5921L1801.18 43.5963C1795.31 33.3772 1784.03 27.4561 1770.93 27.4561V29.4561V31.4561C1782.83 31.4561 1792.67 36.7989 1797.71 45.5878L1799.45 44.5921ZM1770.93 29.4561V27.4561C1759.56 27.4561 1750.04 31.2721 1743.37 38.1132C1736.69 44.9489 1733.03 54.6327 1733.03 66.0641H1735.03H1737.03C1737.03 55.4955 1740.4 46.8752 1746.23 40.907C1752.05 34.944 1760.48 31.4561 1770.93 31.4561V29.4561ZM1735.03 66.0641H1733.03C1733.03 77.4955 1736.69 87.1792 1743.37 94.015C1750.04 100.856 1759.56 104.672 1770.93 104.672V102.672V100.672C1760.48 100.672 1752.05 97.1841 1746.23 91.2212C1740.4 85.2529 1737.03 76.6327 1737.03 66.0641H1735.03ZM1770.93 102.672V104.672C1784.01 104.672 1795.5 98.7637 1801.19 88.5073L1799.45 87.5361L1797.7 86.5648C1792.84 95.3164 1782.85 100.672 1770.93 100.672V102.672ZM1799.45 87.5361L1798.44 89.2663L1822.73 103.346L1823.73 101.616L1824.74 99.8858L1800.45 85.8058L1799.45 87.5361ZM1823.73 101.616L1822.02 100.579C1811.85 117.371 1792.8 128.128 1770.93 128.128V130.128V132.128C1794.12 132.128 1814.5 120.709 1825.44 102.653L1823.73 101.616ZM1901.87 4.46405V2.46405L1899.87 4.46405H1901.87ZM1930.03 4.46405H1932.03L1930.03 2.46405V4.46405ZM1930.03 127.664V129.664L1932.03 127.664H1930.03ZM1901.87 127.664H1899.87L1901.87 129.664V127.664ZM1901.87 78.7361H1903.87L1901.87 76.7361V78.7361ZM1863.15 78.7361V76.7361L1861.15 78.7361H1863.15ZM1863.15 127.664V129.664L1865.15 127.664H1863.15ZM1834.99 127.664H1832.99L1834.99 129.664V127.664ZM1834.99 4.46405V2.46405L1832.99 4.46405H1834.99ZM1863.15 4.46405H1865.15L1863.15 2.46405V4.46405ZM1863.15 51.6321H1861.15L1863.15 53.6321V51.6321ZM1901.87 51.6321V53.6321L1903.87 51.6321H1901.87ZM1901.87 4.46405V6.46405H1930.03V4.46405V2.46405H1901.87V4.46405ZM1930.03 4.46405H1928.03V127.664H1930.03H1932.03V4.46405H1930.03ZM1930.03 127.664V125.664H1901.87V127.664V129.664H1930.03V127.664ZM1901.87 127.664H1903.87V78.7361H1901.87H1899.87V127.664H1901.87ZM1901.87 78.7361V76.7361H1863.15V78.7361V80.7361H1901.87V78.7361ZM1863.15 78.7361H1861.15V127.664H1863.15H1865.15V78.7361H1863.15ZM1863.15 127.664V125.664H1834.99V127.664V129.664H1863.15V127.664ZM1834.99 127.664H1836.99V4.46405H1834.99H1832.99V127.664H1834.99ZM1834.99 4.46405V6.46405H1863.15V4.46405V2.46405H1834.99V4.46405ZM1863.15 4.46405H1861.15V51.6321H1863.15H1865.15V4.46405H1863.15ZM1863.15 51.6321V53.6321H1901.87V51.6321V49.6321H1863.15V51.6321ZM1901.87 51.6321H1903.87V4.46405H1901.87H1899.87V51.6321H1901.87ZM1977.41 100.56H1975.41L1977.41 102.56V100.56ZM2026.69 100.56H2028.69L2026.69 98.5601V100.56ZM2026.69 127.664V129.664L2028.69 127.664H2026.69ZM1949.25 127.664H1947.25L1949.25 129.664V127.664ZM1949.25 4.46405V2.46405L1947.25 4.46405H1949.25ZM2025.81 4.46405H2027.81L2025.81 2.46405V4.46405ZM2025.81 31.5681V33.5681L2027.81 31.5681H2025.81ZM1977.41 31.5681V29.5681L1975.41 31.5681H1977.41ZM1977.41 51.9841H1975.41L1977.41 53.9841V51.9841ZM2021.41 51.9841H2023.41L2021.41 49.9841V51.9841ZM2021.41 78.7361V80.7361L2023.41 78.7361H2021.41ZM1977.41 78.7361V76.7361L1975.41 78.7361H1977.41ZM1977.41 100.56V102.56H2026.69V100.56V98.5601H1977.41V100.56ZM2026.69 100.56H2024.69V127.664H2026.69H2028.69V100.56H2026.69ZM2026.69 127.664V125.664H1949.25V127.664V129.664H2026.69V127.664ZM1949.25 127.664H1951.25V4.46405H1949.25H1947.25V127.664H1949.25ZM1949.25 4.46405V6.46405H2025.81V4.46405V2.46405H1949.25V4.46405ZM2025.81 4.46405H2023.81V31.5681H2025.81H2027.81V4.46405H2025.81ZM2025.81 31.5681V29.5681H1977.41V31.5681V33.5681H2025.81V31.5681ZM1977.41 31.5681H1975.41V51.9841H1977.41H1979.41V31.5681H1977.41ZM1977.41 51.9841V53.9841H2021.41V51.9841V49.9841H1977.41V51.9841ZM2021.41 51.9841H2019.41V78.7361H2021.41H2023.41V51.9841H2021.41ZM2021.41 78.7361V76.7361H1977.41V78.7361V80.7361H2021.41V78.7361ZM1977.41 78.7361H1975.41V100.56H1977.41H1979.41V78.7361H1977.41ZM2068.8 100.56H2066.8L2068.8 102.56V100.56ZM2118.08 100.56H2120.08L2118.08 98.5601V100.56ZM2118.08 127.664V129.664L2120.08 127.664H2118.08ZM2040.64 127.664H2038.64L2040.64 129.664V127.664ZM2040.64 4.46405V2.46405L2038.64 4.46405H2040.64ZM2117.2 4.46405H2119.2L2117.2 2.46405V4.46405ZM2117.2 31.5681V33.5681L2119.2 31.5681H2117.2ZM2068.8 31.5681V29.5681L2066.8 31.5681H2068.8ZM2068.8 51.9841H2066.8L2068.8 53.9841V51.9841ZM2112.8 51.9841H2114.8L2112.8 49.9841V51.9841ZM2112.8 78.7361V80.7361L2114.8 78.7361H2112.8ZM2068.8 78.7361V76.7361L2066.8 78.7361H2068.8ZM2068.8 100.56V102.56H2118.08V100.56V98.5601H2068.8V100.56ZM2118.08 100.56H2116.08V127.664H2118.08H2120.08V100.56H2118.08ZM2118.08 127.664V125.664H2040.64V127.664V129.664H2118.08V127.664ZM2040.64 127.664H2042.64V4.46405H2040.64H2038.64V127.664H2040.64ZM2040.64 4.46405V6.46405H2117.2V4.46405V2.46405H2040.64V4.46405ZM2117.2 4.46405H2115.2V31.5681H2117.2H2119.2V4.46405H2117.2ZM2117.2 31.5681V29.5681H2068.8V31.5681V33.5681H2117.2V31.5681ZM2068.8 31.5681H2066.8V51.9841H2068.8H2070.8V31.5681H2068.8ZM2068.8 51.9841V53.9841H2112.8V51.9841V49.9841H2068.8V51.9841ZM2112.8 51.9841H2110.8V78.7361H2112.8H2114.8V51.9841H2112.8ZM2112.8 78.7361V76.7361H2068.8V78.7361V80.7361H2112.8V78.7361ZM2068.8 78.7361H2066.8V100.56H2068.8H2070.8V78.7361H2068.8ZM2196.8 127.664L2195.06 128.66L2196.8 129.664V127.664ZM2173.57 87.1841L2175.3 86.1885L2173.57 85.1841V87.1841ZM2160.19 87.1841V85.1841L2158.19 87.1841H2160.19ZM2160.19 127.664V129.664L2162.19 127.664H2160.19ZM2132.03 127.664H2130.03L2132.03 129.664V127.664ZM2132.03 4.46405V2.46405L2130.03 4.46405H2132.03ZM2200.85 82.4321L2199.94 80.6479L2199.12 83.4352L2200.85 82.4321ZM2227.07 127.664V129.664L2228.8 126.661L2227.07 127.664ZM2160.19 30.8641V28.8641L2158.19 30.8641H2160.19ZM2160.19 62.5441H2158.19L2160.19 64.5441V62.5441ZM2196.8 127.664L2198.53 126.669L2175.3 86.1885L2173.57 87.1841L2171.83 88.1796L2195.06 128.66L2196.8 127.664ZM2173.57 87.1841V85.1841H2160.19V87.1841V89.1841H2173.57V87.1841ZM2160.19 87.1841H2158.19V127.664H2160.19H2162.19V87.1841H2160.19ZM2160.19 127.664V125.664H2132.03V127.664V129.664H2160.19V127.664ZM2132.03 127.664H2134.03V4.46405H2132.03H2130.03V127.664H2132.03ZM2132.03 4.46405V6.46405H2181.31V4.46405V2.46405H2132.03V4.46405ZM2181.31 4.46405V6.46405C2203.61 6.46405 2221.55 24.4006 2221.55 46.7041H2223.55H2225.55C2225.55 22.1915 2205.82 2.46405 2181.31 2.46405V4.46405ZM2223.55 46.7041H2221.55C2221.55 61.0209 2212.88 74.0939 2199.94 80.6479L2200.85 82.4321L2201.75 84.2163C2215.91 77.0422 2225.55 62.6592 2225.55 46.7041H2223.55ZM2200.85 82.4321L2199.12 83.4352L2225.34 128.667L2227.07 127.664L2228.8 126.661L2202.58 81.4289L2200.85 82.4321ZM2227.07 127.664V125.664H2196.8V127.664V129.664H2227.07V127.664ZM2160.19 30.8641H2158.19V62.5441H2160.19H2162.19V30.8641H2160.19ZM2160.19 62.5441V64.5441H2181.31V62.5441V60.5441H2160.19V62.5441ZM2181.31 62.5441V64.5441C2190.35 64.5441 2197.39 56.5795 2197.39 46.7041H2195.39H2193.39C2193.39 54.7806 2187.76 60.5441 2181.31 60.5441V62.5441ZM2195.39 46.7041H2197.39C2197.39 36.8286 2190.35 28.8641 2181.31 28.8641V30.8641V32.8641C2187.76 32.8641 2193.39 38.6275 2193.39 46.7041H2195.39ZM2181.31 30.8641V28.8641H2160.19V30.8641V32.8641H2181.31V30.8641Z" fill="white" mask="url(#path-1-outside-1_1707_605)"/>
</svg>
