<svg width="1217" height="73" viewBox="0 0 1217 73" fill="none" xmlns="http://www.w3.org/2000/svg">
<mask id="path-1-outside-1_1713_629" maskUnits="userSpaceOnUse" x="-0.480469" y="-0.0546875" width="1217" height="73" fill="black">
<rect fill="white" x="-0.480469" y="-0.0546875" width="1217" height="73"/>
<path d="M36.3435 71.2893C16.0875 71.2893 1.39953 56.1213 1.39953 36.3453C1.39953 16.5693 16.0875 1.40131 36.3435 1.40131C48.5355 1.40131 59.2875 7.44931 65.1435 16.9533L51.8955 24.6333C48.9195 19.4493 43.1595 16.3773 36.3435 16.3773C24.4395 16.3773 16.7595 24.3453 16.7595 36.3453C16.7595 48.3453 24.4395 56.3133 36.3435 56.3133C43.1595 56.3133 49.0155 53.2413 51.8955 48.0573L65.1435 55.7373C59.3835 65.2413 48.6315 71.2893 36.3435 71.2893ZM107.766 2.74531H123.126V69.9453H107.766V43.2573H86.646V69.9453H71.286V2.74531H86.646V28.4733H107.766V2.74531ZM148.965 55.1613H175.845V69.9453H133.605V2.74531H175.365V17.5293H148.965V28.6653H172.965V43.2573H148.965V55.1613ZM198.815 55.1613H225.695V69.9453H183.455V2.74531H225.215V17.5293H198.815V28.6653H222.815V43.2573H198.815V55.1613ZM268.634 69.9453L255.962 47.8653H248.666V69.9453H233.306V2.74531H260.186C272.954 2.74531 283.226 13.0173 283.226 25.7853C283.226 34.0413 278.234 41.5293 270.842 45.2733L285.146 69.9453H268.634ZM248.666 17.1453V34.4253H260.186C264.41 34.4253 267.866 30.6813 267.866 25.7853C267.866 20.8893 264.41 17.1453 260.186 17.1453H248.666ZM346.32 71.2893C326.064 71.2893 311.376 56.1213 311.376 36.3453C311.376 16.5693 326.064 1.40131 346.32 1.40131C358.512 1.40131 369.264 7.44931 375.12 16.9533L361.872 24.6333C358.896 19.4493 353.136 16.3773 346.32 16.3773C334.416 16.3773 326.736 24.3453 326.736 36.3453C326.736 48.3453 334.416 56.3133 346.32 56.3133C353.136 56.3133 358.992 53.2413 361.872 48.0573L375.12 55.7373C369.36 65.2413 358.608 71.2893 346.32 71.2893ZM417.743 2.74531H433.103V69.9453H417.743V43.2573H396.623V69.9453H381.263V2.74531H396.623V28.4733H417.743V2.74531ZM458.942 55.1613H485.822V69.9453H443.582V2.74531H485.342V17.5293H458.942V28.6653H482.942V43.2573H458.942V55.1613ZM508.792 55.1613H535.672V69.9453H493.432V2.74531H535.192V17.5293H508.792V28.6653H532.792V43.2573H508.792V55.1613ZM578.61 69.9453L565.938 47.8653H558.642V69.9453H543.282V2.74531H570.162C582.93 2.74531 593.202 13.0173 593.202 25.7853C593.202 34.0413 588.21 41.5293 580.818 45.2733L595.122 69.9453H578.61ZM558.642 17.1453V34.4253H570.162C574.386 34.4253 577.842 30.6813 577.842 25.7853C577.842 20.8893 574.386 17.1453 570.162 17.1453H558.642ZM656.297 71.2893C636.041 71.2893 621.353 56.1213 621.353 36.3453C621.353 16.5693 636.041 1.40131 656.297 1.40131C668.489 1.40131 679.241 7.44931 685.097 16.9533L671.849 24.6333C668.873 19.4493 663.113 16.3773 656.297 16.3773C644.393 16.3773 636.713 24.3453 636.713 36.3453C636.713 48.3453 644.393 56.3133 656.297 56.3133C663.113 56.3133 668.969 53.2413 671.849 48.0573L685.097 55.7373C679.337 65.2413 668.585 71.2893 656.297 71.2893ZM727.719 2.74531H743.079V69.9453H727.719V43.2573H706.599V69.9453H691.239V2.74531H706.599V28.4733H727.719V2.74531ZM768.918 55.1613H795.798V69.9453H753.558V2.74531H795.318V17.5293H768.918V28.6653H792.918V43.2573H768.918V55.1613ZM818.768 55.1613H845.648V69.9453H803.408V2.74531H845.168V17.5293H818.768V28.6653H842.768V43.2573H818.768V55.1613ZM888.587 69.9453L875.915 47.8653H868.619V69.9453H853.259V2.74531H880.139C892.907 2.74531 903.179 13.0173 903.179 25.7853C903.179 34.0413 898.187 41.5293 890.795 45.2733L905.099 69.9453H888.587ZM868.619 17.1453V34.4253H880.139C884.363 34.4253 887.819 30.6813 887.819 25.7853C887.819 20.8893 884.363 17.1453 880.139 17.1453H868.619ZM966.273 71.2893C946.017 71.2893 931.329 56.1213 931.329 36.3453C931.329 16.5693 946.017 1.40131 966.273 1.40131C978.465 1.40131 989.217 7.44931 995.073 16.9533L981.825 24.6333C978.849 19.4493 973.089 16.3773 966.273 16.3773C954.369 16.3773 946.689 24.3453 946.689 36.3453C946.689 48.3453 954.369 56.3133 966.273 56.3133C973.089 56.3133 978.945 53.2413 981.825 48.0573L995.073 55.7373C989.313 65.2413 978.561 71.2893 966.273 71.2893ZM1037.7 2.74531H1053.06V69.9453H1037.7V43.2573H1016.58V69.9453H1001.22V2.74531H1016.58V28.4733H1037.7V2.74531ZM1078.89 55.1613H1105.77V69.9453H1063.53V2.74531H1105.29V17.5293H1078.89V28.6653H1102.89V43.2573H1078.89V55.1613ZM1128.74 55.1613H1155.62V69.9453H1113.38V2.74531H1155.14V17.5293H1128.74V28.6653H1152.74V43.2573H1128.74V55.1613ZM1198.56 69.9453L1185.89 47.8653H1178.59V69.9453H1163.23V2.74531H1190.11C1202.88 2.74531 1213.15 13.0173 1213.15 25.7853C1213.15 34.0413 1208.16 41.5293 1200.77 45.2733L1215.07 69.9453H1198.56ZM1178.59 17.1453V34.4253H1190.11C1194.34 34.4253 1197.79 30.6813 1197.79 25.7853C1197.79 20.8893 1194.34 17.1453 1190.11 17.1453H1178.59Z"/>
</mask>
<path d="M65.1435 16.9533L65.8457 18.1645L66.3354 16.2189L65.1435 16.9533ZM51.8955 24.6333L50.6814 25.3303L52.5977 25.8445L51.8955 24.6333ZM51.8955 48.0573L52.5977 46.8461L50.6717 47.3774L51.8955 48.0573ZM65.1435 55.7373L66.3408 56.4629L65.8457 54.5261L65.1435 55.7373ZM36.3435 71.2893V69.8893C16.8734 69.8893 2.79953 55.3608 2.79953 36.3453H1.39953H-0.000468612C-0.000468612 56.8818 15.3017 72.6893 36.3435 72.6893V71.2893ZM1.39953 36.3453H2.79953C2.79953 17.3298 16.8734 2.80131 36.3435 2.80131V1.40131V0.00130463C15.3017 0.00130463 -0.000468612 15.8088 -0.000468612 36.3453H1.39953ZM36.3435 1.40131V2.80131C48.07 2.80131 58.361 8.61441 63.9516 17.6877L65.1435 16.9533L66.3354 16.2189C60.2141 6.28421 49.0011 0.00130463 36.3435 0.00130463V1.40131ZM65.1435 16.9533L64.4414 15.7421L51.1934 23.4221L51.8955 24.6333L52.5977 25.8445L65.8457 18.1645L65.1435 16.9533ZM51.8955 24.6333L53.1097 23.9363C49.8463 18.2517 43.5803 14.9773 36.3435 14.9773V16.3773V17.7773C42.7388 17.7773 47.9927 20.6469 50.6814 25.3303L51.8955 24.6333ZM36.3435 16.3773V14.9773C30.07 14.9773 24.7935 17.0842 21.0856 20.8835C17.3813 24.6791 15.3595 30.0433 15.3595 36.3453H16.7595H18.1595C18.1595 30.6473 19.9778 26.0275 23.0895 22.8391C26.1975 19.6545 30.7131 17.7773 36.3435 17.7773V16.3773ZM16.7595 36.3453H15.3595C15.3595 42.6473 17.3813 48.0115 21.0856 51.8071C24.7935 55.6065 30.07 57.7133 36.3435 57.7133V56.3133V54.9133C30.7131 54.9133 26.1975 53.0362 23.0895 49.8515C19.9778 46.6631 18.1595 42.0433 18.1595 36.3453H16.7595ZM36.3435 56.3133V57.7133C43.5665 57.7133 49.9468 54.4478 53.1194 48.7372L51.8955 48.0573L50.6717 47.3774C48.0843 52.0348 42.7526 54.9133 36.3435 54.9133V56.3133ZM51.8955 48.0573L51.1934 49.2685L64.4414 56.9485L65.1435 55.7373L65.8457 54.5261L52.5977 46.8461L51.8955 48.0573ZM65.1435 55.7373L63.9463 55.0117C58.4544 64.0733 48.1704 69.8893 36.3435 69.8893V71.2893V72.6893C49.0927 72.6893 60.3127 66.4093 66.3408 56.4629L65.1435 55.7373ZM107.766 2.74531V1.34531L106.366 2.74531H107.766ZM123.126 2.74531H124.526L123.126 1.34531V2.74531ZM123.126 69.9453V71.3453L124.526 69.9453H123.126ZM107.766 69.9453H106.366L107.766 71.3453V69.9453ZM107.766 43.2573H109.166L107.766 41.8573V43.2573ZM86.646 43.2573V41.8573L85.246 43.2573H86.646ZM86.646 69.9453V71.3453L88.046 69.9453H86.646ZM71.286 69.9453H69.886L71.286 71.3453V69.9453ZM71.286 2.74531V1.34531L69.886 2.74531H71.286ZM86.646 2.74531H88.046L86.646 1.34531V2.74531ZM86.646 28.4733H85.246L86.646 29.8733V28.4733ZM107.766 28.4733V29.8733L109.166 28.4733H107.766ZM107.766 2.74531V4.14531H123.126V2.74531V1.34531H107.766V2.74531ZM123.126 2.74531H121.726V69.9453H123.126H124.526V2.74531H123.126ZM123.126 69.9453V68.5453H107.766V69.9453V71.3453H123.126V69.9453ZM107.766 69.9453H109.166V43.2573H107.766H106.366V69.9453H107.766ZM107.766 43.2573V41.8573H86.646V43.2573V44.6573H107.766V43.2573ZM86.646 43.2573H85.246V69.9453H86.646H88.046V43.2573H86.646ZM86.646 69.9453V68.5453H71.286V69.9453V71.3453H86.646V69.9453ZM71.286 69.9453H72.686V2.74531H71.286H69.886V69.9453H71.286ZM71.286 2.74531V4.14531H86.646V2.74531V1.34531H71.286V2.74531ZM86.646 2.74531H85.246V28.4733H86.646H88.046V2.74531H86.646ZM86.646 28.4733V29.8733H107.766V28.4733V27.0733H86.646V28.4733ZM107.766 28.4733H109.166V2.74531H107.766H106.366V28.4733H107.766ZM148.965 55.1613H147.565L148.965 56.5613V55.1613ZM175.845 55.1613H177.245L175.845 53.7613V55.1613ZM175.845 69.9453V71.3453L177.245 69.9453H175.845ZM133.605 69.9453H132.205L133.605 71.3453V69.9453ZM133.605 2.74531V1.34531L132.205 2.74531H133.605ZM175.365 2.74531H176.765L175.365 1.34531V2.74531ZM175.365 17.5293V18.9293L176.765 17.5293H175.365ZM148.965 17.5293V16.1293L147.565 17.5293H148.965ZM148.965 28.6653H147.565L148.965 30.0653V28.6653ZM172.965 28.6653H174.365L172.965 27.2653V28.6653ZM172.965 43.2573V44.6573L174.365 43.2573H172.965ZM148.965 43.2573V41.8573L147.565 43.2573H148.965ZM148.965 55.1613V56.5613H175.845V55.1613V53.7613H148.965V55.1613ZM175.845 55.1613H174.445V69.9453H175.845H177.245V55.1613H175.845ZM175.845 69.9453V68.5453H133.605V69.9453V71.3453H175.845V69.9453ZM133.605 69.9453H135.005V2.74531H133.605H132.205V69.9453H133.605ZM133.605 2.74531V4.14531H175.365V2.74531V1.34531H133.605V2.74531ZM175.365 2.74531H173.965V17.5293H175.365H176.765V2.74531H175.365ZM175.365 17.5293V16.1293H148.965V17.5293V18.9293H175.365V17.5293ZM148.965 17.5293H147.565V28.6653H148.965H150.365V17.5293H148.965ZM148.965 28.6653V30.0653H172.965V28.6653V27.2653H148.965V28.6653ZM172.965 28.6653H171.565V43.2573H172.965H174.365V28.6653H172.965ZM172.965 43.2573V41.8573H148.965V43.2573V44.6573H172.965V43.2573ZM148.965 43.2573H147.565V55.1613H148.965H150.365V43.2573H148.965ZM198.815 55.1613H197.415L198.815 56.5613V55.1613ZM225.695 55.1613H227.095L225.695 53.7613V55.1613ZM225.695 69.9453V71.3453L227.095 69.9453H225.695ZM183.455 69.9453H182.055L183.455 71.3453V69.9453ZM183.455 2.74531V1.34531L182.055 2.74531H183.455ZM225.215 2.74531H226.615L225.215 1.34531V2.74531ZM225.215 17.5293V18.9293L226.615 17.5293H225.215ZM198.815 17.5293V16.1293L197.415 17.5293H198.815ZM198.815 28.6653H197.415L198.815 30.0653V28.6653ZM222.815 28.6653H224.215L222.815 27.2653V28.6653ZM222.815 43.2573V44.6573L224.215 43.2573H222.815ZM198.815 43.2573V41.8573L197.415 43.2573H198.815ZM198.815 55.1613V56.5613H225.695V55.1613V53.7613H198.815V55.1613ZM225.695 55.1613H224.295V69.9453H225.695H227.095V55.1613H225.695ZM225.695 69.9453V68.5453H183.455V69.9453V71.3453H225.695V69.9453ZM183.455 69.9453H184.855V2.74531H183.455H182.055V69.9453H183.455ZM183.455 2.74531V4.14531H225.215V2.74531V1.34531H183.455V2.74531ZM225.215 2.74531H223.815V17.5293H225.215H226.615V2.74531H225.215ZM225.215 17.5293V16.1293H198.815V17.5293V18.9293H225.215V17.5293ZM198.815 17.5293H197.415V28.6653H198.815H200.215V17.5293H198.815ZM198.815 28.6653V30.0653H222.815V28.6653V27.2653H198.815V28.6653ZM222.815 28.6653H221.415V43.2573H222.815H224.215V28.6653H222.815ZM222.815 43.2573V41.8573H198.815V43.2573V44.6573H222.815V43.2573ZM198.815 43.2573H197.415V55.1613H198.815H200.215V43.2573H198.815ZM268.634 69.9453L267.419 70.6422L268.634 71.3453V69.9453ZM255.962 47.8653L257.176 47.1684L255.962 46.4653V47.8653ZM248.666 47.8653V46.4653L247.266 47.8653H248.666ZM248.666 69.9453V71.3453L250.066 69.9453H248.666ZM233.306 69.9453H231.906L233.306 71.3453V69.9453ZM233.306 2.74531V1.34531L231.906 2.74531H233.306ZM270.842 45.2733L270.209 44.0244L269.63 45.9755L270.842 45.2733ZM285.146 69.9453V71.3453L286.357 69.2431L285.146 69.9453ZM248.666 17.1453V15.7453L247.266 17.1453H248.666ZM248.666 34.4253H247.266L248.666 35.8253V34.4253ZM268.634 69.9453L269.848 69.2484L257.176 47.1684L255.962 47.8653L254.747 48.5622L267.419 70.6422L268.634 69.9453ZM255.962 47.8653V46.4653H248.666V47.8653V49.2653H255.962V47.8653ZM248.666 47.8653H247.266V69.9453H248.666H250.066V47.8653H248.666ZM248.666 69.9453V68.5453H233.306V69.9453V71.3453H248.666V69.9453ZM233.306 69.9453H234.706V2.74531H233.306H231.906V69.9453H233.306ZM233.306 2.74531V4.14531H260.186V2.74531V1.34531H233.306V2.74531ZM260.186 2.74531V4.14531C272.18 4.14531 281.826 13.7905 281.826 25.7853H283.226H284.626C284.626 12.2441 273.727 1.34531 260.186 1.34531V2.74531ZM283.226 25.7853H281.826C281.826 33.4679 277.172 40.4974 270.209 44.0244L270.842 45.2733L271.474 46.5222C279.295 42.5612 284.626 34.6147 284.626 25.7853H283.226ZM270.842 45.2733L269.63 45.9755L283.934 70.6475L285.146 69.9453L286.357 69.2431L272.053 44.5711L270.842 45.2733ZM285.146 69.9453V68.5453H268.634V69.9453V71.3453H285.146V69.9453ZM248.666 17.1453H247.266V34.4253H248.666H250.066V17.1453H248.666ZM248.666 34.4253V35.8253H260.186V34.4253V33.0253H248.666V34.4253ZM260.186 34.4253V35.8253C265.319 35.8253 269.266 31.3109 269.266 25.7853H267.866H266.466C266.466 30.0517 263.5 33.0253 260.186 33.0253V34.4253ZM267.866 25.7853H269.266C269.266 20.2597 265.319 15.7453 260.186 15.7453V17.1453V18.5453C263.5 18.5453 266.466 21.5189 266.466 25.7853H267.866ZM260.186 17.1453V15.7453H248.666V17.1453V18.5453H260.186V17.1453ZM375.12 16.9533L375.822 18.1645L376.312 16.2189L375.12 16.9533ZM361.872 24.6333L360.658 25.3303L362.574 25.8445L361.872 24.6333ZM361.872 48.0573L362.574 46.8461L360.648 47.3774L361.872 48.0573ZM375.12 55.7373L376.317 56.4629L375.822 54.5261L375.12 55.7373ZM346.32 71.2893V69.8893C326.85 69.8893 312.776 55.3608 312.776 36.3453H311.376H309.976C309.976 56.8818 325.278 72.6893 346.32 72.6893V71.2893ZM311.376 36.3453H312.776C312.776 17.3298 326.85 2.80131 346.32 2.80131V1.40131V0.00130463C325.278 0.00130463 309.976 15.8088 309.976 36.3453H311.376ZM346.32 1.40131V2.80131C358.046 2.80131 368.337 8.61441 373.928 17.6877L375.12 16.9533L376.312 16.2189C370.191 6.28421 358.978 0.00130463 346.32 0.00130463V1.40131ZM375.12 16.9533L374.418 15.7421L361.17 23.4221L361.872 24.6333L362.574 25.8445L375.822 18.1645L375.12 16.9533ZM361.872 24.6333L363.086 23.9363C359.823 18.2517 353.557 14.9773 346.32 14.9773V16.3773V17.7773C352.715 17.7773 357.969 20.6469 360.658 25.3303L361.872 24.6333ZM346.32 16.3773V14.9773C340.046 14.9773 334.77 17.0842 331.062 20.8835C327.358 24.6791 325.336 30.0433 325.336 36.3453H326.736H328.136C328.136 30.6473 329.954 26.0275 333.066 22.8391C336.174 19.6545 340.69 17.7773 346.32 17.7773V16.3773ZM326.736 36.3453H325.336C325.336 42.6473 327.358 48.0115 331.062 51.8071C334.77 55.6065 340.046 57.7133 346.32 57.7133V56.3133V54.9133C340.69 54.9133 336.174 53.0362 333.066 49.8515C329.954 46.6631 328.136 42.0433 328.136 36.3453H326.736ZM346.32 56.3133V57.7133C353.543 57.7133 359.923 54.4478 363.096 48.7372L361.872 48.0573L360.648 47.3774C358.061 52.0348 352.729 54.9133 346.32 54.9133V56.3133ZM361.872 48.0573L361.17 49.2685L374.418 56.9485L375.12 55.7373L375.822 54.5261L362.574 46.8461L361.872 48.0573ZM375.12 55.7373L373.923 55.0117C368.431 64.0733 358.147 69.8893 346.32 69.8893V71.2893V72.6893C359.069 72.6893 370.289 66.4093 376.317 56.4629L375.12 55.7373ZM417.743 2.74531V1.34531L416.343 2.74531H417.743ZM433.103 2.74531H434.503L433.103 1.34531V2.74531ZM433.103 69.9453V71.3453L434.503 69.9453H433.103ZM417.743 69.9453H416.343L417.743 71.3453V69.9453ZM417.743 43.2573H419.143L417.743 41.8573V43.2573ZM396.623 43.2573V41.8573L395.223 43.2573H396.623ZM396.623 69.9453V71.3453L398.023 69.9453H396.623ZM381.263 69.9453H379.863L381.263 71.3453V69.9453ZM381.263 2.74531V1.34531L379.863 2.74531H381.263ZM396.623 2.74531H398.023L396.623 1.34531V2.74531ZM396.623 28.4733H395.223L396.623 29.8733V28.4733ZM417.743 28.4733V29.8733L419.143 28.4733H417.743ZM417.743 2.74531V4.14531H433.103V2.74531V1.34531H417.743V2.74531ZM433.103 2.74531H431.703V69.9453H433.103H434.503V2.74531H433.103ZM433.103 69.9453V68.5453H417.743V69.9453V71.3453H433.103V69.9453ZM417.743 69.9453H419.143V43.2573H417.743H416.343V69.9453H417.743ZM417.743 43.2573V41.8573H396.623V43.2573V44.6573H417.743V43.2573ZM396.623 43.2573H395.223V69.9453H396.623H398.023V43.2573H396.623ZM396.623 69.9453V68.5453H381.263V69.9453V71.3453H396.623V69.9453ZM381.263 69.9453H382.663V2.74531H381.263H379.863V69.9453H381.263ZM381.263 2.74531V4.14531H396.623V2.74531V1.34531H381.263V2.74531ZM396.623 2.74531H395.223V28.4733H396.623H398.023V2.74531H396.623ZM396.623 28.4733V29.8733H417.743V28.4733V27.0733H396.623V28.4733ZM417.743 28.4733H419.143V2.74531H417.743H416.343V28.4733H417.743ZM458.942 55.1613H457.542L458.942 56.5613V55.1613ZM485.822 55.1613H487.222L485.822 53.7613V55.1613ZM485.822 69.9453V71.3453L487.222 69.9453H485.822ZM443.582 69.9453H442.182L443.582 71.3453V69.9453ZM443.582 2.74531V1.34531L442.182 2.74531H443.582ZM485.342 2.74531H486.742L485.342 1.34531V2.74531ZM485.342 17.5293V18.9293L486.742 17.5293H485.342ZM458.942 17.5293V16.1293L457.542 17.5293H458.942ZM458.942 28.6653H457.542L458.942 30.0653V28.6653ZM482.942 28.6653H484.342L482.942 27.2653V28.6653ZM482.942 43.2573V44.6573L484.342 43.2573H482.942ZM458.942 43.2573V41.8573L457.542 43.2573H458.942ZM458.942 55.1613V56.5613H485.822V55.1613V53.7613H458.942V55.1613ZM485.822 55.1613H484.422V69.9453H485.822H487.222V55.1613H485.822ZM485.822 69.9453V68.5453H443.582V69.9453V71.3453H485.822V69.9453ZM443.582 69.9453H444.982V2.74531H443.582H442.182V69.9453H443.582ZM443.582 2.74531V4.14531H485.342V2.74531V1.34531H443.582V2.74531ZM485.342 2.74531H483.942V17.5293H485.342H486.742V2.74531H485.342ZM485.342 17.5293V16.1293H458.942V17.5293V18.9293H485.342V17.5293ZM458.942 17.5293H457.542V28.6653H458.942H460.342V17.5293H458.942ZM458.942 28.6653V30.0653H482.942V28.6653V27.2653H458.942V28.6653ZM482.942 28.6653H481.542V43.2573H482.942H484.342V28.6653H482.942ZM482.942 43.2573V41.8573H458.942V43.2573V44.6573H482.942V43.2573ZM458.942 43.2573H457.542V55.1613H458.942H460.342V43.2573H458.942ZM508.792 55.1613H507.392L508.792 56.5613V55.1613ZM535.672 55.1613H537.072L535.672 53.7613V55.1613ZM535.672 69.9453V71.3453L537.072 69.9453H535.672ZM493.432 69.9453H492.032L493.432 71.3453V69.9453ZM493.432 2.74531V1.34531L492.032 2.74531H493.432ZM535.192 2.74531H536.592L535.192 1.34531V2.74531ZM535.192 17.5293V18.9293L536.592 17.5293H535.192ZM508.792 17.5293V16.1293L507.392 17.5293H508.792ZM508.792 28.6653H507.392L508.792 30.0653V28.6653ZM532.792 28.6653H534.192L532.792 27.2653V28.6653ZM532.792 43.2573V44.6573L534.192 43.2573H532.792ZM508.792 43.2573V41.8573L507.392 43.2573H508.792ZM508.792 55.1613V56.5613H535.672V55.1613V53.7613H508.792V55.1613ZM535.672 55.1613H534.272V69.9453H535.672H537.072V55.1613H535.672ZM535.672 69.9453V68.5453H493.432V69.9453V71.3453H535.672V69.9453ZM493.432 69.9453H494.832V2.74531H493.432H492.032V69.9453H493.432ZM493.432 2.74531V4.14531H535.192V2.74531V1.34531H493.432V2.74531ZM535.192 2.74531H533.792V17.5293H535.192H536.592V2.74531H535.192ZM535.192 17.5293V16.1293H508.792V17.5293V18.9293H535.192V17.5293ZM508.792 17.5293H507.392V28.6653H508.792H510.192V17.5293H508.792ZM508.792 28.6653V30.0653H532.792V28.6653V27.2653H508.792V28.6653ZM532.792 28.6653H531.392V43.2573H532.792H534.192V28.6653H532.792ZM532.792 43.2573V41.8573H508.792V43.2573V44.6573H532.792V43.2573ZM508.792 43.2573H507.392V55.1613H508.792H510.192V43.2573H508.792ZM578.61 69.9453L577.396 70.6422L578.61 71.3453V69.9453ZM565.938 47.8653L567.152 47.1684L565.938 46.4653V47.8653ZM558.642 47.8653V46.4653L557.242 47.8653H558.642ZM558.642 69.9453V71.3453L560.042 69.9453H558.642ZM543.282 69.9453H541.882L543.282 71.3453V69.9453ZM543.282 2.74531V1.34531L541.882 2.74531H543.282ZM580.818 45.2733L580.185 44.0244L579.607 45.9755L580.818 45.2733ZM595.122 69.9453V71.3453L596.333 69.2431L595.122 69.9453ZM558.642 17.1453V15.7453L557.242 17.1453H558.642ZM558.642 34.4253H557.242L558.642 35.8253V34.4253ZM578.61 69.9453L579.824 69.2484L567.152 47.1684L565.938 47.8653L564.724 48.5622L577.396 70.6422L578.61 69.9453ZM565.938 47.8653V46.4653H558.642V47.8653V49.2653H565.938V47.8653ZM558.642 47.8653H557.242V69.9453H558.642H560.042V47.8653H558.642ZM558.642 69.9453V68.5453H543.282V69.9453V71.3453H558.642V69.9453ZM543.282 69.9453H544.682V2.74531H543.282H541.882V69.9453H543.282ZM543.282 2.74531V4.14531H570.162V2.74531V1.34531H543.282V2.74531ZM570.162 2.74531V4.14531C582.157 4.14531 591.802 13.7905 591.802 25.7853H593.202H594.602C594.602 12.2441 583.703 1.34531 570.162 1.34531V2.74531ZM593.202 25.7853H591.802C591.802 33.4679 587.149 40.4974 580.185 44.0244L580.818 45.2733L581.451 46.5222C589.271 42.5612 594.602 34.6147 594.602 25.7853H593.202ZM580.818 45.2733L579.607 45.9755L593.911 70.6475L595.122 69.9453L596.333 69.2431L582.029 44.5711L580.818 45.2733ZM595.122 69.9453V68.5453H578.61V69.9453V71.3453H595.122V69.9453ZM558.642 17.1453H557.242V34.4253H558.642H560.042V17.1453H558.642ZM558.642 34.4253V35.8253H570.162V34.4253V33.0253H558.642V34.4253ZM570.162 34.4253V35.8253C575.295 35.8253 579.242 31.3109 579.242 25.7853H577.842H576.442C576.442 30.0517 573.477 33.0253 570.162 33.0253V34.4253ZM577.842 25.7853H579.242C579.242 20.2597 575.295 15.7453 570.162 15.7453V17.1453V18.5453C573.477 18.5453 576.442 21.5189 576.442 25.7853H577.842ZM570.162 17.1453V15.7453H558.642V17.1453V18.5453H570.162V17.1453ZM685.097 16.9533L685.799 18.1645L686.288 16.2189L685.097 16.9533ZM671.849 24.6333L670.634 25.3303L672.551 25.8445L671.849 24.6333ZM671.849 48.0573L672.551 46.8461L670.625 47.3774L671.849 48.0573ZM685.097 55.7373L686.294 56.4629L685.799 54.5261L685.097 55.7373ZM656.297 71.2893V69.8893C636.826 69.8893 622.753 55.3608 622.753 36.3453H621.353H619.953C619.953 56.8818 635.255 72.6893 656.297 72.6893V71.2893ZM621.353 36.3453H622.753C622.753 17.3298 636.826 2.80131 656.297 2.80131V1.40131V0.00130463C635.255 0.00130463 619.953 15.8088 619.953 36.3453H621.353ZM656.297 1.40131V2.80131C668.023 2.80131 678.314 8.61441 683.905 17.6877L685.097 16.9533L686.288 16.2189C680.167 6.28421 668.954 0.00130463 656.297 0.00130463V1.40131ZM685.097 16.9533L684.394 15.7421L671.146 23.4221L671.849 24.6333L672.551 25.8445L685.799 18.1645L685.097 16.9533ZM671.849 24.6333L673.063 23.9363C669.799 18.2517 663.533 14.9773 656.297 14.9773V16.3773V17.7773C662.692 17.7773 667.946 20.6469 670.634 25.3303L671.849 24.6333ZM656.297 16.3773V14.9773C650.023 14.9773 644.747 17.0842 641.039 20.8835C637.334 24.6791 635.313 30.0433 635.313 36.3453H636.713H638.113C638.113 30.6473 639.931 26.0275 643.042 22.8391C646.151 19.6545 650.666 17.7773 656.297 17.7773V16.3773ZM636.713 36.3453H635.313C635.313 42.6473 637.334 48.0115 641.039 51.8071C644.747 55.6065 650.023 57.7133 656.297 57.7133V56.3133V54.9133C650.666 54.9133 646.151 53.0362 643.042 49.8515C639.931 46.6631 638.113 42.0433 638.113 36.3453H636.713ZM656.297 56.3133V57.7133C663.519 57.7133 669.9 54.4478 673.072 48.7372L671.849 48.0573L670.625 47.3774C668.037 52.0348 662.706 54.9133 656.297 54.9133V56.3133ZM671.849 48.0573L671.146 49.2685L684.394 56.9485L685.097 55.7373L685.799 54.5261L672.551 46.8461L671.849 48.0573ZM685.097 55.7373L683.899 55.0117C678.407 64.0733 668.123 69.8893 656.297 69.8893V71.2893V72.6893C669.046 72.6893 680.266 66.4093 686.294 56.4629L685.097 55.7373ZM727.719 2.74531V1.34531L726.319 2.74531H727.719ZM743.079 2.74531H744.479L743.079 1.34531V2.74531ZM743.079 69.9453V71.3453L744.479 69.9453H743.079ZM727.719 69.9453H726.319L727.719 71.3453V69.9453ZM727.719 43.2573H729.119L727.719 41.8573V43.2573ZM706.599 43.2573V41.8573L705.199 43.2573H706.599ZM706.599 69.9453V71.3453L707.999 69.9453H706.599ZM691.239 69.9453H689.839L691.239 71.3453V69.9453ZM691.239 2.74531V1.34531L689.839 2.74531H691.239ZM706.599 2.74531H707.999L706.599 1.34531V2.74531ZM706.599 28.4733H705.199L706.599 29.8733V28.4733ZM727.719 28.4733V29.8733L729.119 28.4733H727.719ZM727.719 2.74531V4.14531H743.079V2.74531V1.34531H727.719V2.74531ZM743.079 2.74531H741.679V69.9453H743.079H744.479V2.74531H743.079ZM743.079 69.9453V68.5453H727.719V69.9453V71.3453H743.079V69.9453ZM727.719 69.9453H729.119V43.2573H727.719H726.319V69.9453H727.719ZM727.719 43.2573V41.8573H706.599V43.2573V44.6573H727.719V43.2573ZM706.599 43.2573H705.199V69.9453H706.599H707.999V43.2573H706.599ZM706.599 69.9453V68.5453H691.239V69.9453V71.3453H706.599V69.9453ZM691.239 69.9453H692.639V2.74531H691.239H689.839V69.9453H691.239ZM691.239 2.74531V4.14531H706.599V2.74531V1.34531H691.239V2.74531ZM706.599 2.74531H705.199V28.4733H706.599H707.999V2.74531H706.599ZM706.599 28.4733V29.8733H727.719V28.4733V27.0733H706.599V28.4733ZM727.719 28.4733H729.119V2.74531H727.719H726.319V28.4733H727.719ZM768.918 55.1613H767.518L768.918 56.5613V55.1613ZM795.798 55.1613H797.198L795.798 53.7613V55.1613ZM795.798 69.9453V71.3453L797.198 69.9453H795.798ZM753.558 69.9453H752.158L753.558 71.3453V69.9453ZM753.558 2.74531V1.34531L752.158 2.74531H753.558ZM795.318 2.74531H796.718L795.318 1.34531V2.74531ZM795.318 17.5293V18.9293L796.718 17.5293H795.318ZM768.918 17.5293V16.1293L767.518 17.5293H768.918ZM768.918 28.6653H767.518L768.918 30.0653V28.6653ZM792.918 28.6653H794.318L792.918 27.2653V28.6653ZM792.918 43.2573V44.6573L794.318 43.2573H792.918ZM768.918 43.2573V41.8573L767.518 43.2573H768.918ZM768.918 55.1613V56.5613H795.798V55.1613V53.7613H768.918V55.1613ZM795.798 55.1613H794.398V69.9453H795.798H797.198V55.1613H795.798ZM795.798 69.9453V68.5453H753.558V69.9453V71.3453H795.798V69.9453ZM753.558 69.9453H754.958V2.74531H753.558H752.158V69.9453H753.558ZM753.558 2.74531V4.14531H795.318V2.74531V1.34531H753.558V2.74531ZM795.318 2.74531H793.918V17.5293H795.318H796.718V2.74531H795.318ZM795.318 17.5293V16.1293H768.918V17.5293V18.9293H795.318V17.5293ZM768.918 17.5293H767.518V28.6653H768.918H770.318V17.5293H768.918ZM768.918 28.6653V30.0653H792.918V28.6653V27.2653H768.918V28.6653ZM792.918 28.6653H791.518V43.2573H792.918H794.318V28.6653H792.918ZM792.918 43.2573V41.8573H768.918V43.2573V44.6573H792.918V43.2573ZM768.918 43.2573H767.518V55.1613H768.918H770.318V43.2573H768.918ZM818.768 55.1613H817.368L818.768 56.5613V55.1613ZM845.648 55.1613H847.048L845.648 53.7613V55.1613ZM845.648 69.9453V71.3453L847.048 69.9453H845.648ZM803.408 69.9453H802.008L803.408 71.3453V69.9453ZM803.408 2.74531V1.34531L802.008 2.74531H803.408ZM845.168 2.74531H846.568L845.168 1.34531V2.74531ZM845.168 17.5293V18.9293L846.568 17.5293H845.168ZM818.768 17.5293V16.1293L817.368 17.5293H818.768ZM818.768 28.6653H817.368L818.768 30.0653V28.6653ZM842.768 28.6653H844.168L842.768 27.2653V28.6653ZM842.768 43.2573V44.6573L844.168 43.2573H842.768ZM818.768 43.2573V41.8573L817.368 43.2573H818.768ZM818.768 55.1613V56.5613H845.648V55.1613V53.7613H818.768V55.1613ZM845.648 55.1613H844.248V69.9453H845.648H847.048V55.1613H845.648ZM845.648 69.9453V68.5453H803.408V69.9453V71.3453H845.648V69.9453ZM803.408 69.9453H804.808V2.74531H803.408H802.008V69.9453H803.408ZM803.408 2.74531V4.14531H845.168V2.74531V1.34531H803.408V2.74531ZM845.168 2.74531H843.768V17.5293H845.168H846.568V2.74531H845.168ZM845.168 17.5293V16.1293H818.768V17.5293V18.9293H845.168V17.5293ZM818.768 17.5293H817.368V28.6653H818.768H820.168V17.5293H818.768ZM818.768 28.6653V30.0653H842.768V28.6653V27.2653H818.768V28.6653ZM842.768 28.6653H841.368V43.2573H842.768H844.168V28.6653H842.768ZM842.768 43.2573V41.8573H818.768V43.2573V44.6573H842.768V43.2573ZM818.768 43.2573H817.368V55.1613H818.768H820.168V43.2573H818.768ZM888.587 69.9453L887.372 70.6422L888.587 71.3453V69.9453ZM875.915 47.8653L877.129 47.1684L875.915 46.4653V47.8653ZM868.619 47.8653V46.4653L867.219 47.8653H868.619ZM868.619 69.9453V71.3453L870.019 69.9453H868.619ZM853.259 69.9453H851.859L853.259 71.3453V69.9453ZM853.259 2.74531V1.34531L851.859 2.74531H853.259ZM890.795 45.2733L890.162 44.0244L889.583 45.9755L890.795 45.2733ZM905.099 69.9453V71.3453L906.31 69.2431L905.099 69.9453ZM868.619 17.1453V15.7453L867.219 17.1453H868.619ZM868.619 34.4253H867.219L868.619 35.8253V34.4253ZM888.587 69.9453L889.801 69.2484L877.129 47.1684L875.915 47.8653L874.7 48.5622L887.372 70.6422L888.587 69.9453ZM875.915 47.8653V46.4653H868.619V47.8653V49.2653H875.915V47.8653ZM868.619 47.8653H867.219V69.9453H868.619H870.019V47.8653H868.619ZM868.619 69.9453V68.5453H853.259V69.9453V71.3453H868.619V69.9453ZM853.259 69.9453H854.659V2.74531H853.259H851.859V69.9453H853.259ZM853.259 2.74531V4.14531H880.139V2.74531V1.34531H853.259V2.74531ZM880.139 2.74531V4.14531C892.133 4.14531 901.779 13.7905 901.779 25.7853H903.179H904.579C904.579 12.2441 893.68 1.34531 880.139 1.34531V2.74531ZM903.179 25.7853H901.779C901.779 33.4679 897.125 40.4974 890.162 44.0244L890.795 45.2733L891.427 46.5222C899.248 42.5612 904.579 34.6147 904.579 25.7853H903.179ZM890.795 45.2733L889.583 45.9755L903.887 70.6475L905.099 69.9453L906.31 69.2431L892.006 44.5711L890.795 45.2733ZM905.099 69.9453V68.5453H888.587V69.9453V71.3453H905.099V69.9453ZM868.619 17.1453H867.219V34.4253H868.619H870.019V17.1453H868.619ZM868.619 34.4253V35.8253H880.139V34.4253V33.0253H868.619V34.4253ZM880.139 34.4253V35.8253C885.272 35.8253 889.219 31.3109 889.219 25.7853H887.819H886.419C886.419 30.0517 883.453 33.0253 880.139 33.0253V34.4253ZM887.819 25.7853H889.219C889.219 20.2597 885.272 15.7453 880.139 15.7453V17.1453V18.5453C883.453 18.5453 886.419 21.5189 886.419 25.7853H887.819ZM880.139 17.1453V15.7453H868.619V17.1453V18.5453H880.139V17.1453ZM995.073 16.9533L995.775 18.1645L996.265 16.2189L995.073 16.9533ZM981.825 24.6333L980.611 25.3303L982.527 25.8445L981.825 24.6333ZM981.825 48.0573L982.527 46.8461L980.601 47.3774L981.825 48.0573ZM995.073 55.7373L996.27 56.4629L995.775 54.5261L995.073 55.7373ZM966.273 71.2893V69.8893C946.803 69.8893 932.729 55.3608 932.729 36.3453H931.329H929.929C929.929 56.8818 945.231 72.6893 966.273 72.6893V71.2893ZM931.329 36.3453H932.729C932.729 17.3298 946.803 2.80131 966.273 2.80131V1.40131V0.00130463C945.231 0.00130463 929.929 15.8088 929.929 36.3453H931.329ZM966.273 1.40131V2.80131C978 2.80131 988.291 8.61441 993.881 17.6877L995.073 16.9533L996.265 16.2189C990.144 6.28421 978.931 0.00130463 966.273 0.00130463V1.40131ZM995.073 16.9533L994.371 15.7421L981.123 23.4221L981.825 24.6333L982.527 25.8445L995.775 18.1645L995.073 16.9533ZM981.825 24.6333L983.039 23.9363C979.776 18.2517 973.51 14.9773 966.273 14.9773V16.3773V17.7773C972.668 17.7773 977.922 20.6469 980.611 25.3303L981.825 24.6333ZM966.273 16.3773V14.9773C959.999 14.9773 954.723 17.0842 951.015 20.8835C947.311 24.6791 945.289 30.0433 945.289 36.3453H946.689H948.089C948.089 30.6473 949.907 26.0275 953.019 22.8391C956.127 19.6545 960.643 17.7773 966.273 17.7773V16.3773ZM946.689 36.3453H945.289C945.289 42.6473 947.311 48.0115 951.015 51.8071C954.723 55.6065 959.999 57.7133 966.273 57.7133V56.3133V54.9133C960.643 54.9133 956.127 53.0362 953.019 49.8515C949.907 46.6631 948.089 42.0433 948.089 36.3453H946.689ZM966.273 56.3133V57.7133C973.496 57.7133 979.876 54.4478 983.049 48.7372L981.825 48.0573L980.601 47.3774C978.014 52.0348 972.682 54.9133 966.273 54.9133V56.3133ZM981.825 48.0573L981.123 49.2685L994.371 56.9485L995.073 55.7373L995.775 54.5261L982.527 46.8461L981.825 48.0573ZM995.073 55.7373L993.876 55.0117C988.384 64.0733 978.1 69.8893 966.273 69.8893V71.2893V72.6893C979.022 72.6893 990.242 66.4093 996.27 56.4629L995.073 55.7373ZM1037.7 2.74531V1.34531L1036.3 2.74531H1037.7ZM1053.06 2.74531H1054.46L1053.06 1.34531V2.74531ZM1053.06 69.9453V71.3453L1054.46 69.9453H1053.06ZM1037.7 69.9453H1036.3L1037.7 71.3453V69.9453ZM1037.7 43.2573H1039.1L1037.7 41.8573V43.2573ZM1016.58 43.2573V41.8573L1015.18 43.2573H1016.58ZM1016.58 69.9453V71.3453L1017.98 69.9453H1016.58ZM1001.22 69.9453H999.815L1001.22 71.3453V69.9453ZM1001.22 2.74531V1.34531L999.815 2.74531H1001.22ZM1016.58 2.74531H1017.98L1016.58 1.34531V2.74531ZM1016.58 28.4733H1015.18L1016.58 29.8733V28.4733ZM1037.7 28.4733V29.8733L1039.1 28.4733H1037.7ZM1037.7 2.74531V4.14531H1053.06V2.74531V1.34531H1037.7V2.74531ZM1053.06 2.74531H1051.66V69.9453H1053.06H1054.46V2.74531H1053.06ZM1053.06 69.9453V68.5453H1037.7V69.9453V71.3453H1053.06V69.9453ZM1037.7 69.9453H1039.1V43.2573H1037.7H1036.3V69.9453H1037.7ZM1037.7 43.2573V41.8573H1016.58V43.2573V44.6573H1037.7V43.2573ZM1016.58 43.2573H1015.18V69.9453H1016.58H1017.98V43.2573H1016.58ZM1016.58 69.9453V68.5453H1001.22V69.9453V71.3453H1016.58V69.9453ZM1001.22 69.9453H1002.62V2.74531H1001.22H999.815V69.9453H1001.22ZM1001.22 2.74531V4.14531H1016.58V2.74531V1.34531H1001.22V2.74531ZM1016.58 2.74531H1015.18V28.4733H1016.58H1017.98V2.74531H1016.58ZM1016.58 28.4733V29.8733H1037.7V28.4733V27.0733H1016.58V28.4733ZM1037.7 28.4733H1039.1V2.74531H1037.7H1036.3V28.4733H1037.7ZM1078.89 55.1613H1077.49L1078.89 56.5613V55.1613ZM1105.77 55.1613H1107.17L1105.77 53.7613V55.1613ZM1105.77 69.9453V71.3453L1107.17 69.9453H1105.77ZM1063.53 69.9453H1062.13L1063.53 71.3453V69.9453ZM1063.53 2.74531V1.34531L1062.13 2.74531H1063.53ZM1105.29 2.74531H1106.69L1105.29 1.34531V2.74531ZM1105.29 17.5293V18.9293L1106.69 17.5293H1105.29ZM1078.89 17.5293V16.1293L1077.49 17.5293H1078.89ZM1078.89 28.6653H1077.49L1078.89 30.0653V28.6653ZM1102.89 28.6653H1104.29L1102.89 27.2653V28.6653ZM1102.89 43.2573V44.6573L1104.29 43.2573H1102.89ZM1078.89 43.2573V41.8573L1077.49 43.2573H1078.89ZM1078.89 55.1613V56.5613H1105.77V55.1613V53.7613H1078.89V55.1613ZM1105.77 55.1613H1104.37V69.9453H1105.77H1107.17V55.1613H1105.77ZM1105.77 69.9453V68.5453H1063.53V69.9453V71.3453H1105.77V69.9453ZM1063.53 69.9453H1064.93V2.74531H1063.53H1062.13V69.9453H1063.53ZM1063.53 2.74531V4.14531H1105.29V2.74531V1.34531H1063.53V2.74531ZM1105.29 2.74531H1103.89V17.5293H1105.29H1106.69V2.74531H1105.29ZM1105.29 17.5293V16.1293H1078.89V17.5293V18.9293H1105.29V17.5293ZM1078.89 17.5293H1077.49V28.6653H1078.89H1080.29V17.5293H1078.89ZM1078.89 28.6653V30.0653H1102.89V28.6653V27.2653H1078.89V28.6653ZM1102.89 28.6653H1101.49V43.2573H1102.89H1104.29V28.6653H1102.89ZM1102.89 43.2573V41.8573H1078.89V43.2573V44.6573H1102.89V43.2573ZM1078.89 43.2573H1077.49V55.1613H1078.89H1080.29V43.2573H1078.89ZM1128.74 55.1613H1127.34L1128.74 56.5613V55.1613ZM1155.62 55.1613H1157.02L1155.62 53.7613V55.1613ZM1155.62 69.9453V71.3453L1157.02 69.9453H1155.62ZM1113.38 69.9453H1111.98L1113.38 71.3453V69.9453ZM1113.38 2.74531V1.34531L1111.98 2.74531H1113.38ZM1155.14 2.74531H1156.54L1155.14 1.34531V2.74531ZM1155.14 17.5293V18.9293L1156.54 17.5293H1155.14ZM1128.74 17.5293V16.1293L1127.34 17.5293H1128.74ZM1128.74 28.6653H1127.34L1128.74 30.0653V28.6653ZM1152.74 28.6653H1154.14L1152.74 27.2653V28.6653ZM1152.74 43.2573V44.6573L1154.14 43.2573H1152.74ZM1128.74 43.2573V41.8573L1127.34 43.2573H1128.74ZM1128.74 55.1613V56.5613H1155.62V55.1613V53.7613H1128.74V55.1613ZM1155.62 55.1613H1154.22V69.9453H1155.62H1157.02V55.1613H1155.62ZM1155.62 69.9453V68.5453H1113.38V69.9453V71.3453H1155.62V69.9453ZM1113.38 69.9453H1114.78V2.74531H1113.38H1111.98V69.9453H1113.38ZM1113.38 2.74531V4.14531H1155.14V2.74531V1.34531H1113.38V2.74531ZM1155.14 2.74531H1153.74V17.5293H1155.14H1156.54V2.74531H1155.14ZM1155.14 17.5293V16.1293H1128.74V17.5293V18.9293H1155.14V17.5293ZM1128.74 17.5293H1127.34V28.6653H1128.74H1130.14V17.5293H1128.74ZM1128.74 28.6653V30.0653H1152.74V28.6653V27.2653H1128.74V28.6653ZM1152.74 28.6653H1151.34V43.2573H1152.74H1154.14V28.6653H1152.74ZM1152.74 43.2573V41.8573H1128.74V43.2573V44.6573H1152.74V43.2573ZM1128.74 43.2573H1127.34V55.1613H1128.74H1130.14V43.2573H1128.74ZM1198.56 69.9453L1197.35 70.6422L1198.56 71.3453V69.9453ZM1185.89 47.8653L1187.11 47.1684L1185.89 46.4653V47.8653ZM1178.59 47.8653V46.4653L1177.19 47.8653H1178.59ZM1178.59 69.9453V71.3453L1179.99 69.9453H1178.59ZM1163.23 69.9453H1161.83L1163.23 71.3453V69.9453ZM1163.23 2.74531V1.34531L1161.83 2.74531H1163.23ZM1200.77 45.2733L1200.14 44.0244L1199.56 45.9755L1200.77 45.2733ZM1215.07 69.9453V71.3453L1216.29 69.2431L1215.07 69.9453ZM1178.59 17.1453V15.7453L1177.19 17.1453H1178.59ZM1178.59 34.4253H1177.19L1178.59 35.8253V34.4253ZM1198.56 69.9453L1199.78 69.2484L1187.11 47.1684L1185.89 47.8653L1184.68 48.5622L1197.35 70.6422L1198.56 69.9453ZM1185.89 47.8653V46.4653H1178.59V47.8653V49.2653H1185.89V47.8653ZM1178.59 47.8653H1177.19V69.9453H1178.59H1179.99V47.8653H1178.59ZM1178.59 69.9453V68.5453H1163.23V69.9453V71.3453H1178.59V69.9453ZM1163.23 69.9453H1164.64V2.74531H1163.23H1161.83V69.9453H1163.23ZM1163.23 2.74531V4.14531H1190.11V2.74531V1.34531H1163.23V2.74531ZM1190.11 2.74531V4.14531C1202.11 4.14531 1211.76 13.7905 1211.76 25.7853H1213.16H1214.55C1214.55 12.2441 1203.66 1.34531 1190.11 1.34531V2.74531ZM1213.16 25.7853H1211.76C1211.76 33.4679 1207.1 40.4974 1200.14 44.0244L1200.77 45.2733L1201.4 46.5222C1209.22 42.5612 1214.55 34.6147 1214.55 25.7853H1213.16ZM1200.77 45.2733L1199.56 45.9755L1213.86 70.6475L1215.07 69.9453L1216.29 69.2431L1201.98 44.5711L1200.77 45.2733ZM1215.07 69.9453V68.5453H1198.56V69.9453V71.3453H1215.07V69.9453ZM1178.59 17.1453H1177.19V34.4253H1178.59H1179.99V17.1453H1178.59ZM1178.59 34.4253V35.8253H1190.11V34.4253V33.0253H1178.59V34.4253ZM1190.11 34.4253V35.8253C1195.25 35.8253 1199.19 31.3109 1199.19 25.7853H1197.79H1196.4C1196.4 30.0517 1193.43 33.0253 1190.11 33.0253V34.4253ZM1197.79 25.7853H1199.19C1199.19 20.2597 1195.25 15.7453 1190.11 15.7453V17.1453V18.5453C1193.43 18.5453 1196.4 21.5189 1196.4 25.7853H1197.79ZM1190.11 17.1453V15.7453H1178.59V17.1453V18.5453H1190.11V17.1453Z" fill="white" mask="url(#path-1-outside-1_1713_629)"/>
</svg>
