<svg width="1926" height="115" viewBox="0 0 1926 115" fill="none" xmlns="http://www.w3.org/2000/svg">
<mask id="path-1-outside-1_1708_606" maskUnits="userSpaceOnUse" x="-0.558594" y="-0.472656" width="1926" height="116" fill="black">
<rect fill="white" x="-0.558594" y="-0.472656" width="1926" height="116"/>
<path d="M57.3294 112.655C25.2574 112.655 2.00141 88.6393 2.00141 57.3273C2.00141 26.0153 25.2574 1.99934 57.3294 1.99934C76.6334 1.99934 93.6574 11.5753 102.929 26.6233L81.9534 38.7833C77.2414 30.5753 68.1214 25.7113 57.3294 25.7113C38.4814 25.7113 26.3214 38.3273 26.3214 57.3273C26.3214 76.3273 38.4814 88.9433 57.3294 88.9433C68.1214 88.9433 77.3934 84.0793 81.9534 75.8713L102.929 88.0313C93.8094 103.079 76.7854 112.655 57.3294 112.655ZM170.415 4.12734H194.735V110.527H170.415V68.2713H136.975V110.527H112.655V4.12734H136.975V44.8633H170.415V4.12734ZM235.647 87.1193H278.207V110.527H211.327V4.12734H277.447V27.5353H235.647V45.1673H273.647V68.2713H235.647V87.1193ZM314.576 87.1193H357.136V110.527H290.256V4.12734H356.376V27.5353H314.576V45.1673H352.576V68.2713H314.576V87.1193ZM425.122 110.527L405.058 75.5673H393.506V110.527H369.186V4.12734H411.746C431.962 4.12734 448.226 20.3913 448.226 40.6073C448.226 53.6793 440.322 65.5353 428.618 71.4633L451.266 110.527H425.122ZM393.506 26.9273V54.2873H411.746C418.434 54.2873 423.906 48.3593 423.906 40.6073C423.906 32.8553 418.434 26.9273 411.746 26.9273H393.506ZM548.126 112.655C516.054 112.655 492.798 88.6393 492.798 57.3273C492.798 26.0153 516.054 1.99934 548.126 1.99934C567.43 1.99934 584.454 11.5753 593.726 26.6233L572.75 38.7833C568.038 30.5753 558.918 25.7113 548.126 25.7113C529.278 25.7113 517.118 38.3273 517.118 57.3273C517.118 76.3273 529.278 88.9433 548.126 88.9433C558.918 88.9433 568.19 84.0793 572.75 75.8713L593.726 88.0313C584.606 103.079 567.582 112.655 548.126 112.655ZM661.211 4.12734H685.531V110.527H661.211V68.2713H627.771V110.527H603.451V4.12734H627.771V44.8633H661.211V4.12734ZM726.443 87.1193H769.003V110.527H702.123V4.12734H768.243V27.5353H726.443V45.1673H764.443V68.2713H726.443V87.1193ZM805.372 87.1193H847.932V110.527H781.052V4.12734H847.173V27.5353H805.372V45.1673H843.372V68.2713H805.372V87.1193ZM915.918 110.527L895.854 75.5673H884.302V110.527H859.982V4.12734H902.542C922.758 4.12734 939.022 20.3913 939.022 40.6073C939.022 53.6793 931.118 65.5353 919.414 71.4633L942.062 110.527H915.918ZM884.302 26.9273V54.2873H902.542C909.23 54.2873 914.702 48.3593 914.702 40.6073C914.702 32.8553 909.23 26.9273 902.542 26.9273H884.302ZM1038.92 112.655C1006.85 112.655 983.594 88.6393 983.594 57.3273C983.594 26.0153 1006.85 1.99934 1038.92 1.99934C1058.23 1.99934 1075.25 11.5753 1084.52 26.6233L1063.55 38.7833C1058.83 30.5753 1049.71 25.7113 1038.92 25.7113C1020.07 25.7113 1007.91 38.3273 1007.91 57.3273C1007.91 76.3273 1020.07 88.9433 1038.92 88.9433C1049.71 88.9433 1058.99 84.0793 1063.55 75.8713L1084.52 88.0313C1075.4 103.079 1058.38 112.655 1038.92 112.655ZM1152.01 4.12734H1176.33V110.527H1152.01V68.2713H1118.57V110.527H1094.25V4.12734H1118.57V44.8633H1152.01V4.12734ZM1217.24 87.1193H1259.8V110.527H1192.92V4.12734H1259.04V27.5353H1217.24V45.1673H1255.24V68.2713H1217.24V87.1193ZM1296.17 87.1193H1338.73V110.527H1271.85V4.12734H1337.97V27.5353H1296.17V45.1673H1334.17V68.2713H1296.17V87.1193ZM1406.71 110.527L1386.65 75.5673H1375.1V110.527H1350.78V4.12734H1393.34C1413.55 4.12734 1429.82 20.3913 1429.82 40.6073C1429.82 53.6793 1421.91 65.5353 1410.21 71.4633L1432.86 110.527H1406.71ZM1375.1 26.9273V54.2873H1393.34C1400.03 54.2873 1405.5 48.3593 1405.5 40.6073C1405.5 32.8553 1400.03 26.9273 1393.34 26.9273H1375.1ZM1529.72 112.655C1497.65 112.655 1474.39 88.6393 1474.39 57.3273C1474.39 26.0153 1497.65 1.99934 1529.72 1.99934C1549.02 1.99934 1566.05 11.5753 1575.32 26.6233L1554.34 38.7833C1549.63 30.5753 1540.51 25.7113 1529.72 25.7113C1510.87 25.7113 1498.71 38.3273 1498.71 57.3273C1498.71 76.3273 1510.87 88.9433 1529.72 88.9433C1540.51 88.9433 1549.78 84.0793 1554.34 75.8713L1575.32 88.0313C1566.2 103.079 1549.17 112.655 1529.72 112.655ZM1642.8 4.12734H1667.12V110.527H1642.8V68.2713H1609.36V110.527H1585.04V4.12734H1609.36V44.8633H1642.8V4.12734ZM1708.04 87.1193H1750.6V110.527H1683.72V4.12734H1749.84V27.5353H1708.04V45.1673H1746.04V68.2713H1708.04V87.1193ZM1786.96 87.1193H1829.52V110.527H1762.64V4.12734H1828.76V27.5353H1786.96V45.1673H1824.96V68.2713H1786.96V87.1193ZM1897.51 110.527L1877.45 75.5673H1865.89V110.527H1841.57V4.12734H1884.13C1904.35 4.12734 1920.61 20.3913 1920.61 40.6073C1920.61 53.6793 1912.71 65.5353 1901.01 71.4633L1923.65 110.527H1897.51ZM1865.89 26.9273V54.2873H1884.13C1890.82 54.2873 1896.29 48.3593 1896.29 40.6073C1896.29 32.8553 1890.82 26.9273 1884.13 26.9273H1865.89Z"/>
</mask>
<path d="M102.929 26.6233L103.932 28.3536L104.632 25.5742L102.929 26.6233ZM81.9534 38.7833L80.2189 39.7791L82.9565 40.5136L81.9534 38.7833ZM81.9534 75.8713L82.9565 74.1411L80.2051 74.9001L81.9534 75.8713ZM102.929 88.0313L104.64 89.0679L103.932 86.3011L102.929 88.0313ZM57.3294 112.655V110.655C26.3801 110.655 4.00141 87.553 4.00141 57.3273H2.00141H0.00140643C0.00140643 89.7257 24.1347 114.655 57.3294 114.655V112.655ZM2.00141 57.3273H4.00141C4.00141 27.1017 26.3801 3.99934 57.3294 3.99934V1.99934V-0.000663757C24.1347 -0.000663757 0.00140643 24.929 0.00140643 57.3273H2.00141ZM57.3294 1.99934V3.99934C75.9683 3.99934 92.3338 13.2398 101.227 27.6725L102.929 26.6233L104.632 25.5742C94.981 9.91092 77.2985 -0.000663757 57.3294 -0.000663757V1.99934ZM102.929 26.6233L101.926 24.8931L80.9504 37.0531L81.9534 38.7833L82.9565 40.5136L103.932 28.3536L102.929 26.6233ZM81.9534 38.7833L83.6879 37.7876C78.5654 28.8645 68.7224 23.7113 57.3294 23.7113V25.7113V27.7113C67.5204 27.7113 75.9174 32.2862 80.2189 39.7791L81.9534 38.7833ZM57.3294 25.7113V23.7113C47.446 23.7113 39.1506 27.0294 33.3261 32.9974C27.5068 38.9602 24.3214 47.3959 24.3214 57.3273H26.3214H28.3214C28.3214 48.2587 31.2161 40.8865 36.1887 35.7912C41.1562 30.7013 48.3648 27.7113 57.3294 27.7113V25.7113ZM26.3214 57.3273H24.3214C24.3214 67.2587 27.5068 75.6945 33.3261 81.6572C39.1506 87.6253 47.446 90.9433 57.3294 90.9433V88.9433V86.9433C48.3648 86.9433 41.1562 83.9534 36.1887 78.8634C31.2161 73.7682 28.3214 66.3959 28.3214 57.3273H26.3214ZM57.3294 88.9433V90.9433C68.7027 90.9433 78.7238 85.803 83.7017 76.8426L81.9534 75.8713L80.2051 74.9001C76.0631 82.3557 67.5401 86.9433 57.3294 86.9433V88.9433ZM81.9534 75.8713L80.9504 77.6016L101.926 89.7616L102.929 88.0313L103.932 86.3011L82.9565 74.1411L81.9534 75.8713ZM102.929 88.0313L101.219 86.9947C92.482 101.411 76.1266 110.655 57.3294 110.655V112.655V114.655C77.4442 114.655 95.1368 104.748 104.64 89.0679L102.929 88.0313ZM170.415 4.12733V2.12733L168.415 4.12733H170.415ZM194.735 4.12733H196.735L194.735 2.12733V4.12733ZM194.735 110.527V112.527L196.735 110.527H194.735ZM170.415 110.527H168.415L170.415 112.527V110.527ZM170.415 68.2713H172.415L170.415 66.2713V68.2713ZM136.975 68.2713V66.2713L134.975 68.2713H136.975ZM136.975 110.527V112.527L138.975 110.527H136.975ZM112.655 110.527H110.655L112.655 112.527V110.527ZM112.655 4.12733V2.12733L110.655 4.12733H112.655ZM136.975 4.12733H138.975L136.975 2.12733V4.12733ZM136.975 44.8633H134.975L136.975 46.8633V44.8633ZM170.415 44.8633V46.8633L172.415 44.8633H170.415ZM170.415 4.12733V6.12733H194.735V4.12733V2.12733H170.415V4.12733ZM194.735 4.12733H192.735V110.527H194.735H196.735V4.12733H194.735ZM194.735 110.527V108.527H170.415V110.527V112.527H194.735V110.527ZM170.415 110.527H172.415V68.2713H170.415H168.415V110.527H170.415ZM170.415 68.2713V66.2713H136.975V68.2713V70.2713H170.415V68.2713ZM136.975 68.2713H134.975V110.527H136.975H138.975V68.2713H136.975ZM136.975 110.527V108.527H112.655V110.527V112.527H136.975V110.527ZM112.655 110.527H114.655V4.12733H112.655H110.655V110.527H112.655ZM112.655 4.12733V6.12733H136.975V4.12733V2.12733H112.655V4.12733ZM136.975 4.12733H134.975V44.8633H136.975H138.975V4.12733H136.975ZM136.975 44.8633V46.8633H170.415V44.8633V42.8633H136.975V44.8633ZM170.415 44.8633H172.415V4.12733H170.415H168.415V44.8633H170.415ZM235.647 87.1193H233.647L235.647 89.1193V87.1193ZM278.207 87.1193H280.207L278.207 85.1193V87.1193ZM278.207 110.527V112.527L280.207 110.527H278.207ZM211.327 110.527H209.327L211.327 112.527V110.527ZM211.327 4.12733V2.12733L209.327 4.12733H211.327ZM277.447 4.12733H279.447L277.447 2.12733V4.12733ZM277.447 27.5353V29.5353L279.447 27.5353H277.447ZM235.647 27.5353V25.5353L233.647 27.5353H235.647ZM235.647 45.1673H233.647L235.647 47.1673V45.1673ZM273.647 45.1673H275.647L273.647 43.1673V45.1673ZM273.647 68.2713V70.2713L275.647 68.2713H273.647ZM235.647 68.2713V66.2713L233.647 68.2713H235.647ZM235.647 87.1193V89.1193H278.207V87.1193V85.1193H235.647V87.1193ZM278.207 87.1193H276.207V110.527H278.207H280.207V87.1193H278.207ZM278.207 110.527V108.527H211.327V110.527V112.527H278.207V110.527ZM211.327 110.527H213.327V4.12733H211.327H209.327V110.527H211.327ZM211.327 4.12733V6.12733H277.447V4.12733V2.12733H211.327V4.12733ZM277.447 4.12733H275.447V27.5353H277.447H279.447V4.12733H277.447ZM277.447 27.5353V25.5353H235.647V27.5353V29.5353H277.447V27.5353ZM235.647 27.5353H233.647V45.1673H235.647H237.647V27.5353H235.647ZM235.647 45.1673V47.1673H273.647V45.1673V43.1673H235.647V45.1673ZM273.647 45.1673H271.647V68.2713H273.647H275.647V45.1673H273.647ZM273.647 68.2713V66.2713H235.647V68.2713V70.2713H273.647V68.2713ZM235.647 68.2713H233.647V87.1193H235.647H237.647V68.2713H235.647ZM314.576 87.1193H312.576L314.576 89.1193V87.1193ZM357.136 87.1193H359.136L357.136 85.1193V87.1193ZM357.136 110.527V112.527L359.136 110.527H357.136ZM290.256 110.527H288.256L290.256 112.527V110.527ZM290.256 4.12733V2.12733L288.256 4.12733H290.256ZM356.376 4.12733H358.376L356.376 2.12733V4.12733ZM356.376 27.5353V29.5353L358.376 27.5353H356.376ZM314.576 27.5353V25.5353L312.576 27.5353H314.576ZM314.576 45.1673H312.576L314.576 47.1673V45.1673ZM352.576 45.1673H354.576L352.576 43.1673V45.1673ZM352.576 68.2713V70.2713L354.576 68.2713H352.576ZM314.576 68.2713V66.2713L312.576 68.2713H314.576ZM314.576 87.1193V89.1193H357.136V87.1193V85.1193H314.576V87.1193ZM357.136 87.1193H355.136V110.527H357.136H359.136V87.1193H357.136ZM357.136 110.527V108.527H290.256V110.527V112.527H357.136V110.527ZM290.256 110.527H292.256V4.12733H290.256H288.256V110.527H290.256ZM290.256 4.12733V6.12733H356.376V4.12733V2.12733H290.256V4.12733ZM356.376 4.12733H354.376V27.5353H356.376H358.376V4.12733H356.376ZM356.376 27.5353V25.5353H314.576V27.5353V29.5353H356.376V27.5353ZM314.576 27.5353H312.576V45.1673H314.576H316.576V27.5353H314.576ZM314.576 45.1673V47.1673H352.576V45.1673V43.1673H314.576V45.1673ZM352.576 45.1673H350.576V68.2713H352.576H354.576V45.1673H352.576ZM352.576 68.2713V66.2713H314.576V68.2713V70.2713H352.576V68.2713ZM314.576 68.2713H312.576V87.1193H314.576H316.576V68.2713H314.576ZM425.122 110.527L423.387 111.523L425.122 112.527V110.527ZM405.058 75.5673L406.793 74.5718L405.058 73.5673V75.5673ZM393.506 75.5673V73.5673L391.506 75.5673H393.506ZM393.506 110.527V112.527L395.506 110.527H393.506ZM369.186 110.527H367.186L369.186 112.527V110.527ZM369.186 4.12733V2.12733L367.186 4.12733H369.186ZM428.618 71.4633L427.714 69.6792L426.888 72.4665L428.618 71.4633ZM451.266 110.527V112.527L452.996 109.524L451.266 110.527ZM393.506 26.9273V24.9273L391.506 26.9273H393.506ZM393.506 54.2873H391.506L393.506 56.2873V54.2873ZM425.122 110.527L426.857 109.532L406.793 74.5718L405.058 75.5673L403.323 76.5629L423.387 111.523L425.122 110.527ZM405.058 75.5673V73.5673H393.506V75.5673V77.5673H405.058V75.5673ZM393.506 75.5673H391.506V110.527H393.506H395.506V75.5673H393.506ZM393.506 110.527V108.527H369.186V110.527V112.527H393.506V110.527ZM369.186 110.527H371.186V4.12733H369.186H367.186V110.527H369.186ZM369.186 4.12733V6.12733H411.746V4.12733V2.12733H369.186V4.12733ZM411.746 4.12733V6.12733C430.857 6.12733 446.226 21.4959 446.226 40.6073H448.226H450.226C450.226 19.2868 433.066 2.12733 411.746 2.12733V4.12733ZM448.226 40.6073H446.226C446.226 52.8602 438.806 64.0612 427.714 69.6792L428.618 71.4633L429.522 73.2475C441.838 67.0095 450.226 54.4985 450.226 40.6073H448.226ZM428.618 71.4633L426.888 72.4665L449.536 111.53L451.266 110.527L452.996 109.524L430.348 70.4602L428.618 71.4633ZM451.266 110.527V108.527H425.122V110.527V112.527H451.266V110.527ZM393.506 26.9273H391.506V54.2873H393.506H395.506V26.9273H393.506ZM393.506 54.2873V56.2873H411.746V54.2873V52.2873H393.506V54.2873ZM411.746 54.2873V56.2873C419.733 56.2873 425.906 49.2588 425.906 40.6073H423.906H421.906C421.906 47.4599 417.135 52.2873 411.746 52.2873V54.2873ZM423.906 40.6073H425.906C425.906 31.9559 419.733 24.9273 411.746 24.9273V26.9273V28.9273C417.135 28.9273 421.906 33.7548 421.906 40.6073H423.906ZM411.746 26.9273V24.9273H393.506V26.9273V28.9273H411.746V26.9273ZM593.726 26.6233L594.729 28.3536L595.428 25.5742L593.726 26.6233ZM572.75 38.7833L571.015 39.7791L573.753 40.5136L572.75 38.7833ZM572.75 75.8713L573.753 74.1411L571.001 74.9001L572.75 75.8713ZM593.726 88.0313L595.436 89.0679L594.729 86.3011L593.726 88.0313ZM548.126 112.655V110.655C517.176 110.655 494.798 87.553 494.798 57.3273H492.798H490.798C490.798 89.7257 514.931 114.655 548.126 114.655V112.655ZM492.798 57.3273H494.798C494.798 27.1017 517.176 3.99934 548.126 3.99934V1.99934V-0.000663757C514.931 -0.000663757 490.798 24.929 490.798 57.3273H492.798ZM548.126 1.99934V3.99934C566.764 3.99934 583.13 13.2398 592.023 27.6725L593.726 26.6233L595.428 25.5742C585.777 9.91092 568.095 -0.000663757 548.126 -0.000663757V1.99934ZM593.726 26.6233L592.722 24.8931L571.746 37.0531L572.75 38.7833L573.753 40.5136L594.729 28.3536L593.726 26.6233ZM572.75 38.7833L574.484 37.7876C569.362 28.8645 559.519 23.7113 548.126 23.7113V25.7113V27.7113C558.316 27.7113 566.714 32.2862 571.015 39.7791L572.75 38.7833ZM548.126 25.7113V23.7113C538.242 23.7113 529.947 27.0294 524.122 32.9974C518.303 38.9602 515.117 47.3959 515.117 57.3273H517.117H519.117C519.117 48.2587 522.012 40.8865 526.985 35.7912C531.952 30.7013 539.161 27.7113 548.126 27.7113V25.7113ZM517.117 57.3273H515.117C515.117 67.2587 518.303 75.6945 524.122 81.6572C529.947 87.6253 538.242 90.9433 548.126 90.9433V88.9433V86.9433C539.161 86.9433 531.952 83.9534 526.985 78.8634C522.012 73.7682 519.117 66.3959 519.117 57.3273H517.117ZM548.126 88.9433V90.9433C559.499 90.9433 569.52 85.803 574.498 76.8426L572.75 75.8713L571.001 74.9001C566.859 82.3557 558.336 86.9433 548.126 86.9433V88.9433ZM572.75 75.8713L571.746 77.6016L592.722 89.7616L593.726 88.0313L594.729 86.3011L573.753 74.1411L572.75 75.8713ZM593.726 88.0313L592.015 86.9947C583.278 101.411 566.923 110.655 548.126 110.655V112.655V114.655C568.24 114.655 585.933 104.748 595.436 89.0679L593.726 88.0313ZM661.211 4.12733V2.12733L659.211 4.12733H661.211ZM685.531 4.12733H687.531L685.531 2.12733V4.12733ZM685.531 110.527V112.527L687.531 110.527H685.531ZM661.211 110.527H659.211L661.211 112.527V110.527ZM661.211 68.2713H663.211L661.211 66.2713V68.2713ZM627.771 68.2713V66.2713L625.771 68.2713H627.771ZM627.771 110.527V112.527L629.771 110.527H627.771ZM603.451 110.527H601.451L603.451 112.527V110.527ZM603.451 4.12733V2.12733L601.451 4.12733H603.451ZM627.771 4.12733H629.771L627.771 2.12733V4.12733ZM627.771 44.8633H625.771L627.771 46.8633V44.8633ZM661.211 44.8633V46.8633L663.211 44.8633H661.211ZM661.211 4.12733V6.12733H685.531V4.12733V2.12733H661.211V4.12733ZM685.531 4.12733H683.531V110.527H685.531H687.531V4.12733H685.531ZM685.531 110.527V108.527H661.211V110.527V112.527H685.531V110.527ZM661.211 110.527H663.211V68.2713H661.211H659.211V110.527H661.211ZM661.211 68.2713V66.2713H627.771V68.2713V70.2713H661.211V68.2713ZM627.771 68.2713H625.771V110.527H627.771H629.771V68.2713H627.771ZM627.771 110.527V108.527H603.451V110.527V112.527H627.771V110.527ZM603.451 110.527H605.451V4.12733H603.451H601.451V110.527H603.451ZM603.451 4.12733V6.12733H627.771V4.12733V2.12733H603.451V4.12733ZM627.771 4.12733H625.771V44.8633H627.771H629.771V4.12733H627.771ZM627.771 44.8633V46.8633H661.211V44.8633V42.8633H627.771V44.8633ZM661.211 44.8633H663.211V4.12733H661.211H659.211V44.8633H661.211ZM726.443 87.1193H724.443L726.443 89.1193V87.1193ZM769.003 87.1193H771.003L769.003 85.1193V87.1193ZM769.003 110.527V112.527L771.003 110.527H769.003ZM702.123 110.527H700.123L702.123 112.527V110.527ZM702.123 4.12733V2.12733L700.123 4.12733H702.123ZM768.243 4.12733H770.243L768.243 2.12733V4.12733ZM768.243 27.5353V29.5353L770.243 27.5353H768.243ZM726.443 27.5353V25.5353L724.443 27.5353H726.443ZM726.443 45.1673H724.443L726.443 47.1673V45.1673ZM764.443 45.1673H766.443L764.443 43.1673V45.1673ZM764.443 68.2713V70.2713L766.443 68.2713H764.443ZM726.443 68.2713V66.2713L724.443 68.2713H726.443ZM726.443 87.1193V89.1193H769.003V87.1193V85.1193H726.443V87.1193ZM769.003 87.1193H767.003V110.527H769.003H771.003V87.1193H769.003ZM769.003 110.527V108.527H702.123V110.527V112.527H769.003V110.527ZM702.123 110.527H704.123V4.12733H702.123H700.123V110.527H702.123ZM702.123 4.12733V6.12733H768.243V4.12733V2.12733H702.123V4.12733ZM768.243 4.12733H766.243V27.5353H768.243H770.243V4.12733H768.243ZM768.243 27.5353V25.5353H726.443V27.5353V29.5353H768.243V27.5353ZM726.443 27.5353H724.443V45.1673H726.443H728.443V27.5353H726.443ZM726.443 45.1673V47.1673H764.443V45.1673V43.1673H726.443V45.1673ZM764.443 45.1673H762.443V68.2713H764.443H766.443V45.1673H764.443ZM764.443 68.2713V66.2713H726.443V68.2713V70.2713H764.443V68.2713ZM726.443 68.2713H724.443V87.1193H726.443H728.443V68.2713H726.443ZM805.372 87.1193H803.372L805.372 89.1193V87.1193ZM847.932 87.1193H849.932L847.932 85.1193V87.1193ZM847.932 110.527V112.527L849.932 110.527H847.932ZM781.052 110.527H779.052L781.052 112.527V110.527ZM781.052 4.12733V2.12733L779.052 4.12733H781.052ZM847.172 4.12733H849.172L847.172 2.12733V4.12733ZM847.172 27.5353V29.5353L849.172 27.5353H847.172ZM805.372 27.5353V25.5353L803.372 27.5353H805.372ZM805.372 45.1673H803.372L805.372 47.1673V45.1673ZM843.372 45.1673H845.372L843.372 43.1673V45.1673ZM843.372 68.2713V70.2713L845.372 68.2713H843.372ZM805.372 68.2713V66.2713L803.372 68.2713H805.372ZM805.372 87.1193V89.1193H847.932V87.1193V85.1193H805.372V87.1193ZM847.932 87.1193H845.932V110.527H847.932H849.932V87.1193H847.932ZM847.932 110.527V108.527H781.052V110.527V112.527H847.932V110.527ZM781.052 110.527H783.052V4.12733H781.052H779.052V110.527H781.052ZM781.052 4.12733V6.12733H847.172V4.12733V2.12733H781.052V4.12733ZM847.172 4.12733H845.172V27.5353H847.172H849.172V4.12733H847.172ZM847.172 27.5353V25.5353H805.372V27.5353V29.5353H847.172V27.5353ZM805.372 27.5353H803.372V45.1673H805.372H807.372V27.5353H805.372ZM805.372 45.1673V47.1673H843.372V45.1673V43.1673H805.372V45.1673ZM843.372 45.1673H841.372V68.2713H843.372H845.372V45.1673H843.372ZM843.372 68.2713V66.2713H805.372V68.2713V70.2713H843.372V68.2713ZM805.372 68.2713H803.372V87.1193H805.372H807.372V68.2713H805.372ZM915.918 110.527L914.183 111.523L915.918 112.527V110.527ZM895.854 75.5673L897.589 74.5718L895.854 73.5673V75.5673ZM884.302 75.5673V73.5673L882.302 75.5673H884.302ZM884.302 110.527V112.527L886.302 110.527H884.302ZM859.982 110.527H857.982L859.982 112.527V110.527ZM859.982 4.12733V2.12733L857.982 4.12733H859.982ZM919.414 71.4633L918.51 69.6792L917.684 72.4665L919.414 71.4633ZM942.062 110.527V112.527L943.792 109.524L942.062 110.527ZM884.302 26.9273V24.9273L882.302 26.9273H884.302ZM884.302 54.2873H882.302L884.302 56.2873V54.2873ZM915.918 110.527L917.653 109.532L897.589 74.5718L895.854 75.5673L894.119 76.5629L914.183 111.523L915.918 110.527ZM895.854 75.5673V73.5673H884.302V75.5673V77.5673H895.854V75.5673ZM884.302 75.5673H882.302V110.527H884.302H886.302V75.5673H884.302ZM884.302 110.527V108.527H859.982V110.527V112.527H884.302V110.527ZM859.982 110.527H861.982V4.12733H859.982H857.982V110.527H859.982ZM859.982 4.12733V6.12733H902.542V4.12733V2.12733H859.982V4.12733ZM902.542 4.12733V6.12733C921.654 6.12733 937.022 21.4959 937.022 40.6073H939.022H941.022C941.022 19.2868 923.863 2.12733 902.542 2.12733V4.12733ZM939.022 40.6073H937.022C937.022 52.8602 929.602 64.0612 918.51 69.6792L919.414 71.4633L920.318 73.2475C932.634 67.0095 941.022 54.4985 941.022 40.6073H939.022ZM919.414 71.4633L917.684 72.4665L940.332 111.53L942.062 110.527L943.792 109.524L921.144 70.4602L919.414 71.4633ZM942.062 110.527V108.527H915.918V110.527V112.527H942.062V110.527ZM884.302 26.9273H882.302V54.2873H884.302H886.302V26.9273H884.302ZM884.302 54.2873V56.2873H902.542V54.2873V52.2873H884.302V54.2873ZM902.542 54.2873V56.2873C910.529 56.2873 916.702 49.2588 916.702 40.6073H914.702H912.702C912.702 47.4599 907.931 52.2873 902.542 52.2873V54.2873ZM914.702 40.6073H916.702C916.702 31.9559 910.529 24.9273 902.542 24.9273V26.9273V28.9273C907.931 28.9273 912.702 33.7548 912.702 40.6073H914.702ZM902.542 26.9273V24.9273H884.302V26.9273V28.9273H902.542V26.9273ZM1084.52 26.6233L1085.52 28.3536L1086.22 25.5742L1084.52 26.6233ZM1063.55 38.7833L1061.81 39.7791L1064.55 40.5136L1063.55 38.7833ZM1063.55 75.8713L1064.55 74.1411L1061.8 74.9001L1063.55 75.8713ZM1084.52 88.0313L1086.23 89.0679L1085.52 86.3011L1084.52 88.0313ZM1038.92 112.655V110.655C1007.97 110.655 985.594 87.553 985.594 57.3273H983.594H981.594C981.594 89.7257 1005.73 114.655 1038.92 114.655V112.655ZM983.594 57.3273H985.594C985.594 27.1017 1007.97 3.99934 1038.92 3.99934V1.99934V-0.000663757C1005.73 -0.000663757 981.594 24.929 981.594 57.3273H983.594ZM1038.92 1.99934V3.99934C1057.56 3.99934 1073.93 13.2398 1082.82 27.6725L1084.52 26.6233L1086.22 25.5742C1076.57 9.91092 1058.89 -0.000663757 1038.92 -0.000663757V1.99934ZM1084.52 26.6233L1083.52 24.8931L1062.54 37.0531L1063.55 38.7833L1064.55 40.5136L1085.52 28.3536L1084.52 26.6233ZM1063.55 38.7833L1065.28 37.7876C1060.16 28.8645 1050.31 23.7113 1038.92 23.7113V25.7113V27.7113C1049.11 27.7113 1057.51 32.2862 1061.81 39.7791L1063.55 38.7833ZM1038.92 25.7113V23.7113C1029.04 23.7113 1020.74 27.0294 1014.92 32.9974C1009.1 38.9602 1005.91 47.3959 1005.91 57.3273H1007.91H1009.91C1009.91 48.2587 1012.81 40.8865 1017.78 35.7912C1022.75 30.7013 1029.96 27.7113 1038.92 27.7113V25.7113ZM1007.91 57.3273H1005.91C1005.91 67.2587 1009.1 75.6945 1014.92 81.6572C1020.74 87.6253 1029.04 90.9433 1038.92 90.9433V88.9433V86.9433C1029.96 86.9433 1022.75 83.9534 1017.78 78.8634C1012.81 73.7682 1009.91 66.3959 1009.91 57.3273H1007.91ZM1038.92 88.9433V90.9433C1050.29 90.9433 1060.32 85.803 1065.29 76.8426L1063.55 75.8713L1061.8 74.9001C1057.66 82.3557 1049.13 86.9433 1038.92 86.9433V88.9433ZM1063.55 75.8713L1062.54 77.6016L1083.52 89.7616L1084.52 88.0313L1085.52 86.3011L1064.55 74.1411L1063.55 75.8713ZM1084.52 88.0313L1082.81 86.9947C1074.07 101.411 1057.72 110.655 1038.92 110.655V112.655V114.655C1059.04 114.655 1076.73 104.748 1086.23 89.0679L1084.52 88.0313ZM1152.01 4.12733V2.12733L1150.01 4.12733H1152.01ZM1176.33 4.12733H1178.33L1176.33 2.12733V4.12733ZM1176.33 110.527V112.527L1178.33 110.527H1176.33ZM1152.01 110.527H1150.01L1152.01 112.527V110.527ZM1152.01 68.2713H1154.01L1152.01 66.2713V68.2713ZM1118.57 68.2713V66.2713L1116.57 68.2713H1118.57ZM1118.57 110.527V112.527L1120.57 110.527H1118.57ZM1094.25 110.527H1092.25L1094.25 112.527V110.527ZM1094.25 4.12733V2.12733L1092.25 4.12733H1094.25ZM1118.57 4.12733H1120.57L1118.57 2.12733V4.12733ZM1118.57 44.8633H1116.57L1118.57 46.8633V44.8633ZM1152.01 44.8633V46.8633L1154.01 44.8633H1152.01ZM1152.01 4.12733V6.12733H1176.33V4.12733V2.12733H1152.01V4.12733ZM1176.33 4.12733H1174.33V110.527H1176.33H1178.33V4.12733H1176.33ZM1176.33 110.527V108.527H1152.01V110.527V112.527H1176.33V110.527ZM1152.01 110.527H1154.01V68.2713H1152.01H1150.01V110.527H1152.01ZM1152.01 68.2713V66.2713H1118.57V68.2713V70.2713H1152.01V68.2713ZM1118.57 68.2713H1116.57V110.527H1118.57H1120.57V68.2713H1118.57ZM1118.57 110.527V108.527H1094.25V110.527V112.527H1118.57V110.527ZM1094.25 110.527H1096.25V4.12733H1094.25H1092.25V110.527H1094.25ZM1094.25 4.12733V6.12733H1118.57V4.12733V2.12733H1094.25V4.12733ZM1118.57 4.12733H1116.57V44.8633H1118.57H1120.57V4.12733H1118.57ZM1118.57 44.8633V46.8633H1152.01V44.8633V42.8633H1118.57V44.8633ZM1152.01 44.8633H1154.01V4.12733H1152.01H1150.01V44.8633H1152.01ZM1217.24 87.1193H1215.24L1217.24 89.1193V87.1193ZM1259.8 87.1193H1261.8L1259.8 85.1193V87.1193ZM1259.8 110.527V112.527L1261.8 110.527H1259.8ZM1192.92 110.527H1190.92L1192.92 112.527V110.527ZM1192.92 4.12733V2.12733L1190.92 4.12733H1192.92ZM1259.04 4.12733H1261.04L1259.04 2.12733V4.12733ZM1259.04 27.5353V29.5353L1261.04 27.5353H1259.04ZM1217.24 27.5353V25.5353L1215.24 27.5353H1217.24ZM1217.24 45.1673H1215.24L1217.24 47.1673V45.1673ZM1255.24 45.1673H1257.24L1255.24 43.1673V45.1673ZM1255.24 68.2713V70.2713L1257.24 68.2713H1255.24ZM1217.24 68.2713V66.2713L1215.24 68.2713H1217.24ZM1217.24 87.1193V89.1193H1259.8V87.1193V85.1193H1217.24V87.1193ZM1259.8 87.1193H1257.8V110.527H1259.8H1261.8V87.1193H1259.8ZM1259.8 110.527V108.527H1192.92V110.527V112.527H1259.8V110.527ZM1192.92 110.527H1194.92V4.12733H1192.92H1190.92V110.527H1192.92ZM1192.92 4.12733V6.12733H1259.04V4.12733V2.12733H1192.92V4.12733ZM1259.04 4.12733H1257.04V27.5353H1259.04H1261.04V4.12733H1259.04ZM1259.04 27.5353V25.5353H1217.24V27.5353V29.5353H1259.04V27.5353ZM1217.24 27.5353H1215.24V45.1673H1217.24H1219.24V27.5353H1217.24ZM1217.24 45.1673V47.1673H1255.24V45.1673V43.1673H1217.24V45.1673ZM1255.24 45.1673H1253.24V68.2713H1255.24H1257.24V45.1673H1255.24ZM1255.24 68.2713V66.2713H1217.24V68.2713V70.2713H1255.24V68.2713ZM1217.24 68.2713H1215.24V87.1193H1217.24H1219.24V68.2713H1217.24ZM1296.17 87.1193H1294.17L1296.17 89.1193V87.1193ZM1338.73 87.1193H1340.73L1338.73 85.1193V87.1193ZM1338.73 110.527V112.527L1340.73 110.527H1338.73ZM1271.85 110.527H1269.85L1271.85 112.527V110.527ZM1271.85 4.12733V2.12733L1269.85 4.12733H1271.85ZM1337.97 4.12733H1339.97L1337.97 2.12733V4.12733ZM1337.97 27.5353V29.5353L1339.97 27.5353H1337.97ZM1296.17 27.5353V25.5353L1294.17 27.5353H1296.17ZM1296.17 45.1673H1294.17L1296.17 47.1673V45.1673ZM1334.17 45.1673H1336.17L1334.17 43.1673V45.1673ZM1334.17 68.2713V70.2713L1336.17 68.2713H1334.17ZM1296.17 68.2713V66.2713L1294.17 68.2713H1296.17ZM1296.17 87.1193V89.1193H1338.73V87.1193V85.1193H1296.17V87.1193ZM1338.73 87.1193H1336.73V110.527H1338.73H1340.73V87.1193H1338.73ZM1338.73 110.527V108.527H1271.85V110.527V112.527H1338.73V110.527ZM1271.85 110.527H1273.85V4.12733H1271.85H1269.85V110.527H1271.85ZM1271.85 4.12733V6.12733H1337.97V4.12733V2.12733H1271.85V4.12733ZM1337.97 4.12733H1335.97V27.5353H1337.97H1339.97V4.12733H1337.97ZM1337.97 27.5353V25.5353H1296.17V27.5353V29.5353H1337.97V27.5353ZM1296.17 27.5353H1294.17V45.1673H1296.17H1298.17V27.5353H1296.17ZM1296.17 45.1673V47.1673H1334.17V45.1673V43.1673H1296.17V45.1673ZM1334.17 45.1673H1332.17V68.2713H1334.17H1336.17V45.1673H1334.17ZM1334.17 68.2713V66.2713H1296.17V68.2713V70.2713H1334.17V68.2713ZM1296.17 68.2713H1294.17V87.1193H1296.17H1298.17V68.2713H1296.17ZM1406.71 110.527L1404.98 111.523L1406.71 112.527V110.527ZM1386.65 75.5673L1388.38 74.5718L1386.65 73.5673V75.5673ZM1375.1 75.5673V73.5673L1373.1 75.5673H1375.1ZM1375.1 110.527V112.527L1377.1 110.527H1375.1ZM1350.78 110.527H1348.78L1350.78 112.527V110.527ZM1350.78 4.12733V2.12733L1348.78 4.12733H1350.78ZM1410.21 71.4633L1409.31 69.6792L1408.48 72.4665L1410.21 71.4633ZM1432.86 110.527V112.527L1434.59 109.524L1432.86 110.527ZM1375.1 26.9273V24.9273L1373.1 26.9273H1375.1ZM1375.1 54.2873H1373.1L1375.1 56.2873V54.2873ZM1406.71 110.527L1408.45 109.532L1388.38 74.5718L1386.65 75.5673L1384.92 76.5629L1404.98 111.523L1406.71 110.527ZM1386.65 75.5673V73.5673H1375.1V75.5673V77.5673H1386.65V75.5673ZM1375.1 75.5673H1373.1V110.527H1375.1H1377.1V75.5673H1375.1ZM1375.1 110.527V108.527H1350.78V110.527V112.527H1375.1V110.527ZM1350.78 110.527H1352.78V4.12733H1350.78H1348.78V110.527H1350.78ZM1350.78 4.12733V6.12733H1393.34V4.12733V2.12733H1350.78V4.12733ZM1393.34 4.12733V6.12733C1412.45 6.12733 1427.82 21.4959 1427.82 40.6073H1429.82H1431.82C1431.82 19.2868 1414.66 2.12733 1393.34 2.12733V4.12733ZM1429.82 40.6073H1427.82C1427.82 52.8602 1420.4 64.0612 1409.31 69.6792L1410.21 71.4633L1411.11 73.2475C1423.43 67.0095 1431.82 54.4985 1431.82 40.6073H1429.82ZM1410.21 71.4633L1408.48 72.4665L1431.13 111.53L1432.86 110.527L1434.59 109.524L1411.94 70.4602L1410.21 71.4633ZM1432.86 110.527V108.527H1406.71V110.527V112.527H1432.86V110.527ZM1375.1 26.9273H1373.1V54.2873H1375.1H1377.1V26.9273H1375.1ZM1375.1 54.2873V56.2873H1393.34V54.2873V52.2873H1375.1V54.2873ZM1393.34 54.2873V56.2873C1401.33 56.2873 1407.5 49.2588 1407.5 40.6073H1405.5H1403.5C1403.5 47.4599 1398.73 52.2873 1393.34 52.2873V54.2873ZM1405.5 40.6073H1407.5C1407.5 31.9559 1401.33 24.9273 1393.34 24.9273V26.9273V28.9273C1398.73 28.9273 1403.5 33.7548 1403.5 40.6073H1405.5ZM1393.34 26.9273V24.9273H1375.1V26.9273V28.9273H1393.34V26.9273ZM1575.32 26.6233L1576.32 28.3536L1577.02 25.5742L1575.32 26.6233ZM1554.34 38.7833L1552.61 39.7791L1555.34 40.5136L1554.34 38.7833ZM1554.34 75.8713L1555.34 74.1411L1552.59 74.9001L1554.34 75.8713ZM1575.32 88.0313L1577.03 89.0679L1576.32 86.3011L1575.32 88.0313ZM1529.72 112.655V110.655C1498.77 110.655 1476.39 87.553 1476.39 57.3273H1474.39H1472.39C1472.39 89.7257 1496.52 114.655 1529.72 114.655V112.655ZM1474.39 57.3273H1476.39C1476.39 27.1017 1498.77 3.99934 1529.72 3.99934V1.99934V-0.000663757C1496.52 -0.000663757 1472.39 24.929 1472.39 57.3273H1474.39ZM1529.72 1.99934V3.99934C1548.36 3.99934 1564.72 13.2398 1573.62 27.6725L1575.32 26.6233L1577.02 25.5742C1567.37 9.91092 1549.69 -0.000663757 1529.72 -0.000663757V1.99934ZM1575.32 26.6233L1574.31 24.8931L1553.34 37.0531L1554.34 38.7833L1555.34 40.5136L1576.32 28.3536L1575.32 26.6233ZM1554.34 38.7833L1556.08 37.7876C1550.95 28.8645 1541.11 23.7113 1529.72 23.7113V25.7113V27.7113C1539.91 27.7113 1548.31 32.2862 1552.61 39.7791L1554.34 38.7833ZM1529.72 25.7113V23.7113C1519.83 23.7113 1511.54 27.0294 1505.71 32.9974C1499.9 38.9602 1496.71 47.3959 1496.71 57.3273H1498.71H1500.71C1500.71 48.2587 1503.6 40.8865 1508.58 35.7912C1513.54 30.7013 1520.75 27.7113 1529.72 27.7113V25.7113ZM1498.71 57.3273H1496.71C1496.71 67.2587 1499.9 75.6945 1505.71 81.6572C1511.54 87.6253 1519.83 90.9433 1529.72 90.9433V88.9433V86.9433C1520.75 86.9433 1513.54 83.9534 1508.58 78.8634C1503.6 73.7682 1500.71 66.3959 1500.71 57.3273H1498.71ZM1529.72 88.9433V90.9433C1541.09 90.9433 1551.11 85.803 1556.09 76.8426L1554.34 75.8713L1552.59 74.9001C1548.45 82.3557 1539.93 86.9433 1529.72 86.9433V88.9433ZM1554.34 75.8713L1553.34 77.6016L1574.31 89.7616L1575.32 88.0313L1576.32 86.3011L1555.34 74.1411L1554.34 75.8713ZM1575.32 88.0313L1573.61 86.9947C1564.87 101.411 1548.52 110.655 1529.72 110.655V112.655V114.655C1549.83 114.655 1567.53 104.748 1577.03 89.0679L1575.32 88.0313ZM1642.8 4.12733V2.12733L1640.8 4.12733H1642.8ZM1667.12 4.12733H1669.12L1667.12 2.12733V4.12733ZM1667.12 110.527V112.527L1669.12 110.527H1667.12ZM1642.8 110.527H1640.8L1642.8 112.527V110.527ZM1642.8 68.2713H1644.8L1642.8 66.2713V68.2713ZM1609.36 68.2713V66.2713L1607.36 68.2713H1609.36ZM1609.36 110.527V112.527L1611.36 110.527H1609.36ZM1585.04 110.527H1583.04L1585.04 112.527V110.527ZM1585.04 4.12733V2.12733L1583.04 4.12733H1585.04ZM1609.36 4.12733H1611.36L1609.36 2.12733V4.12733ZM1609.36 44.8633H1607.36L1609.36 46.8633V44.8633ZM1642.8 44.8633V46.8633L1644.8 44.8633H1642.8ZM1642.8 4.12733V6.12733H1667.12V4.12733V2.12733H1642.8V4.12733ZM1667.12 4.12733H1665.12V110.527H1667.12H1669.12V4.12733H1667.12ZM1667.12 110.527V108.527H1642.8V110.527V112.527H1667.12V110.527ZM1642.8 110.527H1644.8V68.2713H1642.8H1640.8V110.527H1642.8ZM1642.8 68.2713V66.2713H1609.36V68.2713V70.2713H1642.8V68.2713ZM1609.36 68.2713H1607.36V110.527H1609.36H1611.36V68.2713H1609.36ZM1609.36 110.527V108.527H1585.04V110.527V112.527H1609.36V110.527ZM1585.04 110.527H1587.04V4.12733H1585.04H1583.04V110.527H1585.04ZM1585.04 4.12733V6.12733H1609.36V4.12733V2.12733H1585.04V4.12733ZM1609.36 4.12733H1607.36V44.8633H1609.36H1611.36V4.12733H1609.36ZM1609.36 44.8633V46.8633H1642.8V44.8633V42.8633H1609.36V44.8633ZM1642.8 44.8633H1644.8V4.12733H1642.8H1640.8V44.8633H1642.8ZM1708.04 87.1193H1706.04L1708.04 89.1193V87.1193ZM1750.6 87.1193H1752.6L1750.6 85.1193V87.1193ZM1750.6 110.527V112.527L1752.6 110.527H1750.6ZM1683.72 110.527H1681.72L1683.72 112.527V110.527ZM1683.72 4.12733V2.12733L1681.72 4.12733H1683.72ZM1749.84 4.12733H1751.84L1749.84 2.12733V4.12733ZM1749.84 27.5353V29.5353L1751.84 27.5353H1749.84ZM1708.04 27.5353V25.5353L1706.04 27.5353H1708.04ZM1708.04 45.1673H1706.04L1708.04 47.1673V45.1673ZM1746.04 45.1673H1748.04L1746.04 43.1673V45.1673ZM1746.04 68.2713V70.2713L1748.04 68.2713H1746.04ZM1708.04 68.2713V66.2713L1706.04 68.2713H1708.04ZM1708.04 87.1193V89.1193H1750.6V87.1193V85.1193H1708.04V87.1193ZM1750.6 87.1193H1748.6V110.527H1750.6H1752.6V87.1193H1750.6ZM1750.6 110.527V108.527H1683.72V110.527V112.527H1750.6V110.527ZM1683.72 110.527H1685.72V4.12733H1683.72H1681.72V110.527H1683.72ZM1683.72 4.12733V6.12733H1749.84V4.12733V2.12733H1683.72V4.12733ZM1749.84 4.12733H1747.84V27.5353H1749.84H1751.84V4.12733H1749.84ZM1749.84 27.5353V25.5353H1708.04V27.5353V29.5353H1749.84V27.5353ZM1708.04 27.5353H1706.04V45.1673H1708.04H1710.04V27.5353H1708.04ZM1708.04 45.1673V47.1673H1746.04V45.1673V43.1673H1708.04V45.1673ZM1746.04 45.1673H1744.04V68.2713H1746.04H1748.04V45.1673H1746.04ZM1746.04 68.2713V66.2713H1708.04V68.2713V70.2713H1746.04V68.2713ZM1708.04 68.2713H1706.04V87.1193H1708.04H1710.04V68.2713H1708.04ZM1786.96 87.1193H1784.96L1786.96 89.1193V87.1193ZM1829.52 87.1193H1831.52L1829.52 85.1193V87.1193ZM1829.52 110.527V112.527L1831.52 110.527H1829.52ZM1762.64 110.527H1760.64L1762.64 112.527V110.527ZM1762.64 4.12733V2.12733L1760.64 4.12733H1762.64ZM1828.76 4.12733H1830.76L1828.76 2.12733V4.12733ZM1828.76 27.5353V29.5353L1830.76 27.5353H1828.76ZM1786.96 27.5353V25.5353L1784.96 27.5353H1786.96ZM1786.96 45.1673H1784.96L1786.96 47.1673V45.1673ZM1824.96 45.1673H1826.96L1824.96 43.1673V45.1673ZM1824.96 68.2713V70.2713L1826.96 68.2713H1824.96ZM1786.96 68.2713V66.2713L1784.96 68.2713H1786.96ZM1786.96 87.1193V89.1193H1829.52V87.1193V85.1193H1786.96V87.1193ZM1829.52 87.1193H1827.52V110.527H1829.52H1831.52V87.1193H1829.52ZM1829.52 110.527V108.527H1762.64V110.527V112.527H1829.52V110.527ZM1762.64 110.527H1764.64V4.12733H1762.64H1760.64V110.527H1762.64ZM1762.64 4.12733V6.12733H1828.76V4.12733V2.12733H1762.64V4.12733ZM1828.76 4.12733H1826.76V27.5353H1828.76H1830.76V4.12733H1828.76ZM1828.76 27.5353V25.5353H1786.96V27.5353V29.5353H1828.76V27.5353ZM1786.96 27.5353H1784.96V45.1673H1786.96H1788.96V27.5353H1786.96ZM1786.96 45.1673V47.1673H1824.96V45.1673V43.1673H1786.96V45.1673ZM1824.96 45.1673H1822.96V68.2713H1824.96H1826.96V45.1673H1824.96ZM1824.96 68.2713V66.2713H1786.96V68.2713V70.2713H1824.96V68.2713ZM1786.96 68.2713H1784.96V87.1193H1786.96H1788.96V68.2713H1786.96ZM1897.51 110.527L1895.78 111.523L1897.51 112.527V110.527ZM1877.45 75.5673L1879.18 74.5718L1877.45 73.5673V75.5673ZM1865.89 75.5673V73.5673L1863.89 75.5673H1865.89ZM1865.89 110.527V112.527L1867.89 110.527H1865.89ZM1841.57 110.527H1839.57L1841.57 112.527V110.527ZM1841.57 4.12733V2.12733L1839.57 4.12733H1841.57ZM1901.01 71.4633L1900.1 69.6792L1899.28 72.4665L1901.01 71.4633ZM1923.65 110.527V112.527L1925.38 109.524L1923.65 110.527ZM1865.89 26.9273V24.9273L1863.89 26.9273H1865.89ZM1865.89 54.2873H1863.89L1865.89 56.2873V54.2873ZM1897.51 110.527L1899.24 109.532L1879.18 74.5718L1877.45 75.5673L1875.71 76.5629L1895.78 111.523L1897.51 110.527ZM1877.45 75.5673V73.5673H1865.89V75.5673V77.5673H1877.45V75.5673ZM1865.89 75.5673H1863.89V110.527H1865.89H1867.89V75.5673H1865.89ZM1865.89 110.527V108.527H1841.57V110.527V112.527H1865.89V110.527ZM1841.57 110.527H1843.57V4.12733H1841.57H1839.57V110.527H1841.57ZM1841.57 4.12733V6.12733H1884.13V4.12733V2.12733H1841.57V4.12733ZM1884.13 4.12733V6.12733C1903.25 6.12733 1918.61 21.4959 1918.61 40.6073H1920.61H1922.61C1922.61 19.2868 1905.45 2.12733 1884.13 2.12733V4.12733ZM1920.61 40.6073H1918.61C1918.61 52.8602 1911.19 64.0612 1900.1 69.6792L1901.01 71.4633L1901.91 73.2475C1914.23 67.0095 1922.61 54.4985 1922.61 40.6073H1920.61ZM1901.01 71.4633L1899.28 72.4665L1921.92 111.53L1923.65 110.527L1925.38 109.524L1902.74 70.4602L1901.01 71.4633ZM1923.65 110.527V108.527H1897.51V110.527V112.527H1923.65V110.527ZM1865.89 26.9273H1863.89V54.2873H1865.89H1867.89V26.9273H1865.89ZM1865.89 54.2873V56.2873H1884.13V54.2873V52.2873H1865.89V54.2873ZM1884.13 54.2873V56.2873C1892.12 56.2873 1898.29 49.2588 1898.29 40.6073H1896.29H1894.29C1894.29 47.4599 1889.52 52.2873 1884.13 52.2873V54.2873ZM1896.29 40.6073H1898.29C1898.29 31.9559 1892.12 24.9273 1884.13 24.9273V26.9273V28.9273C1889.52 28.9273 1894.29 33.7548 1894.29 40.6073H1896.29ZM1884.13 26.9273V24.9273H1865.89V26.9273V28.9273H1884.13V26.9273Z" fill="white" mask="url(#path-1-outside-1_1708_606)"/>
</svg>
