<svg width="2533" height="150" viewBox="0 0 2533 150" fill="none" xmlns="http://www.w3.org/2000/svg">
<mask id="path-1-outside-1_1702_604" maskUnits="userSpaceOnUse" x="0" y="-0.199219" width="2533" height="150" fill="black">
<rect fill="white" y="-0.199219" width="2533" height="150"/>
<path d="M74.8 147.601C32.6 147.601 2 116.001 2 74.8008C2 33.6008 32.6 2.00077 74.8 2.00077C100.2 2.00077 122.6 14.6008 134.8 34.4008L107.2 50.4008C101 39.6008 89 33.2008 74.8 33.2008C50 33.2008 34 49.8008 34 74.8008C34 99.8008 50 116.401 74.8 116.401C89 116.401 101.2 110.001 107.2 99.2008L134.8 115.201C122.8 135.001 100.4 147.601 74.8 147.601ZM223.597 4.80077H255.597V144.801H223.597V89.2008H179.597V144.801H147.597V4.80077H179.597V58.4008H223.597V4.80077ZM309.428 114.001H365.428V144.801H277.428V4.80077H364.428V35.6008H309.428V58.8008H359.428V89.2008H309.428V114.001ZM413.283 114.001H469.283V144.801H381.283V4.80077H468.283V35.6008H413.283V58.8008H463.283V89.2008H413.283V114.001ZM558.738 144.801L532.338 98.8008H517.138V144.801H485.138V4.80077H541.138C567.738 4.80077 589.138 26.2008 589.138 52.8008C589.138 70.0008 578.738 85.6008 563.338 93.4008L593.138 144.801H558.738ZM517.138 34.8008V70.8008H541.138C549.938 70.8008 557.138 63.0008 557.138 52.8008C557.138 42.6008 549.938 34.8008 541.138 34.8008H517.138ZM720.584 147.601C678.384 147.601 647.784 116.001 647.784 74.8008C647.784 33.6008 678.384 2.00077 720.584 2.00077C745.984 2.00077 768.384 14.6008 780.584 34.4008L752.984 50.4008C746.784 39.6008 734.784 33.2008 720.584 33.2008C695.784 33.2008 679.784 49.8008 679.784 74.8008C679.784 99.8008 695.784 116.401 720.584 116.401C734.784 116.401 746.984 110.001 752.984 99.2008L780.584 115.201C768.584 135.001 746.184 147.601 720.584 147.601ZM869.381 4.80077H901.381V144.801H869.381V89.2008H825.381V144.801H793.381V4.80077H825.381V58.4008H869.381V4.80077ZM955.213 114.001H1011.21V144.801H923.213V4.80077H1010.21V35.6008H955.213V58.8008H1005.21V89.2008H955.213V114.001ZM1059.07 114.001H1115.07V144.801H1027.07V4.80077H1114.07V35.6008H1059.07V58.8008H1109.07V89.2008H1059.07V114.001ZM1204.52 144.801L1178.12 98.8008H1162.92V144.801H1130.92V4.80077H1186.92C1213.52 4.80077 1234.92 26.2008 1234.92 52.8008C1234.92 70.0008 1224.52 85.6008 1209.12 93.4008L1238.92 144.801H1204.52ZM1162.92 34.8008V70.8008H1186.92C1195.72 70.8008 1202.92 63.0008 1202.92 52.8008C1202.92 42.6008 1195.72 34.8008 1186.92 34.8008H1162.92ZM1366.37 147.601C1324.17 147.601 1293.57 116.001 1293.57 74.8008C1293.57 33.6008 1324.17 2.00077 1366.37 2.00077C1391.77 2.00077 1414.17 14.6008 1426.37 34.4008L1398.77 50.4008C1392.57 39.6008 1380.57 33.2008 1366.37 33.2008C1341.57 33.2008 1325.57 49.8008 1325.57 74.8008C1325.57 99.8008 1341.57 116.401 1366.37 116.401C1380.57 116.401 1392.77 110.001 1398.77 99.2008L1426.37 115.201C1414.37 135.001 1391.97 147.601 1366.37 147.601ZM1515.17 4.80077H1547.17V144.801H1515.17V89.2008H1471.17V144.801H1439.17V4.80077H1471.17V58.4008H1515.17V4.80077ZM1601 114.001H1657V144.801H1569V4.80077H1656V35.6008H1601V58.8008H1651V89.2008H1601V114.001ZM1704.85 114.001H1760.85V144.801H1672.85V4.80077H1759.85V35.6008H1704.85V58.8008H1754.85V89.2008H1704.85V114.001ZM1850.31 144.801L1823.91 98.8008H1808.71V144.801H1776.71V4.80077H1832.71C1859.31 4.80077 1880.71 26.2008 1880.71 52.8008C1880.71 70.0008 1870.31 85.6008 1854.91 93.4008L1884.71 144.801H1850.31ZM1808.71 34.8008V70.8008H1832.71C1841.51 70.8008 1848.71 63.0008 1848.71 52.8008C1848.71 42.6008 1841.51 34.8008 1832.71 34.8008H1808.71ZM2012.15 147.601C1969.95 147.601 1939.35 116.001 1939.35 74.8008C1939.35 33.6008 1969.95 2.00077 2012.15 2.00077C2037.55 2.00077 2059.95 14.6008 2072.15 34.4008L2044.55 50.4008C2038.35 39.6008 2026.35 33.2008 2012.15 33.2008C1987.35 33.2008 1971.35 49.8008 1971.35 74.8008C1971.35 99.8008 1987.35 116.401 2012.15 116.401C2026.35 116.401 2038.55 110.001 2044.55 99.2008L2072.15 115.201C2060.15 135.001 2037.75 147.601 2012.15 147.601ZM2160.95 4.80077H2192.95V144.801H2160.95V89.2008H2116.95V144.801H2084.95V4.80077H2116.95V58.4008H2160.95V4.80077ZM2246.78 114.001H2302.78V144.801H2214.78V4.80077H2301.78V35.6008H2246.78V58.8008H2296.78V89.2008H2246.78V114.001ZM2350.64 114.001H2406.64V144.801H2318.64V4.80077H2405.64V35.6008H2350.64V58.8008H2400.64V89.2008H2350.64V114.001ZM2496.09 144.801L2469.69 98.8008H2454.49V144.801H2422.49V4.80077H2478.49C2505.09 4.80077 2526.49 26.2008 2526.49 52.8008C2526.49 70.0008 2516.09 85.6008 2500.69 93.4008L2530.49 144.801H2496.09ZM2454.49 34.8008V70.8008H2478.49C2487.29 70.8008 2494.49 63.0008 2494.49 52.8008C2494.49 42.6008 2487.29 34.8008 2478.49 34.8008H2454.49Z"/>
</mask>
<path d="M134.8 34.4008L135.803 36.1311L136.503 33.3516L134.8 34.4008ZM107.2 50.4008L105.466 51.3965L108.203 52.1311L107.2 50.4008ZM107.2 99.2008L108.203 97.4705L105.452 98.2295L107.2 99.2008ZM134.8 115.201L136.51 116.237L135.803 113.471L134.8 115.201ZM74.8 147.601V145.601C33.7227 145.601 4 114.914 4 74.8008H2H0C0 117.087 31.4773 149.601 74.8 149.601V147.601ZM2 74.8008H4C4 34.6871 33.7227 4.00078 74.8 4.00078V2.00078V0.000778198C31.4773 0.000778198 0 32.5144 0 74.8008H2ZM74.8 2.00078V4.00078C99.5349 4.00078 121.276 16.2652 133.097 35.4499L134.8 34.4008L136.503 33.3516C123.924 12.9364 100.865 0.000778198 74.8 0.000778198V2.00078ZM134.8 34.4008L133.797 32.6705L106.197 48.6705L107.2 50.4008L108.203 52.1311L135.803 36.1311L134.8 34.4008ZM107.2 50.4008L108.935 49.405C102.324 37.89 89.601 31.2008 74.8 31.2008V33.2008V35.2008C88.399 35.2008 99.676 41.3116 105.466 51.3965L107.2 50.4008ZM74.8 33.2008V31.2008C61.9406 31.2008 51.1972 35.5148 43.6687 43.2289C36.1454 50.9376 32 61.8694 32 74.8008H34H36C36 62.7322 39.8547 52.8639 46.5313 46.0227C53.2028 39.1867 62.8594 35.2008 74.8 35.2008V33.2008ZM34 74.8008H32C32 87.7322 36.1454 98.6639 43.6687 106.373C51.1972 114.087 61.9406 118.401 74.8 118.401V116.401V114.401C62.8594 114.401 53.2028 110.415 46.5313 103.579C39.8547 96.7376 36 86.8694 36 74.8008H34ZM74.8 116.401V118.401C89.5813 118.401 102.53 111.724 108.948 100.172L107.2 99.2008L105.452 98.2295C99.8697 108.277 88.4187 114.401 74.8 114.401V116.401ZM107.2 99.2008L106.197 100.931L133.797 116.931L134.8 115.201L135.803 113.471L108.203 97.4705L107.2 99.2008ZM134.8 115.201L133.09 114.164C121.473 133.332 99.7412 145.601 74.8 145.601V147.601V149.601C101.059 149.601 124.127 136.669 136.51 116.237L134.8 115.201ZM223.597 4.80077V2.80077L221.597 4.80077H223.597ZM255.597 4.80077H257.597L255.597 2.80077V4.80077ZM255.597 144.801V146.801L257.597 144.801H255.597ZM223.597 144.801H221.597L223.597 146.801V144.801ZM223.597 89.2008H225.597L223.597 87.2008V89.2008ZM179.597 89.2008V87.2008L177.597 89.2008H179.597ZM179.597 144.801V146.801L181.597 144.801H179.597ZM147.597 144.801H145.597L147.597 146.801V144.801ZM147.597 4.80077V2.80077L145.597 4.80077H147.597ZM179.597 4.80077H181.597L179.597 2.80077V4.80077ZM179.597 58.4008H177.597L179.597 60.4008V58.4008ZM223.597 58.4008V60.4008L225.597 58.4008H223.597ZM223.597 4.80077V6.80077H255.597V4.80077V2.80077H223.597V4.80077ZM255.597 4.80077H253.597V144.801H255.597H257.597V4.80077H255.597ZM255.597 144.801V142.801H223.597V144.801V146.801H255.597V144.801ZM223.597 144.801H225.597V89.2008H223.597H221.597V144.801H223.597ZM223.597 89.2008V87.2008H179.597V89.2008V91.2008H223.597V89.2008ZM179.597 89.2008H177.597V144.801H179.597H181.597V89.2008H179.597ZM179.597 144.801V142.801H147.597V144.801V146.801H179.597V144.801ZM147.597 144.801H149.597V4.80077H147.597H145.597V144.801H147.597ZM147.597 4.80077V6.80077H179.597V4.80077V2.80077H147.597V4.80077ZM179.597 4.80077H177.597V58.4008H179.597H181.597V4.80077H179.597ZM179.597 58.4008V60.4008H223.597V58.4008V56.4008H179.597V58.4008ZM223.597 58.4008H225.597V4.80077H223.597H221.597V58.4008H223.597ZM309.428 114.001H307.428L309.428 116.001V114.001ZM365.428 114.001H367.428L365.428 112.001V114.001ZM365.428 144.801V146.801L367.428 144.801H365.428ZM277.428 144.801H275.428L277.428 146.801V144.801ZM277.428 4.80077V2.80077L275.428 4.80077H277.428ZM364.428 4.80077H366.428L364.428 2.80077V4.80077ZM364.428 35.6008V37.6008L366.428 35.6008H364.428ZM309.428 35.6008V33.6008L307.428 35.6008H309.428ZM309.428 58.8008H307.428L309.428 60.8008V58.8008ZM359.428 58.8008H361.428L359.428 56.8008V58.8008ZM359.428 89.2008V91.2008L361.428 89.2008H359.428ZM309.428 89.2008V87.2008L307.428 89.2008H309.428ZM309.428 114.001V116.001H365.428V114.001V112.001H309.428V114.001ZM365.428 114.001H363.428V144.801H365.428H367.428V114.001H365.428ZM365.428 144.801V142.801H277.428V144.801V146.801H365.428V144.801ZM277.428 144.801H279.428V4.80077H277.428H275.428V144.801H277.428ZM277.428 4.80077V6.80077H364.428V4.80077V2.80077H277.428V4.80077ZM364.428 4.80077H362.428V35.6008H364.428H366.428V4.80077H364.428ZM364.428 35.6008V33.6008H309.428V35.6008V37.6008H364.428V35.6008ZM309.428 35.6008H307.428V58.8008H309.428H311.428V35.6008H309.428ZM309.428 58.8008V60.8008H359.428V58.8008V56.8008H309.428V58.8008ZM359.428 58.8008H357.428V89.2008H359.428H361.428V58.8008H359.428ZM359.428 89.2008V87.2008H309.428V89.2008V91.2008H359.428V89.2008ZM309.428 89.2008H307.428V114.001H309.428H311.428V89.2008H309.428ZM413.283 114.001H411.283L413.283 116.001V114.001ZM469.283 114.001H471.283L469.283 112.001V114.001ZM469.283 144.801V146.801L471.283 144.801H469.283ZM381.283 144.801H379.283L381.283 146.801V144.801ZM381.283 4.80077V2.80077L379.283 4.80077H381.283ZM468.283 4.80077H470.283L468.283 2.80077V4.80077ZM468.283 35.6008V37.6008L470.283 35.6008H468.283ZM413.283 35.6008V33.6008L411.283 35.6008H413.283ZM413.283 58.8008H411.283L413.283 60.8008V58.8008ZM463.283 58.8008H465.283L463.283 56.8008V58.8008ZM463.283 89.2008V91.2008L465.283 89.2008H463.283ZM413.283 89.2008V87.2008L411.283 89.2008H413.283ZM413.283 114.001V116.001H469.283V114.001V112.001H413.283V114.001ZM469.283 114.001H467.283V144.801H469.283H471.283V114.001H469.283ZM469.283 144.801V142.801H381.283V144.801V146.801H469.283V144.801ZM381.283 144.801H383.283V4.80077H381.283H379.283V144.801H381.283ZM381.283 4.80077V6.80077H468.283V4.80077V2.80077H381.283V4.80077ZM468.283 4.80077H466.283V35.6008H468.283H470.283V4.80077H468.283ZM468.283 35.6008V33.6008H413.283V35.6008V37.6008H468.283V35.6008ZM413.283 35.6008H411.283V58.8008H413.283H415.283V35.6008H413.283ZM413.283 58.8008V60.8008H463.283V58.8008V56.8008H413.283V58.8008ZM463.283 58.8008H461.283V89.2008H463.283H465.283V58.8008H463.283ZM463.283 89.2008V87.2008H413.283V89.2008V91.2008H463.283V89.2008ZM413.283 89.2008H411.283V114.001H413.283H415.283V89.2008H413.283ZM558.738 144.801L557.003 145.796L558.738 146.801V144.801ZM532.338 98.8008L534.072 97.8053L532.338 96.8008V98.8008ZM517.138 98.8008V96.8008L515.138 98.8008H517.138ZM517.138 144.801V146.801L519.138 144.801H517.138ZM485.138 144.801H483.138L485.138 146.801V144.801ZM485.138 4.80077V2.80077L483.138 4.80077H485.138ZM563.338 93.4008L562.434 91.6166L561.607 94.4039L563.338 93.4008ZM593.138 144.801V146.801L594.868 143.798L593.138 144.801ZM517.138 34.8008V32.8008L515.138 34.8008H517.138ZM517.138 70.8008H515.138L517.138 72.8008V70.8008ZM558.738 144.801L560.472 143.805L534.072 97.8053L532.338 98.8008L530.603 99.7963L557.003 145.796L558.738 144.801ZM532.338 98.8008V96.8008H517.138V98.8008V100.801H532.338V98.8008ZM517.138 98.8008H515.138V144.801H517.138H519.138V98.8008H517.138ZM517.138 144.801V142.801H485.138V144.801V146.801H517.138V144.801ZM485.138 144.801H487.138V4.80077H485.138H483.138V144.801H485.138ZM485.138 4.80077V6.80077H541.138V4.80077V2.80077H485.138V4.80077ZM541.138 4.80077V6.80077C566.633 6.80077 587.138 27.3053 587.138 52.8008H589.138H591.138C591.138 25.0962 568.842 2.80077 541.138 2.80077V4.80077ZM589.138 52.8008H587.138C587.138 69.1816 577.222 84.1266 562.434 91.6166L563.338 93.4008L564.241 95.185C580.253 87.075 591.138 70.82 591.138 52.8008H589.138ZM563.338 93.4008L561.607 94.4039L591.407 145.804L593.138 144.801L594.868 143.798L565.068 92.3976L563.338 93.4008ZM593.138 144.801V142.801H558.738V144.801V146.801H593.138V144.801ZM517.138 34.8008H515.138V70.8008H517.138H519.138V34.8008H517.138ZM517.138 70.8008V72.8008H541.138V70.8008V68.8008H517.138V70.8008ZM541.138 70.8008V72.8008C551.237 72.8008 559.138 63.9002 559.138 52.8008H557.138H555.138C555.138 62.1013 548.638 68.8008 541.138 68.8008V70.8008ZM557.138 52.8008H559.138C559.138 41.7013 551.237 32.8008 541.138 32.8008V34.8008V36.8008C548.638 36.8008 555.138 43.5002 555.138 52.8008H557.138ZM541.138 34.8008V32.8008H517.138V34.8008V36.8008H541.138V34.8008ZM780.584 34.4008L781.587 36.1311L782.287 33.3516L780.584 34.4008ZM752.984 50.4008L751.25 51.3965L753.987 52.1311L752.984 50.4008ZM752.984 99.2008L753.987 97.4705L751.236 98.2295L752.984 99.2008ZM780.584 115.201L782.295 116.237L781.587 113.471L780.584 115.201ZM720.584 147.601V145.601C679.507 145.601 649.784 114.914 649.784 74.8008H647.784H645.784C645.784 117.087 677.262 149.601 720.584 149.601V147.601ZM647.784 74.8008H649.784C649.784 34.6871 679.507 4.00078 720.584 4.00078V2.00078V0.000778198C677.262 0.000778198 645.784 32.5144 645.784 74.8008H647.784ZM720.584 2.00078V4.00078C745.319 4.00078 767.061 16.2652 778.882 35.4499L780.584 34.4008L782.287 33.3516C769.708 12.9364 746.649 0.000778198 720.584 0.000778198V2.00078ZM780.584 34.4008L779.581 32.6705L751.981 48.6705L752.984 50.4008L753.987 52.1311L781.587 36.1311L780.584 34.4008ZM752.984 50.4008L754.719 49.405C748.108 37.89 735.385 31.2008 720.584 31.2008V33.2008V35.2008C734.183 35.2008 745.46 41.3116 751.25 51.3965L752.984 50.4008ZM720.584 33.2008V31.2008C707.725 31.2008 696.982 35.5148 689.453 43.2289C681.93 50.9376 677.784 61.8694 677.784 74.8008H679.784H681.784C681.784 62.7322 685.639 52.8639 692.316 46.0227C698.987 39.1867 708.644 35.2008 720.584 35.2008V33.2008ZM679.784 74.8008H677.784C677.784 87.7322 681.93 98.6639 689.453 106.373C696.982 114.087 707.725 118.401 720.584 118.401V116.401V114.401C708.644 114.401 698.987 110.415 692.316 103.579C685.639 96.7376 681.784 86.8694 681.784 74.8008H679.784ZM720.584 116.401V118.401C735.366 118.401 748.315 111.724 754.733 100.172L752.984 99.2008L751.236 98.2295C745.654 108.277 734.203 114.401 720.584 114.401V116.401ZM752.984 99.2008L751.981 100.931L779.581 116.931L780.584 115.201L781.587 113.471L753.987 97.4705L752.984 99.2008ZM780.584 115.201L778.874 114.164C767.257 133.332 745.526 145.601 720.584 145.601V147.601V149.601C746.843 149.601 769.912 136.669 782.295 116.237L780.584 115.201ZM869.381 4.80077V2.80077L867.381 4.80077H869.381ZM901.381 4.80077H903.381L901.381 2.80077V4.80077ZM901.381 144.801V146.801L903.381 144.801H901.381ZM869.381 144.801H867.381L869.381 146.801V144.801ZM869.381 89.2008H871.381L869.381 87.2008V89.2008ZM825.381 89.2008V87.2008L823.381 89.2008H825.381ZM825.381 144.801V146.801L827.381 144.801H825.381ZM793.381 144.801H791.381L793.381 146.801V144.801ZM793.381 4.80077V2.80077L791.381 4.80077H793.381ZM825.381 4.80077H827.381L825.381 2.80077V4.80077ZM825.381 58.4008H823.381L825.381 60.4008V58.4008ZM869.381 58.4008V60.4008L871.381 58.4008H869.381ZM869.381 4.80077V6.80077H901.381V4.80077V2.80077H869.381V4.80077ZM901.381 4.80077H899.381V144.801H901.381H903.381V4.80077H901.381ZM901.381 144.801V142.801H869.381V144.801V146.801H901.381V144.801ZM869.381 144.801H871.381V89.2008H869.381H867.381V144.801H869.381ZM869.381 89.2008V87.2008H825.381V89.2008V91.2008H869.381V89.2008ZM825.381 89.2008H823.381V144.801H825.381H827.381V89.2008H825.381ZM825.381 144.801V142.801H793.381V144.801V146.801H825.381V144.801ZM793.381 144.801H795.381V4.80077H793.381H791.381V144.801H793.381ZM793.381 4.80077V6.80077H825.381V4.80077V2.80077H793.381V4.80077ZM825.381 4.80077H823.381V58.4008H825.381H827.381V4.80077H825.381ZM825.381 58.4008V60.4008H869.381V58.4008V56.4008H825.381V58.4008ZM869.381 58.4008H871.381V4.80077H869.381H867.381V58.4008H869.381ZM955.213 114.001H953.213L955.213 116.001V114.001ZM1011.21 114.001H1013.21L1011.21 112.001V114.001ZM1011.21 144.801V146.801L1013.21 144.801H1011.21ZM923.213 144.801H921.213L923.213 146.801V144.801ZM923.213 4.80077V2.80077L921.213 4.80077H923.213ZM1010.21 4.80077H1012.21L1010.21 2.80077V4.80077ZM1010.21 35.6008V37.6008L1012.21 35.6008H1010.21ZM955.213 35.6008V33.6008L953.213 35.6008H955.213ZM955.213 58.8008H953.213L955.213 60.8008V58.8008ZM1005.21 58.8008H1007.21L1005.21 56.8008V58.8008ZM1005.21 89.2008V91.2008L1007.21 89.2008H1005.21ZM955.213 89.2008V87.2008L953.213 89.2008H955.213ZM955.213 114.001V116.001H1011.21V114.001V112.001H955.213V114.001ZM1011.21 114.001H1009.21V144.801H1011.21H1013.21V114.001H1011.21ZM1011.21 144.801V142.801H923.213V144.801V146.801H1011.21V144.801ZM923.213 144.801H925.213V4.80077H923.213H921.213V144.801H923.213ZM923.213 4.80077V6.80077H1010.21V4.80077V2.80077H923.213V4.80077ZM1010.21 4.80077H1008.21V35.6008H1010.21H1012.21V4.80077H1010.21ZM1010.21 35.6008V33.6008H955.213V35.6008V37.6008H1010.21V35.6008ZM955.213 35.6008H953.213V58.8008H955.213H957.213V35.6008H955.213ZM955.213 58.8008V60.8008H1005.21V58.8008V56.8008H955.213V58.8008ZM1005.21 58.8008H1003.21V89.2008H1005.21H1007.21V58.8008H1005.21ZM1005.21 89.2008V87.2008H955.213V89.2008V91.2008H1005.21V89.2008ZM955.213 89.2008H953.213V114.001H955.213H957.213V89.2008H955.213ZM1059.07 114.001H1057.07L1059.07 116.001V114.001ZM1115.07 114.001H1117.07L1115.07 112.001V114.001ZM1115.07 144.801V146.801L1117.07 144.801H1115.07ZM1027.07 144.801H1025.07L1027.07 146.801V144.801ZM1027.07 4.80077V2.80077L1025.07 4.80077H1027.07ZM1114.07 4.80077H1116.07L1114.07 2.80077V4.80077ZM1114.07 35.6008V37.6008L1116.07 35.6008H1114.07ZM1059.07 35.6008V33.6008L1057.07 35.6008H1059.07ZM1059.07 58.8008H1057.07L1059.07 60.8008V58.8008ZM1109.07 58.8008H1111.07L1109.07 56.8008V58.8008ZM1109.07 89.2008V91.2008L1111.07 89.2008H1109.07ZM1059.07 89.2008V87.2008L1057.07 89.2008H1059.07ZM1059.07 114.001V116.001H1115.07V114.001V112.001H1059.07V114.001ZM1115.07 114.001H1113.07V144.801H1115.07H1117.07V114.001H1115.07ZM1115.07 144.801V142.801H1027.07V144.801V146.801H1115.07V144.801ZM1027.07 144.801H1029.07V4.80077H1027.07H1025.07V144.801H1027.07ZM1027.07 4.80077V6.80077H1114.07V4.80077V2.80077H1027.07V4.80077ZM1114.07 4.80077H1112.07V35.6008H1114.07H1116.07V4.80077H1114.07ZM1114.07 35.6008V33.6008H1059.07V35.6008V37.6008H1114.07V35.6008ZM1059.07 35.6008H1057.07V58.8008H1059.07H1061.07V35.6008H1059.07ZM1059.07 58.8008V60.8008H1109.07V58.8008V56.8008H1059.07V58.8008ZM1109.07 58.8008H1107.07V89.2008H1109.07H1111.07V58.8008H1109.07ZM1109.07 89.2008V87.2008H1059.07V89.2008V91.2008H1109.07V89.2008ZM1059.07 89.2008H1057.07V114.001H1059.07H1061.07V89.2008H1059.07ZM1204.52 144.801L1202.79 145.796L1204.52 146.801V144.801ZM1178.12 98.8008L1179.86 97.8053L1178.12 96.8008V98.8008ZM1162.92 98.8008V96.8008L1160.92 98.8008H1162.92ZM1162.92 144.801V146.801L1164.92 144.801H1162.92ZM1130.92 144.801H1128.92L1130.92 146.801V144.801ZM1130.92 4.80077V2.80077L1128.92 4.80077H1130.92ZM1209.12 93.4008L1208.22 91.6166L1207.39 94.4039L1209.12 93.4008ZM1238.92 144.801V146.801L1240.65 143.798L1238.92 144.801ZM1162.92 34.8008V32.8008L1160.92 34.8008H1162.92ZM1162.92 70.8008H1160.92L1162.92 72.8008V70.8008ZM1204.52 144.801L1206.26 143.805L1179.86 97.8053L1178.12 98.8008L1176.39 99.7963L1202.79 145.796L1204.52 144.801ZM1178.12 98.8008V96.8008H1162.92V98.8008V100.801H1178.12V98.8008ZM1162.92 98.8008H1160.92V144.801H1162.92H1164.92V98.8008H1162.92ZM1162.92 144.801V142.801H1130.92V144.801V146.801H1162.92V144.801ZM1130.92 144.801H1132.92V4.80077H1130.92H1128.92V144.801H1130.92ZM1130.92 4.80077V6.80077H1186.92V4.80077V2.80077H1130.92V4.80077ZM1186.92 4.80077V6.80077C1212.42 6.80077 1232.92 27.3053 1232.92 52.8008H1234.92H1236.92C1236.92 25.0962 1214.63 2.80077 1186.92 2.80077V4.80077ZM1234.92 52.8008H1232.92C1232.92 69.1816 1223.01 84.1266 1208.22 91.6166L1209.12 93.4008L1210.03 95.185C1226.04 87.075 1236.92 70.82 1236.92 52.8008H1234.92ZM1209.12 93.4008L1207.39 94.4039L1237.19 145.804L1238.92 144.801L1240.65 143.798L1210.85 92.3976L1209.12 93.4008ZM1238.92 144.801V142.801H1204.52V144.801V146.801H1238.92V144.801ZM1162.92 34.8008H1160.92V70.8008H1162.92H1164.92V34.8008H1162.92ZM1162.92 70.8008V72.8008H1186.92V70.8008V68.8008H1162.92V70.8008ZM1186.92 70.8008V72.8008C1197.02 72.8008 1204.92 63.9002 1204.92 52.8008H1202.92H1200.92C1200.92 62.1013 1194.42 68.8008 1186.92 68.8008V70.8008ZM1202.92 52.8008H1204.92C1204.92 41.7013 1197.02 32.8008 1186.92 32.8008V34.8008V36.8008C1194.42 36.8008 1200.92 43.5002 1200.92 52.8008H1202.92ZM1186.92 34.8008V32.8008H1162.92V34.8008V36.8008H1186.92V34.8008ZM1426.37 34.4008L1427.37 36.1311L1428.07 33.3516L1426.37 34.4008ZM1398.77 50.4008L1397.03 51.3965L1399.77 52.1311L1398.77 50.4008ZM1398.77 99.2008L1399.77 97.4705L1397.02 98.2295L1398.77 99.2008ZM1426.37 115.201L1428.08 116.237L1427.37 113.471L1426.37 115.201ZM1366.37 147.601V145.601C1325.29 145.601 1295.57 114.914 1295.57 74.8008H1293.57H1291.57C1291.57 117.087 1323.05 149.601 1366.37 149.601V147.601ZM1293.57 74.8008H1295.57C1295.57 34.6871 1325.29 4.00078 1366.37 4.00078V2.00078V0.000778198C1323.05 0.000778198 1291.57 32.5144 1291.57 74.8008H1293.57ZM1366.37 2.00078V4.00078C1391.1 4.00078 1412.85 16.2652 1424.67 35.4499L1426.37 34.4008L1428.07 33.3516C1415.49 12.9364 1392.43 0.000778198 1366.37 0.000778198V2.00078ZM1426.37 34.4008L1425.37 32.6705L1397.77 48.6705L1398.77 50.4008L1399.77 52.1311L1427.37 36.1311L1426.37 34.4008ZM1398.77 50.4008L1400.5 49.405C1393.89 37.89 1381.17 31.2008 1366.37 31.2008V33.2008V35.2008C1379.97 35.2008 1391.24 41.3116 1397.03 51.3965L1398.77 50.4008ZM1366.37 33.2008V31.2008C1353.51 31.2008 1342.77 35.5148 1335.24 43.2289C1327.71 50.9376 1323.57 61.8694 1323.57 74.8008H1325.57H1327.57C1327.57 62.7322 1331.42 52.8639 1338.1 46.0227C1344.77 39.1867 1354.43 35.2008 1366.37 35.2008V33.2008ZM1325.57 74.8008H1323.57C1323.57 87.7322 1327.71 98.6639 1335.24 106.373C1342.77 114.087 1353.51 118.401 1366.37 118.401V116.401V114.401C1354.43 114.401 1344.77 110.415 1338.1 103.579C1331.42 96.7376 1327.57 86.8694 1327.57 74.8008H1325.57ZM1366.37 116.401V118.401C1381.15 118.401 1394.1 111.724 1400.52 100.172L1398.77 99.2008L1397.02 98.2295C1391.44 108.277 1379.99 114.401 1366.37 114.401V116.401ZM1398.77 99.2008L1397.77 100.931L1425.37 116.931L1426.37 115.201L1427.37 113.471L1399.77 97.4705L1398.77 99.2008ZM1426.37 115.201L1424.66 114.164C1413.04 133.332 1391.31 145.601 1366.37 145.601V147.601V149.601C1392.63 149.601 1415.7 136.669 1428.08 116.237L1426.37 115.201ZM1515.17 4.80077V2.80077L1513.17 4.80077H1515.17ZM1547.17 4.80077H1549.17L1547.17 2.80077V4.80077ZM1547.17 144.801V146.801L1549.17 144.801H1547.17ZM1515.17 144.801H1513.17L1515.17 146.801V144.801ZM1515.17 89.2008H1517.17L1515.17 87.2008V89.2008ZM1471.17 89.2008V87.2008L1469.17 89.2008H1471.17ZM1471.17 144.801V146.801L1473.17 144.801H1471.17ZM1439.17 144.801H1437.17L1439.17 146.801V144.801ZM1439.17 4.80077V2.80077L1437.17 4.80077H1439.17ZM1471.17 4.80077H1473.17L1471.17 2.80077V4.80077ZM1471.17 58.4008H1469.17L1471.17 60.4008V58.4008ZM1515.17 58.4008V60.4008L1517.17 58.4008H1515.17ZM1515.17 4.80077V6.80077H1547.17V4.80077V2.80077H1515.17V4.80077ZM1547.17 4.80077H1545.17V144.801H1547.17H1549.17V4.80077H1547.17ZM1547.17 144.801V142.801H1515.17V144.801V146.801H1547.17V144.801ZM1515.17 144.801H1517.17V89.2008H1515.17H1513.17V144.801H1515.17ZM1515.17 89.2008V87.2008H1471.17V89.2008V91.2008H1515.17V89.2008ZM1471.17 89.2008H1469.17V144.801H1471.17H1473.17V89.2008H1471.17ZM1471.17 144.801V142.801H1439.17V144.801V146.801H1471.17V144.801ZM1439.17 144.801H1441.17V4.80077H1439.17H1437.17V144.801H1439.17ZM1439.17 4.80077V6.80077H1471.17V4.80077V2.80077H1439.17V4.80077ZM1471.17 4.80077H1469.17V58.4008H1471.17H1473.17V4.80077H1471.17ZM1471.17 58.4008V60.4008H1515.17V58.4008V56.4008H1471.17V58.4008ZM1515.17 58.4008H1517.17V4.80077H1515.17H1513.17V58.4008H1515.17ZM1601 114.001H1599L1601 116.001V114.001ZM1657 114.001H1659L1657 112.001V114.001ZM1657 144.801V146.801L1659 144.801H1657ZM1569 144.801H1567L1569 146.801V144.801ZM1569 4.80077V2.80077L1567 4.80077H1569ZM1656 4.80077H1658L1656 2.80077V4.80077ZM1656 35.6008V37.6008L1658 35.6008H1656ZM1601 35.6008V33.6008L1599 35.6008H1601ZM1601 58.8008H1599L1601 60.8008V58.8008ZM1651 58.8008H1653L1651 56.8008V58.8008ZM1651 89.2008V91.2008L1653 89.2008H1651ZM1601 89.2008V87.2008L1599 89.2008H1601ZM1601 114.001V116.001H1657V114.001V112.001H1601V114.001ZM1657 114.001H1655V144.801H1657H1659V114.001H1657ZM1657 144.801V142.801H1569V144.801V146.801H1657V144.801ZM1569 144.801H1571V4.80077H1569H1567V144.801H1569ZM1569 4.80077V6.80077H1656V4.80077V2.80077H1569V4.80077ZM1656 4.80077H1654V35.6008H1656H1658V4.80077H1656ZM1656 35.6008V33.6008H1601V35.6008V37.6008H1656V35.6008ZM1601 35.6008H1599V58.8008H1601H1603V35.6008H1601ZM1601 58.8008V60.8008H1651V58.8008V56.8008H1601V58.8008ZM1651 58.8008H1649V89.2008H1651H1653V58.8008H1651ZM1651 89.2008V87.2008H1601V89.2008V91.2008H1651V89.2008ZM1601 89.2008H1599V114.001H1601H1603V89.2008H1601ZM1704.85 114.001H1702.85L1704.85 116.001V114.001ZM1760.85 114.001H1762.85L1760.85 112.001V114.001ZM1760.85 144.801V146.801L1762.85 144.801H1760.85ZM1672.85 144.801H1670.85L1672.85 146.801V144.801ZM1672.85 4.80077V2.80077L1670.85 4.80077H1672.85ZM1759.85 4.80077H1761.85L1759.85 2.80077V4.80077ZM1759.85 35.6008V37.6008L1761.85 35.6008H1759.85ZM1704.85 35.6008V33.6008L1702.85 35.6008H1704.85ZM1704.85 58.8008H1702.85L1704.85 60.8008V58.8008ZM1754.85 58.8008H1756.85L1754.85 56.8008V58.8008ZM1754.85 89.2008V91.2008L1756.85 89.2008H1754.85ZM1704.85 89.2008V87.2008L1702.85 89.2008H1704.85ZM1704.85 114.001V116.001H1760.85V114.001V112.001H1704.85V114.001ZM1760.85 114.001H1758.85V144.801H1760.85H1762.85V114.001H1760.85ZM1760.85 144.801V142.801H1672.85V144.801V146.801H1760.85V144.801ZM1672.85 144.801H1674.85V4.80077H1672.85H1670.85V144.801H1672.85ZM1672.85 4.80077V6.80077H1759.85V4.80077V2.80077H1672.85V4.80077ZM1759.85 4.80077H1757.85V35.6008H1759.85H1761.85V4.80077H1759.85ZM1759.85 35.6008V33.6008H1704.85V35.6008V37.6008H1759.85V35.6008ZM1704.85 35.6008H1702.85V58.8008H1704.85H1706.85V35.6008H1704.85ZM1704.85 58.8008V60.8008H1754.85V58.8008V56.8008H1704.85V58.8008ZM1754.85 58.8008H1752.85V89.2008H1754.85H1756.85V58.8008H1754.85ZM1754.85 89.2008V87.2008H1704.85V89.2008V91.2008H1754.85V89.2008ZM1704.85 89.2008H1702.85V114.001H1704.85H1706.85V89.2008H1704.85ZM1850.31 144.801L1848.57 145.796L1850.31 146.801V144.801ZM1823.91 98.8008L1825.64 97.8053L1823.91 96.8008V98.8008ZM1808.71 98.8008V96.8008L1806.71 98.8008H1808.71ZM1808.71 144.801V146.801L1810.71 144.801H1808.71ZM1776.71 144.801H1774.71L1776.71 146.801V144.801ZM1776.71 4.80077V2.80077L1774.71 4.80077H1776.71ZM1854.91 93.4008L1854 91.6166L1853.18 94.4039L1854.91 93.4008ZM1884.71 144.801V146.801L1886.44 143.798L1884.71 144.801ZM1808.71 34.8008V32.8008L1806.71 34.8008H1808.71ZM1808.71 70.8008H1806.71L1808.71 72.8008V70.8008ZM1850.31 144.801L1852.04 143.805L1825.64 97.8053L1823.91 98.8008L1822.17 99.7963L1848.57 145.796L1850.31 144.801ZM1823.91 98.8008V96.8008H1808.71V98.8008V100.801H1823.91V98.8008ZM1808.71 98.8008H1806.71V144.801H1808.71H1810.71V98.8008H1808.71ZM1808.71 144.801V142.801H1776.71V144.801V146.801H1808.71V144.801ZM1776.71 144.801H1778.71V4.80077H1776.71H1774.71V144.801H1776.71ZM1776.71 4.80077V6.80077H1832.71V4.80077V2.80077H1776.71V4.80077ZM1832.71 4.80077V6.80077C1858.2 6.80077 1878.71 27.3053 1878.71 52.8008H1880.71H1882.71C1882.71 25.0962 1860.41 2.80077 1832.71 2.80077V4.80077ZM1880.71 52.8008H1878.71C1878.71 69.1816 1868.79 84.1266 1854 91.6166L1854.91 93.4008L1855.81 95.185C1871.82 87.075 1882.71 70.82 1882.71 52.8008H1880.71ZM1854.91 93.4008L1853.18 94.4039L1882.98 145.804L1884.71 144.801L1886.44 143.798L1856.64 92.3976L1854.91 93.4008ZM1884.71 144.801V142.801H1850.31V144.801V146.801H1884.71V144.801ZM1808.71 34.8008H1806.71V70.8008H1808.71H1810.71V34.8008H1808.71ZM1808.71 70.8008V72.8008H1832.71V70.8008V68.8008H1808.71V70.8008ZM1832.71 70.8008V72.8008C1842.81 72.8008 1850.71 63.9002 1850.71 52.8008H1848.71H1846.71C1846.71 62.1013 1840.21 68.8008 1832.71 68.8008V70.8008ZM1848.71 52.8008H1850.71C1850.71 41.7013 1842.81 32.8008 1832.71 32.8008V34.8008V36.8008C1840.21 36.8008 1846.71 43.5002 1846.71 52.8008H1848.71ZM1832.71 34.8008V32.8008H1808.71V34.8008V36.8008H1832.71V34.8008ZM2072.15 34.4008L2073.16 36.1311L2073.86 33.3516L2072.15 34.4008ZM2044.55 50.4008L2042.82 51.3965L2045.56 52.1311L2044.55 50.4008ZM2044.55 99.2008L2045.56 97.4705L2042.8 98.2295L2044.55 99.2008ZM2072.15 115.201L2073.86 116.237L2073.16 113.471L2072.15 115.201ZM2012.15 147.601V145.601C1971.08 145.601 1941.35 114.914 1941.35 74.8008H1939.35H1937.35C1937.35 117.087 1968.83 149.601 2012.15 149.601V147.601ZM1939.35 74.8008H1941.35C1941.35 34.6871 1971.08 4.00078 2012.15 4.00078V2.00078V0.000778198C1968.83 0.000778198 1937.35 32.5144 1937.35 74.8008H1939.35ZM2012.15 2.00078V4.00078C2036.89 4.00078 2058.63 16.2652 2070.45 35.4499L2072.15 34.4008L2073.86 33.3516C2061.28 12.9364 2038.22 0.000778198 2012.15 0.000778198V2.00078ZM2072.15 34.4008L2071.15 32.6705L2043.55 48.6705L2044.55 50.4008L2045.56 52.1311L2073.16 36.1311L2072.15 34.4008ZM2044.55 50.4008L2046.29 49.405C2039.68 37.89 2026.95 31.2008 2012.15 31.2008V33.2008V35.2008C2025.75 35.2008 2037.03 41.3116 2042.82 51.3965L2044.55 50.4008ZM2012.15 33.2008V31.2008C1999.29 31.2008 1988.55 35.5148 1981.02 43.2289C1973.5 50.9376 1969.35 61.8694 1969.35 74.8008H1971.35H1973.35C1973.35 62.7322 1977.21 52.8639 1983.88 46.0227C1990.56 39.1867 2000.21 35.2008 2012.15 35.2008V33.2008ZM1971.35 74.8008H1969.35C1969.35 87.7322 1973.5 98.6639 1981.02 106.373C1988.55 114.087 1999.29 118.401 2012.15 118.401V116.401V114.401C2000.21 114.401 1990.56 110.415 1983.88 103.579C1977.21 96.7376 1973.35 86.8694 1973.35 74.8008H1971.35ZM2012.15 116.401V118.401C2026.93 118.401 2039.88 111.724 2046.3 100.172L2044.55 99.2008L2042.8 98.2295C2037.22 108.277 2025.77 114.401 2012.15 114.401V116.401ZM2044.55 99.2008L2043.55 100.931L2071.15 116.931L2072.15 115.201L2073.16 113.471L2045.56 97.4705L2044.55 99.2008ZM2072.15 115.201L2070.44 114.164C2058.83 133.332 2037.09 145.601 2012.15 145.601V147.601V149.601C2038.41 149.601 2061.48 136.669 2073.86 116.237L2072.15 115.201ZM2160.95 4.80077V2.80077L2158.95 4.80077H2160.95ZM2192.95 4.80077H2194.95L2192.95 2.80077V4.80077ZM2192.95 144.801V146.801L2194.95 144.801H2192.95ZM2160.95 144.801H2158.95L2160.95 146.801V144.801ZM2160.95 89.2008H2162.95L2160.95 87.2008V89.2008ZM2116.95 89.2008V87.2008L2114.95 89.2008H2116.95ZM2116.95 144.801V146.801L2118.95 144.801H2116.95ZM2084.95 144.801H2082.95L2084.95 146.801V144.801ZM2084.95 4.80077V2.80077L2082.95 4.80077H2084.95ZM2116.95 4.80077H2118.95L2116.95 2.80077V4.80077ZM2116.95 58.4008H2114.95L2116.95 60.4008V58.4008ZM2160.95 58.4008V60.4008L2162.95 58.4008H2160.95ZM2160.95 4.80077V6.80077H2192.95V4.80077V2.80077H2160.95V4.80077ZM2192.95 4.80077H2190.95V144.801H2192.95H2194.95V4.80077H2192.95ZM2192.95 144.801V142.801H2160.95V144.801V146.801H2192.95V144.801ZM2160.95 144.801H2162.95V89.2008H2160.95H2158.95V144.801H2160.95ZM2160.95 89.2008V87.2008H2116.95V89.2008V91.2008H2160.95V89.2008ZM2116.95 89.2008H2114.95V144.801H2116.95H2118.95V89.2008H2116.95ZM2116.95 144.801V142.801H2084.95V144.801V146.801H2116.95V144.801ZM2084.95 144.801H2086.95V4.80077H2084.95H2082.95V144.801H2084.95ZM2084.95 4.80077V6.80077H2116.95V4.80077V2.80077H2084.95V4.80077ZM2116.95 4.80077H2114.95V58.4008H2116.95H2118.95V4.80077H2116.95ZM2116.95 58.4008V60.4008H2160.95V58.4008V56.4008H2116.95V58.4008ZM2160.95 58.4008H2162.95V4.80077H2160.95H2158.95V58.4008H2160.95ZM2246.78 114.001H2244.78L2246.78 116.001V114.001ZM2302.78 114.001H2304.78L2302.78 112.001V114.001ZM2302.78 144.801V146.801L2304.78 144.801H2302.78ZM2214.78 144.801H2212.78L2214.78 146.801V144.801ZM2214.78 4.80077V2.80077L2212.78 4.80077H2214.78ZM2301.78 4.80077H2303.78L2301.78 2.80077V4.80077ZM2301.78 35.6008V37.6008L2303.78 35.6008H2301.78ZM2246.78 35.6008V33.6008L2244.78 35.6008H2246.78ZM2246.78 58.8008H2244.78L2246.78 60.8008V58.8008ZM2296.78 58.8008H2298.78L2296.78 56.8008V58.8008ZM2296.78 89.2008V91.2008L2298.78 89.2008H2296.78ZM2246.78 89.2008V87.2008L2244.78 89.2008H2246.78ZM2246.78 114.001V116.001H2302.78V114.001V112.001H2246.78V114.001ZM2302.78 114.001H2300.78V144.801H2302.78H2304.78V114.001H2302.78ZM2302.78 144.801V142.801H2214.78V144.801V146.801H2302.78V144.801ZM2214.78 144.801H2216.78V4.80077H2214.78H2212.78V144.801H2214.78ZM2214.78 4.80077V6.80077H2301.78V4.80077V2.80077H2214.78V4.80077ZM2301.78 4.80077H2299.78V35.6008H2301.78H2303.78V4.80077H2301.78ZM2301.78 35.6008V33.6008H2246.78V35.6008V37.6008H2301.78V35.6008ZM2246.78 35.6008H2244.78V58.8008H2246.78H2248.78V35.6008H2246.78ZM2246.78 58.8008V60.8008H2296.78V58.8008V56.8008H2246.78V58.8008ZM2296.78 58.8008H2294.78V89.2008H2296.78H2298.78V58.8008H2296.78ZM2296.78 89.2008V87.2008H2246.78V89.2008V91.2008H2296.78V89.2008ZM2246.78 89.2008H2244.78V114.001H2246.78H2248.78V89.2008H2246.78ZM2350.64 114.001H2348.64L2350.64 116.001V114.001ZM2406.64 114.001H2408.64L2406.64 112.001V114.001ZM2406.64 144.801V146.801L2408.64 144.801H2406.64ZM2318.64 144.801H2316.64L2318.64 146.801V144.801ZM2318.64 4.80077V2.80077L2316.64 4.80077H2318.64ZM2405.64 4.80077H2407.64L2405.64 2.80077V4.80077ZM2405.64 35.6008V37.6008L2407.64 35.6008H2405.64ZM2350.64 35.6008V33.6008L2348.64 35.6008H2350.64ZM2350.64 58.8008H2348.64L2350.64 60.8008V58.8008ZM2400.64 58.8008H2402.64L2400.64 56.8008V58.8008ZM2400.64 89.2008V91.2008L2402.64 89.2008H2400.64ZM2350.64 89.2008V87.2008L2348.64 89.2008H2350.64ZM2350.64 114.001V116.001H2406.64V114.001V112.001H2350.64V114.001ZM2406.64 114.001H2404.64V144.801H2406.64H2408.64V114.001H2406.64ZM2406.64 144.801V142.801H2318.64V144.801V146.801H2406.64V144.801ZM2318.64 144.801H2320.64V4.80077H2318.64H2316.64V144.801H2318.64ZM2318.64 4.80077V6.80077H2405.64V4.80077V2.80077H2318.64V4.80077ZM2405.64 4.80077H2403.64V35.6008H2405.64H2407.64V4.80077H2405.64ZM2405.64 35.6008V33.6008H2350.64V35.6008V37.6008H2405.64V35.6008ZM2350.64 35.6008H2348.64V58.8008H2350.64H2352.64V35.6008H2350.64ZM2350.64 58.8008V60.8008H2400.64V58.8008V56.8008H2350.64V58.8008ZM2400.64 58.8008H2398.64V89.2008H2400.64H2402.64V58.8008H2400.64ZM2400.64 89.2008V87.2008H2350.64V89.2008V91.2008H2400.64V89.2008ZM2350.64 89.2008H2348.64V114.001H2350.64H2352.64V89.2008H2350.64ZM2496.09 144.801L2494.36 145.796L2496.09 146.801V144.801ZM2469.69 98.8008L2471.43 97.8053L2469.69 96.8008V98.8008ZM2454.49 98.8008V96.8008L2452.49 98.8008H2454.49ZM2454.49 144.801V146.801L2456.49 144.801H2454.49ZM2422.49 144.801H2420.49L2422.49 146.801V144.801ZM2422.49 4.80077V2.80077L2420.49 4.80077H2422.49ZM2500.69 93.4008L2499.79 91.6166L2498.96 94.4039L2500.69 93.4008ZM2530.49 144.801V146.801L2532.22 143.798L2530.49 144.801ZM2454.49 34.8008V32.8008L2452.49 34.8008H2454.49ZM2454.49 70.8008H2452.49L2454.49 72.8008V70.8008ZM2496.09 144.801L2497.83 143.805L2471.43 97.8053L2469.69 98.8008L2467.96 99.7963L2494.36 145.796L2496.09 144.801ZM2469.69 98.8008V96.8008H2454.49V98.8008V100.801H2469.69V98.8008ZM2454.49 98.8008H2452.49V144.801H2454.49H2456.49V98.8008H2454.49ZM2454.49 144.801V142.801H2422.49V144.801V146.801H2454.49V144.801ZM2422.49 144.801H2424.49V4.80077H2422.49H2420.49V144.801H2422.49ZM2422.49 4.80077V6.80077H2478.49V4.80077V2.80077H2422.49V4.80077ZM2478.49 4.80077V6.80077C2503.99 6.80077 2524.49 27.3053 2524.49 52.8008H2526.49H2528.49C2528.49 25.0962 2506.2 2.80077 2478.49 2.80077V4.80077ZM2526.49 52.8008H2524.49C2524.49 69.1816 2514.57 84.1266 2499.79 91.6166L2500.69 93.4008L2501.59 95.185C2517.61 87.075 2528.49 70.82 2528.49 52.8008H2526.49ZM2500.69 93.4008L2498.96 94.4039L2528.76 145.804L2530.49 144.801L2532.22 143.798L2502.42 92.3976L2500.69 93.4008ZM2530.49 144.801V142.801H2496.09V144.801V146.801H2530.49V144.801ZM2454.49 34.8008H2452.49V70.8008H2454.49H2456.49V34.8008H2454.49ZM2454.49 70.8008V72.8008H2478.49V70.8008V68.8008H2454.49V70.8008ZM2478.49 70.8008V72.8008C2488.59 72.8008 2496.49 63.9002 2496.49 52.8008H2494.49H2492.49C2492.49 62.1013 2485.99 68.8008 2478.49 68.8008V70.8008ZM2494.49 52.8008H2496.49C2496.49 41.7013 2488.59 32.8008 2478.49 32.8008V34.8008V36.8008C2485.99 36.8008 2492.49 43.5002 2492.49 52.8008H2494.49ZM2478.49 34.8008V32.8008H2454.49V34.8008V36.8008H2478.49V34.8008Z" fill="white" mask="url(#path-1-outside-1_1702_604)"/>
</svg>
