<svg width="1521" height="91" viewBox="0 0 1521 91" fill="none" xmlns="http://www.w3.org/2000/svg">
<mask id="path-1-outside-1_1712_628" maskUnits="userSpaceOnUse" x="0" y="-0.71875" width="1521" height="92" fill="black">
<rect fill="white" y="-0.71875" width="1521" height="92"/>
<path d="M45.28 88.9613C19.96 88.9613 1.6 70.0012 1.6 45.2812C1.6 20.5612 19.96 1.60124 45.28 1.60124C60.52 1.60124 73.96 9.16125 81.28 21.0412L64.72 30.6412C61 24.1612 53.8 20.3212 45.28 20.3212C30.4 20.3212 20.8 30.2812 20.8 45.2812C20.8 60.2812 30.4 70.2412 45.28 70.2412C53.8 70.2412 61.12 66.4012 64.72 59.9212L81.28 69.5212C74.08 81.4012 60.64 88.9613 45.28 88.9613ZM134.558 3.28124H153.758V87.2812H134.558V53.9212H108.158V87.2812H88.9581V3.28124H108.158V35.4412H134.558V3.28124ZM186.057 68.8012H219.657V87.2812H166.857V3.28124H219.057V21.7612H186.057V35.6812H216.057V53.9212H186.057V68.8012ZM248.37 68.8012H281.97V87.2812H229.17V3.28124H281.37V21.7612H248.37V35.6812H278.37V53.9212H248.37V68.8012ZM335.643 87.2812L319.803 59.6812H310.683V87.2812H291.483V3.28124H325.083C341.043 3.28124 353.883 16.1212 353.883 32.0812C353.883 42.4012 347.643 51.7612 338.403 56.4413L356.283 87.2812H335.643ZM310.683 21.2812V42.8812H325.083C330.363 42.8812 334.683 38.2012 334.683 32.0812C334.683 25.9612 330.363 21.2812 325.083 21.2812H310.683ZM432.751 88.9613C407.431 88.9613 389.071 70.0012 389.071 45.2812C389.071 20.5612 407.431 1.60124 432.751 1.60124C447.991 1.60124 461.431 9.16125 468.751 21.0412L452.191 30.6412C448.471 24.1612 441.271 20.3212 432.751 20.3212C417.871 20.3212 408.271 30.2812 408.271 45.2812C408.271 60.2812 417.871 70.2412 432.751 70.2412C441.271 70.2412 448.591 66.4012 452.191 59.9212L468.751 69.5212C461.551 81.4012 448.111 88.9613 432.751 88.9613ZM522.029 3.28124H541.229V87.2812H522.029V53.9212H495.629V87.2812H476.429V3.28124H495.629V35.4412H522.029V3.28124ZM573.528 68.8012H607.128V87.2812H554.328V3.28124H606.528V21.7612H573.528V35.6812H603.528V53.9212H573.528V68.8012ZM635.84 68.8012H669.44V87.2812H616.64V3.28124H668.84V21.7612H635.84V35.6812H665.84V53.9212H635.84V68.8012ZM723.113 87.2812L707.273 59.6812H698.153V87.2812H678.953V3.28124H712.553C728.513 3.28124 741.353 16.1212 741.353 32.0812C741.353 42.4012 735.113 51.7612 725.873 56.4413L743.753 87.2812H723.113ZM698.153 21.2812V42.8812H712.553C717.833 42.8812 722.153 38.2012 722.153 32.0812C722.153 25.9612 717.833 21.2812 712.553 21.2812H698.153ZM820.221 88.9613C794.901 88.9613 776.541 70.0012 776.541 45.2812C776.541 20.5612 794.901 1.60124 820.221 1.60124C835.461 1.60124 848.901 9.16125 856.221 21.0412L839.661 30.6412C835.941 24.1612 828.741 20.3212 820.221 20.3212C805.341 20.3212 795.741 30.2812 795.741 45.2812C795.741 60.2812 805.341 70.2412 820.221 70.2412C828.741 70.2412 836.061 66.4012 839.661 59.9212L856.221 69.5212C849.021 81.4012 835.581 88.9613 820.221 88.9613ZM909.499 3.28124H928.699V87.2812H909.499V53.9212H883.099V87.2812H863.899V3.28124H883.099V35.4412H909.499V3.28124ZM960.998 68.8012H994.598V87.2812H941.798V3.28124H993.998V21.7612H960.998V35.6812H990.998V53.9212H960.998V68.8012ZM1023.31 68.8012H1056.91V87.2812H1004.11V3.28124H1056.31V21.7612H1023.31V35.6812H1053.31V53.9212H1023.31V68.8012ZM1110.58 87.2812L1094.74 59.6812H1085.62V87.2812H1066.42V3.28124H1100.02C1115.98 3.28124 1128.82 16.1212 1128.82 32.0812C1128.82 42.4012 1122.58 51.7612 1113.34 56.4413L1131.22 87.2812H1110.58ZM1085.62 21.2812V42.8812H1100.02C1105.3 42.8812 1109.62 38.2012 1109.62 32.0812C1109.62 25.9612 1105.3 21.2812 1100.02 21.2812H1085.62ZM1207.69 88.9613C1182.37 88.9613 1164.01 70.0012 1164.01 45.2812C1164.01 20.5612 1182.37 1.60124 1207.69 1.60124C1222.93 1.60124 1236.37 9.16125 1243.69 21.0412L1227.13 30.6412C1223.41 24.1612 1216.21 20.3212 1207.69 20.3212C1192.81 20.3212 1183.21 30.2812 1183.21 45.2812C1183.21 60.2812 1192.81 70.2412 1207.69 70.2412C1216.21 70.2412 1223.53 66.4012 1227.13 59.9212L1243.69 69.5212C1236.49 81.4012 1223.05 88.9613 1207.69 88.9613ZM1296.97 3.28124H1316.17V87.2812H1296.97V53.9212H1270.57V87.2812H1251.37V3.28124H1270.57V35.4412H1296.97V3.28124ZM1348.47 68.8012H1382.07V87.2812H1329.27V3.28124H1381.47V21.7612H1348.47V35.6812H1378.47V53.9212H1348.47V68.8012ZM1410.78 68.8012H1444.38V87.2812H1391.58V3.28124H1443.78V21.7612H1410.78V35.6812H1440.78V53.9212H1410.78V68.8012ZM1498.05 87.2812L1482.21 59.6812H1473.09V87.2812H1453.89V3.28124H1487.49C1503.45 3.28124 1516.29 16.1212 1516.29 32.0812C1516.29 42.4012 1510.05 51.7612 1500.81 56.4413L1518.69 87.2812H1498.05ZM1473.09 21.2812V42.8812H1487.49C1492.77 42.8812 1497.09 38.2012 1497.09 32.0812C1497.09 25.9612 1492.77 21.2812 1487.49 21.2812H1473.09Z"/>
</mask>
<path d="M81.28 21.0412L82.0825 22.4255L82.6422 20.2019L81.28 21.0412ZM64.72 30.6412L63.3324 31.4378L65.5225 32.0255L64.72 30.6412ZM64.72 59.9212L65.5225 58.537L63.3214 59.1442L64.72 59.9212ZM81.28 69.5212L82.6483 70.3505L82.0825 68.137L81.28 69.5212ZM45.28 88.9613V87.3613C20.8581 87.3613 3.2 69.1321 3.2 45.2812H1.6H0C0 70.8704 19.0619 90.5612 45.28 90.5612V88.9613ZM1.6 45.2812H3.2C3.2 21.4303 20.8581 3.20125 45.28 3.20125V1.60124V0.00124359C19.0619 0.00124359 0 19.6921 0 45.2812H1.6ZM45.28 1.60124V3.20125C59.9879 3.20125 72.9011 10.4928 79.9178 21.8806L81.28 21.0412L82.6422 20.2019C75.0189 7.82971 61.0521 0.00124359 45.28 0.00124359V1.60124ZM81.28 21.0412L80.4776 19.657L63.9176 29.257L64.72 30.6412L65.5225 32.0255L82.0825 22.4255L81.28 21.0412ZM64.72 30.6412L66.1076 29.8447C62.0592 22.7926 54.2808 18.7212 45.28 18.7212V20.3212V21.9212C53.3192 21.9212 59.9408 25.5299 63.3324 31.4378L64.72 30.6412ZM45.28 20.3212V18.7212C37.4725 18.7212 30.9177 21.3425 26.3149 26.0587C21.7163 30.7707 19.2 37.4361 19.2 45.2812H20.8H22.4C22.4 38.1264 24.6837 32.3118 28.6051 28.2938C32.5223 24.28 38.2075 21.9212 45.28 21.9212V20.3212ZM20.8 45.2812H19.2C19.2 53.1264 21.7163 59.7918 26.3149 64.5038C30.9177 69.22 37.4725 71.8412 45.28 71.8412V70.2412V68.6413C38.2075 68.6413 32.5223 66.2825 28.6051 62.2687C24.6837 58.2507 22.4 52.4361 22.4 45.2812H20.8ZM45.28 70.2412V71.8412C54.265 71.8412 62.1843 67.7801 66.1187 60.6983L64.72 59.9212L63.3214 59.1442C60.0557 65.0224 53.335 68.6413 45.28 68.6413V70.2412ZM64.72 59.9212L63.9176 61.3055L80.4776 70.9055L81.28 69.5212L82.0825 68.137L65.5225 58.537L64.72 59.9212ZM81.28 69.5212L79.9117 68.692C73.0181 80.0664 60.113 87.3613 45.28 87.3613V88.9613V90.5612C61.167 90.5612 75.1419 82.7361 82.6483 70.3505L81.28 69.5212ZM134.558 3.28124V1.68124L132.958 3.28124H134.558ZM153.758 3.28124H155.358L153.758 1.68124V3.28124ZM153.758 87.2812V88.8812L155.358 87.2812H153.758ZM134.558 87.2812H132.958L134.558 88.8812V87.2812ZM134.558 53.9212H136.158L134.558 52.3212V53.9212ZM108.158 53.9212V52.3212L106.558 53.9212H108.158ZM108.158 87.2812V88.8812L109.758 87.2812H108.158ZM88.9581 87.2812H87.3581L88.9581 88.8812V87.2812ZM88.9581 3.28124V1.68124L87.3581 3.28124H88.9581ZM108.158 3.28124H109.758L108.158 1.68124V3.28124ZM108.158 35.4412H106.558L108.158 37.0412V35.4412ZM134.558 35.4412V37.0412L136.158 35.4412H134.558ZM134.558 3.28124V4.88124H153.758V3.28124V1.68124H134.558V3.28124ZM153.758 3.28124H152.158V87.2812H153.758H155.358V3.28124H153.758ZM153.758 87.2812V85.6813H134.558V87.2812V88.8812H153.758V87.2812ZM134.558 87.2812H136.158V53.9212H134.558H132.958V87.2812H134.558ZM134.558 53.9212V52.3212H108.158V53.9212V55.5212H134.558V53.9212ZM108.158 53.9212H106.558V87.2812H108.158H109.758V53.9212H108.158ZM108.158 87.2812V85.6813H88.9581V87.2812V88.8812H108.158V87.2812ZM88.9581 87.2812H90.5581V3.28124H88.9581H87.3581V87.2812H88.9581ZM88.9581 3.28124V4.88124H108.158V3.28124V1.68124H88.9581V3.28124ZM108.158 3.28124H106.558V35.4412H108.158H109.758V3.28124H108.158ZM108.158 35.4412V37.0412H134.558V35.4412V33.8412H108.158V35.4412ZM134.558 35.4412H136.158V3.28124H134.558H132.958V35.4412H134.558ZM186.057 68.8012H184.457L186.057 70.4012V68.8012ZM219.657 68.8012H221.257L219.657 67.2012V68.8012ZM219.657 87.2812V88.8812L221.257 87.2812H219.657ZM166.857 87.2812H165.257L166.857 88.8812V87.2812ZM166.857 3.28124V1.68124L165.257 3.28124H166.857ZM219.057 3.28124H220.657L219.057 1.68124V3.28124ZM219.057 21.7612V23.3612L220.657 21.7612H219.057ZM186.057 21.7612V20.1612L184.457 21.7612H186.057ZM186.057 35.6812H184.457L186.057 37.2812V35.6812ZM216.057 35.6812H217.657L216.057 34.0812V35.6812ZM216.057 53.9212V55.5212L217.657 53.9212H216.057ZM186.057 53.9212V52.3212L184.457 53.9212H186.057ZM186.057 68.8012V70.4012H219.657V68.8012V67.2012H186.057V68.8012ZM219.657 68.8012H218.057V87.2812H219.657H221.257V68.8012H219.657ZM219.657 87.2812V85.6813H166.857V87.2812V88.8812H219.657V87.2812ZM166.857 87.2812H168.457V3.28124H166.857H165.257V87.2812H166.857ZM166.857 3.28124V4.88124H219.057V3.28124V1.68124H166.857V3.28124ZM219.057 3.28124H217.457V21.7612H219.057H220.657V3.28124H219.057ZM219.057 21.7612V20.1612H186.057V21.7612V23.3612H219.057V21.7612ZM186.057 21.7612H184.457V35.6812H186.057H187.657V21.7612H186.057ZM186.057 35.6812V37.2812H216.057V35.6812V34.0812H186.057V35.6812ZM216.057 35.6812H214.457V53.9212H216.057H217.657V35.6812H216.057ZM216.057 53.9212V52.3212H186.057V53.9212V55.5212H216.057V53.9212ZM186.057 53.9212H184.457V68.8012H186.057H187.657V53.9212H186.057ZM248.37 68.8012H246.77L248.37 70.4012V68.8012ZM281.97 68.8012H283.57L281.97 67.2012V68.8012ZM281.97 87.2812V88.8812L283.57 87.2812H281.97ZM229.17 87.2812H227.57L229.17 88.8812V87.2812ZM229.17 3.28124V1.68124L227.57 3.28124H229.17ZM281.37 3.28124H282.97L281.37 1.68124V3.28124ZM281.37 21.7612V23.3612L282.97 21.7612H281.37ZM248.37 21.7612V20.1612L246.77 21.7612H248.37ZM248.37 35.6812H246.77L248.37 37.2812V35.6812ZM278.37 35.6812H279.97L278.37 34.0812V35.6812ZM278.37 53.9212V55.5212L279.97 53.9212H278.37ZM248.37 53.9212V52.3212L246.77 53.9212H248.37ZM248.37 68.8012V70.4012H281.97V68.8012V67.2012H248.37V68.8012ZM281.97 68.8012H280.37V87.2812H281.97H283.57V68.8012H281.97ZM281.97 87.2812V85.6813H229.17V87.2812V88.8812H281.97V87.2812ZM229.17 87.2812H230.77V3.28124H229.17H227.57V87.2812H229.17ZM229.17 3.28124V4.88124H281.37V3.28124V1.68124H229.17V3.28124ZM281.37 3.28124H279.77V21.7612H281.37H282.97V3.28124H281.37ZM281.37 21.7612V20.1612H248.37V21.7612V23.3612H281.37V21.7612ZM248.37 21.7612H246.77V35.6812H248.37H249.97V21.7612H248.37ZM248.37 35.6812V37.2812H278.37V35.6812V34.0812H248.37V35.6812ZM278.37 35.6812H276.77V53.9212H278.37H279.97V35.6812H278.37ZM278.37 53.9212V52.3212H248.37V53.9212V55.5212H278.37V53.9212ZM248.37 53.9212H246.77V68.8012H248.37H249.97V53.9212H248.37ZM335.643 87.2812L334.255 88.0777L335.643 88.8812V87.2812ZM319.802 59.6813L321.19 58.8848L319.802 58.0813V59.6813ZM310.682 59.6813V58.0813L309.082 59.6813H310.682ZM310.682 87.2812V88.8812L312.283 87.2812H310.682ZM291.483 87.2812H289.883L291.483 88.8812V87.2812ZM291.483 3.28124V1.68124L289.883 3.28124H291.483ZM338.402 56.4413L337.68 55.0139L337.018 57.2438L338.402 56.4413ZM356.283 87.2812V88.8812L357.667 86.4787L356.283 87.2812ZM310.682 21.2812V19.6813L309.082 21.2812H310.682ZM310.682 42.8812H309.082L310.682 44.4812V42.8812ZM335.643 87.2812L337.03 86.4848L321.19 58.8848L319.802 59.6813L318.415 60.4777L334.255 88.0777L335.643 87.2812ZM319.802 59.6813V58.0813H310.682V59.6813V61.2812H319.802V59.6813ZM310.682 59.6813H309.082V87.2812H310.682H312.283V59.6813H310.682ZM310.682 87.2812V85.6813H291.483V87.2812V88.8812H310.682V87.2812ZM291.483 87.2812H293.082V3.28124H291.483H289.883V87.2812H291.483ZM291.483 3.28124V4.88124H325.082V3.28124V1.68124H291.483V3.28124ZM325.082 3.28124V4.88124C340.159 4.88124 352.283 17.0049 352.283 32.0812H353.883H355.483C355.483 15.2376 341.926 1.68124 325.082 1.68124V3.28124ZM353.883 32.0812H352.283C352.283 41.7459 346.43 50.5819 337.68 55.0139L338.402 56.4413L339.125 57.8686C348.855 52.9406 355.483 43.0566 355.483 32.0812H353.883ZM338.402 56.4413L337.018 57.2438L354.898 88.0838L356.283 87.2812L357.667 86.4787L339.787 55.6387L338.402 56.4413ZM356.283 87.2812V85.6813H335.643V87.2812V88.8812H356.283V87.2812ZM310.682 21.2812H309.082V42.8812H310.682H312.283V21.2812H310.682ZM310.682 42.8812V44.4812H325.082V42.8812V41.2812H310.682V42.8812ZM325.082 42.8812V44.4812C331.402 44.4812 336.283 38.9208 336.283 32.0812H334.682H333.083C333.083 37.4817 329.323 41.2812 325.082 41.2812V42.8812ZM334.682 32.0812H336.283C336.283 25.2417 331.402 19.6813 325.082 19.6813V21.2812V22.8812C329.323 22.8812 333.083 26.6808 333.083 32.0812H334.682ZM325.082 21.2812V19.6813H310.682V21.2812V22.8812H325.082V21.2812ZM468.751 21.0412L469.553 22.4255L470.113 20.2019L468.751 21.0412ZM452.191 30.6412L450.803 31.4378L452.993 32.0255L452.191 30.6412ZM452.191 59.9212L452.993 58.537L450.792 59.1442L452.191 59.9212ZM468.751 69.5212L470.119 70.3505L469.553 68.137L468.751 69.5212ZM432.751 88.9613V87.3613C408.329 87.3613 390.671 69.1321 390.671 45.2812H389.071H387.471C387.471 70.8704 406.532 90.5612 432.751 90.5612V88.9613ZM389.071 45.2812H390.671C390.671 21.4303 408.329 3.20125 432.751 3.20125V1.60124V0.00124359C406.532 0.00124359 387.471 19.6921 387.471 45.2812H389.071ZM432.751 1.60124V3.20125C447.459 3.20125 460.372 10.4928 467.388 21.8806L468.751 21.0412L470.113 20.2019C462.49 7.82971 448.523 0.00124359 432.751 0.00124359V1.60124ZM468.751 21.0412L467.948 19.657L451.388 29.257L452.191 30.6412L452.993 32.0255L469.553 22.4255L468.751 21.0412ZM452.191 30.6412L453.578 29.8447C449.53 22.7926 441.751 18.7212 432.751 18.7212V20.3212V21.9212C440.79 21.9212 447.411 25.5299 450.803 31.4378L452.191 30.6412ZM432.751 20.3212V18.7212C424.943 18.7212 418.388 21.3425 413.786 26.0587C409.187 30.7707 406.671 37.4361 406.671 45.2812H408.271H409.871C409.871 38.1264 412.154 32.3118 416.076 28.2938C419.993 24.28 425.678 21.9212 432.751 21.9212V20.3212ZM408.271 45.2812H406.671C406.671 53.1264 409.187 59.7918 413.786 64.5038C418.388 69.22 424.943 71.8412 432.751 71.8412V70.2412V68.6413C425.678 68.6413 419.993 66.2825 416.076 62.2687C412.154 58.2507 409.871 52.4361 409.871 45.2812H408.271ZM432.751 70.2412V71.8412C441.736 71.8412 449.655 67.7801 453.589 60.6983L452.191 59.9212L450.792 59.1442C447.526 65.0224 440.806 68.6413 432.751 68.6413V70.2412ZM452.191 59.9212L451.388 61.3055L467.948 70.9055L468.751 69.5212L469.553 68.137L452.993 58.537L452.191 59.9212ZM468.751 69.5212L467.382 68.692C460.489 80.0664 447.584 87.3613 432.751 87.3613V88.9613V90.5612C448.638 90.5612 462.612 82.7361 470.119 70.3505L468.751 69.5212ZM522.029 3.28124V1.68124L520.429 3.28124H522.029ZM541.229 3.28124H542.829L541.229 1.68124V3.28124ZM541.229 87.2812V88.8812L542.829 87.2812H541.229ZM522.029 87.2812H520.429L522.029 88.8812V87.2812ZM522.029 53.9212H523.629L522.029 52.3212V53.9212ZM495.629 53.9212V52.3212L494.029 53.9212H495.629ZM495.629 87.2812V88.8812L497.229 87.2812H495.629ZM476.429 87.2812H474.829L476.429 88.8812V87.2812ZM476.429 3.28124V1.68124L474.829 3.28124H476.429ZM495.629 3.28124H497.229L495.629 1.68124V3.28124ZM495.629 35.4412H494.029L495.629 37.0412V35.4412ZM522.029 35.4412V37.0412L523.629 35.4412H522.029ZM522.029 3.28124V4.88124H541.229V3.28124V1.68124H522.029V3.28124ZM541.229 3.28124H539.629V87.2812H541.229H542.829V3.28124H541.229ZM541.229 87.2812V85.6813H522.029V87.2812V88.8812H541.229V87.2812ZM522.029 87.2812H523.629V53.9212H522.029H520.429V87.2812H522.029ZM522.029 53.9212V52.3212H495.629V53.9212V55.5212H522.029V53.9212ZM495.629 53.9212H494.029V87.2812H495.629H497.229V53.9212H495.629ZM495.629 87.2812V85.6813H476.429V87.2812V88.8812H495.629V87.2812ZM476.429 87.2812H478.029V3.28124H476.429H474.829V87.2812H476.429ZM476.429 3.28124V4.88124H495.629V3.28124V1.68124H476.429V3.28124ZM495.629 3.28124H494.029V35.4412H495.629H497.229V3.28124H495.629ZM495.629 35.4412V37.0412H522.029V35.4412V33.8412H495.629V35.4412ZM522.029 35.4412H523.629V3.28124H522.029H520.429V35.4412H522.029ZM573.528 68.8012H571.927L573.528 70.4012V68.8012ZM607.128 68.8012H608.727L607.128 67.2012V68.8012ZM607.128 87.2812V88.8812L608.727 87.2812H607.128ZM554.328 87.2812H552.727L554.328 88.8812V87.2812ZM554.328 3.28124V1.68124L552.727 3.28124H554.328ZM606.528 3.28124H608.128L606.528 1.68124V3.28124ZM606.528 21.7612V23.3612L608.128 21.7612H606.528ZM573.528 21.7612V20.1612L571.927 21.7612H573.528ZM573.528 35.6812H571.927L573.528 37.2812V35.6812ZM603.528 35.6812H605.128L603.528 34.0812V35.6812ZM603.528 53.9212V55.5212L605.128 53.9212H603.528ZM573.528 53.9212V52.3212L571.927 53.9212H573.528ZM573.528 68.8012V70.4012H607.128V68.8012V67.2012H573.528V68.8012ZM607.128 68.8012H605.528V87.2812H607.128H608.727V68.8012H607.128ZM607.128 87.2812V85.6813H554.328V87.2812V88.8812H607.128V87.2812ZM554.328 87.2812H555.927V3.28124H554.328H552.727V87.2812H554.328ZM554.328 3.28124V4.88124H606.528V3.28124V1.68124H554.328V3.28124ZM606.528 3.28124H604.927V21.7612H606.528H608.128V3.28124H606.528ZM606.528 21.7612V20.1612H573.528V21.7612V23.3612H606.528V21.7612ZM573.528 21.7612H571.927V35.6812H573.528H575.128V21.7612H573.528ZM573.528 35.6812V37.2812H603.528V35.6812V34.0812H573.528V35.6812ZM603.528 35.6812H601.927V53.9212H603.528H605.128V35.6812H603.528ZM603.528 53.9212V52.3212H573.528V53.9212V55.5212H603.528V53.9212ZM573.528 53.9212H571.927V68.8012H573.528H575.128V53.9212H573.528ZM635.84 68.8012H634.24L635.84 70.4012V68.8012ZM669.44 68.8012H671.04L669.44 67.2012V68.8012ZM669.44 87.2812V88.8812L671.04 87.2812H669.44ZM616.64 87.2812H615.04L616.64 88.8812V87.2812ZM616.64 3.28124V1.68124L615.04 3.28124H616.64ZM668.84 3.28124H670.44L668.84 1.68124V3.28124ZM668.84 21.7612V23.3612L670.44 21.7612H668.84ZM635.84 21.7612V20.1612L634.24 21.7612H635.84ZM635.84 35.6812H634.24L635.84 37.2812V35.6812ZM665.84 35.6812H667.44L665.84 34.0812V35.6812ZM665.84 53.9212V55.5212L667.44 53.9212H665.84ZM635.84 53.9212V52.3212L634.24 53.9212H635.84ZM635.84 68.8012V70.4012H669.44V68.8012V67.2012H635.84V68.8012ZM669.44 68.8012H667.84V87.2812H669.44H671.04V68.8012H669.44ZM669.44 87.2812V85.6813H616.64V87.2812V88.8812H669.44V87.2812ZM616.64 87.2812H618.24V3.28124H616.64H615.04V87.2812H616.64ZM616.64 3.28124V4.88124H668.84V3.28124V1.68124H616.64V3.28124ZM668.84 3.28124H667.24V21.7612H668.84H670.44V3.28124H668.84ZM668.84 21.7612V20.1612H635.84V21.7612V23.3612H668.84V21.7612ZM635.84 21.7612H634.24V35.6812H635.84H637.44V21.7612H635.84ZM635.84 35.6812V37.2812H665.84V35.6812V34.0812H635.84V35.6812ZM665.84 35.6812H664.24V53.9212H665.84H667.44V35.6812H665.84ZM665.84 53.9212V52.3212H635.84V53.9212V55.5212H665.84V53.9212ZM635.84 53.9212H634.24V68.8012H635.84H637.44V53.9212H635.84ZM723.113 87.2812L721.725 88.0777L723.113 88.8812V87.2812ZM707.273 59.6813L708.661 58.8848L707.273 58.0813V59.6813ZM698.153 59.6813V58.0813L696.553 59.6813H698.153ZM698.153 87.2812V88.8812L699.753 87.2812H698.153ZM678.953 87.2812H677.353L678.953 88.8812V87.2812ZM678.953 3.28124V1.68124L677.353 3.28124H678.953ZM725.873 56.4413L725.15 55.0139L724.489 57.2438L725.873 56.4413ZM743.753 87.2812V88.8812L745.137 86.4787L743.753 87.2812ZM698.153 21.2812V19.6813L696.553 21.2812H698.153ZM698.153 42.8812H696.553L698.153 44.4812V42.8812ZM723.113 87.2812L724.501 86.4848L708.661 58.8848L707.273 59.6813L705.885 60.4777L721.725 88.0777L723.113 87.2812ZM707.273 59.6813V58.0813H698.153V59.6813V61.2812H707.273V59.6813ZM698.153 59.6813H696.553V87.2812H698.153H699.753V59.6813H698.153ZM698.153 87.2812V85.6813H678.953V87.2812V88.8812H698.153V87.2812ZM678.953 87.2812H680.553V3.28124H678.953H677.353V87.2812H678.953ZM678.953 3.28124V4.88124H712.553V3.28124V1.68124H678.953V3.28124ZM712.553 3.28124V4.88124C727.629 4.88124 739.753 17.0049 739.753 32.0812H741.353H742.953C742.953 15.2376 729.397 1.68124 712.553 1.68124V3.28124ZM741.353 32.0812H739.753C739.753 41.7459 733.9 50.5819 725.15 55.0139L725.873 56.4413L726.596 57.8686C736.326 52.9406 742.953 43.0566 742.953 32.0812H741.353ZM725.873 56.4413L724.489 57.2438L742.369 88.0838L743.753 87.2812L745.137 86.4787L727.257 55.6387L725.873 56.4413ZM743.753 87.2812V85.6813H723.113V87.2812V88.8812H743.753V87.2812ZM698.153 21.2812H696.553V42.8812H698.153H699.753V21.2812H698.153ZM698.153 42.8812V44.4812H712.553V42.8812V41.2812H698.153V42.8812ZM712.553 42.8812V44.4812C718.872 44.4812 723.753 38.9208 723.753 32.0812H722.153H720.553C720.553 37.4817 716.794 41.2812 712.553 41.2812V42.8812ZM722.153 32.0812H723.753C723.753 25.2417 718.872 19.6813 712.553 19.6813V21.2812V22.8812C716.794 22.8812 720.553 26.6808 720.553 32.0812H722.153ZM712.553 21.2812V19.6813H698.153V21.2812V22.8812H712.553V21.2812ZM856.221 21.0412L857.024 22.4255L857.583 20.2019L856.221 21.0412ZM839.661 30.6412L838.274 31.4378L840.464 32.0255L839.661 30.6412ZM839.661 59.9212L840.464 58.537L838.263 59.1442L839.661 59.9212ZM856.221 69.5212L857.59 70.3505L857.024 68.137L856.221 69.5212ZM820.221 88.9613V87.3613C795.799 87.3613 778.141 69.1321 778.141 45.2812H776.541H774.941C774.941 70.8704 794.003 90.5612 820.221 90.5612V88.9613ZM776.541 45.2812H778.141C778.141 21.4303 795.799 3.20125 820.221 3.20125V1.60124V0.00124359C794.003 0.00124359 774.941 19.6921 774.941 45.2812H776.541ZM820.221 1.60124V3.20125C834.929 3.20125 847.842 10.4928 854.859 21.8806L856.221 21.0412L857.583 20.2019C849.96 7.82971 835.993 0.00124359 820.221 0.00124359V1.60124ZM856.221 21.0412L855.419 19.657L838.859 29.257L839.661 30.6412L840.464 32.0255L857.024 22.4255L856.221 21.0412ZM839.661 30.6412L841.049 29.8447C837 22.7926 829.222 18.7212 820.221 18.7212V20.3212V21.9212C828.26 21.9212 834.882 25.5299 838.274 31.4378L839.661 30.6412ZM820.221 20.3212V18.7212C812.414 18.7212 805.859 21.3425 801.256 26.0587C796.658 30.7707 794.141 37.4361 794.141 45.2812H795.741H797.341C797.341 38.1264 799.625 32.3118 803.546 28.2938C807.464 24.28 813.149 21.9212 820.221 21.9212V20.3212ZM795.741 45.2812H794.141C794.141 53.1264 796.658 59.7918 801.256 64.5038C805.859 69.22 812.414 71.8412 820.221 71.8412V70.2412V68.6413C813.149 68.6413 807.464 66.2825 803.546 62.2687C799.625 58.2507 797.341 52.4361 797.341 45.2812H795.741ZM820.221 70.2412V71.8412C829.206 71.8412 837.125 67.7801 841.06 60.6983L839.661 59.9212L838.263 59.1442C834.997 65.0224 828.276 68.6413 820.221 68.6413V70.2412ZM839.661 59.9212L838.859 61.3055L855.419 70.9055L856.221 69.5212L857.024 68.137L840.464 58.537L839.661 59.9212ZM856.221 69.5212L854.853 68.692C847.959 80.0664 835.054 87.3613 820.221 87.3613V88.9613V90.5612C836.108 90.5612 850.083 82.7361 857.59 70.3505L856.221 69.5212ZM909.499 3.28124V1.68124L907.899 3.28124H909.499ZM928.699 3.28124H930.299L928.699 1.68124V3.28124ZM928.699 87.2812V88.8812L930.299 87.2812H928.699ZM909.499 87.2812H907.899L909.499 88.8812V87.2812ZM909.499 53.9212H911.099L909.499 52.3212V53.9212ZM883.099 53.9212V52.3212L881.499 53.9212H883.099ZM883.099 87.2812V88.8812L884.699 87.2812H883.099ZM863.899 87.2812H862.299L863.899 88.8812V87.2812ZM863.899 3.28124V1.68124L862.299 3.28124H863.899ZM883.099 3.28124H884.699L883.099 1.68124V3.28124ZM883.099 35.4412H881.499L883.099 37.0412V35.4412ZM909.499 35.4412V37.0412L911.099 35.4412H909.499ZM909.499 3.28124V4.88124H928.699V3.28124V1.68124H909.499V3.28124ZM928.699 3.28124H927.099V87.2812H928.699H930.299V3.28124H928.699ZM928.699 87.2812V85.6813H909.499V87.2812V88.8812H928.699V87.2812ZM909.499 87.2812H911.099V53.9212H909.499H907.899V87.2812H909.499ZM909.499 53.9212V52.3212H883.099V53.9212V55.5212H909.499V53.9212ZM883.099 53.9212H881.499V87.2812H883.099H884.699V53.9212H883.099ZM883.099 87.2812V85.6813H863.899V87.2812V88.8812H883.099V87.2812ZM863.899 87.2812H865.499V3.28124H863.899H862.299V87.2812H863.899ZM863.899 3.28124V4.88124H883.099V3.28124V1.68124H863.899V3.28124ZM883.099 3.28124H881.499V35.4412H883.099H884.699V3.28124H883.099ZM883.099 35.4412V37.0412H909.499V35.4412V33.8412H883.099V35.4412ZM909.499 35.4412H911.099V3.28124H909.499H907.899V35.4412H909.499ZM960.998 68.8012H959.398L960.998 70.4012V68.8012ZM994.598 68.8012H996.198L994.598 67.2012V68.8012ZM994.598 87.2812V88.8812L996.198 87.2812H994.598ZM941.798 87.2812H940.198L941.798 88.8812V87.2812ZM941.798 3.28124V1.68124L940.198 3.28124H941.798ZM993.998 3.28124H995.598L993.998 1.68124V3.28124ZM993.998 21.7612V23.3612L995.598 21.7612H993.998ZM960.998 21.7612V20.1612L959.398 21.7612H960.998ZM960.998 35.6812H959.398L960.998 37.2812V35.6812ZM990.998 35.6812H992.598L990.998 34.0812V35.6812ZM990.998 53.9212V55.5212L992.598 53.9212H990.998ZM960.998 53.9212V52.3212L959.398 53.9212H960.998ZM960.998 68.8012V70.4012H994.598V68.8012V67.2012H960.998V68.8012ZM994.598 68.8012H992.998V87.2812H994.598H996.198V68.8012H994.598ZM994.598 87.2812V85.6813H941.798V87.2812V88.8812H994.598V87.2812ZM941.798 87.2812H943.398V3.28124H941.798H940.198V87.2812H941.798ZM941.798 3.28124V4.88124H993.998V3.28124V1.68124H941.798V3.28124ZM993.998 3.28124H992.398V21.7612H993.998H995.598V3.28124H993.998ZM993.998 21.7612V20.1612H960.998V21.7612V23.3612H993.998V21.7612ZM960.998 21.7612H959.398V35.6812H960.998H962.598V21.7612H960.998ZM960.998 35.6812V37.2812H990.998V35.6812V34.0812H960.998V35.6812ZM990.998 35.6812H989.398V53.9212H990.998H992.598V35.6812H990.998ZM990.998 53.9212V52.3212H960.998V53.9212V55.5212H990.998V53.9212ZM960.998 53.9212H959.398V68.8012H960.998H962.598V53.9212H960.998ZM1023.31 68.8012H1021.71L1023.31 70.4012V68.8012ZM1056.91 68.8012H1058.51L1056.91 67.2012V68.8012ZM1056.91 87.2812V88.8812L1058.51 87.2812H1056.91ZM1004.11 87.2812H1002.51L1004.11 88.8812V87.2812ZM1004.11 3.28124V1.68124L1002.51 3.28124H1004.11ZM1056.31 3.28124H1057.91L1056.31 1.68124V3.28124ZM1056.31 21.7612V23.3612L1057.91 21.7612H1056.31ZM1023.31 21.7612V20.1612L1021.71 21.7612H1023.31ZM1023.31 35.6812H1021.71L1023.31 37.2812V35.6812ZM1053.31 35.6812H1054.91L1053.31 34.0812V35.6812ZM1053.31 53.9212V55.5212L1054.91 53.9212H1053.31ZM1023.31 53.9212V52.3212L1021.71 53.9212H1023.31ZM1023.31 68.8012V70.4012H1056.91V68.8012V67.2012H1023.31V68.8012ZM1056.91 68.8012H1055.31V87.2812H1056.91H1058.51V68.8012H1056.91ZM1056.91 87.2812V85.6813H1004.11V87.2812V88.8812H1056.91V87.2812ZM1004.11 87.2812H1005.71V3.28124H1004.11H1002.51V87.2812H1004.11ZM1004.11 3.28124V4.88124H1056.31V3.28124V1.68124H1004.11V3.28124ZM1056.31 3.28124H1054.71V21.7612H1056.31H1057.91V3.28124H1056.31ZM1056.31 21.7612V20.1612H1023.31V21.7612V23.3612H1056.31V21.7612ZM1023.31 21.7612H1021.71V35.6812H1023.31H1024.91V21.7612H1023.31ZM1023.31 35.6812V37.2812H1053.31V35.6812V34.0812H1023.31V35.6812ZM1053.31 35.6812H1051.71V53.9212H1053.31H1054.91V35.6812H1053.31ZM1053.31 53.9212V52.3212H1023.31V53.9212V55.5212H1053.31V53.9212ZM1023.31 53.9212H1021.71V68.8012H1023.31H1024.91V53.9212H1023.31ZM1110.58 87.2812L1109.2 88.0777L1110.58 88.8812V87.2812ZM1094.74 59.6813L1096.13 58.8848L1094.74 58.0813V59.6813ZM1085.62 59.6813V58.0813L1084.02 59.6813H1085.62ZM1085.62 87.2812V88.8812L1087.22 87.2812H1085.62ZM1066.42 87.2812H1064.82L1066.42 88.8812V87.2812ZM1066.42 3.28124V1.68124L1064.82 3.28124H1066.42ZM1113.34 56.4413L1112.62 55.0139L1111.96 57.2438L1113.34 56.4413ZM1131.22 87.2812V88.8812L1132.61 86.4787L1131.22 87.2812ZM1085.62 21.2812V19.6813L1084.02 21.2812H1085.62ZM1085.62 42.8812H1084.02L1085.62 44.4812V42.8812ZM1110.58 87.2812L1111.97 86.4848L1096.13 58.8848L1094.74 59.6813L1093.36 60.4777L1109.2 88.0777L1110.58 87.2812ZM1094.74 59.6813V58.0813H1085.62V59.6813V61.2812H1094.74V59.6813ZM1085.62 59.6813H1084.02V87.2812H1085.62H1087.22V59.6813H1085.62ZM1085.62 87.2812V85.6813H1066.42V87.2812V88.8812H1085.62V87.2812ZM1066.42 87.2812H1068.02V3.28124H1066.42H1064.82V87.2812H1066.42ZM1066.42 3.28124V4.88124H1100.02V3.28124V1.68124H1066.42V3.28124ZM1100.02 3.28124V4.88124C1115.1 4.88124 1127.22 17.0049 1127.22 32.0812H1128.82H1130.42C1130.42 15.2376 1116.87 1.68124 1100.02 1.68124V3.28124ZM1128.82 32.0812H1127.22C1127.22 41.7459 1121.37 50.5819 1112.62 55.0139L1113.34 56.4413L1114.07 57.8686C1123.8 52.9406 1130.42 43.0566 1130.42 32.0812H1128.82ZM1113.34 56.4413L1111.96 57.2438L1129.84 88.0838L1131.22 87.2812L1132.61 86.4787L1114.73 55.6387L1113.34 56.4413ZM1131.22 87.2812V85.6813H1110.58V87.2812V88.8812H1131.22V87.2812ZM1085.62 21.2812H1084.02V42.8812H1085.62H1087.22V21.2812H1085.62ZM1085.62 42.8812V44.4812H1100.02V42.8812V41.2812H1085.62V42.8812ZM1100.02 42.8812V44.4812C1106.34 44.4812 1111.22 38.9208 1111.22 32.0812H1109.62H1108.02C1108.02 37.4817 1104.26 41.2812 1100.02 41.2812V42.8812ZM1109.62 32.0812H1111.22C1111.22 25.2417 1106.34 19.6813 1100.02 19.6813V21.2812V22.8812C1104.26 22.8812 1108.02 26.6808 1108.02 32.0812H1109.62ZM1100.02 21.2812V19.6813H1085.62V21.2812V22.8812H1100.02V21.2812ZM1243.69 21.0412L1244.49 22.4255L1245.05 20.2019L1243.69 21.0412ZM1227.13 30.6412L1225.74 31.4378L1227.93 32.0255L1227.13 30.6412ZM1227.13 59.9212L1227.93 58.537L1225.73 59.1442L1227.13 59.9212ZM1243.69 69.5212L1245.06 70.3505L1244.49 68.137L1243.69 69.5212ZM1207.69 88.9613V87.3613C1183.27 87.3613 1165.61 69.1321 1165.61 45.2812H1164.01H1162.41C1162.41 70.8704 1181.47 90.5612 1207.69 90.5612V88.9613ZM1164.01 45.2812H1165.61C1165.61 21.4303 1183.27 3.20125 1207.69 3.20125V1.60124V0.00124359C1181.47 0.00124359 1162.41 19.6921 1162.41 45.2812H1164.01ZM1207.69 1.60124V3.20125C1222.4 3.20125 1235.31 10.4928 1242.33 21.8806L1243.69 21.0412L1245.05 20.2019C1237.43 7.82971 1223.46 0.00124359 1207.69 0.00124359V1.60124ZM1243.69 21.0412L1242.89 19.657L1226.33 29.257L1227.13 30.6412L1227.93 32.0255L1244.49 22.4255L1243.69 21.0412ZM1227.13 30.6412L1228.52 29.8447C1224.47 22.7926 1216.69 18.7212 1207.69 18.7212V20.3212V21.9212C1215.73 21.9212 1222.35 25.5299 1225.74 31.4378L1227.13 30.6412ZM1207.69 20.3212V18.7212C1199.88 18.7212 1193.33 21.3425 1188.73 26.0587C1184.13 30.7707 1181.61 37.4361 1181.61 45.2812H1183.21H1184.81C1184.81 38.1264 1187.1 32.3118 1191.02 28.2938C1194.93 24.28 1200.62 21.9212 1207.69 21.9212V20.3212ZM1183.21 45.2812H1181.61C1181.61 53.1264 1184.13 59.7918 1188.73 64.5038C1193.33 69.22 1199.88 71.8412 1207.69 71.8412V70.2412V68.6413C1200.62 68.6413 1194.93 66.2825 1191.02 62.2687C1187.1 58.2507 1184.81 52.4361 1184.81 45.2812H1183.21ZM1207.69 70.2412V71.8412C1216.68 71.8412 1224.6 67.7801 1228.53 60.6983L1227.13 59.9212L1225.73 59.1442C1222.47 65.0224 1215.75 68.6413 1207.69 68.6413V70.2412ZM1227.13 59.9212L1226.33 61.3055L1242.89 70.9055L1243.69 69.5212L1244.49 68.137L1227.93 58.537L1227.13 59.9212ZM1243.69 69.5212L1242.32 68.692C1235.43 80.0664 1222.52 87.3613 1207.69 87.3613V88.9613V90.5612C1223.58 90.5612 1237.55 82.7361 1245.06 70.3505L1243.69 69.5212ZM1296.97 3.28124V1.68124L1295.37 3.28124H1296.97ZM1316.17 3.28124H1317.77L1316.17 1.68124V3.28124ZM1316.17 87.2812V88.8812L1317.77 87.2812H1316.17ZM1296.97 87.2812H1295.37L1296.97 88.8812V87.2812ZM1296.97 53.9212H1298.57L1296.97 52.3212V53.9212ZM1270.57 53.9212V52.3212L1268.97 53.9212H1270.57ZM1270.57 87.2812V88.8812L1272.17 87.2812H1270.57ZM1251.37 87.2812H1249.77L1251.37 88.8812V87.2812ZM1251.37 3.28124V1.68124L1249.77 3.28124H1251.37ZM1270.57 3.28124H1272.17L1270.57 1.68124V3.28124ZM1270.57 35.4412H1268.97L1270.57 37.0412V35.4412ZM1296.97 35.4412V37.0412L1298.57 35.4412H1296.97ZM1296.97 3.28124V4.88124H1316.17V3.28124V1.68124H1296.97V3.28124ZM1316.17 3.28124H1314.57V87.2812H1316.17H1317.77V3.28124H1316.17ZM1316.17 87.2812V85.6813H1296.97V87.2812V88.8812H1316.17V87.2812ZM1296.97 87.2812H1298.57V53.9212H1296.97H1295.37V87.2812H1296.97ZM1296.97 53.9212V52.3212H1270.57V53.9212V55.5212H1296.97V53.9212ZM1270.57 53.9212H1268.97V87.2812H1270.57H1272.17V53.9212H1270.57ZM1270.57 87.2812V85.6813H1251.37V87.2812V88.8812H1270.57V87.2812ZM1251.37 87.2812H1252.97V3.28124H1251.37H1249.77V87.2812H1251.37ZM1251.37 3.28124V4.88124H1270.57V3.28124V1.68124H1251.37V3.28124ZM1270.57 3.28124H1268.97V35.4412H1270.57H1272.17V3.28124H1270.57ZM1270.57 35.4412V37.0412H1296.97V35.4412V33.8412H1270.57V35.4412ZM1296.97 35.4412H1298.57V3.28124H1296.97H1295.37V35.4412H1296.97ZM1348.47 68.8012H1346.87L1348.47 70.4012V68.8012ZM1382.07 68.8012H1383.67L1382.07 67.2012V68.8012ZM1382.07 87.2812V88.8812L1383.67 87.2812H1382.07ZM1329.27 87.2812H1327.67L1329.27 88.8812V87.2812ZM1329.27 3.28124V1.68124L1327.67 3.28124H1329.27ZM1381.47 3.28124H1383.07L1381.47 1.68124V3.28124ZM1381.47 21.7612V23.3612L1383.07 21.7612H1381.47ZM1348.47 21.7612V20.1612L1346.87 21.7612H1348.47ZM1348.47 35.6812H1346.87L1348.47 37.2812V35.6812ZM1378.47 35.6812H1380.07L1378.47 34.0812V35.6812ZM1378.47 53.9212V55.5212L1380.07 53.9212H1378.47ZM1348.47 53.9212V52.3212L1346.87 53.9212H1348.47ZM1348.47 68.8012V70.4012H1382.07V68.8012V67.2012H1348.47V68.8012ZM1382.07 68.8012H1380.47V87.2812H1382.07H1383.67V68.8012H1382.07ZM1382.07 87.2812V85.6813H1329.27V87.2812V88.8812H1382.07V87.2812ZM1329.27 87.2812H1330.87V3.28124H1329.27H1327.67V87.2812H1329.27ZM1329.27 3.28124V4.88124H1381.47V3.28124V1.68124H1329.27V3.28124ZM1381.47 3.28124H1379.87V21.7612H1381.47H1383.07V3.28124H1381.47ZM1381.47 21.7612V20.1612H1348.47V21.7612V23.3612H1381.47V21.7612ZM1348.47 21.7612H1346.87V35.6812H1348.47H1350.07V21.7612H1348.47ZM1348.47 35.6812V37.2812H1378.47V35.6812V34.0812H1348.47V35.6812ZM1378.47 35.6812H1376.87V53.9212H1378.47H1380.07V35.6812H1378.47ZM1378.47 53.9212V52.3212H1348.47V53.9212V55.5212H1378.47V53.9212ZM1348.47 53.9212H1346.87V68.8012H1348.47H1350.07V53.9212H1348.47ZM1410.78 68.8012H1409.18L1410.78 70.4012V68.8012ZM1444.38 68.8012H1445.98L1444.38 67.2012V68.8012ZM1444.38 87.2812V88.8812L1445.98 87.2812H1444.38ZM1391.58 87.2812H1389.98L1391.58 88.8812V87.2812ZM1391.58 3.28124V1.68124L1389.98 3.28124H1391.58ZM1443.78 3.28124H1445.38L1443.78 1.68124V3.28124ZM1443.78 21.7612V23.3612L1445.38 21.7612H1443.78ZM1410.78 21.7612V20.1612L1409.18 21.7612H1410.78ZM1410.78 35.6812H1409.18L1410.78 37.2812V35.6812ZM1440.78 35.6812H1442.38L1440.78 34.0812V35.6812ZM1440.78 53.9212V55.5212L1442.38 53.9212H1440.78ZM1410.78 53.9212V52.3212L1409.18 53.9212H1410.78ZM1410.78 68.8012V70.4012H1444.38V68.8012V67.2012H1410.78V68.8012ZM1444.38 68.8012H1442.78V87.2812H1444.38H1445.98V68.8012H1444.38ZM1444.38 87.2812V85.6813H1391.58V87.2812V88.8812H1444.38V87.2812ZM1391.58 87.2812H1393.18V3.28124H1391.58H1389.98V87.2812H1391.58ZM1391.58 3.28124V4.88124H1443.78V3.28124V1.68124H1391.58V3.28124ZM1443.78 3.28124H1442.18V21.7612H1443.78H1445.38V3.28124H1443.78ZM1443.78 21.7612V20.1612H1410.78V21.7612V23.3612H1443.78V21.7612ZM1410.78 21.7612H1409.18V35.6812H1410.78H1412.38V21.7612H1410.78ZM1410.78 35.6812V37.2812H1440.78V35.6812V34.0812H1410.78V35.6812ZM1440.78 35.6812H1439.18V53.9212H1440.78H1442.38V35.6812H1440.78ZM1440.78 53.9212V52.3212H1410.78V53.9212V55.5212H1440.78V53.9212ZM1410.78 53.9212H1409.18V68.8012H1410.78H1412.38V53.9212H1410.78ZM1498.05 87.2812L1496.67 88.0777L1498.05 88.8812V87.2812ZM1482.21 59.6813L1483.6 58.8848L1482.21 58.0813V59.6813ZM1473.09 59.6813V58.0813L1471.49 59.6813H1473.09ZM1473.09 87.2812V88.8812L1474.69 87.2812H1473.09ZM1453.89 87.2812H1452.29L1453.89 88.8812V87.2812ZM1453.89 3.28124V1.68124L1452.29 3.28124H1453.89ZM1500.81 56.4413L1500.09 55.0139L1499.43 57.2438L1500.81 56.4413ZM1518.69 87.2812V88.8812L1520.08 86.4787L1518.69 87.2812ZM1473.09 21.2812V19.6813L1471.49 21.2812H1473.09ZM1473.09 42.8812H1471.49L1473.09 44.4812V42.8812ZM1498.05 87.2812L1499.44 86.4848L1483.6 58.8848L1482.21 59.6813L1480.83 60.4777L1496.67 88.0777L1498.05 87.2812ZM1482.21 59.6813V58.0813H1473.09V59.6813V61.2812H1482.21V59.6813ZM1473.09 59.6813H1471.49V87.2812H1473.09H1474.69V59.6813H1473.09ZM1473.09 87.2812V85.6813H1453.89V87.2812V88.8812H1473.09V87.2812ZM1453.89 87.2812H1455.49V3.28124H1453.89H1452.29V87.2812H1453.89ZM1453.89 3.28124V4.88124H1487.49V3.28124V1.68124H1453.89V3.28124ZM1487.49 3.28124V4.88124C1502.57 4.88124 1514.69 17.0049 1514.69 32.0812H1516.29H1517.89C1517.89 15.2376 1504.34 1.68124 1487.49 1.68124V3.28124ZM1516.29 32.0812H1514.69C1514.69 41.7459 1508.84 50.5819 1500.09 55.0139L1500.81 56.4413L1501.54 57.8686C1511.27 52.9406 1517.89 43.0566 1517.89 32.0812H1516.29ZM1500.81 56.4413L1499.43 57.2438L1517.31 88.0838L1518.69 87.2812L1520.08 86.4787L1502.2 55.6387L1500.81 56.4413ZM1518.69 87.2812V85.6813H1498.05V87.2812V88.8812H1518.69V87.2812ZM1473.09 21.2812H1471.49V42.8812H1473.09H1474.69V21.2812H1473.09ZM1473.09 42.8812V44.4812H1487.49V42.8812V41.2812H1473.09V42.8812ZM1487.49 42.8812V44.4812C1493.81 44.4812 1498.69 38.9208 1498.69 32.0812H1497.09H1495.49C1495.49 37.4817 1491.74 41.2812 1487.49 41.2812V42.8812ZM1497.09 32.0812H1498.69C1498.69 25.2417 1493.81 19.6813 1487.49 19.6813V21.2812V22.8812C1491.74 22.8812 1495.49 26.6808 1495.49 32.0812H1497.09ZM1487.49 21.2812V19.6813H1473.09V21.2812V22.8812H1487.49V21.2812Z" fill="white" mask="url(#path-1-outside-1_1712_628)"/>
</svg>
