<svg width="2142" height="150" viewBox="0 0 2142 150" fill="none" xmlns="http://www.w3.org/2000/svg">
<mask id="path-1-outside-1_1710_607" maskUnits="userSpaceOnUse" x="0" y="-0.199219" width="2142" height="150" fill="black">
<rect fill="white" y="-0.199219" width="2142" height="150"/>
<path d="M74.8 147.601C32.6 147.601 2 116.001 2 74.8008C2 33.6008 32.6 2.00077 74.8 2.00077C100.2 2.00077 122.6 14.6008 134.8 34.4008L107.2 50.4008C101 39.6008 89 33.2008 74.8 33.2008C50 33.2008 34 49.8008 34 74.8008C34 99.8008 50 116.401 74.8 116.401C89 116.401 101.2 110.001 107.2 99.2008L134.8 115.201C122.8 135.001 100.4 147.601 74.8 147.601ZM212.444 147.601C172.244 147.601 139.644 116.001 139.644 74.8008C139.644 33.6008 172.244 2.00077 212.444 2.00077C252.644 2.00077 285.244 33.6008 285.244 74.8008C285.244 116.001 252.644 147.601 212.444 147.601ZM212.444 116.401C235.244 116.401 253.244 99.8008 253.244 74.8008C253.244 49.8008 235.244 33.2008 212.444 33.2008C189.644 33.2008 171.644 49.8008 171.644 74.8008C171.644 99.8008 189.644 116.401 212.444 116.401ZM384.983 144.801L377.983 122.801H325.983L318.983 144.801H283.983L331.583 4.80077H372.383L419.983 144.801H384.983ZM335.583 92.8008H368.383L351.983 41.4008L335.583 92.8008ZM491.442 147.601C449.242 147.601 418.642 116.001 418.642 74.8008C418.642 33.6008 449.242 2.00077 491.442 2.00077C516.842 2.00077 539.242 14.6008 551.442 34.4008L523.842 50.4008C517.642 39.6008 505.642 33.2008 491.442 33.2008C466.642 33.2008 450.642 49.8008 450.642 74.8008C450.642 99.8008 466.642 116.401 491.442 116.401C505.642 116.401 517.842 110.001 523.842 99.2008L551.442 115.201C539.442 135.001 517.042 147.601 491.442 147.601ZM640.239 4.80077H672.239V144.801H640.239V89.2008H596.239V144.801H564.239V4.80077H596.239V58.4008H640.239V4.80077ZM808.67 147.601C766.47 147.601 735.87 116.001 735.87 74.8008C735.87 33.6008 766.47 2.00077 808.67 2.00077C834.07 2.00077 856.47 14.6008 868.67 34.4008L841.07 50.4008C834.87 39.6008 822.87 33.2008 808.67 33.2008C783.87 33.2008 767.87 49.8008 767.87 74.8008C767.87 99.8008 783.87 116.401 808.67 116.401C822.87 116.401 835.07 110.001 841.07 99.2008L868.67 115.201C856.67 135.001 834.27 147.601 808.67 147.601ZM946.314 147.601C906.114 147.601 873.514 116.001 873.514 74.8008C873.514 33.6008 906.114 2.00077 946.314 2.00077C986.514 2.00077 1019.11 33.6008 1019.11 74.8008C1019.11 116.001 986.514 147.601 946.314 147.601ZM946.314 116.401C969.114 116.401 987.114 99.8008 987.114 74.8008C987.114 49.8008 969.114 33.2008 946.314 33.2008C923.514 33.2008 905.514 49.8008 905.514 74.8008C905.514 99.8008 923.514 116.401 946.314 116.401ZM1118.85 144.801L1111.85 122.801H1059.85L1052.85 144.801H1017.85L1065.45 4.80077H1106.25L1153.85 144.801H1118.85ZM1069.45 92.8008H1102.25L1085.85 41.4008L1069.45 92.8008ZM1225.31 147.601C1183.11 147.601 1152.51 116.001 1152.51 74.8008C1152.51 33.6008 1183.11 2.00077 1225.31 2.00077C1250.71 2.00077 1273.11 14.6008 1285.31 34.4008L1257.71 50.4008C1251.51 39.6008 1239.51 33.2008 1225.31 33.2008C1200.51 33.2008 1184.51 49.8008 1184.51 74.8008C1184.51 99.8008 1200.51 116.401 1225.31 116.401C1239.51 116.401 1251.71 110.001 1257.71 99.2008L1285.31 115.201C1273.31 135.001 1250.91 147.601 1225.31 147.601ZM1374.11 4.80077H1406.11V144.801H1374.11V89.2008H1330.11V144.801H1298.11V4.80077H1330.11V58.4008H1374.11V4.80077ZM1542.54 147.601C1500.34 147.601 1469.74 116.001 1469.74 74.8008C1469.74 33.6008 1500.34 2.00077 1542.54 2.00077C1567.94 2.00077 1590.34 14.6008 1602.54 34.4008L1574.94 50.4008C1568.74 39.6008 1556.74 33.2008 1542.54 33.2008C1517.74 33.2008 1501.74 49.8008 1501.74 74.8008C1501.74 99.8008 1517.74 116.401 1542.54 116.401C1556.74 116.401 1568.94 110.001 1574.94 99.2008L1602.54 115.201C1590.54 135.001 1568.14 147.601 1542.54 147.601ZM1680.18 147.601C1639.98 147.601 1607.38 116.001 1607.38 74.8008C1607.38 33.6008 1639.98 2.00077 1680.18 2.00077C1720.38 2.00077 1752.98 33.6008 1752.98 74.8008C1752.98 116.001 1720.38 147.601 1680.18 147.601ZM1680.18 116.401C1702.98 116.401 1720.98 99.8008 1720.98 74.8008C1720.98 49.8008 1702.98 33.2008 1680.18 33.2008C1657.38 33.2008 1639.38 49.8008 1639.38 74.8008C1639.38 99.8008 1657.38 116.401 1680.18 116.401ZM1852.72 144.801L1845.72 122.801H1793.72L1786.72 144.801H1751.72L1799.32 4.80077H1840.12L1887.72 144.801H1852.72ZM1803.32 92.8008H1836.12L1819.72 41.4008L1803.32 92.8008ZM1959.18 147.601C1916.98 147.601 1886.38 116.001 1886.38 74.8008C1886.38 33.6008 1916.98 2.00077 1959.18 2.00077C1984.58 2.00077 2006.98 14.6008 2019.18 34.4008L1991.58 50.4008C1985.38 39.6008 1973.38 33.2008 1959.18 33.2008C1934.38 33.2008 1918.38 49.8008 1918.38 74.8008C1918.38 99.8008 1934.38 116.401 1959.18 116.401C1973.38 116.401 1985.58 110.001 1991.58 99.2008L2019.18 115.201C2007.18 135.001 1984.78 147.601 1959.18 147.601ZM2107.98 4.80077H2139.98V144.801H2107.98V89.2008H2063.98V144.801H2031.98V4.80077H2063.98V58.4008H2107.98V4.80077Z"/>
</mask>
<path d="M134.8 34.4008L135.803 36.1311L136.503 33.3516L134.8 34.4008ZM107.2 50.4008L105.466 51.3965L108.203 52.1311L107.2 50.4008ZM107.2 99.2008L108.203 97.4705L105.452 98.2295L107.2 99.2008ZM134.8 115.201L136.51 116.237L135.803 113.471L134.8 115.201ZM74.8 147.601V145.601C33.7227 145.601 4 114.914 4 74.8008H2H0C0 117.087 31.4773 149.601 74.8 149.601V147.601ZM2 74.8008H4C4 34.6871 33.7227 4.00078 74.8 4.00078V2.00078V0.000778198C31.4773 0.000778198 0 32.5144 0 74.8008H2ZM74.8 2.00078V4.00078C99.5349 4.00078 121.276 16.2652 133.097 35.4499L134.8 34.4008L136.503 33.3516C123.924 12.9364 100.865 0.000778198 74.8 0.000778198V2.00078ZM134.8 34.4008L133.797 32.6705L106.197 48.6705L107.2 50.4008L108.203 52.1311L135.803 36.1311L134.8 34.4008ZM107.2 50.4008L108.935 49.405C102.324 37.89 89.601 31.2008 74.8 31.2008V33.2008V35.2008C88.399 35.2008 99.676 41.3116 105.466 51.3965L107.2 50.4008ZM74.8 33.2008V31.2008C61.9406 31.2008 51.1972 35.5148 43.6687 43.2289C36.1454 50.9376 32 61.8694 32 74.8008H34H36C36 62.7322 39.8547 52.8639 46.5313 46.0227C53.2028 39.1867 62.8594 35.2008 74.8 35.2008V33.2008ZM34 74.8008H32C32 87.7322 36.1454 98.6639 43.6687 106.373C51.1972 114.087 61.9406 118.401 74.8 118.401V116.401V114.401C62.8594 114.401 53.2028 110.415 46.5313 103.579C39.8547 96.7376 36 86.8694 36 74.8008H34ZM74.8 116.401V118.401C89.5813 118.401 102.53 111.724 108.948 100.172L107.2 99.2008L105.452 98.2295C99.8697 108.277 88.4187 114.401 74.8 114.401V116.401ZM107.2 99.2008L106.197 100.931L133.797 116.931L134.8 115.201L135.803 113.471L108.203 97.4705L107.2 99.2008ZM134.8 115.201L133.09 114.164C121.473 133.332 99.7412 145.601 74.8 145.601V147.601V149.601C101.059 149.601 124.127 136.669 136.51 116.237L134.8 115.201ZM212.444 147.601V145.601C173.33 145.601 141.644 114.878 141.644 74.8008H139.644H137.644C137.644 117.123 171.157 149.601 212.444 149.601V147.601ZM139.644 74.8008H141.644C141.644 34.7233 173.33 4.00078 212.444 4.00078V2.00078V0.000778198C171.157 0.000778198 137.644 32.4783 137.644 74.8008H139.644ZM212.444 2.00078V4.00078C251.557 4.00078 283.244 34.7233 283.244 74.8008H285.244H287.244C287.244 32.4783 253.73 0.000778198 212.444 0.000778198V2.00078ZM285.244 74.8008H283.244C283.244 114.878 251.557 145.601 212.444 145.601V147.601V149.601C253.73 149.601 287.244 117.123 287.244 74.8008H285.244ZM212.444 116.401V118.401C236.329 118.401 255.244 100.925 255.244 74.8008H253.244H251.244C251.244 98.6769 234.159 114.401 212.444 114.401V116.401ZM253.244 74.8008H255.244C255.244 48.6769 236.329 31.2008 212.444 31.2008V33.2008V35.2008C234.159 35.2008 251.244 50.9246 251.244 74.8008H253.244ZM212.444 33.2008V31.2008C188.559 31.2008 169.644 48.6769 169.644 74.8008H171.644H173.644C173.644 50.9246 190.729 35.2008 212.444 35.2008V33.2008ZM171.644 74.8008H169.644C169.644 100.925 188.559 118.401 212.444 118.401V116.401V114.401C190.729 114.401 173.644 98.6769 173.644 74.8008H171.644ZM384.983 144.801L383.077 145.407L384.983 146.801V144.801ZM377.983 122.801L379.889 122.194L377.983 120.801V122.801ZM325.983 122.801V120.801L324.077 122.194L325.983 122.801ZM318.983 144.801V146.801L320.889 145.407L318.983 144.801ZM283.983 144.801L282.089 144.157L283.983 146.801V144.801ZM331.583 4.80077V2.80077L329.689 4.15697L331.583 4.80077ZM372.383 4.80077L374.276 4.15697L372.383 2.80077V4.80077ZM419.983 144.801V146.801L421.876 144.157L419.983 144.801ZM335.583 92.8008L333.677 92.1928L335.583 94.8008V92.8008ZM368.383 92.8008V94.8008L370.288 92.1928L368.383 92.8008ZM351.983 41.4008L353.888 40.7928H350.077L351.983 41.4008ZM384.983 144.801L386.889 144.194L379.889 122.194L377.983 122.801L376.077 123.407L383.077 145.407L384.983 144.801ZM377.983 122.801V120.801H325.983V122.801V124.801H377.983V122.801ZM325.983 122.801L324.077 122.194L317.077 144.194L318.983 144.801L320.889 145.407L327.889 123.407L325.983 122.801ZM318.983 144.801V142.801H283.983V144.801V146.801H318.983V144.801ZM283.983 144.801L285.876 145.445L333.476 5.44458L331.583 4.80077L329.689 4.15697L282.089 144.157L283.983 144.801ZM331.583 4.80077V6.80077H372.383V4.80077V2.80077H331.583V4.80077ZM372.383 4.80077L370.489 5.44458L418.089 145.445L419.983 144.801L421.876 144.157L374.276 4.15697L372.383 4.80077ZM419.983 144.801V142.801H384.983V144.801V146.801H419.983V144.801ZM335.583 92.8008V94.8008H368.383V92.8008V90.8008H335.583V92.8008ZM368.383 92.8008L370.288 92.1928L353.888 40.7928L351.983 41.4008L350.077 42.0087L366.477 93.4087L368.383 92.8008ZM351.983 41.4008L350.077 40.7928L333.677 92.1928L335.583 92.8008L337.488 93.4087L353.888 42.0087L351.983 41.4008ZM551.442 34.4008L552.445 36.1311L553.145 33.3516L551.442 34.4008ZM523.842 50.4008L522.108 51.3965L524.845 52.1311L523.842 50.4008ZM523.842 99.2008L524.845 97.4705L522.094 98.2295L523.842 99.2008ZM551.442 115.201L553.153 116.237L552.445 113.471L551.442 115.201ZM491.442 147.601V145.601C450.365 145.601 420.642 114.914 420.642 74.8008H418.642H416.642C416.642 117.087 448.12 149.601 491.442 149.601V147.601ZM418.642 74.8008H420.642C420.642 34.6871 450.365 4.00078 491.442 4.00078V2.00078V0.000778198C448.12 0.000778198 416.642 32.5144 416.642 74.8008H418.642ZM491.442 2.00078V4.00078C516.177 4.00078 537.919 16.2652 549.739 35.4499L551.442 34.4008L553.145 33.3516C540.566 12.9364 517.507 0.000778198 491.442 0.000778198V2.00078ZM551.442 34.4008L550.439 32.6705L522.839 48.6705L523.842 50.4008L524.845 52.1311L552.445 36.1311L551.442 34.4008ZM523.842 50.4008L525.577 49.405C518.966 37.89 506.243 31.2008 491.442 31.2008V33.2008V35.2008C505.041 35.2008 516.318 41.3116 522.108 51.3965L523.842 50.4008ZM491.442 33.2008V31.2008C478.583 31.2008 467.839 35.5148 460.311 43.2289C452.788 50.9376 448.642 61.8694 448.642 74.8008H450.642H452.642C452.642 62.7322 456.497 52.8639 463.174 46.0227C469.845 39.1867 479.502 35.2008 491.442 35.2008V33.2008ZM450.642 74.8008H448.642C448.642 87.7322 452.788 98.6639 460.311 106.373C467.839 114.087 478.583 118.401 491.442 118.401V116.401V114.401C479.502 114.401 469.845 110.415 463.174 103.579C456.497 96.7376 452.642 86.8694 452.642 74.8008H450.642ZM491.442 116.401V118.401C506.224 118.401 519.173 111.724 525.591 100.172L523.842 99.2008L522.094 98.2295C516.512 108.277 505.061 114.401 491.442 114.401V116.401ZM523.842 99.2008L522.839 100.931L550.439 116.931L551.442 115.201L552.445 113.471L524.845 97.4705L523.842 99.2008ZM551.442 115.201L549.732 114.164C538.115 133.332 516.383 145.601 491.442 145.601V147.601V149.601C517.701 149.601 540.77 136.669 553.153 116.237L551.442 115.201ZM640.239 4.80077V2.80077L638.239 4.80077H640.239ZM672.239 4.80077H674.239L672.239 2.80077V4.80077ZM672.239 144.801V146.801L674.239 144.801H672.239ZM640.239 144.801H638.239L640.239 146.801V144.801ZM640.239 89.2008H642.239L640.239 87.2008V89.2008ZM596.239 89.2008V87.2008L594.239 89.2008H596.239ZM596.239 144.801V146.801L598.239 144.801H596.239ZM564.239 144.801H562.239L564.239 146.801V144.801ZM564.239 4.80077V2.80077L562.239 4.80077H564.239ZM596.239 4.80077H598.239L596.239 2.80077V4.80077ZM596.239 58.4008H594.239L596.239 60.4008V58.4008ZM640.239 58.4008V60.4008L642.239 58.4008H640.239ZM640.239 4.80077V6.80077H672.239V4.80077V2.80077H640.239V4.80077ZM672.239 4.80077H670.239V144.801H672.239H674.239V4.80077H672.239ZM672.239 144.801V142.801H640.239V144.801V146.801H672.239V144.801ZM640.239 144.801H642.239V89.2008H640.239H638.239V144.801H640.239ZM640.239 89.2008V87.2008H596.239V89.2008V91.2008H640.239V89.2008ZM596.239 89.2008H594.239V144.801H596.239H598.239V89.2008H596.239ZM596.239 144.801V142.801H564.239V144.801V146.801H596.239V144.801ZM564.239 144.801H566.239V4.80077H564.239H562.239V144.801H564.239ZM564.239 4.80077V6.80077H596.239V4.80077V2.80077H564.239V4.80077ZM596.239 4.80077H594.239V58.4008H596.239H598.239V4.80077H596.239ZM596.239 58.4008V60.4008H640.239V58.4008V56.4008H596.239V58.4008ZM640.239 58.4008H642.239V4.80077H640.239H638.239V58.4008H640.239ZM868.67 34.4008L869.673 36.1311L870.373 33.3516L868.67 34.4008ZM841.07 50.4008L839.336 51.3965L842.073 52.1311L841.07 50.4008ZM841.07 99.2008L842.073 97.4705L839.322 98.2295L841.07 99.2008ZM868.67 115.201L870.381 116.237L869.673 113.471L868.67 115.201ZM808.67 147.601V145.601C767.593 145.601 737.87 114.914 737.87 74.8008H735.87H733.87C733.87 117.087 765.348 149.601 808.67 149.601V147.601ZM735.87 74.8008H737.87C737.87 34.6871 767.593 4.00078 808.67 4.00078V2.00078V0.000778198C765.348 0.000778198 733.87 32.5144 733.87 74.8008H735.87ZM808.67 2.00078V4.00078C833.405 4.00078 855.147 16.2652 866.968 35.4499L868.67 34.4008L870.373 33.3516C857.794 12.9364 834.735 0.000778198 808.67 0.000778198V2.00078ZM868.67 34.4008L867.667 32.6705L840.067 48.6705L841.07 50.4008L842.073 52.1311L869.673 36.1311L868.67 34.4008ZM841.07 50.4008L842.805 49.405C836.194 37.89 823.471 31.2008 808.67 31.2008V33.2008V35.2008C822.269 35.2008 833.546 41.3116 839.336 51.3965L841.07 50.4008ZM808.67 33.2008V31.2008C795.811 31.2008 785.067 35.5148 777.539 43.2289C770.016 50.9376 765.87 61.8694 765.87 74.8008H767.87H769.87C769.87 62.7322 773.725 52.8639 780.402 46.0227C787.073 39.1867 796.73 35.2008 808.67 35.2008V33.2008ZM767.87 74.8008H765.87C765.87 87.7322 770.016 98.6639 777.539 106.373C785.067 114.087 795.811 118.401 808.67 118.401V116.401V114.401C796.73 114.401 787.073 110.415 780.402 103.579C773.725 96.7376 769.87 86.8694 769.87 74.8008H767.87ZM808.67 116.401V118.401C823.452 118.401 836.401 111.724 842.819 100.172L841.07 99.2008L839.322 98.2295C833.74 108.277 822.289 114.401 808.67 114.401V116.401ZM841.07 99.2008L840.067 100.931L867.667 116.931L868.67 115.201L869.673 113.471L842.073 97.4705L841.07 99.2008ZM868.67 115.201L866.96 114.164C855.343 133.332 833.612 145.601 808.67 145.601V147.601V149.601C834.929 149.601 857.998 136.669 870.381 116.237L868.67 115.201ZM946.314 147.601V145.601C907.201 145.601 875.514 114.878 875.514 74.8008H873.514H871.514C871.514 117.123 905.027 149.601 946.314 149.601V147.601ZM873.514 74.8008H875.514C875.514 34.7233 907.201 4.00078 946.314 4.00078V2.00078V0.000778198C905.027 0.000778198 871.514 32.4783 871.514 74.8008H873.514ZM946.314 2.00078V4.00078C985.427 4.00078 1017.11 34.7233 1017.11 74.8008H1019.11H1021.11C1021.11 32.4783 987.601 0.000778198 946.314 0.000778198V2.00078ZM1019.11 74.8008H1017.11C1017.11 114.878 985.427 145.601 946.314 145.601V147.601V149.601C987.601 149.601 1021.11 117.123 1021.11 74.8008H1019.11ZM946.314 116.401V118.401C970.199 118.401 989.114 100.925 989.114 74.8008H987.114H985.114C985.114 98.6769 968.029 114.401 946.314 114.401V116.401ZM987.114 74.8008H989.114C989.114 48.6769 970.199 31.2008 946.314 31.2008V33.2008V35.2008C968.029 35.2008 985.114 50.9246 985.114 74.8008H987.114ZM946.314 33.2008V31.2008C922.429 31.2008 903.514 48.6769 903.514 74.8008H905.514H907.514C907.514 50.9246 924.599 35.2008 946.314 35.2008V33.2008ZM905.514 74.8008H903.514C903.514 100.925 922.429 118.401 946.314 118.401V116.401V114.401C924.599 114.401 907.514 98.6769 907.514 74.8008H905.514ZM1118.85 144.801L1116.95 145.407L1118.85 146.801V144.801ZM1111.85 122.801L1113.76 122.194L1111.85 120.801V122.801ZM1059.85 122.801V120.801L1057.95 122.194L1059.85 122.801ZM1052.85 144.801V146.801L1054.76 145.407L1052.85 144.801ZM1017.85 144.801L1015.96 144.157L1017.85 146.801V144.801ZM1065.45 4.80077V2.80077L1063.56 4.15697L1065.45 4.80077ZM1106.25 4.80077L1108.15 4.15697L1106.25 2.80077V4.80077ZM1153.85 144.801V146.801L1155.75 144.157L1153.85 144.801ZM1069.45 92.8008L1067.55 92.1928L1069.45 94.8008V92.8008ZM1102.25 92.8008V94.8008L1104.16 92.1928L1102.25 92.8008ZM1085.85 41.4008L1087.76 40.7928H1083.95L1085.85 41.4008ZM1118.85 144.801L1120.76 144.194L1113.76 122.194L1111.85 122.801L1109.95 123.407L1116.95 145.407L1118.85 144.801ZM1111.85 122.801V120.801H1059.85V122.801V124.801H1111.85V122.801ZM1059.85 122.801L1057.95 122.194L1050.95 144.194L1052.85 144.801L1054.76 145.407L1061.76 123.407L1059.85 122.801ZM1052.85 144.801V142.801H1017.85V144.801V146.801H1052.85V144.801ZM1017.85 144.801L1019.75 145.445L1067.35 5.44458L1065.45 4.80077L1063.56 4.15697L1015.96 144.157L1017.85 144.801ZM1065.45 4.80077V6.80077H1106.25V4.80077V2.80077H1065.45V4.80077ZM1106.25 4.80077L1104.36 5.44458L1151.96 145.445L1153.85 144.801L1155.75 144.157L1108.15 4.15697L1106.25 4.80077ZM1153.85 144.801V142.801H1118.85V144.801V146.801H1153.85V144.801ZM1069.45 92.8008V94.8008H1102.25V92.8008V90.8008H1069.45V92.8008ZM1102.25 92.8008L1104.16 92.1928L1087.76 40.7928L1085.85 41.4008L1083.95 42.0087L1100.35 93.4087L1102.25 92.8008ZM1085.85 41.4008L1083.95 40.7928L1067.55 92.1928L1069.45 92.8008L1071.36 93.4087L1087.76 42.0087L1085.85 41.4008ZM1285.31 34.4008L1286.32 36.1311L1287.02 33.3516L1285.31 34.4008ZM1257.71 50.4008L1255.98 51.3965L1258.72 52.1311L1257.71 50.4008ZM1257.71 99.2008L1258.72 97.4705L1255.96 98.2295L1257.71 99.2008ZM1285.31 115.201L1287.02 116.237L1286.32 113.471L1285.31 115.201ZM1225.31 147.601V145.601C1184.24 145.601 1154.51 114.914 1154.51 74.8008H1152.51H1150.51C1150.51 117.087 1181.99 149.601 1225.31 149.601V147.601ZM1152.51 74.8008H1154.51C1154.51 34.6871 1184.24 4.00078 1225.31 4.00078V2.00078V0.000778198C1181.99 0.000778198 1150.51 32.5144 1150.51 74.8008H1152.51ZM1225.31 2.00078V4.00078C1250.05 4.00078 1271.79 16.2652 1283.61 35.4499L1285.31 34.4008L1287.02 33.3516C1274.44 12.9364 1251.38 0.000778198 1225.31 0.000778198V2.00078ZM1285.31 34.4008L1284.31 32.6705L1256.71 48.6705L1257.71 50.4008L1258.72 52.1311L1286.32 36.1311L1285.31 34.4008ZM1257.71 50.4008L1259.45 49.405C1252.84 37.89 1240.11 31.2008 1225.31 31.2008V33.2008V35.2008C1238.91 35.2008 1250.19 41.3116 1255.98 51.3965L1257.71 50.4008ZM1225.31 33.2008V31.2008C1212.45 31.2008 1201.71 35.5148 1194.18 43.2289C1186.66 50.9376 1182.51 61.8694 1182.51 74.8008H1184.51H1186.51C1186.51 62.7322 1190.37 52.8639 1197.04 46.0227C1203.72 39.1867 1213.37 35.2008 1225.31 35.2008V33.2008ZM1184.51 74.8008H1182.51C1182.51 87.7322 1186.66 98.6639 1194.18 106.373C1201.71 114.087 1212.45 118.401 1225.31 118.401V116.401V114.401C1213.37 114.401 1203.72 110.415 1197.04 103.579C1190.37 96.7376 1186.51 86.8694 1186.51 74.8008H1184.51ZM1225.31 116.401V118.401C1240.09 118.401 1253.04 111.724 1259.46 100.172L1257.71 99.2008L1255.96 98.2295C1250.38 108.277 1238.93 114.401 1225.31 114.401V116.401ZM1257.71 99.2008L1256.71 100.931L1284.31 116.931L1285.31 115.201L1286.32 113.471L1258.72 97.4705L1257.71 99.2008ZM1285.31 115.201L1283.6 114.164C1271.99 133.332 1250.25 145.601 1225.31 145.601V147.601V149.601C1251.57 149.601 1274.64 136.669 1287.02 116.237L1285.31 115.201ZM1374.11 4.80077V2.80077L1372.11 4.80077H1374.11ZM1406.11 4.80077H1408.11L1406.11 2.80077V4.80077ZM1406.11 144.801V146.801L1408.11 144.801H1406.11ZM1374.11 144.801H1372.11L1374.11 146.801V144.801ZM1374.11 89.2008H1376.11L1374.11 87.2008V89.2008ZM1330.11 89.2008V87.2008L1328.11 89.2008H1330.11ZM1330.11 144.801V146.801L1332.11 144.801H1330.11ZM1298.11 144.801H1296.11L1298.11 146.801V144.801ZM1298.11 4.80077V2.80077L1296.11 4.80077H1298.11ZM1330.11 4.80077H1332.11L1330.11 2.80077V4.80077ZM1330.11 58.4008H1328.11L1330.11 60.4008V58.4008ZM1374.11 58.4008V60.4008L1376.11 58.4008H1374.11ZM1374.11 4.80077V6.80077H1406.11V4.80077V2.80077H1374.11V4.80077ZM1406.11 4.80077H1404.11V144.801H1406.11H1408.11V4.80077H1406.11ZM1406.11 144.801V142.801H1374.11V144.801V146.801H1406.11V144.801ZM1374.11 144.801H1376.11V89.2008H1374.11H1372.11V144.801H1374.11ZM1374.11 89.2008V87.2008H1330.11V89.2008V91.2008H1374.11V89.2008ZM1330.11 89.2008H1328.11V144.801H1330.11H1332.11V89.2008H1330.11ZM1330.11 144.801V142.801H1298.11V144.801V146.801H1330.11V144.801ZM1298.11 144.801H1300.11V4.80077H1298.11H1296.11V144.801H1298.11ZM1298.11 4.80077V6.80077H1330.11V4.80077V2.80077H1298.11V4.80077ZM1330.11 4.80077H1328.11V58.4008H1330.11H1332.11V4.80077H1330.11ZM1330.11 58.4008V60.4008H1374.11V58.4008V56.4008H1330.11V58.4008ZM1374.11 58.4008H1376.11V4.80077H1374.11H1372.11V58.4008H1374.11ZM1602.54 34.4008L1603.54 36.1311L1604.24 33.3516L1602.54 34.4008ZM1574.94 50.4008L1573.21 51.3965L1575.94 52.1311L1574.94 50.4008ZM1574.94 99.2008L1575.94 97.4705L1573.19 98.2295L1574.94 99.2008ZM1602.54 115.201L1604.25 116.237L1603.54 113.471L1602.54 115.201ZM1542.54 147.601V145.601C1501.46 145.601 1471.74 114.914 1471.74 74.8008H1469.74H1467.74C1467.74 117.087 1499.22 149.601 1542.54 149.601V147.601ZM1469.74 74.8008H1471.74C1471.74 34.6871 1501.46 4.00078 1542.54 4.00078V2.00078V0.000778198C1499.22 0.000778198 1467.74 32.5144 1467.74 74.8008H1469.74ZM1542.54 2.00078V4.00078C1567.28 4.00078 1589.02 16.2652 1600.84 35.4499L1602.54 34.4008L1604.24 33.3516C1591.66 12.9364 1568.61 0.000778198 1542.54 0.000778198V2.00078ZM1602.54 34.4008L1601.54 32.6705L1573.94 48.6705L1574.94 50.4008L1575.94 52.1311L1603.54 36.1311L1602.54 34.4008ZM1574.94 50.4008L1576.68 49.405C1570.06 37.89 1557.34 31.2008 1542.54 31.2008V33.2008V35.2008C1556.14 35.2008 1567.42 41.3116 1573.21 51.3965L1574.94 50.4008ZM1542.54 33.2008V31.2008C1529.68 31.2008 1518.94 35.5148 1511.41 43.2289C1503.89 50.9376 1499.74 61.8694 1499.74 74.8008H1501.74H1503.74C1503.74 62.7322 1507.6 52.8639 1514.27 46.0227C1520.94 39.1867 1530.6 35.2008 1542.54 35.2008V33.2008ZM1501.74 74.8008H1499.74C1499.74 87.7322 1503.89 98.6639 1511.41 106.373C1518.94 114.087 1529.68 118.401 1542.54 118.401V116.401V114.401C1530.6 114.401 1520.94 110.415 1514.27 103.579C1507.6 96.7376 1503.74 86.8694 1503.74 74.8008H1501.74ZM1542.54 116.401V118.401C1557.32 118.401 1570.27 111.724 1576.69 100.172L1574.94 99.2008L1573.19 98.2295C1567.61 108.277 1556.16 114.401 1542.54 114.401V116.401ZM1574.94 99.2008L1573.94 100.931L1601.54 116.931L1602.54 115.201L1603.54 113.471L1575.94 97.4705L1574.94 99.2008ZM1602.54 115.201L1600.83 114.164C1589.21 133.332 1567.48 145.601 1542.54 145.601V147.601V149.601C1568.8 149.601 1591.87 136.669 1604.25 116.237L1602.54 115.201ZM1680.18 147.601V145.601C1641.07 145.601 1609.38 114.878 1609.38 74.8008H1607.38H1605.38C1605.38 117.123 1638.9 149.601 1680.18 149.601V147.601ZM1607.38 74.8008H1609.38C1609.38 34.7233 1641.07 4.00078 1680.18 4.00078V2.00078V0.000778198C1638.9 0.000778198 1605.38 32.4783 1605.38 74.8008H1607.38ZM1680.18 2.00078V4.00078C1719.3 4.00078 1750.98 34.7233 1750.98 74.8008H1752.98H1754.98C1754.98 32.4783 1721.47 0.000778198 1680.18 0.000778198V2.00078ZM1752.98 74.8008H1750.98C1750.98 114.878 1719.3 145.601 1680.18 145.601V147.601V149.601C1721.47 149.601 1754.98 117.123 1754.98 74.8008H1752.98ZM1680.18 116.401V118.401C1704.07 118.401 1722.98 100.925 1722.98 74.8008H1720.98H1718.98C1718.98 98.6769 1701.9 114.401 1680.18 114.401V116.401ZM1720.98 74.8008H1722.98C1722.98 48.6769 1704.07 31.2008 1680.18 31.2008V33.2008V35.2008C1701.9 35.2008 1718.98 50.9246 1718.98 74.8008H1720.98ZM1680.18 33.2008V31.2008C1656.3 31.2008 1637.38 48.6769 1637.38 74.8008H1639.38H1641.38C1641.38 50.9246 1658.47 35.2008 1680.18 35.2008V33.2008ZM1639.38 74.8008H1637.38C1637.38 100.925 1656.3 118.401 1680.18 118.401V116.401V114.401C1658.47 114.401 1641.38 98.6769 1641.38 74.8008H1639.38ZM1852.72 144.801L1850.82 145.407L1852.72 146.801V144.801ZM1845.72 122.801L1847.63 122.194L1845.72 120.801V122.801ZM1793.72 122.801V120.801L1791.82 122.194L1793.72 122.801ZM1786.72 144.801V146.801L1788.63 145.407L1786.72 144.801ZM1751.72 144.801L1749.83 144.157L1751.72 146.801V144.801ZM1799.32 4.80077V2.80077L1797.43 4.15697L1799.32 4.80077ZM1840.12 4.80077L1842.02 4.15697L1840.12 2.80077V4.80077ZM1887.72 144.801V146.801L1889.62 144.157L1887.72 144.801ZM1803.32 92.8008L1801.42 92.1928L1803.32 94.8008V92.8008ZM1836.12 92.8008V94.8008L1838.03 92.1928L1836.12 92.8008ZM1819.72 41.4008L1821.63 40.7928H1817.82L1819.72 41.4008ZM1852.72 144.801L1854.63 144.194L1847.63 122.194L1845.72 122.801L1843.82 123.407L1850.82 145.407L1852.72 144.801ZM1845.72 122.801V120.801H1793.72V122.801V124.801H1845.72V122.801ZM1793.72 122.801L1791.82 122.194L1784.82 144.194L1786.72 144.801L1788.63 145.407L1795.63 123.407L1793.72 122.801ZM1786.72 144.801V142.801H1751.72V144.801V146.801H1786.72V144.801ZM1751.72 144.801L1753.62 145.445L1801.22 5.44458L1799.32 4.80077L1797.43 4.15697L1749.83 144.157L1751.72 144.801ZM1799.32 4.80077V6.80077H1840.12V4.80077V2.80077H1799.32V4.80077ZM1840.12 4.80077L1838.23 5.44458L1885.83 145.445L1887.72 144.801L1889.62 144.157L1842.02 4.15697L1840.12 4.80077ZM1887.72 144.801V142.801H1852.72V144.801V146.801H1887.72V144.801ZM1803.32 92.8008V94.8008H1836.12V92.8008V90.8008H1803.32V92.8008ZM1836.12 92.8008L1838.03 92.1928L1821.63 40.7928L1819.72 41.4008L1817.82 42.0087L1834.22 93.4087L1836.12 92.8008ZM1819.72 41.4008L1817.82 40.7928L1801.42 92.1928L1803.32 92.8008L1805.23 93.4087L1821.63 42.0087L1819.72 41.4008ZM2019.18 34.4008L2020.19 36.1311L2020.89 33.3516L2019.18 34.4008ZM1991.58 50.4008L1989.85 51.3965L1992.59 52.1311L1991.58 50.4008ZM1991.58 99.2008L1992.59 97.4705L1989.83 98.2295L1991.58 99.2008ZM2019.18 115.201L2020.89 116.237L2020.19 113.471L2019.18 115.201ZM1959.18 147.601V145.601C1918.11 145.601 1888.38 114.914 1888.38 74.8008H1886.38H1884.38C1884.38 117.087 1915.86 149.601 1959.18 149.601V147.601ZM1886.38 74.8008H1888.38C1888.38 34.6871 1918.11 4.00078 1959.18 4.00078V2.00078V0.000778198C1915.86 0.000778198 1884.38 32.5144 1884.38 74.8008H1886.38ZM1959.18 2.00078V4.00078C1983.92 4.00078 2005.66 16.2652 2017.48 35.4499L2019.18 34.4008L2020.89 33.3516C2008.31 12.9364 1985.25 0.000778198 1959.18 0.000778198V2.00078ZM2019.18 34.4008L2018.18 32.6705L1990.58 48.6705L1991.58 50.4008L1992.59 52.1311L2020.19 36.1311L2019.18 34.4008ZM1991.58 50.4008L1993.32 49.405C1986.71 37.89 1973.98 31.2008 1959.18 31.2008V33.2008V35.2008C1972.78 35.2008 1984.06 41.3116 1989.85 51.3965L1991.58 50.4008ZM1959.18 33.2008V31.2008C1946.32 31.2008 1935.58 35.5148 1928.05 43.2289C1920.53 50.9376 1916.38 61.8694 1916.38 74.8008H1918.38H1920.38C1920.38 62.7322 1924.24 52.8639 1930.91 46.0227C1937.59 39.1867 1947.24 35.2008 1959.18 35.2008V33.2008ZM1918.38 74.8008H1916.38C1916.38 87.7322 1920.53 98.6639 1928.05 106.373C1935.58 114.087 1946.32 118.401 1959.18 118.401V116.401V114.401C1947.24 114.401 1937.59 110.415 1930.91 103.579C1924.24 96.7376 1920.38 86.8694 1920.38 74.8008H1918.38ZM1959.18 116.401V118.401C1973.96 118.401 1986.91 111.724 1993.33 100.172L1991.58 99.2008L1989.83 98.2295C1984.25 108.277 1972.8 114.401 1959.18 114.401V116.401ZM1991.58 99.2008L1990.58 100.931L2018.18 116.931L2019.18 115.201L2020.19 113.471L1992.59 97.4705L1991.58 99.2008ZM2019.18 115.201L2017.47 114.164C2005.86 133.332 1984.12 145.601 1959.18 145.601V147.601V149.601C1985.44 149.601 2008.51 136.669 2020.89 116.237L2019.18 115.201ZM2107.98 4.80077V2.80077L2105.98 4.80077H2107.98ZM2139.98 4.80077H2141.98L2139.98 2.80077V4.80077ZM2139.98 144.801V146.801L2141.98 144.801H2139.98ZM2107.98 144.801H2105.98L2107.98 146.801V144.801ZM2107.98 89.2008H2109.98L2107.98 87.2008V89.2008ZM2063.98 89.2008V87.2008L2061.98 89.2008H2063.98ZM2063.98 144.801V146.801L2065.98 144.801H2063.98ZM2031.98 144.801H2029.98L2031.98 146.801V144.801ZM2031.98 4.80077V2.80077L2029.98 4.80077H2031.98ZM2063.98 4.80077H2065.98L2063.98 2.80077V4.80077ZM2063.98 58.4008H2061.98L2063.98 60.4008V58.4008ZM2107.98 58.4008V60.4008L2109.98 58.4008H2107.98ZM2107.98 4.80077V6.80077H2139.98V4.80077V2.80077H2107.98V4.80077ZM2139.98 4.80077H2137.98V144.801H2139.98H2141.98V4.80077H2139.98ZM2139.98 144.801V142.801H2107.98V144.801V146.801H2139.98V144.801ZM2107.98 144.801H2109.98V89.2008H2107.98H2105.98V144.801H2107.98ZM2107.98 89.2008V87.2008H2063.98V89.2008V91.2008H2107.98V89.2008ZM2063.98 89.2008H2061.98V144.801H2063.98H2065.98V89.2008H2063.98ZM2063.98 144.801V142.801H2031.98V144.801V146.801H2063.98V144.801ZM2031.98 144.801H2033.98V4.80077H2031.98H2029.98V144.801H2031.98ZM2031.98 4.80077V6.80077H2063.98V4.80077V2.80077H2031.98V4.80077ZM2063.98 4.80077H2061.98V58.4008H2063.98H2065.98V4.80077H2063.98ZM2063.98 58.4008V60.4008H2107.98V58.4008V56.4008H2063.98V58.4008ZM2107.98 58.4008H2109.98V4.80077H2107.98H2105.98V58.4008H2107.98Z" fill="white" mask="url(#path-1-outside-1_1710_607)"/>
</svg>
