<svg width="1030" height="73" viewBox="0 0 1030 73" fill="none" xmlns="http://www.w3.org/2000/svg">
<mask id="path-1-outside-1_1907_609" maskUnits="userSpaceOnUse" x="-0.480469" y="-0.0566406" width="1030" height="73" fill="black">
<rect fill="white" x="-0.480469" y="-0.0566406" width="1030" height="73"/>
<path d="M36.3435 71.2874C16.0875 71.2874 1.39953 56.1194 1.39953 36.3434C1.39953 16.5674 16.0875 1.39935 36.3435 1.39935C48.5355 1.39935 59.2875 7.44736 65.1435 16.9514L51.8955 24.6314C48.9195 19.4474 43.1595 16.3754 36.3435 16.3754C24.4395 16.3754 16.7595 24.3434 16.7595 36.3434C16.7595 48.3434 24.4395 56.3114 36.3435 56.3114C43.1595 56.3114 49.0155 53.2394 51.8955 48.0554L65.1435 55.7354C59.3835 65.2394 48.6315 71.2874 36.3435 71.2874ZM102.413 71.2874C83.1165 71.2874 67.4685 56.1194 67.4685 36.3434C67.4685 16.5674 83.1165 1.39935 102.413 1.39935C121.709 1.39935 137.357 16.5674 137.357 36.3434C137.357 56.1194 121.709 71.2874 102.413 71.2874ZM102.413 56.3114C113.357 56.3114 121.997 48.3434 121.997 36.3434C121.997 24.3434 113.357 16.3754 102.413 16.3754C91.4685 16.3754 82.8285 24.3434 82.8285 36.3434C82.8285 48.3434 91.4685 56.3114 102.413 56.3114ZM185.231 69.9434L181.871 59.3834H156.911L153.551 69.9434H136.751L159.599 2.74335H179.183L202.031 69.9434H185.231ZM161.519 44.9834H177.263L169.391 20.3114L161.519 44.9834ZM236.332 71.2874C216.076 71.2874 201.388 56.1194 201.388 36.3434C201.388 16.5674 216.076 1.39935 236.332 1.39935C248.524 1.39935 259.276 7.44736 265.132 16.9514L251.884 24.6314C248.908 19.4474 243.148 16.3754 236.332 16.3754C224.428 16.3754 216.748 24.3434 216.748 36.3434C216.748 48.3434 224.428 56.3114 236.332 56.3114C243.148 56.3114 249.004 53.2394 251.884 48.0554L265.132 55.7354C259.372 65.2394 248.62 71.2874 236.332 71.2874ZM307.754 2.74335H323.114V69.9434H307.754V43.2554H286.634V69.9434H271.274V2.74335H286.634V28.4714H307.754V2.74335ZM388.601 71.2874C368.345 71.2874 353.657 56.1194 353.657 36.3434C353.657 16.5674 368.345 1.39935 388.601 1.39935C400.793 1.39935 411.545 7.44736 417.401 16.9514L404.153 24.6314C401.177 19.4474 395.417 16.3754 388.601 16.3754C376.697 16.3754 369.017 24.3434 369.017 36.3434C369.017 48.3434 376.697 56.3114 388.601 56.3114C395.417 56.3114 401.273 53.2394 404.153 48.0554L417.401 55.7354C411.641 65.2394 400.889 71.2874 388.601 71.2874ZM454.67 71.2874C435.374 71.2874 419.726 56.1194 419.726 36.3434C419.726 16.5674 435.374 1.39935 454.67 1.39935C473.966 1.39935 489.614 16.5674 489.614 36.3434C489.614 56.1194 473.966 71.2874 454.67 71.2874ZM454.67 56.3114C465.614 56.3114 474.254 48.3434 474.254 36.3434C474.254 24.3434 465.614 16.3754 454.67 16.3754C443.726 16.3754 435.086 24.3434 435.086 36.3434C435.086 48.3434 443.726 56.3114 454.67 56.3114ZM537.489 69.9434L534.129 59.3834H509.169L505.809 69.9434H489.009L511.857 2.74335H531.441L554.289 69.9434H537.489ZM513.777 44.9834H529.521L521.649 20.3114L513.777 44.9834ZM588.59 71.2874C568.334 71.2874 553.646 56.1194 553.646 36.3434C553.646 16.5674 568.334 1.39935 588.59 1.39935C600.782 1.39935 611.534 7.44736 617.39 16.9514L604.142 24.6314C601.166 19.4474 595.406 16.3754 588.59 16.3754C576.686 16.3754 569.006 24.3434 569.006 36.3434C569.006 48.3434 576.686 56.3114 588.59 56.3114C595.406 56.3114 601.262 53.2394 604.142 48.0554L617.39 55.7354C611.63 65.2394 600.878 71.2874 588.59 71.2874ZM660.012 2.74335H675.372V69.9434H660.012V43.2554H638.892V69.9434H623.532V2.74335H638.892V28.4714H660.012V2.74335ZM740.859 71.2874C720.603 71.2874 705.915 56.1194 705.915 36.3434C705.915 16.5674 720.603 1.39935 740.859 1.39935C753.051 1.39935 763.803 7.44736 769.659 16.9514L756.411 24.6314C753.435 19.4474 747.675 16.3754 740.859 16.3754C728.955 16.3754 721.275 24.3434 721.275 36.3434C721.275 48.3434 728.955 56.3114 740.859 56.3114C747.675 56.3114 753.531 53.2394 756.411 48.0554L769.659 55.7354C763.899 65.2394 753.147 71.2874 740.859 71.2874ZM806.928 71.2874C787.632 71.2874 771.984 56.1194 771.984 36.3434C771.984 16.5674 787.632 1.39935 806.928 1.39935C826.224 1.39935 841.872 16.5674 841.872 36.3434C841.872 56.1194 826.224 71.2874 806.928 71.2874ZM806.928 56.3114C817.872 56.3114 826.512 48.3434 826.512 36.3434C826.512 24.3434 817.872 16.3754 806.928 16.3754C795.984 16.3754 787.344 24.3434 787.344 36.3434C787.344 48.3434 795.984 56.3114 806.928 56.3114ZM889.747 69.9434L886.387 59.3834H861.427L858.067 69.9434H841.267L864.115 2.74335H883.699L906.547 69.9434H889.747ZM866.035 44.9834H881.779L873.907 20.3114L866.035 44.9834ZM940.847 71.2874C920.591 71.2874 905.903 56.1194 905.903 36.3434C905.903 16.5674 920.591 1.39935 940.847 1.39935C953.039 1.39935 963.791 7.44736 969.647 16.9514L956.399 24.6314C953.423 19.4474 947.663 16.3754 940.847 16.3754C928.943 16.3754 921.263 24.3434 921.263 36.3434C921.263 48.3434 928.943 56.3114 940.847 56.3114C947.663 56.3114 953.519 53.2394 956.399 48.0554L969.647 55.7354C963.887 65.2394 953.135 71.2874 940.847 71.2874ZM1012.27 2.74335H1027.63V69.9434H1012.27V43.2554H991.15V69.9434H975.79V2.74335H991.15V28.4714H1012.27V2.74335Z"/>
</mask>
<path d="M65.1435 16.9514L65.8457 18.1626L66.3354 16.2169L65.1435 16.9514ZM51.8955 24.6314L50.6814 25.3284L52.5977 25.8426L51.8955 24.6314ZM51.8955 48.0554L52.5977 46.8442L50.6717 47.3755L51.8955 48.0554ZM65.1435 55.7354L66.3408 56.461L65.8457 54.5242L65.1435 55.7354ZM36.3435 71.2874V69.8874C16.8734 69.8874 2.79953 55.3589 2.79953 36.3434H1.39953H-0.000468612C-0.000468612 56.8798 15.3017 72.6874 36.3435 72.6874V71.2874ZM1.39953 36.3434H2.79953C2.79953 17.3278 16.8734 2.79935 36.3435 2.79935V1.39935V-0.000648499C15.3017 -0.000648499 -0.000468612 15.8069 -0.000468612 36.3434H1.39953ZM36.3435 1.39935V2.79935C48.07 2.79935 58.361 8.61245 63.9516 17.6858L65.1435 16.9514L66.3354 16.2169C60.2141 6.28226 49.0011 -0.000648499 36.3435 -0.000648499V1.39935ZM65.1435 16.9514L64.4414 15.7402L51.1934 23.4202L51.8955 24.6314L52.5977 25.8426L65.8457 18.1626L65.1435 16.9514ZM51.8955 24.6314L53.1097 23.9343C49.8463 18.2498 43.5803 14.9754 36.3435 14.9754V16.3754V17.7754C42.7388 17.7754 47.9927 20.6449 50.6814 25.3284L51.8955 24.6314ZM36.3435 16.3754V14.9754C30.07 14.9754 24.7935 17.0822 21.0856 20.8815C17.3813 24.6772 15.3595 30.0414 15.3595 36.3434H16.7595H18.1595C18.1595 30.6453 19.9778 26.0256 23.0895 22.8372C26.1975 19.6525 30.7131 17.7754 36.3435 17.7754V16.3754ZM16.7595 36.3434H15.3595C15.3595 42.6453 17.3813 48.0096 21.0856 51.8052C24.7935 55.6045 30.07 57.7114 36.3435 57.7114V56.3114V54.9114C30.7131 54.9114 26.1975 53.0342 23.0895 49.8495C19.9778 46.6612 18.1595 42.0414 18.1595 36.3434H16.7595ZM36.3435 56.3114V57.7114C43.5665 57.7114 49.9468 54.4459 53.1194 48.7353L51.8955 48.0554L50.6717 47.3755C48.0843 52.0328 42.7526 54.9114 36.3435 54.9114V56.3114ZM51.8955 48.0554L51.1934 49.2666L64.4414 56.9466L65.1435 55.7354L65.8457 54.5242L52.5977 46.8442L51.8955 48.0554ZM65.1435 55.7354L63.9463 55.0097C58.4544 64.0713 48.1704 69.8874 36.3435 69.8874V71.2874V72.6874C49.0927 72.6874 60.3127 66.4074 66.3408 56.461L65.1435 55.7354ZM102.413 71.2874V69.8874C83.8771 69.8874 68.8685 55.3336 68.8685 36.3434H67.4685H66.0685C66.0685 56.9051 82.3559 72.6874 102.413 72.6874V71.2874ZM67.4685 36.3434H68.8685C68.8685 17.3531 83.8771 2.79935 102.413 2.79935V1.39935V-0.000648499C82.3559 -0.000648499 66.0685 15.7816 66.0685 36.3434H67.4685ZM102.413 1.39935V2.79935C120.948 2.79935 135.957 17.3531 135.957 36.3434H137.357H138.757C138.757 15.7816 122.469 -0.000648499 102.413 -0.000648499V1.39935ZM137.357 36.3434H135.957C135.957 55.3336 120.948 69.8874 102.413 69.8874V71.2874V72.6874C122.469 72.6874 138.757 56.9051 138.757 36.3434H137.357ZM102.413 56.3114V57.7114C114.116 57.7114 123.397 49.1301 123.397 36.3434H121.997H120.597C120.597 47.5567 112.597 54.9114 102.413 54.9114V56.3114ZM121.997 36.3434H123.397C123.397 23.5567 114.116 14.9754 102.413 14.9754V16.3754V17.7754C112.597 17.7754 120.597 25.1301 120.597 36.3434H121.997ZM102.413 16.3754V14.9754C90.7089 14.9754 81.4285 23.5567 81.4285 36.3434H82.8285H84.2285C84.2285 25.1301 92.2282 17.7754 102.413 17.7754V16.3754ZM82.8285 36.3434H81.4285C81.4285 49.1301 90.7089 57.7114 102.413 57.7114V56.3114V54.9114C92.2282 54.9114 84.2285 47.5567 84.2285 36.3434H82.8285ZM185.231 69.9434L183.897 70.3678L185.231 71.3434V69.9434ZM181.871 59.3834L183.205 58.9589L181.871 57.9834V59.3834ZM156.911 59.3834V57.9834L155.577 58.9589L156.911 59.3834ZM153.551 69.9434V71.3434L154.885 70.3678L153.551 69.9434ZM136.751 69.9434L135.426 69.4927L136.751 71.3434V69.9434ZM159.599 2.74335V1.34335L158.274 2.29269L159.599 2.74335ZM179.183 2.74335L180.509 2.29269L179.183 1.34335V2.74335ZM202.031 69.9434V71.3434L203.357 69.4927L202.031 69.9434ZM161.519 44.9834L160.186 44.5578L161.519 46.3834V44.9834ZM177.263 44.9834V46.3834L178.597 44.5578L177.263 44.9834ZM169.391 20.3114L170.725 19.8858H168.058L169.391 20.3114ZM185.231 69.9434L186.565 69.5189L183.205 58.9589L181.871 59.3834L180.537 59.8078L183.897 70.3678L185.231 69.9434ZM181.871 59.3834V57.9834H156.911V59.3834V60.7834H181.871V59.3834ZM156.911 59.3834L155.577 58.9589L152.217 69.5189L153.551 69.9434L154.885 70.3678L158.245 59.8078L156.911 59.3834ZM153.551 69.9434V68.5434H136.751V69.9434V71.3434H153.551V69.9434ZM136.751 69.9434L138.077 70.394L160.925 3.19402L159.599 2.74335L158.274 2.29269L135.426 69.4927L136.751 69.9434ZM159.599 2.74335V4.14336H179.183V2.74335V1.34335H159.599V2.74335ZM179.183 2.74335L177.858 3.19402L200.706 70.394L202.031 69.9434L203.357 69.4927L180.509 2.29269L179.183 2.74335ZM202.031 69.9434V68.5434H185.231V69.9434V71.3434H202.031V69.9434ZM161.519 44.9834V46.3834H177.263V44.9834V43.5834H161.519V44.9834ZM177.263 44.9834L178.597 44.5578L170.725 19.8858L169.391 20.3114L168.058 20.7369L175.93 45.4089L177.263 44.9834ZM169.391 20.3114L168.058 19.8858L160.186 44.5578L161.519 44.9834L162.853 45.4089L170.725 20.7369L169.391 20.3114ZM265.132 16.9514L265.834 18.1626L266.324 16.2169L265.132 16.9514ZM251.884 24.6314L250.67 25.3284L252.586 25.8426L251.884 24.6314ZM251.884 48.0554L252.586 46.8442L250.66 47.3755L251.884 48.0554ZM265.132 55.7354L266.329 56.461L265.834 54.5242L265.132 55.7354ZM236.332 71.2874V69.8874C216.862 69.8874 202.788 55.3589 202.788 36.3434H201.388H199.988C199.988 56.8798 215.29 72.6874 236.332 72.6874V71.2874ZM201.388 36.3434H202.788C202.788 17.3278 216.862 2.79935 236.332 2.79935V1.39935V-0.000648499C215.29 -0.000648499 199.988 15.8069 199.988 36.3434H201.388ZM236.332 1.39935V2.79935C248.058 2.79935 258.349 8.61245 263.94 17.6858L265.132 16.9514L266.324 16.2169C260.202 6.28226 248.989 -0.000648499 236.332 -0.000648499V1.39935ZM265.132 16.9514L264.43 15.7402L251.182 23.4202L251.884 24.6314L252.586 25.8426L265.834 18.1626L265.132 16.9514ZM251.884 24.6314L253.098 23.9343C249.835 18.2498 243.569 14.9754 236.332 14.9754V16.3754V17.7754C242.727 17.7754 247.981 20.6449 250.67 25.3284L251.884 24.6314ZM236.332 16.3754V14.9754C230.058 14.9754 224.782 17.0822 221.074 20.8815C217.37 24.6772 215.348 30.0414 215.348 36.3434H216.748H218.148C218.148 30.6453 219.966 26.0256 223.078 22.8372C226.186 19.6525 230.701 17.7754 236.332 17.7754V16.3754ZM216.748 36.3434H215.348C215.348 42.6453 217.37 48.0096 221.074 51.8052C224.782 55.6045 230.058 57.7114 236.332 57.7114V56.3114V54.9114C230.701 54.9114 226.186 53.0342 223.078 49.8495C219.966 46.6612 218.148 42.0414 218.148 36.3434H216.748ZM236.332 56.3114V57.7114C243.555 57.7114 249.935 54.4459 253.108 48.7353L251.884 48.0554L250.66 47.3755C248.073 52.0328 242.741 54.9114 236.332 54.9114V56.3114ZM251.884 48.0554L251.182 49.2666L264.43 56.9466L265.132 55.7354L265.834 54.5242L252.586 46.8442L251.884 48.0554ZM265.132 55.7354L263.935 55.0097C258.443 64.0713 248.159 69.8874 236.332 69.8874V71.2874V72.6874C249.081 72.6874 260.301 66.4074 266.329 56.461L265.132 55.7354ZM307.754 2.74335V1.34335L306.354 2.74335H307.754ZM323.114 2.74335H324.514L323.114 1.34335V2.74335ZM323.114 69.9434V71.3434L324.514 69.9434H323.114ZM307.754 69.9434H306.354L307.754 71.3434V69.9434ZM307.754 43.2554H309.154L307.754 41.8554V43.2554ZM286.634 43.2554V41.8554L285.234 43.2554H286.634ZM286.634 69.9434V71.3434L288.034 69.9434H286.634ZM271.274 69.9434H269.874L271.274 71.3434V69.9434ZM271.274 2.74335V1.34335L269.874 2.74335H271.274ZM286.634 2.74335H288.034L286.634 1.34335V2.74335ZM286.634 28.4714H285.234L286.634 29.8714V28.4714ZM307.754 28.4714V29.8714L309.154 28.4714H307.754ZM307.754 2.74335V4.14336H323.114V2.74335V1.34335H307.754V2.74335ZM323.114 2.74335H321.714V69.9434H323.114H324.514V2.74335H323.114ZM323.114 69.9434V68.5434H307.754V69.9434V71.3434H323.114V69.9434ZM307.754 69.9434H309.154V43.2554H307.754H306.354V69.9434H307.754ZM307.754 43.2554V41.8554H286.634V43.2554V44.6554H307.754V43.2554ZM286.634 43.2554H285.234V69.9434H286.634H288.034V43.2554H286.634ZM286.634 69.9434V68.5434H271.274V69.9434V71.3434H286.634V69.9434ZM271.274 69.9434H272.674V2.74335H271.274H269.874V69.9434H271.274ZM271.274 2.74335V4.14336H286.634V2.74335V1.34335H271.274V2.74335ZM286.634 2.74335H285.234V28.4714H286.634H288.034V2.74335H286.634ZM286.634 28.4714V29.8714H307.754V28.4714V27.0714H286.634V28.4714ZM307.754 28.4714H309.154V2.74335H307.754H306.354V28.4714H307.754ZM417.401 16.9514L418.103 18.1626L418.593 16.2169L417.401 16.9514ZM404.153 24.6314L402.939 25.3284L404.855 25.8426L404.153 24.6314ZM404.153 48.0554L404.855 46.8442L402.929 47.3755L404.153 48.0554ZM417.401 55.7354L418.599 56.461L418.103 54.5242L417.401 55.7354ZM388.601 71.2874V69.8874C369.131 69.8874 355.057 55.3589 355.057 36.3434H353.657H352.257C352.257 56.8798 367.559 72.6874 388.601 72.6874V71.2874ZM353.657 36.3434H355.057C355.057 17.3278 369.131 2.79935 388.601 2.79935V1.39935V-0.000648499C367.559 -0.000648499 352.257 15.8069 352.257 36.3434H353.657ZM388.601 1.39935V2.79935C400.328 2.79935 410.619 8.61245 416.209 17.6858L417.401 16.9514L418.593 16.2169C412.472 6.28226 401.259 -0.000648499 388.601 -0.000648499V1.39935ZM417.401 16.9514L416.699 15.7402L403.451 23.4202L404.153 24.6314L404.855 25.8426L418.103 18.1626L417.401 16.9514ZM404.153 24.6314L405.367 23.9343C402.104 18.2498 395.838 14.9754 388.601 14.9754V16.3754V17.7754C394.997 17.7754 400.25 20.6449 402.939 25.3284L404.153 24.6314ZM388.601 16.3754V14.9754C382.328 14.9754 377.051 17.0822 373.343 20.8815C369.639 24.6772 367.617 30.0414 367.617 36.3434H369.017H370.417C370.417 30.6453 372.236 26.0256 375.347 22.8372C378.455 19.6525 382.971 17.7754 388.601 17.7754V16.3754ZM369.017 36.3434H367.617C367.617 42.6453 369.639 48.0096 373.343 51.8052C377.051 55.6045 382.328 57.7114 388.601 57.7114V56.3114V54.9114C382.971 54.9114 378.455 53.0342 375.347 49.8495C372.236 46.6612 370.417 42.0414 370.417 36.3434H369.017ZM388.601 56.3114V57.7114C395.824 57.7114 402.205 54.4459 405.377 48.7353L404.153 48.0554L402.929 47.3755C400.342 52.0328 395.01 54.9114 388.601 54.9114V56.3114ZM404.153 48.0554L403.451 49.2666L416.699 56.9466L417.401 55.7354L418.103 54.5242L404.855 46.8442L404.153 48.0554ZM417.401 55.7354L416.204 55.0097C410.712 64.0713 400.428 69.8874 388.601 69.8874V71.2874V72.6874C401.35 72.6874 412.57 66.4074 418.599 56.461L417.401 55.7354ZM454.67 71.2874V69.8874C436.135 69.8874 421.126 55.3336 421.126 36.3434H419.726H418.326C418.326 56.9051 434.614 72.6874 454.67 72.6874V71.2874ZM419.726 36.3434H421.126C421.126 17.3531 436.135 2.79935 454.67 2.79935V1.39935V-0.000648499C434.614 -0.000648499 418.326 15.7816 418.326 36.3434H419.726ZM454.67 1.39935V2.79935C473.206 2.79935 488.214 17.3531 488.214 36.3434H489.614H491.014C491.014 15.7816 474.727 -0.000648499 454.67 -0.000648499V1.39935ZM489.614 36.3434H488.214C488.214 55.3336 473.206 69.8874 454.67 69.8874V71.2874V72.6874C474.727 72.6874 491.014 56.9051 491.014 36.3434H489.614ZM454.67 56.3114V57.7114C466.374 57.7114 475.654 49.1301 475.654 36.3434H474.254H472.854C472.854 47.5567 464.855 54.9114 454.67 54.9114V56.3114ZM474.254 36.3434H475.654C475.654 23.5567 466.374 14.9754 454.67 14.9754V16.3754V17.7754C464.855 17.7754 472.854 25.1301 472.854 36.3434H474.254ZM454.67 16.3754V14.9754C442.967 14.9754 433.686 23.5567 433.686 36.3434H435.086H436.486C436.486 25.1301 444.486 17.7754 454.67 17.7754V16.3754ZM435.086 36.3434H433.686C433.686 49.1301 442.967 57.7114 454.67 57.7114V56.3114V54.9114C444.486 54.9114 436.486 47.5567 436.486 36.3434H435.086ZM537.489 69.9434L536.155 70.3678L537.489 71.3434V69.9434ZM534.129 59.3834L535.463 58.9589L534.129 57.9834V59.3834ZM509.169 59.3834V57.9834L507.835 58.9589L509.169 59.3834ZM505.809 69.9434V71.3434L507.143 70.3678L505.809 69.9434ZM489.009 69.9434L487.684 69.4927L489.009 71.3434V69.9434ZM511.857 2.74335V1.34335L510.532 2.29269L511.857 2.74335ZM531.441 2.74335L532.767 2.29269L531.441 1.34335V2.74335ZM554.289 69.9434V71.3434L555.615 69.4927L554.289 69.9434ZM513.777 44.9834L512.443 44.5578L513.777 46.3834V44.9834ZM529.521 44.9834V46.3834L530.855 44.5578L529.521 44.9834ZM521.649 20.3114L522.983 19.8858H520.315L521.649 20.3114ZM537.489 69.9434L538.823 69.5189L535.463 58.9589L534.129 59.3834L532.795 59.8078L536.155 70.3678L537.489 69.9434ZM534.129 59.3834V57.9834H509.169V59.3834V60.7834H534.129V59.3834ZM509.169 59.3834L507.835 58.9589L504.475 69.5189L505.809 69.9434L507.143 70.3678L510.503 59.8078L509.169 59.3834ZM505.809 69.9434V68.5434H489.009V69.9434V71.3434H505.809V69.9434ZM489.009 69.9434L490.335 70.394L513.182 3.19402L511.857 2.74335L510.532 2.29269L487.684 69.4927L489.009 69.9434ZM511.857 2.74335V4.14336H531.441V2.74335V1.34335H511.857V2.74335ZM531.441 2.74335L530.116 3.19402L552.964 70.394L554.289 69.9434L555.615 69.4927L532.767 2.29269L531.441 2.74335ZM554.289 69.9434V68.5434H537.489V69.9434V71.3434H554.289V69.9434ZM513.777 44.9834V46.3834H529.521V44.9834V43.5834H513.777V44.9834ZM529.521 44.9834L530.855 44.5578L522.983 19.8858L521.649 20.3114L520.315 20.7369L528.187 45.4089L529.521 44.9834ZM521.649 20.3114L520.315 19.8858L512.443 44.5578L513.777 44.9834L515.111 45.4089L522.983 20.7369L521.649 20.3114ZM617.39 16.9514L618.092 18.1626L618.581 16.2169L617.39 16.9514ZM604.141 24.6314L602.927 25.3284L604.844 25.8426L604.141 24.6314ZM604.141 48.0554L604.844 46.8442L602.918 47.3755L604.141 48.0554ZM617.39 55.7354L618.587 56.461L618.092 54.5242L617.39 55.7354ZM588.589 71.2874V69.8874C569.119 69.8874 555.046 55.3589 555.046 36.3434H553.646H552.245C552.245 56.8798 567.548 72.6874 588.589 72.6874V71.2874ZM553.646 36.3434H555.046C555.046 17.3278 569.119 2.79935 588.589 2.79935V1.39935V-0.000648499C567.548 -0.000648499 552.245 15.8069 552.245 36.3434H553.646ZM588.589 1.39935V2.79935C600.316 2.79935 610.607 8.61245 616.198 17.6858L617.39 16.9514L618.581 16.2169C612.46 6.28226 601.247 -0.000648499 588.589 -0.000648499V1.39935ZM617.39 16.9514L616.687 15.7402L603.439 23.4202L604.141 24.6314L604.844 25.8426L618.092 18.1626L617.39 16.9514ZM604.141 24.6314L605.356 23.9343C602.092 18.2498 595.826 14.9754 588.589 14.9754V16.3754V17.7754C594.985 17.7754 600.239 20.6449 602.927 25.3284L604.141 24.6314ZM588.589 16.3754V14.9754C582.316 14.9754 577.039 17.0822 573.332 20.8815C569.627 24.6772 567.606 30.0414 567.606 36.3434H569.005H570.406C570.406 30.6453 572.224 26.0256 575.335 22.8372C578.443 19.6525 582.959 17.7754 588.589 17.7754V16.3754ZM569.005 36.3434H567.606C567.606 42.6453 569.627 48.0096 573.332 51.8052C577.039 55.6045 582.316 57.7114 588.589 57.7114V56.3114V54.9114C582.959 54.9114 578.443 53.0342 575.335 49.8495C572.224 46.6612 570.406 42.0414 570.406 36.3434H569.005ZM588.589 56.3114V57.7114C595.812 57.7114 602.193 54.4459 605.365 48.7353L604.141 48.0554L602.918 47.3755C600.33 52.0328 594.999 54.9114 588.589 54.9114V56.3114ZM604.141 48.0554L603.439 49.2666L616.687 56.9466L617.39 55.7354L618.092 54.5242L604.844 46.8442L604.141 48.0554ZM617.39 55.7354L616.192 55.0097C610.7 64.0713 600.416 69.8874 588.589 69.8874V71.2874V72.6874C601.339 72.6874 612.559 66.4074 618.587 56.461L617.39 55.7354ZM660.012 2.74335V1.34335L658.612 2.74335H660.012ZM675.372 2.74335H676.772L675.372 1.34335V2.74335ZM675.372 69.9434V71.3434L676.772 69.9434H675.372ZM660.012 69.9434H658.612L660.012 71.3434V69.9434ZM660.012 43.2554H661.412L660.012 41.8554V43.2554ZM638.892 43.2554V41.8554L637.492 43.2554H638.892ZM638.892 69.9434V71.3434L640.292 69.9434H638.892ZM623.532 69.9434H622.132L623.532 71.3434V69.9434ZM623.532 2.74335V1.34335L622.132 2.74335H623.532ZM638.892 2.74335H640.292L638.892 1.34335V2.74335ZM638.892 28.4714H637.492L638.892 29.8714V28.4714ZM660.012 28.4714V29.8714L661.412 28.4714H660.012ZM660.012 2.74335V4.14336H675.372V2.74335V1.34335H660.012V2.74335ZM675.372 2.74335H673.972V69.9434H675.372H676.772V2.74335H675.372ZM675.372 69.9434V68.5434H660.012V69.9434V71.3434H675.372V69.9434ZM660.012 69.9434H661.412V43.2554H660.012H658.612V69.9434H660.012ZM660.012 43.2554V41.8554H638.892V43.2554V44.6554H660.012V43.2554ZM638.892 43.2554H637.492V69.9434H638.892H640.292V43.2554H638.892ZM638.892 69.9434V68.5434H623.532V69.9434V71.3434H638.892V69.9434ZM623.532 69.9434H624.932V2.74335H623.532H622.132V69.9434H623.532ZM623.532 2.74335V4.14336H638.892V2.74335V1.34335H623.532V2.74335ZM638.892 2.74335H637.492V28.4714H638.892H640.292V2.74335H638.892ZM638.892 28.4714V29.8714H660.012V28.4714V27.0714H638.892V28.4714ZM660.012 28.4714H661.412V2.74335H660.012H658.612V28.4714H660.012ZM769.659 16.9514L770.361 18.1626L770.851 16.2169L769.659 16.9514ZM756.411 24.6314L755.197 25.3284L757.113 25.8426L756.411 24.6314ZM756.411 48.0554L757.113 46.8442L755.187 47.3755L756.411 48.0554ZM769.659 55.7354L770.856 56.461L770.361 54.5242L769.659 55.7354ZM740.859 71.2874V69.8874C721.389 69.8874 707.315 55.3589 707.315 36.3434H705.915H704.515C704.515 56.8798 719.817 72.6874 740.859 72.6874V71.2874ZM705.915 36.3434H707.315C707.315 17.3278 721.389 2.79935 740.859 2.79935V1.39935V-0.000648499C719.817 -0.000648499 704.515 15.8069 704.515 36.3434H705.915ZM740.859 1.39935V2.79935C752.586 2.79935 762.877 8.61245 768.467 17.6858L769.659 16.9514L770.851 16.2169C764.73 6.28226 753.517 -0.000648499 740.859 -0.000648499V1.39935ZM769.659 16.9514L768.957 15.7402L755.709 23.4202L756.411 24.6314L757.113 25.8426L770.361 18.1626L769.659 16.9514ZM756.411 24.6314L757.625 23.9343C754.362 18.2498 748.096 14.9754 740.859 14.9754V16.3754V17.7754C747.254 17.7754 752.508 20.6449 755.197 25.3284L756.411 24.6314ZM740.859 16.3754V14.9754C734.585 14.9754 729.309 17.0822 725.601 20.8815C721.897 24.6772 719.875 30.0414 719.875 36.3434H721.275H722.675C722.675 30.6453 724.493 26.0256 727.605 22.8372C730.713 19.6525 735.229 17.7754 740.859 17.7754V16.3754ZM721.275 36.3434H719.875C719.875 42.6453 721.897 48.0096 725.601 51.8052C729.309 55.6045 734.585 57.7114 740.859 57.7114V56.3114V54.9114C735.229 54.9114 730.713 53.0342 727.605 49.8495C724.493 46.6612 722.675 42.0414 722.675 36.3434H721.275ZM740.859 56.3114V57.7114C748.082 57.7114 754.462 54.4459 757.635 48.7353L756.411 48.0554L755.187 47.3755C752.6 52.0328 747.268 54.9114 740.859 54.9114V56.3114ZM756.411 48.0554L755.709 49.2666L768.957 56.9466L769.659 55.7354L770.361 54.5242L757.113 46.8442L756.411 48.0554ZM769.659 55.7354L768.462 55.0097C762.97 64.0713 752.686 69.8874 740.859 69.8874V71.2874V72.6874C753.608 72.6874 764.828 66.4074 770.856 56.461L769.659 55.7354ZM806.928 71.2874V69.8874C788.393 69.8874 773.384 55.3336 773.384 36.3434H771.984H770.584C770.584 56.9051 786.871 72.6874 806.928 72.6874V71.2874ZM771.984 36.3434H773.384C773.384 17.3531 788.393 2.79935 806.928 2.79935V1.39935V-0.000648499C786.871 -0.000648499 770.584 15.7816 770.584 36.3434H771.984ZM806.928 1.39935V2.79935C825.463 2.79935 840.472 17.3531 840.472 36.3434H841.872H843.272C843.272 15.7816 826.985 -0.000648499 806.928 -0.000648499V1.39935ZM841.872 36.3434H840.472C840.472 55.3336 825.463 69.8874 806.928 69.8874V71.2874V72.6874C826.985 72.6874 843.272 56.9051 843.272 36.3434H841.872ZM806.928 56.3114V57.7114C818.632 57.7114 827.912 49.1301 827.912 36.3434H826.512H825.112C825.112 47.5567 817.112 54.9114 806.928 54.9114V56.3114ZM826.512 36.3434H827.912C827.912 23.5567 818.632 14.9754 806.928 14.9754V16.3754V17.7754C817.112 17.7754 825.112 25.1301 825.112 36.3434H826.512ZM806.928 16.3754V14.9754C795.224 14.9754 785.944 23.5567 785.944 36.3434H787.344H788.744C788.744 25.1301 796.744 17.7754 806.928 17.7754V16.3754ZM787.344 36.3434H785.944C785.944 49.1301 795.224 57.7114 806.928 57.7114V56.3114V54.9114C796.744 54.9114 788.744 47.5567 788.744 36.3434H787.344ZM889.747 69.9434L888.413 70.3678L889.747 71.3434V69.9434ZM886.387 59.3834L887.721 58.9589L886.387 57.9834V59.3834ZM861.427 59.3834V57.9834L860.093 58.9589L861.427 59.3834ZM858.067 69.9434V71.3434L859.401 70.3678L858.067 69.9434ZM841.267 69.9434L839.941 69.4927L841.267 71.3434V69.9434ZM864.115 2.74335V1.34335L862.789 2.29269L864.115 2.74335ZM883.699 2.74335L885.024 2.29269L883.699 1.34335V2.74335ZM906.547 69.9434V71.3434L907.872 69.4927L906.547 69.9434ZM866.035 44.9834L864.701 44.5578L866.035 46.3834V44.9834ZM881.779 44.9834V46.3834L883.113 44.5578L881.779 44.9834ZM873.907 20.3114L875.241 19.8858H872.573L873.907 20.3114ZM889.747 69.9434L891.081 69.5189L887.721 58.9589L886.387 59.3834L885.053 59.8078L888.413 70.3678L889.747 69.9434ZM886.387 59.3834V57.9834H861.427V59.3834V60.7834H886.387V59.3834ZM861.427 59.3834L860.093 58.9589L856.733 69.5189L858.067 69.9434L859.401 70.3678L862.761 59.8078L861.427 59.3834ZM858.067 69.9434V68.5434H841.267V69.9434V71.3434H858.067V69.9434ZM841.267 69.9434L842.592 70.394L865.44 3.19402L864.115 2.74335L862.789 2.29269L839.941 69.4927L841.267 69.9434ZM864.115 2.74335V4.14336H883.699V2.74335V1.34335H864.115V2.74335ZM883.699 2.74335L882.373 3.19402L905.221 70.394L906.547 69.9434L907.872 69.4927L885.024 2.29269L883.699 2.74335ZM906.547 69.9434V68.5434H889.747V69.9434V71.3434H906.547V69.9434ZM866.035 44.9834V46.3834H881.779V44.9834V43.5834H866.035V44.9834ZM881.779 44.9834L883.113 44.5578L875.241 19.8858L873.907 20.3114L872.573 20.7369L880.445 45.4089L881.779 44.9834ZM873.907 20.3114L872.573 19.8858L864.701 44.5578L866.035 44.9834L867.369 45.4089L875.241 20.7369L873.907 20.3114ZM969.647 16.9514L970.349 18.1626L970.839 16.2169L969.647 16.9514ZM956.399 24.6314L955.185 25.3284L957.101 25.8426L956.399 24.6314ZM956.399 48.0554L957.101 46.8442L955.175 47.3755L956.399 48.0554ZM969.647 55.7354L970.845 56.461L970.349 54.5242L969.647 55.7354ZM940.847 71.2874V69.8874C921.377 69.8874 907.303 55.3589 907.303 36.3434H905.903H904.503C904.503 56.8798 919.805 72.6874 940.847 72.6874V71.2874ZM905.903 36.3434H907.303C907.303 17.3278 921.377 2.79935 940.847 2.79935V1.39935V-0.000648499C919.805 -0.000648499 904.503 15.8069 904.503 36.3434H905.903ZM940.847 1.39935V2.79935C952.574 2.79935 962.865 8.61245 968.455 17.6858L969.647 16.9514L970.839 16.2169C964.718 6.28226 953.505 -0.000648499 940.847 -0.000648499V1.39935ZM969.647 16.9514L968.945 15.7402L955.697 23.4202L956.399 24.6314L957.101 25.8426L970.349 18.1626L969.647 16.9514ZM956.399 24.6314L957.613 23.9343C954.35 18.2498 948.084 14.9754 940.847 14.9754V16.3754V17.7754C947.243 17.7754 952.496 20.6449 955.185 25.3284L956.399 24.6314ZM940.847 16.3754V14.9754C934.574 14.9754 929.297 17.0822 925.589 20.8815C921.885 24.6772 919.863 30.0414 919.863 36.3434H921.263H922.663C922.663 30.6453 924.482 26.0256 927.593 22.8372C930.701 19.6525 935.217 17.7754 940.847 17.7754V16.3754ZM921.263 36.3434H919.863C919.863 42.6453 921.885 48.0096 925.589 51.8052C929.297 55.6045 934.574 57.7114 940.847 57.7114V56.3114V54.9114C935.217 54.9114 930.701 53.0342 927.593 49.8495C924.482 46.6612 922.663 42.0414 922.663 36.3434H921.263ZM940.847 56.3114V57.7114C948.07 57.7114 954.451 54.4459 957.623 48.7353L956.399 48.0554L955.175 47.3755C952.588 52.0328 947.256 54.9114 940.847 54.9114V56.3114ZM956.399 48.0554L955.697 49.2666L968.945 56.9466L969.647 55.7354L970.349 54.5242L957.101 46.8442L956.399 48.0554ZM969.647 55.7354L968.45 55.0097C962.958 64.0713 952.674 69.8874 940.847 69.8874V71.2874V72.6874C953.596 72.6874 964.816 66.4074 970.845 56.461L969.647 55.7354ZM1012.27 2.74335V1.34335L1010.87 2.74335H1012.27ZM1027.63 2.74335H1029.03L1027.63 1.34335V2.74335ZM1027.63 69.9434V71.3434L1029.03 69.9434H1027.63ZM1012.27 69.9434H1010.87L1012.27 71.3434V69.9434ZM1012.27 43.2554H1013.67L1012.27 41.8554V43.2554ZM991.15 43.2554V41.8554L989.75 43.2554H991.15ZM991.15 69.9434V71.3434L992.55 69.9434H991.15ZM975.79 69.9434H974.39L975.79 71.3434V69.9434ZM975.79 2.74335V1.34335L974.39 2.74335H975.79ZM991.15 2.74335H992.55L991.15 1.34335V2.74335ZM991.15 28.4714H989.75L991.15 29.8714V28.4714ZM1012.27 28.4714V29.8714L1013.67 28.4714H1012.27ZM1012.27 2.74335V4.14336H1027.63V2.74335V1.34335H1012.27V2.74335ZM1027.63 2.74335H1026.23V69.9434H1027.63H1029.03V2.74335H1027.63ZM1027.63 69.9434V68.5434H1012.27V69.9434V71.3434H1027.63V69.9434ZM1012.27 69.9434H1013.67V43.2554H1012.27H1010.87V69.9434H1012.27ZM1012.27 43.2554V41.8554H991.15V43.2554V44.6554H1012.27V43.2554ZM991.15 43.2554H989.75V69.9434H991.15H992.55V43.2554H991.15ZM991.15 69.9434V68.5434H975.79V69.9434V71.3434H991.15V69.9434ZM975.79 69.9434H977.19V2.74335H975.79H974.39V69.9434H975.79ZM975.79 2.74335V4.14336H991.15V2.74335V1.34335H975.79V2.74335ZM991.15 2.74335H989.75V28.4714H991.15H992.55V2.74335H991.15ZM991.15 28.4714V29.8714H1012.27V28.4714V27.0714H991.15V28.4714ZM1012.27 28.4714H1013.67V2.74335H1012.27H1010.87V28.4714H1012.27Z" fill="white" mask="url(#path-1-outside-1_1907_609)"/>
</svg>
