<svg width="1286" height="91" viewBox="0 0 1286 91" fill="none" xmlns="http://www.w3.org/2000/svg">
<mask id="path-1-outside-1_1904_608" maskUnits="userSpaceOnUse" x="0" y="-0.720703" width="1286" height="92" fill="black">
<rect fill="white" y="-0.720703" width="1286" height="92"/>
<path d="M45.28 88.9593C19.96 88.9593 1.6 69.9993 1.6 45.2793C1.6 20.5593 19.96 1.59929 45.28 1.59929C60.52 1.59929 73.96 9.15929 81.28 21.0393L64.72 30.6393C61 24.1593 53.8 20.3193 45.28 20.3193C30.4 20.3193 20.8 30.2793 20.8 45.2793C20.8 60.2793 30.4 70.2393 45.28 70.2393C53.8 70.2393 61.12 66.3993 64.72 59.9193L81.28 69.5193C74.08 81.3993 60.64 88.9593 45.28 88.9593ZM127.866 88.9593C103.746 88.9593 84.1863 69.9993 84.1863 45.2793C84.1863 20.5593 103.746 1.59929 127.866 1.59929C151.986 1.59929 171.546 20.5593 171.546 45.2793C171.546 69.9993 151.986 88.9593 127.866 88.9593ZM127.866 70.2393C141.546 70.2393 152.346 60.2793 152.346 45.2793C152.346 30.2793 141.546 20.3193 127.866 20.3193C114.186 20.3193 103.386 30.2793 103.386 45.2793C103.386 60.2793 114.186 70.2393 127.866 70.2393ZM231.39 87.2793L227.19 74.0793H195.99L191.79 87.2793H170.79L199.35 3.27929H223.83L252.39 87.2793H231.39ZM201.75 56.0793H221.43L211.59 25.2393L201.75 56.0793ZM295.265 88.9593C269.945 88.9593 251.585 69.9993 251.585 45.2793C251.585 20.5593 269.945 1.59929 295.265 1.59929C310.505 1.59929 323.945 9.15929 331.265 21.0393L314.705 30.6393C310.985 24.1593 303.785 20.3193 295.265 20.3193C280.385 20.3193 270.785 30.2793 270.785 45.2793C270.785 60.2793 280.385 70.2393 295.265 70.2393C303.785 70.2393 311.105 66.3993 314.705 59.9193L331.265 69.5193C324.065 81.3993 310.625 88.9593 295.265 88.9593ZM384.543 3.27929H403.743V87.2793H384.543V53.9193H358.143V87.2793H338.943V3.27929H358.143V35.4393H384.543V3.27929ZM485.602 88.9593C460.282 88.9593 441.922 69.9993 441.922 45.2793C441.922 20.5593 460.282 1.59929 485.602 1.59929C500.842 1.59929 514.282 9.15929 521.602 21.0393L505.042 30.6393C501.322 24.1593 494.122 20.3193 485.602 20.3193C470.722 20.3193 461.122 30.2793 461.122 45.2793C461.122 60.2793 470.722 70.2393 485.602 70.2393C494.122 70.2393 501.442 66.3993 505.042 59.9193L521.602 69.5193C514.402 81.3993 500.962 88.9593 485.602 88.9593ZM568.188 88.9593C544.068 88.9593 524.508 69.9993 524.508 45.2793C524.508 20.5593 544.068 1.59929 568.188 1.59929C592.308 1.59929 611.868 20.5593 611.868 45.2793C611.868 69.9993 592.308 88.9593 568.188 88.9593ZM568.188 70.2393C581.868 70.2393 592.668 60.2793 592.668 45.2793C592.668 30.2793 581.868 20.3193 568.188 20.3193C554.508 20.3193 543.708 30.2793 543.708 45.2793C543.708 60.2793 554.508 70.2393 568.188 70.2393ZM671.712 87.2793L667.512 74.0793H636.312L632.112 87.2793H611.112L639.672 3.27929H664.152L692.712 87.2793H671.712ZM642.072 56.0793H661.752L651.912 25.2393L642.072 56.0793ZM735.587 88.9593C710.267 88.9593 691.907 69.9993 691.907 45.2793C691.907 20.5593 710.267 1.59929 735.587 1.59929C750.827 1.59929 764.267 9.15929 771.587 21.0393L755.028 30.6393C751.307 24.1593 744.107 20.3193 735.587 20.3193C720.707 20.3193 711.107 30.2793 711.107 45.2793C711.107 60.2793 720.707 70.2393 735.587 70.2393C744.107 70.2393 751.427 66.3993 755.028 59.9193L771.587 69.5193C764.387 81.3993 750.947 88.9593 735.587 88.9593ZM824.866 3.27929H844.066V87.2793H824.866V53.9193H798.466V87.2793H779.266V3.27929H798.466V35.4393H824.866V3.27929ZM925.924 88.9593C900.604 88.9593 882.244 69.9993 882.244 45.2793C882.244 20.5593 900.604 1.59929 925.924 1.59929C941.164 1.59929 954.604 9.15929 961.924 21.0393L945.364 30.6393C941.644 24.1593 934.444 20.3193 925.924 20.3193C911.044 20.3193 901.444 30.2793 901.444 45.2793C901.444 60.2793 911.044 70.2393 925.924 70.2393C934.444 70.2393 941.764 66.3993 945.364 59.9193L961.924 69.5193C954.724 81.3993 941.284 88.9593 925.924 88.9593ZM1008.51 88.9593C984.391 88.9593 964.831 69.9993 964.831 45.2793C964.831 20.5593 984.391 1.59929 1008.51 1.59929C1032.63 1.59929 1052.19 20.5593 1052.19 45.2793C1052.19 69.9993 1032.63 88.9593 1008.51 88.9593ZM1008.51 70.2393C1022.19 70.2393 1032.99 60.2793 1032.99 45.2793C1032.99 30.2793 1022.19 20.3193 1008.51 20.3193C994.831 20.3193 984.031 30.2793 984.031 45.2793C984.031 60.2793 994.831 70.2393 1008.51 70.2393ZM1112.03 87.2793L1107.83 74.0793H1076.63L1072.43 87.2793H1051.43L1079.99 3.27929H1104.47L1133.03 87.2793H1112.03ZM1082.39 56.0793H1102.07L1092.23 25.2393L1082.39 56.0793ZM1175.91 88.9593C1150.59 88.9593 1132.23 69.9993 1132.23 45.2793C1132.23 20.5593 1150.59 1.59929 1175.91 1.59929C1191.15 1.59929 1204.59 9.15929 1211.91 21.0393L1195.35 30.6393C1191.63 24.1593 1184.43 20.3193 1175.91 20.3193C1161.03 20.3193 1151.43 30.2793 1151.43 45.2793C1151.43 60.2793 1161.03 70.2393 1175.91 70.2393C1184.43 70.2393 1191.75 66.3993 1195.35 59.9193L1211.91 69.5193C1204.71 81.3993 1191.27 88.9593 1175.91 88.9593ZM1265.19 3.27929H1284.39V87.2793H1265.19V53.9193H1238.79V87.2793H1219.59V3.27929H1238.79V35.4393H1265.19V3.27929Z"/>
</mask>
<path d="M81.28 21.0393L82.0825 22.4235L82.6422 20.2L81.28 21.0393ZM64.72 30.6393L63.3324 31.4359L65.5225 32.0235L64.72 30.6393ZM64.72 59.9193L65.5225 58.5351L63.3214 59.1423L64.72 59.9193ZM81.28 69.5193L82.6483 70.3486L82.0825 68.1351L81.28 69.5193ZM45.28 88.9593V87.3593C20.8581 87.3593 3.2 69.1302 3.2 45.2793H1.6H0C0 70.8684 19.0619 90.5593 45.28 90.5593V88.9593ZM1.6 45.2793H3.2C3.2 21.4284 20.8581 3.1993 45.28 3.1993V1.59929V-0.000709534C19.0619 -0.000709534 0 19.6902 0 45.2793H1.6ZM45.28 1.59929V3.1993C59.9879 3.1993 72.9011 10.4908 79.9178 21.8786L81.28 21.0393L82.6422 20.2C75.0189 7.82776 61.0521 -0.000709534 45.28 -0.000709534V1.59929ZM81.28 21.0393L80.4776 19.6551L63.9176 29.2551L64.72 30.6393L65.5225 32.0235L82.0825 22.4235L81.28 21.0393ZM64.72 30.6393L66.1076 29.8427C62.0592 22.7906 54.2808 18.7193 45.28 18.7193V20.3193V21.9193C53.3192 21.9193 59.9408 25.528 63.3324 31.4359L64.72 30.6393ZM45.28 20.3193V18.7193C37.4725 18.7193 30.9177 21.3405 26.3149 26.0568C21.7163 30.7688 19.2 37.4342 19.2 45.2793H20.8H22.4C22.4 38.1244 24.6837 32.3098 28.6051 28.2918C32.5223 24.278 38.2075 21.9193 45.28 21.9193V20.3193ZM20.8 45.2793H19.2C19.2 53.1244 21.7163 59.7898 26.3149 64.5018C30.9177 69.218 37.4725 71.8393 45.28 71.8393V70.2393V68.6393C38.2075 68.6393 32.5223 66.2805 28.6051 62.2668C24.6837 58.2488 22.4 52.4342 22.4 45.2793H20.8ZM45.28 70.2393V71.8393C54.265 71.8393 62.1843 67.7782 66.1187 60.6963L64.72 59.9193L63.3214 59.1423C60.0557 65.0204 53.335 68.6393 45.28 68.6393V70.2393ZM64.72 59.9193L63.9176 61.3035L80.4776 70.9035L81.28 69.5193L82.0825 68.1351L65.5225 58.5351L64.72 59.9193ZM81.28 69.5193L79.9117 68.69C73.0181 80.0644 60.113 87.3593 45.28 87.3593V88.9593V90.5593C61.167 90.5593 75.1419 82.7342 82.6483 70.3486L81.28 69.5193ZM127.866 88.9593V87.3593C104.615 87.3593 85.7862 69.1013 85.7862 45.2793H84.1862H82.5863C82.5863 70.8973 102.877 90.5593 127.866 90.5593V88.9593ZM84.1862 45.2793H85.7862C85.7862 21.4573 104.615 3.1993 127.866 3.1993V1.59929V-0.000709534C102.877 -0.000709534 82.5863 19.6613 82.5863 45.2793H84.1862ZM127.866 1.59929V3.1993C151.117 3.1993 169.946 21.4573 169.946 45.2793H171.546H173.146C173.146 19.6613 152.855 -0.000709534 127.866 -0.000709534V1.59929ZM171.546 45.2793H169.946C169.946 69.1013 151.117 87.3593 127.866 87.3593V88.9593V90.5593C152.855 90.5593 173.146 70.8973 173.146 45.2793H171.546ZM127.866 70.2393V71.8393C142.414 71.8393 153.946 61.1784 153.946 45.2793H152.346H150.746C150.746 59.3802 140.678 68.6393 127.866 68.6393V70.2393ZM152.346 45.2793H153.946C153.946 29.3802 142.414 18.7193 127.866 18.7193V20.3193V21.9193C140.678 21.9193 150.746 31.1784 150.746 45.2793H152.346ZM127.866 20.3193V18.7193C113.318 18.7193 101.786 29.3802 101.786 45.2793H103.386H104.986C104.986 31.1784 115.054 21.9193 127.866 21.9193V20.3193ZM103.386 45.2793H101.786C101.786 61.1784 113.318 71.8393 127.866 71.8393V70.2393V68.6393C115.054 68.6393 104.986 59.3802 104.986 45.2793H103.386ZM231.39 87.2793L229.865 87.7644L231.39 88.8793V87.2793ZM227.19 74.0793L228.714 73.5942L227.19 72.4793V74.0793ZM195.99 74.0793V72.4793L194.465 73.5942L195.99 74.0793ZM191.79 87.2793V88.8793L193.314 87.7644L191.79 87.2793ZM170.79 87.2793L169.275 86.7643L170.79 88.8793V87.2793ZM199.35 3.27929V1.67929L197.835 2.76424L199.35 3.27929ZM223.83 3.27929L225.345 2.76424L223.83 1.67929V3.27929ZM252.39 87.2793V88.8793L253.905 86.7643L252.39 87.2793ZM201.75 56.0793L200.225 55.5929L201.75 57.6793V56.0793ZM221.43 56.0793V57.6793L222.954 55.5929L221.43 56.0793ZM211.59 25.2393L213.114 24.7529H210.065L211.59 25.2393ZM231.39 87.2793L232.914 86.7942L228.714 73.5942L227.19 74.0793L225.665 74.5644L229.865 87.7644L231.39 87.2793ZM227.19 74.0793V72.4793H195.99V74.0793V75.6793H227.19V74.0793ZM195.99 74.0793L194.465 73.5942L190.265 86.7942L191.79 87.2793L193.314 87.7644L197.514 74.5644L195.99 74.0793ZM191.79 87.2793V85.6793H170.79V87.2793V88.8793H191.79V87.2793ZM170.79 87.2793L172.305 87.7943L200.865 3.79433L199.35 3.27929L197.835 2.76424L169.275 86.7643L170.79 87.2793ZM199.35 3.27929V4.87929H223.83V3.27929V1.67929H199.35V3.27929ZM223.83 3.27929L222.315 3.79433L250.875 87.7943L252.39 87.2793L253.905 86.7643L225.345 2.76424L223.83 3.27929ZM252.39 87.2793V85.6793H231.39V87.2793V88.8793H252.39V87.2793ZM201.75 56.0793V57.6793H221.43V56.0793V54.4793H201.75V56.0793ZM221.43 56.0793L222.954 55.5929L213.114 24.7529L211.59 25.2393L210.065 25.7256L219.905 56.5656L221.43 56.0793ZM211.59 25.2393L210.065 24.7529L200.225 55.5929L201.75 56.0793L203.274 56.5656L213.114 25.7256L211.59 25.2393ZM331.265 21.0393L332.068 22.4235L332.628 20.2L331.265 21.0393ZM314.705 30.6393L313.318 31.4359L315.508 32.0235L314.705 30.6393ZM314.705 59.9193L315.508 58.5351L313.307 59.1423L314.705 59.9193ZM331.265 69.5193L332.634 70.3486L332.068 68.1351L331.265 69.5193ZM295.265 88.9593V87.3593C270.843 87.3593 253.185 69.1302 253.185 45.2793H251.585H249.985C249.985 70.8684 269.047 90.5593 295.265 90.5593V88.9593ZM251.585 45.2793H253.185C253.185 21.4284 270.843 3.1993 295.265 3.1993V1.59929V-0.000709534C269.047 -0.000709534 249.985 19.6902 249.985 45.2793H251.585ZM295.265 1.59929V3.1993C309.973 3.1993 322.886 10.4908 329.903 21.8786L331.265 21.0393L332.628 20.2C325.004 7.82776 311.037 -0.000709534 295.265 -0.000709534V1.59929ZM331.265 21.0393L330.463 19.6551L313.903 29.2551L314.705 30.6393L315.508 32.0235L332.068 22.4235L331.265 21.0393ZM314.705 30.6393L316.093 29.8427C312.044 22.7906 304.266 18.7193 295.265 18.7193V20.3193V21.9193C303.304 21.9193 309.926 25.528 313.318 31.4359L314.705 30.6393ZM295.265 20.3193V18.7193C287.458 18.7193 280.903 21.3405 276.3 26.0568C271.702 30.7688 269.185 37.4342 269.185 45.2793H270.785H272.385C272.385 38.1244 274.669 32.3098 278.59 28.2918C282.508 24.278 288.193 21.9193 295.265 21.9193V20.3193ZM270.785 45.2793H269.185C269.185 53.1244 271.702 59.7898 276.3 64.5018C280.903 69.218 287.458 71.8393 295.265 71.8393V70.2393V68.6393C288.193 68.6393 282.508 66.2805 278.59 62.2668C274.669 58.2488 272.385 52.4342 272.385 45.2793H270.785ZM295.265 70.2393V71.8393C304.25 71.8393 312.17 67.7782 316.104 60.6963L314.705 59.9193L313.307 59.1423C310.041 65.0204 303.32 68.6393 295.265 68.6393V70.2393ZM314.705 59.9193L313.903 61.3035L330.463 70.9035L331.265 69.5193L332.068 68.1351L315.508 58.5351L314.705 59.9193ZM331.265 69.5193L329.897 68.69C323.003 80.0644 310.098 87.3593 295.265 87.3593V88.9593V90.5593C311.152 90.5593 325.127 82.7342 332.634 70.3486L331.265 69.5193ZM384.543 3.27929V1.67929L382.943 3.27929H384.543ZM403.743 3.27929H405.343L403.743 1.67929V3.27929ZM403.743 87.2793V88.8793L405.343 87.2793H403.743ZM384.543 87.2793H382.943L384.543 88.8793V87.2793ZM384.543 53.9193H386.143L384.543 52.3193V53.9193ZM358.143 53.9193V52.3193L356.543 53.9193H358.143ZM358.143 87.2793V88.8793L359.743 87.2793H358.143ZM338.943 87.2793H337.343L338.943 88.8793V87.2793ZM338.943 3.27929V1.67929L337.343 3.27929H338.943ZM358.143 3.27929H359.743L358.143 1.67929V3.27929ZM358.143 35.4393H356.543L358.143 37.0393V35.4393ZM384.543 35.4393V37.0393L386.143 35.4393H384.543ZM384.543 3.27929V4.87929H403.743V3.27929V1.67929H384.543V3.27929ZM403.743 3.27929H402.143V87.2793H403.743H405.343V3.27929H403.743ZM403.743 87.2793V85.6793H384.543V87.2793V88.8793H403.743V87.2793ZM384.543 87.2793H386.143V53.9193H384.543H382.943V87.2793H384.543ZM384.543 53.9193V52.3193H358.143V53.9193V55.5193H384.543V53.9193ZM358.143 53.9193H356.543V87.2793H358.143H359.743V53.9193H358.143ZM358.143 87.2793V85.6793H338.943V87.2793V88.8793H358.143V87.2793ZM338.943 87.2793H340.543V3.27929H338.943H337.343V87.2793H338.943ZM338.943 3.27929V4.87929H358.143V3.27929V1.67929H338.943V3.27929ZM358.143 3.27929H356.543V35.4393H358.143H359.743V3.27929H358.143ZM358.143 35.4393V37.0393H384.543V35.4393V33.8393H358.143V35.4393ZM384.543 35.4393H386.143V3.27929H384.543H382.943V35.4393H384.543ZM521.602 21.0393L522.405 22.4235L522.964 20.2L521.602 21.0393ZM505.042 30.6393L503.655 31.4359L505.845 32.0235L505.042 30.6393ZM505.042 59.9193L505.845 58.5351L503.644 59.1423L505.042 59.9193ZM521.602 69.5193L522.97 70.3486L522.405 68.1351L521.602 69.5193ZM485.602 88.9593V87.3593C461.18 87.3593 443.522 69.1302 443.522 45.2793H441.922H440.322C440.322 70.8684 459.384 90.5593 485.602 90.5593V88.9593ZM441.922 45.2793H443.522C443.522 21.4284 461.18 3.1993 485.602 3.1993V1.59929V-0.000709534C459.384 -0.000709534 440.322 19.6902 440.322 45.2793H441.922ZM485.602 1.59929V3.1993C500.31 3.1993 513.223 10.4908 520.24 21.8786L521.602 21.0393L522.964 20.2C515.341 7.82776 501.374 -0.000709534 485.602 -0.000709534V1.59929ZM521.602 21.0393L520.8 19.6551L504.24 29.2551L505.042 30.6393L505.845 32.0235L522.405 22.4235L521.602 21.0393ZM505.042 30.6393L506.43 29.8427C502.381 22.7906 494.603 18.7193 485.602 18.7193V20.3193V21.9193C493.641 21.9193 500.263 25.528 503.655 31.4359L505.042 30.6393ZM485.602 20.3193V18.7193C477.795 18.7193 471.24 21.3405 466.637 26.0568C462.038 30.7688 459.522 37.4342 459.522 45.2793H461.122H462.722C462.722 38.1244 465.006 32.3098 468.927 28.2918C472.844 24.278 478.53 21.9193 485.602 21.9193V20.3193ZM461.122 45.2793H459.522C459.522 53.1244 462.038 59.7898 466.637 64.5018C471.24 69.218 477.795 71.8393 485.602 71.8393V70.2393V68.6393C478.53 68.6393 472.844 66.2805 468.927 62.2668C465.006 58.2488 462.722 52.4342 462.722 45.2793H461.122ZM485.602 70.2393V71.8393C494.587 71.8393 502.506 67.7782 506.441 60.6963L505.042 59.9193L503.644 59.1423C500.378 65.0204 493.657 68.6393 485.602 68.6393V70.2393ZM505.042 59.9193L504.24 61.3035L520.8 70.9035L521.602 69.5193L522.405 68.1351L505.845 58.5351L505.042 59.9193ZM521.602 69.5193L520.234 68.69C513.34 80.0644 500.435 87.3593 485.602 87.3593V88.9593V90.5593C501.489 90.5593 515.464 82.7342 522.97 70.3486L521.602 69.5193ZM568.188 88.9593V87.3593C544.938 87.3593 526.108 69.1013 526.108 45.2793H524.508H522.908C522.908 70.8973 543.199 90.5593 568.188 90.5593V88.9593ZM524.508 45.2793H526.108C526.108 21.4573 544.938 3.1993 568.188 3.1993V1.59929V-0.000709534C543.199 -0.000709534 522.908 19.6613 522.908 45.2793H524.508ZM568.188 1.59929V3.1993C591.439 3.1993 610.268 21.4573 610.268 45.2793H611.868H613.468C613.468 19.6613 593.178 -0.000709534 568.188 -0.000709534V1.59929ZM611.868 45.2793H610.268C610.268 69.1013 591.439 87.3593 568.188 87.3593V88.9593V90.5593C593.178 90.5593 613.468 70.8973 613.468 45.2793H611.868ZM568.188 70.2393V71.8393C582.737 71.8393 594.268 61.1784 594.268 45.2793H592.668H591.068C591.068 59.3802 581 68.6393 568.188 68.6393V70.2393ZM592.668 45.2793H594.268C594.268 29.3802 582.737 18.7193 568.188 18.7193V20.3193V21.9193C581 21.9193 591.068 31.1784 591.068 45.2793H592.668ZM568.188 20.3193V18.7193C553.64 18.7193 542.108 29.3802 542.108 45.2793H543.708H545.308C545.308 31.1784 555.377 21.9193 568.188 21.9193V20.3193ZM543.708 45.2793H542.108C542.108 61.1784 553.64 71.8393 568.188 71.8393V70.2393V68.6393C555.377 68.6393 545.308 59.3802 545.308 45.2793H543.708ZM671.712 87.2793L670.187 87.7644L671.712 88.8793V87.2793ZM667.512 74.0793L669.037 73.5942L667.512 72.4793V74.0793ZM636.312 74.0793V72.4793L634.787 73.5942L636.312 74.0793ZM632.112 87.2793V88.8793L633.637 87.7644L632.112 87.2793ZM611.112 87.2793L609.597 86.7643L611.112 88.8793V87.2793ZM639.672 3.27929V1.67929L638.157 2.76424L639.672 3.27929ZM664.152 3.27929L665.667 2.76424L664.152 1.67929V3.27929ZM692.712 87.2793V88.8793L694.227 86.7643L692.712 87.2793ZM642.072 56.0793L640.548 55.5929L642.072 57.6793V56.0793ZM661.752 56.0793V57.6793L663.276 55.5929L661.752 56.0793ZM651.912 25.2393L653.436 24.7529H650.388L651.912 25.2393ZM671.712 87.2793L673.237 86.7942L669.037 73.5942L667.512 74.0793L665.987 74.5644L670.187 87.7644L671.712 87.2793ZM667.512 74.0793V72.4793H636.312V74.0793V75.6793H667.512V74.0793ZM636.312 74.0793L634.787 73.5942L630.587 86.7942L632.112 87.2793L633.637 87.7644L637.837 74.5644L636.312 74.0793ZM632.112 87.2793V85.6793H611.112V87.2793V88.8793H632.112V87.2793ZM611.112 87.2793L612.627 87.7943L641.187 3.79433L639.672 3.27929L638.157 2.76424L609.597 86.7643L611.112 87.2793ZM639.672 3.27929V4.87929H664.152V3.27929V1.67929H639.672V3.27929ZM664.152 3.27929L662.637 3.79433L691.197 87.7943L692.712 87.2793L694.227 86.7643L665.667 2.76424L664.152 3.27929ZM692.712 87.2793V85.6793H671.712V87.2793V88.8793H692.712V87.2793ZM642.072 56.0793V57.6793H661.752V56.0793V54.4793H642.072V56.0793ZM661.752 56.0793L663.276 55.5929L653.436 24.7529L651.912 25.2393L650.388 25.7256L660.228 56.5656L661.752 56.0793ZM651.912 25.2393L650.388 24.7529L640.548 55.5929L642.072 56.0793L643.596 56.5656L653.436 25.7256L651.912 25.2393ZM771.588 21.0393L772.39 22.4235L772.95 20.2L771.588 21.0393ZM755.028 30.6393L753.64 31.4359L755.83 32.0235L755.028 30.6393ZM755.028 59.9193L755.83 58.5351L753.629 59.1423L755.028 59.9193ZM771.588 69.5193L772.956 70.3486L772.39 68.1351L771.588 69.5193ZM735.588 88.9593V87.3593C711.166 87.3593 693.508 69.1302 693.508 45.2793H691.907H690.307C690.307 70.8684 709.369 90.5593 735.588 90.5593V88.9593ZM691.907 45.2793H693.508C693.508 21.4284 711.166 3.1993 735.588 3.1993V1.59929V-0.000709534C709.369 -0.000709534 690.307 19.6902 690.307 45.2793H691.907ZM735.588 1.59929V3.1993C750.295 3.1993 763.209 10.4908 770.225 21.8786L771.588 21.0393L772.95 20.2C765.326 7.82776 751.36 -0.000709534 735.588 -0.000709534V1.59929ZM771.588 21.0393L770.785 19.6551L754.225 29.2551L755.028 30.6393L755.83 32.0235L772.39 22.4235L771.588 21.0393ZM755.028 30.6393L756.415 29.8427C752.367 22.7906 744.588 18.7193 735.588 18.7193V20.3193V21.9193C743.627 21.9193 750.248 25.528 753.64 31.4359L755.028 30.6393ZM735.588 20.3193V18.7193C727.78 18.7193 721.225 21.3405 716.622 26.0568C712.024 30.7688 709.508 37.4342 709.508 45.2793H711.107H712.708C712.708 38.1244 714.991 32.3098 718.913 28.2918C722.83 24.278 728.515 21.9193 735.588 21.9193V20.3193ZM711.107 45.2793H709.508C709.508 53.1244 712.024 59.7898 716.622 64.5018C721.225 69.218 727.78 71.8393 735.588 71.8393V70.2393V68.6393C728.515 68.6393 722.83 66.2805 718.913 62.2668C714.991 58.2488 712.708 52.4342 712.708 45.2793H711.107ZM735.588 70.2393V71.8393C744.573 71.8393 752.492 67.7782 756.426 60.6963L755.028 59.9193L753.629 59.1423C750.363 65.0204 743.642 68.6393 735.588 68.6393V70.2393ZM755.028 59.9193L754.225 61.3035L770.785 70.9035L771.588 69.5193L772.39 68.1351L755.83 58.5351L755.028 59.9193ZM771.588 69.5193L770.219 68.69C763.326 80.0644 750.42 87.3593 735.588 87.3593V88.9593V90.5593C751.474 90.5593 765.449 82.7342 772.956 70.3486L771.588 69.5193ZM824.866 3.27929V1.67929L823.266 3.27929H824.866ZM844.066 3.27929H845.666L844.066 1.67929V3.27929ZM844.066 87.2793V88.8793L845.666 87.2793H844.066ZM824.866 87.2793H823.266L824.866 88.8793V87.2793ZM824.866 53.9193H826.466L824.866 52.3193V53.9193ZM798.466 53.9193V52.3193L796.866 53.9193H798.466ZM798.466 87.2793V88.8793L800.066 87.2793H798.466ZM779.266 87.2793H777.666L779.266 88.8793V87.2793ZM779.266 3.27929V1.67929L777.666 3.27929H779.266ZM798.466 3.27929H800.066L798.466 1.67929V3.27929ZM798.466 35.4393H796.866L798.466 37.0393V35.4393ZM824.866 35.4393V37.0393L826.466 35.4393H824.866ZM824.866 3.27929V4.87929H844.066V3.27929V1.67929H824.866V3.27929ZM844.066 3.27929H842.466V87.2793H844.066H845.666V3.27929H844.066ZM844.066 87.2793V85.6793H824.866V87.2793V88.8793H844.066V87.2793ZM824.866 87.2793H826.466V53.9193H824.866H823.266V87.2793H824.866ZM824.866 53.9193V52.3193H798.466V53.9193V55.5193H824.866V53.9193ZM798.466 53.9193H796.866V87.2793H798.466H800.066V53.9193H798.466ZM798.466 87.2793V85.6793H779.266V87.2793V88.8793H798.466V87.2793ZM779.266 87.2793H780.866V3.27929H779.266H777.666V87.2793H779.266ZM779.266 3.27929V4.87929H798.466V3.27929V1.67929H779.266V3.27929ZM798.466 3.27929H796.866V35.4393H798.466H800.066V3.27929H798.466ZM798.466 35.4393V37.0393H824.866V35.4393V33.8393H798.466V35.4393ZM824.866 35.4393H826.466V3.27929H824.866H823.266V35.4393H824.866ZM961.924 21.0393L962.727 22.4235L963.286 20.2L961.924 21.0393ZM945.364 30.6393L943.977 31.4359L946.167 32.0235L945.364 30.6393ZM945.364 59.9193L946.167 58.5351L943.966 59.1423L945.364 59.9193ZM961.924 69.5193L963.293 70.3486L962.727 68.1351L961.924 69.5193ZM925.924 88.9593V87.3593C901.503 87.3593 883.844 69.1302 883.844 45.2793H882.244H880.644C880.644 70.8684 899.706 90.5593 925.924 90.5593V88.9593ZM882.244 45.2793H883.844C883.844 21.4284 901.503 3.1993 925.924 3.1993V1.59929V-0.000709534C899.706 -0.000709534 880.644 19.6902 880.644 45.2793H882.244ZM925.924 1.59929V3.1993C940.632 3.1993 953.545 10.4908 960.562 21.8786L961.924 21.0393L963.286 20.2C955.663 7.82776 941.696 -0.000709534 925.924 -0.000709534V1.59929ZM961.924 21.0393L961.122 19.6551L944.562 29.2551L945.364 30.6393L946.167 32.0235L962.727 22.4235L961.924 21.0393ZM945.364 30.6393L946.752 29.8427C942.704 22.7906 934.925 18.7193 925.924 18.7193V20.3193V21.9193C933.964 21.9193 940.585 25.528 943.977 31.4359L945.364 30.6393ZM925.924 20.3193V18.7193C918.117 18.7193 911.562 21.3405 906.959 26.0568C902.361 30.7688 899.844 37.4342 899.844 45.2793H901.444H903.044C903.044 38.1244 905.328 32.3098 909.249 28.2918C913.167 24.278 918.852 21.9193 925.924 21.9193V20.3193ZM901.444 45.2793H899.844C899.844 53.1244 902.361 59.7898 906.959 64.5018C911.562 69.218 918.117 71.8393 925.924 71.8393V70.2393V68.6393C918.852 68.6393 913.167 66.2805 909.249 62.2668C905.328 58.2488 903.044 52.4342 903.044 45.2793H901.444ZM925.924 70.2393V71.8393C934.909 71.8393 942.829 67.7782 946.763 60.6963L945.364 59.9193L943.966 59.1423C940.7 65.0204 933.979 68.6393 925.924 68.6393V70.2393ZM945.364 59.9193L944.562 61.3035L961.122 70.9035L961.924 69.5193L962.727 68.1351L946.167 58.5351L945.364 59.9193ZM961.924 69.5193L960.556 68.69C953.662 80.0644 940.757 87.3593 925.924 87.3593V88.9593V90.5593C941.811 90.5593 955.786 82.7342 963.293 70.3486L961.924 69.5193ZM1008.51 88.9593V87.3593C985.26 87.3593 966.431 69.1013 966.431 45.2793H964.831H963.231C963.231 70.8973 983.521 90.5593 1008.51 90.5593V88.9593ZM964.831 45.2793H966.431C966.431 21.4573 985.26 3.1993 1008.51 3.1993V1.59929V-0.000709534C983.521 -0.000709534 963.231 19.6613 963.231 45.2793H964.831ZM1008.51 1.59929V3.1993C1031.76 3.1993 1050.59 21.4573 1050.59 45.2793H1052.19H1053.79C1053.79 19.6613 1033.5 -0.000709534 1008.51 -0.000709534V1.59929ZM1052.19 45.2793H1050.59C1050.59 69.1013 1031.76 87.3593 1008.51 87.3593V88.9593V90.5593C1033.5 90.5593 1053.79 70.8973 1053.79 45.2793H1052.19ZM1008.51 70.2393V71.8393C1023.06 71.8393 1034.59 61.1784 1034.59 45.2793H1032.99H1031.39C1031.39 59.3802 1021.32 68.6393 1008.51 68.6393V70.2393ZM1032.99 45.2793H1034.59C1034.59 29.3802 1023.06 18.7193 1008.51 18.7193V20.3193V21.9193C1021.32 21.9193 1031.39 31.1784 1031.39 45.2793H1032.99ZM1008.51 20.3193V18.7193C993.963 18.7193 982.431 29.3802 982.431 45.2793H984.031H985.631C985.631 31.1784 995.699 21.9193 1008.51 21.9193V20.3193ZM984.031 45.2793H982.431C982.431 61.1784 993.963 71.8393 1008.51 71.8393V70.2393V68.6393C995.699 68.6393 985.631 59.3802 985.631 45.2793H984.031ZM1112.03 87.2793L1110.51 87.7644L1112.03 88.8793V87.2793ZM1107.83 74.0793L1109.36 73.5942L1107.83 72.4793V74.0793ZM1076.63 74.0793V72.4793L1075.11 73.5942L1076.63 74.0793ZM1072.43 87.2793V88.8793L1073.96 87.7644L1072.43 87.2793ZM1051.43 87.2793L1049.92 86.7643L1051.43 88.8793V87.2793ZM1079.99 3.27929V1.67929L1078.48 2.76424L1079.99 3.27929ZM1104.47 3.27929L1105.99 2.76424L1104.47 1.67929V3.27929ZM1133.03 87.2793V88.8793L1134.55 86.7643L1133.03 87.2793ZM1082.39 56.0793L1080.87 55.5929L1082.39 57.6793V56.0793ZM1102.07 56.0793V57.6793L1103.6 55.5929L1102.07 56.0793ZM1092.23 25.2393L1093.76 24.7529H1090.71L1092.23 25.2393ZM1112.03 87.2793L1113.56 86.7942L1109.36 73.5942L1107.83 74.0793L1106.31 74.5644L1110.51 87.7644L1112.03 87.2793ZM1107.83 74.0793V72.4793H1076.63V74.0793V75.6793H1107.83V74.0793ZM1076.63 74.0793L1075.11 73.5942L1070.91 86.7942L1072.43 87.2793L1073.96 87.7644L1078.16 74.5644L1076.63 74.0793ZM1072.43 87.2793V85.6793H1051.43V87.2793V88.8793H1072.43V87.2793ZM1051.43 87.2793L1052.95 87.7943L1081.51 3.79433L1079.99 3.27929L1078.48 2.76424L1049.92 86.7643L1051.43 87.2793ZM1079.99 3.27929V4.87929H1104.47V3.27929V1.67929H1079.99V3.27929ZM1104.47 3.27929L1102.96 3.79433L1131.52 87.7943L1133.03 87.2793L1134.55 86.7643L1105.99 2.76424L1104.47 3.27929ZM1133.03 87.2793V85.6793H1112.03V87.2793V88.8793H1133.03V87.2793ZM1082.39 56.0793V57.6793H1102.07V56.0793V54.4793H1082.39V56.0793ZM1102.07 56.0793L1103.6 55.5929L1093.76 24.7529L1092.23 25.2393L1090.71 25.7256L1100.55 56.5656L1102.07 56.0793ZM1092.23 25.2393L1090.71 24.7529L1080.87 55.5929L1082.39 56.0793L1083.92 56.5656L1093.76 25.7256L1092.23 25.2393ZM1211.91 21.0393L1212.71 22.4235L1213.27 20.2L1211.91 21.0393ZM1195.35 30.6393L1193.96 31.4359L1196.15 32.0235L1195.35 30.6393ZM1195.35 59.9193L1196.15 58.5351L1193.95 59.1423L1195.35 59.9193ZM1211.91 69.5193L1213.28 70.3486L1212.71 68.1351L1211.91 69.5193ZM1175.91 88.9593V87.3593C1151.49 87.3593 1133.83 69.1302 1133.83 45.2793H1132.23H1130.63C1130.63 70.8684 1149.69 90.5593 1175.91 90.5593V88.9593ZM1132.23 45.2793H1133.83C1133.83 21.4284 1151.49 3.1993 1175.91 3.1993V1.59929V-0.000709534C1149.69 -0.000709534 1130.63 19.6902 1130.63 45.2793H1132.23ZM1175.91 1.59929V3.1993C1190.62 3.1993 1203.53 10.4908 1210.55 21.8786L1211.91 21.0393L1213.27 20.2C1205.65 7.82776 1191.68 -0.000709534 1175.91 -0.000709534V1.59929ZM1211.91 21.0393L1211.11 19.6551L1194.55 29.2551L1195.35 30.6393L1196.15 32.0235L1212.71 22.4235L1211.91 21.0393ZM1195.35 30.6393L1196.74 29.8427C1192.69 22.7906 1184.91 18.7193 1175.91 18.7193V20.3193V21.9193C1183.95 21.9193 1190.57 25.528 1193.96 31.4359L1195.35 30.6393ZM1175.91 20.3193V18.7193C1168.1 18.7193 1161.55 21.3405 1156.94 26.0568C1152.35 30.7688 1149.83 37.4342 1149.83 45.2793H1151.43H1153.03C1153.03 38.1244 1155.31 32.3098 1159.23 28.2918C1163.15 24.278 1168.84 21.9193 1175.91 21.9193V20.3193ZM1151.43 45.2793H1149.83C1149.83 53.1244 1152.35 59.7898 1156.94 64.5018C1161.55 69.218 1168.1 71.8393 1175.91 71.8393V70.2393V68.6393C1168.84 68.6393 1163.15 66.2805 1159.23 62.2668C1155.31 58.2488 1153.03 52.4342 1153.03 45.2793H1151.43ZM1175.91 70.2393V71.8393C1184.89 71.8393 1192.81 67.7782 1196.75 60.6963L1195.35 59.9193L1193.95 59.1423C1190.69 65.0204 1183.96 68.6393 1175.91 68.6393V70.2393ZM1195.35 59.9193L1194.55 61.3035L1211.11 70.9035L1211.91 69.5193L1212.71 68.1351L1196.15 58.5351L1195.35 59.9193ZM1211.91 69.5193L1210.54 68.69C1203.65 80.0644 1190.74 87.3593 1175.91 87.3593V88.9593V90.5593C1191.8 90.5593 1205.77 82.7342 1213.28 70.3486L1211.91 69.5193ZM1265.19 3.27929V1.67929L1263.59 3.27929H1265.19ZM1284.39 3.27929H1285.99L1284.39 1.67929V3.27929ZM1284.39 87.2793V88.8793L1285.99 87.2793H1284.39ZM1265.19 87.2793H1263.59L1265.19 88.8793V87.2793ZM1265.19 53.9193H1266.79L1265.19 52.3193V53.9193ZM1238.79 53.9193V52.3193L1237.19 53.9193H1238.79ZM1238.79 87.2793V88.8793L1240.39 87.2793H1238.79ZM1219.59 87.2793H1217.99L1219.59 88.8793V87.2793ZM1219.59 3.27929V1.67929L1217.99 3.27929H1219.59ZM1238.79 3.27929H1240.39L1238.79 1.67929V3.27929ZM1238.79 35.4393H1237.19L1238.79 37.0393V35.4393ZM1265.19 35.4393V37.0393L1266.79 35.4393H1265.19ZM1265.19 3.27929V4.87929H1284.39V3.27929V1.67929H1265.19V3.27929ZM1284.39 3.27929H1282.79V87.2793H1284.39H1285.99V3.27929H1284.39ZM1284.39 87.2793V85.6793H1265.19V87.2793V88.8793H1284.39V87.2793ZM1265.19 87.2793H1266.79V53.9193H1265.19H1263.59V87.2793H1265.19ZM1265.19 53.9193V52.3193H1238.79V53.9193V55.5193H1265.19V53.9193ZM1238.79 53.9193H1237.19V87.2793H1238.79H1240.39V53.9193H1238.79ZM1238.79 87.2793V85.6793H1219.59V87.2793V88.8793H1238.79V87.2793ZM1219.59 87.2793H1221.19V3.27929H1219.59H1217.99V87.2793H1219.59ZM1219.59 3.27929V4.87929H1238.79V3.27929V1.67929H1219.59V3.27929ZM1238.79 3.27929H1237.19V35.4393H1238.79H1240.39V3.27929H1238.79ZM1238.79 35.4393V37.0393H1265.19V35.4393V33.8393H1238.79V35.4393ZM1265.19 35.4393H1266.79V3.27929H1265.19H1263.59V35.4393H1265.19Z" fill="white" mask="url(#path-1-outside-1_1904_608)"/>
</svg>
