<svg width="2187" height="115" viewBox="0 0 2187 115" fill="none" xmlns="http://www.w3.org/2000/svg">
<mask id="path-1-outside-1_1717_634" maskUnits="userSpaceOnUse" x="-0.55957" y="-0.472656" width="2188" height="116" fill="black">
<rect fill="white" x="-0.55957" y="-0.472656" width="2188" height="116"/>
<path d="M57.3284 112.655C25.2564 112.655 2.00043 88.6393 2.00043 57.3273C2.00043 26.0153 25.2564 1.99934 57.3284 1.99934C76.6324 1.99934 93.6564 11.5753 102.928 26.6233L81.9524 38.7833C77.2404 30.5753 68.1204 25.7113 57.3284 25.7113C38.4804 25.7113 26.3204 38.3273 26.3204 57.3273C26.3204 76.3273 38.4804 88.9433 57.3284 88.9433C68.1204 88.9433 77.3924 84.0793 81.9524 75.8713L102.928 88.0313C93.8084 103.079 76.7844 112.655 57.3284 112.655ZM161.938 112.655C131.386 112.655 106.61 88.6393 106.61 57.3273C106.61 26.0153 131.386 1.99934 161.938 1.99934C192.49 1.99934 217.266 26.0153 217.266 57.3273C217.266 88.6393 192.49 112.655 161.938 112.655ZM161.938 88.9433C179.266 88.9433 192.946 76.3273 192.946 57.3273C192.946 38.3273 179.266 25.7113 161.938 25.7113C144.61 25.7113 130.93 38.3273 130.93 57.3273C130.93 76.3273 144.61 88.9433 161.938 88.9433ZM293.067 110.527L287.747 93.8073H248.227L242.907 110.527H216.307L252.483 4.12734H283.491L319.667 110.527H293.067ZM255.523 71.0073H280.451L267.987 31.9433L255.523 71.0073ZM373.977 112.655C341.905 112.655 318.649 88.6393 318.649 57.3273C318.649 26.0153 341.905 1.99934 373.977 1.99934C393.281 1.99934 410.305 11.5753 419.577 26.6233L398.601 38.7833C393.889 30.5753 384.769 25.7113 373.977 25.7113C355.129 25.7113 342.969 38.3273 342.969 57.3273C342.969 76.3273 355.129 88.9433 373.977 88.9433C384.769 88.9433 394.041 84.0793 398.601 75.8713L419.577 88.0313C410.457 103.079 393.433 112.655 373.977 112.655ZM487.062 4.12734H511.382V110.527H487.062V68.2713H453.622V110.527H429.302V4.12734H453.622V44.8633H487.062V4.12734ZM615.07 112.655C582.998 112.655 559.742 88.6393 559.742 57.3273C559.742 26.0153 582.998 1.99934 615.07 1.99934C634.374 1.99934 651.398 11.5753 660.67 26.6233L639.694 38.7833C634.982 30.5753 625.862 25.7113 615.07 25.7113C596.222 25.7113 584.062 38.3273 584.062 57.3273C584.062 76.3273 596.222 88.9433 615.07 88.9433C625.862 88.9433 635.134 84.0793 639.694 75.8713L660.67 88.0313C651.55 103.079 634.526 112.655 615.07 112.655ZM719.679 112.655C689.127 112.655 664.351 88.6393 664.351 57.3273C664.351 26.0153 689.127 1.99934 719.679 1.99934C750.231 1.99934 775.007 26.0153 775.007 57.3273C775.007 88.6393 750.231 112.655 719.679 112.655ZM719.679 88.9433C737.007 88.9433 750.687 76.3273 750.687 57.3273C750.687 38.3273 737.007 25.7113 719.679 25.7113C702.351 25.7113 688.671 38.3273 688.671 57.3273C688.671 76.3273 702.351 88.9433 719.679 88.9433ZM850.809 110.527L845.489 93.8073H805.969L800.649 110.527H774.049L810.225 4.12734H841.233L877.409 110.527H850.809ZM813.265 71.0073H838.193L825.729 31.9433L813.265 71.0073ZM931.718 112.655C899.646 112.655 876.39 88.6393 876.39 57.3273C876.39 26.0153 899.646 1.99934 931.718 1.99934C951.022 1.99934 968.046 11.5753 977.318 26.6233L956.342 38.7833C951.63 30.5753 942.51 25.7113 931.718 25.7113C912.87 25.7113 900.71 38.3273 900.71 57.3273C900.71 76.3273 912.87 88.9433 931.718 88.9433C942.51 88.9433 951.782 84.0793 956.342 75.8713L977.318 88.0313C968.198 103.079 951.174 112.655 931.718 112.655ZM1044.8 4.12734H1069.12V110.527H1044.8V68.2713H1011.36V110.527H987.044V4.12734H1011.36V44.8633H1044.8V4.12734ZM1172.81 112.655C1140.74 112.655 1117.48 88.6393 1117.48 57.3273C1117.48 26.0153 1140.74 1.99934 1172.81 1.99934C1192.12 1.99934 1209.14 11.5753 1218.41 26.6233L1197.44 38.7833C1192.72 30.5753 1183.6 25.7113 1172.81 25.7113C1153.96 25.7113 1141.8 38.3273 1141.8 57.3273C1141.8 76.3273 1153.96 88.9433 1172.81 88.9433C1183.6 88.9433 1192.88 84.0793 1197.44 75.8713L1218.41 88.0313C1209.29 103.079 1192.27 112.655 1172.81 112.655ZM1277.42 112.655C1246.87 112.655 1222.09 88.6393 1222.09 57.3273C1222.09 26.0153 1246.87 1.99934 1277.42 1.99934C1307.97 1.99934 1332.75 26.0153 1332.75 57.3273C1332.75 88.6393 1307.97 112.655 1277.42 112.655ZM1277.42 88.9433C1294.75 88.9433 1308.43 76.3273 1308.43 57.3273C1308.43 38.3273 1294.75 25.7113 1277.42 25.7113C1260.09 25.7113 1246.41 38.3273 1246.41 57.3273C1246.41 76.3273 1260.09 88.9433 1277.42 88.9433ZM1408.55 110.527L1403.23 93.8073H1363.71L1358.39 110.527H1331.79L1367.97 4.12734H1398.97L1435.15 110.527H1408.55ZM1371.01 71.0073H1395.93L1383.47 31.9433L1371.01 71.0073ZM1489.46 112.655C1457.39 112.655 1434.13 88.6393 1434.13 57.3273C1434.13 26.0153 1457.39 1.99934 1489.46 1.99934C1508.76 1.99934 1525.79 11.5753 1535.06 26.6233L1514.08 38.7833C1509.37 30.5753 1500.25 25.7113 1489.46 25.7113C1470.61 25.7113 1458.45 38.3273 1458.45 57.3273C1458.45 76.3273 1470.61 88.9433 1489.46 88.9433C1500.25 88.9433 1509.52 84.0793 1514.08 75.8713L1535.06 88.0313C1525.94 103.079 1508.92 112.655 1489.46 112.655ZM1602.55 4.12734H1626.87V110.527H1602.55V68.2713H1569.11V110.527H1544.79V4.12734H1569.11V44.8633H1602.55V4.12734ZM1730.55 112.655C1698.48 112.655 1675.22 88.6393 1675.22 57.3273C1675.22 26.0153 1698.48 1.99934 1730.55 1.99934C1749.86 1.99934 1766.88 11.5753 1776.15 26.6233L1755.18 38.7833C1750.46 30.5753 1741.34 25.7113 1730.55 25.7113C1711.7 25.7113 1699.54 38.3273 1699.54 57.3273C1699.54 76.3273 1711.7 88.9433 1730.55 88.9433C1741.34 88.9433 1750.62 84.0793 1755.18 75.8713L1776.15 88.0313C1767.03 103.079 1750.01 112.655 1730.55 112.655ZM1835.16 112.655C1804.61 112.655 1779.83 88.6393 1779.83 57.3273C1779.83 26.0153 1804.61 1.99934 1835.16 1.99934C1865.71 1.99934 1890.49 26.0153 1890.49 57.3273C1890.49 88.6393 1865.71 112.655 1835.16 112.655ZM1835.16 88.9433C1852.49 88.9433 1866.17 76.3273 1866.17 57.3273C1866.17 38.3273 1852.49 25.7113 1835.16 25.7113C1817.83 25.7113 1804.15 38.3273 1804.15 57.3273C1804.15 76.3273 1817.83 88.9433 1835.16 88.9433ZM1966.29 110.527L1960.97 93.8073H1921.45L1916.13 110.527H1889.53L1925.71 4.12734H1956.72L1992.89 110.527H1966.29ZM1928.75 71.0073H1953.68L1941.21 31.9433L1928.75 71.0073ZM2047.2 112.655C2015.13 112.655 1991.87 88.6393 1991.87 57.3273C1991.87 26.0153 2015.13 1.99934 2047.2 1.99934C2066.5 1.99934 2083.53 11.5753 2092.8 26.6233L2071.82 38.7833C2067.11 30.5753 2057.99 25.7113 2047.2 25.7113C2028.35 25.7113 2016.19 38.3273 2016.19 57.3273C2016.19 76.3273 2028.35 88.9433 2047.2 88.9433C2057.99 88.9433 2067.26 84.0793 2071.82 75.8713L2092.8 88.0313C2083.68 103.079 2066.66 112.655 2047.2 112.655ZM2160.29 4.12734H2184.61V110.527H2160.29V68.2713H2126.85V110.527H2102.53V4.12734H2126.85V44.8633H2160.29V4.12734Z"/>
</mask>
<path d="M102.928 26.6233L103.931 28.3536L104.631 25.5742L102.928 26.6233ZM81.9524 38.7833L80.2179 39.7791L82.9555 40.5136L81.9524 38.7833ZM81.9524 75.8713L82.9555 74.1411L80.2041 74.9001L81.9524 75.8713ZM102.928 88.0313L104.639 89.0679L103.931 86.3011L102.928 88.0313ZM57.3284 112.655V110.655C26.3791 110.655 4.00043 87.553 4.00043 57.3273H2.00043H0.000429869C0.000429869 89.7257 24.1338 114.655 57.3284 114.655V112.655ZM2.00043 57.3273H4.00043C4.00043 27.1017 26.3791 3.99934 57.3284 3.99934V1.99934V-0.000663757C24.1338 -0.000663757 0.000429869 24.929 0.000429869 57.3273H2.00043ZM57.3284 1.99934V3.99934C75.9674 3.99934 92.3328 13.2398 101.226 27.6725L102.928 26.6233L104.631 25.5742C94.9801 9.91092 77.2975 -0.000663757 57.3284 -0.000663757V1.99934ZM102.928 26.6233L101.925 24.8931L80.9494 37.0531L81.9524 38.7833L82.9555 40.5136L103.931 28.3536L102.928 26.6233ZM81.9524 38.7833L83.6869 37.7876C78.5644 28.8645 68.7215 23.7113 57.3284 23.7113V25.7113V27.7113C67.5194 27.7113 75.9164 32.2862 80.2179 39.7791L81.9524 38.7833ZM57.3284 25.7113V23.7113C47.445 23.7113 39.1496 27.0294 33.3251 32.9974C27.5058 38.9602 24.3204 47.3959 24.3204 57.3273H26.3204H28.3204C28.3204 48.2587 31.2151 40.8865 36.1878 35.7912C41.1553 30.7013 48.3638 27.7113 57.3284 27.7113V25.7113ZM26.3204 57.3273H24.3204C24.3204 67.2587 27.5058 75.6945 33.3251 81.6572C39.1496 87.6253 47.445 90.9433 57.3284 90.9433V88.9433V86.9433C48.3638 86.9433 41.1553 83.9534 36.1878 78.8634C31.2151 73.7682 28.3204 66.3959 28.3204 57.3273H26.3204ZM57.3284 88.9433V90.9433C68.7017 90.9433 78.7228 85.803 83.7008 76.8426L81.9524 75.8713L80.2041 74.9001C76.0621 82.3557 67.5391 86.9433 57.3284 86.9433V88.9433ZM81.9524 75.8713L80.9494 77.6016L101.925 89.7616L102.928 88.0313L103.931 86.3011L82.9555 74.1411L81.9524 75.8713ZM102.928 88.0313L101.218 86.9947C92.4811 101.411 76.1257 110.655 57.3284 110.655V112.655V114.655C77.4432 114.655 95.1358 104.748 104.639 89.0679L102.928 88.0313ZM161.938 112.655V110.655C132.472 110.655 108.61 87.5168 108.61 57.3273H106.61H104.61C104.61 89.7618 130.299 114.655 161.938 114.655V112.655ZM106.61 57.3273H108.61C108.61 27.1378 132.472 3.99934 161.938 3.99934V1.99934V-0.000663757C130.299 -0.000663757 104.61 24.8928 104.61 57.3273H106.61ZM161.938 1.99934V3.99934C191.403 3.99934 215.266 27.1378 215.266 57.3273H217.266H219.266C219.266 24.8928 193.576 -0.000663757 161.938 -0.000663757V1.99934ZM217.266 57.3273H215.266C215.266 87.5168 191.403 110.655 161.938 110.655V112.655V114.655C193.576 114.655 219.266 89.7618 219.266 57.3273H217.266ZM161.938 88.9433V90.9433C180.351 90.9433 194.946 77.4512 194.946 57.3273H192.946H190.946C190.946 75.2035 178.181 86.9433 161.938 86.9433V88.9433ZM192.946 57.3273H194.946C194.946 37.2035 180.351 23.7113 161.938 23.7113V25.7113V27.7113C178.181 27.7113 190.946 39.4512 190.946 57.3273H192.946ZM161.938 25.7113V23.7113C143.525 23.7113 128.93 37.2035 128.93 57.3273H130.93H132.93C132.93 39.4512 145.695 27.7113 161.938 27.7113V25.7113ZM130.93 57.3273H128.93C128.93 77.4512 143.525 90.9433 161.938 90.9433V88.9433V86.9433C145.695 86.9433 132.93 75.2035 132.93 57.3273H130.93ZM293.067 110.527L291.162 111.134L293.067 112.527V110.527ZM287.747 93.8073L289.653 93.2009L287.747 91.8073V93.8073ZM248.227 93.8073V91.8073L246.322 93.2009L248.227 93.8073ZM242.907 110.527V112.527L244.813 111.134L242.907 110.527ZM216.307 110.527L214.414 109.884L216.307 112.527V110.527ZM252.483 4.12733V2.12733L250.59 3.48353L252.483 4.12733ZM283.491 4.12733L285.385 3.48353L283.491 2.12733V4.12733ZM319.667 110.527V112.527L321.561 109.884L319.667 110.527ZM255.523 71.0073L253.618 70.3994L255.523 73.0073V71.0073ZM280.451 71.0073V73.0073L282.357 70.3994L280.451 71.0073ZM267.987 31.9433L269.893 31.3354H266.082L267.987 31.9433ZM293.067 110.527L294.973 109.921L289.653 93.2009L287.747 93.8073L285.842 94.4137L291.162 111.134L293.067 110.527ZM287.747 93.8073V91.8073H248.227V93.8073V95.8073H287.747V93.8073ZM248.227 93.8073L246.322 93.2009L241.002 109.921L242.907 110.527L244.813 111.134L250.133 94.4137L248.227 93.8073ZM242.907 110.527V108.527H216.307V110.527V112.527H242.907V110.527ZM216.307 110.527L218.201 111.171L254.377 4.77114L252.483 4.12733L250.59 3.48353L214.414 109.884L216.307 110.527ZM252.483 4.12733V6.12733H283.491V4.12733V2.12733H252.483V4.12733ZM283.491 4.12733L281.598 4.77114L317.774 111.171L319.667 110.527L321.561 109.884L285.385 3.48353L283.491 4.12733ZM319.667 110.527V108.527H293.067V110.527V112.527H319.667V110.527ZM255.523 71.0073V73.0073H280.451V71.0073V69.0073H255.523V71.0073ZM280.451 71.0073L282.357 70.3994L269.893 31.3354L267.987 31.9433L266.082 32.5513L278.546 71.6153L280.451 71.0073ZM267.987 31.9433L266.082 31.3354L253.618 70.3994L255.523 71.0073L257.429 71.6153L269.893 32.5513L267.987 31.9433ZM419.577 26.6233L420.58 28.3536L421.279 25.5742L419.577 26.6233ZM398.601 38.7833L396.866 39.7791L399.604 40.5136L398.601 38.7833ZM398.601 75.8713L399.604 74.1411L396.852 74.9001L398.601 75.8713ZM419.577 88.0313L421.287 89.0679L420.58 86.3011L419.577 88.0313ZM373.977 112.655V110.655C343.027 110.655 320.648 87.553 320.648 57.3273H318.648H316.648C316.648 89.7257 340.782 114.655 373.977 114.655V112.655ZM318.648 57.3273H320.648C320.648 27.1017 343.027 3.99934 373.977 3.99934V1.99934V-0.000663757C340.782 -0.000663757 316.648 24.929 316.648 57.3273H318.648ZM373.977 1.99934V3.99934C392.615 3.99934 408.981 13.2398 417.874 27.6725L419.577 26.6233L421.279 25.5742C411.628 9.91092 393.946 -0.000663757 373.977 -0.000663757V1.99934ZM419.577 26.6233L418.573 24.8931L397.597 37.0531L398.601 38.7833L399.604 40.5136L420.58 28.3536L419.577 26.6233ZM398.601 38.7833L400.335 37.7876C395.212 28.8645 385.37 23.7113 373.977 23.7113V25.7113V27.7113C384.167 27.7113 392.565 32.2862 396.866 39.7791L398.601 38.7833ZM373.977 25.7113V23.7113C364.093 23.7113 355.798 27.0294 349.973 32.9974C344.154 38.9602 340.969 47.3959 340.969 57.3273H342.969H344.969C344.969 48.2587 347.863 40.8865 352.836 35.7912C357.803 30.7013 365.012 27.7113 373.977 27.7113V25.7113ZM342.969 57.3273H340.969C340.969 67.2587 344.154 75.6945 349.973 81.6572C355.798 87.6253 364.093 90.9433 373.977 90.9433V88.9433V86.9433C365.012 86.9433 357.803 83.9534 352.836 78.8634C347.863 73.7682 344.969 66.3959 344.969 57.3273H342.969ZM373.977 88.9433V90.9433C385.35 90.9433 395.371 85.803 400.349 76.8426L398.601 75.8713L396.852 74.9001C392.71 82.3557 384.187 86.9433 373.977 86.9433V88.9433ZM398.601 75.8713L397.597 77.6016L418.573 89.7616L419.577 88.0313L420.58 86.3011L399.604 74.1411L398.601 75.8713ZM419.577 88.0313L417.866 86.9947C409.129 101.411 392.774 110.655 373.977 110.655V112.655V114.655C394.091 114.655 411.784 104.748 421.287 89.0679L419.577 88.0313ZM487.062 4.12733V2.12733L485.062 4.12733H487.062ZM511.382 4.12733H513.382L511.382 2.12733V4.12733ZM511.382 110.527V112.527L513.382 110.527H511.382ZM487.062 110.527H485.062L487.062 112.527V110.527ZM487.062 68.2713H489.062L487.062 66.2713V68.2713ZM453.622 68.2713V66.2713L451.622 68.2713H453.622ZM453.622 110.527V112.527L455.622 110.527H453.622ZM429.302 110.527H427.302L429.302 112.527V110.527ZM429.302 4.12733V2.12733L427.302 4.12733H429.302ZM453.622 4.12733H455.622L453.622 2.12733V4.12733ZM453.622 44.8633H451.622L453.622 46.8633V44.8633ZM487.062 44.8633V46.8633L489.062 44.8633H487.062ZM487.062 4.12733V6.12733H511.382V4.12733V2.12733H487.062V4.12733ZM511.382 4.12733H509.382V110.527H511.382H513.382V4.12733H511.382ZM511.382 110.527V108.527H487.062V110.527V112.527H511.382V110.527ZM487.062 110.527H489.062V68.2713H487.062H485.062V110.527H487.062ZM487.062 68.2713V66.2713H453.622V68.2713V70.2713H487.062V68.2713ZM453.622 68.2713H451.622V110.527H453.622H455.622V68.2713H453.622ZM453.622 110.527V108.527H429.302V110.527V112.527H453.622V110.527ZM429.302 110.527H431.302V4.12733H429.302H427.302V110.527H429.302ZM429.302 4.12733V6.12733H453.622V4.12733V2.12733H429.302V4.12733ZM453.622 4.12733H451.622V44.8633H453.622H455.622V4.12733H453.622ZM453.622 44.8633V46.8633H487.062V44.8633V42.8633H453.622V44.8633ZM487.062 44.8633H489.062V4.12733H487.062H485.062V44.8633H487.062ZM660.67 26.6233L661.673 28.3536L662.373 25.5742L660.67 26.6233ZM639.694 38.7833L637.959 39.7791L640.697 40.5136L639.694 38.7833ZM639.694 75.8713L640.697 74.1411L637.946 74.9001L639.694 75.8713ZM660.67 88.0313L662.38 89.0679L661.673 86.3011L660.67 88.0313ZM615.07 112.655V110.655C584.121 110.655 561.742 87.553 561.742 57.3273H559.742H557.742C557.742 89.7257 581.875 114.655 615.07 114.655V112.655ZM559.742 57.3273H561.742C561.742 27.1017 584.121 3.99934 615.07 3.99934V1.99934V-0.000663757C581.875 -0.000663757 557.742 24.929 557.742 57.3273H559.742ZM615.07 1.99934V3.99934C633.709 3.99934 650.074 13.2398 658.967 27.6725L660.67 26.6233L662.373 25.5742C652.721 9.91092 635.039 -0.000663757 615.07 -0.000663757V1.99934ZM660.67 26.6233L659.667 24.8931L638.691 37.0531L639.694 38.7833L640.697 40.5136L661.673 28.3536L660.67 26.6233ZM639.694 38.7833L641.428 37.7876C636.306 28.8645 626.463 23.7113 615.07 23.7113V25.7113V27.7113C625.261 27.7113 633.658 32.2862 637.959 39.7791L639.694 38.7833ZM615.07 25.7113V23.7113C605.186 23.7113 596.891 27.0294 591.067 32.9974C585.247 38.9602 582.062 47.3959 582.062 57.3273H584.062H586.062C586.062 48.2587 588.957 40.8865 593.929 35.7912C598.897 30.7013 606.105 27.7113 615.07 27.7113V25.7113ZM584.062 57.3273H582.062C582.062 67.2587 585.247 75.6945 591.067 81.6572C596.891 87.6253 605.186 90.9433 615.07 90.9433V88.9433V86.9433C606.105 86.9433 598.897 83.9534 593.929 78.8634C588.957 73.7682 586.062 66.3959 586.062 57.3273H584.062ZM615.07 88.9433V90.9433C626.443 90.9433 636.464 85.803 641.442 76.8426L639.694 75.8713L637.946 74.9001C633.804 82.3557 625.281 86.9433 615.07 86.9433V88.9433ZM639.694 75.8713L638.691 77.6016L659.667 89.7616L660.67 88.0313L661.673 86.3011L640.697 74.1411L639.694 75.8713ZM660.67 88.0313L658.959 86.9947C650.223 101.411 633.867 110.655 615.07 110.655V112.655V114.655C635.185 114.655 652.877 104.748 662.38 89.0679L660.67 88.0313ZM719.679 112.655V110.655C690.214 110.655 666.351 87.5168 666.351 57.3273H664.351H662.351C662.351 89.7618 688.041 114.655 719.679 114.655V112.655ZM664.351 57.3273H666.351C666.351 27.1378 690.214 3.99934 719.679 3.99934V1.99934V-0.000663757C688.041 -0.000663757 662.351 24.8928 662.351 57.3273H664.351ZM719.679 1.99934V3.99934C749.145 3.99934 773.007 27.1378 773.007 57.3273H775.007H777.007C777.007 24.8928 751.318 -0.000663757 719.679 -0.000663757V1.99934ZM775.007 57.3273H773.007C773.007 87.5168 749.145 110.655 719.679 110.655V112.655V114.655C751.318 114.655 777.007 89.7618 777.007 57.3273H775.007ZM719.679 88.9433V90.9433C738.092 90.9433 752.687 77.4512 752.687 57.3273H750.687H748.687C748.687 75.2035 735.922 86.9433 719.679 86.9433V88.9433ZM750.687 57.3273H752.687C752.687 37.2035 738.092 23.7113 719.679 23.7113V25.7113V27.7113C735.922 27.7113 748.687 39.4512 748.687 57.3273H750.687ZM719.679 25.7113V23.7113C701.266 23.7113 686.671 37.2035 686.671 57.3273H688.671H690.671C690.671 39.4512 703.436 27.7113 719.679 27.7113V25.7113ZM688.671 57.3273H686.671C686.671 77.4512 701.266 90.9433 719.679 90.9433V88.9433V86.9433C703.436 86.9433 690.671 75.2035 690.671 57.3273H688.671ZM850.809 110.527L848.903 111.134L850.809 112.527V110.527ZM845.489 93.8073L847.395 93.2009L845.489 91.8073V93.8073ZM805.969 93.8073V91.8073L804.063 93.2009L805.969 93.8073ZM800.649 110.527V112.527L802.555 111.134L800.649 110.527ZM774.049 110.527L772.155 109.884L774.049 112.527V110.527ZM810.225 4.12733V2.12733L808.331 3.48353L810.225 4.12733ZM841.233 4.12733L843.126 3.48353L841.233 2.12733V4.12733ZM877.409 110.527V112.527L879.302 109.884L877.409 110.527ZM813.265 71.0073L811.359 70.3994L813.265 73.0073V71.0073ZM838.193 71.0073V73.0073L840.098 70.3994L838.193 71.0073ZM825.729 31.9433L827.634 31.3354H823.823L825.729 31.9433ZM850.809 110.527L852.715 109.921L847.395 93.2009L845.489 93.8073L843.583 94.4137L848.903 111.134L850.809 110.527ZM845.489 93.8073V91.8073H805.969V93.8073V95.8073H845.489V93.8073ZM805.969 93.8073L804.063 93.2009L798.743 109.921L800.649 110.527L802.555 111.134L807.875 94.4137L805.969 93.8073ZM800.649 110.527V108.527H774.049V110.527V112.527H800.649V110.527ZM774.049 110.527L775.942 111.171L812.118 4.77114L810.225 4.12733L808.331 3.48353L772.155 109.884L774.049 110.527ZM810.225 4.12733V6.12733H841.233V4.12733V2.12733H810.225V4.12733ZM841.233 4.12733L839.339 4.77114L875.515 111.171L877.409 110.527L879.302 109.884L843.126 3.48353L841.233 4.12733ZM877.409 110.527V108.527H850.809V110.527V112.527H877.409V110.527ZM813.265 71.0073V73.0073H838.193V71.0073V69.0073H813.265V71.0073ZM838.193 71.0073L840.098 70.3994L827.634 31.3354L825.729 31.9433L823.823 32.5513L836.287 71.6153L838.193 71.0073ZM825.729 31.9433L823.823 31.3354L811.359 70.3994L813.265 71.0073L815.17 71.6153L827.634 32.5513L825.729 31.9433ZM977.318 26.6233L978.321 28.3536L979.021 25.5742L977.318 26.6233ZM956.342 38.7833L954.607 39.7791L957.345 40.5136L956.342 38.7833ZM956.342 75.8713L957.345 74.1411L954.594 74.9001L956.342 75.8713ZM977.318 88.0313L979.028 89.0679L978.321 86.3011L977.318 88.0313ZM931.718 112.655V110.655C900.769 110.655 878.39 87.553 878.39 57.3273H876.39H874.39C874.39 89.7257 898.523 114.655 931.718 114.655V112.655ZM876.39 57.3273H878.39C878.39 27.1017 900.769 3.99934 931.718 3.99934V1.99934V-0.000663757C898.523 -0.000663757 874.39 24.929 874.39 57.3273H876.39ZM931.718 1.99934V3.99934C950.357 3.99934 966.722 13.2398 975.615 27.6725L977.318 26.6233L979.021 25.5742C969.37 9.91092 951.687 -0.000663757 931.718 -0.000663757V1.99934ZM977.318 26.6233L976.315 24.8931L955.339 37.0531L956.342 38.7833L957.345 40.5136L978.321 28.3536L977.318 26.6233ZM956.342 38.7833L958.076 37.7876C952.954 28.8645 943.111 23.7113 931.718 23.7113V25.7113V27.7113C941.909 27.7113 950.306 32.2862 954.607 39.7791L956.342 38.7833ZM931.718 25.7113V23.7113C921.835 23.7113 913.539 27.0294 907.715 32.9974C901.895 38.9602 898.71 47.3959 898.71 57.3273H900.71H902.71C902.71 48.2587 905.605 40.8865 910.577 35.7912C915.545 30.7013 922.753 27.7113 931.718 27.7113V25.7113ZM900.71 57.3273H898.71C898.71 67.2587 901.895 75.6945 907.715 81.6572C913.539 87.6253 921.835 90.9433 931.718 90.9433V88.9433V86.9433C922.753 86.9433 915.545 83.9534 910.577 78.8634C905.605 73.7682 902.71 66.3959 902.71 57.3273H900.71ZM931.718 88.9433V90.9433C943.091 90.9433 953.112 85.803 958.09 76.8426L956.342 75.8713L954.594 74.9001C950.452 82.3557 941.929 86.9433 931.718 86.9433V88.9433ZM956.342 75.8713L955.339 77.6016L976.315 89.7616L977.318 88.0313L978.321 86.3011L957.345 74.1411L956.342 75.8713ZM977.318 88.0313L975.608 86.9947C966.871 101.411 950.515 110.655 931.718 110.655V112.655V114.655C951.833 114.655 969.525 104.748 979.028 89.0679L977.318 88.0313ZM1044.8 4.12733V2.12733L1042.8 4.12733H1044.8ZM1069.12 4.12733H1071.12L1069.12 2.12733V4.12733ZM1069.12 110.527V112.527L1071.12 110.527H1069.12ZM1044.8 110.527H1042.8L1044.8 112.527V110.527ZM1044.8 68.2713H1046.8L1044.8 66.2713V68.2713ZM1011.36 68.2713V66.2713L1009.36 68.2713H1011.36ZM1011.36 110.527V112.527L1013.36 110.527H1011.36ZM987.044 110.527H985.044L987.044 112.527V110.527ZM987.044 4.12733V2.12733L985.044 4.12733H987.044ZM1011.36 4.12733H1013.36L1011.36 2.12733V4.12733ZM1011.36 44.8633H1009.36L1011.36 46.8633V44.8633ZM1044.8 44.8633V46.8633L1046.8 44.8633H1044.8ZM1044.8 4.12733V6.12733H1069.12V4.12733V2.12733H1044.8V4.12733ZM1069.12 4.12733H1067.12V110.527H1069.12H1071.12V4.12733H1069.12ZM1069.12 110.527V108.527H1044.8V110.527V112.527H1069.12V110.527ZM1044.8 110.527H1046.8V68.2713H1044.8H1042.8V110.527H1044.8ZM1044.8 68.2713V66.2713H1011.36V68.2713V70.2713H1044.8V68.2713ZM1011.36 68.2713H1009.36V110.527H1011.36H1013.36V68.2713H1011.36ZM1011.36 110.527V108.527H987.044V110.527V112.527H1011.36V110.527ZM987.044 110.527H989.044V4.12733H987.044H985.044V110.527H987.044ZM987.044 4.12733V6.12733H1011.36V4.12733V2.12733H987.044V4.12733ZM1011.36 4.12733H1009.36V44.8633H1011.36H1013.36V4.12733H1011.36ZM1011.36 44.8633V46.8633H1044.8V44.8633V42.8633H1011.36V44.8633ZM1044.8 44.8633H1046.8V4.12733H1044.8H1042.8V44.8633H1044.8ZM1218.41 26.6233L1219.41 28.3536L1220.11 25.5742L1218.41 26.6233ZM1197.44 38.7833L1195.7 39.7791L1198.44 40.5136L1197.44 38.7833ZM1197.44 75.8713L1198.44 74.1411L1195.69 74.9001L1197.44 75.8713ZM1218.41 88.0313L1220.12 89.0679L1219.41 86.3011L1218.41 88.0313ZM1172.81 112.655V110.655C1141.86 110.655 1119.48 87.553 1119.48 57.3273H1117.48H1115.48C1115.48 89.7257 1139.62 114.655 1172.81 114.655V112.655ZM1117.48 57.3273H1119.48C1119.48 27.1017 1141.86 3.99934 1172.81 3.99934V1.99934V-0.000663757C1139.62 -0.000663757 1115.48 24.929 1115.48 57.3273H1117.48ZM1172.81 1.99934V3.99934C1191.45 3.99934 1207.82 13.2398 1216.71 27.6725L1218.41 26.6233L1220.11 25.5742C1210.46 9.91092 1192.78 -0.000663757 1172.81 -0.000663757V1.99934ZM1218.41 26.6233L1217.41 24.8931L1196.43 37.0531L1197.44 38.7833L1198.44 40.5136L1219.41 28.3536L1218.41 26.6233ZM1197.44 38.7833L1199.17 37.7876C1194.05 28.8645 1184.2 23.7113 1172.81 23.7113V25.7113V27.7113C1183 27.7113 1191.4 32.2862 1195.7 39.7791L1197.44 38.7833ZM1172.81 25.7113V23.7113C1162.93 23.7113 1154.63 27.0294 1148.81 32.9974C1142.99 38.9602 1139.8 47.3959 1139.8 57.3273H1141.8H1143.8C1143.8 48.2587 1146.7 40.8865 1151.67 35.7912C1156.64 30.7013 1163.85 27.7113 1172.81 27.7113V25.7113ZM1141.8 57.3273H1139.8C1139.8 67.2587 1142.99 75.6945 1148.81 81.6572C1154.63 87.6253 1162.93 90.9433 1172.81 90.9433V88.9433V86.9433C1163.85 86.9433 1156.64 83.9534 1151.67 78.8634C1146.7 73.7682 1143.8 66.3959 1143.8 57.3273H1141.8ZM1172.81 88.9433V90.9433C1184.18 90.9433 1194.21 85.803 1199.18 76.8426L1197.44 75.8713L1195.69 74.9001C1191.55 82.3557 1183.02 86.9433 1172.81 86.9433V88.9433ZM1197.44 75.8713L1196.43 77.6016L1217.41 89.7616L1218.41 88.0313L1219.41 86.3011L1198.44 74.1411L1197.44 75.8713ZM1218.41 88.0313L1216.7 86.9947C1207.96 101.411 1191.61 110.655 1172.81 110.655V112.655V114.655C1192.93 114.655 1210.62 104.748 1220.12 89.0679L1218.41 88.0313ZM1277.42 112.655V110.655C1247.96 110.655 1224.09 87.5168 1224.09 57.3273H1222.09H1220.09C1220.09 89.7618 1245.78 114.655 1277.42 114.655V112.655ZM1222.09 57.3273H1224.09C1224.09 27.1378 1247.96 3.99934 1277.42 3.99934V1.99934V-0.000663757C1245.78 -0.000663757 1220.09 24.8928 1220.09 57.3273H1222.09ZM1277.42 1.99934V3.99934C1306.89 3.99934 1330.75 27.1378 1330.75 57.3273H1332.75H1334.75C1334.75 24.8928 1309.06 -0.000663757 1277.42 -0.000663757V1.99934ZM1332.75 57.3273H1330.75C1330.75 87.5168 1306.89 110.655 1277.42 110.655V112.655V114.655C1309.06 114.655 1334.75 89.7618 1334.75 57.3273H1332.75ZM1277.42 88.9433V90.9433C1295.83 90.9433 1310.43 77.4512 1310.43 57.3273H1308.43H1306.43C1306.43 75.2035 1293.66 86.9433 1277.42 86.9433V88.9433ZM1308.43 57.3273H1310.43C1310.43 37.2035 1295.83 23.7113 1277.42 23.7113V25.7113V27.7113C1293.66 27.7113 1306.43 39.4512 1306.43 57.3273H1308.43ZM1277.42 25.7113V23.7113C1259.01 23.7113 1244.41 37.2035 1244.41 57.3273H1246.41H1248.41C1248.41 39.4512 1261.18 27.7113 1277.42 27.7113V25.7113ZM1246.41 57.3273H1244.41C1244.41 77.4512 1259.01 90.9433 1277.42 90.9433V88.9433V86.9433C1261.18 86.9433 1248.41 75.2035 1248.41 57.3273H1246.41ZM1408.55 110.527L1406.64 111.134L1408.55 112.527V110.527ZM1403.23 93.8073L1405.14 93.2009L1403.23 91.8073V93.8073ZM1363.71 93.8073V91.8073L1361.8 93.2009L1363.71 93.8073ZM1358.39 110.527V112.527L1360.3 111.134L1358.39 110.527ZM1331.79 110.527L1329.9 109.884L1331.79 112.527V110.527ZM1367.97 4.12733V2.12733L1366.07 3.48353L1367.97 4.12733ZM1398.97 4.12733L1400.87 3.48353L1398.97 2.12733V4.12733ZM1435.15 110.527V112.527L1437.04 109.884L1435.15 110.527ZM1371.01 71.0073L1369.1 70.3994L1371.01 73.0073V71.0073ZM1395.93 71.0073V73.0073L1397.84 70.3994L1395.93 71.0073ZM1383.47 31.9433L1385.38 31.3354H1381.56L1383.47 31.9433ZM1408.55 110.527L1410.46 109.921L1405.14 93.2009L1403.23 93.8073L1401.32 94.4137L1406.64 111.134L1408.55 110.527ZM1403.23 93.8073V91.8073H1363.71V93.8073V95.8073H1403.23V93.8073ZM1363.71 93.8073L1361.8 93.2009L1356.48 109.921L1358.39 110.527L1360.3 111.134L1365.62 94.4137L1363.71 93.8073ZM1358.39 110.527V108.527H1331.79V110.527V112.527H1358.39V110.527ZM1331.79 110.527L1333.68 111.171L1369.86 4.77114L1367.97 4.12733L1366.07 3.48353L1329.9 109.884L1331.79 110.527ZM1367.97 4.12733V6.12733H1398.97V4.12733V2.12733H1367.97V4.12733ZM1398.97 4.12733L1397.08 4.77114L1433.26 111.171L1435.15 110.527L1437.04 109.884L1400.87 3.48353L1398.97 4.12733ZM1435.15 110.527V108.527H1408.55V110.527V112.527H1435.15V110.527ZM1371.01 71.0073V73.0073H1395.93V71.0073V69.0073H1371.01V71.0073ZM1395.93 71.0073L1397.84 70.3994L1385.38 31.3354L1383.47 31.9433L1381.56 32.5513L1394.03 71.6153L1395.93 71.0073ZM1383.47 31.9433L1381.56 31.3354L1369.1 70.3994L1371.01 71.0073L1372.91 71.6153L1385.38 32.5513L1383.47 31.9433ZM1535.06 26.6233L1536.06 28.3536L1536.76 25.5742L1535.06 26.6233ZM1514.08 38.7833L1512.35 39.7791L1515.09 40.5136L1514.08 38.7833ZM1514.08 75.8713L1515.09 74.1411L1512.34 74.9001L1514.08 75.8713ZM1535.06 88.0313L1536.77 89.0679L1536.06 86.3011L1535.06 88.0313ZM1489.46 112.655V110.655C1458.51 110.655 1436.13 87.553 1436.13 57.3273H1434.13H1432.13C1432.13 89.7257 1456.26 114.655 1489.46 114.655V112.655ZM1434.13 57.3273H1436.13C1436.13 27.1017 1458.51 3.99934 1489.46 3.99934V1.99934V-0.000663757C1456.26 -0.000663757 1432.13 24.929 1432.13 57.3273H1434.13ZM1489.46 1.99934V3.99934C1508.1 3.99934 1524.46 13.2398 1533.36 27.6725L1535.06 26.6233L1536.76 25.5742C1527.11 9.91092 1509.43 -0.000663757 1489.46 -0.000663757V1.99934ZM1535.06 26.6233L1534.06 24.8931L1513.08 37.0531L1514.08 38.7833L1515.09 40.5136L1536.06 28.3536L1535.06 26.6233ZM1514.08 38.7833L1515.82 37.7876C1510.7 28.8645 1500.85 23.7113 1489.46 23.7113V25.7113V27.7113C1499.65 27.7113 1508.05 32.2862 1512.35 39.7791L1514.08 38.7833ZM1489.46 25.7113V23.7113C1479.58 23.7113 1471.28 27.0294 1465.46 32.9974C1459.64 38.9602 1456.45 47.3959 1456.45 57.3273H1458.45H1460.45C1460.45 48.2587 1463.35 40.8865 1468.32 35.7912C1473.29 30.7013 1480.49 27.7113 1489.46 27.7113V25.7113ZM1458.45 57.3273H1456.45C1456.45 67.2587 1459.64 75.6945 1465.46 81.6572C1471.28 87.6253 1479.58 90.9433 1489.46 90.9433V88.9433V86.9433C1480.49 86.9433 1473.29 83.9534 1468.32 78.8634C1463.35 73.7682 1460.45 66.3959 1460.45 57.3273H1458.45ZM1489.46 88.9433V90.9433C1500.83 90.9433 1510.85 85.803 1515.83 76.8426L1514.08 75.8713L1512.34 74.9001C1508.19 82.3557 1499.67 86.9433 1489.46 86.9433V88.9433ZM1514.08 75.8713L1513.08 77.6016L1534.06 89.7616L1535.06 88.0313L1536.06 86.3011L1515.09 74.1411L1514.08 75.8713ZM1535.06 88.0313L1533.35 86.9947C1524.61 101.411 1508.26 110.655 1489.46 110.655V112.655V114.655C1509.57 114.655 1527.27 104.748 1536.77 89.0679L1535.06 88.0313ZM1602.55 4.12733V2.12733L1600.55 4.12733H1602.55ZM1626.86 4.12733H1628.86L1626.86 2.12733V4.12733ZM1626.86 110.527V112.527L1628.86 110.527H1626.86ZM1602.55 110.527H1600.55L1602.55 112.527V110.527ZM1602.55 68.2713H1604.55L1602.55 66.2713V68.2713ZM1569.1 68.2713V66.2713L1567.1 68.2713H1569.1ZM1569.1 110.527V112.527L1571.1 110.527H1569.1ZM1544.79 110.527H1542.79L1544.79 112.527V110.527ZM1544.79 4.12733V2.12733L1542.79 4.12733H1544.79ZM1569.1 4.12733H1571.1L1569.1 2.12733V4.12733ZM1569.1 44.8633H1567.1L1569.1 46.8633V44.8633ZM1602.55 44.8633V46.8633L1604.55 44.8633H1602.55ZM1602.55 4.12733V6.12733H1626.86V4.12733V2.12733H1602.55V4.12733ZM1626.86 4.12733H1624.86V110.527H1626.86H1628.86V4.12733H1626.86ZM1626.86 110.527V108.527H1602.55V110.527V112.527H1626.86V110.527ZM1602.55 110.527H1604.55V68.2713H1602.55H1600.55V110.527H1602.55ZM1602.55 68.2713V66.2713H1569.1V68.2713V70.2713H1602.55V68.2713ZM1569.1 68.2713H1567.1V110.527H1569.1H1571.1V68.2713H1569.1ZM1569.1 110.527V108.527H1544.79V110.527V112.527H1569.1V110.527ZM1544.79 110.527H1546.79V4.12733H1544.79H1542.79V110.527H1544.79ZM1544.79 4.12733V6.12733H1569.1V4.12733V2.12733H1544.79V4.12733ZM1569.1 4.12733H1567.1V44.8633H1569.1H1571.1V4.12733H1569.1ZM1569.1 44.8633V46.8633H1602.55V44.8633V42.8633H1569.1V44.8633ZM1602.55 44.8633H1604.55V4.12733H1602.55H1600.55V44.8633H1602.55ZM1776.15 26.6233L1777.16 28.3536L1777.86 25.5742L1776.15 26.6233ZM1755.18 38.7833L1753.44 39.7791L1756.18 40.5136L1755.18 38.7833ZM1755.18 75.8713L1756.18 74.1411L1753.43 74.9001L1755.18 75.8713ZM1776.15 88.0313L1777.86 89.0679L1777.16 86.3011L1776.15 88.0313ZM1730.55 112.655V110.655C1699.6 110.655 1677.22 87.553 1677.22 57.3273H1675.22H1673.22C1673.22 89.7257 1697.36 114.655 1730.55 114.655V112.655ZM1675.22 57.3273H1677.22C1677.22 27.1017 1699.6 3.99934 1730.55 3.99934V1.99934V-0.000663757C1697.36 -0.000663757 1673.22 24.929 1673.22 57.3273H1675.22ZM1730.55 1.99934V3.99934C1749.19 3.99934 1765.56 13.2398 1774.45 27.6725L1776.15 26.6233L1777.86 25.5742C1768.2 9.91092 1750.52 -0.000663757 1730.55 -0.000663757V1.99934ZM1776.15 26.6233L1775.15 24.8931L1754.17 37.0531L1755.18 38.7833L1756.18 40.5136L1777.16 28.3536L1776.15 26.6233ZM1755.18 38.7833L1756.91 37.7876C1751.79 28.8645 1741.95 23.7113 1730.55 23.7113V25.7113V27.7113C1740.74 27.7113 1749.14 32.2862 1753.44 39.7791L1755.18 38.7833ZM1730.55 25.7113V23.7113C1720.67 23.7113 1712.37 27.0294 1706.55 32.9974C1700.73 38.9602 1697.54 47.3959 1697.54 57.3273H1699.54H1701.54C1701.54 48.2587 1704.44 40.8865 1709.41 35.7912C1714.38 30.7013 1721.59 27.7113 1730.55 27.7113V25.7113ZM1699.54 57.3273H1697.54C1697.54 67.2587 1700.73 75.6945 1706.55 81.6572C1712.37 87.6253 1720.67 90.9433 1730.55 90.9433V88.9433V86.9433C1721.59 86.9433 1714.38 83.9534 1709.41 78.8634C1704.44 73.7682 1701.54 66.3959 1701.54 57.3273H1699.54ZM1730.55 88.9433V90.9433C1741.93 90.9433 1751.95 85.803 1756.93 76.8426L1755.18 75.8713L1753.43 74.9001C1749.29 82.3557 1740.76 86.9433 1730.55 86.9433V88.9433ZM1755.18 75.8713L1754.17 77.6016L1775.15 89.7616L1776.15 88.0313L1777.16 86.3011L1756.18 74.1411L1755.18 75.8713ZM1776.15 88.0313L1774.44 86.9947C1765.71 101.411 1749.35 110.655 1730.55 110.655V112.655V114.655C1750.67 114.655 1768.36 104.748 1777.86 89.0679L1776.15 88.0313ZM1835.16 112.655V110.655C1805.7 110.655 1781.83 87.5168 1781.83 57.3273H1779.83H1777.83C1777.83 89.7618 1803.52 114.655 1835.16 114.655V112.655ZM1779.83 57.3273H1781.83C1781.83 27.1378 1805.7 3.99934 1835.16 3.99934V1.99934V-0.000663757C1803.52 -0.000663757 1777.83 24.8928 1777.83 57.3273H1779.83ZM1835.16 1.99934V3.99934C1864.63 3.99934 1888.49 27.1378 1888.49 57.3273H1890.49H1892.49C1892.49 24.8928 1866.8 -0.000663757 1835.16 -0.000663757V1.99934ZM1890.49 57.3273H1888.49C1888.49 87.5168 1864.63 110.655 1835.16 110.655V112.655V114.655C1866.8 114.655 1892.49 89.7618 1892.49 57.3273H1890.49ZM1835.16 88.9433V90.9433C1853.58 90.9433 1868.17 77.4512 1868.17 57.3273H1866.17H1864.17C1864.17 75.2035 1851.4 86.9433 1835.16 86.9433V88.9433ZM1866.17 57.3273H1868.17C1868.17 37.2035 1853.58 23.7113 1835.16 23.7113V25.7113V27.7113C1851.4 27.7113 1864.17 39.4512 1864.17 57.3273H1866.17ZM1835.16 25.7113V23.7113C1816.75 23.7113 1802.15 37.2035 1802.15 57.3273H1804.15H1806.15C1806.15 39.4512 1818.92 27.7113 1835.16 27.7113V25.7113ZM1804.15 57.3273H1802.15C1802.15 77.4512 1816.75 90.9433 1835.16 90.9433V88.9433V86.9433C1818.92 86.9433 1806.15 75.2035 1806.15 57.3273H1804.15ZM1966.29 110.527L1964.39 111.134L1966.29 112.527V110.527ZM1960.97 93.8073L1962.88 93.2009L1960.97 91.8073V93.8073ZM1921.45 93.8073V91.8073L1919.55 93.2009L1921.45 93.8073ZM1916.13 110.527V112.527L1918.04 111.134L1916.13 110.527ZM1889.53 110.527L1887.64 109.884L1889.53 112.527V110.527ZM1925.71 4.12733V2.12733L1923.81 3.48353L1925.71 4.12733ZM1956.72 4.12733L1958.61 3.48353L1956.72 2.12733V4.12733ZM1992.89 110.527V112.527L1994.79 109.884L1992.89 110.527ZM1928.75 71.0073L1926.84 70.3994L1928.75 73.0073V71.0073ZM1953.68 71.0073V73.0073L1955.58 70.3994L1953.68 71.0073ZM1941.21 31.9433L1943.12 31.3354H1939.31L1941.21 31.9433ZM1966.29 110.527L1968.2 109.921L1962.88 93.2009L1960.97 93.8073L1959.07 94.4137L1964.39 111.134L1966.29 110.527ZM1960.97 93.8073V91.8073H1921.45V93.8073V95.8073H1960.97V93.8073ZM1921.45 93.8073L1919.55 93.2009L1914.23 109.921L1916.13 110.527L1918.04 111.134L1923.36 94.4137L1921.45 93.8073ZM1916.13 110.527V108.527H1889.53V110.527V112.527H1916.13V110.527ZM1889.53 110.527L1891.43 111.171L1927.6 4.77114L1925.71 4.12733L1923.81 3.48353L1887.64 109.884L1889.53 110.527ZM1925.71 4.12733V6.12733H1956.72V4.12733V2.12733H1925.71V4.12733ZM1956.72 4.12733L1954.82 4.77114L1991 111.171L1992.89 110.527L1994.79 109.884L1958.61 3.48353L1956.72 4.12733ZM1992.89 110.527V108.527H1966.29V110.527V112.527H1992.89V110.527ZM1928.75 71.0073V73.0073H1953.68V71.0073V69.0073H1928.75V71.0073ZM1953.68 71.0073L1955.58 70.3994L1943.12 31.3354L1941.21 31.9433L1939.31 32.5513L1951.77 71.6153L1953.68 71.0073ZM1941.21 31.9433L1939.31 31.3354L1926.84 70.3994L1928.75 71.0073L1930.65 71.6153L1943.12 32.5513L1941.21 31.9433ZM2092.8 26.6233L2093.8 28.3536L2094.5 25.5742L2092.8 26.6233ZM2071.82 38.7833L2070.09 39.7791L2072.83 40.5136L2071.82 38.7833ZM2071.82 75.8713L2072.83 74.1411L2070.08 74.9001L2071.82 75.8713ZM2092.8 88.0313L2094.51 89.0679L2093.8 86.3011L2092.8 88.0313ZM2047.2 112.655V110.655C2016.25 110.655 1993.87 87.553 1993.87 57.3273H1991.87H1989.87C1989.87 89.7257 2014.01 114.655 2047.2 114.655V112.655ZM1991.87 57.3273H1993.87C1993.87 27.1017 2016.25 3.99934 2047.2 3.99934V1.99934V-0.000663757C2014.01 -0.000663757 1989.87 24.929 1989.87 57.3273H1991.87ZM2047.2 1.99934V3.99934C2065.84 3.99934 2082.21 13.2398 2091.1 27.6725L2092.8 26.6233L2094.5 25.5742C2084.85 9.91092 2067.17 -0.000663757 2047.2 -0.000663757V1.99934ZM2092.8 26.6233L2091.8 24.8931L2070.82 37.0531L2071.82 38.7833L2072.83 40.5136L2093.8 28.3536L2092.8 26.6233ZM2071.82 38.7833L2073.56 37.7876C2068.44 28.8645 2058.59 23.7113 2047.2 23.7113V25.7113V27.7113C2057.39 27.7113 2065.79 32.2862 2070.09 39.7791L2071.82 38.7833ZM2047.2 25.7113V23.7113C2037.32 23.7113 2029.02 27.0294 2023.2 32.9974C2017.38 38.9602 2014.19 47.3959 2014.19 57.3273H2016.19H2018.19C2018.19 48.2587 2021.09 40.8865 2026.06 35.7912C2031.03 30.7013 2038.24 27.7113 2047.2 27.7113V25.7113ZM2016.19 57.3273H2014.19C2014.19 67.2587 2017.38 75.6945 2023.2 81.6572C2029.02 87.6253 2037.32 90.9433 2047.2 90.9433V88.9433V86.9433C2038.24 86.9433 2031.03 83.9534 2026.06 78.8634C2021.09 73.7682 2018.19 66.3959 2018.19 57.3273H2016.19ZM2047.2 88.9433V90.9433C2058.57 90.9433 2068.6 85.803 2073.57 76.8426L2071.82 75.8713L2070.08 74.9001C2065.93 82.3557 2057.41 86.9433 2047.2 86.9433V88.9433ZM2071.82 75.8713L2070.82 77.6016L2091.8 89.7616L2092.8 88.0313L2093.8 86.3011L2072.83 74.1411L2071.82 75.8713ZM2092.8 88.0313L2091.09 86.9947C2082.35 101.411 2066 110.655 2047.2 110.655V112.655V114.655C2067.32 114.655 2085.01 104.748 2094.51 89.0679L2092.8 88.0313ZM2160.29 4.12733V2.12733L2158.29 4.12733H2160.29ZM2184.61 4.12733H2186.61L2184.61 2.12733V4.12733ZM2184.61 110.527V112.527L2186.61 110.527H2184.61ZM2160.29 110.527H2158.29L2160.29 112.527V110.527ZM2160.29 68.2713H2162.29L2160.29 66.2713V68.2713ZM2126.85 68.2713V66.2713L2124.85 68.2713H2126.85ZM2126.85 110.527V112.527L2128.85 110.527H2126.85ZM2102.53 110.527H2100.53L2102.53 112.527V110.527ZM2102.53 4.12733V2.12733L2100.53 4.12733H2102.53ZM2126.85 4.12733H2128.85L2126.85 2.12733V4.12733ZM2126.85 44.8633H2124.85L2126.85 46.8633V44.8633ZM2160.29 44.8633V46.8633L2162.29 44.8633H2160.29ZM2160.29 4.12733V6.12733H2184.61V4.12733V2.12733H2160.29V4.12733ZM2184.61 4.12733H2182.61V110.527H2184.61H2186.61V4.12733H2184.61ZM2184.61 110.527V108.527H2160.29V110.527V112.527H2184.61V110.527ZM2160.29 110.527H2162.29V68.2713H2160.29H2158.29V110.527H2160.29ZM2160.29 68.2713V66.2713H2126.85V68.2713V70.2713H2160.29V68.2713ZM2126.85 68.2713H2124.85V110.527H2126.85H2128.85V68.2713H2126.85ZM2126.85 110.527V108.527H2102.53V110.527V112.527H2126.85V110.527ZM2102.53 110.527H2104.53V4.12733H2102.53H2100.53V110.527H2102.53ZM2102.53 4.12733V6.12733H2126.85V4.12733V2.12733H2102.53V4.12733ZM2126.85 4.12733H2124.85V44.8633H2126.85H2128.85V4.12733H2126.85ZM2126.85 44.8633V46.8633H2160.29V44.8633V42.8633H2126.85V44.8633ZM2160.29 44.8633H2162.29V4.12733H2160.29H2158.29V44.8633H2160.29Z" fill="white" mask="url(#path-1-outside-1_1717_634)"/>
</svg>
