<svg width="1886" height="133" viewBox="0 0 1886 133" fill="none" xmlns="http://www.w3.org/2000/svg">
<mask id="path-1-outside-1_1717_632" maskUnits="userSpaceOnUse" x="-0.280273" y="-0.335938" width="1886" height="133" fill="black">
<rect fill="white" x="-0.280273" y="-0.335938" width="1886" height="133"/>
<path d="M66.0637 130.128C28.9277 130.128 1.99973 102.32 1.99973 66.0641C1.99973 29.8081 28.9277 2.00005 66.0637 2.00005C88.4157 2.00005 108.128 13.0881 118.864 30.5121L94.5757 44.5921C89.1197 35.0881 78.5597 29.4561 66.0637 29.4561C44.2397 29.4561 30.1597 44.0641 30.1597 66.0641C30.1597 88.0641 44.2397 102.672 66.0637 102.672C78.5597 102.672 89.2957 97.0401 94.5757 87.5361L118.864 101.616C108.304 119.04 88.5917 130.128 66.0637 130.128ZM187.19 130.128C151.814 130.128 123.126 102.32 123.126 66.0641C123.126 29.8081 151.814 2.00005 187.19 2.00005C222.566 2.00005 251.254 29.8081 251.254 66.0641C251.254 102.32 222.566 130.128 187.19 130.128ZM187.19 102.672C207.254 102.672 223.094 88.0641 223.094 66.0641C223.094 44.0641 207.254 29.4561 187.19 29.4561C167.126 29.4561 151.286 44.0641 151.286 66.0641C151.286 88.0641 167.126 102.672 187.19 102.672ZM339.025 127.664L332.865 108.304H287.105L280.945 127.664H250.145L292.033 4.46405H327.937L369.825 127.664H339.025ZM295.553 81.9041H324.417L309.985 36.6721L295.553 81.9041ZM432.709 130.128C395.573 130.128 368.645 102.32 368.645 66.0641C368.645 29.8081 395.573 2.00005 432.709 2.00005C455.061 2.00005 474.773 13.0881 485.509 30.5121L461.221 44.5921C455.765 35.0881 445.205 29.4561 432.709 29.4561C410.885 29.4561 396.805 44.0641 396.805 66.0641C396.805 88.0641 410.885 102.672 432.709 102.672C445.205 102.672 455.941 97.0401 461.221 87.5361L485.509 101.616C474.949 119.04 455.237 130.128 432.709 130.128ZM563.65 4.46405H591.81V127.664H563.65V78.7361H524.93V127.664H496.77V4.46405H524.93V51.6321H563.65V4.46405ZM711.87 130.128C674.734 130.128 647.806 102.32 647.806 66.0641C647.806 29.8081 674.734 2.00005 711.87 2.00005C734.222 2.00005 753.934 13.0881 764.67 30.5121L740.382 44.5921C734.926 35.0881 724.366 29.4561 711.87 29.4561C690.046 29.4561 675.966 44.0641 675.966 66.0641C675.966 88.0641 690.046 102.672 711.87 102.672C724.366 102.672 735.102 97.0401 740.382 87.5361L764.67 101.616C754.11 119.04 734.398 130.128 711.87 130.128ZM832.996 130.128C797.62 130.128 768.932 102.32 768.932 66.0641C768.932 29.8081 797.62 2.00005 832.996 2.00005C868.372 2.00005 897.06 29.8081 897.06 66.0641C897.06 102.32 868.372 130.128 832.996 130.128ZM832.996 102.672C853.06 102.672 868.9 88.0641 868.9 66.0641C868.9 44.0641 853.06 29.4561 832.996 29.4561C812.932 29.4561 797.092 44.0641 797.092 66.0641C797.092 88.0641 812.932 102.672 832.996 102.672ZM984.83 127.664L978.671 108.304H932.911L926.751 127.664H895.951L937.839 4.46405H973.743L1015.63 127.664H984.83ZM941.359 81.9041H970.223L955.791 36.6721L941.359 81.9041ZM1078.51 130.128C1041.38 130.128 1014.45 102.32 1014.45 66.0641C1014.45 29.8081 1041.38 2.00005 1078.51 2.00005C1100.87 2.00005 1120.58 13.0881 1131.31 30.5121L1107.03 44.5921C1101.57 35.0881 1091.01 29.4561 1078.51 29.4561C1056.69 29.4561 1042.61 44.0641 1042.61 66.0641C1042.61 88.0641 1056.69 102.672 1078.51 102.672C1091.01 102.672 1101.75 97.0401 1107.03 87.5361L1131.31 101.616C1120.75 119.04 1101.04 130.128 1078.51 130.128ZM1209.46 4.46405H1237.62V127.664H1209.46V78.7361H1170.74V127.664H1142.58V4.46405H1170.74V51.6321H1209.46V4.46405ZM1357.68 130.128C1320.54 130.128 1293.61 102.32 1293.61 66.0641C1293.61 29.8081 1320.54 2.00005 1357.68 2.00005C1380.03 2.00005 1399.74 13.0881 1410.48 30.5121L1386.19 44.5921C1380.73 35.0881 1370.17 29.4561 1357.68 29.4561C1335.85 29.4561 1321.77 44.0641 1321.77 66.0641C1321.77 88.0641 1335.85 102.672 1357.68 102.672C1370.17 102.672 1380.91 97.0401 1386.19 87.5361L1410.48 101.616C1399.92 119.04 1380.2 130.128 1357.68 130.128ZM1478.8 130.128C1443.43 130.128 1414.74 102.32 1414.74 66.0641C1414.74 29.8081 1443.43 2.00005 1478.8 2.00005C1514.18 2.00005 1542.87 29.8081 1542.87 66.0641C1542.87 102.32 1514.18 130.128 1478.8 130.128ZM1478.8 102.672C1498.87 102.672 1514.71 88.0641 1514.71 66.0641C1514.71 44.0641 1498.87 29.4561 1478.8 29.4561C1458.74 29.4561 1442.9 44.0641 1442.9 66.0641C1442.9 88.0641 1458.74 102.672 1478.8 102.672ZM1630.64 127.664L1624.48 108.304H1578.72L1572.56 127.664H1541.76L1583.64 4.46405H1619.55L1661.44 127.664H1630.64ZM1587.16 81.9041H1616.03L1601.6 36.6721L1587.16 81.9041ZM1724.32 130.128C1687.18 130.128 1660.26 102.32 1660.26 66.0641C1660.26 29.8081 1687.18 2.00005 1724.32 2.00005C1746.67 2.00005 1766.38 13.0881 1777.12 30.5121L1752.83 44.5921C1747.38 35.0881 1736.82 29.4561 1724.32 29.4561C1702.5 29.4561 1688.42 44.0641 1688.42 66.0641C1688.42 88.0641 1702.5 102.672 1724.32 102.672C1736.82 102.672 1747.55 97.0401 1752.83 87.5361L1777.12 101.616C1766.56 119.04 1746.85 130.128 1724.32 130.128ZM1855.26 4.46405H1883.42V127.664H1855.26V78.7361H1816.54V127.664H1788.38V4.46405H1816.54V51.6321H1855.26V4.46405Z"/>
</mask>
<path d="M118.864 30.5121L119.867 32.2423L120.566 29.4629L118.864 30.5121ZM94.5757 44.5921L92.8412 45.5878L95.5788 46.3223L94.5757 44.5921ZM94.5757 87.5361L95.5788 85.8058L92.8274 86.5648L94.5757 87.5361ZM118.864 101.616L120.574 102.653L119.867 99.8858L118.864 101.616ZM66.0637 130.128V128.128C30.0504 128.128 3.99973 101.234 3.99973 66.0641H1.99973H-0.000273228C-0.000273228 103.406 27.8051 132.128 66.0637 132.128V130.128ZM1.99973 66.0641H3.99973C3.99973 30.8944 30.0504 4.00005 66.0637 4.00005V2.00005V5.34058e-05C27.8051 5.34058e-05 -0.000273228 28.7217 -0.000273228 66.0641H1.99973ZM66.0637 2.00005V4.00005C87.7507 4.00005 106.804 14.7525 117.161 31.5612L118.864 30.5121L120.566 29.4629C109.451 11.4236 89.0808 5.34058e-05 66.0637 5.34058e-05V2.00005ZM118.864 30.5121L117.861 28.7818L93.5727 42.8618L94.5757 44.5921L95.5788 46.3223L119.867 32.2423L118.864 30.5121ZM94.5757 44.5921L96.3102 43.5963C90.4437 33.3772 79.1608 27.4561 66.0637 27.4561V29.4561V31.4561C77.9587 31.4561 87.7957 36.7989 92.8412 45.5878L94.5757 44.5921ZM66.0637 29.4561V27.4561C54.6923 27.4561 45.1729 31.2721 38.4964 38.1132C31.8251 44.9489 28.1597 54.6327 28.1597 66.0641H30.1597H32.1597C32.1597 55.4955 35.5344 46.8752 41.3591 40.907C47.1786 34.944 55.6111 31.4561 66.0637 31.4561V29.4561ZM30.1597 66.0641H28.1597C28.1597 77.4955 31.8251 87.1792 38.4964 94.015C45.1729 100.856 54.6923 104.672 66.0637 104.672V102.672V100.672C55.6111 100.672 47.1786 97.1841 41.3591 91.2212C35.5344 85.2529 32.1597 76.6327 32.1597 66.0641H30.1597ZM66.0637 102.672V104.672C79.141 104.672 90.6261 98.7637 96.3241 88.5073L94.5757 87.5361L92.8274 86.5648C87.9654 95.3164 77.9784 100.672 66.0637 100.672V102.672ZM94.5757 87.5361L93.5727 89.2663L117.861 103.346L118.864 101.616L119.867 99.8858L95.5788 85.8058L94.5757 87.5361ZM118.864 101.616L117.153 100.579C106.976 117.371 87.933 128.128 66.0637 128.128V130.128V132.128C89.2505 132.128 109.631 120.709 120.574 102.653L118.864 101.616ZM187.19 130.128V128.128C152.901 128.128 125.126 101.198 125.126 66.0641H123.126H121.126C121.126 103.443 150.728 132.128 187.19 132.128V130.128ZM123.126 66.0641H125.126C125.126 30.9306 152.901 4.00005 187.19 4.00005V2.00005V5.34058e-05C150.728 5.34058e-05 121.126 28.6856 121.126 66.0641H123.126ZM187.19 2.00005V4.00005C221.48 4.00005 249.254 30.9306 249.254 66.0641H251.254H253.254C253.254 28.6856 223.653 5.34058e-05 187.19 5.34058e-05V2.00005ZM251.254 66.0641H249.254C249.254 101.198 221.48 128.128 187.19 128.128V130.128V132.128C223.653 132.128 253.254 103.443 253.254 66.0641H251.254ZM187.19 102.672V104.672C208.339 104.672 225.094 89.1879 225.094 66.0641H223.094H221.094C221.094 86.9402 206.169 100.672 187.19 100.672V102.672ZM223.094 66.0641H225.094C225.094 42.9402 208.339 27.4561 187.19 27.4561V29.4561V31.4561C206.169 31.4561 221.094 45.1879 221.094 66.0641H223.094ZM187.19 29.4561V27.4561C166.041 27.4561 149.286 42.9402 149.286 66.0641H151.286H153.286C153.286 45.1879 168.211 31.4561 187.19 31.4561V29.4561ZM151.286 66.0641H149.286C149.286 89.1879 166.041 104.672 187.19 104.672V102.672V100.672C168.211 100.672 153.286 86.9402 153.286 66.0641H151.286ZM339.025 127.664L337.119 128.27L339.025 129.664V127.664ZM332.865 108.304L334.77 107.698L332.865 106.304V108.304ZM287.105 108.304V106.304L285.199 107.698L287.105 108.304ZM280.945 127.664V129.664L282.85 128.27L280.945 127.664ZM250.145 127.664L248.251 127.02L250.145 129.664V127.664ZM292.033 4.46405V2.46405L290.139 3.82025L292.033 4.46405ZM327.937 4.46405L329.83 3.82025L327.937 2.46405V4.46405ZM369.825 127.664V129.664L371.718 127.02L369.825 127.664ZM295.553 81.9041L293.647 81.2961L295.553 83.9041V81.9041ZM324.417 81.9041V83.9041L326.322 81.2961L324.417 81.9041ZM309.985 36.6721L311.89 36.0641H308.079L309.985 36.6721ZM339.025 127.664L340.93 127.058L334.77 107.698L332.865 108.304L330.959 108.91L337.119 128.27L339.025 127.664ZM332.865 108.304V106.304H287.105V108.304V110.304H332.865V108.304ZM287.105 108.304L285.199 107.698L279.039 127.058L280.945 127.664L282.85 128.27L289.01 108.91L287.105 108.304ZM280.945 127.664V125.664H250.145V127.664V129.664H280.945V127.664ZM250.145 127.664L252.038 128.308L293.926 5.10786L292.033 4.46405L290.139 3.82025L248.251 127.02L250.145 127.664ZM292.033 4.46405V6.46405H327.937V4.46405V2.46405H292.033V4.46405ZM327.937 4.46405L326.043 5.10786L367.931 128.308L369.825 127.664L371.718 127.02L329.83 3.82025L327.937 4.46405ZM369.825 127.664V125.664H339.025V127.664V129.664H369.825V127.664ZM295.553 81.9041V83.9041H324.417V81.9041V79.9041H295.553V81.9041ZM324.417 81.9041L326.322 81.2961L311.89 36.0641L309.985 36.6721L308.079 37.28L322.511 82.512L324.417 81.9041ZM309.985 36.6721L308.079 36.0641L293.647 81.2961L295.553 81.9041L297.458 82.512L311.89 37.28L309.985 36.6721ZM485.509 30.5121L486.512 32.2423L487.212 29.4629L485.509 30.5121ZM461.221 44.5921L459.486 45.5878L462.224 46.3223L461.221 44.5921ZM461.221 87.5361L462.224 85.8058L459.473 86.5648L461.221 87.5361ZM485.509 101.616L487.219 102.653L486.512 99.8858L485.509 101.616ZM432.709 130.128V128.128C396.696 128.128 370.645 101.234 370.645 66.0641H368.645H366.645C366.645 103.406 394.45 132.128 432.709 132.128V130.128ZM368.645 66.0641H370.645C370.645 30.8944 396.696 4.00005 432.709 4.00005V2.00005V5.34058e-05C394.45 5.34058e-05 366.645 28.7217 366.645 66.0641H368.645ZM432.709 2.00005V4.00005C454.396 4.00005 473.449 14.7525 483.806 31.5612L485.509 30.5121L487.212 29.4629C476.096 11.4236 455.726 5.34058e-05 432.709 5.34058e-05V2.00005ZM485.509 30.5121L484.506 28.7818L460.218 42.8618L461.221 44.5921L462.224 46.3223L486.512 32.2423L485.509 30.5121ZM461.221 44.5921L462.955 43.5963C457.089 33.3772 445.806 27.4561 432.709 27.4561V29.4561V31.4561C444.604 31.4561 454.441 36.7989 459.486 45.5878L461.221 44.5921ZM432.709 29.4561V27.4561C421.337 27.4561 411.818 31.2721 405.142 38.1132C398.47 44.9489 394.805 54.6327 394.805 66.0641H396.805H398.805C398.805 55.4955 402.18 46.8752 408.004 40.907C413.824 34.944 422.256 31.4561 432.709 31.4561V29.4561ZM396.805 66.0641H394.805C394.805 77.4955 398.47 87.1792 405.142 94.015C411.818 100.856 421.337 104.672 432.709 104.672V102.672V100.672C422.256 100.672 413.824 97.1841 408.004 91.2212C402.18 85.2529 398.805 76.6327 398.805 66.0641H396.805ZM432.709 102.672V104.672C445.786 104.672 457.271 98.7637 462.969 88.5073L461.221 87.5361L459.473 86.5648C454.61 95.3164 444.624 100.672 432.709 100.672V102.672ZM461.221 87.5361L460.218 89.2663L484.506 103.346L485.509 101.616L486.512 99.8858L462.224 85.8058L461.221 87.5361ZM485.509 101.616L483.798 100.579C473.621 117.371 454.578 128.128 432.709 128.128V130.128V132.128C455.896 132.128 476.276 120.709 487.219 102.653L485.509 101.616ZM563.65 4.46405V2.46405L561.65 4.46405H563.65ZM591.81 4.46405H593.81L591.81 2.46405V4.46405ZM591.81 127.664V129.664L593.81 127.664H591.81ZM563.65 127.664H561.65L563.65 129.664V127.664ZM563.65 78.7361H565.65L563.65 76.7361V78.7361ZM524.93 78.7361V76.7361L522.93 78.7361H524.93ZM524.93 127.664V129.664L526.93 127.664H524.93ZM496.77 127.664H494.77L496.77 129.664V127.664ZM496.77 4.46405V2.46405L494.77 4.46405H496.77ZM524.93 4.46405H526.93L524.93 2.46405V4.46405ZM524.93 51.6321H522.93L524.93 53.6321V51.6321ZM563.65 51.6321V53.6321L565.65 51.6321H563.65ZM563.65 4.46405V6.46405H591.81V4.46405V2.46405H563.65V4.46405ZM591.81 4.46405H589.81V127.664H591.81H593.81V4.46405H591.81ZM591.81 127.664V125.664H563.65V127.664V129.664H591.81V127.664ZM563.65 127.664H565.65V78.7361H563.65H561.65V127.664H563.65ZM563.65 78.7361V76.7361H524.93V78.7361V80.7361H563.65V78.7361ZM524.93 78.7361H522.93V127.664H524.93H526.93V78.7361H524.93ZM524.93 127.664V125.664H496.77V127.664V129.664H524.93V127.664ZM496.77 127.664H498.77V4.46405H496.77H494.77V127.664H496.77ZM496.77 4.46405V6.46405H524.93V4.46405V2.46405H496.77V4.46405ZM524.93 4.46405H522.93V51.6321H524.93H526.93V4.46405H524.93ZM524.93 51.6321V53.6321H563.65V51.6321V49.6321H524.93V51.6321ZM563.65 51.6321H565.65V4.46405H563.65H561.65V51.6321H563.65ZM764.67 30.5121L765.673 32.2423L766.372 29.4629L764.67 30.5121ZM740.382 44.5921L738.647 45.5878L741.385 46.3223L740.382 44.5921ZM740.382 87.5361L741.385 85.8058L738.633 86.5648L740.382 87.5361ZM764.67 101.616L766.38 102.653L765.673 99.8858L764.67 101.616ZM711.87 130.128V128.128C675.856 128.128 649.806 101.234 649.806 66.0641H647.806H645.806C645.806 103.406 673.611 132.128 711.87 132.128V130.128ZM647.806 66.0641H649.806C649.806 30.8944 675.856 4.00005 711.87 4.00005V2.00005V5.34058e-05C673.611 5.34058e-05 645.806 28.7217 645.806 66.0641H647.806ZM711.87 2.00005V4.00005C733.557 4.00005 752.61 14.7525 762.967 31.5612L764.67 30.5121L766.372 29.4629C755.257 11.4236 734.887 5.34058e-05 711.87 5.34058e-05V2.00005ZM764.67 30.5121L763.667 28.7818L739.379 42.8618L740.382 44.5921L741.385 46.3223L765.673 32.2423L764.67 30.5121ZM740.382 44.5921L742.116 43.5963C736.25 33.3772 724.967 27.4561 711.87 27.4561V29.4561V31.4561C723.765 31.4561 733.602 36.7989 738.647 45.5878L740.382 44.5921ZM711.87 29.4561V27.4561C700.498 27.4561 690.979 31.2721 684.302 38.1132C677.631 44.9489 673.966 54.6327 673.966 66.0641H675.966H677.966C677.966 55.4955 681.34 46.8752 687.165 40.907C692.984 34.944 701.417 31.4561 711.87 31.4561V29.4561ZM675.966 66.0641H673.966C673.966 77.4955 677.631 87.1792 684.302 94.015C690.979 100.856 700.498 104.672 711.87 104.672V102.672V100.672C701.417 100.672 692.984 97.1841 687.165 91.2212C681.34 85.2529 677.966 76.6327 677.966 66.0641H675.966ZM711.87 102.672V104.672C724.947 104.672 736.432 98.7637 742.13 88.5073L740.382 87.5361L738.633 86.5648C733.771 95.3164 723.784 100.672 711.87 100.672V102.672ZM740.382 87.5361L739.379 89.2663L763.667 103.346L764.67 101.616L765.673 99.8858L741.385 85.8058L740.382 87.5361ZM764.67 101.616L762.959 100.579C752.782 117.371 733.739 128.128 711.87 128.128V130.128V132.128C735.056 132.128 755.437 120.709 766.38 102.653L764.67 101.616ZM832.996 130.128V128.128C798.707 128.128 770.932 101.198 770.932 66.0641H768.932H766.932C766.932 103.443 796.534 132.128 832.996 132.128V130.128ZM768.932 66.0641H770.932C770.932 30.9306 798.707 4.00005 832.996 4.00005V2.00005V5.34058e-05C796.534 5.34058e-05 766.932 28.6856 766.932 66.0641H768.932ZM832.996 2.00005V4.00005C867.286 4.00005 895.06 30.9306 895.06 66.0641H897.06H899.06C899.06 28.6856 869.459 5.34058e-05 832.996 5.34058e-05V2.00005ZM897.06 66.0641H895.06C895.06 101.198 867.286 128.128 832.996 128.128V130.128V132.128C869.459 132.128 899.06 103.443 899.06 66.0641H897.06ZM832.996 102.672V104.672C854.145 104.672 870.9 89.1879 870.9 66.0641H868.9H866.9C866.9 86.9402 851.975 100.672 832.996 100.672V102.672ZM868.9 66.0641H870.9C870.9 42.9402 854.145 27.4561 832.996 27.4561V29.4561V31.4561C851.975 31.4561 866.9 45.1879 866.9 66.0641H868.9ZM832.996 29.4561V27.4561C811.847 27.4561 795.092 42.9402 795.092 66.0641H797.092H799.092C799.092 45.1879 814.017 31.4561 832.996 31.4561V29.4561ZM797.092 66.0641H795.092C795.092 89.1879 811.847 104.672 832.996 104.672V102.672V100.672C814.017 100.672 799.092 86.9402 799.092 66.0641H797.092ZM984.831 127.664L982.925 128.27L984.831 129.664V127.664ZM978.671 108.304L980.576 107.698L978.671 106.304V108.304ZM932.911 108.304V106.304L931.005 107.698L932.911 108.304ZM926.75 127.664V129.664L928.656 128.27L926.75 127.664ZM895.951 127.664L894.057 127.02L895.951 129.664V127.664ZM937.839 4.46405V2.46405L935.945 3.82025L937.839 4.46405ZM973.742 4.46405L975.636 3.82025L973.742 2.46405V4.46405ZM1015.63 127.664V129.664L1017.52 127.02L1015.63 127.664ZM941.359 81.9041L939.453 81.2961L941.359 83.9041V81.9041ZM970.223 81.9041V83.9041L972.128 81.2961L970.223 81.9041ZM955.791 36.6721L957.696 36.0641H953.885L955.791 36.6721ZM984.831 127.664L986.736 127.058L980.576 107.698L978.671 108.304L976.765 108.91L982.925 128.27L984.831 127.664ZM978.671 108.304V106.304H932.911V108.304V110.304H978.671V108.304ZM932.911 108.304L931.005 107.698L924.845 127.058L926.75 127.664L928.656 128.27L934.816 108.91L932.911 108.304ZM926.75 127.664V125.664H895.951V127.664V129.664H926.75V127.664ZM895.951 127.664L897.844 128.308L939.732 5.10786L937.839 4.46405L935.945 3.82025L894.057 127.02L895.951 127.664ZM937.839 4.46405V6.46405H973.742V4.46405V2.46405H937.839V4.46405ZM973.742 4.46405L971.849 5.10786L1013.74 128.308L1015.63 127.664L1017.52 127.02L975.636 3.82025L973.742 4.46405ZM1015.63 127.664V125.664H984.831V127.664V129.664H1015.63V127.664ZM941.359 81.9041V83.9041H970.223V81.9041V79.9041H941.359V81.9041ZM970.223 81.9041L972.128 81.2961L957.696 36.0641L955.791 36.6721L953.885 37.28L968.317 82.512L970.223 81.9041ZM955.791 36.6721L953.885 36.0641L939.453 81.2961L941.359 81.9041L943.264 82.512L957.696 37.28L955.791 36.6721ZM1131.31 30.5121L1132.32 32.2423L1133.02 29.4629L1131.31 30.5121ZM1107.03 44.5921L1105.29 45.5878L1108.03 46.3223L1107.03 44.5921ZM1107.03 87.5361L1108.03 85.8058L1105.28 86.5648L1107.03 87.5361ZM1131.31 101.616L1133.03 102.653L1132.32 99.8858L1131.31 101.616ZM1078.51 130.128V128.128C1042.5 128.128 1016.45 101.234 1016.45 66.0641H1014.45H1012.45C1012.45 103.406 1040.26 132.128 1078.51 132.128V130.128ZM1014.45 66.0641H1016.45C1016.45 30.8944 1042.5 4.00005 1078.51 4.00005V2.00005V5.34058e-05C1040.26 5.34058e-05 1012.45 28.7217 1012.45 66.0641H1014.45ZM1078.51 2.00005V4.00005C1100.2 4.00005 1119.26 14.7525 1129.61 31.5612L1131.31 30.5121L1133.02 29.4629C1121.9 11.4236 1101.53 5.34058e-05 1078.51 5.34058e-05V2.00005ZM1131.31 30.5121L1130.31 28.7818L1106.02 42.8618L1107.03 44.5921L1108.03 46.3223L1132.32 32.2423L1131.31 30.5121ZM1107.03 44.5921L1108.76 43.5963C1102.89 33.3772 1091.61 27.4561 1078.51 27.4561V29.4561V31.4561C1090.41 31.4561 1100.25 36.7989 1105.29 45.5878L1107.03 44.5921ZM1078.51 29.4561V27.4561C1067.14 27.4561 1057.62 31.2721 1050.95 38.1132C1044.28 44.9489 1040.61 54.6327 1040.61 66.0641H1042.61H1044.61C1044.61 55.4955 1047.99 46.8752 1053.81 40.907C1059.63 34.944 1068.06 31.4561 1078.51 31.4561V29.4561ZM1042.61 66.0641H1040.61C1040.61 77.4955 1044.28 87.1792 1050.95 94.015C1057.62 100.856 1067.14 104.672 1078.51 104.672V102.672V100.672C1068.06 100.672 1059.63 97.1841 1053.81 91.2212C1047.99 85.2529 1044.61 76.6327 1044.61 66.0641H1042.61ZM1078.51 102.672V104.672C1091.59 104.672 1103.08 98.7637 1108.78 88.5073L1107.03 87.5361L1105.28 86.5648C1100.42 95.3164 1090.43 100.672 1078.51 100.672V102.672ZM1107.03 87.5361L1106.02 89.2663L1130.31 103.346L1131.31 101.616L1132.32 99.8858L1108.03 85.8058L1107.03 87.5361ZM1131.31 101.616L1129.6 100.579C1119.43 117.371 1100.38 128.128 1078.51 128.128V130.128V132.128C1101.7 132.128 1122.08 120.709 1133.03 102.653L1131.31 101.616ZM1209.46 4.46405V2.46405L1207.46 4.46405H1209.46ZM1237.62 4.46405H1239.62L1237.62 2.46405V4.46405ZM1237.62 127.664V129.664L1239.62 127.664H1237.62ZM1209.46 127.664H1207.46L1209.46 129.664V127.664ZM1209.46 78.7361H1211.46L1209.46 76.7361V78.7361ZM1170.74 78.7361V76.7361L1168.74 78.7361H1170.74ZM1170.74 127.664V129.664L1172.74 127.664H1170.74ZM1142.58 127.664H1140.58L1142.58 129.664V127.664ZM1142.58 4.46405V2.46405L1140.58 4.46405H1142.58ZM1170.74 4.46405H1172.74L1170.74 2.46405V4.46405ZM1170.74 51.6321H1168.74L1170.74 53.6321V51.6321ZM1209.46 51.6321V53.6321L1211.46 51.6321H1209.46ZM1209.46 4.46405V6.46405H1237.62V4.46405V2.46405H1209.46V4.46405ZM1237.62 4.46405H1235.62V127.664H1237.62H1239.62V4.46405H1237.62ZM1237.62 127.664V125.664H1209.46V127.664V129.664H1237.62V127.664ZM1209.46 127.664H1211.46V78.7361H1209.46H1207.46V127.664H1209.46ZM1209.46 78.7361V76.7361H1170.74V78.7361V80.7361H1209.46V78.7361ZM1170.74 78.7361H1168.74V127.664H1170.74H1172.74V78.7361H1170.74ZM1170.74 127.664V125.664H1142.58V127.664V129.664H1170.74V127.664ZM1142.58 127.664H1144.58V4.46405H1142.58H1140.58V127.664H1142.58ZM1142.58 4.46405V6.46405H1170.74V4.46405V2.46405H1142.58V4.46405ZM1170.74 4.46405H1168.74V51.6321H1170.74H1172.74V4.46405H1170.74ZM1170.74 51.6321V53.6321H1209.46V51.6321V49.6321H1170.74V51.6321ZM1209.46 51.6321H1211.46V4.46405H1209.46H1207.46V51.6321H1209.46ZM1410.48 30.5121L1411.48 32.2423L1412.18 29.4629L1410.48 30.5121ZM1386.19 44.5921L1384.45 45.5878L1387.19 46.3223L1386.19 44.5921ZM1386.19 87.5361L1387.19 85.8058L1384.44 86.5648L1386.19 87.5361ZM1410.48 101.616L1412.19 102.653L1411.48 99.8858L1410.48 101.616ZM1357.68 130.128V128.128C1321.66 128.128 1295.61 101.234 1295.61 66.0641H1293.61H1291.61C1291.61 103.406 1319.42 132.128 1357.68 132.128V130.128ZM1293.61 66.0641H1295.61C1295.61 30.8944 1321.66 4.00005 1357.68 4.00005V2.00005V5.34058e-05C1319.42 5.34058e-05 1291.61 28.7217 1291.61 66.0641H1293.61ZM1357.68 2.00005V4.00005C1379.36 4.00005 1398.42 14.7525 1408.77 31.5612L1410.48 30.5121L1412.18 29.4629C1401.06 11.4236 1380.69 5.34058e-05 1357.68 5.34058e-05V2.00005ZM1410.48 30.5121L1409.47 28.7818L1385.18 42.8618L1386.19 44.5921L1387.19 46.3223L1411.48 32.2423L1410.48 30.5121ZM1386.19 44.5921L1387.92 43.5963C1382.06 33.3772 1370.77 27.4561 1357.68 27.4561V29.4561V31.4561C1369.57 31.4561 1379.41 36.7989 1384.45 45.5878L1386.19 44.5921ZM1357.68 29.4561V27.4561C1346.3 27.4561 1336.78 31.2721 1330.11 38.1132C1323.44 44.9489 1319.77 54.6327 1319.77 66.0641H1321.77H1323.77C1323.77 55.4955 1327.15 46.8752 1332.97 40.907C1338.79 34.944 1347.22 31.4561 1357.68 31.4561V29.4561ZM1321.77 66.0641H1319.77C1319.77 77.4955 1323.44 87.1792 1330.11 94.015C1336.78 100.856 1346.3 104.672 1357.68 104.672V102.672V100.672C1347.22 100.672 1338.79 97.1841 1332.97 91.2212C1327.15 85.2529 1323.77 76.6327 1323.77 66.0641H1321.77ZM1357.68 102.672V104.672C1370.75 104.672 1382.24 98.7637 1387.94 88.5073L1386.19 87.5361L1384.44 86.5648C1379.58 95.3164 1369.59 100.672 1357.68 100.672V102.672ZM1386.19 87.5361L1385.18 89.2663L1409.47 103.346L1410.48 101.616L1411.48 99.8858L1387.19 85.8058L1386.19 87.5361ZM1410.48 101.616L1408.77 100.579C1398.59 117.371 1379.54 128.128 1357.68 128.128V130.128V132.128C1380.86 132.128 1401.24 120.709 1412.19 102.653L1410.48 101.616ZM1478.8 130.128V128.128C1444.51 128.128 1416.74 101.198 1416.74 66.0641H1414.74H1412.74C1412.74 103.443 1442.34 132.128 1478.8 132.128V130.128ZM1414.74 66.0641H1416.74C1416.74 30.9306 1444.51 4.00005 1478.8 4.00005V2.00005V5.34058e-05C1442.34 5.34058e-05 1412.74 28.6856 1412.74 66.0641H1414.74ZM1478.8 2.00005V4.00005C1513.09 4.00005 1540.87 30.9306 1540.87 66.0641H1542.87H1544.87C1544.87 28.6856 1515.26 5.34058e-05 1478.8 5.34058e-05V2.00005ZM1542.87 66.0641H1540.87C1540.87 101.198 1513.09 128.128 1478.8 128.128V130.128V132.128C1515.26 132.128 1544.87 103.443 1544.87 66.0641H1542.87ZM1478.8 102.672V104.672C1499.95 104.672 1516.71 89.1879 1516.71 66.0641H1514.71H1512.71C1512.71 86.9402 1497.78 100.672 1478.8 100.672V102.672ZM1514.71 66.0641H1516.71C1516.71 42.9402 1499.95 27.4561 1478.8 27.4561V29.4561V31.4561C1497.78 31.4561 1512.71 45.1879 1512.71 66.0641H1514.71ZM1478.8 29.4561V27.4561C1457.65 27.4561 1440.9 42.9402 1440.9 66.0641H1442.9H1444.9C1444.9 45.1879 1459.82 31.4561 1478.8 31.4561V29.4561ZM1442.9 66.0641H1440.9C1440.9 89.1879 1457.65 104.672 1478.8 104.672V102.672V100.672C1459.82 100.672 1444.9 86.9402 1444.9 66.0641H1442.9ZM1630.64 127.664L1628.73 128.27L1630.64 129.664V127.664ZM1624.48 108.304L1626.38 107.698L1624.48 106.304V108.304ZM1578.72 108.304V106.304L1576.81 107.698L1578.72 108.304ZM1572.56 127.664V129.664L1574.46 128.27L1572.56 127.664ZM1541.76 127.664L1539.86 127.02L1541.76 129.664V127.664ZM1583.64 4.46405V2.46405L1581.75 3.82025L1583.64 4.46405ZM1619.55 4.46405L1621.44 3.82025L1619.55 2.46405V4.46405ZM1661.44 127.664V129.664L1663.33 127.02L1661.44 127.664ZM1587.16 81.9041L1585.26 81.2961L1587.16 83.9041V81.9041ZM1616.03 81.9041V83.9041L1617.93 81.2961L1616.03 81.9041ZM1601.6 36.6721L1603.5 36.0641H1599.69L1601.6 36.6721ZM1630.64 127.664L1632.54 127.058L1626.38 107.698L1624.48 108.304L1622.57 108.91L1628.73 128.27L1630.64 127.664ZM1624.48 108.304V106.304H1578.72V108.304V110.304H1624.48V108.304ZM1578.72 108.304L1576.81 107.698L1570.65 127.058L1572.56 127.664L1574.46 128.27L1580.62 108.91L1578.72 108.304ZM1572.56 127.664V125.664H1541.76V127.664V129.664H1572.56V127.664ZM1541.76 127.664L1543.65 128.308L1585.54 5.10786L1583.64 4.46405L1581.75 3.82025L1539.86 127.02L1541.76 127.664ZM1583.64 4.46405V6.46405H1619.55V4.46405V2.46405H1583.64V4.46405ZM1619.55 4.46405L1617.65 5.10786L1659.54 128.308L1661.44 127.664L1663.33 127.02L1621.44 3.82025L1619.55 4.46405ZM1661.44 127.664V125.664H1630.64V127.664V129.664H1661.44V127.664ZM1587.16 81.9041V83.9041H1616.03V81.9041V79.9041H1587.16V81.9041ZM1616.03 81.9041L1617.93 81.2961L1603.5 36.0641L1601.6 36.6721L1599.69 37.28L1614.12 82.512L1616.03 81.9041ZM1601.6 36.6721L1599.69 36.0641L1585.26 81.2961L1587.16 81.9041L1589.07 82.512L1603.5 37.28L1601.6 36.6721ZM1777.12 30.5121L1778.12 32.2423L1778.82 29.4629L1777.12 30.5121ZM1752.83 44.5921L1751.1 45.5878L1753.84 46.3223L1752.83 44.5921ZM1752.83 87.5361L1753.84 85.8058L1751.08 86.5648L1752.83 87.5361ZM1777.12 101.616L1778.83 102.653L1778.12 99.8858L1777.12 101.616ZM1724.32 130.128V128.128C1688.31 128.128 1662.26 101.234 1662.26 66.0641H1660.26H1658.26C1658.26 103.406 1686.06 132.128 1724.32 132.128V130.128ZM1660.26 66.0641H1662.26C1662.26 30.8944 1688.31 4.00005 1724.32 4.00005V2.00005V5.34058e-05C1686.06 5.34058e-05 1658.26 28.7217 1658.26 66.0641H1660.26ZM1724.32 2.00005V4.00005C1746.01 4.00005 1765.06 14.7525 1775.42 31.5612L1777.12 30.5121L1778.82 29.4629C1767.71 11.4236 1747.34 5.34058e-05 1724.32 5.34058e-05V2.00005ZM1777.12 30.5121L1776.12 28.7818L1751.83 42.8618L1752.83 44.5921L1753.84 46.3223L1778.12 32.2423L1777.12 30.5121ZM1752.83 44.5921L1754.57 43.5963C1748.7 33.3772 1737.42 27.4561 1724.32 27.4561V29.4561V31.4561C1736.22 31.4561 1746.05 36.7989 1751.1 45.5878L1752.83 44.5921ZM1724.32 29.4561V27.4561C1712.95 27.4561 1703.43 31.2721 1696.75 38.1132C1690.08 44.9489 1686.42 54.6327 1686.42 66.0641H1688.42H1690.42C1690.42 55.4955 1693.79 46.8752 1699.62 40.907C1705.44 34.944 1713.87 31.4561 1724.32 31.4561V29.4561ZM1688.42 66.0641H1686.42C1686.42 77.4955 1690.08 87.1792 1696.75 94.015C1703.43 100.856 1712.95 104.672 1724.32 104.672V102.672V100.672C1713.87 100.672 1705.44 97.1841 1699.62 91.2212C1693.79 85.2529 1690.42 76.6327 1690.42 66.0641H1688.42ZM1724.32 102.672V104.672C1737.4 104.672 1748.88 98.7637 1754.58 88.5073L1752.83 87.5361L1751.08 86.5648C1746.22 95.3164 1736.24 100.672 1724.32 100.672V102.672ZM1752.83 87.5361L1751.83 89.2663L1776.12 103.346L1777.12 101.616L1778.12 99.8858L1753.84 85.8058L1752.83 87.5361ZM1777.12 101.616L1775.41 100.579C1765.23 117.371 1746.19 128.128 1724.32 128.128V130.128V132.128C1747.51 132.128 1767.89 120.709 1778.83 102.653L1777.12 101.616ZM1855.26 4.46405V2.46405L1853.26 4.46405H1855.26ZM1883.42 4.46405H1885.42L1883.42 2.46405V4.46405ZM1883.42 127.664V129.664L1885.42 127.664H1883.42ZM1855.26 127.664H1853.26L1855.26 129.664V127.664ZM1855.26 78.7361H1857.26L1855.26 76.7361V78.7361ZM1816.54 78.7361V76.7361L1814.54 78.7361H1816.54ZM1816.54 127.664V129.664L1818.54 127.664H1816.54ZM1788.38 127.664H1786.38L1788.38 129.664V127.664ZM1788.38 4.46405V2.46405L1786.38 4.46405H1788.38ZM1816.54 4.46405H1818.54L1816.54 2.46405V4.46405ZM1816.54 51.6321H1814.54L1816.54 53.6321V51.6321ZM1855.26 51.6321V53.6321L1857.26 51.6321H1855.26ZM1855.26 4.46405V6.46405H1883.42V4.46405V2.46405H1855.26V4.46405ZM1883.42 4.46405H1881.42V127.664H1883.42H1885.42V4.46405H1883.42ZM1883.42 127.664V125.664H1855.26V127.664V129.664H1883.42V127.664ZM1855.26 127.664H1857.26V78.7361H1855.26H1853.26V127.664H1855.26ZM1855.26 78.7361V76.7361H1816.54V78.7361V80.7361H1855.26V78.7361ZM1816.54 78.7361H1814.54V127.664H1816.54H1818.54V78.7361H1816.54ZM1816.54 127.664V125.664H1788.38V127.664V129.664H1816.54V127.664ZM1788.38 127.664H1790.38V4.46405H1788.38H1786.38V127.664H1788.38ZM1788.38 4.46405V6.46405H1816.54V4.46405V2.46405H1788.38V4.46405ZM1816.54 4.46405H1814.54V51.6321H1816.54H1818.54V4.46405H1816.54ZM1816.54 51.6321V53.6321H1855.26V51.6321V49.6321H1816.54V51.6321ZM1855.26 51.6321H1857.26V4.46405H1855.26H1853.26V51.6321H1855.26Z" fill="white" mask="url(#path-1-outside-1_1717_632)"/>
</svg>
