<svg width="2120" height="115" viewBox="0 0 2120 115" fill="none" xmlns="http://www.w3.org/2000/svg">
<mask id="path-1-outside-1_1510_1018" maskUnits="userSpaceOnUse" x="-0.120117" y="-0.472656" width="2121" height="116" fill="black">
<rect fill="white" x="-0.120117" y="-0.472656" width="2121" height="116"/>
<path d="M61.2799 4.12734H85.5999V110.527H67.3599L26.3199 52.7673V110.527H1.99988V4.12734H20.2399L61.2799 61.8873V4.12734ZM126.476 87.1193H169.036V110.527H102.156V4.12734H168.276V27.5353H126.476V45.1673H164.476V68.2713H126.476V87.1193ZM205.406 87.1193H247.966V110.527H181.086V4.12734H247.206V27.5353H205.406V45.1673H243.406V68.2713H205.406V87.1193ZM302.575 4.12734C331.911 4.12734 354.255 27.2313 354.255 57.3273C354.255 87.4233 331.911 110.527 302.575 110.527H260.015V4.12734H302.575ZM302.575 87.1193C319.295 87.1193 330.847 75.5673 330.847 57.3273C330.847 39.0873 319.295 27.5353 302.575 27.5353H284.335V87.1193H302.575ZM390.577 87.1193H428.577V110.527H366.257V4.12734H390.577V87.1193ZM461.936 87.1193H504.496V110.527H437.616V4.12734H503.736V27.5353H461.936V45.1673H499.936V68.2713H461.936V87.1193ZM553.786 112.655C531.442 112.655 517.154 102.015 511.226 86.3593L532.202 74.1993C536.002 83.0153 542.538 88.9433 554.546 88.9433C566.098 88.9433 568.986 84.3833 568.986 80.2793C568.986 73.7433 562.906 71.1593 546.946 66.7513C531.138 62.3433 515.634 54.7433 515.634 34.3753C515.634 13.8553 532.962 1.99934 551.354 1.99934C568.834 1.99934 582.514 10.3593 590.266 26.0153L569.746 38.0233C566.098 30.4233 561.082 25.7113 551.354 25.7113C543.754 25.7113 539.954 29.5113 539.954 33.7673C539.954 38.6313 542.538 41.9753 559.106 46.9913C575.218 51.8553 593.306 57.4793 593.306 79.9753C593.306 100.495 576.89 112.655 553.786 112.655ZM690.884 112.655C658.812 112.655 635.556 88.6393 635.556 57.3273C635.556 26.0153 658.812 1.99934 690.884 1.99934C710.188 1.99934 727.212 11.5753 736.484 26.6233L715.508 38.7833C710.796 30.5753 701.676 25.7113 690.884 25.7113C672.036 25.7113 659.876 38.3273 659.876 57.3273C659.876 76.3273 672.036 88.9433 690.884 88.9433C701.676 88.9433 710.948 84.0793 715.508 75.8713L736.484 88.0313C727.364 103.079 710.34 112.655 690.884 112.655ZM803.97 4.12734H828.29V110.527H803.97V68.2713H770.53V110.527H746.21V4.12734H770.53V44.8633H803.97V4.12734ZM869.201 87.1193H911.761V110.527H844.881V4.12734H911.001V27.5353H869.201V45.1673H907.201V68.2713H869.201V87.1193ZM948.131 87.1193H990.691V110.527H923.811V4.12734H989.931V27.5353H948.131V45.1673H986.131V68.2713H948.131V87.1193ZM1058.68 110.527L1038.61 75.5673H1027.06V110.527H1002.74V4.12734H1045.3C1065.52 4.12734 1081.78 20.3913 1081.78 40.6073C1081.78 53.6793 1073.88 65.5353 1062.17 71.4633L1084.82 110.527H1058.68ZM1027.06 26.9273V54.2873H1045.3C1051.99 54.2873 1057.46 48.3593 1057.46 40.6073C1057.46 32.8553 1051.99 26.9273 1045.3 26.9273H1027.06ZM1118.9 87.1193H1156.9V110.527H1094.58V4.12734H1118.9V87.1193ZM1190.26 87.1193H1232.82V110.527H1165.94V4.12734H1232.06V27.5353H1190.26V45.1673H1228.26V68.2713H1190.26V87.1193ZM1314 110.527L1308.68 93.8073H1269.16L1263.84 110.527H1237.24L1273.41 4.12734H1304.42L1340.6 110.527H1314ZM1276.45 71.0073H1301.38L1288.92 31.9433L1276.45 71.0073ZM1390.56 4.12734C1419.89 4.12734 1442.24 27.2313 1442.24 57.3273C1442.24 87.4233 1419.89 110.527 1390.56 110.527H1348V4.12734H1390.56ZM1390.56 87.1193C1407.28 87.1193 1418.83 75.5673 1418.83 57.3273C1418.83 39.0873 1407.28 27.5353 1390.56 27.5353H1372.32V87.1193H1390.56ZM1454.24 4.12734H1478.56V110.527H1454.24V4.12734ZM1554.45 4.12734H1578.77V110.527H1560.53L1519.49 52.7673V110.527H1495.17V4.12734H1513.41L1554.45 61.8873V4.12734ZM1700.66 51.2473V60.3673C1700.66 92.8953 1678.01 112.655 1648.22 112.655C1614.78 112.655 1590.77 88.0313 1590.77 57.4793C1590.77 26.6233 1615.24 1.99934 1646.55 1.99934C1666.92 1.99934 1684.09 12.0313 1693.06 26.3193L1672.39 38.1753C1667.98 31.1833 1658.41 25.7113 1646.4 25.7113C1628.46 25.7113 1615.09 38.9353 1615.09 57.6313C1615.09 75.7193 1627.85 88.9433 1648.53 88.9433C1662.66 88.9433 1671.93 82.7113 1675.73 72.5273H1647.31V51.2473H1700.66ZM1820.47 4.12734V27.5353H1793.11V110.527H1768.79V27.5353H1741.43V4.12734H1820.47ZM1853.76 87.1193H1896.32V110.527H1829.44V4.12734H1895.56V27.5353H1853.76V45.1673H1891.76V68.2713H1853.76V87.1193ZM1977.5 110.527L1972.18 93.8073H1932.66L1927.34 110.527H1900.74L1936.91 4.12734H1967.92L2004.1 110.527H1977.5ZM1939.95 71.0073H1964.88L1952.42 31.9433L1939.95 71.0073ZM2117.9 4.12734V110.527H2093.58V48.6633L2066.06 93.8073H2063.33L2035.82 48.6633V110.527H2011.5V4.12734H2035.82L2064.7 51.3993L2093.58 4.12734H2117.9Z"/>
</mask>
<path d="M61.2799 4.12733V2.12733L59.2799 4.12733H61.2799ZM85.5999 4.12733H87.5999L85.5999 2.12733V4.12733ZM85.5999 110.527V112.527L87.5999 110.527H85.5999ZM67.3599 110.527L65.7295 111.686L67.3599 112.527V110.527ZM26.3199 52.7673L27.9502 51.6089L24.3199 52.7673H26.3199ZM26.3199 110.527V112.527L28.3199 110.527H26.3199ZM1.99988 110.527H-0.000116825L1.99988 112.527V110.527ZM1.99988 4.12733V2.12733L-0.000116825 4.12733H1.99988ZM20.2399 4.12733L21.8702 2.96893L20.2399 2.12733V4.12733ZM61.2799 61.8873L59.6495 63.0458L63.2799 61.8873H61.2799ZM61.2799 4.12733V6.12733H85.5999V4.12733V2.12733H61.2799V4.12733ZM85.5999 4.12733H83.5999V110.527H85.5999H87.5999V4.12733H85.5999ZM85.5999 110.527V108.527H67.3599V110.527V112.527H85.5999V110.527ZM67.3599 110.527L68.9902 109.369L27.9502 51.6089L26.3199 52.7673L24.6895 53.9258L65.7295 111.686L67.3599 110.527ZM26.3199 52.7673H24.3199V110.527H26.3199H28.3199V52.7673H26.3199ZM26.3199 110.527V108.527H1.99988V110.527V112.527H26.3199V110.527ZM1.99988 110.527H3.99988V4.12733H1.99988H-0.000116825V110.527H1.99988ZM1.99988 4.12733V6.12733H20.2399V4.12733V2.12733H1.99988V4.12733ZM20.2399 4.12733L18.6095 5.28575L59.6495 63.0458L61.2799 61.8873L62.9102 60.7289L21.8702 2.96893L20.2399 4.12733ZM61.2799 61.8873H63.2799V4.12733H61.2799H59.2799V61.8873H61.2799ZM126.476 87.1193H124.476L126.476 89.1193V87.1193ZM169.036 87.1193H171.036L169.036 85.1193V87.1193ZM169.036 110.527V112.527L171.036 110.527H169.036ZM102.156 110.527H100.156L102.156 112.527V110.527ZM102.156 4.12733V2.12733L100.156 4.12733H102.156ZM168.276 4.12733H170.276L168.276 2.12733V4.12733ZM168.276 27.5353V29.5353L170.276 27.5353H168.276ZM126.476 27.5353V25.5353L124.476 27.5353H126.476ZM126.476 45.1673H124.476L126.476 47.1673V45.1673ZM164.476 45.1673H166.476L164.476 43.1673V45.1673ZM164.476 68.2713V70.2713L166.476 68.2713H164.476ZM126.476 68.2713V66.2713L124.476 68.2713H126.476ZM126.476 87.1193V89.1193H169.036V87.1193V85.1193H126.476V87.1193ZM169.036 87.1193H167.036V110.527H169.036H171.036V87.1193H169.036ZM169.036 110.527V108.527H102.156V110.527V112.527H169.036V110.527ZM102.156 110.527H104.156V4.12733H102.156H100.156V110.527H102.156ZM102.156 4.12733V6.12733H168.276V4.12733V2.12733H102.156V4.12733ZM168.276 4.12733H166.276V27.5353H168.276H170.276V4.12733H168.276ZM168.276 27.5353V25.5353H126.476V27.5353V29.5353H168.276V27.5353ZM126.476 27.5353H124.476V45.1673H126.476H128.476V27.5353H126.476ZM126.476 45.1673V47.1673H164.476V45.1673V43.1673H126.476V45.1673ZM164.476 45.1673H162.476V68.2713H164.476H166.476V45.1673H164.476ZM164.476 68.2713V66.2713H126.476V68.2713V70.2713H164.476V68.2713ZM126.476 68.2713H124.476V87.1193H126.476H128.476V68.2713H126.476ZM205.406 87.1193H203.406L205.406 89.1193V87.1193ZM247.966 87.1193H249.966L247.966 85.1193V87.1193ZM247.966 110.527V112.527L249.966 110.527H247.966ZM181.086 110.527H179.086L181.086 112.527V110.527ZM181.086 4.12733V2.12733L179.086 4.12733H181.086ZM247.206 4.12733H249.206L247.206 2.12733V4.12733ZM247.206 27.5353V29.5353L249.206 27.5353H247.206ZM205.406 27.5353V25.5353L203.406 27.5353H205.406ZM205.406 45.1673H203.406L205.406 47.1673V45.1673ZM243.406 45.1673H245.406L243.406 43.1673V45.1673ZM243.406 68.2713V70.2713L245.406 68.2713H243.406ZM205.406 68.2713V66.2713L203.406 68.2713H205.406ZM205.406 87.1193V89.1193H247.966V87.1193V85.1193H205.406V87.1193ZM247.966 87.1193H245.966V110.527H247.966H249.966V87.1193H247.966ZM247.966 110.527V108.527H181.086V110.527V112.527H247.966V110.527ZM181.086 110.527H183.086V4.12733H181.086H179.086V110.527H181.086ZM181.086 4.12733V6.12733H247.206V4.12733V2.12733H181.086V4.12733ZM247.206 4.12733H245.206V27.5353H247.206H249.206V4.12733H247.206ZM247.206 27.5353V25.5353H205.406V27.5353V29.5353H247.206V27.5353ZM205.406 27.5353H203.406V45.1673H205.406H207.406V27.5353H205.406ZM205.406 45.1673V47.1673H243.406V45.1673V43.1673H205.406V45.1673ZM243.406 45.1673H241.406V68.2713H243.406H245.406V45.1673H243.406ZM243.406 68.2713V66.2713H205.406V68.2713V70.2713H243.406V68.2713ZM205.406 68.2713H203.406V87.1193H205.406H207.406V68.2713H205.406ZM260.015 110.527H258.015L260.015 112.527V110.527ZM260.015 4.12733V2.12733L258.015 4.12733H260.015ZM284.335 27.5353V25.5353L282.335 27.5353H284.335ZM284.335 87.1193H282.335L284.335 89.1193V87.1193ZM302.575 4.12733V6.12733C330.75 6.12733 352.255 28.2783 352.255 57.3273H354.255H356.255C356.255 26.1844 333.072 2.12733 302.575 2.12733V4.12733ZM354.255 57.3273H352.255C352.255 86.3764 330.75 108.527 302.575 108.527V110.527V112.527C333.072 112.527 356.255 88.4703 356.255 57.3273H354.255ZM302.575 110.527V108.527H260.015V110.527V112.527H302.575V110.527ZM260.015 110.527H262.015V4.12733H260.015H258.015V110.527H260.015ZM260.015 4.12733V6.12733H302.575V4.12733V2.12733H260.015V4.12733ZM302.575 87.1193V89.1193C311.41 89.1193 319.022 86.0569 324.422 80.4508C329.817 74.8498 332.847 66.8745 332.847 57.3273H330.847H328.847C328.847 66.0202 326.102 72.9409 321.541 77.6759C316.985 82.4058 310.46 85.1193 302.575 85.1193V87.1193ZM330.847 57.3273H332.847C332.847 47.7802 329.817 39.8049 324.422 34.2039C319.022 28.5978 311.41 25.5353 302.575 25.5353V27.5353V29.5353C310.46 29.5353 316.985 32.2489 321.541 36.9788C326.102 41.7138 328.847 48.6345 328.847 57.3273H330.847ZM302.575 27.5353V25.5353H284.335V27.5353V29.5353H302.575V27.5353ZM284.335 27.5353H282.335V87.1193H284.335H286.335V27.5353H284.335ZM284.335 87.1193V89.1193H302.575V87.1193V85.1193H284.335V87.1193ZM390.577 87.1193H388.577L390.577 89.1193V87.1193ZM428.577 87.1193H430.577L428.577 85.1193V87.1193ZM428.577 110.527V112.527L430.577 110.527H428.577ZM366.257 110.527H364.257L366.257 112.527V110.527ZM366.257 4.12733V2.12733L364.257 4.12733H366.257ZM390.577 4.12733H392.577L390.577 2.12733V4.12733ZM390.577 87.1193V89.1193H428.577V87.1193V85.1193H390.577V87.1193ZM428.577 87.1193H426.577V110.527H428.577H430.577V87.1193H428.577ZM428.577 110.527V108.527H366.257V110.527V112.527H428.577V110.527ZM366.257 110.527H368.257V4.12733H366.257H364.257V110.527H366.257ZM366.257 4.12733V6.12733H390.577V4.12733V2.12733H366.257V4.12733ZM390.577 4.12733H388.577V87.1193H390.577H392.577V4.12733H390.577ZM461.936 87.1193H459.936L461.936 89.1193V87.1193ZM504.496 87.1193H506.496L504.496 85.1193V87.1193ZM504.496 110.527V112.527L506.496 110.527H504.496ZM437.616 110.527H435.616L437.616 112.527V110.527ZM437.616 4.12733V2.12733L435.616 4.12733H437.616ZM503.736 4.12733H505.736L503.736 2.12733V4.12733ZM503.736 27.5353V29.5353L505.736 27.5353H503.736ZM461.936 27.5353V25.5353L459.936 27.5353H461.936ZM461.936 45.1673H459.936L461.936 47.1673V45.1673ZM499.936 45.1673H501.936L499.936 43.1673V45.1673ZM499.936 68.2713V70.2713L501.936 68.2713H499.936ZM461.936 68.2713V66.2713L459.936 68.2713H461.936ZM461.936 87.1193V89.1193H504.496V87.1193V85.1193H461.936V87.1193ZM504.496 87.1193H502.496V110.527H504.496H506.496V87.1193H504.496ZM504.496 110.527V108.527H437.616V110.527V112.527H504.496V110.527ZM437.616 110.527H439.616V4.12733H437.616H435.616V110.527H437.616ZM437.616 4.12733V6.12733H503.736V4.12733V2.12733H437.616V4.12733ZM503.736 4.12733H501.736V27.5353H503.736H505.736V4.12733H503.736ZM503.736 27.5353V25.5353H461.936V27.5353V29.5353H503.736V27.5353ZM461.936 27.5353H459.936V45.1673H461.936H463.936V27.5353H461.936ZM461.936 45.1673V47.1673H499.936V45.1673V43.1673H461.936V45.1673ZM499.936 45.1673H497.936V68.2713H499.936H501.936V45.1673H499.936ZM499.936 68.2713V66.2713H461.936V68.2713V70.2713H499.936V68.2713ZM461.936 68.2713H459.936V87.1193H461.936H463.936V68.2713H461.936ZM511.226 86.3593L510.223 84.6291L509.356 87.0676L511.226 86.3593ZM532.202 74.1993L534.039 73.4077L531.199 72.4691L532.202 74.1993ZM546.946 66.7513L546.409 68.6779L546.414 68.6792L546.946 66.7513ZM590.266 26.0153L591.276 27.7415L592.058 25.1279L590.266 26.0153ZM569.746 38.0233L567.943 38.8888L570.756 39.7495L569.746 38.0233ZM559.106 46.9913L558.526 48.9055L558.528 48.906L559.106 46.9913ZM553.786 112.655V110.655C532.18 110.655 518.698 100.446 513.096 85.6511L511.226 86.3593L509.356 87.0676C515.61 103.585 530.704 114.655 553.786 114.655V112.655ZM511.226 86.3593L512.229 88.0896L533.205 75.9296L532.202 74.1993L531.199 72.4691L510.223 84.6291L511.226 86.3593ZM532.202 74.1993L530.365 74.991C532.364 79.6272 535.144 83.6494 539.132 86.5037C543.136 89.3697 548.197 90.9433 554.546 90.9433V88.9433V86.9433C548.887 86.9433 544.676 85.553 541.46 83.251C538.228 80.9373 535.84 77.5875 534.039 73.4077L532.202 74.1993ZM554.546 88.9433V90.9433C560.536 90.9433 564.653 89.7692 567.311 87.7402C570.058 85.6441 570.986 82.8398 570.986 80.2793H568.986H566.986C566.986 81.8228 566.47 83.3505 564.885 84.5604C563.211 85.8375 560.108 86.9433 554.546 86.9433V88.9433ZM568.986 80.2793H570.986C570.986 78.3103 570.52 76.5243 569.451 74.9194C568.403 73.3455 566.865 72.0822 564.945 70.982C561.173 68.8205 555.409 67.0138 547.478 64.8235L546.946 66.7513L546.414 68.6792C554.443 70.8968 559.699 72.5862 562.957 74.4527C564.552 75.3665 565.532 76.2501 566.122 77.1367C566.692 77.9924 566.986 78.9804 566.986 80.2793H568.986ZM546.946 66.7513L547.483 64.8248C539.656 62.6421 532.173 59.7343 526.661 55.0274C521.244 50.4019 517.634 43.9612 517.634 34.3753H515.634H513.634C513.634 45.1574 517.776 52.7008 524.063 58.0693C530.255 63.3564 538.429 66.4526 546.409 68.6778L546.946 66.7513ZM515.634 34.3753H517.634C517.634 15.2849 533.711 3.99934 551.354 3.99934V1.99934V-0.000663757C532.213 -0.000663757 513.634 12.4258 513.634 34.3753H515.634ZM551.354 1.99934V3.99934C568.085 3.99934 581.064 11.9386 588.474 26.9028L590.266 26.0153L592.058 25.1279C583.964 8.7801 569.583 -0.000663757 551.354 -0.000663757V1.99934ZM590.266 26.0153L589.256 24.2892L568.736 36.2972L569.746 38.0233L570.756 39.7495L591.276 27.7415L590.266 26.0153ZM569.746 38.0233L571.549 37.1579C569.647 33.1961 567.301 29.7959 564.006 27.3999C560.68 24.9808 556.562 23.7113 551.354 23.7113V25.7113V27.7113C555.874 27.7113 559.128 28.7979 561.654 30.6348C564.211 32.4948 566.197 35.2506 567.943 38.8888L569.746 38.0233ZM551.354 25.7113V23.7113C547.237 23.7113 543.915 24.7406 541.574 26.5663C539.206 28.4136 537.954 31.0011 537.954 33.7673H539.954H541.954C541.954 32.2775 542.602 30.8371 544.034 29.7203C545.493 28.5821 547.872 27.7113 551.354 27.7113V25.7113ZM539.954 33.7673H537.954C537.954 35.162 538.139 36.598 538.804 38.0247C539.47 39.4555 540.548 40.7266 542.105 41.9129C545.133 44.2215 550.231 46.3941 558.526 48.9055L559.106 46.9913L559.686 45.0771C551.413 42.5726 546.935 40.5651 544.529 38.7317C543.369 37.8471 542.765 37.0567 542.43 36.3358C542.092 35.6106 541.954 34.8047 541.954 33.7673H539.954ZM559.106 46.9913L558.528 48.906C566.654 51.359 574.852 53.8964 581.06 58.4803C587.109 62.9467 591.306 69.3911 591.306 79.9753H593.306H595.306C595.306 68.0636 590.459 60.4479 583.436 55.2624C576.572 50.1943 567.67 47.4877 559.684 45.0767L559.106 46.9913ZM593.306 79.9753H591.306C591.306 89.648 587.463 97.2365 580.959 102.45C574.409 107.701 565.008 110.655 553.786 110.655V112.655V114.655C565.668 114.655 576.027 111.53 583.461 105.571C590.942 99.5742 595.306 90.8227 595.306 79.9753H593.306ZM736.484 26.6233L737.487 28.3536L738.187 25.5742L736.484 26.6233ZM715.508 38.7833L713.774 39.7791L716.511 40.5136L715.508 38.7833ZM715.508 75.8713L716.511 74.1411L713.76 74.9001L715.508 75.8713ZM736.484 88.0313L738.194 89.0679L737.487 86.3011L736.484 88.0313ZM690.884 112.655V110.655C659.935 110.655 637.556 87.553 637.556 57.3273H635.556H633.556C633.556 89.7257 657.689 114.655 690.884 114.655V112.655ZM635.556 57.3273H637.556C637.556 27.1017 659.935 3.99934 690.884 3.99934V1.99934V-0.000663757C657.689 -0.000663757 633.556 24.929 633.556 57.3273H635.556ZM690.884 1.99934V3.99934C709.523 3.99934 725.888 13.2398 734.781 27.6725L736.484 26.6233L738.187 25.5742C728.536 9.91092 710.853 -0.000663757 690.884 -0.000663757V1.99934ZM736.484 26.6233L735.481 24.8931L714.505 37.0531L715.508 38.7833L716.511 40.5136L737.487 28.3536L736.484 26.6233ZM715.508 38.7833L717.243 37.7876C712.12 28.8645 702.277 23.7113 690.884 23.7113V25.7113V27.7113C701.075 27.7113 709.472 32.2862 713.774 39.7791L715.508 38.7833ZM690.884 25.7113V23.7113C681.001 23.7113 672.705 27.0294 666.881 32.9974C661.061 38.9602 657.876 47.3959 657.876 57.3273H659.876H661.876C661.876 48.2587 664.771 40.8865 669.743 35.7912C674.711 30.7013 681.919 27.7113 690.884 27.7113V25.7113ZM659.876 57.3273H657.876C657.876 67.2587 661.061 75.6945 666.881 81.6572C672.705 87.6253 681.001 90.9433 690.884 90.9433V88.9433V86.9433C681.919 86.9433 674.711 83.9534 669.743 78.8634C664.771 73.7682 661.876 66.3959 661.876 57.3273H659.876ZM690.884 88.9433V90.9433C702.257 90.9433 712.278 85.803 717.256 76.8426L715.508 75.8713L713.76 74.9001C709.618 82.3557 701.095 86.9433 690.884 86.9433V88.9433ZM715.508 75.8713L714.505 77.6016L735.481 89.7616L736.484 88.0313L737.487 86.3011L716.511 74.1411L715.508 75.8713ZM736.484 88.0313L734.774 86.9947C726.037 101.411 709.681 110.655 690.884 110.655V112.655V114.655C710.999 114.655 728.691 104.748 738.194 89.0679L736.484 88.0313ZM803.97 4.12733V2.12733L801.97 4.12733H803.97ZM828.29 4.12733H830.29L828.29 2.12733V4.12733ZM828.29 110.527V112.527L830.29 110.527H828.29ZM803.97 110.527H801.97L803.97 112.527V110.527ZM803.97 68.2713H805.97L803.97 66.2713V68.2713ZM770.53 68.2713V66.2713L768.53 68.2713H770.53ZM770.53 110.527V112.527L772.53 110.527H770.53ZM746.21 110.527H744.21L746.21 112.527V110.527ZM746.21 4.12733V2.12733L744.21 4.12733H746.21ZM770.53 4.12733H772.53L770.53 2.12733V4.12733ZM770.53 44.8633H768.53L770.53 46.8633V44.8633ZM803.97 44.8633V46.8633L805.97 44.8633H803.97ZM803.97 4.12733V6.12733H828.29V4.12733V2.12733H803.97V4.12733ZM828.29 4.12733H826.29V110.527H828.29H830.29V4.12733H828.29ZM828.29 110.527V108.527H803.97V110.527V112.527H828.29V110.527ZM803.97 110.527H805.97V68.2713H803.97H801.97V110.527H803.97ZM803.97 68.2713V66.2713H770.53V68.2713V70.2713H803.97V68.2713ZM770.53 68.2713H768.53V110.527H770.53H772.53V68.2713H770.53ZM770.53 110.527V108.527H746.21V110.527V112.527H770.53V110.527ZM746.21 110.527H748.21V4.12733H746.21H744.21V110.527H746.21ZM746.21 4.12733V6.12733H770.53V4.12733V2.12733H746.21V4.12733ZM770.53 4.12733H768.53V44.8633H770.53H772.53V4.12733H770.53ZM770.53 44.8633V46.8633H803.97V44.8633V42.8633H770.53V44.8633ZM803.97 44.8633H805.97V4.12733H803.97H801.97V44.8633H803.97ZM869.201 87.1193H867.201L869.201 89.1193V87.1193ZM911.761 87.1193H913.761L911.761 85.1193V87.1193ZM911.761 110.527V112.527L913.761 110.527H911.761ZM844.881 110.527H842.881L844.881 112.527V110.527ZM844.881 4.12733V2.12733L842.881 4.12733H844.881ZM911.001 4.12733H913.001L911.001 2.12733V4.12733ZM911.001 27.5353V29.5353L913.001 27.5353H911.001ZM869.201 27.5353V25.5353L867.201 27.5353H869.201ZM869.201 45.1673H867.201L869.201 47.1673V45.1673ZM907.201 45.1673H909.201L907.201 43.1673V45.1673ZM907.201 68.2713V70.2713L909.201 68.2713H907.201ZM869.201 68.2713V66.2713L867.201 68.2713H869.201ZM869.201 87.1193V89.1193H911.761V87.1193V85.1193H869.201V87.1193ZM911.761 87.1193H909.761V110.527H911.761H913.761V87.1193H911.761ZM911.761 110.527V108.527H844.881V110.527V112.527H911.761V110.527ZM844.881 110.527H846.881V4.12733H844.881H842.881V110.527H844.881ZM844.881 4.12733V6.12733H911.001V4.12733V2.12733H844.881V4.12733ZM911.001 4.12733H909.001V27.5353H911.001H913.001V4.12733H911.001ZM911.001 27.5353V25.5353H869.201V27.5353V29.5353H911.001V27.5353ZM869.201 27.5353H867.201V45.1673H869.201H871.201V27.5353H869.201ZM869.201 45.1673V47.1673H907.201V45.1673V43.1673H869.201V45.1673ZM907.201 45.1673H905.201V68.2713H907.201H909.201V45.1673H907.201ZM907.201 68.2713V66.2713H869.201V68.2713V70.2713H907.201V68.2713ZM869.201 68.2713H867.201V87.1193H869.201H871.201V68.2713H869.201ZM948.131 87.1193H946.131L948.131 89.1193V87.1193ZM990.691 87.1193H992.691L990.691 85.1193V87.1193ZM990.691 110.527V112.527L992.691 110.527H990.691ZM923.811 110.527H921.811L923.811 112.527V110.527ZM923.811 4.12733V2.12733L921.811 4.12733H923.811ZM989.931 4.12733H991.931L989.931 2.12733V4.12733ZM989.931 27.5353V29.5353L991.931 27.5353H989.931ZM948.131 27.5353V25.5353L946.131 27.5353H948.131ZM948.131 45.1673H946.131L948.131 47.1673V45.1673ZM986.131 45.1673H988.131L986.131 43.1673V45.1673ZM986.131 68.2713V70.2713L988.131 68.2713H986.131ZM948.131 68.2713V66.2713L946.131 68.2713H948.131ZM948.131 87.1193V89.1193H990.691V87.1193V85.1193H948.131V87.1193ZM990.691 87.1193H988.691V110.527H990.691H992.691V87.1193H990.691ZM990.691 110.527V108.527H923.811V110.527V112.527H990.691V110.527ZM923.811 110.527H925.811V4.12733H923.811H921.811V110.527H923.811ZM923.811 4.12733V6.12733H989.931V4.12733V2.12733H923.811V4.12733ZM989.931 4.12733H987.931V27.5353H989.931H991.931V4.12733H989.931ZM989.931 27.5353V25.5353H948.131V27.5353V29.5353H989.931V27.5353ZM948.131 27.5353H946.131V45.1673H948.131H950.131V27.5353H948.131ZM948.131 45.1673V47.1673H986.131V45.1673V43.1673H948.131V45.1673ZM986.131 45.1673H984.131V68.2713H986.131H988.131V45.1673H986.131ZM986.131 68.2713V66.2713H948.131V68.2713V70.2713H986.131V68.2713ZM948.131 68.2713H946.131V87.1193H948.131H950.131V68.2713H948.131ZM1058.68 110.527L1056.94 111.523L1058.68 112.527V110.527ZM1038.61 75.5673L1040.35 74.5718L1038.61 73.5673V75.5673ZM1027.06 75.5673V73.5673L1025.06 75.5673H1027.06ZM1027.06 110.527V112.527L1029.06 110.527H1027.06ZM1002.74 110.527H1000.74L1002.74 112.527V110.527ZM1002.74 4.12733V2.12733L1000.74 4.12733H1002.74ZM1062.17 71.4633L1061.27 69.6792L1060.44 72.4665L1062.17 71.4633ZM1084.82 110.527V112.527L1086.55 109.524L1084.82 110.527ZM1027.06 26.9273V24.9273L1025.06 26.9273H1027.06ZM1027.06 54.2873H1025.06L1027.06 56.2873V54.2873ZM1058.68 110.527L1060.41 109.532L1040.35 74.5718L1038.61 75.5673L1036.88 76.5629L1056.94 111.523L1058.68 110.527ZM1038.61 75.5673V73.5673H1027.06V75.5673V77.5673H1038.61V75.5673ZM1027.06 75.5673H1025.06V110.527H1027.06H1029.06V75.5673H1027.06ZM1027.06 110.527V108.527H1002.74V110.527V112.527H1027.06V110.527ZM1002.74 110.527H1004.74V4.12733H1002.74H1000.74V110.527H1002.74ZM1002.74 4.12733V6.12733H1045.3V4.12733V2.12733H1002.74V4.12733ZM1045.3 4.12733V6.12733C1064.41 6.12733 1079.78 21.4959 1079.78 40.6073H1081.78H1083.78C1083.78 19.2868 1066.62 2.12733 1045.3 2.12733V4.12733ZM1081.78 40.6073H1079.78C1079.78 52.8602 1072.36 64.0612 1061.27 69.6792L1062.17 71.4633L1063.08 73.2475C1075.39 67.0095 1083.78 54.4985 1083.78 40.6073H1081.78ZM1062.17 71.4633L1060.44 72.4665L1083.09 111.53L1084.82 110.527L1086.55 109.524L1063.9 70.4602L1062.17 71.4633ZM1084.82 110.527V108.527H1058.68V110.527V112.527H1084.82V110.527ZM1027.06 26.9273H1025.06V54.2873H1027.06H1029.06V26.9273H1027.06ZM1027.06 54.2873V56.2873H1045.3V54.2873V52.2873H1027.06V54.2873ZM1045.3 54.2873V56.2873C1053.29 56.2873 1059.46 49.2588 1059.46 40.6073H1057.46H1055.46C1055.46 47.4599 1050.69 52.2873 1045.3 52.2873V54.2873ZM1057.46 40.6073H1059.46C1059.46 31.9559 1053.29 24.9273 1045.3 24.9273V26.9273V28.9273C1050.69 28.9273 1055.46 33.7548 1055.46 40.6073H1057.46ZM1045.3 26.9273V24.9273H1027.06V26.9273V28.9273H1045.3V26.9273ZM1118.9 87.1193H1116.9L1118.9 89.1193V87.1193ZM1156.9 87.1193H1158.9L1156.9 85.1193V87.1193ZM1156.9 110.527V112.527L1158.9 110.527H1156.9ZM1094.58 110.527H1092.58L1094.58 112.527V110.527ZM1094.58 4.12733V2.12733L1092.58 4.12733H1094.58ZM1118.9 4.12733H1120.9L1118.9 2.12733V4.12733ZM1118.9 87.1193V89.1193H1156.9V87.1193V85.1193H1118.9V87.1193ZM1156.9 87.1193H1154.9V110.527H1156.9H1158.9V87.1193H1156.9ZM1156.9 110.527V108.527H1094.58V110.527V112.527H1156.9V110.527ZM1094.58 110.527H1096.58V4.12733H1094.58H1092.58V110.527H1094.58ZM1094.58 4.12733V6.12733H1118.9V4.12733V2.12733H1094.58V4.12733ZM1118.9 4.12733H1116.9V87.1193H1118.9H1120.9V4.12733H1118.9ZM1190.26 87.1193H1188.26L1190.26 89.1193V87.1193ZM1232.82 87.1193H1234.82L1232.82 85.1193V87.1193ZM1232.82 110.527V112.527L1234.82 110.527H1232.82ZM1165.94 110.527H1163.94L1165.94 112.527V110.527ZM1165.94 4.12733V2.12733L1163.94 4.12733H1165.94ZM1232.06 4.12733H1234.06L1232.06 2.12733V4.12733ZM1232.06 27.5353V29.5353L1234.06 27.5353H1232.06ZM1190.26 27.5353V25.5353L1188.26 27.5353H1190.26ZM1190.26 45.1673H1188.26L1190.26 47.1673V45.1673ZM1228.26 45.1673H1230.26L1228.26 43.1673V45.1673ZM1228.26 68.2713V70.2713L1230.26 68.2713H1228.26ZM1190.26 68.2713V66.2713L1188.26 68.2713H1190.26ZM1190.26 87.1193V89.1193H1232.82V87.1193V85.1193H1190.26V87.1193ZM1232.82 87.1193H1230.82V110.527H1232.82H1234.82V87.1193H1232.82ZM1232.82 110.527V108.527H1165.94V110.527V112.527H1232.82V110.527ZM1165.94 110.527H1167.94V4.12733H1165.94H1163.94V110.527H1165.94ZM1165.94 4.12733V6.12733H1232.06V4.12733V2.12733H1165.94V4.12733ZM1232.06 4.12733H1230.06V27.5353H1232.06H1234.06V4.12733H1232.06ZM1232.06 27.5353V25.5353H1190.26V27.5353V29.5353H1232.06V27.5353ZM1190.26 27.5353H1188.26V45.1673H1190.26H1192.26V27.5353H1190.26ZM1190.26 45.1673V47.1673H1228.26V45.1673V43.1673H1190.26V45.1673ZM1228.26 45.1673H1226.26V68.2713H1228.26H1230.26V45.1673H1228.26ZM1228.26 68.2713V66.2713H1190.26V68.2713V70.2713H1228.26V68.2713ZM1190.26 68.2713H1188.26V87.1193H1190.26H1192.26V68.2713H1190.26ZM1314 110.527L1312.09 111.134L1314 112.527V110.527ZM1308.68 93.8073L1310.58 93.2009L1308.68 91.8073V93.8073ZM1269.16 93.8073V91.8073L1267.25 93.2009L1269.16 93.8073ZM1263.84 110.527V112.527L1265.74 111.134L1263.84 110.527ZM1237.24 110.527L1235.34 109.884L1237.24 112.527V110.527ZM1273.41 4.12733V2.12733L1271.52 3.48353L1273.41 4.12733ZM1304.42 4.12733L1306.31 3.48353L1304.42 2.12733V4.12733ZM1340.6 110.527V112.527L1342.49 109.884L1340.6 110.527ZM1276.45 71.0073L1274.55 70.3994L1276.45 73.0073V71.0073ZM1301.38 71.0073V73.0073L1303.29 70.3994L1301.38 71.0073ZM1288.92 31.9433L1290.82 31.3354H1287.01L1288.92 31.9433ZM1314 110.527L1315.9 109.921L1310.58 93.2009L1308.68 93.8073L1306.77 94.4137L1312.09 111.134L1314 110.527ZM1308.68 93.8073V91.8073H1269.16V93.8073V95.8073H1308.68V93.8073ZM1269.16 93.8073L1267.25 93.2009L1261.93 109.921L1263.84 110.527L1265.74 111.134L1271.06 94.4137L1269.16 93.8073ZM1263.84 110.527V108.527H1237.24V110.527V112.527H1263.84V110.527ZM1237.24 110.527L1239.13 111.171L1275.31 4.77114L1273.41 4.12733L1271.52 3.48353L1235.34 109.884L1237.24 110.527ZM1273.41 4.12733V6.12733H1304.42V4.12733V2.12733H1273.41V4.12733ZM1304.42 4.12733L1302.53 4.77114L1338.7 111.171L1340.6 110.527L1342.49 109.884L1306.31 3.48353L1304.42 4.12733ZM1340.6 110.527V108.527H1314V110.527V112.527H1340.6V110.527ZM1276.45 71.0073V73.0073H1301.38V71.0073V69.0073H1276.45V71.0073ZM1301.38 71.0073L1303.29 70.3994L1290.82 31.3354L1288.92 31.9433L1287.01 32.5513L1299.48 71.6153L1301.38 71.0073ZM1288.92 31.9433L1287.01 31.3354L1274.55 70.3994L1276.45 71.0073L1278.36 71.6153L1290.82 32.5513L1288.92 31.9433ZM1348 110.527H1346L1348 112.527V110.527ZM1348 4.12733V2.12733L1346 4.12733H1348ZM1372.32 27.5353V25.5353L1370.32 27.5353H1372.32ZM1372.32 87.1193H1370.32L1372.32 89.1193V87.1193ZM1390.56 4.12733V6.12733C1418.73 6.12733 1440.24 28.2783 1440.24 57.3273H1442.24H1444.24C1444.24 26.1844 1421.06 2.12733 1390.56 2.12733V4.12733ZM1442.24 57.3273H1440.24C1440.24 86.3764 1418.73 108.527 1390.56 108.527V110.527V112.527C1421.06 112.527 1444.24 88.4703 1444.24 57.3273H1442.24ZM1390.56 110.527V108.527H1348V110.527V112.527H1390.56V110.527ZM1348 110.527H1350V4.12733H1348H1346V110.527H1348ZM1348 4.12733V6.12733H1390.56V4.12733V2.12733H1348V4.12733ZM1390.56 87.1193V89.1193C1399.39 89.1193 1407 86.0569 1412.4 80.4508C1417.8 74.8498 1420.83 66.8745 1420.83 57.3273H1418.83H1416.83C1416.83 66.0202 1414.08 72.9409 1409.52 77.6759C1404.97 82.4058 1398.44 85.1193 1390.56 85.1193V87.1193ZM1418.83 57.3273H1420.83C1420.83 47.7802 1417.8 39.8049 1412.4 34.2039C1407 28.5978 1399.39 25.5353 1390.56 25.5353V27.5353V29.5353C1398.44 29.5353 1404.97 32.2489 1409.52 36.9788C1414.08 41.7138 1416.83 48.6345 1416.83 57.3273H1418.83ZM1390.56 27.5353V25.5353H1372.32V27.5353V29.5353H1390.56V27.5353ZM1372.32 27.5353H1370.32V87.1193H1372.32H1374.32V27.5353H1372.32ZM1372.32 87.1193V89.1193H1390.56V87.1193V85.1193H1372.32V87.1193ZM1454.24 4.12733V2.12733L1452.24 4.12733H1454.24ZM1478.56 4.12733H1480.56L1478.56 2.12733V4.12733ZM1478.56 110.527V112.527L1480.56 110.527H1478.56ZM1454.24 110.527H1452.24L1454.24 112.527V110.527ZM1454.24 4.12733V6.12733H1478.56V4.12733V2.12733H1454.24V4.12733ZM1478.56 4.12733H1476.56V110.527H1478.56H1480.56V4.12733H1478.56ZM1478.56 110.527V108.527H1454.24V110.527V112.527H1478.56V110.527ZM1454.24 110.527H1456.24V4.12733H1454.24H1452.24V110.527H1454.24ZM1554.45 4.12733V2.12733L1552.45 4.12733H1554.45ZM1578.77 4.12733H1580.77L1578.77 2.12733V4.12733ZM1578.77 110.527V112.527L1580.77 110.527H1578.77ZM1560.53 110.527L1558.9 111.686L1560.53 112.527V110.527ZM1519.49 52.7673L1521.12 51.6089L1517.49 52.7673H1519.49ZM1519.49 110.527V112.527L1521.49 110.527H1519.49ZM1495.17 110.527H1493.17L1495.17 112.527V110.527ZM1495.17 4.12733V2.12733L1493.17 4.12733H1495.17ZM1513.41 4.12733L1515.04 2.96893L1513.41 2.12733V4.12733ZM1554.45 61.8873L1552.82 63.0458L1556.45 61.8873H1554.45ZM1554.45 4.12733V6.12733H1578.77V4.12733V2.12733H1554.45V4.12733ZM1578.77 4.12733H1576.77V110.527H1578.77H1580.77V4.12733H1578.77ZM1578.77 110.527V108.527H1560.53V110.527V112.527H1578.77V110.527ZM1560.53 110.527L1562.16 109.369L1521.12 51.6089L1519.49 52.7673L1517.86 53.9258L1558.9 111.686L1560.53 110.527ZM1519.49 52.7673H1517.49V110.527H1519.49H1521.49V52.7673H1519.49ZM1519.49 110.527V108.527H1495.17V110.527V112.527H1519.49V110.527ZM1495.17 110.527H1497.17V4.12733H1495.17H1493.17V110.527H1495.17ZM1495.17 4.12733V6.12733H1513.41V4.12733V2.12733H1495.17V4.12733ZM1513.41 4.12733L1511.78 5.28575L1552.82 63.0458L1554.45 61.8873L1556.08 60.7289L1515.04 2.96893L1513.41 4.12733ZM1554.45 61.8873H1556.45V4.12733H1554.45H1552.45V61.8873H1554.45ZM1700.66 51.2473H1702.66L1700.66 49.2473V51.2473ZM1693.06 26.3193L1694.06 28.0543L1694.76 25.2561L1693.06 26.3193ZM1672.39 38.1753L1670.7 39.2419L1673.38 39.9103L1672.39 38.1753ZM1675.73 72.5273L1677.61 73.2265L1675.73 70.5273V72.5273ZM1647.31 72.5273H1645.31L1647.31 74.5273V72.5273ZM1647.31 51.2473V49.2473L1645.31 51.2473H1647.31ZM1700.66 51.2473H1698.66V60.3673H1700.66H1702.66V51.2473H1700.66ZM1700.66 60.3673H1698.66C1698.66 76.1462 1693.18 88.6768 1684.23 97.2662C1675.26 105.868 1662.67 110.655 1648.22 110.655V112.655V114.655C1663.56 114.655 1677.19 109.563 1687 100.152C1696.82 90.7299 1702.66 77.1165 1702.66 60.3673H1700.66ZM1648.22 112.655V110.655C1615.85 110.655 1592.77 86.8879 1592.77 57.4793H1590.77H1588.77C1588.77 89.1748 1613.72 114.655 1648.22 114.655V112.655ZM1590.77 57.4793H1592.77C1592.77 27.7315 1616.34 3.99934 1646.55 3.99934V1.99934V-0.000663757C1614.14 -0.000663757 1588.77 25.5152 1588.77 57.4793H1590.77ZM1646.55 1.99934V3.99934C1666.26 3.99934 1682.78 13.7043 1691.37 27.3826L1693.06 26.3193L1694.76 25.2561C1685.4 10.3584 1667.57 -0.000663757 1646.55 -0.000663757V1.99934ZM1693.06 26.3193L1692.07 24.5844L1671.39 36.4404L1672.39 38.1753L1673.38 39.9103L1694.06 28.0543L1693.06 26.3193ZM1672.39 38.1753L1674.08 37.1087C1669.25 29.4434 1658.98 23.7113 1646.4 23.7113V25.7113V27.7113C1657.84 27.7113 1666.71 32.9232 1670.7 39.2419L1672.39 38.1753ZM1646.4 25.7113V23.7113C1627.34 23.7113 1613.09 37.85 1613.09 57.6313H1615.09H1617.09C1617.09 40.0207 1629.59 27.7113 1646.4 27.7113V25.7113ZM1615.09 57.6313H1613.09C1613.09 67.1596 1616.46 75.5273 1622.67 81.5104C1628.87 87.4911 1637.76 90.9433 1648.53 90.9433V88.9433V86.9433C1638.62 86.9433 1630.79 83.7836 1625.44 78.6303C1620.1 73.4793 1617.09 66.1911 1617.09 57.6313H1615.09ZM1648.53 88.9433V90.9433C1663.32 90.9433 1673.46 84.3427 1677.61 73.2265L1675.73 72.5273L1673.86 71.8282C1670.41 81.0799 1662 86.9433 1648.53 86.9433V88.9433ZM1675.73 72.5273V70.5273H1647.31V72.5273V74.5273H1675.73V72.5273ZM1647.31 72.5273H1649.31V51.2473H1647.31H1645.31V72.5273H1647.31ZM1647.31 51.2473V53.2473H1700.66V51.2473V49.2473H1647.31V51.2473ZM1820.47 4.12733H1822.47L1820.47 2.12733V4.12733ZM1820.47 27.5353V29.5353L1822.47 27.5353H1820.47ZM1793.11 27.5353V25.5353L1791.11 27.5353H1793.11ZM1793.11 110.527V112.527L1795.11 110.527H1793.11ZM1768.79 110.527H1766.79L1768.79 112.527V110.527ZM1768.79 27.5353H1770.79L1768.79 25.5353V27.5353ZM1741.43 27.5353H1739.43L1741.43 29.5353V27.5353ZM1741.43 4.12733V2.12733L1739.43 4.12733H1741.43ZM1820.47 4.12733H1818.47V27.5353H1820.47H1822.47V4.12733H1820.47ZM1820.47 27.5353V25.5353H1793.11V27.5353V29.5353H1820.47V27.5353ZM1793.11 27.5353H1791.11V110.527H1793.11H1795.11V27.5353H1793.11ZM1793.11 110.527V108.527H1768.79V110.527V112.527H1793.11V110.527ZM1768.79 110.527H1770.79V27.5353H1768.79H1766.79V110.527H1768.79ZM1768.79 27.5353V25.5353H1741.43V27.5353V29.5353H1768.79V27.5353ZM1741.43 27.5353H1743.43V4.12733H1741.43H1739.43V27.5353H1741.43ZM1741.43 4.12733V6.12733H1820.47V4.12733V2.12733H1741.43V4.12733ZM1853.76 87.1193H1851.76L1853.76 89.1193V87.1193ZM1896.32 87.1193H1898.32L1896.32 85.1193V87.1193ZM1896.32 110.527V112.527L1898.32 110.527H1896.32ZM1829.44 110.527H1827.44L1829.44 112.527V110.527ZM1829.44 4.12733V2.12733L1827.44 4.12733H1829.44ZM1895.56 4.12733H1897.56L1895.56 2.12733V4.12733ZM1895.56 27.5353V29.5353L1897.56 27.5353H1895.56ZM1853.76 27.5353V25.5353L1851.76 27.5353H1853.76ZM1853.76 45.1673H1851.76L1853.76 47.1673V45.1673ZM1891.76 45.1673H1893.76L1891.76 43.1673V45.1673ZM1891.76 68.2713V70.2713L1893.76 68.2713H1891.76ZM1853.76 68.2713V66.2713L1851.76 68.2713H1853.76ZM1853.76 87.1193V89.1193H1896.32V87.1193V85.1193H1853.76V87.1193ZM1896.32 87.1193H1894.32V110.527H1896.32H1898.32V87.1193H1896.32ZM1896.32 110.527V108.527H1829.44V110.527V112.527H1896.32V110.527ZM1829.44 110.527H1831.44V4.12733H1829.44H1827.44V110.527H1829.44ZM1829.44 4.12733V6.12733H1895.56V4.12733V2.12733H1829.44V4.12733ZM1895.56 4.12733H1893.56V27.5353H1895.56H1897.56V4.12733H1895.56ZM1895.56 27.5353V25.5353H1853.76V27.5353V29.5353H1895.56V27.5353ZM1853.76 27.5353H1851.76V45.1673H1853.76H1855.76V27.5353H1853.76ZM1853.76 45.1673V47.1673H1891.76V45.1673V43.1673H1853.76V45.1673ZM1891.76 45.1673H1889.76V68.2713H1891.76H1893.76V45.1673H1891.76ZM1891.76 68.2713V66.2713H1853.76V68.2713V70.2713H1891.76V68.2713ZM1853.76 68.2713H1851.76V87.1193H1853.76H1855.76V68.2713H1853.76ZM1977.5 110.527L1975.59 111.134L1977.5 112.527V110.527ZM1972.18 93.8073L1974.08 93.2009L1972.18 91.8073V93.8073ZM1932.66 93.8073V91.8073L1930.75 93.2009L1932.66 93.8073ZM1927.34 110.527V112.527L1929.24 111.134L1927.34 110.527ZM1900.74 110.527L1898.84 109.884L1900.74 112.527V110.527ZM1936.91 4.12733V2.12733L1935.02 3.48353L1936.91 4.12733ZM1967.92 4.12733L1969.81 3.48353L1967.92 2.12733V4.12733ZM2004.1 110.527V112.527L2005.99 109.884L2004.1 110.527ZM1939.95 71.0073L1938.05 70.3994L1939.95 73.0073V71.0073ZM1964.88 71.0073V73.0073L1966.79 70.3994L1964.88 71.0073ZM1952.42 31.9433L1954.32 31.3354H1950.51L1952.42 31.9433ZM1977.5 110.527L1979.4 109.921L1974.08 93.2009L1972.18 93.8073L1970.27 94.4137L1975.59 111.134L1977.5 110.527ZM1972.18 93.8073V91.8073H1932.66V93.8073V95.8073H1972.18V93.8073ZM1932.66 93.8073L1930.75 93.2009L1925.43 109.921L1927.34 110.527L1929.24 111.134L1934.56 94.4137L1932.66 93.8073ZM1927.34 110.527V108.527H1900.74V110.527V112.527H1927.34V110.527ZM1900.74 110.527L1902.63 111.171L1938.81 4.77114L1936.91 4.12733L1935.02 3.48353L1898.84 109.884L1900.74 110.527ZM1936.91 4.12733V6.12733H1967.92V4.12733V2.12733H1936.91V4.12733ZM1967.92 4.12733L1966.03 4.77114L2002.2 111.171L2004.1 110.527L2005.99 109.884L1969.81 3.48353L1967.92 4.12733ZM2004.1 110.527V108.527H1977.5V110.527V112.527H2004.1V110.527ZM1939.95 71.0073V73.0073H1964.88V71.0073V69.0073H1939.95V71.0073ZM1964.88 71.0073L1966.79 70.3994L1954.32 31.3354L1952.42 31.9433L1950.51 32.5513L1962.97 71.6153L1964.88 71.0073ZM1952.42 31.9433L1950.51 31.3354L1938.05 70.3994L1939.95 71.0073L1941.86 71.6153L1954.32 32.5513L1952.42 31.9433ZM2117.9 4.12733H2119.9L2117.9 2.12733V4.12733ZM2117.9 110.527V112.527L2119.9 110.527H2117.9ZM2093.58 110.527H2091.58L2093.58 112.527V110.527ZM2093.58 48.6633H2095.58L2091.87 47.6225L2093.58 48.6633ZM2066.06 93.8073V95.8073L2067.77 94.8481L2066.06 93.8073ZM2063.33 93.8073L2061.62 94.8481L2063.33 95.8073V93.8073ZM2035.82 48.6633L2037.52 47.6225L2033.82 48.6633H2035.82ZM2035.82 110.527V112.527L2037.82 110.527H2035.82ZM2011.5 110.527H2009.5L2011.5 112.527V110.527ZM2011.5 4.12733V2.12733L2009.5 4.12733H2011.5ZM2035.82 4.12733L2037.52 3.08466L2035.82 2.12733V4.12733ZM2064.7 51.3993L2062.99 52.442H2066.4L2064.7 51.3993ZM2093.58 4.12733V2.12733L2091.87 3.08466L2093.58 4.12733ZM2117.9 4.12733H2115.9V110.527H2117.9H2119.9V4.12733H2117.9ZM2117.9 110.527V108.527H2093.58V110.527V112.527H2117.9V110.527ZM2093.58 110.527H2095.58V48.6633H2093.58H2091.58V110.527H2093.58ZM2093.58 48.6633L2091.87 47.6225L2064.36 92.7665L2066.06 93.8073L2067.77 94.8481L2095.28 49.7041L2093.58 48.6633ZM2066.06 93.8073V91.8073H2063.33V93.8073V95.8073H2066.06V93.8073ZM2063.33 93.8073L2065.04 92.7665L2037.52 47.6225L2035.82 48.6633L2034.11 49.7041L2061.62 94.8481L2063.33 93.8073ZM2035.82 48.6633H2033.82V110.527H2035.82H2037.82V48.6633H2035.82ZM2035.82 110.527V108.527H2011.5V110.527V112.527H2035.82V110.527ZM2011.5 110.527H2013.5V4.12733H2011.5H2009.5V110.527H2011.5ZM2011.5 4.12733V6.12733H2035.82V4.12733V2.12733H2011.5V4.12733ZM2035.82 4.12733L2034.11 5.17001L2062.99 52.442L2064.7 51.3993L2066.4 50.3567L2037.52 3.08466L2035.82 4.12733ZM2064.7 51.3993L2066.4 52.442L2095.28 5.17001L2093.58 4.12733L2091.87 3.08466L2062.99 50.3567L2064.7 51.3993ZM2093.58 4.12733V6.12733H2117.9V4.12733V2.12733H2093.58V4.12733Z" fill="white" mask="url(#path-1-outside-1_1510_1018)"/>
</svg>
