<svg width="1674" height="91" viewBox="0 0 1674 91" fill="none" xmlns="http://www.w3.org/2000/svg">
<mask id="path-1-outside-1_1512_1020" maskUnits="userSpaceOnUse" x="-0.599609" y="-0.720703" width="1675" height="92" fill="black">
<rect fill="white" x="-0.599609" y="-0.720703" width="1675" height="92"/>
<path d="M48.4004 3.27929H67.6004V87.2793H53.2004L20.8004 41.6793V87.2793H1.60039V3.27929H16.0004L48.4004 48.8793V3.27929ZM99.871 68.7993H133.471V87.2793H80.671V3.27929H132.871V21.7593H99.871V35.6793H129.871V53.9193H99.871V68.7993ZM162.184 68.7993H195.784V87.2793H142.984V3.27929H195.184V21.7593H162.184V35.6793H192.184V53.9193H162.184V68.7993ZM238.897 3.27929C262.057 3.27929 279.697 21.5193 279.697 45.2793C279.697 69.0393 262.057 87.2793 238.897 87.2793H205.297V3.27929H238.897ZM238.897 68.7993C252.097 68.7993 261.217 59.6793 261.217 45.2793C261.217 30.8793 252.097 21.7593 238.897 21.7593H224.497V68.7993H238.897ZM308.372 68.7993H338.372V87.2793H289.172V3.27929H308.372V68.7993ZM364.708 68.7993H398.308V87.2793H345.508V3.27929H397.708V21.7593H364.708V35.6793H394.708V53.9193H364.708V68.7993ZM437.221 88.9593C419.581 88.9593 408.301 80.5593 403.621 68.1993L420.181 58.5993C423.181 65.5593 428.341 70.2393 437.821 70.2393C446.941 70.2393 449.221 66.6393 449.221 63.3993C449.221 58.2393 444.421 56.1993 431.821 52.7193C419.341 49.2393 407.101 43.2393 407.101 27.1593C407.101 10.9593 420.781 1.59929 435.301 1.59929C449.101 1.59929 459.901 8.19929 466.021 20.5593L449.821 30.0393C446.941 24.0393 442.981 20.3193 435.301 20.3193C429.301 20.3193 426.301 23.3193 426.301 26.6793C426.301 30.5193 428.341 33.1593 441.421 37.1193C454.141 40.9593 468.421 45.3993 468.421 63.1593C468.421 79.3593 455.461 88.9593 437.221 88.9593ZM545.456 88.9593C520.136 88.9593 501.776 69.9993 501.776 45.2793C501.776 20.5593 520.136 1.59929 545.456 1.59929C560.696 1.59929 574.136 9.15929 581.456 21.0393L564.896 30.6393C561.176 24.1593 553.976 20.3193 545.456 20.3193C530.576 20.3193 520.976 30.2793 520.976 45.2793C520.976 60.2793 530.576 70.2393 545.456 70.2393C553.976 70.2393 561.296 66.3993 564.896 59.9193L581.456 69.5193C574.256 81.3993 560.816 88.9593 545.456 88.9593ZM634.734 3.27929H653.934V87.2793H634.734V53.9193H608.334V87.2793H589.134V3.27929H608.334V35.4393H634.734V3.27929ZM686.233 68.7993H719.833V87.2793H667.033V3.27929H719.233V21.7593H686.233V35.6793H716.233V53.9193H686.233V68.7993ZM748.546 68.7993H782.146V87.2793H729.346V3.27929H781.546V21.7593H748.546V35.6793H778.546V53.9193H748.546V68.7993ZM835.819 87.2793L819.979 59.6793H810.859V87.2793H791.659V3.27929H825.259C841.219 3.27929 854.059 16.1193 854.059 32.0793C854.059 42.3993 847.819 51.7593 838.579 56.4393L856.459 87.2793H835.819ZM810.859 21.2793V42.8793H825.259C830.539 42.8793 834.859 38.1993 834.859 32.0793C834.859 25.9593 830.539 21.2793 825.259 21.2793H810.859ZM883.367 68.7993H913.367V87.2793H864.167V3.27929H883.367V68.7993ZM939.703 68.7993H973.303V87.2793H920.503V3.27929H972.703V21.7593H939.703V35.6793H969.703V53.9193H939.703V68.7993ZM1037.39 87.2793L1033.19 74.0793H1001.99L997.788 87.2793H976.788L1005.35 3.27929H1029.83L1058.39 87.2793H1037.39ZM1007.75 56.0793H1027.43L1017.59 25.2393L1007.75 56.0793ZM1097.83 3.27929C1120.99 3.27929 1138.63 21.5193 1138.63 45.2793C1138.63 69.0393 1120.99 87.2793 1097.83 87.2793H1064.23V3.27929H1097.83ZM1097.83 68.7993C1111.03 68.7993 1120.15 59.6793 1120.15 45.2793C1120.15 30.8793 1111.03 21.7593 1097.83 21.7593H1083.43V68.7993H1097.83ZM1148.11 3.27929H1167.31V87.2793H1148.11V3.27929ZM1227.22 3.27929H1246.42V87.2793H1232.02L1199.62 41.6793V87.2793H1180.42V3.27929H1194.82L1227.22 48.8793V3.27929ZM1342.65 40.4793V47.6793C1342.65 73.3593 1324.77 88.9593 1301.25 88.9593C1274.85 88.9593 1255.89 69.5193 1255.89 45.3993C1255.89 21.0393 1275.21 1.59929 1299.93 1.59929C1316.01 1.59929 1329.57 9.5193 1336.65 20.7993L1320.33 30.1593C1316.85 24.6393 1309.29 20.3193 1299.81 20.3193C1285.65 20.3193 1275.09 30.7593 1275.09 45.5193C1275.09 59.7993 1285.17 70.2393 1301.49 70.2393C1312.65 70.2393 1319.97 65.3193 1322.97 57.2793H1300.53V40.4793H1342.65ZM1437.23 3.27929V21.7593H1415.63V87.2793H1396.43V21.7593H1374.83V3.27929H1437.23ZM1463.52 68.7993H1497.12V87.2793H1444.32V3.27929H1496.52V21.7593H1463.52V35.6793H1493.52V53.9193H1463.52V68.7993ZM1561.2 87.2793L1557 74.0793H1525.8L1521.6 87.2793H1500.6L1529.16 3.27929H1553.64L1582.2 87.2793H1561.2ZM1531.56 56.0793H1551.24L1541.4 25.2393L1531.56 56.0793ZM1672.05 3.27929V87.2793H1652.85V38.4393L1631.13 74.0793H1628.97L1607.25 38.4393V87.2793H1588.05V3.27929H1607.25L1630.05 40.5993L1652.85 3.27929H1672.05Z"/>
</mask>
<path d="M48.4004 3.27929V1.67929L46.8004 3.27929H48.4004ZM67.6004 3.27929H69.2004L67.6004 1.67929V3.27929ZM67.6004 87.2793V88.8793L69.2004 87.2793H67.6004ZM53.2004 87.2793L51.8961 88.206L53.2004 88.8793V87.2793ZM20.8004 41.6793L22.1047 40.7526L19.2004 41.6793H20.8004ZM20.8004 87.2793V88.8793L22.4004 87.2793H20.8004ZM1.60039 87.2793H0.000391006L1.60039 88.8793V87.2793ZM1.60039 3.27929V1.67929L0.000391006 3.27929H1.60039ZM16.0004 3.27929L17.3047 2.35256L16.0004 1.67929V3.27929ZM48.4004 48.8793L47.0961 49.806L50.0004 48.8793H48.4004ZM48.4004 3.27929V4.87929H67.6004V3.27929V1.67929H48.4004V3.27929ZM67.6004 3.27929H66.0004V87.2793H67.6004H69.2004V3.27929H67.6004ZM67.6004 87.2793V85.6793H53.2004V87.2793V88.8793H67.6004V87.2793ZM53.2004 87.2793L54.5047 86.3526L22.1047 40.7526L20.8004 41.6793L19.4961 42.606L51.8961 88.206L53.2004 87.2793ZM20.8004 41.6793H19.2004V87.2793H20.8004H22.4004V41.6793H20.8004ZM20.8004 87.2793V85.6793H1.60039V87.2793V88.8793H20.8004V87.2793ZM1.60039 87.2793H3.20039V3.27929H1.60039H0.000391006V87.2793H1.60039ZM1.60039 3.27929V4.87929H16.0004V3.27929V1.67929H1.60039V3.27929ZM16.0004 3.27929L14.6961 4.20602L47.0961 49.806L48.4004 48.8793L49.7047 47.9526L17.3047 2.35256L16.0004 3.27929ZM48.4004 48.8793H50.0004V3.27929H48.4004H46.8004V48.8793H48.4004ZM99.871 68.7993H98.271L99.871 70.3993V68.7993ZM133.471 68.7993H135.071L133.471 67.1993V68.7993ZM133.471 87.2793V88.8793L135.071 87.2793H133.471ZM80.671 87.2793H79.071L80.671 88.8793V87.2793ZM80.671 3.27929V1.67929L79.071 3.27929H80.671ZM132.871 3.27929H134.471L132.871 1.67929V3.27929ZM132.871 21.7593V23.3593L134.471 21.7593H132.871ZM99.871 21.7593V20.1593L98.271 21.7593H99.871ZM99.871 35.6793H98.271L99.871 37.2793V35.6793ZM129.871 35.6793H131.471L129.871 34.0793V35.6793ZM129.871 53.9193V55.5193L131.471 53.9193H129.871ZM99.871 53.9193V52.3193L98.271 53.9193H99.871ZM99.871 68.7993V70.3993H133.471V68.7993V67.1993H99.871V68.7993ZM133.471 68.7993H131.871V87.2793H133.471H135.071V68.7993H133.471ZM133.471 87.2793V85.6793H80.671V87.2793V88.8793H133.471V87.2793ZM80.671 87.2793H82.271V3.27929H80.671H79.071V87.2793H80.671ZM80.671 3.27929V4.87929H132.871V3.27929V1.67929H80.671V3.27929ZM132.871 3.27929H131.271V21.7593H132.871H134.471V3.27929H132.871ZM132.871 21.7593V20.1593H99.871V21.7593V23.3593H132.871V21.7593ZM99.871 21.7593H98.271V35.6793H99.871H101.471V21.7593H99.871ZM99.871 35.6793V37.2793H129.871V35.6793V34.0793H99.871V35.6793ZM129.871 35.6793H128.271V53.9193H129.871H131.471V35.6793H129.871ZM129.871 53.9193V52.3193H99.871V53.9193V55.5193H129.871V53.9193ZM99.871 53.9193H98.271V68.7993H99.871H101.471V53.9193H99.871ZM162.184 68.7993H160.584L162.184 70.3993V68.7993ZM195.784 68.7993H197.384L195.784 67.1993V68.7993ZM195.784 87.2793V88.8793L197.384 87.2793H195.784ZM142.984 87.2793H141.384L142.984 88.8793V87.2793ZM142.984 3.27929V1.67929L141.384 3.27929H142.984ZM195.184 3.27929H196.784L195.184 1.67929V3.27929ZM195.184 21.7593V23.3593L196.784 21.7593H195.184ZM162.184 21.7593V20.1593L160.584 21.7593H162.184ZM162.184 35.6793H160.584L162.184 37.2793V35.6793ZM192.184 35.6793H193.784L192.184 34.0793V35.6793ZM192.184 53.9193V55.5193L193.784 53.9193H192.184ZM162.184 53.9193V52.3193L160.584 53.9193H162.184ZM162.184 68.7993V70.3993H195.784V68.7993V67.1993H162.184V68.7993ZM195.784 68.7993H194.184V87.2793H195.784H197.384V68.7993H195.784ZM195.784 87.2793V85.6793H142.984V87.2793V88.8793H195.784V87.2793ZM142.984 87.2793H144.584V3.27929H142.984H141.384V87.2793H142.984ZM142.984 3.27929V4.87929H195.184V3.27929V1.67929H142.984V3.27929ZM195.184 3.27929H193.584V21.7593H195.184H196.784V3.27929H195.184ZM195.184 21.7593V20.1593H162.184V21.7593V23.3593H195.184V21.7593ZM162.184 21.7593H160.584V35.6793H162.184H163.784V21.7593H162.184ZM162.184 35.6793V37.2793H192.184V35.6793V34.0793H162.184V35.6793ZM192.184 35.6793H190.584V53.9193H192.184H193.784V35.6793H192.184ZM192.184 53.9193V52.3193H162.184V53.9193V55.5193H192.184V53.9193ZM162.184 53.9193H160.584V68.7993H162.184H163.784V53.9193H162.184ZM205.297 87.2793H203.697L205.297 88.8793V87.2793ZM205.297 3.27929V1.67929L203.697 3.27929H205.297ZM224.497 21.7593V20.1593L222.897 21.7593H224.497ZM224.497 68.7993H222.897L224.497 70.3993V68.7993ZM238.897 3.27929V4.87929C261.128 4.87929 278.097 22.3568 278.097 45.2793H279.697H281.297C281.297 20.6817 262.986 1.67929 238.897 1.67929V3.27929ZM279.697 45.2793H278.097C278.097 68.2017 261.128 85.6793 238.897 85.6793V87.2793V88.8793C262.986 88.8793 281.297 69.8769 281.297 45.2793H279.697ZM238.897 87.2793V85.6793H205.297V87.2793V88.8793H238.897V87.2793ZM205.297 87.2793H206.897V3.27929H205.297H203.697V87.2793H205.297ZM205.297 3.27929V4.87929H238.897V3.27929V1.67929H205.297V3.27929ZM238.897 68.7993V70.3993C245.877 70.3993 251.891 67.9797 256.159 63.5493C260.423 59.1228 262.817 52.821 262.817 45.2793H261.217H259.617C259.617 52.1376 257.451 57.5957 253.854 61.3293C250.262 65.0589 245.117 67.1993 238.897 67.1993V68.7993ZM261.217 45.2793H262.817C262.817 37.7376 260.423 31.4357 256.159 27.0093C251.891 22.5789 245.877 20.1593 238.897 20.1593V21.7593V23.3593C245.117 23.3593 250.262 25.4997 253.854 29.2293C257.451 32.9628 259.617 38.421 259.617 45.2793H261.217ZM238.897 21.7593V20.1593H224.497V21.7593V23.3593H238.897V21.7593ZM224.497 21.7593H222.897V68.7993H224.497H226.097V21.7593H224.497ZM224.497 68.7993V70.3993H238.897V68.7993V67.1993H224.497V68.7993ZM308.372 68.7993H306.772L308.372 70.3993V68.7993ZM338.372 68.7993H339.972L338.372 67.1993V68.7993ZM338.372 87.2793V88.8793L339.972 87.2793H338.372ZM289.172 87.2793H287.572L289.172 88.8793V87.2793ZM289.172 3.27929V1.67929L287.572 3.27929H289.172ZM308.372 3.27929H309.972L308.372 1.67929V3.27929ZM308.372 68.7993V70.3993H338.372V68.7993V67.1993H308.372V68.7993ZM338.372 68.7993H336.772V87.2793H338.372H339.972V68.7993H338.372ZM338.372 87.2793V85.6793H289.172V87.2793V88.8793H338.372V87.2793ZM289.172 87.2793H290.772V3.27929H289.172H287.572V87.2793H289.172ZM289.172 3.27929V4.87929H308.372V3.27929V1.67929H289.172V3.27929ZM308.372 3.27929H306.772V68.7993H308.372H309.972V3.27929H308.372ZM364.708 68.7993H363.108L364.708 70.3993V68.7993ZM398.308 68.7993H399.908L398.308 67.1993V68.7993ZM398.308 87.2793V88.8793L399.908 87.2793H398.308ZM345.508 87.2793H343.908L345.508 88.8793V87.2793ZM345.508 3.27929V1.67929L343.908 3.27929H345.508ZM397.708 3.27929H399.308L397.708 1.67929V3.27929ZM397.708 21.7593V23.3593L399.308 21.7593H397.708ZM364.708 21.7593V20.1593L363.108 21.7593H364.708ZM364.708 35.6793H363.108L364.708 37.2793V35.6793ZM394.708 35.6793H396.308L394.708 34.0793V35.6793ZM394.708 53.9193V55.5193L396.308 53.9193H394.708ZM364.708 53.9193V52.3193L363.108 53.9193H364.708ZM364.708 68.7993V70.3993H398.308V68.7993V67.1993H364.708V68.7993ZM398.308 68.7993H396.708V87.2793H398.308H399.908V68.7993H398.308ZM398.308 87.2793V85.6793H345.508V87.2793V88.8793H398.308V87.2793ZM345.508 87.2793H347.108V3.27929H345.508H343.908V87.2793H345.508ZM345.508 3.27929V4.87929H397.708V3.27929V1.67929H345.508V3.27929ZM397.708 3.27929H396.108V21.7593H397.708H399.308V3.27929H397.708ZM397.708 21.7593V20.1593H364.708V21.7593V23.3593H397.708V21.7593ZM364.708 21.7593H363.108V35.6793H364.708H366.308V21.7593H364.708ZM364.708 35.6793V37.2793H394.708V35.6793V34.0793H364.708V35.6793ZM394.708 35.6793H393.108V53.9193H394.708H396.308V35.6793H394.708ZM394.708 53.9193V52.3193H364.708V53.9193V55.5193H394.708V53.9193ZM364.708 53.9193H363.108V68.7993H364.708H366.308V53.9193H364.708ZM403.621 68.1993L402.819 66.8151L402.125 68.7659L403.621 68.1993ZM420.181 58.5993L421.65 57.966L419.379 57.2151L420.181 58.5993ZM431.821 52.7193L431.391 54.2605L431.395 54.2616L431.821 52.7193ZM466.021 20.5593L466.829 21.9402L467.455 19.8493L466.021 20.5593ZM449.821 30.0393L448.379 30.7317L450.629 31.4202L449.821 30.0393ZM441.421 37.1193L440.957 38.6507L440.959 38.651L441.421 37.1193ZM437.221 88.9593V87.3593C420.171 87.3593 409.536 79.3037 405.117 67.6327L403.621 68.1993L402.125 68.7659C407.066 81.8149 418.991 90.5593 437.221 90.5593V88.9593ZM403.621 68.1993L404.423 69.5835L420.983 59.9835L420.181 58.5993L419.379 57.2151L402.819 66.8151L403.621 68.1993ZM420.181 58.5993L418.712 59.2326C420.29 62.8951 422.488 66.0741 425.64 68.3303C428.805 70.596 432.805 71.8393 437.821 71.8393V70.2393V68.6393C433.357 68.6393 430.037 67.5426 427.502 65.7282C424.954 63.9045 423.072 61.2634 421.65 57.966L420.181 58.5993ZM437.821 70.2393V71.8393C442.552 71.8393 445.808 70.912 447.912 69.3062C450.086 67.6467 450.821 65.4261 450.821 63.3993H449.221H447.621C447.621 64.6125 447.216 65.8119 445.97 66.7624C444.654 67.7666 442.21 68.6393 437.821 68.6393V70.2393ZM449.221 63.3993H450.821C450.821 61.8413 450.452 60.4271 449.606 59.1561C448.776 57.91 447.559 56.9106 446.041 56.041C443.06 54.333 438.507 52.9061 432.247 51.177L431.821 52.7193L431.395 54.2616C437.735 56.0125 441.882 57.3456 444.451 58.8176C445.708 59.538 446.479 60.2336 446.942 60.93C447.39 61.6015 447.621 62.3773 447.621 63.3993H449.221ZM431.821 52.7193L432.251 51.1781C426.072 49.4551 420.168 47.1604 415.82 43.4475C411.548 39.7997 408.701 34.7208 408.701 27.1593H407.101H405.501C405.501 35.6778 408.774 41.6389 413.742 45.8811C418.634 50.0582 425.09 52.5035 431.391 54.2605L431.821 52.7193ZM407.101 27.1593H408.701C408.701 12.1029 421.38 3.1993 435.301 3.1993V1.59929V-0.000709534C420.182 -0.000709534 405.501 9.81565 405.501 27.1593H407.101ZM435.301 1.59929V3.1993C448.502 3.1993 458.741 9.46268 464.587 21.2693L466.021 20.5593L467.455 19.8493C461.061 6.9359 449.7 -0.000709534 435.301 -0.000709534V1.59929ZM466.021 20.5593L465.213 19.1784L449.013 28.6584L449.821 30.0393L450.629 31.4202L466.829 21.9402L466.021 20.5593ZM449.821 30.0393L451.263 29.3469C449.761 26.2175 447.907 23.5298 445.302 21.6353C442.672 19.7225 439.416 18.7193 435.301 18.7193V20.3193V21.9193C438.866 21.9193 441.43 22.7761 443.42 24.2233C445.435 25.6888 447.001 27.8611 448.379 30.7317L449.821 30.0393ZM435.301 20.3193V18.7193C432.047 18.7193 429.419 19.5327 427.567 20.9777C425.692 22.4399 424.701 24.4887 424.701 26.6793H426.301H427.901C427.901 25.5099 428.41 24.3787 429.535 23.5009C430.682 22.6059 432.555 21.9193 435.301 21.9193V20.3193ZM426.301 26.6793H424.701C424.701 27.7822 424.847 28.9193 425.374 30.0492C425.902 31.1826 426.755 32.1886 427.986 33.1268C430.38 34.9519 434.408 36.6679 440.957 38.6507L441.421 37.1193L441.885 35.5879C435.354 33.6107 431.822 32.0267 429.926 30.5818C429.012 29.885 428.538 29.2635 428.275 28.6981C428.01 28.1293 427.901 27.4964 427.901 26.6793H426.301ZM441.421 37.1193L440.959 38.651C447.374 40.5878 453.843 42.5901 458.741 46.2064C463.511 49.7288 466.821 54.8103 466.821 63.1593H468.421H470.021C470.021 53.7483 466.191 47.7298 460.641 43.6321C455.219 39.6285 448.188 37.4908 441.883 35.5876L441.421 37.1193ZM468.421 63.1593H466.821C466.821 70.7894 463.789 76.7742 458.66 80.8859C453.493 85.0278 446.077 87.3593 437.221 87.3593V88.9593V90.5593C446.605 90.5593 454.789 88.0908 460.662 83.3827C466.573 78.6444 470.021 71.7292 470.021 63.1593H468.421ZM581.456 21.0393L582.259 22.4235L582.818 20.2L581.456 21.0393ZM564.896 30.6393L563.509 31.4359L565.699 32.0235L564.896 30.6393ZM564.896 59.9193L565.699 58.5351L563.498 59.1423L564.896 59.9193ZM581.456 69.5193L582.825 70.3486L582.259 68.1351L581.456 69.5193ZM545.456 88.9593V87.3593C521.034 87.3593 503.376 69.1302 503.376 45.2793H501.776H500.176C500.176 70.8684 519.238 90.5593 545.456 90.5593V88.9593ZM501.776 45.2793H503.376C503.376 21.4284 521.034 3.1993 545.456 3.1993V1.59929V-0.000709534C519.238 -0.000709534 500.176 19.6902 500.176 45.2793H501.776ZM545.456 1.59929V3.1993C560.164 3.1993 573.077 10.4908 580.094 21.8786L581.456 21.0393L582.818 20.2C575.195 7.82776 561.228 -0.000709534 545.456 -0.000709534V1.59929ZM581.456 21.0393L580.654 19.6551L564.094 29.2551L564.896 30.6393L565.699 32.0235L582.259 22.4235L581.456 21.0393ZM564.896 30.6393L566.284 29.8427C562.236 22.7906 554.457 18.7193 545.456 18.7193V20.3193V21.9193C553.495 21.9193 560.117 25.528 563.509 31.4359L564.896 30.6393ZM545.456 20.3193V18.7193C537.649 18.7193 531.094 21.3405 526.491 26.0568C521.893 30.7688 519.376 37.4342 519.376 45.2793H520.976H522.576C522.576 38.1244 524.86 32.3098 528.781 28.2918C532.699 24.278 538.384 21.9193 545.456 21.9193V20.3193ZM520.976 45.2793H519.376C519.376 53.1244 521.893 59.7898 526.491 64.5018C531.094 69.218 537.649 71.8393 545.456 71.8393V70.2393V68.6393C538.384 68.6393 532.699 66.2805 528.781 62.2668C524.86 58.2488 522.576 52.4342 522.576 45.2793H520.976ZM545.456 70.2393V71.8393C554.441 71.8393 562.361 67.7782 566.295 60.6963L564.896 59.9193L563.498 59.1423C560.232 65.0204 553.511 68.6393 545.456 68.6393V70.2393ZM564.896 59.9193L564.094 61.3035L580.654 70.9035L581.456 69.5193L582.259 68.1351L565.699 58.5351L564.896 59.9193ZM581.456 69.5193L580.088 68.69C573.194 80.0644 560.289 87.3593 545.456 87.3593V88.9593V90.5593C561.343 90.5593 575.318 82.7342 582.825 70.3486L581.456 69.5193ZM634.734 3.27929V1.67929L633.134 3.27929H634.734ZM653.934 3.27929H655.534L653.934 1.67929V3.27929ZM653.934 87.2793V88.8793L655.534 87.2793H653.934ZM634.734 87.2793H633.134L634.734 88.8793V87.2793ZM634.734 53.9193H636.334L634.734 52.3193V53.9193ZM608.334 53.9193V52.3193L606.734 53.9193H608.334ZM608.334 87.2793V88.8793L609.934 87.2793H608.334ZM589.134 87.2793H587.534L589.134 88.8793V87.2793ZM589.134 3.27929V1.67929L587.534 3.27929H589.134ZM608.334 3.27929H609.934L608.334 1.67929V3.27929ZM608.334 35.4393H606.734L608.334 37.0393V35.4393ZM634.734 35.4393V37.0393L636.334 35.4393H634.734ZM634.734 3.27929V4.87929H653.934V3.27929V1.67929H634.734V3.27929ZM653.934 3.27929H652.334V87.2793H653.934H655.534V3.27929H653.934ZM653.934 87.2793V85.6793H634.734V87.2793V88.8793H653.934V87.2793ZM634.734 87.2793H636.334V53.9193H634.734H633.134V87.2793H634.734ZM634.734 53.9193V52.3193H608.334V53.9193V55.5193H634.734V53.9193ZM608.334 53.9193H606.734V87.2793H608.334H609.934V53.9193H608.334ZM608.334 87.2793V85.6793H589.134V87.2793V88.8793H608.334V87.2793ZM589.134 87.2793H590.734V3.27929H589.134H587.534V87.2793H589.134ZM589.134 3.27929V4.87929H608.334V3.27929V1.67929H589.134V3.27929ZM608.334 3.27929H606.734V35.4393H608.334H609.934V3.27929H608.334ZM608.334 35.4393V37.0393H634.734V35.4393V33.8393H608.334V35.4393ZM634.734 35.4393H636.334V3.27929H634.734H633.134V35.4393H634.734ZM686.233 68.7993H684.633L686.233 70.3993V68.7993ZM719.833 68.7993H721.433L719.833 67.1993V68.7993ZM719.833 87.2793V88.8793L721.433 87.2793H719.833ZM667.033 87.2793H665.433L667.033 88.8793V87.2793ZM667.033 3.27929V1.67929L665.433 3.27929H667.033ZM719.233 3.27929H720.833L719.233 1.67929V3.27929ZM719.233 21.7593V23.3593L720.833 21.7593H719.233ZM686.233 21.7593V20.1593L684.633 21.7593H686.233ZM686.233 35.6793H684.633L686.233 37.2793V35.6793ZM716.233 35.6793H717.833L716.233 34.0793V35.6793ZM716.233 53.9193V55.5193L717.833 53.9193H716.233ZM686.233 53.9193V52.3193L684.633 53.9193H686.233ZM686.233 68.7993V70.3993H719.833V68.7993V67.1993H686.233V68.7993ZM719.833 68.7993H718.233V87.2793H719.833H721.433V68.7993H719.833ZM719.833 87.2793V85.6793H667.033V87.2793V88.8793H719.833V87.2793ZM667.033 87.2793H668.633V3.27929H667.033H665.433V87.2793H667.033ZM667.033 3.27929V4.87929H719.233V3.27929V1.67929H667.033V3.27929ZM719.233 3.27929H717.633V21.7593H719.233H720.833V3.27929H719.233ZM719.233 21.7593V20.1593H686.233V21.7593V23.3593H719.233V21.7593ZM686.233 21.7593H684.633V35.6793H686.233H687.833V21.7593H686.233ZM686.233 35.6793V37.2793H716.233V35.6793V34.0793H686.233V35.6793ZM716.233 35.6793H714.633V53.9193H716.233H717.833V35.6793H716.233ZM716.233 53.9193V52.3193H686.233V53.9193V55.5193H716.233V53.9193ZM686.233 53.9193H684.633V68.7993H686.233H687.833V53.9193H686.233ZM748.546 68.7993H746.946L748.546 70.3993V68.7993ZM782.146 68.7993H783.746L782.146 67.1993V68.7993ZM782.146 87.2793V88.8793L783.746 87.2793H782.146ZM729.346 87.2793H727.746L729.346 88.8793V87.2793ZM729.346 3.27929V1.67929L727.746 3.27929H729.346ZM781.546 3.27929H783.146L781.546 1.67929V3.27929ZM781.546 21.7593V23.3593L783.146 21.7593H781.546ZM748.546 21.7593V20.1593L746.946 21.7593H748.546ZM748.546 35.6793H746.946L748.546 37.2793V35.6793ZM778.546 35.6793H780.146L778.546 34.0793V35.6793ZM778.546 53.9193V55.5193L780.146 53.9193H778.546ZM748.546 53.9193V52.3193L746.946 53.9193H748.546ZM748.546 68.7993V70.3993H782.146V68.7993V67.1993H748.546V68.7993ZM782.146 68.7993H780.546V87.2793H782.146H783.746V68.7993H782.146ZM782.146 87.2793V85.6793H729.346V87.2793V88.8793H782.146V87.2793ZM729.346 87.2793H730.946V3.27929H729.346H727.746V87.2793H729.346ZM729.346 3.27929V4.87929H781.546V3.27929V1.67929H729.346V3.27929ZM781.546 3.27929H779.946V21.7593H781.546H783.146V3.27929H781.546ZM781.546 21.7593V20.1593H748.546V21.7593V23.3593H781.546V21.7593ZM748.546 21.7593H746.946V35.6793H748.546H750.146V21.7593H748.546ZM748.546 35.6793V37.2793H778.546V35.6793V34.0793H748.546V35.6793ZM778.546 35.6793H776.946V53.9193H778.546H780.146V35.6793H778.546ZM778.546 53.9193V52.3193H748.546V53.9193V55.5193H778.546V53.9193ZM748.546 53.9193H746.946V68.7993H748.546H750.146V53.9193H748.546ZM835.819 87.2793L834.431 88.0757L835.819 88.8793V87.2793ZM819.979 59.6793L821.367 58.8829L819.979 58.0793V59.6793ZM810.859 59.6793V58.0793L809.259 59.6793H810.859ZM810.859 87.2793V88.8793L812.459 87.2793H810.859ZM791.659 87.2793H790.059L791.659 88.8793V87.2793ZM791.659 3.27929V1.67929L790.059 3.27929H791.659ZM838.579 56.4393L837.856 55.0119L837.195 57.2418L838.579 56.4393ZM856.459 87.2793V88.8793L857.843 86.4768L856.459 87.2793ZM810.859 21.2793V19.6793L809.259 21.2793H810.859ZM810.859 42.8793H809.259L810.859 44.4793V42.8793ZM835.819 87.2793L837.206 86.4829L821.367 58.8829L819.979 59.6793L818.591 60.4757L834.431 88.0757L835.819 87.2793ZM819.979 59.6793V58.0793H810.859V59.6793V61.2793H819.979V59.6793ZM810.859 59.6793H809.259V87.2793H810.859H812.459V59.6793H810.859ZM810.859 87.2793V85.6793H791.659V87.2793V88.8793H810.859V87.2793ZM791.659 87.2793H793.259V3.27929H791.659H790.059V87.2793H791.659ZM791.659 3.27929V4.87929H825.259V3.27929V1.67929H791.659V3.27929ZM825.259 3.27929V4.87929C840.335 4.87929 852.459 17.0029 852.459 32.0793H854.059H855.659C855.659 15.2356 842.102 1.67929 825.259 1.67929V3.27929ZM854.059 32.0793H852.459C852.459 41.744 846.606 50.58 837.856 55.0119L838.579 56.4393L839.302 57.8667C849.031 52.9386 855.659 43.0546 855.659 32.0793H854.059ZM838.579 56.4393L837.195 57.2418L855.075 88.0818L856.459 87.2793L857.843 86.4768L839.963 55.6368L838.579 56.4393ZM856.459 87.2793V85.6793H835.819V87.2793V88.8793H856.459V87.2793ZM810.859 21.2793H809.259V42.8793H810.859H812.459V21.2793H810.859ZM810.859 42.8793V44.4793H825.259V42.8793V41.2793H810.859V42.8793ZM825.259 42.8793V44.4793C831.578 44.4793 836.459 38.9189 836.459 32.0793H834.859H833.259C833.259 37.4797 829.5 41.2793 825.259 41.2793V42.8793ZM834.859 32.0793H836.459C836.459 25.2397 831.578 19.6793 825.259 19.6793V21.2793V22.8793C829.5 22.8793 833.259 26.6789 833.259 32.0793H834.859ZM825.259 21.2793V19.6793H810.859V21.2793V22.8793H825.259V21.2793ZM883.367 68.7993H881.767L883.367 70.3993V68.7993ZM913.367 68.7993H914.967L913.367 67.1993V68.7993ZM913.367 87.2793V88.8793L914.967 87.2793H913.367ZM864.167 87.2793H862.567L864.167 88.8793V87.2793ZM864.167 3.27929V1.67929L862.567 3.27929H864.167ZM883.367 3.27929H884.967L883.367 1.67929V3.27929ZM883.367 68.7993V70.3993H913.367V68.7993V67.1993H883.367V68.7993ZM913.367 68.7993H911.767V87.2793H913.367H914.967V68.7993H913.367ZM913.367 87.2793V85.6793H864.167V87.2793V88.8793H913.367V87.2793ZM864.167 87.2793H865.767V3.27929H864.167H862.567V87.2793H864.167ZM864.167 3.27929V4.87929H883.367V3.27929V1.67929H864.167V3.27929ZM883.367 3.27929H881.767V68.7993H883.367H884.967V3.27929H883.367ZM939.703 68.7993H938.103L939.703 70.3993V68.7993ZM973.303 68.7993H974.903L973.303 67.1993V68.7993ZM973.303 87.2793V88.8793L974.903 87.2793H973.303ZM920.503 87.2793H918.903L920.503 88.8793V87.2793ZM920.503 3.27929V1.67929L918.903 3.27929H920.503ZM972.703 3.27929H974.303L972.703 1.67929V3.27929ZM972.703 21.7593V23.3593L974.303 21.7593H972.703ZM939.703 21.7593V20.1593L938.103 21.7593H939.703ZM939.703 35.6793H938.103L939.703 37.2793V35.6793ZM969.703 35.6793H971.303L969.703 34.0793V35.6793ZM969.703 53.9193V55.5193L971.303 53.9193H969.703ZM939.703 53.9193V52.3193L938.103 53.9193H939.703ZM939.703 68.7993V70.3993H973.303V68.7993V67.1993H939.703V68.7993ZM973.303 68.7993H971.703V87.2793H973.303H974.903V68.7993H973.303ZM973.303 87.2793V85.6793H920.503V87.2793V88.8793H973.303V87.2793ZM920.503 87.2793H922.103V3.27929H920.503H918.903V87.2793H920.503ZM920.503 3.27929V4.87929H972.703V3.27929V1.67929H920.503V3.27929ZM972.703 3.27929H971.103V21.7593H972.703H974.303V3.27929H972.703ZM972.703 21.7593V20.1593H939.703V21.7593V23.3593H972.703V21.7593ZM939.703 21.7593H938.103V35.6793H939.703H941.303V21.7593H939.703ZM939.703 35.6793V37.2793H969.703V35.6793V34.0793H939.703V35.6793ZM969.703 35.6793H968.103V53.9193H969.703H971.303V35.6793H969.703ZM969.703 53.9193V52.3193H939.703V53.9193V55.5193H969.703V53.9193ZM939.703 53.9193H938.103V68.7993H939.703H941.303V53.9193H939.703ZM1037.39 87.2793L1035.86 87.7644L1037.39 88.8793V87.2793ZM1033.19 74.0793L1034.71 73.5942L1033.19 72.4793V74.0793ZM1001.99 74.0793V72.4793L1000.46 73.5942L1001.99 74.0793ZM997.788 87.2793V88.8793L999.313 87.7644L997.788 87.2793ZM976.788 87.2793L975.273 86.7643L976.788 88.8793V87.2793ZM1005.35 3.27929V1.67929L1003.83 2.76424L1005.35 3.27929ZM1029.83 3.27929L1031.34 2.76424L1029.83 1.67929V3.27929ZM1058.39 87.2793V88.8793L1059.9 86.7643L1058.39 87.2793ZM1007.75 56.0793L1006.22 55.5929L1007.75 57.6793V56.0793ZM1027.43 56.0793V57.6793L1028.95 55.5929L1027.43 56.0793ZM1017.59 25.2393L1019.11 24.7529H1016.06L1017.59 25.2393ZM1037.39 87.2793L1038.91 86.7942L1034.71 73.5942L1033.19 74.0793L1031.66 74.5644L1035.86 87.7644L1037.39 87.2793ZM1033.19 74.0793V72.4793H1001.99V74.0793V75.6793H1033.19V74.0793ZM1001.99 74.0793L1000.46 73.5942L996.263 86.7942L997.788 87.2793L999.313 87.7644L1003.51 74.5644L1001.99 74.0793ZM997.788 87.2793V85.6793H976.788V87.2793V88.8793H997.788V87.2793ZM976.788 87.2793L978.303 87.7943L1006.86 3.79433L1005.35 3.27929L1003.83 2.76424L975.273 86.7643L976.788 87.2793ZM1005.35 3.27929V4.87929H1029.83V3.27929V1.67929H1005.35V3.27929ZM1029.83 3.27929L1028.31 3.79433L1056.87 87.7943L1058.39 87.2793L1059.9 86.7643L1031.34 2.76424L1029.83 3.27929ZM1058.39 87.2793V85.6793H1037.39V87.2793V88.8793H1058.39V87.2793ZM1007.75 56.0793V57.6793H1027.43V56.0793V54.4793H1007.75V56.0793ZM1027.43 56.0793L1028.95 55.5929L1019.11 24.7529L1017.59 25.2393L1016.06 25.7256L1025.9 56.5656L1027.43 56.0793ZM1017.59 25.2393L1016.06 24.7529L1006.22 55.5929L1007.75 56.0793L1009.27 56.5656L1019.11 25.7256L1017.59 25.2393ZM1064.23 87.2793H1062.63L1064.23 88.8793V87.2793ZM1064.23 3.27929V1.67929L1062.63 3.27929H1064.23ZM1083.43 21.7593V20.1593L1081.83 21.7593H1083.43ZM1083.43 68.7993H1081.83L1083.43 70.3993V68.7993ZM1097.83 3.27929V4.87929C1120.06 4.87929 1137.03 22.3568 1137.03 45.2793H1138.63H1140.23C1140.23 20.6817 1121.92 1.67929 1097.83 1.67929V3.27929ZM1138.63 45.2793H1137.03C1137.03 68.2017 1120.06 85.6793 1097.83 85.6793V87.2793V88.8793C1121.92 88.8793 1140.23 69.8769 1140.23 45.2793H1138.63ZM1097.83 87.2793V85.6793H1064.23V87.2793V88.8793H1097.83V87.2793ZM1064.23 87.2793H1065.83V3.27929H1064.23H1062.63V87.2793H1064.23ZM1064.23 3.27929V4.87929H1097.83V3.27929V1.67929H1064.23V3.27929ZM1097.83 68.7993V70.3993C1104.81 70.3993 1110.83 67.9797 1115.09 63.5493C1119.36 59.1228 1121.75 52.821 1121.75 45.2793H1120.15H1118.55C1118.55 52.1376 1116.38 57.5957 1112.79 61.3293C1109.2 65.0589 1104.05 67.1993 1097.83 67.1993V68.7993ZM1120.15 45.2793H1121.75C1121.75 37.7376 1119.36 31.4357 1115.09 27.0093C1110.83 22.5789 1104.81 20.1593 1097.83 20.1593V21.7593V23.3593C1104.05 23.3593 1109.2 25.4997 1112.79 29.2293C1116.38 32.9628 1118.55 38.421 1118.55 45.2793H1120.15ZM1097.83 21.7593V20.1593H1083.43V21.7593V23.3593H1097.83V21.7593ZM1083.43 21.7593H1081.83V68.7993H1083.43H1085.03V21.7593H1083.43ZM1083.43 68.7993V70.3993H1097.83V68.7993V67.1993H1083.43V68.7993ZM1148.11 3.27929V1.67929L1146.51 3.27929H1148.11ZM1167.31 3.27929H1168.91L1167.31 1.67929V3.27929ZM1167.31 87.2793V88.8793L1168.91 87.2793H1167.31ZM1148.11 87.2793H1146.51L1148.11 88.8793V87.2793ZM1148.11 3.27929V4.87929H1167.31V3.27929V1.67929H1148.11V3.27929ZM1167.31 3.27929H1165.71V87.2793H1167.31H1168.91V3.27929H1167.31ZM1167.31 87.2793V85.6793H1148.11V87.2793V88.8793H1167.31V87.2793ZM1148.11 87.2793H1149.71V3.27929H1148.11H1146.51V87.2793H1148.11ZM1227.22 3.27929V1.67929L1225.62 3.27929H1227.22ZM1246.42 3.27929H1248.02L1246.42 1.67929V3.27929ZM1246.42 87.2793V88.8793L1248.02 87.2793H1246.42ZM1232.02 87.2793L1230.71 88.206L1232.02 88.8793V87.2793ZM1199.62 41.6793L1200.92 40.7526L1198.02 41.6793H1199.62ZM1199.62 87.2793V88.8793L1201.22 87.2793H1199.62ZM1180.42 87.2793H1178.82L1180.42 88.8793V87.2793ZM1180.42 3.27929V1.67929L1178.82 3.27929H1180.42ZM1194.82 3.27929L1196.12 2.35256L1194.82 1.67929V3.27929ZM1227.22 48.8793L1225.91 49.806L1228.82 48.8793H1227.22ZM1227.22 3.27929V4.87929H1246.42V3.27929V1.67929H1227.22V3.27929ZM1246.42 3.27929H1244.82V87.2793H1246.42H1248.02V3.27929H1246.42ZM1246.42 87.2793V85.6793H1232.02V87.2793V88.8793H1246.42V87.2793ZM1232.02 87.2793L1233.32 86.3526L1200.92 40.7526L1199.62 41.6793L1198.31 42.606L1230.71 88.206L1232.02 87.2793ZM1199.62 41.6793H1198.02V87.2793H1199.62H1201.22V41.6793H1199.62ZM1199.62 87.2793V85.6793H1180.42V87.2793V88.8793H1199.62V87.2793ZM1180.42 87.2793H1182.02V3.27929H1180.42H1178.82V87.2793H1180.42ZM1180.42 3.27929V4.87929H1194.82V3.27929V1.67929H1180.42V3.27929ZM1194.82 3.27929L1193.51 4.20602L1225.91 49.806L1227.22 48.8793L1228.52 47.9526L1196.12 2.35256L1194.82 3.27929ZM1227.22 48.8793H1228.82V3.27929H1227.22H1225.62V48.8793H1227.22ZM1342.65 40.4793H1344.25L1342.65 38.8793V40.4793ZM1336.65 20.7993L1337.45 22.1872L1338 19.9487L1336.65 20.7993ZM1320.33 30.1593L1318.98 31.0126L1321.13 31.5472L1320.33 30.1593ZM1322.97 57.2793L1324.47 57.8386L1322.97 55.6793V57.2793ZM1300.53 57.2793H1298.93L1300.53 58.8793V57.2793ZM1300.53 40.4793V38.8793L1298.93 40.4793H1300.53ZM1342.65 40.4793H1341.05V47.6793H1342.65H1344.25V40.4793H1342.65ZM1342.65 47.6793H1341.05C1341.05 60.1312 1336.72 70.018 1329.66 76.7948C1322.59 83.5811 1312.65 87.3593 1301.25 87.3593V88.9593V90.5593C1313.36 90.5593 1324.13 86.5375 1331.88 79.1038C1339.63 71.6605 1344.25 60.9074 1344.25 47.6793H1342.65ZM1301.25 88.9593V87.3593C1275.7 87.3593 1257.49 68.6045 1257.49 45.3993H1255.89H1254.29C1254.29 70.4341 1274 90.5593 1301.25 90.5593V88.9593ZM1255.89 45.3993H1257.49C1257.49 21.9258 1276.09 3.1993 1299.93 3.1993V1.59929V-0.000709534C1274.33 -0.000709534 1254.29 20.1528 1254.29 45.3993H1255.89ZM1299.93 1.59929V3.1993C1315.48 3.1993 1328.52 10.8577 1335.29 21.6499L1336.65 20.7993L1338 19.9487C1330.62 8.18092 1316.53 -0.000709534 1299.93 -0.000709534V1.59929ZM1336.65 20.7993L1335.85 19.4114L1319.53 28.7714L1320.33 30.1593L1321.13 31.5472L1337.45 22.1872L1336.65 20.7993ZM1320.33 30.1593L1321.68 29.306C1317.86 23.2474 1309.75 18.7193 1299.81 18.7193V20.3193V21.9193C1308.83 21.9193 1315.84 26.0312 1318.98 31.0126L1320.33 30.1593ZM1299.81 20.3193V18.7193C1284.75 18.7193 1273.49 29.891 1273.49 45.5193H1275.09H1276.69C1276.69 31.6276 1286.55 21.9193 1299.81 21.9193V20.3193ZM1275.09 45.5193H1273.49C1273.49 53.0467 1276.15 59.6585 1281.06 64.3863C1285.96 69.1123 1292.98 71.8393 1301.49 71.8393V70.2393V68.6393C1293.68 68.6393 1287.5 66.1463 1283.28 62.0823C1279.06 58.0201 1276.69 52.2719 1276.69 45.5193H1275.09ZM1301.49 70.2393V71.8393C1313.18 71.8393 1321.19 66.6244 1324.47 57.8386L1322.97 57.2793L1321.47 56.72C1318.75 64.0142 1312.12 68.6393 1301.49 68.6393V70.2393ZM1322.97 57.2793V55.6793H1300.53V57.2793V58.8793H1322.97V57.2793ZM1300.53 57.2793H1302.13V40.4793H1300.53H1298.93V57.2793H1300.53ZM1300.53 40.4793V42.0793H1342.65V40.4793V38.8793H1300.53V40.4793ZM1437.23 3.27929H1438.83L1437.23 1.67929V3.27929ZM1437.23 21.7593V23.3593L1438.83 21.7593H1437.23ZM1415.63 21.7593V20.1593L1414.03 21.7593H1415.63ZM1415.63 87.2793V88.8793L1417.23 87.2793H1415.63ZM1396.43 87.2793H1394.83L1396.43 88.8793V87.2793ZM1396.43 21.7593H1398.03L1396.43 20.1593V21.7593ZM1374.83 21.7593H1373.23L1374.83 23.3593V21.7593ZM1374.83 3.27929V1.67929L1373.23 3.27929H1374.83ZM1437.23 3.27929H1435.63V21.7593H1437.23H1438.83V3.27929H1437.23ZM1437.23 21.7593V20.1593H1415.63V21.7593V23.3593H1437.23V21.7593ZM1415.63 21.7593H1414.03V87.2793H1415.63H1417.23V21.7593H1415.63ZM1415.63 87.2793V85.6793H1396.43V87.2793V88.8793H1415.63V87.2793ZM1396.43 87.2793H1398.03V21.7593H1396.43H1394.83V87.2793H1396.43ZM1396.43 21.7593V20.1593H1374.83V21.7593V23.3593H1396.43V21.7593ZM1374.83 21.7593H1376.43V3.27929H1374.83H1373.23V21.7593H1374.83ZM1374.83 3.27929V4.87929H1437.23V3.27929V1.67929H1374.83V3.27929ZM1463.52 68.7993H1461.92L1463.52 70.3993V68.7993ZM1497.12 68.7993H1498.72L1497.12 67.1993V68.7993ZM1497.12 87.2793V88.8793L1498.72 87.2793H1497.12ZM1444.32 87.2793H1442.72L1444.32 88.8793V87.2793ZM1444.32 3.27929V1.67929L1442.72 3.27929H1444.32ZM1496.52 3.27929H1498.12L1496.52 1.67929V3.27929ZM1496.52 21.7593V23.3593L1498.12 21.7593H1496.52ZM1463.52 21.7593V20.1593L1461.92 21.7593H1463.52ZM1463.52 35.6793H1461.92L1463.52 37.2793V35.6793ZM1493.52 35.6793H1495.12L1493.52 34.0793V35.6793ZM1493.52 53.9193V55.5193L1495.12 53.9193H1493.52ZM1463.52 53.9193V52.3193L1461.92 53.9193H1463.52ZM1463.52 68.7993V70.3993H1497.12V68.7993V67.1993H1463.52V68.7993ZM1497.12 68.7993H1495.52V87.2793H1497.12H1498.72V68.7993H1497.12ZM1497.12 87.2793V85.6793H1444.32V87.2793V88.8793H1497.12V87.2793ZM1444.32 87.2793H1445.92V3.27929H1444.32H1442.72V87.2793H1444.32ZM1444.32 3.27929V4.87929H1496.52V3.27929V1.67929H1444.32V3.27929ZM1496.52 3.27929H1494.92V21.7593H1496.52H1498.12V3.27929H1496.52ZM1496.52 21.7593V20.1593H1463.52V21.7593V23.3593H1496.52V21.7593ZM1463.52 21.7593H1461.92V35.6793H1463.52H1465.12V21.7593H1463.52ZM1463.52 35.6793V37.2793H1493.52V35.6793V34.0793H1463.52V35.6793ZM1493.52 35.6793H1491.92V53.9193H1493.52H1495.12V35.6793H1493.52ZM1493.52 53.9193V52.3193H1463.52V53.9193V55.5193H1493.52V53.9193ZM1463.52 53.9193H1461.92V68.7993H1463.52H1465.12V53.9193H1463.52ZM1561.2 87.2793L1559.68 87.7644L1561.2 88.8793V87.2793ZM1557 74.0793L1558.53 73.5942L1557 72.4793V74.0793ZM1525.8 74.0793V72.4793L1524.28 73.5942L1525.8 74.0793ZM1521.6 87.2793V88.8793L1523.13 87.7644L1521.6 87.2793ZM1500.6 87.2793L1499.09 86.7643L1500.6 88.8793V87.2793ZM1529.16 3.27929V1.67929L1527.65 2.76424L1529.16 3.27929ZM1553.64 3.27929L1555.16 2.76424L1553.64 1.67929V3.27929ZM1582.2 87.2793V88.8793L1583.72 86.7643L1582.2 87.2793ZM1531.56 56.0793L1530.04 55.5929L1531.56 57.6793V56.0793ZM1551.24 56.0793V57.6793L1552.77 55.5929L1551.24 56.0793ZM1541.4 25.2393L1542.93 24.7529H1539.88L1541.4 25.2393ZM1561.2 87.2793L1562.73 86.7942L1558.53 73.5942L1557 74.0793L1555.48 74.5644L1559.68 87.7644L1561.2 87.2793ZM1557 74.0793V72.4793H1525.8V74.0793V75.6793H1557V74.0793ZM1525.8 74.0793L1524.28 73.5942L1520.08 86.7942L1521.6 87.2793L1523.13 87.7644L1527.33 74.5644L1525.8 74.0793ZM1521.6 87.2793V85.6793H1500.6V87.2793V88.8793H1521.6V87.2793ZM1500.6 87.2793L1502.12 87.7943L1530.68 3.79433L1529.16 3.27929L1527.65 2.76424L1499.09 86.7643L1500.6 87.2793ZM1529.16 3.27929V4.87929H1553.64V3.27929V1.67929H1529.16V3.27929ZM1553.64 3.27929L1552.13 3.79433L1580.69 87.7943L1582.2 87.2793L1583.72 86.7643L1555.16 2.76424L1553.64 3.27929ZM1582.2 87.2793V85.6793H1561.2V87.2793V88.8793H1582.2V87.2793ZM1531.56 56.0793V57.6793H1551.24V56.0793V54.4793H1531.56V56.0793ZM1551.24 56.0793L1552.77 55.5929L1542.93 24.7529L1541.4 25.2393L1539.88 25.7256L1549.72 56.5656L1551.24 56.0793ZM1541.4 25.2393L1539.88 24.7529L1530.04 55.5929L1531.56 56.0793L1533.09 56.5656L1542.93 25.7256L1541.4 25.2393ZM1672.05 3.27929H1673.65L1672.05 1.67929V3.27929ZM1672.05 87.2793V88.8793L1673.65 87.2793H1672.05ZM1652.85 87.2793H1651.25L1652.85 88.8793V87.2793ZM1652.85 38.4393H1654.45L1651.48 37.6067L1652.85 38.4393ZM1631.13 74.0793V75.6793L1632.49 74.9119L1631.13 74.0793ZM1628.97 74.0793L1627.6 74.9119L1628.97 75.6793V74.0793ZM1607.25 38.4393L1608.61 37.6067L1605.65 38.4393H1607.25ZM1607.25 87.2793V88.8793L1608.85 87.2793H1607.25ZM1588.05 87.2793H1586.45L1588.05 88.8793V87.2793ZM1588.05 3.27929V1.67929L1586.45 3.27929H1588.05ZM1607.25 3.27929L1608.61 2.44515L1607.25 1.67929V3.27929ZM1630.05 40.5993L1628.68 41.4334H1631.41L1630.05 40.5993ZM1652.85 3.27929V1.67929L1651.48 2.44515L1652.85 3.27929ZM1672.05 3.27929H1670.45V87.2793H1672.05H1673.65V3.27929H1672.05ZM1672.05 87.2793V85.6793H1652.85V87.2793V88.8793H1672.05V87.2793ZM1652.85 87.2793H1654.45V38.4393H1652.85H1651.25V87.2793H1652.85ZM1652.85 38.4393L1651.48 37.6067L1629.76 73.2467L1631.13 74.0793L1632.49 74.9119L1654.21 39.2719L1652.85 38.4393ZM1631.13 74.0793V72.4793H1628.97V74.0793V75.6793H1631.13V74.0793ZM1628.97 74.0793L1630.33 73.2467L1608.61 37.6067L1607.25 38.4393L1605.88 39.2719L1627.6 74.9119L1628.97 74.0793ZM1607.25 38.4393H1605.65V87.2793H1607.25H1608.85V38.4393H1607.25ZM1607.25 87.2793V85.6793H1588.05V87.2793V88.8793H1607.25V87.2793ZM1588.05 87.2793H1589.65V3.27929H1588.05H1586.45V87.2793H1588.05ZM1588.05 3.27929V4.87929H1607.25V3.27929V1.67929H1588.05V3.27929ZM1607.25 3.27929L1605.88 4.11343L1628.68 41.4334L1630.05 40.5993L1631.41 39.7652L1608.61 2.44515L1607.25 3.27929ZM1630.05 40.5993L1631.41 41.4334L1654.21 4.11343L1652.85 3.27929L1651.48 2.44515L1628.68 39.7652L1630.05 40.5993ZM1652.85 3.27929V4.87929H1672.05V3.27929V1.67929H1652.85V3.27929Z" fill="white" mask="url(#path-1-outside-1_1512_1020)"/>
</svg>
