<svg width="1340" height="73" viewBox="0 0 1340 73" fill="none" xmlns="http://www.w3.org/2000/svg">
<mask id="path-1-outside-1_1512_1021" maskUnits="userSpaceOnUse" x="-0.360352" y="-0.0566406" width="1340" height="73" fill="black">
<rect fill="white" x="-0.360352" y="-0.0566406" width="1340" height="73"/>
<path d="M38.8397 2.74335H54.1996V69.9434H42.6796L16.7596 33.4634V69.9434H1.39965V2.74335H12.9196L38.8397 39.2234V2.74335ZM80.0161 55.1594H106.896V69.9434H64.6561V2.74335H106.416V17.5274H80.0161V28.6634H104.016V43.2554H80.0161V55.1594ZM129.866 55.1594H156.746V69.9434H114.506V2.74335H156.266V17.5274H129.866V28.6634H153.866V43.2554H129.866V55.1594ZM191.237 2.74335C209.765 2.74335 223.877 17.3354 223.877 36.3434C223.877 55.3514 209.765 69.9434 191.237 69.9434H164.357V2.74335H191.237ZM191.237 55.1594C201.797 55.1594 209.093 47.8634 209.093 36.3434C209.093 24.8234 201.797 17.5274 191.237 17.5274H179.717V55.1594H191.237ZM246.817 55.1594H270.817V69.9434H231.457V2.74335H246.817V55.1594ZM291.886 55.1594H318.766V69.9434H276.526V2.74335H318.286V17.5274H291.886V28.6634H315.886V43.2554H291.886V55.1594ZM349.896 71.2874C335.784 71.2874 326.76 64.5674 323.016 54.6794L336.264 46.9994C338.664 52.5674 342.792 56.3114 350.376 56.3114C357.672 56.3114 359.496 53.4314 359.496 50.8394C359.496 46.7114 355.656 45.0794 345.576 42.2954C335.592 39.5114 325.8 34.7114 325.8 21.8474C325.8 8.88736 336.744 1.39935 348.36 1.39935C359.4 1.39935 368.04 6.67936 372.936 16.5674L359.976 24.1514C357.672 19.3514 354.504 16.3754 348.36 16.3754C343.56 16.3754 341.16 18.7754 341.16 21.4634C341.16 24.5354 342.792 26.6474 353.256 29.8154C363.432 32.8874 374.856 36.4394 374.856 50.6474C374.856 63.6074 364.488 71.2874 349.896 71.2874ZM436.484 71.2874C416.228 71.2874 401.54 56.1194 401.54 36.3434C401.54 16.5674 416.228 1.39935 436.484 1.39935C448.676 1.39935 459.428 7.44736 465.284 16.9514L452.036 24.6314C449.06 19.4474 443.3 16.3754 436.484 16.3754C424.58 16.3754 416.9 24.3434 416.9 36.3434C416.9 48.3434 424.58 56.3114 436.484 56.3114C443.3 56.3114 449.156 53.2394 452.036 48.0554L465.284 55.7354C459.524 65.2394 448.772 71.2874 436.484 71.2874ZM507.907 2.74335H523.267V69.9434H507.907V43.2554H486.787V69.9434H471.427V2.74335H486.787V28.4714H507.907V2.74335ZM549.106 55.1594H575.986V69.9434H533.746V2.74335H575.506V17.5274H549.106V28.6634H573.106V43.2554H549.106V55.1594ZM598.956 55.1594H625.836V69.9434H583.596V2.74335H625.356V17.5274H598.956V28.6634H622.956V43.2554H598.956V55.1594ZM668.774 69.9434L656.102 47.8634H648.806V69.9434H633.446V2.74335H660.326C673.094 2.74335 683.366 13.0154 683.366 25.7834C683.366 34.0394 678.374 41.5274 670.982 45.2714L685.286 69.9434H668.774ZM648.806 17.1434V34.4234H660.326C664.55 34.4234 668.006 30.6794 668.006 25.7834C668.006 20.8874 664.55 17.1434 660.326 17.1434H648.806ZM706.813 55.1594H730.813V69.9434H691.453V2.74335H706.813V55.1594ZM751.882 55.1594H778.762V69.9434H736.522V2.74335H778.282V17.5274H751.882V28.6634H775.882V43.2554H751.882V55.1594ZM830.03 69.9434L826.67 59.3834H801.71L798.35 69.9434H781.55L804.398 2.74335H823.982L846.83 69.9434H830.03ZM806.318 44.9834H822.062L814.19 20.3114L806.318 44.9834ZM878.384 2.74335C896.912 2.74335 911.024 17.3354 911.024 36.3434C911.024 55.3514 896.912 69.9434 878.384 69.9434H851.504V2.74335H878.384ZM878.384 55.1594C888.944 55.1594 896.24 47.8634 896.24 36.3434C896.24 24.8234 888.944 17.5274 878.384 17.5274H866.864V55.1594H878.384ZM918.604 2.74335H933.964V69.9434H918.604V2.74335ZM981.894 2.74335H997.254V69.9434H985.734L959.814 33.4634V69.9434H944.454V2.74335H955.974L981.894 39.2234V2.74335ZM1074.24 32.5034V38.2634C1074.24 58.8074 1059.93 71.2874 1041.12 71.2874C1020 71.2874 1004.83 55.7354 1004.83 36.4394C1004.83 16.9514 1020.29 1.39935 1040.06 1.39935C1052.93 1.39935 1063.77 7.73536 1069.44 16.7594L1056.38 24.2474C1053.6 19.8314 1047.55 16.3754 1039.97 16.3754C1028.64 16.3754 1020.19 24.7274 1020.19 36.5354C1020.19 47.9594 1028.25 56.3114 1041.31 56.3114C1050.24 56.3114 1056.09 52.3754 1058.49 45.9434H1040.54V32.5034H1074.24ZM1149.91 2.74335V17.5274H1132.63V69.9434H1117.27V17.5274H1099.99V2.74335H1149.91ZM1170.93 55.1594H1197.81V69.9434H1155.57V2.74335H1197.33V17.5274H1170.93V28.6634H1194.93V43.2554H1170.93V55.1594ZM1249.08 69.9434L1245.72 59.3834H1220.76L1217.4 69.9434H1200.6L1223.45 2.74335H1243.03L1265.88 69.9434H1249.08ZM1225.37 44.9834H1241.11L1233.24 20.3114L1225.37 44.9834ZM1337.76 2.74335V69.9434H1322.4V30.8714L1305.02 59.3834H1303.29L1285.92 30.8714V69.9434H1270.56V2.74335H1285.92L1304.16 32.5994L1322.4 2.74335H1337.76Z"/>
</mask>
<path d="M38.8396 2.74335V1.34335L37.4397 2.74335H38.8396ZM54.1996 2.74335H55.5997L54.1996 1.34335V2.74335ZM54.1996 69.9434V71.3434L55.5997 69.9434H54.1996ZM42.6796 69.9434L41.5384 70.7542L42.6796 71.3434V69.9434ZM16.7596 33.4634L17.9009 32.6525L15.3596 33.4634H16.7596ZM16.7596 69.9434V71.3434L18.1596 69.9434H16.7596ZM1.39965 69.9434H-0.000351429L1.39965 71.3434V69.9434ZM1.39965 2.74335V1.34335L-0.000351429 2.74335H1.39965ZM12.9196 2.74335L14.0609 1.93246L12.9196 1.34335V2.74335ZM38.8396 39.2234L37.6984 40.0342L40.2397 39.2234H38.8396ZM38.8396 2.74335V4.14336H54.1996V2.74335V1.34335H38.8396V2.74335ZM54.1996 2.74335H52.7996V69.9434H54.1996H55.5997V2.74335H54.1996ZM54.1996 69.9434V68.5434H42.6796V69.9434V71.3434H54.1996V69.9434ZM42.6796 69.9434L43.8209 69.1325L17.9009 32.6525L16.7596 33.4634L15.6184 34.2742L41.5384 70.7542L42.6796 69.9434ZM16.7596 33.4634H15.3596V69.9434H16.7596H18.1596V33.4634H16.7596ZM16.7596 69.9434V68.5434H1.39965V69.9434V71.3434H16.7596V69.9434ZM1.39965 69.9434H2.79965V2.74335H1.39965H-0.000351429V69.9434H1.39965ZM1.39965 2.74335V4.14336H12.9196V2.74335V1.34335H1.39965V2.74335ZM12.9196 2.74335L11.7784 3.55424L37.6984 40.0342L38.8396 39.2234L39.9809 38.4125L14.0609 1.93246L12.9196 2.74335ZM38.8396 39.2234H40.2397V2.74335H38.8396H37.4397V39.2234H38.8396ZM80.0162 55.1594H78.6161L80.0162 56.5594V55.1594ZM106.896 55.1594H108.296L106.896 53.7594V55.1594ZM106.896 69.9434V71.3434L108.296 69.9434H106.896ZM64.6562 69.9434H63.2561L64.6562 71.3434V69.9434ZM64.6562 2.74335V1.34335L63.2561 2.74335H64.6562ZM106.416 2.74335H107.816L106.416 1.34335V2.74335ZM106.416 17.5274V18.9274L107.816 17.5274H106.416ZM80.0162 17.5274V16.1274L78.6161 17.5274H80.0162ZM80.0162 28.6634H78.6161L80.0162 30.0634V28.6634ZM104.016 28.6634H105.416L104.016 27.2634V28.6634ZM104.016 43.2554V44.6554L105.416 43.2554H104.016ZM80.0162 43.2554V41.8554L78.6161 43.2554H80.0162ZM80.0162 55.1594V56.5594H106.896V55.1594V53.7594H80.0162V55.1594ZM106.896 55.1594H105.496V69.9434H106.896H108.296V55.1594H106.896ZM106.896 69.9434V68.5434H64.6562V69.9434V71.3434H106.896V69.9434ZM64.6562 69.9434H66.0562V2.74335H64.6562H63.2561V69.9434H64.6562ZM64.6562 2.74335V4.14336H106.416V2.74335V1.34335H64.6562V2.74335ZM106.416 2.74335H105.016V17.5274H106.416H107.816V2.74335H106.416ZM106.416 17.5274V16.1274H80.0162V17.5274V18.9274H106.416V17.5274ZM80.0162 17.5274H78.6161V28.6634H80.0162H81.4162V17.5274H80.0162ZM80.0162 28.6634V30.0634H104.016V28.6634V27.2634H80.0162V28.6634ZM104.016 28.6634H102.616V43.2554H104.016H105.416V28.6634H104.016ZM104.016 43.2554V41.8554H80.0162V43.2554V44.6554H104.016V43.2554ZM80.0162 43.2554H78.6161V55.1594H80.0162H81.4162V43.2554H80.0162ZM129.866 55.1594H128.466L129.866 56.5594V55.1594ZM156.746 55.1594H158.146L156.746 53.7594V55.1594ZM156.746 69.9434V71.3434L158.146 69.9434H156.746ZM114.506 69.9434H113.106L114.506 71.3434V69.9434ZM114.506 2.74335V1.34335L113.106 2.74335H114.506ZM156.266 2.74335H157.666L156.266 1.34335V2.74335ZM156.266 17.5274V18.9274L157.666 17.5274H156.266ZM129.866 17.5274V16.1274L128.466 17.5274H129.866ZM129.866 28.6634H128.466L129.866 30.0634V28.6634ZM153.866 28.6634H155.266L153.866 27.2634V28.6634ZM153.866 43.2554V44.6554L155.266 43.2554H153.866ZM129.866 43.2554V41.8554L128.466 43.2554H129.866ZM129.866 55.1594V56.5594H156.746V55.1594V53.7594H129.866V55.1594ZM156.746 55.1594H155.346V69.9434H156.746H158.146V55.1594H156.746ZM156.746 69.9434V68.5434H114.506V69.9434V71.3434H156.746V69.9434ZM114.506 69.9434H115.906V2.74335H114.506H113.106V69.9434H114.506ZM114.506 2.74335V4.14336H156.266V2.74335V1.34335H114.506V2.74335ZM156.266 2.74335H154.866V17.5274H156.266H157.666V2.74335H156.266ZM156.266 17.5274V16.1274H129.866V17.5274V18.9274H156.266V17.5274ZM129.866 17.5274H128.466V28.6634H129.866H131.266V17.5274H129.866ZM129.866 28.6634V30.0634H153.866V28.6634V27.2634H129.866V28.6634ZM153.866 28.6634H152.466V43.2554H153.866H155.266V28.6634H153.866ZM153.866 43.2554V41.8554H129.866V43.2554V44.6554H153.866V43.2554ZM129.866 43.2554H128.466V55.1594H129.866H131.266V43.2554H129.866ZM164.357 69.9434H162.957L164.357 71.3434V69.9434ZM164.357 2.74335V1.34335L162.957 2.74335H164.357ZM179.717 17.5274V16.1274L178.317 17.5274H179.717ZM179.717 55.1594H178.317L179.717 56.5594V55.1594ZM191.237 2.74335V4.14336C208.952 4.14336 222.477 18.0682 222.477 36.3434H223.877H225.277C225.277 16.6025 210.578 1.34335 191.237 1.34335V2.74335ZM223.877 36.3434H222.477C222.477 54.6185 208.952 68.5434 191.237 68.5434V69.9434V71.3434C210.578 71.3434 225.277 56.0842 225.277 36.3434H223.877ZM191.237 69.9434V68.5434H164.357V69.9434V71.3434H191.237V69.9434ZM164.357 69.9434H165.757V2.74335H164.357H162.957V69.9434H164.357ZM164.357 2.74335V4.14336H191.237V2.74335V1.34335H164.357V2.74335ZM191.237 55.1594V56.5594C196.849 56.5594 201.694 54.6132 205.133 51.0426C208.569 47.4755 210.493 42.4023 210.493 36.3434H209.093H207.693C207.693 41.8044 205.968 46.1393 203.116 49.1001C200.268 52.0575 196.184 53.7594 191.237 53.7594V55.1594ZM209.093 36.3434H210.493C210.493 30.2844 208.569 25.2113 205.133 21.6441C201.694 18.0735 196.849 16.1274 191.237 16.1274V17.5274V18.9274C196.184 18.9274 200.268 20.6292 203.116 23.5866C205.968 26.5475 207.693 30.8823 207.693 36.3434H209.093ZM191.237 17.5274V16.1274H179.717V17.5274V18.9274H191.237V17.5274ZM179.717 17.5274H178.317V55.1594H179.717H181.117V17.5274H179.717ZM179.717 55.1594V56.5594H191.237V55.1594V53.7594H179.717V55.1594ZM246.817 55.1594H245.417L246.817 56.5594V55.1594ZM270.817 55.1594H272.217L270.817 53.7594V55.1594ZM270.817 69.9434V71.3434L272.217 69.9434H270.817ZM231.457 69.9434H230.057L231.457 71.3434V69.9434ZM231.457 2.74335V1.34335L230.057 2.74335H231.457ZM246.817 2.74335H248.217L246.817 1.34335V2.74335ZM246.817 55.1594V56.5594H270.817V55.1594V53.7594H246.817V55.1594ZM270.817 55.1594H269.417V69.9434H270.817H272.217V55.1594H270.817ZM270.817 69.9434V68.5434H231.457V69.9434V71.3434H270.817V69.9434ZM231.457 69.9434H232.857V2.74335H231.457H230.057V69.9434H231.457ZM231.457 2.74335V4.14336H246.817V2.74335V1.34335H231.457V2.74335ZM246.817 2.74335H245.417V55.1594H246.817H248.217V2.74335H246.817ZM291.886 55.1594H290.486L291.886 56.5594V55.1594ZM318.766 55.1594H320.166L318.766 53.7594V55.1594ZM318.766 69.9434V71.3434L320.166 69.9434H318.766ZM276.526 69.9434H275.126L276.526 71.3434V69.9434ZM276.526 2.74335V1.34335L275.126 2.74335H276.526ZM318.286 2.74335H319.686L318.286 1.34335V2.74335ZM318.286 17.5274V18.9274L319.686 17.5274H318.286ZM291.886 17.5274V16.1274L290.486 17.5274H291.886ZM291.886 28.6634H290.486L291.886 30.0634V28.6634ZM315.886 28.6634H317.286L315.886 27.2634V28.6634ZM315.886 43.2554V44.6554L317.286 43.2554H315.886ZM291.886 43.2554V41.8554L290.486 43.2554H291.886ZM291.886 55.1594V56.5594H318.766V55.1594V53.7594H291.886V55.1594ZM318.766 55.1594H317.366V69.9434H318.766H320.166V55.1594H318.766ZM318.766 69.9434V68.5434H276.526V69.9434V71.3434H318.766V69.9434ZM276.526 69.9434H277.926V2.74335H276.526H275.126V69.9434H276.526ZM276.526 2.74335V4.14336H318.286V2.74335V1.34335H276.526V2.74335ZM318.286 2.74335H316.886V17.5274H318.286H319.686V2.74335H318.286ZM318.286 17.5274V16.1274H291.886V17.5274V18.9274H318.286V17.5274ZM291.886 17.5274H290.486V28.6634H291.886H293.286V17.5274H291.886ZM291.886 28.6634V30.0634H315.886V28.6634V27.2634H291.886V28.6634ZM315.886 28.6634H314.486V43.2554H315.886H317.286V28.6634H315.886ZM315.886 43.2554V41.8554H291.886V43.2554V44.6554H315.886V43.2554ZM291.886 43.2554H290.486V55.1594H291.886H293.286V43.2554H291.886ZM323.016 54.6794L322.314 53.4682L321.707 55.1751L323.016 54.6794ZM336.264 46.9994L337.55 46.4452L335.562 45.7882L336.264 46.9994ZM345.576 42.2954L345.2 43.6439L345.203 43.6448L345.576 42.2954ZM372.936 16.5674L373.643 17.7757L374.191 15.9461L372.936 16.5674ZM359.976 24.1514L358.714 24.7572L360.683 25.3597L359.976 24.1514ZM353.256 29.8154L352.85 31.1553L352.852 31.1556L353.256 29.8154ZM349.896 71.2874V69.8874C336.301 69.8874 327.841 63.4687 324.325 54.1836L323.016 54.6794L321.707 55.1751C325.679 65.666 335.268 72.6874 349.896 72.6874V71.2874ZM323.016 54.6794L323.718 55.8906L336.966 48.2106L336.264 46.9994L335.562 45.7882L322.314 53.4682L323.016 54.6794ZM336.264 46.9994L334.978 47.5535C336.247 50.4972 338.017 53.0606 340.561 54.8818C343.117 56.7112 346.343 57.7114 350.376 57.7114V56.3114V54.9114C346.826 54.9114 344.195 54.0395 342.191 52.6049C340.175 51.1621 338.681 49.0695 337.55 46.4452L336.264 46.9994ZM350.376 56.3114V57.7114C354.174 57.7114 356.809 56.9674 358.521 55.6603C360.296 54.3061 360.896 52.4913 360.896 50.8394H359.496H358.096C358.096 51.7794 357.784 52.7006 356.823 53.4344C355.8 54.2153 353.874 54.9114 350.376 54.9114V56.3114ZM359.496 50.8394H360.896C360.896 49.5728 360.596 48.4175 359.904 47.3783C359.226 46.3607 358.236 45.5499 357.012 44.8486C354.612 43.4734 350.954 42.3283 345.949 40.9459L345.576 42.2954L345.203 43.6448C350.278 45.0464 353.58 46.1094 355.62 47.2781C356.616 47.8489 357.216 48.394 357.573 48.9304C357.916 49.4452 358.096 50.0419 358.096 50.8394H359.496ZM345.576 42.2954L345.952 40.9468C341.014 39.5697 336.311 37.7396 332.853 34.7867C329.462 31.8907 327.2 27.8607 327.2 21.8474H325.8H324.4C324.4 28.698 327.034 33.5 331.035 36.916C334.969 40.2751 340.155 42.237 345.2 43.6439L345.576 42.2954ZM325.8 21.8474H327.2C327.2 9.88804 337.268 2.79935 348.36 2.79935V1.39935V-0.000648499C336.22 -0.000648499 324.4 7.88667 324.4 21.8474H325.8ZM348.36 1.39935V2.79935C358.876 2.79935 367.025 7.78482 371.682 17.1886L372.936 16.5674L374.191 15.9461C369.055 5.57389 359.924 -0.000648499 348.36 -0.000648499V1.39935ZM372.936 16.5674L372.229 15.359L359.269 22.943L359.976 24.1514L360.683 25.3597L373.643 17.7757L372.936 16.5674ZM359.976 24.1514L361.238 23.5455C360.032 21.0323 358.538 18.8628 356.432 17.3311C354.303 15.7834 351.673 14.9754 348.36 14.9754V16.3754V17.7754C351.191 17.7754 353.217 18.4553 354.785 19.5956C356.375 20.7519 357.616 22.4704 358.714 24.7572L359.976 24.1514ZM348.36 16.3754V14.9754C345.738 14.9754 343.608 15.6308 342.099 16.8075C340.571 17.9991 339.76 19.6726 339.76 21.4634H341.16H342.56C342.56 20.5661 342.949 19.6956 343.821 19.0153C344.713 18.3199 346.182 17.7754 348.36 17.7754V16.3754ZM341.16 21.4634H339.76C339.76 22.3564 339.879 23.2849 340.31 24.21C340.742 25.1379 341.439 25.9572 342.435 26.7168C344.37 28.1911 347.611 29.5689 352.85 31.1553L353.256 29.8154L353.662 28.4754C348.438 26.8938 345.631 25.6316 344.133 24.4899C343.413 23.9415 343.048 23.4588 342.848 23.0277C342.646 22.5938 342.56 22.1063 342.56 21.4634H341.16ZM353.256 29.8154L352.852 31.1556C357.988 32.7063 363.142 34.3031 367.041 37.1816C370.828 39.9779 373.456 44.008 373.456 50.6474H374.856H376.256C376.256 43.0788 373.173 38.2288 368.704 34.9291C364.346 31.7116 358.7 29.9964 353.661 28.4751L353.256 29.8154ZM374.856 50.6474H373.456C373.456 56.7162 371.047 61.4691 366.973 64.735C362.866 68.0273 356.961 69.8874 349.896 69.8874V71.2874V72.6874C357.423 72.6874 363.999 70.7075 368.724 66.9197C373.482 63.1056 376.256 57.5385 376.256 50.6474H374.856ZM465.284 16.9514L465.987 18.1626L466.476 16.2169L465.284 16.9514ZM452.036 24.6314L450.822 25.3284L452.739 25.8426L452.036 24.6314ZM452.036 48.0554L452.739 46.8442L450.813 47.3755L452.036 48.0554ZM465.284 55.7354L466.482 56.461L465.987 54.5242L465.284 55.7354ZM436.484 71.2874V69.8874C417.014 69.8874 402.94 55.3589 402.94 36.3434H401.54H400.14C400.14 56.8798 415.443 72.6874 436.484 72.6874V71.2874ZM401.54 36.3434H402.94C402.94 17.3278 417.014 2.79935 436.484 2.79935V1.39935V-0.000648499C415.443 -0.000648499 400.14 15.8069 400.14 36.3434H401.54ZM436.484 1.39935V2.79935C448.211 2.79935 458.502 8.61245 464.092 17.6858L465.284 16.9514L466.476 16.2169C460.355 6.28226 449.142 -0.000648499 436.484 -0.000648499V1.39935ZM465.284 16.9514L464.582 15.7402L451.334 23.4202L452.036 24.6314L452.739 25.8426L465.987 18.1626L465.284 16.9514ZM452.036 24.6314L453.251 23.9343C449.987 18.2498 443.721 14.9754 436.484 14.9754V16.3754V17.7754C442.88 17.7754 448.134 20.6449 450.822 25.3284L452.036 24.6314ZM436.484 16.3754V14.9754C430.211 14.9754 424.934 17.0822 421.226 20.8815C417.522 24.6772 415.5 30.0414 415.5 36.3434H416.9H418.3C418.3 30.6453 420.119 26.0256 423.23 22.8372C426.338 19.6525 430.854 17.7754 436.484 17.7754V16.3754ZM416.9 36.3434H415.5C415.5 42.6453 417.522 48.0096 421.226 51.8052C424.934 55.6045 430.211 57.7114 436.484 57.7114V56.3114V54.9114C430.854 54.9114 426.338 53.0342 423.23 49.8495C420.119 46.6612 418.3 42.0414 418.3 36.3434H416.9ZM436.484 56.3114V57.7114C443.707 57.7114 450.088 54.4459 453.26 48.7353L452.036 48.0554L450.813 47.3755C448.225 52.0328 442.893 54.9114 436.484 54.9114V56.3114ZM452.036 48.0554L451.334 49.2666L464.582 56.9466L465.284 55.7354L465.987 54.5242L452.739 46.8442L452.036 48.0554ZM465.284 55.7354L464.087 55.0097C458.595 64.0713 448.311 69.8874 436.484 69.8874V71.2874V72.6874C449.234 72.6874 460.454 66.4074 466.482 56.461L465.284 55.7354ZM507.907 2.74335V1.34335L506.507 2.74335H507.907ZM523.267 2.74335H524.667L523.267 1.34335V2.74335ZM523.267 69.9434V71.3434L524.667 69.9434H523.267ZM507.907 69.9434H506.507L507.907 71.3434V69.9434ZM507.907 43.2554H509.307L507.907 41.8554V43.2554ZM486.787 43.2554V41.8554L485.387 43.2554H486.787ZM486.787 69.9434V71.3434L488.187 69.9434H486.787ZM471.427 69.9434H470.027L471.427 71.3434V69.9434ZM471.427 2.74335V1.34335L470.027 2.74335H471.427ZM486.787 2.74335H488.187L486.787 1.34335V2.74335ZM486.787 28.4714H485.387L486.787 29.8714V28.4714ZM507.907 28.4714V29.8714L509.307 28.4714H507.907ZM507.907 2.74335V4.14336H523.267V2.74335V1.34335H507.907V2.74335ZM523.267 2.74335H521.867V69.9434H523.267H524.667V2.74335H523.267ZM523.267 69.9434V68.5434H507.907V69.9434V71.3434H523.267V69.9434ZM507.907 69.9434H509.307V43.2554H507.907H506.507V69.9434H507.907ZM507.907 43.2554V41.8554H486.787V43.2554V44.6554H507.907V43.2554ZM486.787 43.2554H485.387V69.9434H486.787H488.187V43.2554H486.787ZM486.787 69.9434V68.5434H471.427V69.9434V71.3434H486.787V69.9434ZM471.427 69.9434H472.827V2.74335H471.427H470.027V69.9434H471.427ZM471.427 2.74335V4.14336H486.787V2.74335V1.34335H471.427V2.74335ZM486.787 2.74335H485.387V28.4714H486.787H488.187V2.74335H486.787ZM486.787 28.4714V29.8714H507.907V28.4714V27.0714H486.787V28.4714ZM507.907 28.4714H509.307V2.74335H507.907H506.507V28.4714H507.907ZM549.106 55.1594H547.706L549.106 56.5594V55.1594ZM575.986 55.1594H577.386L575.986 53.7594V55.1594ZM575.986 69.9434V71.3434L577.386 69.9434H575.986ZM533.746 69.9434H532.346L533.746 71.3434V69.9434ZM533.746 2.74335V1.34335L532.346 2.74335H533.746ZM575.506 2.74335H576.906L575.506 1.34335V2.74335ZM575.506 17.5274V18.9274L576.906 17.5274H575.506ZM549.106 17.5274V16.1274L547.706 17.5274H549.106ZM549.106 28.6634H547.706L549.106 30.0634V28.6634ZM573.106 28.6634H574.506L573.106 27.2634V28.6634ZM573.106 43.2554V44.6554L574.506 43.2554H573.106ZM549.106 43.2554V41.8554L547.706 43.2554H549.106ZM549.106 55.1594V56.5594H575.986V55.1594V53.7594H549.106V55.1594ZM575.986 55.1594H574.586V69.9434H575.986H577.386V55.1594H575.986ZM575.986 69.9434V68.5434H533.746V69.9434V71.3434H575.986V69.9434ZM533.746 69.9434H535.146V2.74335H533.746H532.346V69.9434H533.746ZM533.746 2.74335V4.14336H575.506V2.74335V1.34335H533.746V2.74335ZM575.506 2.74335H574.106V17.5274H575.506H576.906V2.74335H575.506ZM575.506 17.5274V16.1274H549.106V17.5274V18.9274H575.506V17.5274ZM549.106 17.5274H547.706V28.6634H549.106H550.506V17.5274H549.106ZM549.106 28.6634V30.0634H573.106V28.6634V27.2634H549.106V28.6634ZM573.106 28.6634H571.706V43.2554H573.106H574.506V28.6634H573.106ZM573.106 43.2554V41.8554H549.106V43.2554V44.6554H573.106V43.2554ZM549.106 43.2554H547.706V55.1594H549.106H550.506V43.2554H549.106ZM598.956 55.1594H597.556L598.956 56.5594V55.1594ZM625.836 55.1594H627.236L625.836 53.7594V55.1594ZM625.836 69.9434V71.3434L627.236 69.9434H625.836ZM583.596 69.9434H582.196L583.596 71.3434V69.9434ZM583.596 2.74335V1.34335L582.196 2.74335H583.596ZM625.356 2.74335H626.756L625.356 1.34335V2.74335ZM625.356 17.5274V18.9274L626.756 17.5274H625.356ZM598.956 17.5274V16.1274L597.556 17.5274H598.956ZM598.956 28.6634H597.556L598.956 30.0634V28.6634ZM622.956 28.6634H624.356L622.956 27.2634V28.6634ZM622.956 43.2554V44.6554L624.356 43.2554H622.956ZM598.956 43.2554V41.8554L597.556 43.2554H598.956ZM598.956 55.1594V56.5594H625.836V55.1594V53.7594H598.956V55.1594ZM625.836 55.1594H624.436V69.9434H625.836H627.236V55.1594H625.836ZM625.836 69.9434V68.5434H583.596V69.9434V71.3434H625.836V69.9434ZM583.596 69.9434H584.996V2.74335H583.596H582.196V69.9434H583.596ZM583.596 2.74335V4.14336H625.356V2.74335V1.34335H583.596V2.74335ZM625.356 2.74335H623.956V17.5274H625.356H626.756V2.74335H625.356ZM625.356 17.5274V16.1274H598.956V17.5274V18.9274H625.356V17.5274ZM598.956 17.5274H597.556V28.6634H598.956H600.356V17.5274H598.956ZM598.956 28.6634V30.0634H622.956V28.6634V27.2634H598.956V28.6634ZM622.956 28.6634H621.556V43.2554H622.956H624.356V28.6634H622.956ZM622.956 43.2554V41.8554H598.956V43.2554V44.6554H622.956V43.2554ZM598.956 43.2554H597.556V55.1594H598.956H600.356V43.2554H598.956ZM668.774 69.9434L667.56 70.6402L668.774 71.3434V69.9434ZM656.102 47.8634L657.317 47.1665L656.102 46.4634V47.8634ZM648.806 47.8634V46.4634L647.406 47.8634H648.806ZM648.806 69.9434V71.3434L650.206 69.9434H648.806ZM633.446 69.9434H632.046L633.446 71.3434V69.9434ZM633.446 2.74335V1.34335L632.046 2.74335H633.446ZM670.982 45.2714L670.35 44.0224L669.771 45.9736L670.982 45.2714ZM685.286 69.9434V71.3434L686.498 69.2412L685.286 69.9434ZM648.806 17.1434V15.7434L647.406 17.1434H648.806ZM648.806 34.4234H647.406L648.806 35.8234V34.4234ZM668.774 69.9434L669.989 69.2465L657.317 47.1665L656.102 47.8634L654.888 48.5602L667.56 70.6402L668.774 69.9434ZM656.102 47.8634V46.4634H648.806V47.8634V49.2634H656.102V47.8634ZM648.806 47.8634H647.406V69.9434H648.806H650.206V47.8634H648.806ZM648.806 69.9434V68.5434H633.446V69.9434V71.3434H648.806V69.9434ZM633.446 69.9434H634.846V2.74335H633.446H632.046V69.9434H633.446ZM633.446 2.74335V4.14336H660.326V2.74335V1.34335H633.446V2.74335ZM660.326 2.74335V4.14336C672.321 4.14336 681.966 13.7886 681.966 25.7834H683.366H684.766C684.766 12.2422 673.868 1.34335 660.326 1.34335V2.74335ZM683.366 25.7834H681.966C681.966 33.4659 677.313 40.4954 670.35 44.0224L670.982 45.2714L671.615 46.5203C679.435 42.5593 684.766 34.6128 684.766 25.7834H683.366ZM670.982 45.2714L669.771 45.9736L684.075 70.6456L685.286 69.9434L686.498 69.2412L672.194 44.5692L670.982 45.2714ZM685.286 69.9434V68.5434H668.774V69.9434V71.3434H685.286V69.9434ZM648.806 17.1434H647.406V34.4234H648.806H650.206V17.1434H648.806ZM648.806 34.4234V35.8234H660.326V34.4234V33.0234H648.806V34.4234ZM660.326 34.4234V35.8234C665.46 35.8234 669.406 31.309 669.406 25.7834H668.006H666.606C666.606 30.0497 663.641 33.0234 660.326 33.0234V34.4234ZM668.006 25.7834H669.406C669.406 20.2577 665.46 15.7434 660.326 15.7434V17.1434V18.5434C663.641 18.5434 666.606 21.517 666.606 25.7834H668.006ZM660.326 17.1434V15.7434H648.806V17.1434V18.5434H660.326V17.1434ZM706.813 55.1594H705.413L706.813 56.5594V55.1594ZM730.813 55.1594H732.213L730.813 53.7594V55.1594ZM730.813 69.9434V71.3434L732.213 69.9434H730.813ZM691.453 69.9434H690.053L691.453 71.3434V69.9434ZM691.453 2.74335V1.34335L690.053 2.74335H691.453ZM706.813 2.74335H708.213L706.813 1.34335V2.74335ZM706.813 55.1594V56.5594H730.813V55.1594V53.7594H706.813V55.1594ZM730.813 55.1594H729.413V69.9434H730.813H732.213V55.1594H730.813ZM730.813 69.9434V68.5434H691.453V69.9434V71.3434H730.813V69.9434ZM691.453 69.9434H692.853V2.74335H691.453H690.053V69.9434H691.453ZM691.453 2.74335V4.14336H706.813V2.74335V1.34335H691.453V2.74335ZM706.813 2.74335H705.413V55.1594H706.813H708.213V2.74335H706.813ZM751.882 55.1594H750.482L751.882 56.5594V55.1594ZM778.762 55.1594H780.162L778.762 53.7594V55.1594ZM778.762 69.9434V71.3434L780.162 69.9434H778.762ZM736.522 69.9434H735.122L736.522 71.3434V69.9434ZM736.522 2.74335V1.34335L735.122 2.74335H736.522ZM778.282 2.74335H779.682L778.282 1.34335V2.74335ZM778.282 17.5274V18.9274L779.682 17.5274H778.282ZM751.882 17.5274V16.1274L750.482 17.5274H751.882ZM751.882 28.6634H750.482L751.882 30.0634V28.6634ZM775.882 28.6634H777.282L775.882 27.2634V28.6634ZM775.882 43.2554V44.6554L777.282 43.2554H775.882ZM751.882 43.2554V41.8554L750.482 43.2554H751.882ZM751.882 55.1594V56.5594H778.762V55.1594V53.7594H751.882V55.1594ZM778.762 55.1594H777.362V69.9434H778.762H780.162V55.1594H778.762ZM778.762 69.9434V68.5434H736.522V69.9434V71.3434H778.762V69.9434ZM736.522 69.9434H737.922V2.74335H736.522H735.122V69.9434H736.522ZM736.522 2.74335V4.14336H778.282V2.74335V1.34335H736.522V2.74335ZM778.282 2.74335H776.882V17.5274H778.282H779.682V2.74335H778.282ZM778.282 17.5274V16.1274H751.882V17.5274V18.9274H778.282V17.5274ZM751.882 17.5274H750.482V28.6634H751.882H753.282V17.5274H751.882ZM751.882 28.6634V30.0634H775.882V28.6634V27.2634H751.882V28.6634ZM775.882 28.6634H774.482V43.2554H775.882H777.282V28.6634H775.882ZM775.882 43.2554V41.8554H751.882V43.2554V44.6554H775.882V43.2554ZM751.882 43.2554H750.482V55.1594H751.882H753.282V43.2554H751.882ZM830.03 69.9434L828.696 70.3678L830.03 71.3434V69.9434ZM826.67 59.3834L828.004 58.9589L826.67 57.9834V59.3834ZM801.71 59.3834V57.9834L800.376 58.9589L801.71 59.3834ZM798.35 69.9434V71.3434L799.684 70.3678L798.35 69.9434ZM781.55 69.9434L780.224 69.4927L781.55 71.3434V69.9434ZM804.398 2.74335V1.34335L803.072 2.29269L804.398 2.74335ZM823.982 2.74335L825.307 2.29269L823.982 1.34335V2.74335ZM846.83 69.9434V71.3434L848.155 69.4927L846.83 69.9434ZM806.318 44.9834L804.984 44.5578L806.318 46.3834V44.9834ZM822.062 44.9834V46.3834L823.395 44.5578L822.062 44.9834ZM814.19 20.3114L815.523 19.8858H812.856L814.19 20.3114ZM830.03 69.9434L831.364 69.5189L828.004 58.9589L826.67 59.3834L825.336 59.8078L828.696 70.3678L830.03 69.9434ZM826.67 59.3834V57.9834H801.71V59.3834V60.7834H826.67V59.3834ZM801.71 59.3834L800.376 58.9589L797.016 69.5189L798.35 69.9434L799.684 70.3678L803.044 59.8078L801.71 59.3834ZM798.35 69.9434V68.5434H781.55V69.9434V71.3434H798.35V69.9434ZM781.55 69.9434L782.875 70.394L805.723 3.19402L804.398 2.74335L803.072 2.29269L780.224 69.4927L781.55 69.9434ZM804.398 2.74335V4.14336H823.982V2.74335V1.34335H804.398V2.74335ZM823.982 2.74335L822.656 3.19402L845.504 70.394L846.83 69.9434L848.155 69.4927L825.307 2.29269L823.982 2.74335ZM846.83 69.9434V68.5434H830.03V69.9434V71.3434H846.83V69.9434ZM806.318 44.9834V46.3834H822.062V44.9834V43.5834H806.318V44.9834ZM822.062 44.9834L823.395 44.5578L815.523 19.8858L814.19 20.3114L812.856 20.7369L820.728 45.4089L822.062 44.9834ZM814.19 20.3114L812.856 19.8858L804.984 44.5578L806.318 44.9834L807.651 45.4089L815.523 20.7369L814.19 20.3114ZM851.504 69.9434H850.104L851.504 71.3434V69.9434ZM851.504 2.74335V1.34335L850.104 2.74335H851.504ZM866.864 17.5274V16.1274L865.464 17.5274H866.864ZM866.864 55.1594H865.464L866.864 56.5594V55.1594ZM878.384 2.74335V4.14336C896.099 4.14336 909.624 18.0682 909.624 36.3434H911.024H912.424C912.424 16.6025 897.725 1.34335 878.384 1.34335V2.74335ZM911.024 36.3434H909.624C909.624 54.6185 896.099 68.5434 878.384 68.5434V69.9434V71.3434C897.725 71.3434 912.424 56.0842 912.424 36.3434H911.024ZM878.384 69.9434V68.5434H851.504V69.9434V71.3434H878.384V69.9434ZM851.504 69.9434H852.904V2.74335H851.504H850.104V69.9434H851.504ZM851.504 2.74335V4.14336H878.384V2.74335V1.34335H851.504V2.74335ZM878.384 55.1594V56.5594C883.996 56.5594 888.841 54.6132 892.28 51.0426C895.716 47.4755 897.64 42.4023 897.64 36.3434H896.24H894.84C894.84 41.8044 893.115 46.1393 890.263 49.1001C887.415 52.0575 883.331 53.7594 878.384 53.7594V55.1594ZM896.24 36.3434H897.64C897.64 30.2844 895.716 25.2113 892.28 21.6441C888.841 18.0735 883.996 16.1274 878.384 16.1274V17.5274V18.9274C883.331 18.9274 887.415 20.6292 890.263 23.5866C893.115 26.5475 894.84 30.8823 894.84 36.3434H896.24ZM878.384 17.5274V16.1274H866.864V17.5274V18.9274H878.384V17.5274ZM866.864 17.5274H865.464V55.1594H866.864H868.264V17.5274H866.864ZM866.864 55.1594V56.5594H878.384V55.1594V53.7594H866.864V55.1594ZM918.604 2.74335V1.34335L917.204 2.74335H918.604ZM933.964 2.74335H935.364L933.964 1.34335V2.74335ZM933.964 69.9434V71.3434L935.364 69.9434H933.964ZM918.604 69.9434H917.204L918.604 71.3434V69.9434ZM918.604 2.74335V4.14336H933.964V2.74335V1.34335H918.604V2.74335ZM933.964 2.74335H932.564V69.9434H933.964H935.364V2.74335H933.964ZM933.964 69.9434V68.5434H918.604V69.9434V71.3434H933.964V69.9434ZM918.604 69.9434H920.004V2.74335H918.604H917.204V69.9434H918.604ZM981.894 2.74335V1.34335L980.494 2.74335H981.894ZM997.254 2.74335H998.654L997.254 1.34335V2.74335ZM997.254 69.9434V71.3434L998.654 69.9434H997.254ZM985.734 69.9434L984.593 70.7542L985.734 71.3434V69.9434ZM959.814 33.4634L960.955 32.6525L958.414 33.4634H959.814ZM959.814 69.9434V71.3434L961.214 69.9434H959.814ZM944.454 69.9434H943.054L944.454 71.3434V69.9434ZM944.454 2.74335V1.34335L943.054 2.74335H944.454ZM955.974 2.74335L957.115 1.93246L955.974 1.34335V2.74335ZM981.894 39.2234L980.753 40.0342L983.294 39.2234H981.894ZM981.894 2.74335V4.14336H997.254V2.74335V1.34335H981.894V2.74335ZM997.254 2.74335H995.854V69.9434H997.254H998.654V2.74335H997.254ZM997.254 69.9434V68.5434H985.734V69.9434V71.3434H997.254V69.9434ZM985.734 69.9434L986.875 69.1325L960.955 32.6525L959.814 33.4634L958.673 34.2742L984.593 70.7542L985.734 69.9434ZM959.814 33.4634H958.414V69.9434H959.814H961.214V33.4634H959.814ZM959.814 69.9434V68.5434H944.454V69.9434V71.3434H959.814V69.9434ZM944.454 69.9434H945.854V2.74335H944.454H943.054V69.9434H944.454ZM944.454 2.74335V4.14336H955.974V2.74335V1.34335H944.454V2.74335ZM955.974 2.74335L954.833 3.55424L980.753 40.0342L981.894 39.2234L983.035 38.4125L957.115 1.93246L955.974 2.74335ZM981.894 39.2234H983.294V2.74335H981.894H980.494V39.2234H981.894ZM1074.24 32.5034H1075.64L1074.24 31.1034V32.5034ZM1069.44 16.7594L1070.14 17.9738L1070.62 16.0151L1069.44 16.7594ZM1056.38 24.2474L1055.2 24.994L1057.08 25.4618L1056.38 24.2474ZM1058.49 45.9434L1059.81 46.4328L1058.49 44.5434V45.9434ZM1040.54 45.9434H1039.14L1040.54 47.3434V45.9434ZM1040.54 32.5034V31.1034L1039.14 32.5034H1040.54ZM1074.24 32.5034H1072.84V38.2634H1074.24H1075.64V32.5034H1074.24ZM1074.24 38.2634H1072.84C1072.84 48.1958 1069.39 56.0728 1063.77 61.4692C1058.13 66.8739 1050.22 69.8874 1041.12 69.8874V71.2874V72.6874C1050.84 72.6874 1059.48 69.4608 1065.7 63.4895C1071.94 57.5099 1075.64 48.8749 1075.64 38.2634H1074.24ZM1041.12 71.2874V69.8874C1020.74 69.8874 1006.23 54.9349 1006.23 36.4394H1004.83H1003.43C1003.43 56.5358 1019.25 72.6874 1041.12 72.6874V71.2874ZM1004.83 36.4394H1006.23C1006.23 17.7271 1021.06 2.79935 1040.06 2.79935V1.39935V-0.000648499C1019.52 -0.000648499 1003.43 16.1757 1003.43 36.4394H1004.83ZM1040.06 1.39935V2.79935C1052.47 2.79935 1062.86 8.90644 1068.25 17.5036L1069.44 16.7594L1070.62 16.0151C1064.69 6.56428 1053.39 -0.000648499 1040.06 -0.000648499V1.39935ZM1069.44 16.7594L1068.74 15.5449L1055.69 23.0329L1056.38 24.2474L1057.08 25.4618L1070.14 17.9738L1069.44 16.7594ZM1056.38 24.2474L1057.57 23.5007C1054.49 18.6134 1047.95 14.9754 1039.97 14.9754V16.3754V17.7754C1047.15 17.7754 1052.71 21.0493 1055.2 24.994L1056.38 24.2474ZM1039.97 16.3754V14.9754C1027.85 14.9754 1018.79 23.9676 1018.79 36.5354H1020.19H1021.59C1021.59 25.4871 1029.43 17.7754 1039.97 17.7754V16.3754ZM1020.19 36.5354H1018.79C1018.79 42.5863 1020.93 47.9082 1024.88 51.7154C1028.83 55.521 1034.48 57.7114 1041.31 57.7114V56.3114V54.9114C1035.09 54.9114 1030.17 52.9258 1026.83 49.6993C1023.48 46.4746 1021.59 41.9084 1021.59 36.5354H1020.19ZM1041.31 56.3114V57.7114C1050.7 57.7114 1057.16 53.5173 1059.81 46.4328L1058.49 45.9434L1057.18 45.4539C1055.03 51.2334 1049.77 54.9114 1041.31 54.9114V56.3114ZM1058.49 45.9434V44.5434H1040.54V45.9434V47.3434H1058.49V45.9434ZM1040.54 45.9434H1041.94V32.5034H1040.54H1039.14V45.9434H1040.54ZM1040.54 32.5034V33.9034H1074.24V32.5034V31.1034H1040.54V32.5034ZM1149.91 2.74335H1151.31L1149.91 1.34335V2.74335ZM1149.91 17.5274V18.9274L1151.31 17.5274H1149.91ZM1132.63 17.5274V16.1274L1131.23 17.5274H1132.63ZM1132.63 69.9434V71.3434L1134.03 69.9434H1132.63ZM1117.27 69.9434H1115.87L1117.27 71.3434V69.9434ZM1117.27 17.5274H1118.67L1117.27 16.1274V17.5274ZM1099.99 17.5274H1098.59L1099.99 18.9274V17.5274ZM1099.99 2.74335V1.34335L1098.59 2.74335H1099.99ZM1149.91 2.74335H1148.51V17.5274H1149.91H1151.31V2.74335H1149.91ZM1149.91 17.5274V16.1274H1132.63V17.5274V18.9274H1149.91V17.5274ZM1132.63 17.5274H1131.23V69.9434H1132.63H1134.03V17.5274H1132.63ZM1132.63 69.9434V68.5434H1117.27V69.9434V71.3434H1132.63V69.9434ZM1117.27 69.9434H1118.67V17.5274H1117.27H1115.87V69.9434H1117.27ZM1117.27 17.5274V16.1274H1099.99V17.5274V18.9274H1117.27V17.5274ZM1099.99 17.5274H1101.39V2.74335H1099.99H1098.59V17.5274H1099.99ZM1099.99 2.74335V4.14336H1149.91V2.74335V1.34335H1099.99V2.74335ZM1170.93 55.1594H1169.53L1170.93 56.5594V55.1594ZM1197.81 55.1594H1199.21L1197.81 53.7594V55.1594ZM1197.81 69.9434V71.3434L1199.21 69.9434H1197.81ZM1155.57 69.9434H1154.17L1155.57 71.3434V69.9434ZM1155.57 2.74335V1.34335L1154.17 2.74335H1155.57ZM1197.33 2.74335H1198.73L1197.33 1.34335V2.74335ZM1197.33 17.5274V18.9274L1198.73 17.5274H1197.33ZM1170.93 17.5274V16.1274L1169.53 17.5274H1170.93ZM1170.93 28.6634H1169.53L1170.93 30.0634V28.6634ZM1194.93 28.6634H1196.33L1194.93 27.2634V28.6634ZM1194.93 43.2554V44.6554L1196.33 43.2554H1194.93ZM1170.93 43.2554V41.8554L1169.53 43.2554H1170.93ZM1170.93 55.1594V56.5594H1197.81V55.1594V53.7594H1170.93V55.1594ZM1197.81 55.1594H1196.41V69.9434H1197.81H1199.21V55.1594H1197.81ZM1197.81 69.9434V68.5434H1155.57V69.9434V71.3434H1197.81V69.9434ZM1155.57 69.9434H1156.97V2.74335H1155.57H1154.17V69.9434H1155.57ZM1155.57 2.74335V4.14336H1197.33V2.74335V1.34335H1155.57V2.74335ZM1197.33 2.74335H1195.93V17.5274H1197.33H1198.73V2.74335H1197.33ZM1197.33 17.5274V16.1274H1170.93V17.5274V18.9274H1197.33V17.5274ZM1170.93 17.5274H1169.53V28.6634H1170.93H1172.33V17.5274H1170.93ZM1170.93 28.6634V30.0634H1194.93V28.6634V27.2634H1170.93V28.6634ZM1194.93 28.6634H1193.53V43.2554H1194.93H1196.33V28.6634H1194.93ZM1194.93 43.2554V41.8554H1170.93V43.2554V44.6554H1194.93V43.2554ZM1170.93 43.2554H1169.53V55.1594H1170.93H1172.33V43.2554H1170.93ZM1249.08 69.9434L1247.75 70.3678L1249.08 71.3434V69.9434ZM1245.72 59.3834L1247.06 58.9589L1245.72 57.9834V59.3834ZM1220.76 59.3834V57.9834L1219.43 58.9589L1220.76 59.3834ZM1217.4 69.9434V71.3434L1218.74 70.3678L1217.4 69.9434ZM1200.6 69.9434L1199.28 69.4927L1200.6 71.3434V69.9434ZM1223.45 2.74335V1.34335L1222.12 2.29269L1223.45 2.74335ZM1243.03 2.74335L1244.36 2.29269L1243.03 1.34335V2.74335ZM1265.88 69.9434V71.3434L1267.21 69.4927L1265.88 69.9434ZM1225.37 44.9834L1224.04 44.5578L1225.37 46.3834V44.9834ZM1241.11 44.9834V46.3834L1242.45 44.5578L1241.11 44.9834ZM1233.24 20.3114L1234.58 19.8858H1231.91L1233.24 20.3114ZM1249.08 69.9434L1250.42 69.5189L1247.06 58.9589L1245.72 59.3834L1244.39 59.8078L1247.75 70.3678L1249.08 69.9434ZM1245.72 59.3834V57.9834H1220.76V59.3834V60.7834H1245.72V59.3834ZM1220.76 59.3834L1219.43 58.9589L1216.07 69.5189L1217.4 69.9434L1218.74 70.3678L1222.1 59.8078L1220.76 59.3834ZM1217.4 69.9434V68.5434H1200.6V69.9434V71.3434H1217.4V69.9434ZM1200.6 69.9434L1201.93 70.394L1224.78 3.19402L1223.45 2.74335L1222.12 2.29269L1199.28 69.4927L1200.6 69.9434ZM1223.45 2.74335V4.14336H1243.03V2.74335V1.34335H1223.45V2.74335ZM1243.03 2.74335L1241.71 3.19402L1264.56 70.394L1265.88 69.9434L1267.21 69.4927L1244.36 2.29269L1243.03 2.74335ZM1265.88 69.9434V68.5434H1249.08V69.9434V71.3434H1265.88V69.9434ZM1225.37 44.9834V46.3834H1241.11V44.9834V43.5834H1225.37V44.9834ZM1241.11 44.9834L1242.45 44.5578L1234.58 19.8858L1233.24 20.3114L1231.91 20.7369L1239.78 45.4089L1241.11 44.9834ZM1233.24 20.3114L1231.91 19.8858L1224.04 44.5578L1225.37 44.9834L1226.7 45.4089L1234.58 20.7369L1233.24 20.3114ZM1337.76 2.74335H1339.16L1337.76 1.34335V2.74335ZM1337.76 69.9434V71.3434L1339.16 69.9434H1337.76ZM1322.4 69.9434H1321L1322.4 71.3434V69.9434ZM1322.4 30.8714H1323.8L1321.2 30.1428L1322.4 30.8714ZM1305.02 59.3834V60.7834L1306.22 60.1119L1305.02 59.3834ZM1303.29 59.3834L1302.1 60.1119L1303.29 60.7834V59.3834ZM1285.92 30.8714L1287.11 30.1428L1284.52 30.8714H1285.92ZM1285.92 69.9434V71.3434L1287.32 69.9434H1285.92ZM1270.56 69.9434H1269.16L1270.56 71.3434V69.9434ZM1270.56 2.74335V1.34335L1269.16 2.74335H1270.56ZM1285.92 2.74335L1287.11 2.01348L1285.92 1.34335V2.74335ZM1304.16 32.5994L1302.96 33.3292H1305.35L1304.16 32.5994ZM1322.4 2.74335V1.34335L1321.2 2.01348L1322.4 2.74335ZM1337.76 2.74335H1336.36V69.9434H1337.76H1339.16V2.74335H1337.76ZM1337.76 69.9434V68.5434H1322.4V69.9434V71.3434H1337.76V69.9434ZM1322.4 69.9434H1323.8V30.8714H1322.4H1321V69.9434H1322.4ZM1322.4 30.8714L1321.2 30.1428L1303.82 58.6548L1305.02 59.3834L1306.22 60.1119L1323.59 31.5999L1322.4 30.8714ZM1305.02 59.3834V57.9834H1303.29V59.3834V60.7834H1305.02V59.3834ZM1303.29 59.3834L1304.49 58.6548L1287.11 30.1428L1285.92 30.8714L1284.72 31.5999L1302.1 60.1119L1303.29 59.3834ZM1285.92 30.8714H1284.52V69.9434H1285.92H1287.32V30.8714H1285.92ZM1285.92 69.9434V68.5434H1270.56V69.9434V71.3434H1285.92V69.9434ZM1270.56 69.9434H1271.96V2.74335H1270.56H1269.16V69.9434H1270.56ZM1270.56 2.74335V4.14336H1285.92V2.74335V1.34335H1270.56V2.74335ZM1285.92 2.74335L1284.72 3.47323L1302.96 33.3292L1304.16 32.5994L1305.35 31.8695L1287.11 2.01348L1285.92 2.74335ZM1304.16 32.5994L1305.35 33.3292L1323.59 3.47323L1322.4 2.74335L1321.2 2.01348L1302.96 31.8695L1304.16 32.5994ZM1322.4 2.74335V4.14336H1337.76V2.74335V1.34335H1322.4V2.74335Z" fill="white" mask="url(#path-1-outside-1_1512_1021)"/>
</svg>
