<svg width="2454" height="133" viewBox="0 0 2454 133" fill="none" xmlns="http://www.w3.org/2000/svg">
<mask id="path-1-outside-1_1503_1017" maskUnits="userSpaceOnUse" x="-0.55957" y="-0.335938" width="2455" height="133" fill="black">
<rect fill="white" x="-0.55957" y="-0.335938" width="2455" height="133"/>
<path d="M70.6404 4.46405H98.8004V127.664H77.6804L30.1604 60.7841V127.664H2.00043V4.46405H23.1204L70.6404 71.3441V4.46405ZM146.131 100.56H195.411V127.664H117.971V4.46405H194.531V31.5681H146.131V51.9841H190.131V78.7361H146.131V100.56ZM237.523 100.56H286.803V127.664H209.363V4.46405H285.923V31.5681H237.523V51.9841H281.523V78.7361H237.523V100.56ZM350.035 4.46405C384.003 4.46405 409.875 31.2161 409.875 66.0641C409.875 100.912 384.003 127.664 350.035 127.664H300.755V4.46405H350.035ZM350.035 100.56C369.395 100.56 382.771 87.1841 382.771 66.0641C382.771 44.9441 369.395 31.5681 350.035 31.5681H328.915V100.56H350.035ZM451.932 100.56H495.932V127.664H423.772V4.46405H451.932V100.56ZM534.559 100.56H583.839V127.664H506.399V4.46405H582.959V31.5681H534.559V51.9841H578.559V78.7361H534.559V100.56ZM640.911 130.128C615.039 130.128 598.495 117.808 591.631 99.6801L615.919 85.6001C620.319 95.8081 627.887 102.672 641.791 102.672C655.167 102.672 658.511 97.3921 658.511 92.6401C658.511 85.0721 651.471 82.0801 632.991 76.9761C614.687 71.8721 596.735 63.0721 596.735 39.4881C596.735 15.7281 616.799 2.00005 638.095 2.00005C658.335 2.00005 674.175 11.6801 683.151 29.8081L659.391 43.7121C655.167 34.9121 649.359 29.4561 638.095 29.4561C629.295 29.4561 624.895 33.8561 624.895 38.7841C624.895 44.4161 627.887 48.2881 647.071 54.0961C665.727 59.7281 686.671 66.2401 686.671 92.2881C686.671 116.048 667.663 130.128 640.911 130.128ZM799.656 130.128C762.52 130.128 735.592 102.32 735.592 66.0641C735.592 29.8081 762.52 2.00005 799.656 2.00005C822.008 2.00005 841.72 13.0881 852.456 30.5121L828.168 44.5921C822.712 35.0881 812.152 29.4561 799.656 29.4561C777.832 29.4561 763.752 44.0641 763.752 66.0641C763.752 88.0641 777.832 102.672 799.656 102.672C812.152 102.672 822.888 97.0401 828.168 87.5361L852.456 101.616C841.896 119.04 822.184 130.128 799.656 130.128ZM930.597 4.46405H958.757V127.664H930.597V78.7361H891.877V127.664H863.717V4.46405H891.877V51.6321H930.597V4.46405ZM1006.13 100.56H1055.41V127.664H977.969V4.46405H1054.53V31.5681H1006.13V51.9841H1050.13V78.7361H1006.13V100.56ZM1097.52 100.56H1146.8V127.664H1069.36V4.46405H1145.92V31.5681H1097.52V51.9841H1141.52V78.7361H1097.52V100.56ZM1225.52 127.664L1202.29 87.1841H1188.91V127.664H1160.75V4.46405H1210.03C1233.44 4.46405 1252.27 23.2961 1252.27 46.7041C1252.27 61.8401 1243.12 75.5681 1229.57 82.4321L1255.79 127.664H1225.52ZM1188.91 30.8641V62.5441H1210.03C1217.78 62.5441 1224.11 55.6801 1224.11 46.7041C1224.11 37.7281 1217.78 30.8641 1210.03 30.8641H1188.91ZM1295.26 100.56H1339.26V127.664H1267.1V4.46405H1295.26V100.56ZM1377.88 100.56H1427.16V127.664H1349.72V4.46405H1426.28V31.5681H1377.88V51.9841H1421.88V78.7361H1377.88V100.56ZM1521.16 127.664L1515 108.304H1469.24L1463.08 127.664H1432.28L1474.16 4.46405H1510.07L1551.96 127.664H1521.16ZM1477.68 81.9041H1506.55L1492.12 36.6721L1477.68 81.9041ZM1609.8 4.46405C1643.77 4.46405 1669.64 31.2161 1669.64 66.0641C1669.64 100.912 1643.77 127.664 1609.8 127.664H1560.52V4.46405H1609.8ZM1609.8 100.56C1629.16 100.56 1642.54 87.1841 1642.54 66.0641C1642.54 44.9441 1629.16 31.5681 1609.8 31.5681H1588.68V100.56H1609.8ZM1683.54 4.46405H1711.7V127.664H1683.54V4.46405ZM1799.57 4.46405H1827.73V127.664H1806.61L1759.09 60.7841V127.664H1730.93V4.46405H1752.05L1799.57 71.3441V4.46405ZM1968.87 59.0241V69.5841C1968.87 107.248 1942.65 130.128 1908.15 130.128C1869.43 130.128 1841.62 101.616 1841.62 66.2401C1841.62 30.5121 1869.96 2.00005 1906.22 2.00005C1929.8 2.00005 1949.69 13.6161 1960.07 30.1601L1936.14 43.8881C1931.03 35.7921 1919.94 29.4561 1906.04 29.4561C1885.27 29.4561 1869.78 44.7681 1869.78 66.4161C1869.78 87.3601 1884.57 102.672 1908.5 102.672C1924.87 102.672 1935.61 95.4561 1940.01 83.6641H1907.1V59.0241H1968.87ZM2107.6 4.46405V31.5681H2075.92V127.664H2047.76V31.5681H2016.08V4.46405H2107.6ZM2146.15 100.56H2195.43V127.664H2117.99V4.46405H2194.55V31.5681H2146.15V51.9841H2190.15V78.7361H2146.15V100.56ZM2289.42 127.664L2283.26 108.304H2237.5L2231.34 127.664H2200.54L2242.43 4.46405H2278.33L2320.22 127.664H2289.42ZM2245.95 81.9041H2274.81L2260.38 36.6721L2245.95 81.9041ZM2451.99 4.46405V127.664H2423.83V56.0321L2391.97 108.304H2388.8L2356.95 56.0321V127.664H2328.79V4.46405H2356.95L2390.39 59.2001L2423.83 4.46405H2451.99Z"/>
</mask>
<path d="M70.6404 4.46405V2.46405L68.6404 4.46405H70.6404ZM98.8004 4.46405H100.8L98.8004 2.46405V4.46405ZM98.8004 127.664V129.664L100.8 127.664H98.8004ZM77.6804 127.664L76.0501 128.822L77.6804 129.664V127.664ZM30.1604 60.7841L31.7908 59.6256L28.1604 60.7841H30.1604ZM30.1604 127.664V129.664L32.1604 127.664H30.1604ZM2.00043 127.664H0.000430107L2.00043 129.664V127.664ZM2.00043 4.46405V2.46405L0.000430107 4.46405H2.00043ZM23.1204 4.46405L24.7508 3.30564L23.1204 2.46405V4.46405ZM70.6404 71.3441L69.0101 72.5025L72.6404 71.3441H70.6404ZM70.6404 4.46405V6.46405H98.8004V4.46405V2.46405H70.6404V4.46405ZM98.8004 4.46405H96.8004V127.664H98.8004H100.8V4.46405H98.8004ZM98.8004 127.664V125.664H77.6804V127.664V129.664H98.8004V127.664ZM77.6804 127.664L79.3108 126.506L31.7908 59.6256L30.1604 60.7841L28.5301 61.9425L76.0501 128.822L77.6804 127.664ZM30.1604 60.7841H28.1604V127.664H30.1604H32.1604V60.7841H30.1604ZM30.1604 127.664V125.664H2.00043V127.664V129.664H30.1604V127.664ZM2.00043 127.664H4.00043V4.46405H2.00043H0.000430107V127.664H2.00043ZM2.00043 4.46405V6.46405H23.1204V4.46405V2.46405H2.00043V4.46405ZM23.1204 4.46405L21.4901 5.62247L69.0101 72.5025L70.6404 71.3441L72.2708 70.1856L24.7508 3.30564L23.1204 4.46405ZM70.6404 71.3441H72.6404V4.46405H70.6404H68.6404V71.3441H70.6404ZM146.131 100.56H144.131L146.131 102.56V100.56ZM195.411 100.56H197.411L195.411 98.5601V100.56ZM195.411 127.664V129.664L197.411 127.664H195.411ZM117.971 127.664H115.971L117.971 129.664V127.664ZM117.971 4.46405V2.46405L115.971 4.46405H117.971ZM194.531 4.46405H196.531L194.531 2.46405V4.46405ZM194.531 31.5681V33.5681L196.531 31.5681H194.531ZM146.131 31.5681V29.5681L144.131 31.5681H146.131ZM146.131 51.9841H144.131L146.131 53.9841V51.9841ZM190.131 51.9841H192.131L190.131 49.9841V51.9841ZM190.131 78.7361V80.7361L192.131 78.7361H190.131ZM146.131 78.7361V76.7361L144.131 78.7361H146.131ZM146.131 100.56V102.56H195.411V100.56V98.5601H146.131V100.56ZM195.411 100.56H193.411V127.664H195.411H197.411V100.56H195.411ZM195.411 127.664V125.664H117.971V127.664V129.664H195.411V127.664ZM117.971 127.664H119.971V4.46405H117.971H115.971V127.664H117.971ZM117.971 4.46405V6.46405H194.531V4.46405V2.46405H117.971V4.46405ZM194.531 4.46405H192.531V31.5681H194.531H196.531V4.46405H194.531ZM194.531 31.5681V29.5681H146.131V31.5681V33.5681H194.531V31.5681ZM146.131 31.5681H144.131V51.9841H146.131H148.131V31.5681H146.131ZM146.131 51.9841V53.9841H190.131V51.9841V49.9841H146.131V51.9841ZM190.131 51.9841H188.131V78.7361H190.131H192.131V51.9841H190.131ZM190.131 78.7361V76.7361H146.131V78.7361V80.7361H190.131V78.7361ZM146.131 78.7361H144.131V100.56H146.131H148.131V78.7361H146.131ZM237.523 100.56H235.523L237.523 102.56V100.56ZM286.803 100.56H288.803L286.803 98.5601V100.56ZM286.803 127.664V129.664L288.803 127.664H286.803ZM209.363 127.664H207.363L209.363 129.664V127.664ZM209.363 4.46405V2.46405L207.363 4.46405H209.363ZM285.923 4.46405H287.923L285.923 2.46405V4.46405ZM285.923 31.5681V33.5681L287.923 31.5681H285.923ZM237.523 31.5681V29.5681L235.523 31.5681H237.523ZM237.523 51.9841H235.523L237.523 53.9841V51.9841ZM281.523 51.9841H283.523L281.523 49.9841V51.9841ZM281.523 78.7361V80.7361L283.523 78.7361H281.523ZM237.523 78.7361V76.7361L235.523 78.7361H237.523ZM237.523 100.56V102.56H286.803V100.56V98.5601H237.523V100.56ZM286.803 100.56H284.803V127.664H286.803H288.803V100.56H286.803ZM286.803 127.664V125.664H209.363V127.664V129.664H286.803V127.664ZM209.363 127.664H211.363V4.46405H209.363H207.363V127.664H209.363ZM209.363 4.46405V6.46405H285.923V4.46405V2.46405H209.363V4.46405ZM285.923 4.46405H283.923V31.5681H285.923H287.923V4.46405H285.923ZM285.923 31.5681V29.5681H237.523V31.5681V33.5681H285.923V31.5681ZM237.523 31.5681H235.523V51.9841H237.523H239.523V31.5681H237.523ZM237.523 51.9841V53.9841H281.523V51.9841V49.9841H237.523V51.9841ZM281.523 51.9841H279.523V78.7361H281.523H283.523V51.9841H281.523ZM281.523 78.7361V76.7361H237.523V78.7361V80.7361H281.523V78.7361ZM237.523 78.7361H235.523V100.56H237.523H239.523V78.7361H237.523ZM300.755 127.664H298.755L300.755 129.664V127.664ZM300.755 4.46405V2.46405L298.755 4.46405H300.755ZM328.915 31.5681V29.5681L326.915 31.5681H328.915ZM328.915 100.56H326.915L328.915 102.56V100.56ZM350.035 4.46405V6.46405C382.842 6.46405 407.875 32.263 407.875 66.0641H409.875H411.875C411.875 30.1691 385.164 2.46405 350.035 2.46405V4.46405ZM409.875 66.0641H407.875C407.875 99.8651 382.842 125.664 350.035 125.664V127.664V129.664C385.164 129.664 411.875 101.959 411.875 66.0641H409.875ZM350.035 127.664V125.664H300.755V127.664V129.664H350.035V127.664ZM300.755 127.664H302.755V4.46405H300.755H298.755V127.664H300.755ZM300.755 4.46405V6.46405H350.035V4.46405V2.46405H300.755V4.46405ZM350.035 100.56V102.56C360.19 102.56 368.917 99.0416 375.103 92.6196C381.284 86.2025 384.771 77.0512 384.771 66.0641H382.771H380.771C380.771 76.1969 377.569 84.2936 372.222 89.8446C366.88 95.3905 359.24 98.5601 350.035 98.5601V100.56ZM382.771 66.0641H384.771C384.771 55.0769 381.284 45.9256 375.103 39.5086C368.917 33.0865 360.19 29.5681 350.035 29.5681V31.5681V33.5681C359.24 33.5681 366.88 36.7376 372.222 42.2835C377.569 47.8345 380.771 55.9312 380.771 66.0641H382.771ZM350.035 31.5681V29.5681H328.915V31.5681V33.5681H350.035V31.5681ZM328.915 31.5681H326.915V100.56H328.915H330.915V31.5681H328.915ZM328.915 100.56V102.56H350.035V100.56V98.5601H328.915V100.56ZM451.932 100.56H449.932L451.932 102.56V100.56ZM495.932 100.56H497.932L495.932 98.5601V100.56ZM495.932 127.664V129.664L497.932 127.664H495.932ZM423.772 127.664H421.772L423.772 129.664V127.664ZM423.772 4.46405V2.46405L421.772 4.46405H423.772ZM451.932 4.46405H453.932L451.932 2.46405V4.46405ZM451.932 100.56V102.56H495.932V100.56V98.5601H451.932V100.56ZM495.932 100.56H493.932V127.664H495.932H497.932V100.56H495.932ZM495.932 127.664V125.664H423.772V127.664V129.664H495.932V127.664ZM423.772 127.664H425.772V4.46405H423.772H421.772V127.664H423.772ZM423.772 4.46405V6.46405H451.932V4.46405V2.46405H423.772V4.46405ZM451.932 4.46405H449.932V100.56H451.932H453.932V4.46405H451.932ZM534.559 100.56H532.559L534.559 102.56V100.56ZM583.839 100.56H585.839L583.839 98.5601V100.56ZM583.839 127.664V129.664L585.839 127.664H583.839ZM506.399 127.664H504.399L506.399 129.664V127.664ZM506.399 4.46405V2.46405L504.399 4.46405H506.399ZM582.959 4.46405H584.959L582.959 2.46405V4.46405ZM582.959 31.5681V33.5681L584.959 31.5681H582.959ZM534.559 31.5681V29.5681L532.559 31.5681H534.559ZM534.559 51.9841H532.559L534.559 53.9841V51.9841ZM578.559 51.9841H580.559L578.559 49.9841V51.9841ZM578.559 78.7361V80.7361L580.559 78.7361H578.559ZM534.559 78.7361V76.7361L532.559 78.7361H534.559ZM534.559 100.56V102.56H583.839V100.56V98.5601H534.559V100.56ZM583.839 100.56H581.839V127.664H583.839H585.839V100.56H583.839ZM583.839 127.664V125.664H506.399V127.664V129.664H583.839V127.664ZM506.399 127.664H508.399V4.46405H506.399H504.399V127.664H506.399ZM506.399 4.46405V6.46405H582.959V4.46405V2.46405H506.399V4.46405ZM582.959 4.46405H580.959V31.5681H582.959H584.959V4.46405H582.959ZM582.959 31.5681V29.5681H534.559V31.5681V33.5681H582.959V31.5681ZM534.559 31.5681H532.559V51.9841H534.559H536.559V31.5681H534.559ZM534.559 51.9841V53.9841H578.559V51.9841V49.9841H534.559V51.9841ZM578.559 51.9841H576.559V78.7361H578.559H580.559V51.9841H578.559ZM578.559 78.7361V76.7361H534.559V78.7361V80.7361H578.559V78.7361ZM534.559 78.7361H532.559V100.56H534.559H536.559V78.7361H534.559ZM591.631 99.6801L590.628 97.9498L589.76 100.388L591.631 99.6801ZM615.919 85.6001L617.755 84.8084L614.916 83.8698L615.919 85.6001ZM632.991 76.9761L632.453 78.9026L632.458 78.9039L632.991 76.9761ZM683.151 29.8081L684.161 31.5342L684.943 28.9206L683.151 29.8081ZM659.391 43.7121L657.588 44.5775L660.401 45.4382L659.391 43.7121ZM647.071 54.0961L646.491 56.0103L646.493 56.0107L647.071 54.0961ZM640.911 130.128V128.128C615.777 128.128 600.039 116.239 593.501 98.9718L591.631 99.6801L589.76 100.388C596.95 119.378 614.301 132.128 640.911 132.128V130.128ZM591.631 99.6801L592.634 101.41L616.922 87.3303L615.919 85.6001L614.916 83.8698L590.628 97.9498L591.631 99.6801ZM615.919 85.6001L614.082 86.3917C616.38 91.7239 619.569 96.3281 624.127 99.5904C628.701 102.864 634.494 104.672 641.791 104.672V102.672V100.672C635.184 100.672 630.241 99.0477 626.455 96.3378C622.652 93.616 619.857 89.6842 617.755 84.8084L615.919 85.6001ZM641.791 102.672V104.672C648.693 104.672 653.379 103.318 656.38 101.028C659.469 98.6709 660.511 95.5246 660.511 92.6401H658.511H656.511C656.511 94.5076 655.881 96.3773 653.953 97.8482C651.938 99.3862 648.265 100.672 641.791 100.672V102.672ZM658.511 92.6401H660.511C660.511 90.413 659.985 88.4081 658.786 86.6089C657.609 84.8408 655.873 83.4079 653.675 82.1487C649.347 79.6692 642.714 77.5866 633.523 75.0482L632.991 76.9761L632.458 78.9039C641.748 81.4696 647.874 83.4349 651.686 85.6194C653.559 86.6922 654.737 87.7454 655.457 88.8262C656.157 89.8761 656.511 91.0831 656.511 92.6401H658.511ZM632.991 76.9761L633.528 75.0496C624.452 72.5188 615.734 69.137 609.297 63.6411C602.956 58.2266 598.735 50.682 598.735 39.4881H596.735H594.735C594.735 51.8782 599.489 60.5255 606.7 66.683C613.816 72.7591 623.225 76.3293 632.453 78.9026L632.991 76.9761ZM596.735 39.4881H598.735C598.735 17.1576 617.547 4.00005 638.095 4.00005V2.00005V5.34058e-05C616.05 5.34058e-05 594.735 14.2985 594.735 39.4881H596.735ZM638.095 2.00005V4.00005C657.586 4.00005 672.725 13.2593 681.358 30.6955L683.151 29.8081L684.943 28.9206C675.624 10.1008 659.083 5.34058e-05 638.095 5.34058e-05V2.00005ZM683.151 29.8081L682.141 28.0819L658.381 41.9859L659.391 43.7121L660.401 45.4382L684.161 31.5342L683.151 29.8081ZM659.391 43.7121L661.194 42.8466C659.004 38.2848 656.316 34.3986 652.559 31.6666C648.771 28.9115 644.071 27.4561 638.095 27.4561V29.4561V31.4561C643.382 31.4561 647.219 32.7286 650.206 34.9015C653.226 37.0975 655.553 40.3393 657.588 44.5775L659.391 43.7121ZM638.095 29.4561V27.4561C633.377 27.4561 629.605 28.6353 626.965 30.6951C624.296 32.7763 622.895 35.6819 622.895 38.7841H624.895H626.895C626.895 36.9583 627.693 35.1998 629.425 33.8491C631.184 32.4768 634.012 31.4561 638.095 31.4561V29.4561ZM624.895 38.7841H622.895C622.895 40.3707 623.105 41.9838 623.849 43.5803C624.594 45.181 625.805 46.6148 627.576 47.9647C631.034 50.6003 636.888 53.1028 646.491 56.0103L647.071 54.0961L647.65 52.1819C638.07 49.2813 632.835 46.9438 630.001 44.7834C628.626 43.7353 627.89 42.7822 627.475 41.8914C627.058 40.9964 626.895 40.0134 626.895 38.7841H624.895ZM647.071 54.0961L646.493 56.0107C655.89 58.8477 665.439 61.7991 672.679 67.145C679.76 72.3735 684.671 79.9278 684.671 92.2881H686.671H688.671C688.671 78.6003 683.11 69.8747 675.055 63.9271C667.159 58.097 656.907 54.9764 647.649 52.1814L647.071 54.0961ZM686.671 92.2881H684.671C684.671 103.581 680.179 112.459 672.572 118.558C664.917 124.694 653.957 128.128 640.911 128.128V130.128V132.128C654.616 132.128 666.536 128.522 675.074 121.679C683.658 114.797 688.671 104.755 688.671 92.2881H686.671ZM852.456 30.5121L853.459 32.2423L854.159 29.4629L852.456 30.5121ZM828.168 44.5921L826.433 45.5878L829.171 46.3223L828.168 44.5921ZM828.168 87.5361L829.171 85.8058L826.42 86.5648L828.168 87.5361ZM852.456 101.616L854.166 102.653L853.459 99.8858L852.456 101.616ZM799.656 130.128V128.128C763.643 128.128 737.592 101.234 737.592 66.0641H735.592H733.592C733.592 103.406 761.397 132.128 799.656 132.128V130.128ZM735.592 66.0641H737.592C737.592 30.8944 763.643 4.00005 799.656 4.00005V2.00005V5.34058e-05C761.397 5.34058e-05 733.592 28.7217 733.592 66.0641H735.592ZM799.656 2.00005V4.00005C821.343 4.00005 840.396 14.7525 850.753 31.5612L852.456 30.5121L854.159 29.4629C843.043 11.4236 822.673 5.34058e-05 799.656 5.34058e-05V2.00005ZM852.456 30.5121L851.453 28.7818L827.165 42.8618L828.168 44.5921L829.171 46.3223L853.459 32.2423L852.456 30.5121ZM828.168 44.5921L829.902 43.5963C824.036 33.3772 812.753 27.4561 799.656 27.4561V29.4561V31.4561C811.551 31.4561 821.388 36.7989 826.433 45.5878L828.168 44.5921ZM799.656 29.4561V27.4561C788.284 27.4561 778.765 31.2721 772.089 38.1132C765.417 44.9489 761.752 54.6327 761.752 66.0641H763.752H765.752C765.752 55.4955 769.126 46.8752 774.951 40.907C780.771 34.944 789.203 31.4561 799.656 31.4561V29.4561ZM763.752 66.0641H761.752C761.752 77.4955 765.417 87.1792 772.089 94.015C778.765 100.856 788.284 104.672 799.656 104.672V102.672V100.672C789.203 100.672 780.771 97.1841 774.951 91.2212C769.126 85.2529 765.752 76.6327 765.752 66.0641H763.752ZM799.656 102.672V104.672C812.733 104.672 824.218 98.7637 829.916 88.5073L828.168 87.5361L826.42 86.5648C821.557 95.3164 811.571 100.672 799.656 100.672V102.672ZM828.168 87.5361L827.165 89.2663L851.453 103.346L852.456 101.616L853.459 99.8858L829.171 85.8058L828.168 87.5361ZM852.456 101.616L850.745 100.579C840.568 117.371 821.525 128.128 799.656 128.128V130.128V132.128C822.843 132.128 843.223 120.709 854.166 102.653L852.456 101.616ZM930.597 4.46405V2.46405L928.597 4.46405H930.597ZM958.757 4.46405H960.757L958.757 2.46405V4.46405ZM958.757 127.664V129.664L960.757 127.664H958.757ZM930.597 127.664H928.597L930.597 129.664V127.664ZM930.597 78.7361H932.597L930.597 76.7361V78.7361ZM891.877 78.7361V76.7361L889.877 78.7361H891.877ZM891.877 127.664V129.664L893.877 127.664H891.877ZM863.717 127.664H861.717L863.717 129.664V127.664ZM863.717 4.46405V2.46405L861.717 4.46405H863.717ZM891.877 4.46405H893.877L891.877 2.46405V4.46405ZM891.877 51.6321H889.877L891.877 53.6321V51.6321ZM930.597 51.6321V53.6321L932.597 51.6321H930.597ZM930.597 4.46405V6.46405H958.757V4.46405V2.46405H930.597V4.46405ZM958.757 4.46405H956.757V127.664H958.757H960.757V4.46405H958.757ZM958.757 127.664V125.664H930.597V127.664V129.664H958.757V127.664ZM930.597 127.664H932.597V78.7361H930.597H928.597V127.664H930.597ZM930.597 78.7361V76.7361H891.877V78.7361V80.7361H930.597V78.7361ZM891.877 78.7361H889.877V127.664H891.877H893.877V78.7361H891.877ZM891.877 127.664V125.664H863.717V127.664V129.664H891.877V127.664ZM863.717 127.664H865.717V4.46405H863.717H861.717V127.664H863.717ZM863.717 4.46405V6.46405H891.877V4.46405V2.46405H863.717V4.46405ZM891.877 4.46405H889.877V51.6321H891.877H893.877V4.46405H891.877ZM891.877 51.6321V53.6321H930.597V51.6321V49.6321H891.877V51.6321ZM930.597 51.6321H932.597V4.46405H930.597H928.597V51.6321H930.597ZM1006.13 100.56H1004.13L1006.13 102.56V100.56ZM1055.41 100.56H1057.41L1055.41 98.5601V100.56ZM1055.41 127.664V129.664L1057.41 127.664H1055.41ZM977.969 127.664H975.969L977.969 129.664V127.664ZM977.969 4.46405V2.46405L975.969 4.46405H977.969ZM1054.53 4.46405H1056.53L1054.53 2.46405V4.46405ZM1054.53 31.5681V33.5681L1056.53 31.5681H1054.53ZM1006.13 31.5681V29.5681L1004.13 31.5681H1006.13ZM1006.13 51.9841H1004.13L1006.13 53.9841V51.9841ZM1050.13 51.9841H1052.13L1050.13 49.9841V51.9841ZM1050.13 78.7361V80.7361L1052.13 78.7361H1050.13ZM1006.13 78.7361V76.7361L1004.13 78.7361H1006.13ZM1006.13 100.56V102.56H1055.41V100.56V98.5601H1006.13V100.56ZM1055.41 100.56H1053.41V127.664H1055.41H1057.41V100.56H1055.41ZM1055.41 127.664V125.664H977.969V127.664V129.664H1055.41V127.664ZM977.969 127.664H979.969V4.46405H977.969H975.969V127.664H977.969ZM977.969 4.46405V6.46405H1054.53V4.46405V2.46405H977.969V4.46405ZM1054.53 4.46405H1052.53V31.5681H1054.53H1056.53V4.46405H1054.53ZM1054.53 31.5681V29.5681H1006.13V31.5681V33.5681H1054.53V31.5681ZM1006.13 31.5681H1004.13V51.9841H1006.13H1008.13V31.5681H1006.13ZM1006.13 51.9841V53.9841H1050.13V51.9841V49.9841H1006.13V51.9841ZM1050.13 51.9841H1048.13V78.7361H1050.13H1052.13V51.9841H1050.13ZM1050.13 78.7361V76.7361H1006.13V78.7361V80.7361H1050.13V78.7361ZM1006.13 78.7361H1004.13V100.56H1006.13H1008.13V78.7361H1006.13ZM1097.52 100.56H1095.52L1097.52 102.56V100.56ZM1146.8 100.56H1148.8L1146.8 98.5601V100.56ZM1146.8 127.664V129.664L1148.8 127.664H1146.8ZM1069.36 127.664H1067.36L1069.36 129.664V127.664ZM1069.36 4.46405V2.46405L1067.36 4.46405H1069.36ZM1145.92 4.46405H1147.92L1145.92 2.46405V4.46405ZM1145.92 31.5681V33.5681L1147.92 31.5681H1145.92ZM1097.52 31.5681V29.5681L1095.52 31.5681H1097.52ZM1097.52 51.9841H1095.52L1097.52 53.9841V51.9841ZM1141.52 51.9841H1143.52L1141.52 49.9841V51.9841ZM1141.52 78.7361V80.7361L1143.52 78.7361H1141.52ZM1097.52 78.7361V76.7361L1095.52 78.7361H1097.52ZM1097.52 100.56V102.56H1146.8V100.56V98.5601H1097.52V100.56ZM1146.8 100.56H1144.8V127.664H1146.8H1148.8V100.56H1146.8ZM1146.8 127.664V125.664H1069.36V127.664V129.664H1146.8V127.664ZM1069.36 127.664H1071.36V4.46405H1069.36H1067.36V127.664H1069.36ZM1069.36 4.46405V6.46405H1145.92V4.46405V2.46405H1069.36V4.46405ZM1145.92 4.46405H1143.92V31.5681H1145.92H1147.92V4.46405H1145.92ZM1145.92 31.5681V29.5681H1097.52V31.5681V33.5681H1145.92V31.5681ZM1097.52 31.5681H1095.52V51.9841H1097.52H1099.52V31.5681H1097.52ZM1097.52 51.9841V53.9841H1141.52V51.9841V49.9841H1097.52V51.9841ZM1141.52 51.9841H1139.52V78.7361H1141.52H1143.52V51.9841H1141.52ZM1141.52 78.7361V76.7361H1097.52V78.7361V80.7361H1141.52V78.7361ZM1097.52 78.7361H1095.52V100.56H1097.52H1099.52V78.7361H1097.52ZM1225.52 127.664L1223.79 128.66L1225.52 129.664V127.664ZM1202.29 87.1841L1204.02 86.1885L1202.29 85.1841V87.1841ZM1188.91 87.1841V85.1841L1186.91 87.1841H1188.91ZM1188.91 127.664V129.664L1190.91 127.664H1188.91ZM1160.75 127.664H1158.75L1160.75 129.664V127.664ZM1160.75 4.46405V2.46405L1158.75 4.46405H1160.75ZM1229.57 82.4321L1228.67 80.6479L1227.84 83.4352L1229.57 82.4321ZM1255.79 127.664V129.664L1257.52 126.661L1255.79 127.664ZM1188.91 30.8641V28.8641L1186.91 30.8641H1188.91ZM1188.91 62.5441H1186.91L1188.91 64.5441V62.5441ZM1225.52 127.664L1227.26 126.669L1204.02 86.1885L1202.29 87.1841L1200.55 88.1796L1223.79 128.66L1225.52 127.664ZM1202.29 87.1841V85.1841H1188.91V87.1841V89.1841H1202.29V87.1841ZM1188.91 87.1841H1186.91V127.664H1188.91H1190.91V87.1841H1188.91ZM1188.91 127.664V125.664H1160.75V127.664V129.664H1188.91V127.664ZM1160.75 127.664H1162.75V4.46405H1160.75H1158.75V127.664H1160.75ZM1160.75 4.46405V6.46405H1210.03V4.46405V2.46405H1160.75V4.46405ZM1210.03 4.46405V6.46405C1232.34 6.46405 1250.27 24.4006 1250.27 46.7041H1252.27H1254.27C1254.27 22.1915 1234.55 2.46405 1210.03 2.46405V4.46405ZM1252.27 46.7041H1250.27C1250.27 61.0209 1241.6 74.0939 1228.67 80.6479L1229.57 82.4321L1230.47 84.2163C1244.64 77.0422 1254.27 62.6592 1254.27 46.7041H1252.27ZM1229.57 82.4321L1227.84 83.4352L1254.06 128.667L1255.79 127.664L1257.52 126.661L1231.3 81.4289L1229.57 82.4321ZM1255.79 127.664V125.664H1225.52V127.664V129.664H1255.79V127.664ZM1188.91 30.8641H1186.91V62.5441H1188.91H1190.91V30.8641H1188.91ZM1188.91 62.5441V64.5441H1210.03V62.5441V60.5441H1188.91V62.5441ZM1210.03 62.5441V64.5441C1219.08 64.5441 1226.11 56.5795 1226.11 46.7041H1224.11H1222.11C1222.11 54.7806 1216.48 60.5441 1210.03 60.5441V62.5441ZM1224.11 46.7041H1226.11C1226.11 36.8286 1219.08 28.8641 1210.03 28.8641V30.8641V32.8641C1216.48 32.8641 1222.11 38.6275 1222.11 46.7041H1224.11ZM1210.03 30.8641V28.8641H1188.91V30.8641V32.8641H1210.03V30.8641ZM1295.26 100.56H1293.26L1295.26 102.56V100.56ZM1339.26 100.56H1341.26L1339.26 98.5601V100.56ZM1339.26 127.664V129.664L1341.26 127.664H1339.26ZM1267.1 127.664H1265.1L1267.1 129.664V127.664ZM1267.1 4.46405V2.46405L1265.1 4.46405H1267.1ZM1295.26 4.46405H1297.26L1295.26 2.46405V4.46405ZM1295.26 100.56V102.56H1339.26V100.56V98.5601H1295.26V100.56ZM1339.26 100.56H1337.26V127.664H1339.26H1341.26V100.56H1339.26ZM1339.26 127.664V125.664H1267.1V127.664V129.664H1339.26V127.664ZM1267.1 127.664H1269.1V4.46405H1267.1H1265.1V127.664H1267.1ZM1267.1 4.46405V6.46405H1295.26V4.46405V2.46405H1267.1V4.46405ZM1295.26 4.46405H1293.26V100.56H1295.26H1297.26V4.46405H1295.26ZM1377.88 100.56H1375.88L1377.88 102.56V100.56ZM1427.16 100.56H1429.16L1427.16 98.5601V100.56ZM1427.16 127.664V129.664L1429.16 127.664H1427.16ZM1349.72 127.664H1347.72L1349.72 129.664V127.664ZM1349.72 4.46405V2.46405L1347.72 4.46405H1349.72ZM1426.28 4.46405H1428.28L1426.28 2.46405V4.46405ZM1426.28 31.5681V33.5681L1428.28 31.5681H1426.28ZM1377.88 31.5681V29.5681L1375.88 31.5681H1377.88ZM1377.88 51.9841H1375.88L1377.88 53.9841V51.9841ZM1421.88 51.9841H1423.88L1421.88 49.9841V51.9841ZM1421.88 78.7361V80.7361L1423.88 78.7361H1421.88ZM1377.88 78.7361V76.7361L1375.88 78.7361H1377.88ZM1377.88 100.56V102.56H1427.16V100.56V98.5601H1377.88V100.56ZM1427.16 100.56H1425.16V127.664H1427.16H1429.16V100.56H1427.16ZM1427.16 127.664V125.664H1349.72V127.664V129.664H1427.16V127.664ZM1349.72 127.664H1351.72V4.46405H1349.72H1347.72V127.664H1349.72ZM1349.72 4.46405V6.46405H1426.28V4.46405V2.46405H1349.72V4.46405ZM1426.28 4.46405H1424.28V31.5681H1426.28H1428.28V4.46405H1426.28ZM1426.28 31.5681V29.5681H1377.88V31.5681V33.5681H1426.28V31.5681ZM1377.88 31.5681H1375.88V51.9841H1377.88H1379.88V31.5681H1377.88ZM1377.88 51.9841V53.9841H1421.88V51.9841V49.9841H1377.88V51.9841ZM1421.88 51.9841H1419.88V78.7361H1421.88H1423.88V51.9841H1421.88ZM1421.88 78.7361V76.7361H1377.88V78.7361V80.7361H1421.88V78.7361ZM1377.88 78.7361H1375.88V100.56H1377.88H1379.88V78.7361H1377.88ZM1521.16 127.664L1519.25 128.27L1521.16 129.664V127.664ZM1515 108.304L1516.9 107.698L1515 106.304V108.304ZM1469.24 108.304V106.304L1467.33 107.698L1469.24 108.304ZM1463.08 127.664V129.664L1464.98 128.27L1463.08 127.664ZM1432.28 127.664L1430.38 127.02L1432.28 129.664V127.664ZM1474.16 4.46405V2.46405L1472.27 3.82025L1474.16 4.46405ZM1510.07 4.46405L1511.96 3.82025L1510.07 2.46405V4.46405ZM1551.96 127.664V129.664L1553.85 127.02L1551.96 127.664ZM1477.68 81.9041L1475.78 81.2961L1477.68 83.9041V81.9041ZM1506.55 81.9041V83.9041L1508.45 81.2961L1506.55 81.9041ZM1492.12 36.6721L1494.02 36.0641H1490.21L1492.12 36.6721ZM1521.16 127.664L1523.06 127.058L1516.9 107.698L1515 108.304L1513.09 108.91L1519.25 128.27L1521.16 127.664ZM1515 108.304V106.304H1469.24V108.304V110.304H1515V108.304ZM1469.24 108.304L1467.33 107.698L1461.17 127.058L1463.08 127.664L1464.98 128.27L1471.14 108.91L1469.24 108.304ZM1463.08 127.664V125.664H1432.28V127.664V129.664H1463.08V127.664ZM1432.28 127.664L1434.17 128.308L1476.06 5.10786L1474.16 4.46405L1472.27 3.82025L1430.38 127.02L1432.28 127.664ZM1474.16 4.46405V6.46405H1510.07V4.46405V2.46405H1474.16V4.46405ZM1510.07 4.46405L1508.17 5.10786L1550.06 128.308L1551.96 127.664L1553.85 127.02L1511.96 3.82025L1510.07 4.46405ZM1551.96 127.664V125.664H1521.16V127.664V129.664H1551.96V127.664ZM1477.68 81.9041V83.9041H1506.55V81.9041V79.9041H1477.68V81.9041ZM1506.55 81.9041L1508.45 81.2961L1494.02 36.0641L1492.12 36.6721L1490.21 37.28L1504.64 82.512L1506.55 81.9041ZM1492.12 36.6721L1490.21 36.0641L1475.78 81.2961L1477.68 81.9041L1479.59 82.512L1494.02 37.28L1492.12 36.6721ZM1560.52 127.664H1558.52L1560.52 129.664V127.664ZM1560.52 4.46405V2.46405L1558.52 4.46405H1560.52ZM1588.68 31.5681V29.5681L1586.68 31.5681H1588.68ZM1588.68 100.56H1586.68L1588.68 102.56V100.56ZM1609.8 4.46405V6.46405C1642.61 6.46405 1667.64 32.263 1667.64 66.0641H1669.64H1671.64C1671.64 30.1691 1644.93 2.46405 1609.8 2.46405V4.46405ZM1669.64 66.0641H1667.64C1667.64 99.8651 1642.61 125.664 1609.8 125.664V127.664V129.664C1644.93 129.664 1671.64 101.959 1671.64 66.0641H1669.64ZM1609.8 127.664V125.664H1560.52V127.664V129.664H1609.8V127.664ZM1560.52 127.664H1562.52V4.46405H1560.52H1558.52V127.664H1560.52ZM1560.52 4.46405V6.46405H1609.8V4.46405V2.46405H1560.52V4.46405ZM1609.8 100.56V102.56C1619.96 102.56 1628.69 99.0416 1634.87 92.6196C1641.05 86.2025 1644.54 77.0512 1644.54 66.0641H1642.54H1640.54C1640.54 76.1969 1637.34 84.2936 1631.99 89.8446C1626.65 95.3905 1619.01 98.5601 1609.8 98.5601V100.56ZM1642.54 66.0641H1644.54C1644.54 55.0769 1641.05 45.9256 1634.87 39.5086C1628.69 33.0865 1619.96 29.5681 1609.8 29.5681V31.5681V33.5681C1619.01 33.5681 1626.65 36.7376 1631.99 42.2835C1637.34 47.8345 1640.54 55.9312 1640.54 66.0641H1642.54ZM1609.8 31.5681V29.5681H1588.68V31.5681V33.5681H1609.8V31.5681ZM1588.68 31.5681H1586.68V100.56H1588.68H1590.68V31.5681H1588.68ZM1588.68 100.56V102.56H1609.8V100.56V98.5601H1588.68V100.56ZM1683.54 4.46405V2.46405L1681.54 4.46405H1683.54ZM1711.7 4.46405H1713.7L1711.7 2.46405V4.46405ZM1711.7 127.664V129.664L1713.7 127.664H1711.7ZM1683.54 127.664H1681.54L1683.54 129.664V127.664ZM1683.54 4.46405V6.46405H1711.7V4.46405V2.46405H1683.54V4.46405ZM1711.7 4.46405H1709.7V127.664H1711.7H1713.7V4.46405H1711.7ZM1711.7 127.664V125.664H1683.54V127.664V129.664H1711.7V127.664ZM1683.54 127.664H1685.54V4.46405H1683.54H1681.54V127.664H1683.54ZM1799.57 4.46405V2.46405L1797.57 4.46405H1799.57ZM1827.73 4.46405H1829.73L1827.73 2.46405V4.46405ZM1827.73 127.664V129.664L1829.73 127.664H1827.73ZM1806.61 127.664L1804.98 128.822L1806.61 129.664V127.664ZM1759.09 60.7841L1760.72 59.6256L1757.09 60.7841H1759.09ZM1759.09 127.664V129.664L1761.09 127.664H1759.09ZM1730.93 127.664H1728.93L1730.93 129.664V127.664ZM1730.93 4.46405V2.46405L1728.93 4.46405H1730.93ZM1752.05 4.46405L1753.68 3.30564L1752.05 2.46405V4.46405ZM1799.57 71.3441L1797.94 72.5025L1801.57 71.3441H1799.57ZM1799.57 4.46405V6.46405H1827.73V4.46405V2.46405H1799.57V4.46405ZM1827.73 4.46405H1825.73V127.664H1827.73H1829.73V4.46405H1827.73ZM1827.73 127.664V125.664H1806.61V127.664V129.664H1827.73V127.664ZM1806.61 127.664L1808.24 126.506L1760.72 59.6256L1759.09 60.7841L1757.46 61.9425L1804.98 128.822L1806.61 127.664ZM1759.09 60.7841H1757.09V127.664H1759.09H1761.09V60.7841H1759.09ZM1759.09 127.664V125.664H1730.93V127.664V129.664H1759.09V127.664ZM1730.93 127.664H1732.93V4.46405H1730.93H1728.93V127.664H1730.93ZM1730.93 4.46405V6.46405H1752.05V4.46405V2.46405H1730.93V4.46405ZM1752.05 4.46405L1750.42 5.62247L1797.94 72.5025L1799.57 71.3441L1801.2 70.1856L1753.68 3.30564L1752.05 4.46405ZM1799.57 71.3441H1801.57V4.46405H1799.57H1797.57V71.3441H1799.57ZM1968.87 59.0241H1970.87L1968.87 57.0241V59.0241ZM1960.07 30.1601L1961.07 31.895L1961.77 29.0968L1960.07 30.1601ZM1936.14 43.8881L1934.44 44.9547L1937.13 45.623L1936.14 43.8881ZM1940.01 83.6641L1941.88 84.3632L1940.01 81.6641V83.6641ZM1907.1 83.6641H1905.1L1907.1 85.6641V83.6641ZM1907.1 59.0241V57.0241L1905.1 59.0241H1907.1ZM1968.87 59.0241H1966.87V69.5841H1968.87H1970.87V59.0241H1968.87ZM1968.87 69.5841H1966.87C1966.87 87.9309 1960.5 102.525 1950.06 112.537C1939.62 122.56 1924.96 128.128 1908.15 128.128V130.128V132.128C1925.84 132.128 1941.54 126.256 1952.83 115.423C1964.13 104.579 1970.87 88.9012 1970.87 69.5841H1968.87ZM1908.15 130.128V128.128C1870.5 128.128 1843.62 100.473 1843.62 66.2401H1841.62H1839.62C1839.62 102.76 1868.37 132.128 1908.15 132.128V130.128ZM1841.62 66.2401H1843.62C1843.62 31.6202 1871.06 4.00005 1906.22 4.00005V2.00005V5.34058e-05C1868.86 5.34058e-05 1839.62 29.4039 1839.62 66.2401H1841.62ZM1906.22 2.00005V4.00005C1929.14 4.00005 1948.38 15.289 1958.38 31.2233L1960.07 30.1601L1961.77 29.0968C1951 11.9431 1930.46 5.34058e-05 1906.22 5.34058e-05V2.00005ZM1960.07 30.1601L1959.08 28.4251L1935.14 42.1531L1936.14 43.8881L1937.13 45.623L1961.07 31.895L1960.07 30.1601ZM1936.14 43.8881L1937.83 42.8215C1932.3 34.0521 1920.51 27.4561 1906.04 27.4561V29.4561V31.4561C1919.37 31.4561 1929.76 37.532 1934.44 44.9547L1936.14 43.8881ZM1906.04 29.4561V27.4561C1884.15 27.4561 1867.78 43.6827 1867.78 66.4161H1869.78H1871.78C1871.78 45.8534 1886.4 31.4561 1906.04 31.4561V29.4561ZM1869.78 66.4161H1867.78C1867.78 77.3723 1871.66 86.9761 1878.78 93.8381C1885.9 100.698 1896.1 104.672 1908.5 104.672V102.672V100.672C1896.97 100.672 1887.81 96.9904 1881.56 90.958C1875.3 84.9281 1871.78 76.4038 1871.78 66.4161H1869.78ZM1908.5 102.672V104.672C1925.53 104.672 1937.13 97.0875 1941.88 84.3632L1940.01 83.6641L1938.13 82.9649C1934.08 93.8247 1924.21 100.672 1908.5 100.672V102.672ZM1940.01 83.6641V81.6641H1907.1V83.6641V85.6641H1940.01V83.6641ZM1907.1 83.6641H1909.1V59.0241H1907.1H1905.1V83.6641H1907.1ZM1907.1 59.0241V61.0241H1968.87V59.0241V57.0241H1907.1V59.0241ZM2107.6 4.46405H2109.6L2107.6 2.46405V4.46405ZM2107.6 31.5681V33.5681L2109.6 31.5681H2107.6ZM2075.92 31.5681V29.5681L2073.92 31.5681H2075.92ZM2075.92 127.664V129.664L2077.92 127.664H2075.92ZM2047.76 127.664H2045.76L2047.76 129.664V127.664ZM2047.76 31.5681H2049.76L2047.76 29.5681V31.5681ZM2016.08 31.5681H2014.08L2016.08 33.5681V31.5681ZM2016.08 4.46405V2.46405L2014.08 4.46405H2016.08ZM2107.6 4.46405H2105.6V31.5681H2107.6H2109.6V4.46405H2107.6ZM2107.6 31.5681V29.5681H2075.92V31.5681V33.5681H2107.6V31.5681ZM2075.92 31.5681H2073.92V127.664H2075.92H2077.92V31.5681H2075.92ZM2075.92 127.664V125.664H2047.76V127.664V129.664H2075.92V127.664ZM2047.76 127.664H2049.76V31.5681H2047.76H2045.76V127.664H2047.76ZM2047.76 31.5681V29.5681H2016.08V31.5681V33.5681H2047.76V31.5681ZM2016.08 31.5681H2018.08V4.46405H2016.08H2014.08V31.5681H2016.08ZM2016.08 4.46405V6.46405H2107.6V4.46405V2.46405H2016.08V4.46405ZM2146.15 100.56H2144.15L2146.15 102.56V100.56ZM2195.43 100.56H2197.43L2195.43 98.5601V100.56ZM2195.43 127.664V129.664L2197.43 127.664H2195.43ZM2117.99 127.664H2115.99L2117.99 129.664V127.664ZM2117.99 4.46405V2.46405L2115.99 4.46405H2117.99ZM2194.55 4.46405H2196.55L2194.55 2.46405V4.46405ZM2194.55 31.5681V33.5681L2196.55 31.5681H2194.55ZM2146.15 31.5681V29.5681L2144.15 31.5681H2146.15ZM2146.15 51.9841H2144.15L2146.15 53.9841V51.9841ZM2190.15 51.9841H2192.15L2190.15 49.9841V51.9841ZM2190.15 78.7361V80.7361L2192.15 78.7361H2190.15ZM2146.15 78.7361V76.7361L2144.15 78.7361H2146.15ZM2146.15 100.56V102.56H2195.43V100.56V98.5601H2146.15V100.56ZM2195.43 100.56H2193.43V127.664H2195.43H2197.43V100.56H2195.43ZM2195.43 127.664V125.664H2117.99V127.664V129.664H2195.43V127.664ZM2117.99 127.664H2119.99V4.46405H2117.99H2115.99V127.664H2117.99ZM2117.99 4.46405V6.46405H2194.55V4.46405V2.46405H2117.99V4.46405ZM2194.55 4.46405H2192.55V31.5681H2194.55H2196.55V4.46405H2194.55ZM2194.55 31.5681V29.5681H2146.15V31.5681V33.5681H2194.55V31.5681ZM2146.15 31.5681H2144.15V51.9841H2146.15H2148.15V31.5681H2146.15ZM2146.15 51.9841V53.9841H2190.15V51.9841V49.9841H2146.15V51.9841ZM2190.15 51.9841H2188.15V78.7361H2190.15H2192.15V51.9841H2190.15ZM2190.15 78.7361V76.7361H2146.15V78.7361V80.7361H2190.15V78.7361ZM2146.15 78.7361H2144.15V100.56H2146.15H2148.15V78.7361H2146.15ZM2289.42 127.664L2287.51 128.27L2289.42 129.664V127.664ZM2283.26 108.304L2285.16 107.698L2283.26 106.304V108.304ZM2237.5 108.304V106.304L2235.59 107.698L2237.5 108.304ZM2231.34 127.664V129.664L2233.24 128.27L2231.34 127.664ZM2200.54 127.664L2198.64 127.02L2200.54 129.664V127.664ZM2242.43 4.46405V2.46405L2240.53 3.82025L2242.43 4.46405ZM2278.33 4.46405L2280.22 3.82025L2278.33 2.46405V4.46405ZM2320.22 127.664V129.664L2322.11 127.02L2320.22 127.664ZM2245.95 81.9041L2244.04 81.2961L2245.95 83.9041V81.9041ZM2274.81 81.9041V83.9041L2276.71 81.2961L2274.81 81.9041ZM2260.38 36.6721L2262.28 36.0641H2258.47L2260.38 36.6721ZM2289.42 127.664L2291.32 127.058L2285.16 107.698L2283.26 108.304L2281.35 108.91L2287.51 128.27L2289.42 127.664ZM2283.26 108.304V106.304H2237.5V108.304V110.304H2283.26V108.304ZM2237.5 108.304L2235.59 107.698L2229.43 127.058L2231.34 127.664L2233.24 128.27L2239.4 108.91L2237.5 108.304ZM2231.34 127.664V125.664H2200.54V127.664V129.664H2231.34V127.664ZM2200.54 127.664L2202.43 128.308L2244.32 5.10786L2242.43 4.46405L2240.53 3.82025L2198.64 127.02L2200.54 127.664ZM2242.43 4.46405V6.46405H2278.33V4.46405V2.46405H2242.43V4.46405ZM2278.33 4.46405L2276.44 5.10786L2318.32 128.308L2320.22 127.664L2322.11 127.02L2280.22 3.82025L2278.33 4.46405ZM2320.22 127.664V125.664H2289.42V127.664V129.664H2320.22V127.664ZM2245.95 81.9041V83.9041H2274.81V81.9041V79.9041H2245.95V81.9041ZM2274.81 81.9041L2276.71 81.2961L2262.28 36.0641L2260.38 36.6721L2258.47 37.28L2272.9 82.512L2274.81 81.9041ZM2260.38 36.6721L2258.47 36.0641L2244.04 81.2961L2245.95 81.9041L2247.85 82.512L2262.28 37.28L2260.38 36.6721ZM2451.99 4.46405H2453.99L2451.99 2.46405V4.46405ZM2451.99 127.664V129.664L2453.99 127.664H2451.99ZM2423.83 127.664H2421.83L2423.83 129.664V127.664ZM2423.83 56.0321H2425.83L2422.12 54.9913L2423.83 56.0321ZM2391.97 108.304V110.304L2393.68 109.345L2391.97 108.304ZM2388.8 108.304L2387.09 109.345L2388.8 110.304V108.304ZM2356.95 56.0321L2358.65 54.9913L2354.95 56.0321H2356.95ZM2356.95 127.664V129.664L2358.95 127.664H2356.95ZM2328.79 127.664H2326.79L2328.79 129.664V127.664ZM2328.79 4.46405V2.46405L2326.79 4.46405H2328.79ZM2356.95 4.46405L2358.65 3.42138L2356.95 2.46405V4.46405ZM2390.39 59.2001L2388.68 60.2427H2392.09L2390.39 59.2001ZM2423.83 4.46405V2.46405L2422.12 3.42138L2423.83 4.46405ZM2451.99 4.46405H2449.99V127.664H2451.99H2453.99V4.46405H2451.99ZM2451.99 127.664V125.664H2423.83V127.664V129.664H2451.99V127.664ZM2423.83 127.664H2425.83V56.0321H2423.83H2421.83V127.664H2423.83ZM2423.83 56.0321L2422.12 54.9913L2390.26 107.263L2391.97 108.304L2393.68 109.345L2425.53 57.0729L2423.83 56.0321ZM2391.97 108.304V106.304H2388.8V108.304V110.304H2391.97V108.304ZM2388.8 108.304L2390.51 107.263L2358.65 54.9913L2356.95 56.0321L2355.24 57.0729L2387.09 109.345L2388.8 108.304ZM2356.95 56.0321H2354.95V127.664H2356.95H2358.95V56.0321H2356.95ZM2356.95 127.664V125.664H2328.79V127.664V129.664H2356.95V127.664ZM2328.79 127.664H2330.79V4.46405H2328.79H2326.79V127.664H2328.79ZM2328.79 4.46405V6.46405H2356.95V4.46405V2.46405H2328.79V4.46405ZM2356.95 4.46405L2355.24 5.50673L2388.68 60.2427L2390.39 59.2001L2392.09 58.1574L2358.65 3.42138L2356.95 4.46405ZM2390.39 59.2001L2392.09 60.2427L2425.53 5.50673L2423.83 4.46405L2422.12 3.42138L2388.68 58.1574L2390.39 59.2001ZM2423.83 4.46405V6.46405H2451.99V4.46405V2.46405H2423.83V4.46405Z" fill="white" mask="url(#path-1-outside-1_1503_1017)"/>
</svg>
