<svg width="2789" height="150" viewBox="0 0 2789 150" fill="none" xmlns="http://www.w3.org/2000/svg">
<mask id="path-1-outside-1_1317_492" maskUnits="userSpaceOnUse" x="0" y="-0.199219" width="2789" height="150" fill="black">
<rect fill="white" y="-0.199219" width="2789" height="150"/>
<path d="M80 4.80077H112V144.801H88L34 68.8008V144.801H2V4.80077H26L80 80.8008V4.80077ZM165.784 114.001H221.784V144.801H133.784V4.80077H220.784V35.6008H165.784V58.8008H215.784V89.2008H165.784V114.001ZM269.639 114.001H325.639V144.801H237.639V4.80077H324.639V35.6008H269.639V58.8008H319.639V89.2008H269.639V114.001ZM397.494 4.80077C436.094 4.80077 465.494 35.2008 465.494 74.8008C465.494 114.401 436.094 144.801 397.494 144.801H341.494V4.80077H397.494ZM397.494 114.001C419.494 114.001 434.694 98.8008 434.694 74.8008C434.694 50.8008 419.494 35.6008 397.494 35.6008H373.494V114.001H397.494ZM513.286 114.001H563.286V144.801H481.286V4.80077H513.286V114.001ZM607.18 114.001H663.18V144.801H575.18V4.80077H662.18V35.6008H607.18V58.8008H657.18V89.2008H607.18V114.001ZM728.034 147.601C698.634 147.601 679.834 133.601 672.034 113.001L699.634 97.0008C704.634 108.601 713.234 116.401 729.034 116.401C744.234 116.401 748.034 110.401 748.034 105.001C748.034 96.4008 740.034 93.0008 719.034 87.2008C698.234 81.4008 677.834 71.4008 677.834 44.6008C677.834 17.6008 700.634 2.00077 724.834 2.00077C747.834 2.00077 765.834 13.0008 776.034 33.6008L749.034 49.4008C744.234 39.4008 737.634 33.2008 724.834 33.2008C714.834 33.2008 709.834 38.2008 709.834 43.8008C709.834 50.2008 713.234 54.6008 735.034 61.2008C756.234 67.6008 780.034 75.0008 780.034 104.601C780.034 131.601 758.434 147.601 728.034 147.601ZM908.427 147.601C866.227 147.601 835.627 116.001 835.627 74.8008C835.627 33.6008 866.227 2.00077 908.427 2.00077C933.827 2.00077 956.227 14.6008 968.427 34.4008L940.827 50.4008C934.627 39.6008 922.627 33.2008 908.427 33.2008C883.627 33.2008 867.627 49.8008 867.627 74.8008C867.627 99.8008 883.627 116.401 908.427 116.401C922.627 116.401 934.827 110.001 940.827 99.2008L968.427 115.201C956.427 135.001 934.027 147.601 908.427 147.601ZM1057.22 4.80077H1089.22V144.801H1057.22V89.2008H1013.22V144.801H981.223V4.80077H1013.22V58.4008H1057.22V4.80077ZM1143.05 114.001H1199.05V144.801H1111.05V4.80077H1198.05V35.6008H1143.05V58.8008H1193.05V89.2008H1143.05V114.001ZM1246.91 114.001H1302.91V144.801H1214.91V4.80077H1301.91V35.6008H1246.91V58.8008H1296.91V89.2008H1246.91V114.001ZM1392.36 144.801L1365.96 98.8008H1350.76V144.801H1318.76V4.80077H1374.76C1401.36 4.80077 1422.76 26.2008 1422.76 52.8008C1422.76 70.0008 1412.36 85.6008 1396.96 93.4008L1426.76 144.801H1392.36ZM1350.76 34.8008V70.8008H1374.76C1383.56 70.8008 1390.76 63.0008 1390.76 52.8008C1390.76 42.6008 1383.56 34.8008 1374.76 34.8008H1350.76ZM1471.61 114.001H1521.61V144.801H1439.61V4.80077H1471.61V114.001ZM1565.5 114.001H1621.5V144.801H1533.5V4.80077H1620.5V35.6008H1565.5V58.8008H1615.5V89.2008H1565.5V114.001ZM1728.31 144.801L1721.31 122.801H1669.31L1662.31 144.801H1627.31L1674.91 4.80077H1715.71L1763.31 144.801H1728.31ZM1678.91 92.8008H1711.71L1695.31 41.4008L1678.91 92.8008ZM1829.05 4.80077C1867.65 4.80077 1897.05 35.2008 1897.05 74.8008C1897.05 114.401 1867.65 144.801 1829.05 144.801H1773.05V4.80077H1829.05ZM1829.05 114.001C1851.05 114.001 1866.25 98.8008 1866.25 74.8008C1866.25 50.8008 1851.05 35.6008 1829.05 35.6008H1805.05V114.001H1829.05ZM1912.84 4.80077H1944.84V144.801H1912.84V4.80077ZM2044.7 4.80077H2076.7V144.801H2052.7L1998.7 68.8008V144.801H1966.7V4.80077H1990.7L2044.7 80.8008V4.80077ZM2237.08 66.8008V78.8008C2237.08 121.601 2207.28 147.601 2168.08 147.601C2124.08 147.601 2092.48 115.201 2092.48 75.0008C2092.48 34.4008 2124.68 2.00077 2165.88 2.00077C2192.68 2.00077 2215.28 15.2008 2227.08 34.0008L2199.88 49.6008C2194.08 40.4008 2181.48 33.2008 2165.68 33.2008C2142.08 33.2008 2124.48 50.6008 2124.48 75.2008C2124.48 99.0008 2141.28 116.401 2168.48 116.401C2187.08 116.401 2199.28 108.201 2204.28 94.8008H2166.88V66.8008H2237.08ZM2394.72 4.80077V35.6008H2358.72V144.801H2326.72V35.6008H2290.72V4.80077H2394.72ZM2438.53 114.001H2494.53V144.801H2406.53V4.80077H2493.53V35.6008H2438.53V58.8008H2488.53V89.2008H2438.53V114.001ZM2601.34 144.801L2594.34 122.801H2542.34L2535.34 144.801H2500.34L2547.94 4.80077H2588.74L2636.34 144.801H2601.34ZM2551.94 92.8008H2584.74L2568.34 41.4008L2551.94 92.8008ZM2786.07 4.80077V144.801H2754.07V63.4008L2717.87 122.801H2714.27L2678.07 63.4008V144.801H2646.07V4.80077H2678.07L2716.07 67.0008L2754.07 4.80077H2786.07Z"/>
</mask>
<path d="M80 4.80077V2.80077L78 4.80077H80ZM112 4.80077H114L112 2.80077V4.80077ZM112 144.801V146.801L114 144.801H112ZM88 144.801L86.3696 145.959L88 146.801V144.801ZM34 68.8008L35.6304 67.6424L32 68.8008H34ZM34 144.801V146.801L36 144.801H34ZM2 144.801H0L2 146.801V144.801ZM2 4.80077V2.80077L0 4.80077H2ZM26 4.80077L27.6304 3.64236L26 2.80077V4.80077ZM80 80.8008L78.3696 81.9592L82 80.8008H80ZM80 4.80077V6.80077H112V4.80077V2.80077H80V4.80077ZM112 4.80077H110V144.801H112H114V4.80077H112ZM112 144.801V142.801H88V144.801V146.801H112V144.801ZM88 144.801L89.6304 143.642L35.6304 67.6424L34 68.8008L32.3696 69.9592L86.3696 145.959L88 144.801ZM34 68.8008H32V144.801H34H36V68.8008H34ZM34 144.801V142.801H2V144.801V146.801H34V144.801ZM2 144.801H4V4.80077H2H0V144.801H2ZM2 4.80077V6.80077H26V4.80077V2.80077H2V4.80077ZM26 4.80077L24.3696 5.95918L78.3696 81.9592L80 80.8008L81.6304 79.6424L27.6304 3.64236L26 4.80077ZM80 80.8008H82V4.80077H80H78V80.8008H80ZM165.784 114.001H163.784L165.784 116.001V114.001ZM221.784 114.001H223.784L221.784 112.001V114.001ZM221.784 144.801V146.801L223.784 144.801H221.784ZM133.784 144.801H131.784L133.784 146.801V144.801ZM133.784 4.80077V2.80077L131.784 4.80077H133.784ZM220.784 4.80077H222.784L220.784 2.80077V4.80077ZM220.784 35.6008V37.6008L222.784 35.6008H220.784ZM165.784 35.6008V33.6008L163.784 35.6008H165.784ZM165.784 58.8008H163.784L165.784 60.8008V58.8008ZM215.784 58.8008H217.784L215.784 56.8008V58.8008ZM215.784 89.2008V91.2008L217.784 89.2008H215.784ZM165.784 89.2008V87.2008L163.784 89.2008H165.784ZM165.784 114.001V116.001H221.784V114.001V112.001H165.784V114.001ZM221.784 114.001H219.784V144.801H221.784H223.784V114.001H221.784ZM221.784 144.801V142.801H133.784V144.801V146.801H221.784V144.801ZM133.784 144.801H135.784V4.80077H133.784H131.784V144.801H133.784ZM133.784 4.80077V6.80077H220.784V4.80077V2.80077H133.784V4.80077ZM220.784 4.80077H218.784V35.6008H220.784H222.784V4.80077H220.784ZM220.784 35.6008V33.6008H165.784V35.6008V37.6008H220.784V35.6008ZM165.784 35.6008H163.784V58.8008H165.784H167.784V35.6008H165.784ZM165.784 58.8008V60.8008H215.784V58.8008V56.8008H165.784V58.8008ZM215.784 58.8008H213.784V89.2008H215.784H217.784V58.8008H215.784ZM215.784 89.2008V87.2008H165.784V89.2008V91.2008H215.784V89.2008ZM165.784 89.2008H163.784V114.001H165.784H167.784V89.2008H165.784ZM269.639 114.001H267.639L269.639 116.001V114.001ZM325.639 114.001H327.639L325.639 112.001V114.001ZM325.639 144.801V146.801L327.639 144.801H325.639ZM237.639 144.801H235.639L237.639 146.801V144.801ZM237.639 4.80077V2.80077L235.639 4.80077H237.639ZM324.639 4.80077H326.639L324.639 2.80077V4.80077ZM324.639 35.6008V37.6008L326.639 35.6008H324.639ZM269.639 35.6008V33.6008L267.639 35.6008H269.639ZM269.639 58.8008H267.639L269.639 60.8008V58.8008ZM319.639 58.8008H321.639L319.639 56.8008V58.8008ZM319.639 89.2008V91.2008L321.639 89.2008H319.639ZM269.639 89.2008V87.2008L267.639 89.2008H269.639ZM269.639 114.001V116.001H325.639V114.001V112.001H269.639V114.001ZM325.639 114.001H323.639V144.801H325.639H327.639V114.001H325.639ZM325.639 144.801V142.801H237.639V144.801V146.801H325.639V144.801ZM237.639 144.801H239.639V4.80077H237.639H235.639V144.801H237.639ZM237.639 4.80077V6.80077H324.639V4.80077V2.80077H237.639V4.80077ZM324.639 4.80077H322.639V35.6008H324.639H326.639V4.80077H324.639ZM324.639 35.6008V33.6008H269.639V35.6008V37.6008H324.639V35.6008ZM269.639 35.6008H267.639V58.8008H269.639H271.639V35.6008H269.639ZM269.639 58.8008V60.8008H319.639V58.8008V56.8008H269.639V58.8008ZM319.639 58.8008H317.639V89.2008H319.639H321.639V58.8008H319.639ZM319.639 89.2008V87.2008H269.639V89.2008V91.2008H319.639V89.2008ZM269.639 89.2008H267.639V114.001H269.639H271.639V89.2008H269.639ZM341.494 144.801H339.494L341.494 146.801V144.801ZM341.494 4.80077V2.80077L339.494 4.80077H341.494ZM373.494 35.6008V33.6008L371.494 35.6008H373.494ZM373.494 114.001H371.494L373.494 116.001V114.001ZM397.494 4.80077V6.80077C434.932 6.80077 463.494 36.2477 463.494 74.8008H465.494H467.494C467.494 34.1538 437.255 2.80077 397.494 2.80077V4.80077ZM465.494 74.8008H463.494C463.494 113.354 434.932 142.801 397.494 142.801V144.801V146.801C437.255 146.801 467.494 115.448 467.494 74.8008H465.494ZM397.494 144.801V142.801H341.494V144.801V146.801H397.494V144.801ZM341.494 144.801H343.494V4.80077H341.494H339.494V144.801H341.494ZM341.494 4.80077V6.80077H397.494V4.80077V2.80077H341.494V4.80077ZM397.494 114.001V116.001C408.969 116.001 418.812 112.026 425.784 104.788C432.751 97.5552 436.694 87.2279 436.694 74.8008H434.694H432.694C432.694 86.3737 429.036 95.6463 422.903 102.013C416.775 108.375 408.019 112.001 397.494 112.001V114.001ZM434.694 74.8008H436.694C436.694 62.3736 432.751 52.0463 425.784 44.8133C418.812 37.5752 408.969 33.6008 397.494 33.6008V35.6008V37.6008C408.019 37.6008 416.775 41.2263 422.903 47.5883C429.036 53.9552 432.694 63.2279 432.694 74.8008H434.694ZM397.494 35.6008V33.6008H373.494V35.6008V37.6008H397.494V35.6008ZM373.494 35.6008H371.494V114.001H373.494H375.494V35.6008H373.494ZM373.494 114.001V116.001H397.494V114.001V112.001H373.494V114.001ZM513.286 114.001H511.286L513.286 116.001V114.001ZM563.286 114.001H565.286L563.286 112.001V114.001ZM563.286 144.801V146.801L565.286 144.801H563.286ZM481.286 144.801H479.286L481.286 146.801V144.801ZM481.286 4.80077V2.80077L479.286 4.80077H481.286ZM513.286 4.80077H515.286L513.286 2.80077V4.80077ZM513.286 114.001V116.001H563.286V114.001V112.001H513.286V114.001ZM563.286 114.001H561.286V144.801H563.286H565.286V114.001H563.286ZM563.286 144.801V142.801H481.286V144.801V146.801H563.286V144.801ZM481.286 144.801H483.286V4.80077H481.286H479.286V144.801H481.286ZM481.286 4.80077V6.80077H513.286V4.80077V2.80077H481.286V4.80077ZM513.286 4.80077H511.286V114.001H513.286H515.286V4.80077H513.286ZM607.18 114.001H605.18L607.18 116.001V114.001ZM663.18 114.001H665.18L663.18 112.001V114.001ZM663.18 144.801V146.801L665.18 144.801H663.18ZM575.18 144.801H573.18L575.18 146.801V144.801ZM575.18 4.80077V2.80077L573.18 4.80077H575.18ZM662.18 4.80077H664.18L662.18 2.80077V4.80077ZM662.18 35.6008V37.6008L664.18 35.6008H662.18ZM607.18 35.6008V33.6008L605.18 35.6008H607.18ZM607.18 58.8008H605.18L607.18 60.8008V58.8008ZM657.18 58.8008H659.18L657.18 56.8008V58.8008ZM657.18 89.2008V91.2008L659.18 89.2008H657.18ZM607.18 89.2008V87.2008L605.18 89.2008H607.18ZM607.18 114.001V116.001H663.18V114.001V112.001H607.18V114.001ZM663.18 114.001H661.18V144.801H663.18H665.18V114.001H663.18ZM663.18 144.801V142.801H575.18V144.801V146.801H663.18V144.801ZM575.18 144.801H577.18V4.80077H575.18H573.18V144.801H575.18ZM575.18 4.80077V6.80077H662.18V4.80077V2.80077H575.18V4.80077ZM662.18 4.80077H660.18V35.6008H662.18H664.18V4.80077H662.18ZM662.18 35.6008V33.6008H607.18V35.6008V37.6008H662.18V35.6008ZM607.18 35.6008H605.18V58.8008H607.18H609.18V35.6008H607.18ZM607.18 58.8008V60.8008H657.18V58.8008V56.8008H607.18V58.8008ZM657.18 58.8008H655.18V89.2008H657.18H659.18V58.8008H657.18ZM657.18 89.2008V87.2008H607.18V89.2008V91.2008H657.18V89.2008ZM607.18 89.2008H605.18V114.001H607.18H609.18V89.2008H607.18ZM672.034 113.001L671.031 111.271L670.164 113.709L672.034 113.001ZM699.634 97.0008L701.471 96.2091L698.631 95.2705L699.634 97.0008ZM719.034 87.2008L718.497 89.1273L718.502 89.1286L719.034 87.2008ZM776.034 33.6008L777.044 35.3269L777.827 32.7133L776.034 33.6008ZM749.034 49.4008L747.231 50.2662L750.044 51.1269L749.034 49.4008ZM735.034 61.2008L734.455 63.115L734.456 63.1154L735.034 61.2008ZM728.034 147.601V145.601C699.372 145.601 681.379 132.031 673.905 112.293L672.034 113.001L670.164 113.709C678.29 135.17 697.896 149.601 728.034 149.601V147.601ZM672.034 113.001L673.037 114.731L700.637 98.7311L699.634 97.0008L698.631 95.2705L671.031 111.271L672.034 113.001ZM699.634 97.0008L697.798 97.7924C700.396 103.821 703.993 109.007 709.12 112.677C714.264 116.359 720.789 118.401 729.034 118.401V116.401V114.401C721.479 114.401 715.804 112.542 711.448 109.424C707.076 106.295 703.873 101.781 701.471 96.2091L699.634 97.0008ZM729.034 116.401V118.401C736.848 118.401 742.105 116.867 745.448 114.316C748.878 111.698 750.034 108.209 750.034 105.001H748.034H746.034C746.034 107.192 745.29 109.404 743.021 111.136C740.664 112.935 736.42 114.401 729.034 114.401V116.401ZM748.034 105.001H750.034C750.034 102.516 749.448 100.292 748.121 98.2984C746.814 96.336 744.879 94.7336 742.404 93.3154C737.521 90.5179 730.017 88.1593 719.567 85.2729L719.034 87.2008L718.502 89.1286C729.051 92.0423 736.048 94.2836 740.415 96.7861C742.565 98.0179 743.942 99.2406 744.792 100.516C745.62 101.76 746.034 103.186 746.034 105.001H748.034ZM719.034 87.2008L719.572 85.2743C709.248 82.3956 699.293 78.5397 691.933 72.2548C684.668 66.0513 679.834 57.4027 679.834 44.6008H677.834H675.834C675.834 58.5989 681.201 68.3502 689.336 75.2967C697.375 82.1619 708.021 86.206 718.497 89.1273L719.034 87.2008ZM677.834 44.6008H679.834C679.834 19.0303 701.383 4.00078 724.834 4.00078V2.00078V0.000778198C699.886 0.000778198 675.834 16.1712 675.834 44.6008H677.834ZM724.834 2.00078V4.00078C747.086 4.00078 764.385 14.58 774.242 34.4882L776.034 33.6008L777.827 32.7133C767.284 11.4215 748.583 0.000778198 724.834 0.000778198V2.00078ZM776.034 33.6008L775.024 31.8746L748.024 47.6746L749.034 49.4008L750.044 51.1269L777.044 35.3269L776.034 33.6008ZM749.034 49.4008L750.837 48.5353C748.36 43.3736 745.329 39.0014 741.111 35.9333C736.86 32.8422 731.579 31.2008 724.834 31.2008V33.2008V35.2008C730.89 35.2008 735.308 36.6593 738.758 39.1683C742.239 41.7002 744.909 45.428 747.231 50.2662L749.034 49.4008ZM724.834 33.2008V31.2008C719.517 31.2008 715.295 32.53 712.354 34.8238C709.386 37.139 707.834 40.3626 707.834 43.8008H709.834H711.834C711.834 41.639 712.783 39.5625 714.814 37.9778C716.874 36.3715 720.152 35.2008 724.834 35.2008V33.2008ZM709.834 43.8008H707.834C707.834 45.5794 708.07 47.3695 708.893 49.1359C709.718 50.9064 711.062 52.503 713.047 54.0164C716.934 56.979 723.544 59.8115 734.455 63.115L735.034 61.2008L735.614 59.2866C724.725 55.99 718.735 53.3226 715.472 50.8352C713.882 49.6235 713.013 48.5076 712.519 47.4469C712.023 46.3821 711.834 45.2222 711.834 43.8008H709.834ZM735.034 61.2008L734.456 63.1154C745.126 66.3365 756.024 69.7018 764.296 75.8097C772.409 81.8002 778.034 90.4645 778.034 104.601H780.034H782.034C782.034 89.1371 775.759 79.3014 766.672 72.5918C757.744 65.9997 746.143 62.4651 735.612 59.2861L735.034 61.2008ZM780.034 104.601H778.034C778.034 117.513 772.895 127.682 764.183 134.665C755.425 141.686 742.905 145.601 728.034 145.601V147.601V149.601C743.564 149.601 757.044 145.515 766.685 137.786C776.374 130.02 782.034 118.688 782.034 104.601H780.034ZM968.427 34.4008L969.43 36.1311L970.129 33.3516L968.427 34.4008ZM940.827 50.4008L939.092 51.3965L941.83 52.1311L940.827 50.4008ZM940.827 99.2008L941.83 97.4705L939.078 98.2295L940.827 99.2008ZM968.427 115.201L970.137 116.237L969.43 113.471L968.427 115.201ZM908.427 147.601V145.601C867.349 145.601 837.627 114.914 837.627 74.8008H835.627H833.627C833.627 117.087 865.104 149.601 908.427 149.601V147.601ZM835.627 74.8008H837.627C837.627 34.6871 867.349 4.00078 908.427 4.00078V2.00078V0.000778198C865.104 0.000778198 833.627 32.5144 833.627 74.8008H835.627ZM908.427 2.00078V4.00078C933.161 4.00078 954.903 16.2652 966.724 35.4499L968.427 34.4008L970.129 33.3516C957.55 12.9364 934.492 0.000778198 908.427 0.000778198V2.00078ZM968.427 34.4008L967.424 32.6705L939.824 48.6705L940.827 50.4008L941.83 52.1311L969.43 36.1311L968.427 34.4008ZM940.827 50.4008L942.561 49.405C935.951 37.89 923.228 31.2008 908.427 31.2008V33.2008V35.2008C922.026 35.2008 933.303 41.3116 939.092 51.3965L940.827 50.4008ZM908.427 33.2008V31.2008C895.567 31.2008 884.824 35.5148 877.295 43.2289C869.772 50.9376 865.627 61.8694 865.627 74.8008H867.627H869.627C869.627 62.7322 873.481 52.8639 880.158 46.0227C886.829 39.1867 896.486 35.2008 908.427 35.2008V33.2008ZM867.627 74.8008H865.627C865.627 87.7322 869.772 98.6639 877.295 106.373C884.824 114.087 895.567 118.401 908.427 118.401V116.401V114.401C896.486 114.401 886.829 110.415 880.158 103.579C873.481 96.7376 869.627 86.8694 869.627 74.8008H867.627ZM908.427 116.401V118.401C923.208 118.401 936.157 111.724 942.575 100.172L940.827 99.2008L939.078 98.2295C933.496 108.277 922.045 114.401 908.427 114.401V116.401ZM940.827 99.2008L939.824 100.931L967.424 116.931L968.427 115.201L969.43 113.471L941.83 97.4705L940.827 99.2008ZM968.427 115.201L966.716 114.164C955.099 133.332 933.368 145.601 908.427 145.601V147.601V149.601C934.685 149.601 957.754 136.669 970.137 116.237L968.427 115.201ZM1057.22 4.80077V2.80077L1055.22 4.80077H1057.22ZM1089.22 4.80077H1091.22L1089.22 2.80077V4.80077ZM1089.22 144.801V146.801L1091.22 144.801H1089.22ZM1057.22 144.801H1055.22L1057.22 146.801V144.801ZM1057.22 89.2008H1059.22L1057.22 87.2008V89.2008ZM1013.22 89.2008V87.2008L1011.22 89.2008H1013.22ZM1013.22 144.801V146.801L1015.22 144.801H1013.22ZM981.223 144.801H979.223L981.223 146.801V144.801ZM981.223 4.80077V2.80077L979.223 4.80077H981.223ZM1013.22 4.80077H1015.22L1013.22 2.80077V4.80077ZM1013.22 58.4008H1011.22L1013.22 60.4008V58.4008ZM1057.22 58.4008V60.4008L1059.22 58.4008H1057.22ZM1057.22 4.80077V6.80077H1089.22V4.80077V2.80077H1057.22V4.80077ZM1089.22 4.80077H1087.22V144.801H1089.22H1091.22V4.80077H1089.22ZM1089.22 144.801V142.801H1057.22V144.801V146.801H1089.22V144.801ZM1057.22 144.801H1059.22V89.2008H1057.22H1055.22V144.801H1057.22ZM1057.22 89.2008V87.2008H1013.22V89.2008V91.2008H1057.22V89.2008ZM1013.22 89.2008H1011.22V144.801H1013.22H1015.22V89.2008H1013.22ZM1013.22 144.801V142.801H981.223V144.801V146.801H1013.22V144.801ZM981.223 144.801H983.223V4.80077H981.223H979.223V144.801H981.223ZM981.223 4.80077V6.80077H1013.22V4.80077V2.80077H981.223V4.80077ZM1013.22 4.80077H1011.22V58.4008H1013.22H1015.22V4.80077H1013.22ZM1013.22 58.4008V60.4008H1057.22V58.4008V56.4008H1013.22V58.4008ZM1057.22 58.4008H1059.22V4.80077H1057.22H1055.22V58.4008H1057.22ZM1143.05 114.001H1141.05L1143.05 116.001V114.001ZM1199.05 114.001H1201.05L1199.05 112.001V114.001ZM1199.05 144.801V146.801L1201.05 144.801H1199.05ZM1111.05 144.801H1109.05L1111.05 146.801V144.801ZM1111.05 4.80077V2.80077L1109.05 4.80077H1111.05ZM1198.05 4.80077H1200.05L1198.05 2.80077V4.80077ZM1198.05 35.6008V37.6008L1200.05 35.6008H1198.05ZM1143.05 35.6008V33.6008L1141.05 35.6008H1143.05ZM1143.05 58.8008H1141.05L1143.05 60.8008V58.8008ZM1193.05 58.8008H1195.05L1193.05 56.8008V58.8008ZM1193.05 89.2008V91.2008L1195.05 89.2008H1193.05ZM1143.05 89.2008V87.2008L1141.05 89.2008H1143.05ZM1143.05 114.001V116.001H1199.05V114.001V112.001H1143.05V114.001ZM1199.05 114.001H1197.05V144.801H1199.05H1201.05V114.001H1199.05ZM1199.05 144.801V142.801H1111.05V144.801V146.801H1199.05V144.801ZM1111.05 144.801H1113.05V4.80077H1111.05H1109.05V144.801H1111.05ZM1111.05 4.80077V6.80077H1198.05V4.80077V2.80077H1111.05V4.80077ZM1198.05 4.80077H1196.05V35.6008H1198.05H1200.05V4.80077H1198.05ZM1198.05 35.6008V33.6008H1143.05V35.6008V37.6008H1198.05V35.6008ZM1143.05 35.6008H1141.05V58.8008H1143.05H1145.05V35.6008H1143.05ZM1143.05 58.8008V60.8008H1193.05V58.8008V56.8008H1143.05V58.8008ZM1193.05 58.8008H1191.05V89.2008H1193.05H1195.05V58.8008H1193.05ZM1193.05 89.2008V87.2008H1143.05V89.2008V91.2008H1193.05V89.2008ZM1143.05 89.2008H1141.05V114.001H1143.05H1145.05V89.2008H1143.05ZM1246.91 114.001H1244.91L1246.91 116.001V114.001ZM1302.91 114.001H1304.91L1302.91 112.001V114.001ZM1302.91 144.801V146.801L1304.91 144.801H1302.91ZM1214.91 144.801H1212.91L1214.91 146.801V144.801ZM1214.91 4.80077V2.80077L1212.91 4.80077H1214.91ZM1301.91 4.80077H1303.91L1301.91 2.80077V4.80077ZM1301.91 35.6008V37.6008L1303.91 35.6008H1301.91ZM1246.91 35.6008V33.6008L1244.91 35.6008H1246.91ZM1246.91 58.8008H1244.91L1246.91 60.8008V58.8008ZM1296.91 58.8008H1298.91L1296.91 56.8008V58.8008ZM1296.91 89.2008V91.2008L1298.91 89.2008H1296.91ZM1246.91 89.2008V87.2008L1244.91 89.2008H1246.91ZM1246.91 114.001V116.001H1302.91V114.001V112.001H1246.91V114.001ZM1302.91 114.001H1300.91V144.801H1302.91H1304.91V114.001H1302.91ZM1302.91 144.801V142.801H1214.91V144.801V146.801H1302.91V144.801ZM1214.91 144.801H1216.91V4.80077H1214.91H1212.91V144.801H1214.91ZM1214.91 4.80077V6.80077H1301.91V4.80077V2.80077H1214.91V4.80077ZM1301.91 4.80077H1299.91V35.6008H1301.91H1303.91V4.80077H1301.91ZM1301.91 35.6008V33.6008H1246.91V35.6008V37.6008H1301.91V35.6008ZM1246.91 35.6008H1244.91V58.8008H1246.91H1248.91V35.6008H1246.91ZM1246.91 58.8008V60.8008H1296.91V58.8008V56.8008H1246.91V58.8008ZM1296.91 58.8008H1294.91V89.2008H1296.91H1298.91V58.8008H1296.91ZM1296.91 89.2008V87.2008H1246.91V89.2008V91.2008H1296.91V89.2008ZM1246.91 89.2008H1244.91V114.001H1246.91H1248.91V89.2008H1246.91ZM1392.36 144.801L1390.63 145.796L1392.36 146.801V144.801ZM1365.96 98.8008L1367.7 97.8053L1365.96 96.8008V98.8008ZM1350.76 98.8008V96.8008L1348.76 98.8008H1350.76ZM1350.76 144.801V146.801L1352.76 144.801H1350.76ZM1318.76 144.801H1316.76L1318.76 146.801V144.801ZM1318.76 4.80077V2.80077L1316.76 4.80077H1318.76ZM1396.96 93.4008L1396.06 91.6166L1395.23 94.4039L1396.96 93.4008ZM1426.76 144.801V146.801L1428.49 143.798L1426.76 144.801ZM1350.76 34.8008V32.8008L1348.76 34.8008H1350.76ZM1350.76 70.8008H1348.76L1350.76 72.8008V70.8008ZM1392.36 144.801L1394.1 143.805L1367.7 97.8053L1365.96 98.8008L1364.23 99.7963L1390.63 145.796L1392.36 144.801ZM1365.96 98.8008V96.8008H1350.76V98.8008V100.801H1365.96V98.8008ZM1350.76 98.8008H1348.76V144.801H1350.76H1352.76V98.8008H1350.76ZM1350.76 144.801V142.801H1318.76V144.801V146.801H1350.76V144.801ZM1318.76 144.801H1320.76V4.80077H1318.76H1316.76V144.801H1318.76ZM1318.76 4.80077V6.80077H1374.76V4.80077V2.80077H1318.76V4.80077ZM1374.76 4.80077V6.80077C1400.26 6.80077 1420.76 27.3053 1420.76 52.8008H1422.76H1424.76C1424.76 25.0962 1402.47 2.80077 1374.76 2.80077V4.80077ZM1422.76 52.8008H1420.76C1420.76 69.1816 1410.85 84.1266 1396.06 91.6166L1396.96 93.4008L1397.87 95.185C1413.88 87.075 1424.76 70.82 1424.76 52.8008H1422.76ZM1396.96 93.4008L1395.23 94.4039L1425.03 145.804L1426.76 144.801L1428.49 143.798L1398.69 92.3976L1396.96 93.4008ZM1426.76 144.801V142.801H1392.36V144.801V146.801H1426.76V144.801ZM1350.76 34.8008H1348.76V70.8008H1350.76H1352.76V34.8008H1350.76ZM1350.76 70.8008V72.8008H1374.76V70.8008V68.8008H1350.76V70.8008ZM1374.76 70.8008V72.8008C1384.86 72.8008 1392.76 63.9002 1392.76 52.8008H1390.76H1388.76C1388.76 62.1013 1382.26 68.8008 1374.76 68.8008V70.8008ZM1390.76 52.8008H1392.76C1392.76 41.7013 1384.86 32.8008 1374.76 32.8008V34.8008V36.8008C1382.26 36.8008 1388.76 43.5002 1388.76 52.8008H1390.76ZM1374.76 34.8008V32.8008H1350.76V34.8008V36.8008H1374.76V34.8008ZM1471.61 114.001H1469.61L1471.61 116.001V114.001ZM1521.61 114.001H1523.61L1521.61 112.001V114.001ZM1521.61 144.801V146.801L1523.61 144.801H1521.61ZM1439.61 144.801H1437.61L1439.61 146.801V144.801ZM1439.61 4.80077V2.80077L1437.61 4.80077H1439.61ZM1471.61 4.80077H1473.61L1471.61 2.80077V4.80077ZM1471.61 114.001V116.001H1521.61V114.001V112.001H1471.61V114.001ZM1521.61 114.001H1519.61V144.801H1521.61H1523.61V114.001H1521.61ZM1521.61 144.801V142.801H1439.61V144.801V146.801H1521.61V144.801ZM1439.61 144.801H1441.61V4.80077H1439.61H1437.61V144.801H1439.61ZM1439.61 4.80077V6.80077H1471.61V4.80077V2.80077H1439.61V4.80077ZM1471.61 4.80077H1469.61V114.001H1471.61H1473.61V4.80077H1471.61ZM1565.5 114.001H1563.5L1565.5 116.001V114.001ZM1621.5 114.001H1623.5L1621.5 112.001V114.001ZM1621.5 144.801V146.801L1623.5 144.801H1621.5ZM1533.5 144.801H1531.5L1533.5 146.801V144.801ZM1533.5 4.80077V2.80077L1531.5 4.80077H1533.5ZM1620.5 4.80077H1622.5L1620.5 2.80077V4.80077ZM1620.5 35.6008V37.6008L1622.5 35.6008H1620.5ZM1565.5 35.6008V33.6008L1563.5 35.6008H1565.5ZM1565.5 58.8008H1563.5L1565.5 60.8008V58.8008ZM1615.5 58.8008H1617.5L1615.5 56.8008V58.8008ZM1615.5 89.2008V91.2008L1617.5 89.2008H1615.5ZM1565.5 89.2008V87.2008L1563.5 89.2008H1565.5ZM1565.5 114.001V116.001H1621.5V114.001V112.001H1565.5V114.001ZM1621.5 114.001H1619.5V144.801H1621.5H1623.5V114.001H1621.5ZM1621.5 144.801V142.801H1533.5V144.801V146.801H1621.5V144.801ZM1533.5 144.801H1535.5V4.80077H1533.5H1531.5V144.801H1533.5ZM1533.5 4.80077V6.80077H1620.5V4.80077V2.80077H1533.5V4.80077ZM1620.5 4.80077H1618.5V35.6008H1620.5H1622.5V4.80077H1620.5ZM1620.5 35.6008V33.6008H1565.5V35.6008V37.6008H1620.5V35.6008ZM1565.5 35.6008H1563.5V58.8008H1565.5H1567.5V35.6008H1565.5ZM1565.5 58.8008V60.8008H1615.5V58.8008V56.8008H1565.5V58.8008ZM1615.5 58.8008H1613.5V89.2008H1615.5H1617.5V58.8008H1615.5ZM1615.5 89.2008V87.2008H1565.5V89.2008V91.2008H1615.5V89.2008ZM1565.5 89.2008H1563.5V114.001H1565.5H1567.5V89.2008H1565.5ZM1728.31 144.801L1726.41 145.407L1728.31 146.801V144.801ZM1721.31 122.801L1723.22 122.194L1721.31 120.801V122.801ZM1669.31 122.801V120.801L1667.41 122.194L1669.31 122.801ZM1662.31 144.801V146.801L1664.22 145.407L1662.31 144.801ZM1627.31 144.801L1625.42 144.157L1627.31 146.801V144.801ZM1674.91 4.80077V2.80077L1673.02 4.15697L1674.91 4.80077ZM1715.71 4.80077L1717.61 4.15697L1715.71 2.80077V4.80077ZM1763.31 144.801V146.801L1765.21 144.157L1763.31 144.801ZM1678.91 92.8008L1677.01 92.1928L1678.91 94.8008V92.8008ZM1711.71 92.8008V94.8008L1713.62 92.1928L1711.71 92.8008ZM1695.31 41.4008L1697.22 40.7928H1693.41L1695.31 41.4008ZM1728.31 144.801L1730.22 144.194L1723.22 122.194L1721.31 122.801L1719.41 123.407L1726.41 145.407L1728.31 144.801ZM1721.31 122.801V120.801H1669.31V122.801V124.801H1721.31V122.801ZM1669.31 122.801L1667.41 122.194L1660.41 144.194L1662.31 144.801L1664.22 145.407L1671.22 123.407L1669.31 122.801ZM1662.31 144.801V142.801H1627.31V144.801V146.801H1662.31V144.801ZM1627.31 144.801L1629.21 145.445L1676.81 5.44458L1674.91 4.80077L1673.02 4.15697L1625.42 144.157L1627.31 144.801ZM1674.91 4.80077V6.80077H1715.71V4.80077V2.80077H1674.91V4.80077ZM1715.71 4.80077L1713.82 5.44458L1761.42 145.445L1763.31 144.801L1765.21 144.157L1717.61 4.15697L1715.71 4.80077ZM1763.31 144.801V142.801H1728.31V144.801V146.801H1763.31V144.801ZM1678.91 92.8008V94.8008H1711.71V92.8008V90.8008H1678.91V92.8008ZM1711.71 92.8008L1713.62 92.1928L1697.22 40.7928L1695.31 41.4008L1693.41 42.0087L1709.81 93.4087L1711.71 92.8008ZM1695.31 41.4008L1693.41 40.7928L1677.01 92.1928L1678.91 92.8008L1680.82 93.4087L1697.22 42.0087L1695.31 41.4008ZM1773.05 144.801H1771.05L1773.05 146.801V144.801ZM1773.05 4.80077V2.80077L1771.05 4.80077H1773.05ZM1805.05 35.6008V33.6008L1803.05 35.6008H1805.05ZM1805.05 114.001H1803.05L1805.05 116.001V114.001ZM1829.05 4.80077V6.80077C1866.49 6.80077 1895.05 36.2477 1895.05 74.8008H1897.05H1899.05C1899.05 34.1538 1868.81 2.80077 1829.05 2.80077V4.80077ZM1897.05 74.8008H1895.05C1895.05 113.354 1866.49 142.801 1829.05 142.801V144.801V146.801C1868.81 146.801 1899.05 115.448 1899.05 74.8008H1897.05ZM1829.05 144.801V142.801H1773.05V144.801V146.801H1829.05V144.801ZM1773.05 144.801H1775.05V4.80077H1773.05H1771.05V144.801H1773.05ZM1773.05 4.80077V6.80077H1829.05V4.80077V2.80077H1773.05V4.80077ZM1829.05 114.001V116.001C1840.53 116.001 1850.37 112.026 1857.34 104.788C1864.31 97.5552 1868.25 87.2279 1868.25 74.8008H1866.25H1864.25C1864.25 86.3737 1860.59 95.6463 1854.46 102.013C1848.33 108.375 1839.58 112.001 1829.05 112.001V114.001ZM1866.25 74.8008H1868.25C1868.25 62.3736 1864.31 52.0463 1857.34 44.8133C1850.37 37.5752 1840.53 33.6008 1829.05 33.6008V35.6008V37.6008C1839.58 37.6008 1848.33 41.2263 1854.46 47.5883C1860.59 53.9552 1864.25 63.2279 1864.25 74.8008H1866.25ZM1829.05 35.6008V33.6008H1805.05V35.6008V37.6008H1829.05V35.6008ZM1805.05 35.6008H1803.05V114.001H1805.05H1807.05V35.6008H1805.05ZM1805.05 114.001V116.001H1829.05V114.001V112.001H1805.05V114.001ZM1912.84 4.80077V2.80077L1910.84 4.80077H1912.84ZM1944.84 4.80077H1946.84L1944.84 2.80077V4.80077ZM1944.84 144.801V146.801L1946.84 144.801H1944.84ZM1912.84 144.801H1910.84L1912.84 146.801V144.801ZM1912.84 4.80077V6.80077H1944.84V4.80077V2.80077H1912.84V4.80077ZM1944.84 4.80077H1942.84V144.801H1944.84H1946.84V4.80077H1944.84ZM1944.84 144.801V142.801H1912.84V144.801V146.801H1944.84V144.801ZM1912.84 144.801H1914.84V4.80077H1912.84H1910.84V144.801H1912.84ZM2044.7 4.80077V2.80077L2042.7 4.80077H2044.7ZM2076.7 4.80077H2078.7L2076.7 2.80077V4.80077ZM2076.7 144.801V146.801L2078.7 144.801H2076.7ZM2052.7 144.801L2051.07 145.959L2052.7 146.801V144.801ZM1998.7 68.8008L2000.33 67.6424L1996.7 68.8008H1998.7ZM1998.7 144.801V146.801L2000.7 144.801H1998.7ZM1966.7 144.801H1964.7L1966.7 146.801V144.801ZM1966.7 4.80077V2.80077L1964.7 4.80077H1966.7ZM1990.7 4.80077L1992.33 3.64236L1990.7 2.80077V4.80077ZM2044.7 80.8008L2043.07 81.9592L2046.7 80.8008H2044.7ZM2044.7 4.80077V6.80077H2076.7V4.80077V2.80077H2044.7V4.80077ZM2076.7 4.80077H2074.7V144.801H2076.7H2078.7V4.80077H2076.7ZM2076.7 144.801V142.801H2052.7V144.801V146.801H2076.7V144.801ZM2052.7 144.801L2054.33 143.642L2000.33 67.6424L1998.7 68.8008L1997.07 69.9592L2051.07 145.959L2052.7 144.801ZM1998.7 68.8008H1996.7V144.801H1998.7H2000.7V68.8008H1998.7ZM1998.7 144.801V142.801H1966.7V144.801V146.801H1998.7V144.801ZM1966.7 144.801H1968.7V4.80077H1966.7H1964.7V144.801H1966.7ZM1966.7 4.80077V6.80077H1990.7V4.80077V2.80077H1966.7V4.80077ZM1990.7 4.80077L1989.07 5.95918L2043.07 81.9592L2044.7 80.8008L2046.33 79.6424L1992.33 3.64236L1990.7 4.80077ZM2044.7 80.8008H2046.7V4.80077H2044.7H2042.7V80.8008H2044.7ZM2237.08 66.8008H2239.08L2237.08 64.8008V66.8008ZM2227.08 34.0008L2228.08 35.7357L2228.78 32.9375L2227.08 34.0008ZM2199.88 49.6008L2198.19 50.6674L2200.88 51.3357L2199.88 49.6008ZM2204.28 94.8008L2206.16 95.5L2204.28 92.8008V94.8008ZM2166.88 94.8008H2164.88L2166.88 96.8008V94.8008ZM2166.88 66.8008V64.8008L2164.88 66.8008H2166.88ZM2237.08 66.8008H2235.08V78.8008H2237.08H2239.08V66.8008H2237.08ZM2237.08 78.8008H2235.08C2235.08 99.7157 2227.81 116.374 2215.9 127.808C2203.97 139.253 2187.24 145.601 2168.08 145.601V147.601V149.601C2188.12 149.601 2205.89 142.949 2218.67 130.694C2231.45 118.427 2239.08 100.686 2239.08 78.8008H2237.08ZM2168.08 147.601V145.601C2125.15 145.601 2094.48 114.057 2094.48 75.0008H2092.48H2090.48C2090.48 116.344 2123.02 149.601 2168.08 149.601V147.601ZM2092.48 75.0008H2094.48C2094.48 35.5089 2125.78 4.00078 2165.88 4.00078V2.00078V0.000778198C2123.58 0.000778198 2090.48 33.2926 2090.48 75.0008H2092.48ZM2165.88 2.00078V4.00078C2192.03 4.00078 2213.97 16.8737 2225.39 35.064L2227.08 34.0008L2228.78 32.9375C2216.59 13.5278 2193.34 0.000778198 2165.88 0.000778198V2.00078ZM2227.08 34.0008L2226.09 32.2659L2198.89 47.8659L2199.88 49.6008L2200.88 51.3357L2228.08 35.7357L2227.08 34.0008ZM2199.88 49.6008L2201.57 48.5342C2195.35 38.6609 2182.05 31.2008 2165.68 31.2008V33.2008V35.2008C2180.91 35.2008 2192.81 42.1407 2198.19 50.6674L2199.88 49.6008ZM2165.68 33.2008V31.2008C2140.96 31.2008 2122.48 49.5154 2122.48 75.2008H2124.48H2126.48C2126.48 51.6862 2143.2 35.2008 2165.68 35.2008V33.2008ZM2124.48 75.2008H2122.48C2122.48 87.585 2126.86 98.4248 2134.89 106.166C2142.92 113.904 2154.45 118.401 2168.48 118.401V116.401V114.401C2155.31 114.401 2144.84 110.197 2137.67 103.286C2130.5 96.3768 2126.48 86.6165 2126.48 75.2008H2124.48ZM2168.48 116.401V118.401C2187.74 118.401 2200.81 109.832 2206.16 95.5L2204.28 94.8008L2202.41 94.1016C2197.76 106.569 2186.42 114.401 2168.48 114.401V116.401ZM2204.28 94.8008V92.8008H2166.88V94.8008V96.8008H2204.28V94.8008ZM2166.88 94.8008H2168.88V66.8008H2166.88H2164.88V94.8008H2166.88ZM2166.88 66.8008V68.8008H2237.08V66.8008V64.8008H2166.88V66.8008ZM2394.72 4.80077H2396.72L2394.72 2.80077V4.80077ZM2394.72 35.6008V37.6008L2396.72 35.6008H2394.72ZM2358.72 35.6008V33.6008L2356.72 35.6008H2358.72ZM2358.72 144.801V146.801L2360.72 144.801H2358.72ZM2326.72 144.801H2324.72L2326.72 146.801V144.801ZM2326.72 35.6008H2328.72L2326.72 33.6008V35.6008ZM2290.72 35.6008H2288.72L2290.72 37.6008V35.6008ZM2290.72 4.80077V2.80077L2288.72 4.80077H2290.72ZM2394.72 4.80077H2392.72V35.6008H2394.72H2396.72V4.80077H2394.72ZM2394.72 35.6008V33.6008H2358.72V35.6008V37.6008H2394.72V35.6008ZM2358.72 35.6008H2356.72V144.801H2358.72H2360.72V35.6008H2358.72ZM2358.72 144.801V142.801H2326.72V144.801V146.801H2358.72V144.801ZM2326.72 144.801H2328.72V35.6008H2326.72H2324.72V144.801H2326.72ZM2326.72 35.6008V33.6008H2290.72V35.6008V37.6008H2326.72V35.6008ZM2290.72 35.6008H2292.72V4.80077H2290.72H2288.72V35.6008H2290.72ZM2290.72 4.80077V6.80077H2394.72V4.80077V2.80077H2290.72V4.80077ZM2438.53 114.001H2436.53L2438.53 116.001V114.001ZM2494.53 114.001H2496.53L2494.53 112.001V114.001ZM2494.53 144.801V146.801L2496.53 144.801H2494.53ZM2406.53 144.801H2404.53L2406.53 146.801V144.801ZM2406.53 4.80077V2.80077L2404.53 4.80077H2406.53ZM2493.53 4.80077H2495.53L2493.53 2.80077V4.80077ZM2493.53 35.6008V37.6008L2495.53 35.6008H2493.53ZM2438.53 35.6008V33.6008L2436.53 35.6008H2438.53ZM2438.53 58.8008H2436.53L2438.53 60.8008V58.8008ZM2488.53 58.8008H2490.53L2488.53 56.8008V58.8008ZM2488.53 89.2008V91.2008L2490.53 89.2008H2488.53ZM2438.53 89.2008V87.2008L2436.53 89.2008H2438.53ZM2438.53 114.001V116.001H2494.53V114.001V112.001H2438.53V114.001ZM2494.53 114.001H2492.53V144.801H2494.53H2496.53V114.001H2494.53ZM2494.53 144.801V142.801H2406.53V144.801V146.801H2494.53V144.801ZM2406.53 144.801H2408.53V4.80077H2406.53H2404.53V144.801H2406.53ZM2406.53 4.80077V6.80077H2493.53V4.80077V2.80077H2406.53V4.80077ZM2493.53 4.80077H2491.53V35.6008H2493.53H2495.53V4.80077H2493.53ZM2493.53 35.6008V33.6008H2438.53V35.6008V37.6008H2493.53V35.6008ZM2438.53 35.6008H2436.53V58.8008H2438.53H2440.53V35.6008H2438.53ZM2438.53 58.8008V60.8008H2488.53V58.8008V56.8008H2438.53V58.8008ZM2488.53 58.8008H2486.53V89.2008H2488.53H2490.53V58.8008H2488.53ZM2488.53 89.2008V87.2008H2438.53V89.2008V91.2008H2488.53V89.2008ZM2438.53 89.2008H2436.53V114.001H2438.53H2440.53V89.2008H2438.53ZM2601.34 144.801L2599.43 145.407L2601.34 146.801V144.801ZM2594.34 122.801L2596.24 122.194L2594.34 120.801V122.801ZM2542.34 122.801V120.801L2540.43 122.194L2542.34 122.801ZM2535.34 144.801V146.801L2537.24 145.407L2535.34 144.801ZM2500.34 144.801L2498.44 144.157L2500.34 146.801V144.801ZM2547.94 4.80077V2.80077L2546.04 4.15697L2547.94 4.80077ZM2588.74 4.80077L2590.63 4.15697L2588.74 2.80077V4.80077ZM2636.34 144.801V146.801L2638.23 144.157L2636.34 144.801ZM2551.94 92.8008L2550.03 92.1928L2551.94 94.8008V92.8008ZM2584.74 92.8008V94.8008L2586.64 92.1928L2584.74 92.8008ZM2568.34 41.4008L2570.24 40.7928H2566.43L2568.34 41.4008ZM2601.34 144.801L2603.24 144.194L2596.24 122.194L2594.34 122.801L2592.43 123.407L2599.43 145.407L2601.34 144.801ZM2594.34 122.801V120.801H2542.34V122.801V124.801H2594.34V122.801ZM2542.34 122.801L2540.43 122.194L2533.43 144.194L2535.34 144.801L2537.24 145.407L2544.24 123.407L2542.34 122.801ZM2535.34 144.801V142.801H2500.34V144.801V146.801H2535.34V144.801ZM2500.34 144.801L2502.23 145.445L2549.83 5.44458L2547.94 4.80077L2546.04 4.15697L2498.44 144.157L2500.34 144.801ZM2547.94 4.80077V6.80077H2588.74V4.80077V2.80077H2547.94V4.80077ZM2588.74 4.80077L2586.84 5.44458L2634.44 145.445L2636.34 144.801L2638.23 144.157L2590.63 4.15697L2588.74 4.80077ZM2636.34 144.801V142.801H2601.34V144.801V146.801H2636.34V144.801ZM2551.94 92.8008V94.8008H2584.74V92.8008V90.8008H2551.94V92.8008ZM2584.74 92.8008L2586.64 92.1928L2570.24 40.7928L2568.34 41.4008L2566.43 42.0087L2582.83 93.4087L2584.74 92.8008ZM2568.34 41.4008L2566.43 40.7928L2550.03 92.1928L2551.94 92.8008L2553.84 93.4087L2570.24 42.0087L2568.34 41.4008ZM2786.07 4.80077H2788.07L2786.07 2.80077V4.80077ZM2786.07 144.801V146.801L2788.07 144.801H2786.07ZM2754.07 144.801H2752.07L2754.07 146.801V144.801ZM2754.07 63.4008H2756.07L2752.37 62.36L2754.07 63.4008ZM2717.88 122.801V124.801L2719.58 123.842L2717.88 122.801ZM2714.27 122.801L2712.57 123.842L2714.27 124.801V122.801ZM2678.07 63.4008L2679.78 62.36L2676.07 63.4008H2678.07ZM2678.07 144.801V146.801L2680.07 144.801H2678.07ZM2646.07 144.801H2644.07L2646.07 146.801V144.801ZM2646.07 4.80077V2.80077L2644.07 4.80077H2646.07ZM2678.07 4.80077L2679.78 3.75809L2678.07 2.80077V4.80077ZM2716.07 67.0008L2714.37 68.0435H2717.78L2716.07 67.0008ZM2754.07 4.80077V2.80077L2752.37 3.75809L2754.07 4.80077ZM2786.07 4.80077H2784.07V144.801H2786.07H2788.07V4.80077H2786.07ZM2786.07 144.801V142.801H2754.07V144.801V146.801H2786.07V144.801ZM2754.07 144.801H2756.07V63.4008H2754.07H2752.07V144.801H2754.07ZM2754.07 63.4008L2752.37 62.36L2716.17 121.76L2717.88 122.801L2719.58 123.842L2755.78 64.4416L2754.07 63.4008ZM2717.88 122.801V120.801H2714.27V122.801V124.801H2717.88V122.801ZM2714.27 122.801L2715.98 121.76L2679.78 62.36L2678.07 63.4008L2676.37 64.4416L2712.57 123.842L2714.27 122.801ZM2678.07 63.4008H2676.07V144.801H2678.07H2680.07V63.4008H2678.07ZM2678.07 144.801V142.801H2646.07V144.801V146.801H2678.07V144.801ZM2646.07 144.801H2648.07V4.80077H2646.07H2644.07V144.801H2646.07ZM2646.07 4.80077V6.80077H2678.07V4.80077V2.80077H2646.07V4.80077ZM2678.07 4.80077L2676.37 5.84344L2714.37 68.0435L2716.07 67.0008L2717.78 65.9581L2679.78 3.75809L2678.07 4.80077ZM2716.07 67.0008L2717.78 68.0435L2755.78 5.84344L2754.07 4.80077L2752.37 3.75809L2714.37 65.9581L2716.07 67.0008ZM2754.07 4.80077V6.80077H2786.07V4.80077V2.80077H2754.07V4.80077Z" fill="white" mask="url(#path-1-outside-1_1317_492)"/>
</svg>
