<svg width="1645" height="128" viewBox="0 0 1645 128" fill="none" xmlns="http://www.w3.org/2000/svg">
<mask id="path-1-outside-1_1726_645" maskUnits="userSpaceOnUse" x="-0.560547" y="-0.800781" width="1645" height="128" fill="black">
<rect fill="white" x="-0.560547" y="-0.800781" width="1645" height="128"/>
<path d="M70.6395 1.99921H98.7995V125.199H77.6795L30.1595 58.3192V125.199H1.99945V1.99921H23.1195L70.6395 68.8792V1.99921ZM146.13 98.0952H195.41V125.199H117.97V1.99921H194.53V29.1032H146.13V49.5192H190.13V76.2712H146.13V98.0952ZM234.53 125.199L200.562 1.99921H230.13L251.426 88.2392L275.186 1.99921H298.066L321.826 88.2392L343.122 1.99921H372.69L338.722 125.199H306.69L286.626 52.5112L266.562 125.199H234.53ZM493.786 1.99921H521.946V125.199H500.826L453.306 58.3192V125.199H425.146V1.99921H446.266L493.786 68.8792V1.99921ZM569.276 98.0952H618.556V125.199H541.116V1.99921H617.676V29.1032H569.276V49.5192H613.276V76.2712H569.276V98.0952ZM657.676 125.199L623.708 1.99921H653.276L674.572 88.2392L698.332 1.99921H721.212L744.972 88.2392L766.268 1.99921H795.836L761.868 125.199H729.836L709.772 52.5112L689.708 125.199H657.676ZM916.933 1.99921H945.093V125.199H923.973L876.453 58.3192V125.199H848.293V1.99921H869.413L916.933 68.8792V1.99921ZM992.423 98.0952H1041.7V125.199H964.263V1.99921H1040.82V29.1032H992.423V49.5192H1036.42V76.2712H992.423V98.0952ZM1080.82 125.199L1046.86 1.99921H1076.42L1097.72 88.2392L1121.48 1.99921H1144.36L1168.12 88.2392L1189.42 1.99921H1218.98L1185.02 125.199H1152.98L1132.92 52.5112L1112.86 125.199H1080.82ZM1340.08 1.99921H1368.24V125.199H1347.12L1299.6 58.3192V125.199H1271.44V1.99921H1292.56L1340.08 68.8792V1.99921ZM1415.57 98.0952H1464.85V125.199H1387.41V1.99921H1463.97V29.1032H1415.57V49.5192H1459.57V76.2712H1415.57V98.0952ZM1503.97 125.199L1470 1.99921H1499.57L1520.87 88.2392L1544.63 1.99921H1567.51L1591.27 88.2392L1612.56 1.99921H1642.13L1608.16 125.199H1576.13L1556.07 52.5112L1536 125.199H1503.97Z"/>
</mask>
<path d="M70.6395 1.99921V-0.000793457L68.6395 1.99921H70.6395ZM98.7995 1.99921H100.799L98.7995 -0.000793457V1.99921ZM98.7995 125.199V127.199L100.799 125.199H98.7995ZM77.6795 125.199L76.0491 126.358L77.6795 127.199V125.199ZM30.1595 58.3192L31.7898 57.1608L28.1595 58.3192H30.1595ZM30.1595 125.199V127.199L32.1595 125.199H30.1595ZM1.99945 125.199H-0.000546455L1.99945 127.199V125.199ZM1.99945 1.99921V-0.000793457L-0.000546455 1.99921H1.99945ZM23.1195 1.99921L24.7498 0.840797L23.1195 -0.000793457V1.99921ZM70.6395 68.8792L69.0091 70.0376L72.6395 68.8792H70.6395ZM70.6395 1.99921V3.99921H98.7995V1.99921V-0.000793457H70.6395V1.99921ZM98.7995 1.99921H96.7995V125.199H98.7995H100.799V1.99921H98.7995ZM98.7995 125.199V123.199H77.6795V125.199V127.199H98.7995V125.199ZM77.6795 125.199L79.3098 124.041L31.7898 57.1608L30.1595 58.3192L28.5291 59.4776L76.0491 126.358L77.6795 125.199ZM30.1595 58.3192H28.1595V125.199H30.1595H32.1595V58.3192H30.1595ZM30.1595 125.199V123.199H1.99945V125.199V127.199H30.1595V125.199ZM1.99945 125.199H3.99945V1.99921H1.99945H-0.000546455V125.199H1.99945ZM1.99945 1.99921V3.99921H23.1195V1.99921V-0.000793457H1.99945V1.99921ZM23.1195 1.99921L21.4891 3.15762L69.0091 70.0376L70.6395 68.8792L72.2698 67.7208L24.7498 0.840797L23.1195 1.99921ZM70.6395 68.8792H72.6395V1.99921H70.6395H68.6395V68.8792H70.6395ZM146.13 98.0952H144.13L146.13 100.095V98.0952ZM195.41 98.0952H197.41L195.41 96.0952V98.0952ZM195.41 125.199V127.199L197.41 125.199H195.41ZM117.97 125.199H115.97L117.97 127.199V125.199ZM117.97 1.99921V-0.000793457L115.97 1.99921H117.97ZM194.53 1.99921H196.53L194.53 -0.000793457V1.99921ZM194.53 29.1032V31.1032L196.53 29.1032H194.53ZM146.13 29.1032V27.1032L144.13 29.1032H146.13ZM146.13 49.5192H144.13L146.13 51.5192V49.5192ZM190.13 49.5192H192.13L190.13 47.5192V49.5192ZM190.13 76.2712V78.2712L192.13 76.2712H190.13ZM146.13 76.2712V74.2712L144.13 76.2712H146.13ZM146.13 98.0952V100.095H195.41V98.0952V96.0952H146.13V98.0952ZM195.41 98.0952H193.41V125.199H195.41H197.41V98.0952H195.41ZM195.41 125.199V123.199H117.97V125.199V127.199H195.41V125.199ZM117.97 125.199H119.97V1.99921H117.97H115.97V125.199H117.97ZM117.97 1.99921V3.99921H194.53V1.99921V-0.000793457H117.97V1.99921ZM194.53 1.99921H192.53V29.1032H194.53H196.53V1.99921H194.53ZM194.53 29.1032V27.1032H146.13V29.1032V31.1032H194.53V29.1032ZM146.13 29.1032H144.13V49.5192H146.13H148.13V29.1032H146.13ZM146.13 49.5192V51.5192H190.13V49.5192V47.5192H146.13V49.5192ZM190.13 49.5192H188.13V76.2712H190.13H192.13V49.5192H190.13ZM190.13 76.2712V74.2712H146.13V76.2712V78.2712H190.13V76.2712ZM146.13 76.2712H144.13V98.0952H146.13H148.13V76.2712H146.13ZM234.53 125.199L232.602 125.731L234.53 127.199V125.199ZM200.562 1.99921V-0.000793457L198.634 2.5308L200.562 1.99921ZM230.13 1.99921L232.072 1.51974L230.13 -0.000793457V1.99921ZM251.426 88.2392L249.484 88.7187L253.354 88.7704L251.426 88.2392ZM275.186 1.99921V-0.000793457L273.258 1.46798L275.186 1.99921ZM298.066 1.99921L299.994 1.46798L298.066 -0.000793457V1.99921ZM321.826 88.2392L319.898 88.7704L323.768 88.7187L321.826 88.2392ZM343.122 1.99921V-0.000793457L341.18 1.51974L343.122 1.99921ZM372.69 1.99921L374.618 2.5308L372.69 -0.000793457V1.99921ZM338.722 125.199V127.199L340.65 125.731L338.722 125.199ZM306.69 125.199L304.762 125.731L306.69 127.199V125.199ZM286.626 52.5112L288.554 51.9791H284.698L286.626 52.5112ZM266.562 125.199V127.199L268.49 125.731L266.562 125.199ZM234.53 125.199L236.458 124.668L202.49 1.46762L200.562 1.99921L198.634 2.5308L232.602 125.731L234.53 125.199ZM200.562 1.99921V3.99921H230.13V1.99921V-0.000793457H200.562V1.99921ZM230.13 1.99921L228.188 2.47868L249.484 88.7187L251.426 88.2392L253.368 87.7597L232.072 1.51974L230.13 1.99921ZM251.426 88.2392L253.354 88.7704L277.114 2.53044L275.186 1.99921L273.258 1.46798L249.498 87.708L251.426 88.2392ZM275.186 1.99921V3.99921H298.066V1.99921V-0.000793457H275.186V1.99921ZM298.066 1.99921L296.138 2.53044L319.898 88.7704L321.826 88.2392L323.754 87.708L299.994 1.46798L298.066 1.99921ZM321.826 88.2392L323.768 88.7187L345.064 2.47868L343.122 1.99921L341.18 1.51974L319.884 87.7597L321.826 88.2392ZM343.122 1.99921V3.99921H372.69V1.99921V-0.000793457H343.122V1.99921ZM372.69 1.99921L370.762 1.46762L336.794 124.668L338.722 125.199L340.65 125.731L374.618 2.5308L372.69 1.99921ZM338.722 125.199V123.199H306.69V125.199V127.199H338.722V125.199ZM306.69 125.199L308.618 124.667L288.554 51.9791L286.626 52.5112L284.698 53.0434L304.762 125.731L306.69 125.199ZM286.626 52.5112L284.698 51.9791L264.634 124.667L266.562 125.199L268.49 125.731L288.554 53.0434L286.626 52.5112ZM266.562 125.199V123.199H234.53V125.199V127.199H266.562V125.199ZM493.786 1.99921V-0.000793457L491.786 1.99921H493.786ZM521.946 1.99921H523.946L521.946 -0.000793457V1.99921ZM521.946 125.199V127.199L523.946 125.199H521.946ZM500.826 125.199L499.196 126.358L500.826 127.199V125.199ZM453.306 58.3192L454.936 57.1608L451.306 58.3192H453.306ZM453.306 125.199V127.199L455.306 125.199H453.306ZM425.146 125.199H423.146L425.146 127.199V125.199ZM425.146 1.99921V-0.000793457L423.146 1.99921H425.146ZM446.266 1.99921L447.896 0.840797L446.266 -0.000793457V1.99921ZM493.786 68.8792L492.156 70.0376L495.786 68.8792H493.786ZM493.786 1.99921V3.99921H521.946V1.99921V-0.000793457H493.786V1.99921ZM521.946 1.99921H519.946V125.199H521.946H523.946V1.99921H521.946ZM521.946 125.199V123.199H500.826V125.199V127.199H521.946V125.199ZM500.826 125.199L502.456 124.041L454.936 57.1608L453.306 58.3192L451.676 59.4776L499.196 126.358L500.826 125.199ZM453.306 58.3192H451.306V125.199H453.306H455.306V58.3192H453.306ZM453.306 125.199V123.199H425.146V125.199V127.199H453.306V125.199ZM425.146 125.199H427.146V1.99921H425.146H423.146V125.199H425.146ZM425.146 1.99921V3.99921H446.266V1.99921V-0.000793457H425.146V1.99921ZM446.266 1.99921L444.636 3.15762L492.156 70.0376L493.786 68.8792L495.416 67.7208L447.896 0.840797L446.266 1.99921ZM493.786 68.8792H495.786V1.99921H493.786H491.786V68.8792H493.786ZM569.276 98.0952H567.276L569.276 100.095V98.0952ZM618.556 98.0952H620.556L618.556 96.0952V98.0952ZM618.556 125.199V127.199L620.556 125.199H618.556ZM541.116 125.199H539.116L541.116 127.199V125.199ZM541.116 1.99921V-0.000793457L539.116 1.99921H541.116ZM617.676 1.99921H619.676L617.676 -0.000793457V1.99921ZM617.676 29.1032V31.1032L619.676 29.1032H617.676ZM569.276 29.1032V27.1032L567.276 29.1032H569.276ZM569.276 49.5192H567.276L569.276 51.5192V49.5192ZM613.276 49.5192H615.276L613.276 47.5192V49.5192ZM613.276 76.2712V78.2712L615.276 76.2712H613.276ZM569.276 76.2712V74.2712L567.276 76.2712H569.276ZM569.276 98.0952V100.095H618.556V98.0952V96.0952H569.276V98.0952ZM618.556 98.0952H616.556V125.199H618.556H620.556V98.0952H618.556ZM618.556 125.199V123.199H541.116V125.199V127.199H618.556V125.199ZM541.116 125.199H543.116V1.99921H541.116H539.116V125.199H541.116ZM541.116 1.99921V3.99921H617.676V1.99921V-0.000793457H541.116V1.99921ZM617.676 1.99921H615.676V29.1032H617.676H619.676V1.99921H617.676ZM617.676 29.1032V27.1032H569.276V29.1032V31.1032H617.676V29.1032ZM569.276 29.1032H567.276V49.5192H569.276H571.276V29.1032H569.276ZM569.276 49.5192V51.5192H613.276V49.5192V47.5192H569.276V49.5192ZM613.276 49.5192H611.276V76.2712H613.276H615.276V49.5192H613.276ZM613.276 76.2712V74.2712H569.276V76.2712V78.2712H613.276V76.2712ZM569.276 76.2712H567.276V98.0952H569.276H571.276V76.2712H569.276ZM657.676 125.199L655.748 125.731L657.676 127.199V125.199ZM623.708 1.99921V-0.000793457L621.78 2.5308L623.708 1.99921ZM653.276 1.99921L655.218 1.51974L653.276 -0.000793457V1.99921ZM674.572 88.2392L672.631 88.7187L676.501 88.7704L674.572 88.2392ZM698.332 1.99921V-0.000793457L696.404 1.46798L698.332 1.99921ZM721.212 1.99921L723.141 1.46798L721.212 -0.000793457V1.99921ZM744.972 88.2392L743.044 88.7704L746.914 88.7187L744.972 88.2392ZM766.268 1.99921V-0.000793457L764.327 1.51974L766.268 1.99921ZM795.836 1.99921L797.765 2.5308L795.836 -0.000793457V1.99921ZM761.868 125.199V127.199L763.797 125.731L761.868 125.199ZM729.836 125.199L727.909 125.731L729.836 127.199V125.199ZM709.772 52.5112L711.7 51.9791H707.845L709.772 52.5112ZM689.708 125.199V127.199L691.636 125.731L689.708 125.199ZM657.676 125.199L659.604 124.668L625.636 1.46762L623.708 1.99921L621.78 2.5308L655.748 125.731L657.676 125.199ZM623.708 1.99921V3.99921H653.276V1.99921V-0.000793457H623.708V1.99921ZM653.276 1.99921L651.335 2.47868L672.631 88.7187L674.572 88.2392L676.514 87.7597L655.218 1.51974L653.276 1.99921ZM674.572 88.2392L676.501 88.7704L700.261 2.53044L698.332 1.99921L696.404 1.46798L672.644 87.708L674.572 88.2392ZM698.332 1.99921V3.99921H721.212V1.99921V-0.000793457H698.332V1.99921ZM721.212 1.99921L719.284 2.53044L743.044 88.7704L744.972 88.2392L746.901 87.708L723.141 1.46798L721.212 1.99921ZM744.972 88.2392L746.914 88.7187L768.21 2.47868L766.268 1.99921L764.327 1.51974L743.031 87.7597L744.972 88.2392ZM766.268 1.99921V3.99921H795.836V1.99921V-0.000793457H766.268V1.99921ZM795.836 1.99921L793.908 1.46762L759.94 124.668L761.868 125.199L763.797 125.731L797.765 2.5308L795.836 1.99921ZM761.868 125.199V123.199H729.836V125.199V127.199H761.868V125.199ZM729.836 125.199L731.764 124.667L711.7 51.9791L709.772 52.5112L707.845 53.0434L727.909 125.731L729.836 125.199ZM709.772 52.5112L707.845 51.9791L687.781 124.667L689.708 125.199L691.636 125.731L711.7 53.0434L709.772 52.5112ZM689.708 125.199V123.199H657.676V125.199V127.199H689.708V125.199ZM916.933 1.99921V-0.000793457L914.933 1.99921H916.933ZM945.093 1.99921H947.093L945.093 -0.000793457V1.99921ZM945.093 125.199V127.199L947.093 125.199H945.093ZM923.973 125.199L922.342 126.358L923.973 127.199V125.199ZM876.453 58.3192L878.083 57.1608L874.453 58.3192H876.453ZM876.453 125.199V127.199L878.453 125.199H876.453ZM848.293 125.199H846.293L848.293 127.199V125.199ZM848.293 1.99921V-0.000793457L846.293 1.99921H848.293ZM869.413 1.99921L871.043 0.840797L869.413 -0.000793457V1.99921ZM916.933 68.8792L915.302 70.0376L918.933 68.8792H916.933ZM916.933 1.99921V3.99921H945.093V1.99921V-0.000793457H916.933V1.99921ZM945.093 1.99921H943.093V125.199H945.093H947.093V1.99921H945.093ZM945.093 125.199V123.199H923.973V125.199V127.199H945.093V125.199ZM923.973 125.199L925.603 124.041L878.083 57.1608L876.453 58.3192L874.822 59.4776L922.342 126.358L923.973 125.199ZM876.453 58.3192H874.453V125.199H876.453H878.453V58.3192H876.453ZM876.453 125.199V123.199H848.293V125.199V127.199H876.453V125.199ZM848.293 125.199H850.293V1.99921H848.293H846.293V125.199H848.293ZM848.293 1.99921V3.99921H869.413V1.99921V-0.000793457H848.293V1.99921ZM869.413 1.99921L867.782 3.15762L915.302 70.0376L916.933 68.8792L918.563 67.7208L871.043 0.840797L869.413 1.99921ZM916.933 68.8792H918.933V1.99921H916.933H914.933V68.8792H916.933ZM992.423 98.0952H990.423L992.423 100.095V98.0952ZM1041.7 98.0952H1043.7L1041.7 96.0952V98.0952ZM1041.7 125.199V127.199L1043.7 125.199H1041.7ZM964.263 125.199H962.263L964.263 127.199V125.199ZM964.263 1.99921V-0.000793457L962.263 1.99921H964.263ZM1040.82 1.99921H1042.82L1040.82 -0.000793457V1.99921ZM1040.82 29.1032V31.1032L1042.82 29.1032H1040.82ZM992.423 29.1032V27.1032L990.423 29.1032H992.423ZM992.423 49.5192H990.423L992.423 51.5192V49.5192ZM1036.42 49.5192H1038.42L1036.42 47.5192V49.5192ZM1036.42 76.2712V78.2712L1038.42 76.2712H1036.42ZM992.423 76.2712V74.2712L990.423 76.2712H992.423ZM992.423 98.0952V100.095H1041.7V98.0952V96.0952H992.423V98.0952ZM1041.7 98.0952H1039.7V125.199H1041.7H1043.7V98.0952H1041.7ZM1041.7 125.199V123.199H964.263V125.199V127.199H1041.7V125.199ZM964.263 125.199H966.263V1.99921H964.263H962.263V125.199H964.263ZM964.263 1.99921V3.99921H1040.82V1.99921V-0.000793457H964.263V1.99921ZM1040.82 1.99921H1038.82V29.1032H1040.82H1042.82V1.99921H1040.82ZM1040.82 29.1032V27.1032H992.423V29.1032V31.1032H1040.82V29.1032ZM992.423 29.1032H990.423V49.5192H992.423H994.423V29.1032H992.423ZM992.423 49.5192V51.5192H1036.42V49.5192V47.5192H992.423V49.5192ZM1036.42 49.5192H1034.42V76.2712H1036.42H1038.42V49.5192H1036.42ZM1036.42 76.2712V74.2712H992.423V76.2712V78.2712H1036.42V76.2712ZM992.423 76.2712H990.423V98.0952H992.423H994.423V76.2712H992.423ZM1080.82 125.199L1078.9 125.731L1080.82 127.199V125.199ZM1046.86 1.99921V-0.000793457L1044.93 2.5308L1046.86 1.99921ZM1076.42 1.99921L1078.36 1.51974L1076.42 -0.000793457V1.99921ZM1097.72 88.2392L1095.78 88.7187L1099.65 88.7704L1097.72 88.2392ZM1121.48 1.99921V-0.000793457L1119.55 1.46798L1121.48 1.99921ZM1144.36 1.99921L1146.29 1.46798L1144.36 -0.000793457V1.99921ZM1168.12 88.2392L1166.19 88.7704L1170.06 88.7187L1168.12 88.2392ZM1189.42 1.99921V-0.000793457L1187.47 1.51974L1189.42 1.99921ZM1218.98 1.99921L1220.91 2.5308L1218.98 -0.000793457V1.99921ZM1185.02 125.199V127.199L1186.94 125.731L1185.02 125.199ZM1152.98 125.199L1151.06 125.731L1152.98 127.199V125.199ZM1132.92 52.5112L1134.85 51.9791H1130.99L1132.92 52.5112ZM1112.86 125.199V127.199L1114.78 125.731L1112.86 125.199ZM1080.82 125.199L1082.75 124.668L1048.78 1.46762L1046.86 1.99921L1044.93 2.5308L1078.9 125.731L1080.82 125.199ZM1046.86 1.99921V3.99921H1076.42V1.99921V-0.000793457H1046.86V1.99921ZM1076.42 1.99921L1074.48 2.47868L1095.78 88.7187L1097.72 88.2392L1099.66 87.7597L1078.36 1.51974L1076.42 1.99921ZM1097.72 88.2392L1099.65 88.7704L1123.41 2.53044L1121.48 1.99921L1119.55 1.46798L1095.79 87.708L1097.72 88.2392ZM1121.48 1.99921V3.99921H1144.36V1.99921V-0.000793457H1121.48V1.99921ZM1144.36 1.99921L1142.43 2.53044L1166.19 88.7704L1168.12 88.2392L1170.05 87.708L1146.29 1.46798L1144.36 1.99921ZM1168.12 88.2392L1170.06 88.7187L1191.36 2.47868L1189.42 1.99921L1187.47 1.51974L1166.18 87.7597L1168.12 88.2392ZM1189.42 1.99921V3.99921H1218.98V1.99921V-0.000793457H1189.42V1.99921ZM1218.98 1.99921L1217.06 1.46762L1183.09 124.668L1185.02 125.199L1186.94 125.731L1220.91 2.5308L1218.98 1.99921ZM1185.02 125.199V123.199H1152.98V125.199V127.199H1185.02V125.199ZM1152.98 125.199L1154.91 124.667L1134.85 51.9791L1132.92 52.5112L1130.99 53.0434L1151.06 125.731L1152.98 125.199ZM1132.92 52.5112L1130.99 51.9791L1110.93 124.667L1112.86 125.199L1114.78 125.731L1134.85 53.0434L1132.92 52.5112ZM1112.86 125.199V123.199H1080.82V125.199V127.199H1112.86V125.199ZM1340.08 1.99921V-0.000793457L1338.08 1.99921H1340.08ZM1368.24 1.99921H1370.24L1368.24 -0.000793457V1.99921ZM1368.24 125.199V127.199L1370.24 125.199H1368.24ZM1347.12 125.199L1345.49 126.358L1347.12 127.199V125.199ZM1299.6 58.3192L1301.23 57.1608L1297.6 58.3192H1299.6ZM1299.6 125.199V127.199L1301.6 125.199H1299.6ZM1271.44 125.199H1269.44L1271.44 127.199V125.199ZM1271.44 1.99921V-0.000793457L1269.44 1.99921H1271.44ZM1292.56 1.99921L1294.19 0.840797L1292.56 -0.000793457V1.99921ZM1340.08 68.8792L1338.45 70.0376L1342.08 68.8792H1340.08ZM1340.08 1.99921V3.99921H1368.24V1.99921V-0.000793457H1340.08V1.99921ZM1368.24 1.99921H1366.24V125.199H1368.24H1370.24V1.99921H1368.24ZM1368.24 125.199V123.199H1347.12V125.199V127.199H1368.24V125.199ZM1347.12 125.199L1348.75 124.041L1301.23 57.1608L1299.6 58.3192L1297.97 59.4776L1345.49 126.358L1347.12 125.199ZM1299.6 58.3192H1297.6V125.199H1299.6H1301.6V58.3192H1299.6ZM1299.6 125.199V123.199H1271.44V125.199V127.199H1299.6V125.199ZM1271.44 125.199H1273.44V1.99921H1271.44H1269.44V125.199H1271.44ZM1271.44 1.99921V3.99921H1292.56V1.99921V-0.000793457H1271.44V1.99921ZM1292.56 1.99921L1290.93 3.15762L1338.45 70.0376L1340.08 68.8792L1341.71 67.7208L1294.19 0.840797L1292.56 1.99921ZM1340.08 68.8792H1342.08V1.99921H1340.08H1338.08V68.8792H1340.08ZM1415.57 98.0952H1413.57L1415.57 100.095V98.0952ZM1464.85 98.0952H1466.85L1464.85 96.0952V98.0952ZM1464.85 125.199V127.199L1466.85 125.199H1464.85ZM1387.41 125.199H1385.41L1387.41 127.199V125.199ZM1387.41 1.99921V-0.000793457L1385.41 1.99921H1387.41ZM1463.97 1.99921H1465.97L1463.97 -0.000793457V1.99921ZM1463.97 29.1032V31.1032L1465.97 29.1032H1463.97ZM1415.57 29.1032V27.1032L1413.57 29.1032H1415.57ZM1415.57 49.5192H1413.57L1415.57 51.5192V49.5192ZM1459.57 49.5192H1461.57L1459.57 47.5192V49.5192ZM1459.57 76.2712V78.2712L1461.57 76.2712H1459.57ZM1415.57 76.2712V74.2712L1413.57 76.2712H1415.57ZM1415.57 98.0952V100.095H1464.85V98.0952V96.0952H1415.57V98.0952ZM1464.85 98.0952H1462.85V125.199H1464.85H1466.85V98.0952H1464.85ZM1464.85 125.199V123.199H1387.41V125.199V127.199H1464.85V125.199ZM1387.41 125.199H1389.41V1.99921H1387.41H1385.41V125.199H1387.41ZM1387.41 1.99921V3.99921H1463.97V1.99921V-0.000793457H1387.41V1.99921ZM1463.97 1.99921H1461.97V29.1032H1463.97H1465.97V1.99921H1463.97ZM1463.97 29.1032V27.1032H1415.57V29.1032V31.1032H1463.97V29.1032ZM1415.57 29.1032H1413.57V49.5192H1415.57H1417.57V29.1032H1415.57ZM1415.57 49.5192V51.5192H1459.57V49.5192V47.5192H1415.57V49.5192ZM1459.57 49.5192H1457.57V76.2712H1459.57H1461.57V49.5192H1459.57ZM1459.57 76.2712V74.2712H1415.57V76.2712V78.2712H1459.57V76.2712ZM1415.57 76.2712H1413.57V98.0952H1415.57H1417.57V76.2712H1415.57ZM1503.97 125.199L1502.04 125.731L1503.97 127.199V125.199ZM1470 1.99921V-0.000793457L1468.07 2.5308L1470 1.99921ZM1499.57 1.99921L1501.51 1.51974L1499.57 -0.000793457V1.99921ZM1520.87 88.2392L1518.92 88.7187L1522.79 88.7704L1520.87 88.2392ZM1544.63 1.99921V-0.000793457L1542.7 1.46798L1544.63 1.99921ZM1567.51 1.99921L1569.43 1.46798L1567.51 -0.000793457V1.99921ZM1591.27 88.2392L1589.34 88.7704L1593.21 88.7187L1591.27 88.2392ZM1612.56 1.99921V-0.000793457L1610.62 1.51974L1612.56 1.99921ZM1642.13 1.99921L1644.06 2.5308L1642.13 -0.000793457V1.99921ZM1608.16 125.199V127.199L1610.09 125.731L1608.16 125.199ZM1576.13 125.199L1574.2 125.731L1576.13 127.199V125.199ZM1556.07 52.5112L1557.99 51.9791H1554.14L1556.07 52.5112ZM1536 125.199V127.199L1537.93 125.731L1536 125.199ZM1503.97 125.199L1505.9 124.668L1471.93 1.46762L1470 1.99921L1468.07 2.5308L1502.04 125.731L1503.97 125.199ZM1470 1.99921V3.99921H1499.57V1.99921V-0.000793457H1470V1.99921ZM1499.57 1.99921L1497.63 2.47868L1518.92 88.7187L1520.87 88.2392L1522.81 87.7597L1501.51 1.51974L1499.57 1.99921ZM1520.87 88.2392L1522.79 88.7704L1546.55 2.53044L1544.63 1.99921L1542.7 1.46798L1518.94 87.708L1520.87 88.2392ZM1544.63 1.99921V3.99921H1567.51V1.99921V-0.000793457H1544.63V1.99921ZM1567.51 1.99921L1565.58 2.53044L1589.34 88.7704L1591.27 88.2392L1593.19 87.708L1569.43 1.46798L1567.51 1.99921ZM1591.27 88.2392L1593.21 88.7187L1614.5 2.47868L1612.56 1.99921L1610.62 1.51974L1589.32 87.7597L1591.27 88.2392ZM1612.56 1.99921V3.99921H1642.13V1.99921V-0.000793457H1612.56V1.99921ZM1642.13 1.99921L1640.2 1.46762L1606.23 124.668L1608.16 125.199L1610.09 125.731L1644.06 2.5308L1642.13 1.99921ZM1608.16 125.199V123.199H1576.13V125.199V127.199H1608.16V125.199ZM1576.13 125.199L1578.06 124.667L1557.99 51.9791L1556.07 52.5112L1554.14 53.0434L1574.2 125.731L1576.13 125.199ZM1556.07 52.5112L1554.14 51.9791L1534.07 124.667L1536 125.199L1537.93 125.731L1557.99 53.0434L1556.07 52.5112ZM1536 125.199V123.199H1503.97V125.199V127.199H1536V125.199Z" fill="white" mask="url(#path-1-outside-1_1726_645)"/>
</svg>
