<svg width="1786" height="111" viewBox="0 0 1786 111" fill="none" xmlns="http://www.w3.org/2000/svg">
<mask id="path-1-outside-1_1891_893" maskUnits="userSpaceOnUse" x="-0.119141" y="-0.599609" width="1786" height="111" fill="black">
<rect fill="white" x="-0.119141" y="-0.599609" width="1786" height="111"/>
<path d="M61.2809 2.00038H85.6009V108.4H67.3609L26.3209 50.6404V108.4H2.00086V2.00038H20.2409L61.2809 59.7604V2.00038ZM126.477 84.9924H169.037V108.4H102.157V2.00038H168.277V25.4084H126.477V43.0404H164.477V66.1444H126.477V84.9924ZM202.823 108.4L173.487 2.00038H199.023L217.415 76.4804L237.935 2.00038H257.695L278.215 76.4804L296.607 2.00038H322.143L292.807 108.4H265.143L247.815 45.6244L230.487 108.4H202.823ZM426.726 2.00038H451.046V108.4H432.806L391.766 50.6404V108.4H367.446V2.00038H385.686L426.726 59.7604V2.00038ZM491.922 84.9924H534.482V108.4H467.602V2.00038H533.722V25.4084H491.922V43.0404H529.922V66.1444H491.922V84.9924ZM568.267 108.4L538.931 2.00038H564.467L582.859 76.4804L603.379 2.00038H623.139L643.659 76.4804L662.051 2.00038H687.587L658.251 108.4H630.587L613.259 45.6244L595.931 108.4H568.267ZM792.171 2.00038H816.491V108.4H798.251L757.211 50.6404V108.4H732.891V2.00038H751.131L792.171 59.7604V2.00038ZM857.367 84.9924H899.927V108.4H833.047V2.00038H899.167V25.4084H857.367V43.0404H895.367V66.1444H857.367V84.9924ZM933.712 108.4L904.376 2.00038H929.912L948.304 76.4804L968.824 2.00038H988.584L1009.1 76.4804L1027.5 2.00038H1053.03L1023.7 108.4H996.032L978.704 45.6244L961.376 108.4H933.712ZM1157.62 2.00038H1181.94V108.4H1163.7L1122.66 50.6404V108.4H1098.34V2.00038H1116.58L1157.62 59.7604V2.00038ZM1222.81 84.9924H1265.37V108.4H1198.49V2.00038H1264.61V25.4084H1222.81V43.0404H1260.81V66.1444H1222.81V84.9924ZM1299.16 108.4L1269.82 2.00038H1295.36L1313.75 76.4804L1334.27 2.00038H1354.03L1374.55 76.4804L1392.94 2.00038H1418.48L1389.14 108.4H1361.48L1344.15 45.6244L1326.82 108.4H1299.16ZM1523.06 2.00038H1547.38V108.4H1529.14L1488.1 50.6404V108.4H1463.78V2.00038H1482.02L1523.06 59.7604V2.00038ZM1588.26 84.9924H1630.82V108.4H1563.94V2.00038H1630.06V25.4084H1588.26V43.0404H1626.26V66.1444H1588.26V84.9924ZM1664.6 108.4L1635.27 2.00038H1660.8L1679.19 76.4804L1699.71 2.00038H1719.47L1739.99 76.4804L1758.39 2.00038H1783.92L1754.59 108.4H1726.92L1709.59 45.6244L1692.27 108.4H1664.6Z"/>
</mask>
<path d="M61.2809 2.00038V0.00038147L59.2809 2.00038H61.2809ZM85.6009 2.00038H87.6009L85.6009 0.00038147V2.00038ZM85.6009 108.4V110.4L87.6009 108.4H85.6009ZM67.3609 108.4L65.7305 109.559L67.3609 110.4V108.4ZM26.3209 50.6404L27.9512 49.482L24.3209 50.6404H26.3209ZM26.3209 108.4V110.4L28.3209 108.4H26.3209ZM2.00086 108.4H0.000859737L2.00086 110.4V108.4ZM2.00086 2.00038V0.00038147L0.000859737 2.00038H2.00086ZM20.2409 2.00038L21.8712 0.841972L20.2409 0.00038147V2.00038ZM61.2809 59.7604L59.6505 60.9188L63.2809 59.7604H61.2809ZM61.2809 2.00038V4.00038H85.6009V2.00038V0.00038147H61.2809V2.00038ZM85.6009 2.00038H83.6009V108.4H85.6009H87.6009V2.00038H85.6009ZM85.6009 108.4V106.4H67.3609V108.4V110.4H85.6009V108.4ZM67.3609 108.4L68.9912 107.242L27.9512 49.482L26.3209 50.6404L24.6905 51.7988L65.7305 109.559L67.3609 108.4ZM26.3209 50.6404H24.3209V108.4H26.3209H28.3209V50.6404H26.3209ZM26.3209 108.4V106.4H2.00086V108.4V110.4H26.3209V108.4ZM2.00086 108.4H4.00086V2.00038H2.00086H0.000859737V108.4H2.00086ZM2.00086 2.00038V4.00038H20.2409V2.00038V0.00038147H2.00086V2.00038ZM20.2409 2.00038L18.6105 3.1588L59.6505 60.9188L61.2809 59.7604L62.9112 58.602L21.8712 0.841972L20.2409 2.00038ZM61.2809 59.7604H63.2809V2.00038H61.2809H59.2809V59.7604H61.2809ZM126.477 84.9924H124.477L126.477 86.9924V84.9924ZM169.037 84.9924H171.037L169.037 82.9924V84.9924ZM169.037 108.4V110.4L171.037 108.4H169.037ZM102.157 108.4H100.157L102.157 110.4V108.4ZM102.157 2.00038V0.00038147L100.157 2.00038H102.157ZM168.277 2.00038H170.277L168.277 0.00038147V2.00038ZM168.277 25.4084V27.4084L170.277 25.4084H168.277ZM126.477 25.4084V23.4084L124.477 25.4084H126.477ZM126.477 43.0404H124.477L126.477 45.0404V43.0404ZM164.477 43.0404H166.477L164.477 41.0404V43.0404ZM164.477 66.1444V68.1444L166.477 66.1444H164.477ZM126.477 66.1444V64.1444L124.477 66.1444H126.477ZM126.477 84.9924V86.9924H169.037V84.9924V82.9924H126.477V84.9924ZM169.037 84.9924H167.037V108.4H169.037H171.037V84.9924H169.037ZM169.037 108.4V106.4H102.157V108.4V110.4H169.037V108.4ZM102.157 108.4H104.157V2.00038H102.157H100.157V108.4H102.157ZM102.157 2.00038V4.00038H168.277V2.00038V0.00038147H102.157V2.00038ZM168.277 2.00038H166.277V25.4084H168.277H170.277V2.00038H168.277ZM168.277 25.4084V23.4084H126.477V25.4084V27.4084H168.277V25.4084ZM126.477 25.4084H124.477V43.0404H126.477H128.477V25.4084H126.477ZM126.477 43.0404V45.0404H164.477V43.0404V41.0404H126.477V43.0404ZM164.477 43.0404H162.477V66.1444H164.477H166.477V43.0404H164.477ZM164.477 66.1444V64.1444H126.477V66.1444V68.1444H164.477V66.1444ZM126.477 66.1444H124.477V84.9924H126.477H128.477V66.1444H126.477ZM202.823 108.4L200.895 108.932L202.823 110.4V108.4ZM173.487 2.00038V0.00038147L171.559 2.53197L173.487 2.00038ZM199.023 2.00038L200.964 1.52091L199.023 0.00038147V2.00038ZM217.415 76.4804L215.473 76.9599L219.343 77.0116L217.415 76.4804ZM237.935 2.00038V0.00038147L236.006 1.46915L237.935 2.00038ZM257.695 2.00038L259.623 1.46915L257.695 0.00038147V2.00038ZM278.215 76.4804L276.286 77.0116L280.156 76.9599L278.215 76.4804ZM296.607 2.00038V0.00038147L294.665 1.52091L296.607 2.00038ZM322.143 2.00038L324.071 2.53197L322.143 0.00038147V2.00038ZM292.807 108.4V110.4L294.735 108.932L292.807 108.4ZM265.143 108.4L263.215 108.933L265.143 110.4V108.4ZM247.815 45.6244L249.742 45.0922H245.887L247.815 45.6244ZM230.487 108.4V110.4L232.414 108.933L230.487 108.4ZM202.823 108.4L204.751 107.869L175.415 1.46879L173.487 2.00038L171.559 2.53197L200.895 108.932L202.823 108.4ZM173.487 2.00038V4.00038H199.023V2.00038V0.00038147H173.487V2.00038ZM199.023 2.00038L197.081 2.47986L215.473 76.9599L217.415 76.4804L219.356 76.0009L200.964 1.52091L199.023 2.00038ZM217.415 76.4804L219.343 77.0116L239.863 2.53161L237.935 2.00038L236.006 1.46915L215.486 75.9492L217.415 76.4804ZM237.935 2.00038V4.00038H257.695V2.00038V0.00038147H237.935V2.00038ZM257.695 2.00038L255.766 2.53161L276.286 77.0116L278.215 76.4804L280.143 75.9492L259.623 1.46915L257.695 2.00038ZM278.215 76.4804L280.156 76.9599L298.548 2.47986L296.607 2.00038L294.665 1.52091L276.273 76.0009L278.215 76.4804ZM296.607 2.00038V4.00038H322.143V2.00038V0.00038147H296.607V2.00038ZM322.143 2.00038L320.214 1.46879L290.878 107.869L292.807 108.4L294.735 108.932L324.071 2.53197L322.143 2.00038ZM292.807 108.4V106.4H265.143V108.4V110.4H292.807V108.4ZM265.143 108.4L267.07 107.868L249.742 45.0922L247.815 45.6244L245.887 46.1565L263.215 108.933L265.143 108.4ZM247.815 45.6244L245.887 45.0922L228.559 107.868L230.487 108.4L232.414 108.933L249.742 46.1565L247.815 45.6244ZM230.487 108.4V106.4H202.823V108.4V110.4H230.487V108.4ZM426.726 2.00038V0.00038147L424.726 2.00038H426.726ZM451.046 2.00038H453.046L451.046 0.00038147V2.00038ZM451.046 108.4V110.4L453.046 108.4H451.046ZM432.806 108.4L431.175 109.559L432.806 110.4V108.4ZM391.766 50.6404L393.396 49.482L389.766 50.6404H391.766ZM391.766 108.4V110.4L393.766 108.4H391.766ZM367.446 108.4H365.446L367.446 110.4V108.4ZM367.446 2.00038V0.00038147L365.446 2.00038H367.446ZM385.686 2.00038L387.316 0.841972L385.686 0.00038147V2.00038ZM426.726 59.7604L425.095 60.9188L428.726 59.7604H426.726ZM426.726 2.00038V4.00038H451.046V2.00038V0.00038147H426.726V2.00038ZM451.046 2.00038H449.046V108.4H451.046H453.046V2.00038H451.046ZM451.046 108.4V106.4H432.806V108.4V110.4H451.046V108.4ZM432.806 108.4L434.436 107.242L393.396 49.482L391.766 50.6404L390.135 51.7988L431.175 109.559L432.806 108.4ZM391.766 50.6404H389.766V108.4H391.766H393.766V50.6404H391.766ZM391.766 108.4V106.4H367.446V108.4V110.4H391.766V108.4ZM367.446 108.4H369.446V2.00038H367.446H365.446V108.4H367.446ZM367.446 2.00038V4.00038H385.686V2.00038V0.00038147H367.446V2.00038ZM385.686 2.00038L384.055 3.1588L425.095 60.9188L426.726 59.7604L428.356 58.602L387.316 0.841972L385.686 2.00038ZM426.726 59.7604H428.726V2.00038H426.726H424.726V59.7604H426.726ZM491.922 84.9924H489.922L491.922 86.9924V84.9924ZM534.482 84.9924H536.482L534.482 82.9924V84.9924ZM534.482 108.4V110.4L536.482 108.4H534.482ZM467.602 108.4H465.602L467.602 110.4V108.4ZM467.602 2.00038V0.00038147L465.602 2.00038H467.602ZM533.722 2.00038H535.722L533.722 0.00038147V2.00038ZM533.722 25.4084V27.4084L535.722 25.4084H533.722ZM491.922 25.4084V23.4084L489.922 25.4084H491.922ZM491.922 43.0404H489.922L491.922 45.0404V43.0404ZM529.922 43.0404H531.922L529.922 41.0404V43.0404ZM529.922 66.1444V68.1444L531.922 66.1444H529.922ZM491.922 66.1444V64.1444L489.922 66.1444H491.922ZM491.922 84.9924V86.9924H534.482V84.9924V82.9924H491.922V84.9924ZM534.482 84.9924H532.482V108.4H534.482H536.482V84.9924H534.482ZM534.482 108.4V106.4H467.602V108.4V110.4H534.482V108.4ZM467.602 108.4H469.602V2.00038H467.602H465.602V108.4H467.602ZM467.602 2.00038V4.00038H533.722V2.00038V0.00038147H467.602V2.00038ZM533.722 2.00038H531.722V25.4084H533.722H535.722V2.00038H533.722ZM533.722 25.4084V23.4084H491.922V25.4084V27.4084H533.722V25.4084ZM491.922 25.4084H489.922V43.0404H491.922H493.922V25.4084H491.922ZM491.922 43.0404V45.0404H529.922V43.0404V41.0404H491.922V43.0404ZM529.922 43.0404H527.922V66.1444H529.922H531.922V43.0404H529.922ZM529.922 66.1444V64.1444H491.922V66.1444V68.1444H529.922V66.1444ZM491.922 66.1444H489.922V84.9924H491.922H493.922V66.1444H491.922ZM568.267 108.4L566.339 108.932L568.267 110.4V108.4ZM538.931 2.00038V0.00038147L537.003 2.53197L538.931 2.00038ZM564.467 2.00038L566.409 1.52091L564.467 0.00038147V2.00038ZM582.859 76.4804L580.918 76.9599L584.788 77.0116L582.859 76.4804ZM603.379 2.00038V0.00038147L601.451 1.46915L603.379 2.00038ZM623.139 2.00038L625.068 1.46915L623.139 0.00038147V2.00038ZM643.659 76.4804L641.731 77.0116L645.601 76.9599L643.659 76.4804ZM662.051 2.00038V0.00038147L660.11 1.52091L662.051 2.00038ZM687.587 2.00038L689.515 2.53197L687.587 0.00038147V2.00038ZM658.251 108.4V110.4L660.179 108.932L658.251 108.4ZM630.587 108.4L628.659 108.933L630.587 110.4V108.4ZM613.259 45.6244L615.187 45.0922H611.331L613.259 45.6244ZM595.931 108.4V110.4L597.859 108.933L595.931 108.4ZM568.267 108.4L570.195 107.869L540.859 1.46879L538.931 2.00038L537.003 2.53197L566.339 108.932L568.267 108.4ZM538.931 2.00038V4.00038H564.467V2.00038V0.00038147H538.931V2.00038ZM564.467 2.00038L562.526 2.47986L580.918 76.9599L582.859 76.4804L584.801 76.0009L566.409 1.52091L564.467 2.00038ZM582.859 76.4804L584.788 77.0116L605.308 2.53161L603.379 2.00038L601.451 1.46915L580.931 75.9492L582.859 76.4804ZM603.379 2.00038V4.00038H623.139V2.00038V0.00038147H603.379V2.00038ZM623.139 2.00038L621.211 2.53161L641.731 77.0116L643.659 76.4804L645.588 75.9492L625.068 1.46915L623.139 2.00038ZM643.659 76.4804L645.601 76.9599L663.993 2.47986L662.051 2.00038L660.11 1.52091L641.718 76.0009L643.659 76.4804ZM662.051 2.00038V4.00038H687.587V2.00038V0.00038147H662.051V2.00038ZM687.587 2.00038L685.659 1.46879L656.323 107.869L658.251 108.4L660.179 108.932L689.515 2.53197L687.587 2.00038ZM658.251 108.4V106.4H630.587V108.4V110.4H658.251V108.4ZM630.587 108.4L632.515 107.868L615.187 45.0922L613.259 45.6244L611.331 46.1565L628.659 108.933L630.587 108.4ZM613.259 45.6244L611.331 45.0922L594.003 107.868L595.931 108.4L597.859 108.933L615.187 46.1565L613.259 45.6244ZM595.931 108.4V106.4H568.267V108.4V110.4H595.931V108.4ZM792.171 2.00038V0.00038147L790.171 2.00038H792.171ZM816.49 2.00038H818.49L816.49 0.00038147V2.00038ZM816.49 108.4V110.4L818.49 108.4H816.49ZM798.25 108.4L796.62 109.559L798.25 110.4V108.4ZM757.211 50.6404L758.841 49.482L755.211 50.6404H757.211ZM757.211 108.4V110.4L759.211 108.4H757.211ZM732.891 108.4H730.891L732.891 110.4V108.4ZM732.891 2.00038V0.00038147L730.891 2.00038H732.891ZM751.13 2.00038L752.761 0.841972L751.13 0.00038147V2.00038ZM792.171 59.7604L790.54 60.9188L794.171 59.7604H792.171ZM792.171 2.00038V4.00038H816.49V2.00038V0.00038147H792.171V2.00038ZM816.49 2.00038H814.49V108.4H816.49H818.49V2.00038H816.49ZM816.49 108.4V106.4H798.25V108.4V110.4H816.49V108.4ZM798.25 108.4L799.881 107.242L758.841 49.482L757.211 50.6404L755.58 51.7988L796.62 109.559L798.25 108.4ZM757.211 50.6404H755.211V108.4H757.211H759.211V50.6404H757.211ZM757.211 108.4V106.4H732.891V108.4V110.4H757.211V108.4ZM732.891 108.4H734.891V2.00038H732.891H730.891V108.4H732.891ZM732.891 2.00038V4.00038H751.13V2.00038V0.00038147H732.891V2.00038ZM751.13 2.00038L749.5 3.1588L790.54 60.9188L792.171 59.7604L793.801 58.602L752.761 0.841972L751.13 2.00038ZM792.171 59.7604H794.171V2.00038H792.171H790.171V59.7604H792.171ZM857.367 84.9924H855.367L857.367 86.9924V84.9924ZM899.927 84.9924H901.927L899.927 82.9924V84.9924ZM899.927 108.4V110.4L901.927 108.4H899.927ZM833.047 108.4H831.047L833.047 110.4V108.4ZM833.047 2.00038V0.00038147L831.047 2.00038H833.047ZM899.167 2.00038H901.167L899.167 0.00038147V2.00038ZM899.167 25.4084V27.4084L901.167 25.4084H899.167ZM857.367 25.4084V23.4084L855.367 25.4084H857.367ZM857.367 43.0404H855.367L857.367 45.0404V43.0404ZM895.367 43.0404H897.367L895.367 41.0404V43.0404ZM895.367 66.1444V68.1444L897.367 66.1444H895.367ZM857.367 66.1444V64.1444L855.367 66.1444H857.367ZM857.367 84.9924V86.9924H899.927V84.9924V82.9924H857.367V84.9924ZM899.927 84.9924H897.927V108.4H899.927H901.927V84.9924H899.927ZM899.927 108.4V106.4H833.047V108.4V110.4H899.927V108.4ZM833.047 108.4H835.047V2.00038H833.047H831.047V108.4H833.047ZM833.047 2.00038V4.00038H899.167V2.00038V0.00038147H833.047V2.00038ZM899.167 2.00038H897.167V25.4084H899.167H901.167V2.00038H899.167ZM899.167 25.4084V23.4084H857.367V25.4084V27.4084H899.167V25.4084ZM857.367 25.4084H855.367V43.0404H857.367H859.367V25.4084H857.367ZM857.367 43.0404V45.0404H895.367V43.0404V41.0404H857.367V43.0404ZM895.367 43.0404H893.367V66.1444H895.367H897.367V43.0404H895.367ZM895.367 66.1444V64.1444H857.367V66.1444V68.1444H895.367V66.1444ZM857.367 66.1444H855.367V84.9924H857.367H859.367V66.1444H857.367ZM933.712 108.4L931.784 108.932L933.712 110.4V108.4ZM904.376 2.00038V0.00038147L902.448 2.53197L904.376 2.00038ZM929.912 2.00038L931.854 1.52091L929.912 0.00038147V2.00038ZM948.304 76.4804L946.363 76.9599L950.232 77.0116L948.304 76.4804ZM968.824 2.00038V0.00038147L966.896 1.46915L968.824 2.00038ZM988.584 2.00038L990.512 1.46915L988.584 0.00038147V2.00038ZM1009.1 76.4804L1007.18 77.0116L1011.05 76.9599L1009.1 76.4804ZM1027.5 2.00038V0.00038147L1025.55 1.52091L1027.5 2.00038ZM1053.03 2.00038L1054.96 2.53197L1053.03 0.00038147V2.00038ZM1023.7 108.4V110.4L1025.62 108.932L1023.7 108.4ZM996.032 108.4L994.104 108.933L996.032 110.4V108.4ZM978.704 45.6244L980.632 45.0922H976.776L978.704 45.6244ZM961.376 108.4V110.4L963.304 108.933L961.376 108.4ZM933.712 108.4L935.64 107.869L906.304 1.46879L904.376 2.00038L902.448 2.53197L931.784 108.932L933.712 108.4ZM904.376 2.00038V4.00038H929.912V2.00038V0.00038147H904.376V2.00038ZM929.912 2.00038L927.971 2.47986L946.363 76.9599L948.304 76.4804L950.246 76.0009L931.854 1.52091L929.912 2.00038ZM948.304 76.4804L950.232 77.0116L970.752 2.53161L968.824 2.00038L966.896 1.46915L946.376 75.9492L948.304 76.4804ZM968.824 2.00038V4.00038H988.584V2.00038V0.00038147H968.824V2.00038ZM988.584 2.00038L986.656 2.53161L1007.18 77.0116L1009.1 76.4804L1011.03 75.9492L990.512 1.46915L988.584 2.00038ZM1009.1 76.4804L1011.05 76.9599L1029.44 2.47986L1027.5 2.00038L1025.55 1.52091L1007.16 76.0009L1009.1 76.4804ZM1027.5 2.00038V4.00038H1053.03V2.00038V0.00038147H1027.5V2.00038ZM1053.03 2.00038L1051.1 1.46879L1021.77 107.869L1023.7 108.4L1025.62 108.932L1054.96 2.53197L1053.03 2.00038ZM1023.7 108.4V106.4H996.032V108.4V110.4H1023.7V108.4ZM996.032 108.4L997.96 107.868L980.632 45.0922L978.704 45.6244L976.776 46.1565L994.104 108.933L996.032 108.4ZM978.704 45.6244L976.776 45.0922L959.448 107.868L961.376 108.4L963.304 108.933L980.632 46.1565L978.704 45.6244ZM961.376 108.4V106.4H933.712V108.4V110.4H961.376V108.4ZM1157.62 2.00038V0.00038147L1155.62 2.00038H1157.62ZM1181.94 2.00038H1183.94L1181.94 0.00038147V2.00038ZM1181.94 108.4V110.4L1183.94 108.4H1181.94ZM1163.7 108.4L1162.06 109.559L1163.7 110.4V108.4ZM1122.66 50.6404L1124.29 49.482L1120.66 50.6404H1122.66ZM1122.66 108.4V110.4L1124.66 108.4H1122.66ZM1098.34 108.4H1096.34L1098.34 110.4V108.4ZM1098.34 2.00038V0.00038147L1096.34 2.00038H1098.34ZM1116.58 2.00038L1118.21 0.841972L1116.58 0.00038147V2.00038ZM1157.62 59.7604L1155.98 60.9188L1159.62 59.7604H1157.62ZM1157.62 2.00038V4.00038H1181.94V2.00038V0.00038147H1157.62V2.00038ZM1181.94 2.00038H1179.94V108.4H1181.94H1183.94V2.00038H1181.94ZM1181.94 108.4V106.4H1163.7V108.4V110.4H1181.94V108.4ZM1163.7 108.4L1165.33 107.242L1124.29 49.482L1122.66 50.6404L1121.03 51.7988L1162.06 109.559L1163.7 108.4ZM1122.66 50.6404H1120.66V108.4H1122.66H1124.66V50.6404H1122.66ZM1122.66 108.4V106.4H1098.34V108.4V110.4H1122.66V108.4ZM1098.34 108.4H1100.34V2.00038H1098.34H1096.34V108.4H1098.34ZM1098.34 2.00038V4.00038H1116.58V2.00038V0.00038147H1098.34V2.00038ZM1116.58 2.00038L1114.94 3.1588L1155.98 60.9188L1157.62 59.7604L1159.25 58.602L1118.21 0.841972L1116.58 2.00038ZM1157.62 59.7604H1159.62V2.00038H1157.62H1155.62V59.7604H1157.62ZM1222.81 84.9924H1220.81L1222.81 86.9924V84.9924ZM1265.37 84.9924H1267.37L1265.37 82.9924V84.9924ZM1265.37 108.4V110.4L1267.37 108.4H1265.37ZM1198.49 108.4H1196.49L1198.49 110.4V108.4ZM1198.49 2.00038V0.00038147L1196.49 2.00038H1198.49ZM1264.61 2.00038H1266.61L1264.61 0.00038147V2.00038ZM1264.61 25.4084V27.4084L1266.61 25.4084H1264.61ZM1222.81 25.4084V23.4084L1220.81 25.4084H1222.81ZM1222.81 43.0404H1220.81L1222.81 45.0404V43.0404ZM1260.81 43.0404H1262.81L1260.81 41.0404V43.0404ZM1260.81 66.1444V68.1444L1262.81 66.1444H1260.81ZM1222.81 66.1444V64.1444L1220.81 66.1444H1222.81ZM1222.81 84.9924V86.9924H1265.37V84.9924V82.9924H1222.81V84.9924ZM1265.37 84.9924H1263.37V108.4H1265.37H1267.37V84.9924H1265.37ZM1265.37 108.4V106.4H1198.49V108.4V110.4H1265.37V108.4ZM1198.49 108.4H1200.49V2.00038H1198.49H1196.49V108.4H1198.49ZM1198.49 2.00038V4.00038H1264.61V2.00038V0.00038147H1198.49V2.00038ZM1264.61 2.00038H1262.61V25.4084H1264.61H1266.61V2.00038H1264.61ZM1264.61 25.4084V23.4084H1222.81V25.4084V27.4084H1264.61V25.4084ZM1222.81 25.4084H1220.81V43.0404H1222.81H1224.81V25.4084H1222.81ZM1222.81 43.0404V45.0404H1260.81V43.0404V41.0404H1222.81V43.0404ZM1260.81 43.0404H1258.81V66.1444H1260.81H1262.81V43.0404H1260.81ZM1260.81 66.1444V64.1444H1222.81V66.1444V68.1444H1260.81V66.1444ZM1222.81 66.1444H1220.81V84.9924H1222.81H1224.81V66.1444H1222.81ZM1299.16 108.4L1297.23 108.932L1299.16 110.4V108.4ZM1269.82 2.00038V0.00038147L1267.89 2.53197L1269.82 2.00038ZM1295.36 2.00038L1297.3 1.52091L1295.36 0.00038147V2.00038ZM1313.75 76.4804L1311.81 76.9599L1315.68 77.0116L1313.75 76.4804ZM1334.27 2.00038V0.00038147L1332.34 1.46915L1334.27 2.00038ZM1354.03 2.00038L1355.96 1.46915L1354.03 0.00038147V2.00038ZM1374.55 76.4804L1372.62 77.0116L1376.49 76.9599L1374.55 76.4804ZM1392.94 2.00038V0.00038147L1391 1.52091L1392.94 2.00038ZM1418.48 2.00038L1420.41 2.53197L1418.48 0.00038147V2.00038ZM1389.14 108.4V110.4L1391.07 108.932L1389.14 108.4ZM1361.48 108.4L1359.55 108.933L1361.48 110.4V108.4ZM1344.15 45.6244L1346.08 45.0922H1342.22L1344.15 45.6244ZM1326.82 108.4V110.4L1328.75 108.933L1326.82 108.4ZM1299.16 108.4L1301.09 107.869L1271.75 1.46879L1269.82 2.00038L1267.89 2.53197L1297.23 108.932L1299.16 108.4ZM1269.82 2.00038V4.00038H1295.36V2.00038V0.00038147H1269.82V2.00038ZM1295.36 2.00038L1293.42 2.47986L1311.81 76.9599L1313.75 76.4804L1315.69 76.0009L1297.3 1.52091L1295.36 2.00038ZM1313.75 76.4804L1315.68 77.0116L1336.2 2.53161L1334.27 2.00038L1332.34 1.46915L1311.82 75.9492L1313.75 76.4804ZM1334.27 2.00038V4.00038H1354.03V2.00038V0.00038147H1334.27V2.00038ZM1354.03 2.00038L1352.1 2.53161L1372.62 77.0116L1374.55 76.4804L1376.48 75.9492L1355.96 1.46915L1354.03 2.00038ZM1374.55 76.4804L1376.49 76.9599L1394.88 2.47986L1392.94 2.00038L1391 1.52091L1372.61 76.0009L1374.55 76.4804ZM1392.94 2.00038V4.00038H1418.48V2.00038V0.00038147H1392.94V2.00038ZM1418.48 2.00038L1416.55 1.46879L1387.21 107.869L1389.14 108.4L1391.07 108.932L1420.41 2.53197L1418.48 2.00038ZM1389.14 108.4V106.4H1361.48V108.4V110.4H1389.14V108.4ZM1361.48 108.4L1363.4 107.868L1346.08 45.0922L1344.15 45.6244L1342.22 46.1565L1359.55 108.933L1361.48 108.4ZM1344.15 45.6244L1342.22 45.0922L1324.89 107.868L1326.82 108.4L1328.75 108.933L1346.08 46.1565L1344.15 45.6244ZM1326.82 108.4V106.4H1299.16V108.4V110.4H1326.82V108.4ZM1523.06 2.00038V0.00038147L1521.06 2.00038H1523.06ZM1547.38 2.00038H1549.38L1547.38 0.00038147V2.00038ZM1547.38 108.4V110.4L1549.38 108.4H1547.38ZM1529.14 108.4L1527.51 109.559L1529.14 110.4V108.4ZM1488.1 50.6404L1489.73 49.482L1486.1 50.6404H1488.1ZM1488.1 108.4V110.4L1490.1 108.4H1488.1ZM1463.78 108.4H1461.78L1463.78 110.4V108.4ZM1463.78 2.00038V0.00038147L1461.78 2.00038H1463.78ZM1482.02 2.00038L1483.65 0.841972L1482.02 0.00038147V2.00038ZM1523.06 59.7604L1521.43 60.9188L1525.06 59.7604H1523.06ZM1523.06 2.00038V4.00038H1547.38V2.00038V0.00038147H1523.06V2.00038ZM1547.38 2.00038H1545.38V108.4H1547.38H1549.38V2.00038H1547.38ZM1547.38 108.4V106.4H1529.14V108.4V110.4H1547.38V108.4ZM1529.14 108.4L1530.77 107.242L1489.73 49.482L1488.1 50.6404L1486.47 51.7988L1527.51 109.559L1529.14 108.4ZM1488.1 50.6404H1486.1V108.4H1488.1H1490.1V50.6404H1488.1ZM1488.1 108.4V106.4H1463.78V108.4V110.4H1488.1V108.4ZM1463.78 108.4H1465.78V2.00038H1463.78H1461.78V108.4H1463.78ZM1463.78 2.00038V4.00038H1482.02V2.00038V0.00038147H1463.78V2.00038ZM1482.02 2.00038L1480.39 3.1588L1521.43 60.9188L1523.06 59.7604L1524.69 58.602L1483.65 0.841972L1482.02 2.00038ZM1523.06 59.7604H1525.06V2.00038H1523.06H1521.06V59.7604H1523.06ZM1588.26 84.9924H1586.26L1588.26 86.9924V84.9924ZM1630.82 84.9924H1632.82L1630.82 82.9924V84.9924ZM1630.82 108.4V110.4L1632.82 108.4H1630.82ZM1563.94 108.4H1561.94L1563.94 110.4V108.4ZM1563.94 2.00038V0.00038147L1561.94 2.00038H1563.94ZM1630.06 2.00038H1632.06L1630.06 0.00038147V2.00038ZM1630.06 25.4084V27.4084L1632.06 25.4084H1630.06ZM1588.26 25.4084V23.4084L1586.26 25.4084H1588.26ZM1588.26 43.0404H1586.26L1588.26 45.0404V43.0404ZM1626.26 43.0404H1628.26L1626.26 41.0404V43.0404ZM1626.26 66.1444V68.1444L1628.26 66.1444H1626.26ZM1588.26 66.1444V64.1444L1586.26 66.1444H1588.26ZM1588.26 84.9924V86.9924H1630.82V84.9924V82.9924H1588.26V84.9924ZM1630.82 84.9924H1628.82V108.4H1630.82H1632.82V84.9924H1630.82ZM1630.82 108.4V106.4H1563.94V108.4V110.4H1630.82V108.4ZM1563.94 108.4H1565.94V2.00038H1563.94H1561.94V108.4H1563.94ZM1563.94 2.00038V4.00038H1630.06V2.00038V0.00038147H1563.94V2.00038ZM1630.06 2.00038H1628.06V25.4084H1630.06H1632.06V2.00038H1630.06ZM1630.06 25.4084V23.4084H1588.26V25.4084V27.4084H1630.06V25.4084ZM1588.26 25.4084H1586.26V43.0404H1588.26H1590.26V25.4084H1588.26ZM1588.26 43.0404V45.0404H1626.26V43.0404V41.0404H1588.26V43.0404ZM1626.26 43.0404H1624.26V66.1444H1626.26H1628.26V43.0404H1626.26ZM1626.26 66.1444V64.1444H1588.26V66.1444V68.1444H1626.26V66.1444ZM1588.26 66.1444H1586.26V84.9924H1588.26H1590.26V66.1444H1588.26ZM1664.6 108.4L1662.67 108.932L1664.6 110.4V108.4ZM1635.27 2.00038V0.00038147L1633.34 2.53197L1635.27 2.00038ZM1660.8 2.00038L1662.74 1.52091L1660.8 0.00038147V2.00038ZM1679.19 76.4804L1677.25 76.9599L1681.12 77.0116L1679.19 76.4804ZM1699.71 2.00038V0.00038147L1697.79 1.46915L1699.71 2.00038ZM1719.47 2.00038L1721.4 1.46915L1719.47 0.00038147V2.00038ZM1739.99 76.4804L1738.07 77.0116L1741.94 76.9599L1739.99 76.4804ZM1758.39 2.00038V0.00038147L1756.44 1.52091L1758.39 2.00038ZM1783.92 2.00038L1785.85 2.53197L1783.92 0.00038147V2.00038ZM1754.59 108.4V110.4L1756.51 108.932L1754.59 108.4ZM1726.92 108.4L1724.99 108.933L1726.92 110.4V108.4ZM1709.59 45.6244L1711.52 45.0922H1707.67L1709.59 45.6244ZM1692.27 108.4V110.4L1694.19 108.933L1692.27 108.4ZM1664.6 108.4L1666.53 107.869L1637.19 1.46879L1635.27 2.00038L1633.34 2.53197L1662.67 108.932L1664.6 108.4ZM1635.27 2.00038V4.00038H1660.8V2.00038V0.00038147H1635.27V2.00038ZM1660.8 2.00038L1658.86 2.47986L1677.25 76.9599L1679.19 76.4804L1681.14 76.0009L1662.74 1.52091L1660.8 2.00038ZM1679.19 76.4804L1681.12 77.0116L1701.64 2.53161L1699.71 2.00038L1697.79 1.46915L1677.27 75.9492L1679.19 76.4804ZM1699.71 2.00038V4.00038H1719.47V2.00038V0.00038147H1699.71V2.00038ZM1719.47 2.00038L1717.55 2.53161L1738.07 77.0116L1739.99 76.4804L1741.92 75.9492L1721.4 1.46915L1719.47 2.00038ZM1739.99 76.4804L1741.94 76.9599L1760.33 2.47986L1758.39 2.00038L1756.44 1.52091L1738.05 76.0009L1739.99 76.4804ZM1758.39 2.00038V4.00038H1783.92V2.00038V0.00038147H1758.39V2.00038ZM1783.92 2.00038L1781.99 1.46879L1752.66 107.869L1754.59 108.4L1756.51 108.932L1785.85 2.53197L1783.92 2.00038ZM1754.59 108.4V106.4H1726.92V108.4V110.4H1754.59V108.4ZM1726.92 108.4L1728.85 107.868L1711.52 45.0922L1709.59 45.6244L1707.67 46.1565L1724.99 108.933L1726.92 108.4ZM1709.59 45.6244L1707.67 45.0922L1690.34 107.868L1692.27 108.4L1694.19 108.933L1711.52 46.1565L1709.59 45.6244ZM1692.27 108.4V106.4H1664.6V108.4V110.4H1692.27V108.4Z" fill="white" mask="url(#path-1-outside-1_1891_893)"/>
</svg>
