<svg width="2349" height="144" viewBox="0 0 2349 144" fill="none" xmlns="http://www.w3.org/2000/svg">
<mask id="path-1-outside-1_1550_492" maskUnits="userSpaceOnUse" x="0" y="0" width="2349" height="144" fill="black">
<rect fill="white" width="2349" height="144"/>
<path d="M80 1.99999H112V142H88L34 66V142H2V1.99999H26L80 78V1.99999ZM165.784 111.2H221.784V142H133.784V1.99999H220.784V32.8H165.784V56H215.784V86.4H165.784V111.2ZM266.239 142L227.639 1.99999H261.239L285.439 100L312.439 1.99999H338.439L365.439 100L389.639 1.99999H423.239L384.639 142H348.239L325.439 59.4L302.639 142H266.239ZM560.848 1.99999H592.848V142H568.848L514.848 66V142H482.848V1.99999H506.848L560.848 78V1.99999ZM646.633 111.2H702.633V142H614.633V1.99999H701.633V32.8H646.633V56H696.633V86.4H646.633V111.2ZM747.087 142L708.487 1.99999H742.087L766.287 100L793.287 1.99999H819.287L846.287 100L870.487 1.99999H904.087L865.487 142H829.087L806.287 59.4L783.487 142H747.087ZM1041.7 1.99999H1073.7V142H1049.7L995.697 66V142H963.697V1.99999H987.697L1041.7 78V1.99999ZM1127.48 111.2H1183.48V142H1095.48V1.99999H1182.48V32.8H1127.48V56H1177.48V86.4H1127.48V111.2ZM1227.94 142L1189.34 1.99999H1222.94L1247.14 100L1274.14 1.99999H1300.14L1327.14 100L1351.34 1.99999H1384.94L1346.34 142H1309.94L1287.14 59.4L1264.34 142H1227.94ZM1522.55 1.99999H1554.55V142H1530.55L1476.55 66V142H1444.55V1.99999H1468.55L1522.55 78V1.99999ZM1608.33 111.2H1664.33V142H1576.33V1.99999H1663.33V32.8H1608.33V56H1658.33V86.4H1608.33V111.2ZM1708.78 142L1670.18 1.99999H1703.78L1727.98 100L1754.98 1.99999H1780.98L1807.98 100L1832.18 1.99999H1865.78L1827.18 142H1790.78L1767.98 59.4L1745.18 142H1708.78ZM2003.39 1.99999H2035.39V142H2011.39L1957.39 66V142H1925.39V1.99999H1949.39L2003.39 78V1.99999ZM2089.18 111.2H2145.18V142H2057.18V1.99999H2144.18V32.8H2089.18V56H2139.18V86.4H2089.18V111.2ZM2189.63 142L2151.03 1.99999H2184.63L2208.83 100L2235.83 1.99999H2261.83L2288.83 100L2313.03 1.99999H2346.63L2308.03 142H2271.63L2248.83 59.4L2226.03 142H2189.63Z"/>
</mask>
<path d="M80 1.99998V-1.52588e-05L78 1.99998H80ZM112 1.99998H114L112 -1.52588e-05V1.99998ZM112 142V144L114 142H112ZM88 142L86.3696 143.158L88 144V142ZM34 66L35.6304 64.8416L32 66H34ZM34 142V144L36 142H34ZM2 142H0L2 144V142ZM2 1.99998V-1.52588e-05L0 1.99998H2ZM26 1.99998L27.6304 0.841583L26 -1.52588e-05V1.99998ZM80 78L78.3696 79.1584L82 78H80ZM80 1.99998V3.99998H112V1.99998V-1.52588e-05H80V1.99998ZM112 1.99998H110V142H112H114V1.99998H112ZM112 142V140H88V142V144H112V142ZM88 142L89.6304 140.842L35.6304 64.8416L34 66L32.3696 67.1584L86.3696 143.158L88 142ZM34 66H32V142H34H36V66H34ZM34 142V140H2V142V144H34V142ZM2 142H4V1.99998H2H0V142H2ZM2 1.99998V3.99998H26V1.99998V-1.52588e-05H2V1.99998ZM26 1.99998L24.3696 3.1584L78.3696 79.1584L80 78L81.6304 76.8416L27.6304 0.841583L26 1.99998ZM80 78H82V1.99998H80H78V78H80ZM165.784 111.2H163.784L165.784 113.2V111.2ZM221.784 111.2H223.784L221.784 109.2V111.2ZM221.784 142V144L223.784 142H221.784ZM133.784 142H131.784L133.784 144V142ZM133.784 1.99998V-1.52588e-05L131.784 1.99998H133.784ZM220.784 1.99998H222.784L220.784 -1.52588e-05V1.99998ZM220.784 32.8V34.8L222.784 32.8H220.784ZM165.784 32.8V30.8L163.784 32.8H165.784ZM165.784 56H163.784L165.784 58V56ZM215.784 56H217.784L215.784 54V56ZM215.784 86.4V88.4L217.784 86.4H215.784ZM165.784 86.4V84.4L163.784 86.4H165.784ZM165.784 111.2V113.2H221.784V111.2V109.2H165.784V111.2ZM221.784 111.2H219.784V142H221.784H223.784V111.2H221.784ZM221.784 142V140H133.784V142V144H221.784V142ZM133.784 142H135.784V1.99998H133.784H131.784V142H133.784ZM133.784 1.99998V3.99998H220.784V1.99998V-1.52588e-05H133.784V1.99998ZM220.784 1.99998H218.784V32.8H220.784H222.784V1.99998H220.784ZM220.784 32.8V30.8H165.784V32.8V34.8H220.784V32.8ZM165.784 32.8H163.784V56H165.784H167.784V32.8H165.784ZM165.784 56V58H215.784V56V54H165.784V56ZM215.784 56H213.784V86.4H215.784H217.784V56H215.784ZM215.784 86.4V84.4H165.784V86.4V88.4H215.784V86.4ZM165.784 86.4H163.784V111.2H165.784H167.784V86.4H165.784ZM266.239 142L264.311 142.532L266.239 144V142ZM227.639 1.99998V-1.52588e-05L225.711 2.53159L227.639 1.99998ZM261.239 1.99998L263.181 1.52052L261.239 -1.52588e-05V1.99998ZM285.439 100L283.497 100.479L287.367 100.531L285.439 100ZM312.439 1.99998V-1.52588e-05L310.511 1.46877L312.439 1.99998ZM338.439 1.99998L340.367 1.46877L338.439 -1.52588e-05V1.99998ZM365.439 100L363.511 100.531L367.381 100.479L365.439 100ZM389.639 1.99998V-1.52588e-05L387.697 1.52052L389.639 1.99998ZM423.239 1.99998L425.167 2.53159L423.239 -1.52588e-05V1.99998ZM384.639 142V144L386.567 142.532L384.639 142ZM348.239 142L346.311 142.532L348.239 144V142ZM325.439 59.4L327.367 58.8678H323.511L325.439 59.4ZM302.639 142V144L304.567 142.532L302.639 142ZM266.239 142L268.167 141.468L229.567 1.4684L227.639 1.99998L225.711 2.53159L264.311 142.532L266.239 142ZM227.639 1.99998V3.99998H261.239V1.99998V-1.52588e-05H227.639V1.99998ZM261.239 1.99998L259.297 2.47946L283.497 100.479L285.439 100L287.381 99.5205L263.181 1.52052L261.239 1.99998ZM285.439 100L287.367 100.531L314.367 2.53122L312.439 1.99998L310.511 1.46877L283.511 99.4688L285.439 100ZM312.439 1.99998V3.99998H338.439V1.99998V-1.52588e-05H312.439V1.99998ZM338.439 1.99998L336.511 2.53122L363.511 100.531L365.439 100L367.367 99.4688L340.367 1.46877L338.439 1.99998ZM365.439 100L367.381 100.479L391.581 2.47946L389.639 1.99998L387.697 1.52052L363.497 99.5205L365.439 100ZM389.639 1.99998V3.99998H423.239V1.99998V-1.52588e-05H389.639V1.99998ZM423.239 1.99998L421.311 1.4684L382.711 141.468L384.639 142L386.567 142.532L425.167 2.53159L423.239 1.99998ZM384.639 142V140H348.239V142V144H384.639V142ZM348.239 142L350.167 141.468L327.367 58.8678L325.439 59.4L323.511 59.9322L346.311 142.532L348.239 142ZM325.439 59.4L323.511 58.8678L300.711 141.468L302.639 142L304.567 142.532L327.367 59.9322L325.439 59.4ZM302.639 142V140H266.239V142V144H302.639V142ZM560.848 1.99998V-1.52588e-05L558.848 1.99998H560.848ZM592.848 1.99998H594.848L592.848 -1.52588e-05V1.99998ZM592.848 142V144L594.848 142H592.848ZM568.848 142L567.218 143.158L568.848 144V142ZM514.848 66L516.479 64.8416L512.848 66H514.848ZM514.848 142V144L516.848 142H514.848ZM482.848 142H480.848L482.848 144V142ZM482.848 1.99998V-1.52588e-05L480.848 1.99998H482.848ZM506.848 1.99998L508.479 0.841583L506.848 -1.52588e-05V1.99998ZM560.848 78L559.218 79.1584L562.848 78H560.848ZM560.848 1.99998V3.99998H592.848V1.99998V-1.52588e-05H560.848V1.99998ZM592.848 1.99998H590.848V142H592.848H594.848V1.99998H592.848ZM592.848 142V140H568.848V142V144H592.848V142ZM568.848 142L570.479 140.842L516.479 64.8416L514.848 66L513.218 67.1584L567.218 143.158L568.848 142ZM514.848 66H512.848V142H514.848H516.848V66H514.848ZM514.848 142V140H482.848V142V144H514.848V142ZM482.848 142H484.848V1.99998H482.848H480.848V142H482.848ZM482.848 1.99998V3.99998H506.848V1.99998V-1.52588e-05H482.848V1.99998ZM506.848 1.99998L505.218 3.1584L559.218 79.1584L560.848 78L562.479 76.8416L508.479 0.841583L506.848 1.99998ZM560.848 78H562.848V1.99998H560.848H558.848V78H560.848ZM646.633 111.2H644.633L646.633 113.2V111.2ZM702.633 111.2H704.633L702.633 109.2V111.2ZM702.633 142V144L704.633 142H702.633ZM614.633 142H612.633L614.633 144V142ZM614.633 1.99998V-1.52588e-05L612.633 1.99998H614.633ZM701.633 1.99998H703.633L701.633 -1.52588e-05V1.99998ZM701.633 32.8V34.8L703.633 32.8H701.633ZM646.633 32.8V30.8L644.633 32.8H646.633ZM646.633 56H644.633L646.633 58V56ZM696.633 56H698.633L696.633 54V56ZM696.633 86.4V88.4L698.633 86.4H696.633ZM646.633 86.4V84.4L644.633 86.4H646.633ZM646.633 111.2V113.2H702.633V111.2V109.2H646.633V111.2ZM702.633 111.2H700.633V142H702.633H704.633V111.2H702.633ZM702.633 142V140H614.633V142V144H702.633V142ZM614.633 142H616.633V1.99998H614.633H612.633V142H614.633ZM614.633 1.99998V3.99998H701.633V1.99998V-1.52588e-05H614.633V1.99998ZM701.633 1.99998H699.633V32.8H701.633H703.633V1.99998H701.633ZM701.633 32.8V30.8H646.633V32.8V34.8H701.633V32.8ZM646.633 32.8H644.633V56H646.633H648.633V32.8H646.633ZM646.633 56V58H696.633V56V54H646.633V56ZM696.633 56H694.633V86.4H696.633H698.633V56H696.633ZM696.633 86.4V84.4H646.633V86.4V88.4H696.633V86.4ZM646.633 86.4H644.633V111.2H646.633H648.633V86.4H646.633ZM747.087 142L745.159 142.532L747.087 144V142ZM708.487 1.99998V-1.52588e-05L706.559 2.53159L708.487 1.99998ZM742.087 1.99998L744.029 1.52052L742.087 -1.52588e-05V1.99998ZM766.287 100L764.346 100.479L768.216 100.531L766.287 100ZM793.287 1.99998V-1.52588e-05L791.359 1.46877L793.287 1.99998ZM819.287 1.99998L821.216 1.46877L819.287 -1.52588e-05V1.99998ZM846.287 100L844.359 100.531L848.229 100.479L846.287 100ZM870.487 1.99998V-1.52588e-05L868.546 1.52052L870.487 1.99998ZM904.088 1.99998L906.016 2.53159L904.088 -1.52588e-05V1.99998ZM865.487 142V144L867.416 142.532L865.487 142ZM829.088 142L827.16 142.532L829.088 144V142ZM806.287 59.4L808.215 58.8678H804.36L806.287 59.4ZM783.487 142V144L785.415 142.532L783.487 142ZM747.087 142L749.016 141.468L710.416 1.4684L708.487 1.99998L706.559 2.53159L745.159 142.532L747.087 142ZM708.487 1.99998V3.99998H742.087V1.99998V-1.52588e-05H708.487V1.99998ZM742.087 1.99998L740.146 2.47946L764.346 100.479L766.287 100L768.229 99.5205L744.029 1.52052L742.087 1.99998ZM766.287 100L768.216 100.531L795.216 2.53122L793.287 1.99998L791.359 1.46877L764.359 99.4688L766.287 100ZM793.287 1.99998V3.99998H819.287V1.99998V-1.52588e-05H793.287V1.99998ZM819.287 1.99998L817.359 2.53122L844.359 100.531L846.287 100L848.216 99.4688L821.216 1.46877L819.287 1.99998ZM846.287 100L848.229 100.479L872.429 2.47946L870.487 1.99998L868.546 1.52052L844.346 99.5205L846.287 100ZM870.487 1.99998V3.99998H904.088V1.99998V-1.52588e-05H870.487V1.99998ZM904.088 1.99998L902.159 1.4684L863.559 141.468L865.487 142L867.416 142.532L906.016 2.53159L904.088 1.99998ZM865.487 142V140H829.088V142V144H865.487V142ZM829.088 142L831.015 141.468L808.215 58.8678L806.287 59.4L804.36 59.9322L827.16 142.532L829.088 142ZM806.287 59.4L804.36 58.8678L781.56 141.468L783.487 142L785.415 142.532L808.215 59.9322L806.287 59.4ZM783.487 142V140H747.087V142V144H783.487V142ZM1041.7 1.99998V-1.52588e-05L1039.7 1.99998H1041.7ZM1073.7 1.99998H1075.7L1073.7 -1.52588e-05V1.99998ZM1073.7 142V144L1075.7 142H1073.7ZM1049.7 142L1048.07 143.158L1049.7 144V142ZM995.697 66L997.327 64.8416L993.697 66H995.697ZM995.697 142V144L997.697 142H995.697ZM963.697 142H961.697L963.697 144V142ZM963.697 1.99998V-1.52588e-05L961.697 1.99998H963.697ZM987.697 1.99998L989.327 0.841583L987.697 -1.52588e-05V1.99998ZM1041.7 78L1040.07 79.1584L1043.7 78H1041.7ZM1041.7 1.99998V3.99998H1073.7V1.99998V-1.52588e-05H1041.7V1.99998ZM1073.7 1.99998H1071.7V142H1073.7H1075.7V1.99998H1073.7ZM1073.7 142V140H1049.7V142V144H1073.7V142ZM1049.7 142L1051.33 140.842L997.327 64.8416L995.697 66L994.067 67.1584L1048.07 143.158L1049.7 142ZM995.697 66H993.697V142H995.697H997.697V66H995.697ZM995.697 142V140H963.697V142V144H995.697V142ZM963.697 142H965.697V1.99998H963.697H961.697V142H963.697ZM963.697 1.99998V3.99998H987.697V1.99998V-1.52588e-05H963.697V1.99998ZM987.697 1.99998L986.067 3.1584L1040.07 79.1584L1041.7 78L1043.33 76.8416L989.327 0.841583L987.697 1.99998ZM1041.7 78H1043.7V1.99998H1041.7H1039.7V78H1041.7ZM1127.48 111.2H1125.48L1127.48 113.2V111.2ZM1183.48 111.2H1185.48L1183.48 109.2V111.2ZM1183.48 142V144L1185.48 142H1183.48ZM1095.48 142H1093.48L1095.48 144V142ZM1095.48 1.99998V-1.52588e-05L1093.48 1.99998H1095.48ZM1182.48 1.99998H1184.48L1182.48 -1.52588e-05V1.99998ZM1182.48 32.8V34.8L1184.48 32.8H1182.48ZM1127.48 32.8V30.8L1125.48 32.8H1127.48ZM1127.48 56H1125.48L1127.48 58V56ZM1177.48 56H1179.48L1177.48 54V56ZM1177.48 86.4V88.4L1179.48 86.4H1177.48ZM1127.48 86.4V84.4L1125.48 86.4H1127.48ZM1127.48 111.2V113.2H1183.48V111.2V109.2H1127.48V111.2ZM1183.48 111.2H1181.48V142H1183.48H1185.48V111.2H1183.48ZM1183.48 142V140H1095.48V142V144H1183.48V142ZM1095.48 142H1097.48V1.99998H1095.48H1093.48V142H1095.48ZM1095.48 1.99998V3.99998H1182.48V1.99998V-1.52588e-05H1095.48V1.99998ZM1182.48 1.99998H1180.48V32.8H1182.48H1184.48V1.99998H1182.48ZM1182.48 32.8V30.8H1127.48V32.8V34.8H1182.48V32.8ZM1127.48 32.8H1125.48V56H1127.48H1129.48V32.8H1127.48ZM1127.48 56V58H1177.48V56V54H1127.48V56ZM1177.48 56H1175.48V86.4H1177.48H1179.48V56H1177.48ZM1177.48 86.4V84.4H1127.48V86.4V88.4H1177.48V86.4ZM1127.48 86.4H1125.48V111.2H1127.48H1129.48V86.4H1127.48ZM1227.94 142L1226.01 142.532L1227.94 144V142ZM1189.34 1.99998V-1.52588e-05L1187.41 2.53159L1189.34 1.99998ZM1222.94 1.99998L1224.88 1.52052L1222.94 -1.52588e-05V1.99998ZM1247.14 100L1245.19 100.479L1249.06 100.531L1247.14 100ZM1274.14 1.99998V-1.52588e-05L1272.21 1.46877L1274.14 1.99998ZM1300.14 1.99998L1302.06 1.46877L1300.14 -1.52588e-05V1.99998ZM1327.14 100L1325.21 100.531L1329.08 100.479L1327.14 100ZM1351.34 1.99998V-1.52588e-05L1349.39 1.52052L1351.34 1.99998ZM1384.94 1.99998L1386.86 2.53159L1384.94 -1.52588e-05V1.99998ZM1346.34 142V144L1348.26 142.532L1346.34 142ZM1309.94 142L1308.01 142.532L1309.94 144V142ZM1287.14 59.4L1289.06 58.8678H1285.21L1287.14 59.4ZM1264.34 142V144L1266.26 142.532L1264.34 142ZM1227.94 142L1229.86 141.468L1191.26 1.4684L1189.34 1.99998L1187.41 2.53159L1226.01 142.532L1227.94 142ZM1189.34 1.99998V3.99998H1222.94V1.99998V-1.52588e-05H1189.34V1.99998ZM1222.94 1.99998L1220.99 2.47946L1245.19 100.479L1247.14 100L1249.08 99.5205L1224.88 1.52052L1222.94 1.99998ZM1247.14 100L1249.06 100.531L1276.06 2.53122L1274.14 1.99998L1272.21 1.46877L1245.21 99.4688L1247.14 100ZM1274.14 1.99998V3.99998H1300.14V1.99998V-1.52588e-05H1274.14V1.99998ZM1300.14 1.99998L1298.21 2.53122L1325.21 100.531L1327.14 100L1329.06 99.4688L1302.06 1.46877L1300.14 1.99998ZM1327.14 100L1329.08 100.479L1353.28 2.47946L1351.34 1.99998L1349.39 1.52052L1325.19 99.5205L1327.14 100ZM1351.34 1.99998V3.99998H1384.94V1.99998V-1.52588e-05H1351.34V1.99998ZM1384.94 1.99998L1383.01 1.4684L1344.41 141.468L1346.34 142L1348.26 142.532L1386.86 2.53159L1384.94 1.99998ZM1346.34 142V140H1309.94V142V144H1346.34V142ZM1309.94 142L1311.86 141.468L1289.06 58.8678L1287.14 59.4L1285.21 59.9322L1308.01 142.532L1309.94 142ZM1287.14 59.4L1285.21 58.8678L1262.41 141.468L1264.34 142L1266.26 142.532L1289.06 59.9322L1287.14 59.4ZM1264.34 142V140H1227.94V142V144H1264.34V142ZM1522.55 1.99998V-1.52588e-05L1520.55 1.99998H1522.55ZM1554.55 1.99998H1556.55L1554.55 -1.52588e-05V1.99998ZM1554.55 142V144L1556.55 142H1554.55ZM1530.55 142L1528.91 143.158L1530.55 144V142ZM1476.55 66L1478.18 64.8416L1474.55 66H1476.55ZM1476.55 142V144L1478.55 142H1476.55ZM1444.55 142H1442.55L1444.55 144V142ZM1444.55 1.99998V-1.52588e-05L1442.55 1.99998H1444.55ZM1468.55 1.99998L1470.18 0.841583L1468.55 -1.52588e-05V1.99998ZM1522.55 78L1520.91 79.1584L1524.55 78H1522.55ZM1522.55 1.99998V3.99998H1554.55V1.99998V-1.52588e-05H1522.55V1.99998ZM1554.55 1.99998H1552.55V142H1554.55H1556.55V1.99998H1554.55ZM1554.55 142V140H1530.55V142V144H1554.55V142ZM1530.55 142L1532.18 140.842L1478.18 64.8416L1476.55 66L1474.91 67.1584L1528.91 143.158L1530.55 142ZM1476.55 66H1474.55V142H1476.55H1478.55V66H1476.55ZM1476.55 142V140H1444.55V142V144H1476.55V142ZM1444.55 142H1446.55V1.99998H1444.55H1442.55V142H1444.55ZM1444.55 1.99998V3.99998H1468.55V1.99998V-1.52588e-05H1444.55V1.99998ZM1468.55 1.99998L1466.91 3.1584L1520.91 79.1584L1522.55 78L1524.18 76.8416L1470.18 0.841583L1468.55 1.99998ZM1522.55 78H1524.55V1.99998H1522.55H1520.55V78H1522.55ZM1608.33 111.2H1606.33L1608.33 113.2V111.2ZM1664.33 111.2H1666.33L1664.33 109.2V111.2ZM1664.33 142V144L1666.33 142H1664.33ZM1576.33 142H1574.33L1576.33 144V142ZM1576.33 1.99998V-1.52588e-05L1574.33 1.99998H1576.33ZM1663.33 1.99998H1665.33L1663.33 -1.52588e-05V1.99998ZM1663.33 32.8V34.8L1665.33 32.8H1663.33ZM1608.33 32.8V30.8L1606.33 32.8H1608.33ZM1608.33 56H1606.33L1608.33 58V56ZM1658.33 56H1660.33L1658.33 54V56ZM1658.33 86.4V88.4L1660.33 86.4H1658.33ZM1608.33 86.4V84.4L1606.33 86.4H1608.33ZM1608.33 111.2V113.2H1664.33V111.2V109.2H1608.33V111.2ZM1664.33 111.2H1662.33V142H1664.33H1666.33V111.2H1664.33ZM1664.33 142V140H1576.33V142V144H1664.33V142ZM1576.33 142H1578.33V1.99998H1576.33H1574.33V142H1576.33ZM1576.33 1.99998V3.99998H1663.33V1.99998V-1.52588e-05H1576.33V1.99998ZM1663.33 1.99998H1661.33V32.8H1663.33H1665.33V1.99998H1663.33ZM1663.33 32.8V30.8H1608.33V32.8V34.8H1663.33V32.8ZM1608.33 32.8H1606.33V56H1608.33H1610.33V32.8H1608.33ZM1608.33 56V58H1658.33V56V54H1608.33V56ZM1658.33 56H1656.33V86.4H1658.33H1660.33V56H1658.33ZM1658.33 86.4V84.4H1608.33V86.4V88.4H1658.33V86.4ZM1608.33 86.4H1606.33V111.2H1608.33H1610.33V86.4H1608.33ZM1708.78 142L1706.86 142.532L1708.78 144V142ZM1670.18 1.99998V-1.52588e-05L1668.26 2.53159L1670.18 1.99998ZM1703.78 1.99998L1705.73 1.52052L1703.78 -1.52588e-05V1.99998ZM1727.98 100L1726.04 100.479L1729.91 100.531L1727.98 100ZM1754.98 1.99998V-1.52588e-05L1753.06 1.46877L1754.98 1.99998ZM1780.98 1.99998L1782.91 1.46877L1780.98 -1.52588e-05V1.99998ZM1807.98 100L1806.06 100.531L1809.93 100.479L1807.98 100ZM1832.18 1.99998V-1.52588e-05L1830.24 1.52052L1832.18 1.99998ZM1865.78 1.99998L1867.71 2.53159L1865.78 -1.52588e-05V1.99998ZM1827.18 142V144L1829.11 142.532L1827.18 142ZM1790.78 142L1788.86 142.532L1790.78 144V142ZM1767.98 59.4L1769.91 58.8678H1766.06L1767.98 59.4ZM1745.18 142V144L1747.11 142.532L1745.18 142ZM1708.78 142L1710.71 141.468L1672.11 1.4684L1670.18 1.99998L1668.26 2.53159L1706.86 142.532L1708.78 142ZM1670.18 1.99998V3.99998H1703.78V1.99998V-1.52588e-05H1670.18V1.99998ZM1703.78 1.99998L1701.84 2.47946L1726.04 100.479L1727.98 100L1729.93 99.5205L1705.73 1.52052L1703.78 1.99998ZM1727.98 100L1729.91 100.531L1756.91 2.53122L1754.98 1.99998L1753.06 1.46877L1726.06 99.4688L1727.98 100ZM1754.98 1.99998V3.99998H1780.98V1.99998V-1.52588e-05H1754.98V1.99998ZM1780.98 1.99998L1779.06 2.53122L1806.06 100.531L1807.98 100L1809.91 99.4688L1782.91 1.46877L1780.98 1.99998ZM1807.98 100L1809.93 100.479L1834.13 2.47946L1832.18 1.99998L1830.24 1.52052L1806.04 99.5205L1807.98 100ZM1832.18 1.99998V3.99998H1865.78V1.99998V-1.52588e-05H1832.18V1.99998ZM1865.78 1.99998L1863.86 1.4684L1825.26 141.468L1827.18 142L1829.11 142.532L1867.71 2.53159L1865.78 1.99998ZM1827.18 142V140H1790.78V142V144H1827.18V142ZM1790.78 142L1792.71 141.468L1769.91 58.8678L1767.98 59.4L1766.06 59.9322L1788.86 142.532L1790.78 142ZM1767.98 59.4L1766.06 58.8678L1743.26 141.468L1745.18 142L1747.11 142.532L1769.91 59.9322L1767.98 59.4ZM1745.18 142V140H1708.78V142V144H1745.18V142ZM2003.39 1.99998V-1.52588e-05L2001.39 1.99998H2003.39ZM2035.39 1.99998H2037.39L2035.39 -1.52588e-05V1.99998ZM2035.39 142V144L2037.39 142H2035.39ZM2011.39 142L2009.76 143.158L2011.39 144V142ZM1957.39 66L1959.02 64.8416L1955.39 66H1957.39ZM1957.39 142V144L1959.39 142H1957.39ZM1925.39 142H1923.39L1925.39 144V142ZM1925.39 1.99998V-1.52588e-05L1923.39 1.99998H1925.39ZM1949.39 1.99998L1951.02 0.841583L1949.39 -1.52588e-05V1.99998ZM2003.39 78L2001.76 79.1584L2005.39 78H2003.39ZM2003.39 1.99998V3.99998H2035.39V1.99998V-1.52588e-05H2003.39V1.99998ZM2035.39 1.99998H2033.39V142H2035.39H2037.39V1.99998H2035.39ZM2035.39 142V140H2011.39V142V144H2035.39V142ZM2011.39 142L2013.02 140.842L1959.02 64.8416L1957.39 66L1955.76 67.1584L2009.76 143.158L2011.39 142ZM1957.39 66H1955.39V142H1957.39H1959.39V66H1957.39ZM1957.39 142V140H1925.39V142V144H1957.39V142ZM1925.39 142H1927.39V1.99998H1925.39H1923.39V142H1925.39ZM1925.39 1.99998V3.99998H1949.39V1.99998V-1.52588e-05H1925.39V1.99998ZM1949.39 1.99998L1947.76 3.1584L2001.76 79.1584L2003.39 78L2005.02 76.8416L1951.02 0.841583L1949.39 1.99998ZM2003.39 78H2005.39V1.99998H2003.39H2001.39V78H2003.39ZM2089.18 111.2H2087.18L2089.18 113.2V111.2ZM2145.18 111.2H2147.18L2145.18 109.2V111.2ZM2145.18 142V144L2147.18 142H2145.18ZM2057.18 142H2055.18L2057.18 144V142ZM2057.18 1.99998V-1.52588e-05L2055.18 1.99998H2057.18ZM2144.18 1.99998H2146.18L2144.18 -1.52588e-05V1.99998ZM2144.18 32.8V34.8L2146.18 32.8H2144.18ZM2089.18 32.8V30.8L2087.18 32.8H2089.18ZM2089.18 56H2087.18L2089.18 58V56ZM2139.18 56H2141.18L2139.18 54V56ZM2139.18 86.4V88.4L2141.18 86.4H2139.18ZM2089.18 86.4V84.4L2087.18 86.4H2089.18ZM2089.18 111.2V113.2H2145.18V111.2V109.2H2089.18V111.2ZM2145.18 111.2H2143.18V142H2145.18H2147.18V111.2H2145.18ZM2145.18 142V140H2057.18V142V144H2145.18V142ZM2057.18 142H2059.18V1.99998H2057.18H2055.18V142H2057.18ZM2057.18 1.99998V3.99998H2144.18V1.99998V-1.52588e-05H2057.18V1.99998ZM2144.18 1.99998H2142.18V32.8H2144.18H2146.18V1.99998H2144.18ZM2144.18 32.8V30.8H2089.18V32.8V34.8H2144.18V32.8ZM2089.18 32.8H2087.18V56H2089.18H2091.18V32.8H2089.18ZM2089.18 56V58H2139.18V56V54H2089.18V56ZM2139.18 56H2137.18V86.4H2139.18H2141.18V56H2139.18ZM2139.18 86.4V84.4H2089.18V86.4V88.4H2139.18V86.4ZM2089.18 86.4H2087.18V111.2H2089.18H2091.18V86.4H2089.18ZM2189.63 142L2187.7 142.532L2189.63 144V142ZM2151.03 1.99998V-1.52588e-05L2149.1 2.53159L2151.03 1.99998ZM2184.63 1.99998L2186.57 1.52052L2184.63 -1.52588e-05V1.99998ZM2208.83 100L2206.89 100.479L2210.76 100.531L2208.83 100ZM2235.83 1.99998V-1.52588e-05L2233.9 1.46877L2235.83 1.99998ZM2261.83 1.99998L2263.76 1.46877L2261.83 -1.52588e-05V1.99998ZM2288.83 100L2286.9 100.531L2290.77 100.479L2288.83 100ZM2313.03 1.99998V-1.52588e-05L2311.09 1.52052L2313.03 1.99998ZM2346.63 1.99998L2348.56 2.53159L2346.63 -1.52588e-05V1.99998ZM2308.03 142V144L2309.96 142.532L2308.03 142ZM2271.63 142L2269.7 142.532L2271.63 144V142ZM2248.83 59.4L2250.76 58.8678H2246.9L2248.83 59.4ZM2226.03 142V144L2227.96 142.532L2226.03 142ZM2189.63 142L2191.56 141.468L2152.96 1.4684L2151.03 1.99998L2149.1 2.53159L2187.7 142.532L2189.63 142ZM2151.03 1.99998V3.99998H2184.63V1.99998V-1.52588e-05H2151.03V1.99998ZM2184.63 1.99998L2182.69 2.47946L2206.89 100.479L2208.83 100L2210.77 99.5205L2186.57 1.52052L2184.63 1.99998ZM2208.83 100L2210.76 100.531L2237.76 2.53122L2235.83 1.99998L2233.9 1.46877L2206.9 99.4688L2208.83 100ZM2235.83 1.99998V3.99998H2261.83V1.99998V-1.52588e-05H2235.83V1.99998ZM2261.83 1.99998L2259.9 2.53122L2286.9 100.531L2288.83 100L2290.76 99.4688L2263.76 1.46877L2261.83 1.99998ZM2288.83 100L2290.77 100.479L2314.97 2.47946L2313.03 1.99998L2311.09 1.52052L2286.89 99.5205L2288.83 100ZM2313.03 1.99998V3.99998H2346.63V1.99998V-1.52588e-05H2313.03V1.99998ZM2346.63 1.99998L2344.7 1.4684L2306.1 141.468L2308.03 142L2309.96 142.532L2348.56 2.53159L2346.63 1.99998ZM2308.03 142V140H2271.63V142V144H2308.03V142ZM2271.63 142L2273.56 141.468L2250.76 58.8678L2248.83 59.4L2246.9 59.9322L2269.7 142.532L2271.63 142ZM2248.83 59.4L2246.9 58.8678L2224.1 141.468L2226.03 142L2227.96 142.532L2250.76 59.9322L2248.83 59.4ZM2226.03 142V140H2189.63V142V144H2226.03V142Z" fill="white" mask="url(#path-1-outside-1_1550_492)"/>
</svg>
