<svg width="1122" height="88" viewBox="0 0 1122 88" fill="none" xmlns="http://www.w3.org/2000/svg">
<mask id="path-1-outside-1_1893_895" maskUnits="userSpaceOnUse" x="-0.599609" y="-0.400391" width="1123" height="88" fill="black">
<rect fill="white" x="-0.599609" y="-0.400391" width="1123" height="88"/>
<path d="M48.4004 1.5996H67.6004V85.5996H53.2004L20.8004 39.9996V85.5996H1.60039V1.5996H16.0004L48.4004 47.1996V1.5996ZM99.871 67.1196H133.471V85.5996H80.671V1.5996H132.871V20.0796H99.871V33.9996H129.871V52.2396H99.871V67.1196ZM160.144 85.5996L136.984 1.5996H157.144L171.664 60.3996L187.864 1.5996H203.464L219.664 60.3996L234.184 1.5996H254.344L231.184 85.5996H209.344L195.664 36.0396L181.984 85.5996H160.144ZM336.909 1.5996H356.109V85.5996H341.709L309.309 39.9996V85.5996H290.109V1.5996H304.509L336.909 47.1996V1.5996ZM388.38 67.1196H421.98V85.5996H369.18V1.5996H421.38V20.0796H388.38V33.9996H418.38V52.2396H388.38V67.1196ZM448.653 85.5996L425.493 1.5996H445.653L460.173 60.3996L476.373 1.5996H491.973L508.173 60.3996L522.693 1.5996H542.853L519.693 85.5996H497.853L484.173 36.0396L470.493 85.5996H448.653ZM625.419 1.5996H644.619V85.5996H630.219L597.819 39.9996V85.5996H578.619V1.5996H593.019L625.419 47.1996V1.5996ZM676.889 67.1196H710.489V85.5996H657.689V1.5996H709.889V20.0796H676.889V33.9996H706.889V52.2396H676.889V67.1196ZM737.162 85.5996L714.002 1.5996H734.162L748.682 60.3996L764.882 1.5996H780.482L796.682 60.3996L811.202 1.5996H831.362L808.202 85.5996H786.362L772.682 36.0396L759.002 85.5996H737.162ZM913.928 1.5996H933.128V85.5996H918.728L886.328 39.9996V85.5996H867.128V1.5996H881.528L913.928 47.1996V1.5996ZM965.398 67.1196H998.998V85.5996H946.198V1.5996H998.398V20.0796H965.398V33.9996H995.398V52.2396H965.398V67.1196ZM1025.67 85.5996L1002.51 1.5996H1022.67L1037.19 60.3996L1053.39 1.5996H1068.99L1085.19 60.3996L1099.71 1.5996H1119.87L1096.71 85.5996H1074.87L1061.19 36.0396L1047.51 85.5996H1025.67Z"/>
</mask>
<path d="M48.4004 1.5996V-0.000396729L46.8004 1.5996H48.4004ZM67.6004 1.5996H69.2004L67.6004 -0.000396729V1.5996ZM67.6004 85.5996V87.1996L69.2004 85.5996H67.6004ZM53.2004 85.5996L51.8961 86.5263L53.2004 87.1996V85.5996ZM20.8004 39.9996L22.1047 39.0729L19.2004 39.9996H20.8004ZM20.8004 85.5996V87.1996L22.4004 85.5996H20.8004ZM1.60039 85.5996H0.000391006L1.60039 87.1996V85.5996ZM1.60039 1.5996V-0.000396729L0.000391006 1.5996H1.60039ZM16.0004 1.5996L17.3047 0.672874L16.0004 -0.000396729V1.5996ZM48.4004 47.1996L47.0961 48.1263L50.0004 47.1996H48.4004ZM48.4004 1.5996V3.1996H67.6004V1.5996V-0.000396729H48.4004V1.5996ZM67.6004 1.5996H66.0004V85.5996H67.6004H69.2004V1.5996H67.6004ZM67.6004 85.5996V83.9996H53.2004V85.5996V87.1996H67.6004V85.5996ZM53.2004 85.5996L54.5047 84.6729L22.1047 39.0729L20.8004 39.9996L19.4961 40.9263L51.8961 86.5263L53.2004 85.5996ZM20.8004 39.9996H19.2004V85.5996H20.8004H22.4004V39.9996H20.8004ZM20.8004 85.5996V83.9996H1.60039V85.5996V87.1996H20.8004V85.5996ZM1.60039 85.5996H3.20039V1.5996H1.60039H0.000391006V85.5996H1.60039ZM1.60039 1.5996V3.1996H16.0004V1.5996V-0.000396729H1.60039V1.5996ZM16.0004 1.5996L14.6961 2.52634L47.0961 48.1263L48.4004 47.1996L49.7047 46.2729L17.3047 0.672874L16.0004 1.5996ZM48.4004 47.1996H50.0004V1.5996H48.4004H46.8004V47.1996H48.4004ZM99.871 67.1196H98.271L99.871 68.7196V67.1196ZM133.471 67.1196H135.071L133.471 65.5196V67.1196ZM133.471 85.5996V87.1996L135.071 85.5996H133.471ZM80.671 85.5996H79.071L80.671 87.1996V85.5996ZM80.671 1.5996V-0.000396729L79.071 1.5996H80.671ZM132.871 1.5996H134.471L132.871 -0.000396729V1.5996ZM132.871 20.0796V21.6796L134.471 20.0796H132.871ZM99.871 20.0796V18.4796L98.271 20.0796H99.871ZM99.871 33.9996H98.271L99.871 35.5996V33.9996ZM129.871 33.9996H131.471L129.871 32.3996V33.9996ZM129.871 52.2396V53.8396L131.471 52.2396H129.871ZM99.871 52.2396V50.6396L98.271 52.2396H99.871ZM99.871 67.1196V68.7196H133.471V67.1196V65.5196H99.871V67.1196ZM133.471 67.1196H131.871V85.5996H133.471H135.071V67.1196H133.471ZM133.471 85.5996V83.9996H80.671V85.5996V87.1996H133.471V85.5996ZM80.671 85.5996H82.271V1.5996H80.671H79.071V85.5996H80.671ZM80.671 1.5996V3.1996H132.871V1.5996V-0.000396729H80.671V1.5996ZM132.871 1.5996H131.271V20.0796H132.871H134.471V1.5996H132.871ZM132.871 20.0796V18.4796H99.871V20.0796V21.6796H132.871V20.0796ZM99.871 20.0796H98.271V33.9996H99.871H101.471V20.0796H99.871ZM99.871 33.9996V35.5996H129.871V33.9996V32.3996H99.871V33.9996ZM129.871 33.9996H128.271V52.2396H129.871H131.471V33.9996H129.871ZM129.871 52.2396V50.6396H99.871V52.2396V53.8396H129.871V52.2396ZM99.871 52.2396H98.271V67.1196H99.871H101.471V52.2396H99.871ZM160.144 85.5996L158.601 86.0249L160.144 87.1996V85.5996ZM136.984 1.5996V-0.000396729L135.441 2.02488L136.984 1.5996ZM157.144 1.5996L158.697 1.21603L157.144 -0.000396729V1.5996ZM171.664 60.3996L170.11 60.7832L173.206 60.8246L171.664 60.3996ZM187.864 1.5996V-0.000396729L186.321 1.17462L187.864 1.5996ZM203.464 1.5996L205.006 1.17462L203.464 -0.000396729V1.5996ZM219.664 60.3996L218.121 60.8246L221.217 60.7832L219.664 60.3996ZM234.184 1.5996V-0.000396729L232.63 1.21603L234.184 1.5996ZM254.344 1.5996L255.886 2.02488L254.344 -0.000396729V1.5996ZM231.184 85.5996V87.1996L232.726 86.0249L231.184 85.5996ZM209.344 85.5996L207.802 86.0253L209.344 87.1996V85.5996ZM195.664 36.0396L197.206 35.6139H194.122L195.664 36.0396ZM181.984 85.5996V87.1996L183.526 86.0253L181.984 85.5996ZM160.144 85.5996L161.686 85.1743L138.526 1.17433L136.984 1.5996L135.441 2.02488L158.601 86.0249L160.144 85.5996ZM136.984 1.5996V3.1996H157.144V1.5996V-0.000396729H136.984V1.5996ZM157.144 1.5996L155.59 1.98318L170.11 60.7832L171.664 60.3996L173.217 60.016L158.697 1.21603L157.144 1.5996ZM171.664 60.3996L173.206 60.8246L189.406 2.02458L187.864 1.5996L186.321 1.17462L170.121 59.9746L171.664 60.3996ZM187.864 1.5996V3.1996H203.464V1.5996V-0.000396729H187.864V1.5996ZM203.464 1.5996L201.921 2.02459L218.121 60.8246L219.664 60.3996L221.206 59.9746L205.006 1.17462L203.464 1.5996ZM219.664 60.3996L221.217 60.7832L235.737 1.98318L234.184 1.5996L232.63 1.21603L218.111 60.016L219.664 60.3996ZM234.184 1.5996V3.1996H254.344V1.5996V-0.000396729H234.184V1.5996ZM254.344 1.5996L252.801 1.17433L229.641 85.1743L231.184 85.5996L232.726 86.0249L255.886 2.02488L254.344 1.5996ZM231.184 85.5996V83.9996H209.344V85.5996V87.1996H231.184V85.5996ZM209.344 85.5996L210.886 85.1739L197.206 35.6139L195.664 36.0396L194.122 36.4653L207.802 86.0253L209.344 85.5996ZM195.664 36.0396L194.122 35.6139L180.442 85.1739L181.984 85.5996L183.526 86.0253L197.206 36.4653L195.664 36.0396ZM181.984 85.5996V83.9996H160.144V85.5996V87.1996H181.984V85.5996ZM336.909 1.5996V-0.000396729L335.309 1.5996H336.909ZM356.109 1.5996H357.709L356.109 -0.000396729V1.5996ZM356.109 85.5996V87.1996L357.709 85.5996H356.109ZM341.709 85.5996L340.405 86.5263L341.709 87.1996V85.5996ZM309.309 39.9996L310.614 39.0729L307.709 39.9996H309.309ZM309.309 85.5996V87.1996L310.909 85.5996H309.309ZM290.109 85.5996H288.509L290.109 87.1996V85.5996ZM290.109 1.5996V-0.000396729L288.509 1.5996H290.109ZM304.509 1.5996L305.814 0.672874L304.509 -0.000396729V1.5996ZM336.909 47.1996L335.605 48.1263L338.509 47.1996H336.909ZM336.909 1.5996V3.1996H356.109V1.5996V-0.000396729H336.909V1.5996ZM356.109 1.5996H354.509V85.5996H356.109H357.709V1.5996H356.109ZM356.109 85.5996V83.9996H341.709V85.5996V87.1996H356.109V85.5996ZM341.709 85.5996L343.014 84.6729L310.614 39.0729L309.309 39.9996L308.005 40.9263L340.405 86.5263L341.709 85.5996ZM309.309 39.9996H307.709V85.5996H309.309H310.909V39.9996H309.309ZM309.309 85.5996V83.9996H290.109V85.5996V87.1996H309.309V85.5996ZM290.109 85.5996H291.709V1.5996H290.109H288.509V85.5996H290.109ZM290.109 1.5996V3.1996H304.509V1.5996V-0.000396729H290.109V1.5996ZM304.509 1.5996L303.205 2.52634L335.605 48.1263L336.909 47.1996L338.214 46.2729L305.814 0.672874L304.509 1.5996ZM336.909 47.1996H338.509V1.5996H336.909H335.309V47.1996H336.909ZM388.38 67.1196H386.78L388.38 68.7196V67.1196ZM421.98 67.1196H423.58L421.98 65.5196V67.1196ZM421.98 85.5996V87.1996L423.58 85.5996H421.98ZM369.18 85.5996H367.58L369.18 87.1996V85.5996ZM369.18 1.5996V-0.000396729L367.58 1.5996H369.18ZM421.38 1.5996H422.98L421.38 -0.000396729V1.5996ZM421.38 20.0796V21.6796L422.98 20.0796H421.38ZM388.38 20.0796V18.4796L386.78 20.0796H388.38ZM388.38 33.9996H386.78L388.38 35.5996V33.9996ZM418.38 33.9996H419.98L418.38 32.3996V33.9996ZM418.38 52.2396V53.8396L419.98 52.2396H418.38ZM388.38 52.2396V50.6396L386.78 52.2396H388.38ZM388.38 67.1196V68.7196H421.98V67.1196V65.5196H388.38V67.1196ZM421.98 67.1196H420.38V85.5996H421.98H423.58V67.1196H421.98ZM421.98 85.5996V83.9996H369.18V85.5996V87.1996H421.98V85.5996ZM369.18 85.5996H370.78V1.5996H369.18H367.58V85.5996H369.18ZM369.18 1.5996V3.1996H421.38V1.5996V-0.000396729H369.18V1.5996ZM421.38 1.5996H419.78V20.0796H421.38H422.98V1.5996H421.38ZM421.38 20.0796V18.4796H388.38V20.0796V21.6796H421.38V20.0796ZM388.38 20.0796H386.78V33.9996H388.38H389.98V20.0796H388.38ZM388.38 33.9996V35.5996H418.38V33.9996V32.3996H388.38V33.9996ZM418.38 33.9996H416.78V52.2396H418.38H419.98V33.9996H418.38ZM418.38 52.2396V50.6396H388.38V52.2396V53.8396H418.38V52.2396ZM388.38 52.2396H386.78V67.1196H388.38H389.98V52.2396H388.38ZM448.653 85.5996L447.11 86.0249L448.653 87.1996V85.5996ZM425.493 1.5996V-0.000396729L423.95 2.02488L425.493 1.5996ZM445.653 1.5996L447.206 1.21603L445.653 -0.000396729V1.5996ZM460.173 60.3996L458.62 60.7832L461.715 60.8246L460.173 60.3996ZM476.373 1.5996V-0.000396729L474.83 1.17462L476.373 1.5996ZM491.973 1.5996L493.515 1.17462L491.973 -0.000396729V1.5996ZM508.173 60.3996L506.63 60.8246L509.726 60.7832L508.173 60.3996ZM522.693 1.5996V-0.000396729L521.14 1.21603L522.693 1.5996ZM542.853 1.5996L544.395 2.02488L542.853 -0.000396729V1.5996ZM519.693 85.5996V87.1996L521.235 86.0249L519.693 85.5996ZM497.853 85.5996L496.311 86.0253L497.853 87.1996V85.5996ZM484.173 36.0396L485.715 35.6139H482.631L484.173 36.0396ZM470.493 85.5996V87.1996L472.035 86.0253L470.493 85.5996ZM448.653 85.5996L450.195 85.1743L427.035 1.17433L425.493 1.5996L423.95 2.02488L447.11 86.0249L448.653 85.5996ZM425.493 1.5996V3.1996H445.653V1.5996V-0.000396729H425.493V1.5996ZM445.653 1.5996L444.1 1.98318L458.62 60.7832L460.173 60.3996L461.726 60.016L447.206 1.21603L445.653 1.5996ZM460.173 60.3996L461.715 60.8246L477.915 2.02458L476.373 1.5996L474.83 1.17462L458.63 59.9746L460.173 60.3996ZM476.373 1.5996V3.1996H491.973V1.5996V-0.000396729H476.373V1.5996ZM491.973 1.5996L490.43 2.02459L506.63 60.8246L508.173 60.3996L509.715 59.9746L493.515 1.17462L491.973 1.5996ZM508.173 60.3996L509.726 60.7832L524.246 1.98318L522.693 1.5996L521.14 1.21603L506.62 60.016L508.173 60.3996ZM522.693 1.5996V3.1996H542.853V1.5996V-0.000396729H522.693V1.5996ZM542.853 1.5996L541.31 1.17433L518.15 85.1743L519.693 85.5996L521.235 86.0249L544.395 2.02488L542.853 1.5996ZM519.693 85.5996V83.9996H497.853V85.5996V87.1996H519.693V85.5996ZM497.853 85.5996L499.395 85.1739L485.715 35.6139L484.173 36.0396L482.631 36.4653L496.311 86.0253L497.853 85.5996ZM484.173 36.0396L482.631 35.6139L468.951 85.1739L470.493 85.5996L472.035 86.0253L485.715 36.4653L484.173 36.0396ZM470.493 85.5996V83.9996H448.653V85.5996V87.1996H470.493V85.5996ZM625.419 1.5996V-0.000396729L623.819 1.5996H625.419ZM644.619 1.5996H646.219L644.619 -0.000396729V1.5996ZM644.619 85.5996V87.1996L646.219 85.5996H644.619ZM630.219 85.5996L628.914 86.5263L630.219 87.1996V85.5996ZM597.819 39.9996L599.123 39.0729L596.219 39.9996H597.819ZM597.819 85.5996V87.1996L599.419 85.5996H597.819ZM578.619 85.5996H577.018L578.619 87.1996V85.5996ZM578.619 1.5996V-0.000396729L577.018 1.5996H578.619ZM593.018 1.5996L594.323 0.672874L593.018 -0.000396729V1.5996ZM625.419 47.1996L624.114 48.1263L627.018 47.1996H625.419ZM625.419 1.5996V3.1996H644.619V1.5996V-0.000396729H625.419V1.5996ZM644.619 1.5996H643.018V85.5996H644.619H646.219V1.5996H644.619ZM644.619 85.5996V83.9996H630.219V85.5996V87.1996H644.619V85.5996ZM630.219 85.5996L631.523 84.6729L599.123 39.0729L597.819 39.9996L596.514 40.9263L628.914 86.5263L630.219 85.5996ZM597.819 39.9996H596.219V85.5996H597.819H599.419V39.9996H597.819ZM597.819 85.5996V83.9996H578.619V85.5996V87.1996H597.819V85.5996ZM578.619 85.5996H580.219V1.5996H578.619H577.018V85.5996H578.619ZM578.619 1.5996V3.1996H593.018V1.5996V-0.000396729H578.619V1.5996ZM593.018 1.5996L591.714 2.52634L624.114 48.1263L625.419 47.1996L626.723 46.2729L594.323 0.672874L593.018 1.5996ZM625.419 47.1996H627.018V1.5996H625.419H623.819V47.1996H625.419ZM676.889 67.1196H675.289L676.889 68.7196V67.1196ZM710.489 67.1196H712.089L710.489 65.5196V67.1196ZM710.489 85.5996V87.1996L712.089 85.5996H710.489ZM657.689 85.5996H656.089L657.689 87.1996V85.5996ZM657.689 1.5996V-0.000396729L656.089 1.5996H657.689ZM709.889 1.5996H711.489L709.889 -0.000396729V1.5996ZM709.889 20.0796V21.6796L711.489 20.0796H709.889ZM676.889 20.0796V18.4796L675.289 20.0796H676.889ZM676.889 33.9996H675.289L676.889 35.5996V33.9996ZM706.889 33.9996H708.489L706.889 32.3996V33.9996ZM706.889 52.2396V53.8396L708.489 52.2396H706.889ZM676.889 52.2396V50.6396L675.289 52.2396H676.889ZM676.889 67.1196V68.7196H710.489V67.1196V65.5196H676.889V67.1196ZM710.489 67.1196H708.889V85.5996H710.489H712.089V67.1196H710.489ZM710.489 85.5996V83.9996H657.689V85.5996V87.1996H710.489V85.5996ZM657.689 85.5996H659.289V1.5996H657.689H656.089V85.5996H657.689ZM657.689 1.5996V3.1996H709.889V1.5996V-0.000396729H657.689V1.5996ZM709.889 1.5996H708.289V20.0796H709.889H711.489V1.5996H709.889ZM709.889 20.0796V18.4796H676.889V20.0796V21.6796H709.889V20.0796ZM676.889 20.0796H675.289V33.9996H676.889H678.489V20.0796H676.889ZM676.889 33.9996V35.5996H706.889V33.9996V32.3996H676.889V33.9996ZM706.889 33.9996H705.289V52.2396H706.889H708.489V33.9996H706.889ZM706.889 52.2396V50.6396H676.889V52.2396V53.8396H706.889V52.2396ZM676.889 52.2396H675.289V67.1196H676.889H678.489V52.2396H676.889ZM737.162 85.5996L735.62 86.0249L737.162 87.1996V85.5996ZM714.002 1.5996V-0.000396729L712.459 2.02488L714.002 1.5996ZM734.162 1.5996L735.715 1.21603L734.162 -0.000396729V1.5996ZM748.682 60.3996L747.129 60.7832L750.224 60.8246L748.682 60.3996ZM764.882 1.5996V-0.000396729L763.339 1.17462L764.882 1.5996ZM780.482 1.5996L782.024 1.17462L780.482 -0.000396729V1.5996ZM796.682 60.3996L795.139 60.8246L798.235 60.7832L796.682 60.3996ZM811.202 1.5996V-0.000396729L809.649 1.21603L811.202 1.5996ZM831.362 1.5996L832.904 2.02488L831.362 -0.000396729V1.5996ZM808.202 85.5996V87.1996L809.744 86.0249L808.202 85.5996ZM786.362 85.5996L784.82 86.0253L786.362 87.1996V85.5996ZM772.682 36.0396L774.224 35.6139H771.14L772.682 36.0396ZM759.002 85.5996V87.1996L760.544 86.0253L759.002 85.5996ZM737.162 85.5996L738.704 85.1743L715.544 1.17433L714.002 1.5996L712.459 2.02488L735.62 86.0249L737.162 85.5996ZM714.002 1.5996V3.1996H734.162V1.5996V-0.000396729H714.002V1.5996ZM734.162 1.5996L732.609 1.98318L747.129 60.7832L748.682 60.3996L750.235 60.016L735.715 1.21603L734.162 1.5996ZM748.682 60.3996L750.224 60.8246L766.424 2.02458L764.882 1.5996L763.339 1.17462L747.139 59.9746L748.682 60.3996ZM764.882 1.5996V3.1996H780.482V1.5996V-0.000396729H764.882V1.5996ZM780.482 1.5996L778.939 2.02459L795.139 60.8246L796.682 60.3996L798.224 59.9746L782.024 1.17462L780.482 1.5996ZM796.682 60.3996L798.235 60.7832L812.755 1.98318L811.202 1.5996L809.649 1.21603L795.129 60.016L796.682 60.3996ZM811.202 1.5996V3.1996H831.362V1.5996V-0.000396729H811.202V1.5996ZM831.362 1.5996L829.82 1.17433L806.659 85.1743L808.202 85.5996L809.744 86.0249L832.904 2.02488L831.362 1.5996ZM808.202 85.5996V83.9996H786.362V85.5996V87.1996H808.202V85.5996ZM786.362 85.5996L787.904 85.1739L774.224 35.6139L772.682 36.0396L771.14 36.4653L784.82 86.0253L786.362 85.5996ZM772.682 36.0396L771.14 35.6139L757.46 85.1739L759.002 85.5996L760.544 86.0253L774.224 36.4653L772.682 36.0396ZM759.002 85.5996V83.9996H737.162V85.5996V87.1996H759.002V85.5996ZM913.928 1.5996V-0.000396729L912.328 1.5996H913.928ZM933.128 1.5996H934.728L933.128 -0.000396729V1.5996ZM933.128 85.5996V87.1996L934.728 85.5996H933.128ZM918.728 85.5996L917.423 86.5263L918.728 87.1996V85.5996ZM886.328 39.9996L887.632 39.0729L884.728 39.9996H886.328ZM886.328 85.5996V87.1996L887.928 85.5996H886.328ZM867.128 85.5996H865.528L867.128 87.1996V85.5996ZM867.128 1.5996V-0.000396729L865.528 1.5996H867.128ZM881.528 1.5996L882.832 0.672874L881.528 -0.000396729V1.5996ZM913.928 47.1996L912.623 48.1263L915.528 47.1996H913.928ZM913.928 1.5996V3.1996H933.128V1.5996V-0.000396729H913.928V1.5996ZM933.128 1.5996H931.528V85.5996H933.128H934.728V1.5996H933.128ZM933.128 85.5996V83.9996H918.728V85.5996V87.1996H933.128V85.5996ZM918.728 85.5996L920.032 84.6729L887.632 39.0729L886.328 39.9996L885.023 40.9263L917.423 86.5263L918.728 85.5996ZM886.328 39.9996H884.728V85.5996H886.328H887.928V39.9996H886.328ZM886.328 85.5996V83.9996H867.128V85.5996V87.1996H886.328V85.5996ZM867.128 85.5996H868.728V1.5996H867.128H865.528V85.5996H867.128ZM867.128 1.5996V3.1996H881.528V1.5996V-0.000396729H867.128V1.5996ZM881.528 1.5996L880.223 2.52634L912.623 48.1263L913.928 47.1996L915.232 46.2729L882.832 0.672874L881.528 1.5996ZM913.928 47.1996H915.528V1.5996H913.928H912.328V47.1996H913.928ZM965.398 67.1196H963.798L965.398 68.7196V67.1196ZM998.998 67.1196H1000.6L998.998 65.5196V67.1196ZM998.998 85.5996V87.1996L1000.6 85.5996H998.998ZM946.198 85.5996H944.598L946.198 87.1996V85.5996ZM946.198 1.5996V-0.000396729L944.598 1.5996H946.198ZM998.398 1.5996H999.998L998.398 -0.000396729V1.5996ZM998.398 20.0796V21.6796L999.998 20.0796H998.398ZM965.398 20.0796V18.4796L963.798 20.0796H965.398ZM965.398 33.9996H963.798L965.398 35.5996V33.9996ZM995.398 33.9996H996.998L995.398 32.3996V33.9996ZM995.398 52.2396V53.8396L996.998 52.2396H995.398ZM965.398 52.2396V50.6396L963.798 52.2396H965.398ZM965.398 67.1196V68.7196H998.998V67.1196V65.5196H965.398V67.1196ZM998.998 67.1196H997.398V85.5996H998.998H1000.6V67.1196H998.998ZM998.998 85.5996V83.9996H946.198V85.5996V87.1996H998.998V85.5996ZM946.198 85.5996H947.798V1.5996H946.198H944.598V85.5996H946.198ZM946.198 1.5996V3.1996H998.398V1.5996V-0.000396729H946.198V1.5996ZM998.398 1.5996H996.798V20.0796H998.398H999.998V1.5996H998.398ZM998.398 20.0796V18.4796H965.398V20.0796V21.6796H998.398V20.0796ZM965.398 20.0796H963.798V33.9996H965.398H966.998V20.0796H965.398ZM965.398 33.9996V35.5996H995.398V33.9996V32.3996H965.398V33.9996ZM995.398 33.9996H993.798V52.2396H995.398H996.998V33.9996H995.398ZM995.398 52.2396V50.6396H965.398V52.2396V53.8396H995.398V52.2396ZM965.398 52.2396H963.798V67.1196H965.398H966.998V52.2396H965.398ZM1025.67 85.5996L1024.13 86.0249L1025.67 87.1996V85.5996ZM1002.51 1.5996V-0.000396729L1000.97 2.02488L1002.51 1.5996ZM1022.67 1.5996L1024.22 1.21603L1022.67 -0.000396729V1.5996ZM1037.19 60.3996L1035.64 60.7832L1038.73 60.8246L1037.19 60.3996ZM1053.39 1.5996V-0.000396729L1051.85 1.17462L1053.39 1.5996ZM1068.99 1.5996L1070.53 1.17462L1068.99 -0.000396729V1.5996ZM1085.19 60.3996L1083.65 60.8246L1086.74 60.7832L1085.19 60.3996ZM1099.71 1.5996V-0.000396729L1098.16 1.21603L1099.71 1.5996ZM1119.87 1.5996L1121.41 2.02488L1119.87 -0.000396729V1.5996ZM1096.71 85.5996V87.1996L1098.25 86.0249L1096.71 85.5996ZM1074.87 85.5996L1073.33 86.0253L1074.87 87.1996V85.5996ZM1061.19 36.0396L1062.73 35.6139H1059.65L1061.19 36.0396ZM1047.51 85.5996V87.1996L1049.05 86.0253L1047.51 85.5996ZM1025.67 85.5996L1027.21 85.1743L1004.05 1.17433L1002.51 1.5996L1000.97 2.02488L1024.13 86.0249L1025.67 85.5996ZM1002.51 1.5996V3.1996H1022.67V1.5996V-0.000396729H1002.51V1.5996ZM1022.67 1.5996L1021.12 1.98318L1035.64 60.7832L1037.19 60.3996L1038.74 60.016L1024.22 1.21603L1022.67 1.5996ZM1037.19 60.3996L1038.73 60.8246L1054.93 2.02458L1053.39 1.5996L1051.85 1.17462L1035.65 59.9746L1037.19 60.3996ZM1053.39 1.5996V3.1996H1068.99V1.5996V-0.000396729H1053.39V1.5996ZM1068.99 1.5996L1067.45 2.02459L1083.65 60.8246L1085.19 60.3996L1086.73 59.9746L1070.53 1.17462L1068.99 1.5996ZM1085.19 60.3996L1086.74 60.7832L1101.26 1.98318L1099.71 1.5996L1098.16 1.21603L1083.64 60.016L1085.19 60.3996ZM1099.71 1.5996V3.1996H1119.87V1.5996V-0.000396729H1099.71V1.5996ZM1119.87 1.5996L1118.33 1.17433L1095.17 85.1743L1096.71 85.5996L1098.25 86.0249L1121.41 2.02488L1119.87 1.5996ZM1096.71 85.5996V83.9996H1074.87V85.5996V87.1996H1096.71V85.5996ZM1074.87 85.5996L1076.41 85.1739L1062.73 35.6139L1061.19 36.0396L1059.65 36.4653L1073.33 86.0253L1074.87 85.5996ZM1061.19 36.0396L1059.65 35.6139L1045.97 85.1739L1047.51 85.5996L1049.05 86.0253L1062.73 36.4653L1061.19 36.0396ZM1047.51 85.5996V83.9996H1025.67V85.5996V87.1996H1047.51V85.5996Z" fill="white" mask="url(#path-1-outside-1_1893_895)"/>
</svg>
