<svg width="1129" height="70" viewBox="0 0 1129 70" fill="none" xmlns="http://www.w3.org/2000/svg">
<mask id="path-1-outside-1_1894_896" maskUnits="userSpaceOnUse" x="-0.359375" y="-0.400391" width="1129" height="71" fill="black">
<rect fill="white" x="-0.359375" y="-0.400391" width="1129" height="71"/>
<path d="M38.8406 1.3996H54.2006V68.5996H42.6806L16.7606 32.1196V68.5996H1.40063V1.3996H12.9206L38.8406 37.8796V1.3996ZM80.0171 53.8156H106.897V68.5996H64.6571V1.3996H106.417V16.1836H80.0171V27.3196H104.017V41.9116H80.0171V53.8156ZM128.235 68.5996L109.707 1.3996H125.835L137.451 48.4396L150.411 1.3996H162.891L175.851 48.4396L187.467 1.3996H203.595L185.067 68.5996H167.595L156.651 28.9516L145.707 68.5996H128.235ZM269.648 1.3996H285.008V68.5996H273.488L247.568 32.1196V68.5996H232.208V1.3996H243.728L269.648 37.8796V1.3996ZM310.824 53.8156H337.704V68.5996H295.464V1.3996H337.224V16.1836H310.824V27.3196H334.824V41.9116H310.824V53.8156ZM359.043 68.5996L340.515 1.3996H356.643L368.259 48.4396L381.219 1.3996H393.699L406.659 48.4396L418.275 1.3996H434.403L415.875 68.5996H398.403L387.459 28.9516L376.515 68.5996H359.043ZM500.455 1.3996H515.815V68.5996H504.295L478.375 32.1196V68.5996H463.015V1.3996H474.535L500.455 37.8796V1.3996ZM541.632 53.8156H568.512V68.5996H526.272V1.3996H568.032V16.1836H541.632V27.3196H565.632V41.9116H541.632V53.8156ZM589.85 68.5996L571.322 1.3996H587.45L599.066 48.4396L612.026 1.3996H624.506L637.466 48.4396L649.082 1.3996H665.21L646.682 68.5996H629.21L618.266 28.9516L607.322 68.5996H589.85ZM731.262 1.3996H746.622V68.5996H735.102L709.182 32.1196V68.5996H693.822V1.3996H705.342L731.262 37.8796V1.3996ZM772.439 53.8156H799.319V68.5996H757.079V1.3996H798.839V16.1836H772.439V27.3196H796.439V41.9116H772.439V53.8156ZM820.657 68.5996L802.129 1.3996H818.257L829.873 48.4396L842.833 1.3996H855.313L868.273 48.4396L879.889 1.3996H896.017L877.489 68.5996H860.017L849.073 28.9516L838.129 68.5996H820.657ZM962.07 1.3996H977.43V68.5996H965.91L939.99 32.1196V68.5996H924.63V1.3996H936.15L962.07 37.8796V1.3996ZM1003.25 53.8156H1030.13V68.5996H987.886V1.3996H1029.65V16.1836H1003.25V27.3196H1027.25V41.9116H1003.25V53.8156ZM1051.46 68.5996L1032.94 1.3996H1049.06L1060.68 48.4396L1073.64 1.3996H1086.12L1099.08 48.4396L1110.7 1.3996H1126.82L1108.3 68.5996H1090.82L1079.88 28.9516L1068.94 68.5996H1051.46Z"/>
</mask>
<path d="M38.8406 1.3996V-0.000396729L37.4406 1.3996H38.8406ZM54.2006 1.3996H55.6006L54.2006 -0.000396729V1.3996ZM54.2006 68.5996V69.9996L55.6006 68.5996H54.2006ZM42.6806 68.5996L41.5394 69.4105L42.6806 69.9996V68.5996ZM16.7606 32.1196L17.9019 31.3087L15.3606 32.1196H16.7606ZM16.7606 68.5996V69.9996L18.1606 68.5996H16.7606ZM1.40063 68.5996H0.000625134L1.40063 69.9996V68.5996ZM1.40063 1.3996V-0.000396729L0.000625134 1.3996H1.40063ZM12.9206 1.3996L14.0619 0.588715L12.9206 -0.000396729V1.3996ZM38.8406 37.8796L37.6994 38.6905L40.2406 37.8796H38.8406ZM38.8406 1.3996V2.79961H54.2006V1.3996V-0.000396729H38.8406V1.3996ZM54.2006 1.3996H52.8006V68.5996H54.2006H55.6006V1.3996H54.2006ZM54.2006 68.5996V67.1996H42.6806V68.5996V69.9996H54.2006V68.5996ZM42.6806 68.5996L43.8219 67.7887L17.9019 31.3087L16.7606 32.1196L15.6194 32.9305L41.5394 69.4105L42.6806 68.5996ZM16.7606 32.1196H15.3606V68.5996H16.7606H18.1606V32.1196H16.7606ZM16.7606 68.5996V67.1996H1.40063V68.5996V69.9996H16.7606V68.5996ZM1.40063 68.5996H2.80063V1.3996H1.40063H0.000625134V68.5996H1.40063ZM1.40063 1.3996V2.79961H12.9206V1.3996V-0.000396729H1.40063V1.3996ZM12.9206 1.3996L11.7794 2.21049L37.6994 38.6905L38.8406 37.8796L39.9819 37.0687L14.0619 0.588715L12.9206 1.3996ZM38.8406 37.8796H40.2406V1.3996H38.8406H37.4406V37.8796H38.8406ZM80.0171 53.8156H78.6171L80.0171 55.2156V53.8156ZM106.897 53.8156H108.297L106.897 52.4156V53.8156ZM106.897 68.5996V69.9996L108.297 68.5996H106.897ZM64.6571 68.5996H63.2571L64.6571 69.9996V68.5996ZM64.6571 1.3996V-0.000396729L63.2571 1.3996H64.6571ZM106.417 1.3996H107.817L106.417 -0.000396729V1.3996ZM106.417 16.1836V17.5836L107.817 16.1836H106.417ZM80.0171 16.1836V14.7836L78.6171 16.1836H80.0171ZM80.0171 27.3196H78.6171L80.0171 28.7196V27.3196ZM104.017 27.3196H105.417L104.017 25.9196V27.3196ZM104.017 41.9116V43.3116L105.417 41.9116H104.017ZM80.0171 41.9116V40.5116L78.6171 41.9116H80.0171ZM80.0171 53.8156V55.2156H106.897V53.8156V52.4156H80.0171V53.8156ZM106.897 53.8156H105.497V68.5996H106.897H108.297V53.8156H106.897ZM106.897 68.5996V67.1996H64.6571V68.5996V69.9996H106.897V68.5996ZM64.6571 68.5996H66.0571V1.3996H64.6571H63.2571V68.5996H64.6571ZM64.6571 1.3996V2.79961H106.417V1.3996V-0.000396729H64.6571V1.3996ZM106.417 1.3996H105.017V16.1836H106.417H107.817V1.3996H106.417ZM106.417 16.1836V14.7836H80.0171V16.1836V17.5836H106.417V16.1836ZM80.0171 16.1836H78.6171V27.3196H80.0171H81.4171V16.1836H80.0171ZM80.0171 27.3196V28.7196H104.017V27.3196V25.9196H80.0171V27.3196ZM104.017 27.3196H102.617V41.9116H104.017H105.417V27.3196H104.017ZM104.017 41.9116V40.5116H80.0171V41.9116V43.3116H104.017V41.9116ZM80.0171 41.9116H78.6171V53.8156H80.0171H81.4171V41.9116H80.0171ZM128.235 68.5996L126.886 68.9717L128.235 69.9996V68.5996ZM109.707 1.3996V-0.000396729L108.358 1.77172L109.707 1.3996ZM125.835 1.3996L127.195 1.06397L125.835 -0.000396729V1.3996ZM137.451 48.4396L136.092 48.7752L138.801 48.8115L137.451 48.4396ZM150.411 1.3996V-0.000396729L149.062 1.02775L150.411 1.3996ZM162.891 1.3996L164.241 1.02775L162.891 -0.000396729V1.3996ZM175.851 48.4396L174.502 48.8115L177.211 48.7752L175.851 48.4396ZM187.467 1.3996V-0.000396729L186.108 1.06397L187.467 1.3996ZM203.595 1.3996L204.945 1.77172L203.595 -0.000396729V1.3996ZM185.067 68.5996V69.9996L186.417 68.9717L185.067 68.5996ZM167.595 68.5996L166.246 68.9721L167.595 69.9996V68.5996ZM156.651 28.9516L158.001 28.5791H155.302L156.651 28.9516ZM145.707 68.5996V69.9996L147.057 68.9721L145.707 68.5996ZM128.235 68.5996L129.585 68.2275L111.057 1.02749L109.707 1.3996L108.358 1.77172L126.886 68.9717L128.235 68.5996ZM109.707 1.3996V2.79961H125.835V1.3996V-0.000396729H109.707V1.3996ZM125.835 1.3996L124.476 1.73524L136.092 48.7752L137.451 48.4396L138.811 48.104L127.195 1.06397L125.835 1.3996ZM137.451 48.4396L138.801 48.8115L151.761 1.77146L150.411 1.3996L149.062 1.02775L136.102 48.0677L137.451 48.4396ZM150.411 1.3996V2.79961H162.891V1.3996V-0.000396729H150.411V1.3996ZM162.891 1.3996L161.542 1.77146L174.502 48.8115L175.851 48.4396L177.201 48.0677L164.241 1.02775L162.891 1.3996ZM175.851 48.4396L177.211 48.7752L188.827 1.73524L187.467 1.3996L186.108 1.06397L174.492 48.104L175.851 48.4396ZM187.467 1.3996V2.79961H203.595V1.3996V-0.000396729H187.467V1.3996ZM203.595 1.3996L202.246 1.02749L183.718 68.2275L185.067 68.5996L186.417 68.9717L204.945 1.77172L203.595 1.3996ZM185.067 68.5996V67.1996H167.595V68.5996V69.9996H185.067V68.5996ZM167.595 68.5996L168.945 68.2271L158.001 28.5791L156.651 28.9516L155.302 29.3241L166.246 68.9721L167.595 68.5996ZM156.651 28.9516L155.302 28.5791L144.358 68.2271L145.707 68.5996L147.057 68.9721L158.001 29.3241L156.651 28.9516ZM145.707 68.5996V67.1996H128.235V68.5996V69.9996H145.707V68.5996ZM269.648 1.3996V-0.000396729L268.248 1.3996H269.648ZM285.008 1.3996H286.408L285.008 -0.000396729V1.3996ZM285.008 68.5996V69.9996L286.408 68.5996H285.008ZM273.488 68.5996L272.347 69.4105L273.488 69.9996V68.5996ZM247.568 32.1196L248.709 31.3087L246.168 32.1196H247.568ZM247.568 68.5996V69.9996L248.968 68.5996H247.568ZM232.208 68.5996H230.808L232.208 69.9996V68.5996ZM232.208 1.3996V-0.000396729L230.808 1.3996H232.208ZM243.728 1.3996L244.869 0.588715L243.728 -0.000396729V1.3996ZM269.648 37.8796L268.507 38.6905L271.048 37.8796H269.648ZM269.648 1.3996V2.79961H285.008V1.3996V-0.000396729H269.648V1.3996ZM285.008 1.3996H283.608V68.5996H285.008H286.408V1.3996H285.008ZM285.008 68.5996V67.1996H273.488V68.5996V69.9996H285.008V68.5996ZM273.488 68.5996L274.629 67.7887L248.709 31.3087L247.568 32.1196L246.427 32.9305L272.347 69.4105L273.488 68.5996ZM247.568 32.1196H246.168V68.5996H247.568H248.968V32.1196H247.568ZM247.568 68.5996V67.1996H232.208V68.5996V69.9996H247.568V68.5996ZM232.208 68.5996H233.608V1.3996H232.208H230.808V68.5996H232.208ZM232.208 1.3996V2.79961H243.728V1.3996V-0.000396729H232.208V1.3996ZM243.728 1.3996L242.587 2.21049L268.507 38.6905L269.648 37.8796L270.789 37.0687L244.869 0.588715L243.728 1.3996ZM269.648 37.8796H271.048V1.3996H269.648H268.248V37.8796H269.648ZM310.824 53.8156H309.424L310.824 55.2156V53.8156ZM337.704 53.8156H339.104L337.704 52.4156V53.8156ZM337.704 68.5996V69.9996L339.104 68.5996H337.704ZM295.464 68.5996H294.064L295.464 69.9996V68.5996ZM295.464 1.3996V-0.000396729L294.064 1.3996H295.464ZM337.224 1.3996H338.624L337.224 -0.000396729V1.3996ZM337.224 16.1836V17.5836L338.624 16.1836H337.224ZM310.824 16.1836V14.7836L309.424 16.1836H310.824ZM310.824 27.3196H309.424L310.824 28.7196V27.3196ZM334.824 27.3196H336.224L334.824 25.9196V27.3196ZM334.824 41.9116V43.3116L336.224 41.9116H334.824ZM310.824 41.9116V40.5116L309.424 41.9116H310.824ZM310.824 53.8156V55.2156H337.704V53.8156V52.4156H310.824V53.8156ZM337.704 53.8156H336.304V68.5996H337.704H339.104V53.8156H337.704ZM337.704 68.5996V67.1996H295.464V68.5996V69.9996H337.704V68.5996ZM295.464 68.5996H296.864V1.3996H295.464H294.064V68.5996H295.464ZM295.464 1.3996V2.79961H337.224V1.3996V-0.000396729H295.464V1.3996ZM337.224 1.3996H335.824V16.1836H337.224H338.624V1.3996H337.224ZM337.224 16.1836V14.7836H310.824V16.1836V17.5836H337.224V16.1836ZM310.824 16.1836H309.424V27.3196H310.824H312.224V16.1836H310.824ZM310.824 27.3196V28.7196H334.824V27.3196V25.9196H310.824V27.3196ZM334.824 27.3196H333.424V41.9116H334.824H336.224V27.3196H334.824ZM334.824 41.9116V40.5116H310.824V41.9116V43.3116H334.824V41.9116ZM310.824 41.9116H309.424V53.8156H310.824H312.224V41.9116H310.824ZM359.043 68.5996L357.693 68.9717L359.043 69.9996V68.5996ZM340.515 1.3996V-0.000396729L339.165 1.77172L340.515 1.3996ZM356.643 1.3996L358.002 1.06397L356.643 -0.000396729V1.3996ZM368.259 48.4396L366.899 48.7752L369.608 48.8115L368.259 48.4396ZM381.219 1.3996V-0.000396729L379.869 1.02775L381.219 1.3996ZM393.699 1.3996L395.048 1.02775L393.699 -0.000396729V1.3996ZM406.659 48.4396L405.309 48.8115L408.018 48.7752L406.659 48.4396ZM418.275 1.3996V-0.000396729L416.915 1.06397L418.275 1.3996ZM434.403 1.3996L435.752 1.77172L434.403 -0.000396729V1.3996ZM415.875 68.5996V69.9996L417.224 68.9717L415.875 68.5996ZM398.403 68.5996L397.053 68.9721L398.403 69.9996V68.5996ZM387.459 28.9516L388.808 28.5791H386.109L387.459 28.9516ZM376.515 68.5996V69.9996L377.864 68.9721L376.515 68.5996ZM359.043 68.5996L360.392 68.2275L341.864 1.02749L340.515 1.3996L339.165 1.77172L357.693 68.9717L359.043 68.5996ZM340.515 1.3996V2.79961H356.643V1.3996V-0.000396729H340.515V1.3996ZM356.643 1.3996L355.283 1.73524L366.899 48.7752L368.259 48.4396L369.618 48.104L358.002 1.06397L356.643 1.3996ZM368.259 48.4396L369.608 48.8115L382.568 1.77146L381.219 1.3996L379.869 1.02775L366.909 48.0677L368.259 48.4396ZM381.219 1.3996V2.79961H393.699V1.3996V-0.000396729H381.219V1.3996ZM393.699 1.3996L392.349 1.77146L405.309 48.8115L406.659 48.4396L408.008 48.0677L395.048 1.02775L393.699 1.3996ZM406.659 48.4396L408.018 48.7752L419.634 1.73524L418.275 1.3996L416.915 1.06397L405.299 48.104L406.659 48.4396ZM418.275 1.3996V2.79961H434.403V1.3996V-0.000396729H418.275V1.3996ZM434.403 1.3996L433.053 1.02749L414.525 68.2275L415.875 68.5996L417.224 68.9717L435.752 1.77172L434.403 1.3996ZM415.875 68.5996V67.1996H398.403V68.5996V69.9996H415.875V68.5996ZM398.403 68.5996L399.752 68.2271L388.808 28.5791L387.459 28.9516L386.109 29.3241L397.053 68.9721L398.403 68.5996ZM387.459 28.9516L386.109 28.5791L375.165 68.2271L376.515 68.5996L377.864 68.9721L388.808 29.3241L387.459 28.9516ZM376.515 68.5996V67.1996H359.043V68.5996V69.9996H376.515V68.5996ZM500.455 1.3996V-0.000396729L499.055 1.3996H500.455ZM515.815 1.3996H517.215L515.815 -0.000396729V1.3996ZM515.815 68.5996V69.9996L517.215 68.5996H515.815ZM504.295 68.5996L503.154 69.4105L504.295 69.9996V68.5996ZM478.375 32.1196L479.516 31.3087L476.975 32.1196H478.375ZM478.375 68.5996V69.9996L479.775 68.5996H478.375ZM463.015 68.5996H461.615L463.015 69.9996V68.5996ZM463.015 1.3996V-0.000396729L461.615 1.3996H463.015ZM474.535 1.3996L475.676 0.588715L474.535 -0.000396729V1.3996ZM500.455 37.8796L499.314 38.6905L501.855 37.8796H500.455ZM500.455 1.3996V2.79961H515.815V1.3996V-0.000396729H500.455V1.3996ZM515.815 1.3996H514.415V68.5996H515.815H517.215V1.3996H515.815ZM515.815 68.5996V67.1996H504.295V68.5996V69.9996H515.815V68.5996ZM504.295 68.5996L505.436 67.7887L479.516 31.3087L478.375 32.1196L477.234 32.9305L503.154 69.4105L504.295 68.5996ZM478.375 32.1196H476.975V68.5996H478.375H479.775V32.1196H478.375ZM478.375 68.5996V67.1996H463.015V68.5996V69.9996H478.375V68.5996ZM463.015 68.5996H464.415V1.3996H463.015H461.615V68.5996H463.015ZM463.015 1.3996V2.79961H474.535V1.3996V-0.000396729H463.015V1.3996ZM474.535 1.3996L473.394 2.21049L499.314 38.6905L500.455 37.8796L501.596 37.0687L475.676 0.588715L474.535 1.3996ZM500.455 37.8796H501.855V1.3996H500.455H499.055V37.8796H500.455ZM541.632 53.8156H540.232L541.632 55.2156V53.8156ZM568.512 53.8156H569.912L568.512 52.4156V53.8156ZM568.512 68.5996V69.9996L569.912 68.5996H568.512ZM526.272 68.5996H524.872L526.272 69.9996V68.5996ZM526.272 1.3996V-0.000396729L524.872 1.3996H526.272ZM568.032 1.3996H569.432L568.032 -0.000396729V1.3996ZM568.032 16.1836V17.5836L569.432 16.1836H568.032ZM541.632 16.1836V14.7836L540.232 16.1836H541.632ZM541.632 27.3196H540.232L541.632 28.7196V27.3196ZM565.632 27.3196H567.032L565.632 25.9196V27.3196ZM565.632 41.9116V43.3116L567.032 41.9116H565.632ZM541.632 41.9116V40.5116L540.232 41.9116H541.632ZM541.632 53.8156V55.2156H568.512V53.8156V52.4156H541.632V53.8156ZM568.512 53.8156H567.112V68.5996H568.512H569.912V53.8156H568.512ZM568.512 68.5996V67.1996H526.272V68.5996V69.9996H568.512V68.5996ZM526.272 68.5996H527.672V1.3996H526.272H524.872V68.5996H526.272ZM526.272 1.3996V2.79961H568.032V1.3996V-0.000396729H526.272V1.3996ZM568.032 1.3996H566.632V16.1836H568.032H569.432V1.3996H568.032ZM568.032 16.1836V14.7836H541.632V16.1836V17.5836H568.032V16.1836ZM541.632 16.1836H540.232V27.3196H541.632H543.032V16.1836H541.632ZM541.632 27.3196V28.7196H565.632V27.3196V25.9196H541.632V27.3196ZM565.632 27.3196H564.232V41.9116H565.632H567.032V27.3196H565.632ZM565.632 41.9116V40.5116H541.632V41.9116V43.3116H565.632V41.9116ZM541.632 41.9116H540.232V53.8156H541.632H543.032V41.9116H541.632ZM589.85 68.5996L588.5 68.9717L589.85 69.9996V68.5996ZM571.322 1.3996V-0.000396729L569.972 1.77172L571.322 1.3996ZM587.45 1.3996L588.809 1.06397L587.45 -0.000396729V1.3996ZM599.066 48.4396L597.707 48.7752L600.416 48.8115L599.066 48.4396ZM612.026 1.3996V-0.000396729L610.676 1.02775L612.026 1.3996ZM624.506 1.3996L625.856 1.02775L624.506 -0.000396729V1.3996ZM637.466 48.4396L636.116 48.8115L638.825 48.7752L637.466 48.4396ZM649.082 1.3996V-0.000396729L647.723 1.06397L649.082 1.3996ZM665.21 1.3996L666.56 1.77172L665.21 -0.000396729V1.3996ZM646.682 68.5996V69.9996L648.031 68.9717L646.682 68.5996ZM629.21 68.5996L627.86 68.9721L629.21 69.9996V68.5996ZM618.266 28.9516L619.615 28.5791H616.916L618.266 28.9516ZM607.322 68.5996V69.9996L608.671 68.9721L607.322 68.5996ZM589.85 68.5996L591.2 68.2275L572.672 1.02749L571.322 1.3996L569.972 1.77172L588.5 68.9717L589.85 68.5996ZM571.322 1.3996V2.79961H587.45V1.3996V-0.000396729H571.322V1.3996ZM587.45 1.3996L586.091 1.73524L597.707 48.7752L599.066 48.4396L600.425 48.104L588.809 1.06397L587.45 1.3996ZM599.066 48.4396L600.416 48.8115L613.376 1.77146L612.026 1.3996L610.676 1.02775L597.716 48.0677L599.066 48.4396ZM612.026 1.3996V2.79961H624.506V1.3996V-0.000396729H612.026V1.3996ZM624.506 1.3996L623.156 1.77146L636.116 48.8115L637.466 48.4396L638.816 48.0677L625.856 1.02775L624.506 1.3996ZM637.466 48.4396L638.825 48.7752L650.441 1.73524L649.082 1.3996L647.723 1.06397L636.107 48.104L637.466 48.4396ZM649.082 1.3996V2.79961H665.21V1.3996V-0.000396729H649.082V1.3996ZM665.21 1.3996L663.86 1.02749L645.332 68.2275L646.682 68.5996L648.031 68.9717L666.56 1.77172L665.21 1.3996ZM646.682 68.5996V67.1996H629.21V68.5996V69.9996H646.682V68.5996ZM629.21 68.5996L630.559 68.2271L619.615 28.5791L618.266 28.9516L616.916 29.3241L627.86 68.9721L629.21 68.5996ZM618.266 28.9516L616.916 28.5791L605.972 68.2271L607.322 68.5996L608.671 68.9721L619.615 29.3241L618.266 28.9516ZM607.322 68.5996V67.1996H589.85V68.5996V69.9996H607.322V68.5996ZM731.262 1.3996V-0.000396729L729.862 1.3996H731.262ZM746.622 1.3996H748.022L746.622 -0.000396729V1.3996ZM746.622 68.5996V69.9996L748.022 68.5996H746.622ZM735.102 68.5996L733.961 69.4105L735.102 69.9996V68.5996ZM709.182 32.1196L710.324 31.3087L707.782 32.1196H709.182ZM709.182 68.5996V69.9996L710.582 68.5996H709.182ZM693.822 68.5996H692.422L693.822 69.9996V68.5996ZM693.822 1.3996V-0.000396729L692.422 1.3996H693.822ZM705.342 1.3996L706.484 0.588715L705.342 -0.000396729V1.3996ZM731.262 37.8796L730.121 38.6905L732.662 37.8796H731.262ZM731.262 1.3996V2.79961H746.622V1.3996V-0.000396729H731.262V1.3996ZM746.622 1.3996H745.222V68.5996H746.622H748.022V1.3996H746.622ZM746.622 68.5996V67.1996H735.102V68.5996V69.9996H746.622V68.5996ZM735.102 68.5996L736.244 67.7887L710.324 31.3087L709.182 32.1196L708.041 32.9305L733.961 69.4105L735.102 68.5996ZM709.182 32.1196H707.782V68.5996H709.182H710.582V32.1196H709.182ZM709.182 68.5996V67.1996H693.822V68.5996V69.9996H709.182V68.5996ZM693.822 68.5996H695.222V1.3996H693.822H692.422V68.5996H693.822ZM693.822 1.3996V2.79961H705.342V1.3996V-0.000396729H693.822V1.3996ZM705.342 1.3996L704.201 2.21049L730.121 38.6905L731.262 37.8796L732.404 37.0687L706.484 0.588715L705.342 1.3996ZM731.262 37.8796H732.662V1.3996H731.262H729.862V37.8796H731.262ZM772.439 53.8156H771.039L772.439 55.2156V53.8156ZM799.319 53.8156H800.719L799.319 52.4156V53.8156ZM799.319 68.5996V69.9996L800.719 68.5996H799.319ZM757.079 68.5996H755.679L757.079 69.9996V68.5996ZM757.079 1.3996V-0.000396729L755.679 1.3996H757.079ZM798.839 1.3996H800.239L798.839 -0.000396729V1.3996ZM798.839 16.1836V17.5836L800.239 16.1836H798.839ZM772.439 16.1836V14.7836L771.039 16.1836H772.439ZM772.439 27.3196H771.039L772.439 28.7196V27.3196ZM796.439 27.3196H797.839L796.439 25.9196V27.3196ZM796.439 41.9116V43.3116L797.839 41.9116H796.439ZM772.439 41.9116V40.5116L771.039 41.9116H772.439ZM772.439 53.8156V55.2156H799.319V53.8156V52.4156H772.439V53.8156ZM799.319 53.8156H797.919V68.5996H799.319H800.719V53.8156H799.319ZM799.319 68.5996V67.1996H757.079V68.5996V69.9996H799.319V68.5996ZM757.079 68.5996H758.479V1.3996H757.079H755.679V68.5996H757.079ZM757.079 1.3996V2.79961H798.839V1.3996V-0.000396729H757.079V1.3996ZM798.839 1.3996H797.439V16.1836H798.839H800.239V1.3996H798.839ZM798.839 16.1836V14.7836H772.439V16.1836V17.5836H798.839V16.1836ZM772.439 16.1836H771.039V27.3196H772.439H773.839V16.1836H772.439ZM772.439 27.3196V28.7196H796.439V27.3196V25.9196H772.439V27.3196ZM796.439 27.3196H795.039V41.9116H796.439H797.839V27.3196H796.439ZM796.439 41.9116V40.5116H772.439V41.9116V43.3116H796.439V41.9116ZM772.439 41.9116H771.039V53.8156H772.439H773.839V41.9116H772.439ZM820.657 68.5996L819.307 68.9717L820.657 69.9996V68.5996ZM802.129 1.3996V-0.000396729L800.779 1.77172L802.129 1.3996ZM818.257 1.3996L819.616 1.06397L818.257 -0.000396729V1.3996ZM829.873 48.4396L828.514 48.7752L831.223 48.8115L829.873 48.4396ZM842.833 1.3996V-0.000396729L841.483 1.02775L842.833 1.3996ZM855.313 1.3996L856.663 1.02775L855.313 -0.000396729V1.3996ZM868.273 48.4396L866.923 48.8115L869.632 48.7752L868.273 48.4396ZM879.889 1.3996V-0.000396729L878.53 1.06397L879.889 1.3996ZM896.017 1.3996L897.367 1.77172L896.017 -0.000396729V1.3996ZM877.489 68.5996V69.9996L878.839 68.9717L877.489 68.5996ZM860.017 68.5996L858.668 68.9721L860.017 69.9996V68.5996ZM849.073 28.9516L850.423 28.5791H847.724L849.073 28.9516ZM838.129 68.5996V69.9996L839.479 68.9721L838.129 68.5996ZM820.657 68.5996L822.007 68.2275L803.479 1.02749L802.129 1.3996L800.779 1.77172L819.307 68.9717L820.657 68.5996ZM802.129 1.3996V2.79961H818.257V1.3996V-0.000396729H802.129V1.3996ZM818.257 1.3996L816.898 1.73524L828.514 48.7752L829.873 48.4396L831.232 48.104L819.616 1.06397L818.257 1.3996ZM829.873 48.4396L831.223 48.8115L844.183 1.77146L842.833 1.3996L841.483 1.02775L828.523 48.0677L829.873 48.4396ZM842.833 1.3996V2.79961H855.313V1.3996V-0.000396729H842.833V1.3996ZM855.313 1.3996L853.963 1.77146L866.923 48.8115L868.273 48.4396L869.623 48.0677L856.663 1.02775L855.313 1.3996ZM868.273 48.4396L869.632 48.7752L881.248 1.73524L879.889 1.3996L878.53 1.06397L866.914 48.104L868.273 48.4396ZM879.889 1.3996V2.79961H896.017V1.3996V-0.000396729H879.889V1.3996ZM896.017 1.3996L894.667 1.02749L876.139 68.2275L877.489 68.5996L878.839 68.9717L897.367 1.77172L896.017 1.3996ZM877.489 68.5996V67.1996H860.017V68.5996V69.9996H877.489V68.5996ZM860.017 68.5996L861.367 68.2271L850.423 28.5791L849.073 28.9516L847.724 29.3241L858.668 68.9721L860.017 68.5996ZM849.073 28.9516L847.724 28.5791L836.78 68.2271L838.129 68.5996L839.479 68.9721L850.423 29.3241L849.073 28.9516ZM838.129 68.5996V67.1996H820.657V68.5996V69.9996H838.129V68.5996ZM962.07 1.3996V-0.000396729L960.67 1.3996H962.07ZM977.43 1.3996H978.83L977.43 -0.000396729V1.3996ZM977.43 68.5996V69.9996L978.83 68.5996H977.43ZM965.91 68.5996L964.768 69.4105L965.91 69.9996V68.5996ZM939.99 32.1196L941.131 31.3087L938.59 32.1196H939.99ZM939.99 68.5996V69.9996L941.39 68.5996H939.99ZM924.63 68.5996H923.23L924.63 69.9996V68.5996ZM924.63 1.3996V-0.000396729L923.23 1.3996H924.63ZM936.15 1.3996L937.291 0.588715L936.15 -0.000396729V1.3996ZM962.07 37.8796L960.928 38.6905L963.47 37.8796H962.07ZM962.07 1.3996V2.79961H977.43V1.3996V-0.000396729H962.07V1.3996ZM977.43 1.3996H976.03V68.5996H977.43H978.83V1.3996H977.43ZM977.43 68.5996V67.1996H965.91V68.5996V69.9996H977.43V68.5996ZM965.91 68.5996L967.051 67.7887L941.131 31.3087L939.99 32.1196L938.848 32.9305L964.768 69.4105L965.91 68.5996ZM939.99 32.1196H938.59V68.5996H939.99H941.39V32.1196H939.99ZM939.99 68.5996V67.1996H924.63V68.5996V69.9996H939.99V68.5996ZM924.63 68.5996H926.03V1.3996H924.63H923.23V68.5996H924.63ZM924.63 1.3996V2.79961H936.15V1.3996V-0.000396729H924.63V1.3996ZM936.15 1.3996L935.008 2.21049L960.928 38.6905L962.07 37.8796L963.211 37.0687L937.291 0.588715L936.15 1.3996ZM962.07 37.8796H963.47V1.3996H962.07H960.67V37.8796H962.07ZM1003.25 53.8156H1001.85L1003.25 55.2156V53.8156ZM1030.13 53.8156H1031.53L1030.13 52.4156V53.8156ZM1030.13 68.5996V69.9996L1031.53 68.5996H1030.13ZM987.886 68.5996H986.486L987.886 69.9996V68.5996ZM987.886 1.3996V-0.000396729L986.486 1.3996H987.886ZM1029.65 1.3996H1031.05L1029.65 -0.000396729V1.3996ZM1029.65 16.1836V17.5836L1031.05 16.1836H1029.65ZM1003.25 16.1836V14.7836L1001.85 16.1836H1003.25ZM1003.25 27.3196H1001.85L1003.25 28.7196V27.3196ZM1027.25 27.3196H1028.65L1027.25 25.9196V27.3196ZM1027.25 41.9116V43.3116L1028.65 41.9116H1027.25ZM1003.25 41.9116V40.5116L1001.85 41.9116H1003.25ZM1003.25 53.8156V55.2156H1030.13V53.8156V52.4156H1003.25V53.8156ZM1030.13 53.8156H1028.73V68.5996H1030.13H1031.53V53.8156H1030.13ZM1030.13 68.5996V67.1996H987.886V68.5996V69.9996H1030.13V68.5996ZM987.886 68.5996H989.286V1.3996H987.886H986.486V68.5996H987.886ZM987.886 1.3996V2.79961H1029.65V1.3996V-0.000396729H987.886V1.3996ZM1029.65 1.3996H1028.25V16.1836H1029.65H1031.05V1.3996H1029.65ZM1029.65 16.1836V14.7836H1003.25V16.1836V17.5836H1029.65V16.1836ZM1003.25 16.1836H1001.85V27.3196H1003.25H1004.65V16.1836H1003.25ZM1003.25 27.3196V28.7196H1027.25V27.3196V25.9196H1003.25V27.3196ZM1027.25 27.3196H1025.85V41.9116H1027.25H1028.65V27.3196H1027.25ZM1027.25 41.9116V40.5116H1003.25V41.9116V43.3116H1027.25V41.9116ZM1003.25 41.9116H1001.85V53.8156H1003.25H1004.65V41.9116H1003.25ZM1051.46 68.5996L1050.11 68.9717L1051.46 69.9996V68.5996ZM1032.94 1.3996V-0.000396729L1031.59 1.77172L1032.94 1.3996ZM1049.06 1.3996L1050.42 1.06397L1049.06 -0.000396729V1.3996ZM1060.68 48.4396L1059.32 48.7752L1062.03 48.8115L1060.68 48.4396ZM1073.64 1.3996V-0.000396729L1072.29 1.02775L1073.64 1.3996ZM1086.12 1.3996L1087.47 1.02775L1086.12 -0.000396729V1.3996ZM1099.08 48.4396L1097.73 48.8115L1100.44 48.7752L1099.08 48.4396ZM1110.7 1.3996V-0.000396729L1109.34 1.06397L1110.7 1.3996ZM1126.82 1.3996L1128.17 1.77172L1126.82 -0.000396729V1.3996ZM1108.3 68.5996V69.9996L1109.65 68.9717L1108.3 68.5996ZM1090.82 68.5996L1089.47 68.9721L1090.82 69.9996V68.5996ZM1079.88 28.9516L1081.23 28.5791H1078.53L1079.88 28.9516ZM1068.94 68.5996V69.9996L1070.29 68.9721L1068.94 68.5996ZM1051.46 68.5996L1052.81 68.2275L1034.29 1.02749L1032.94 1.3996L1031.59 1.77172L1050.11 68.9717L1051.46 68.5996ZM1032.94 1.3996V2.79961H1049.06V1.3996V-0.000396729H1032.94V1.3996ZM1049.06 1.3996L1047.71 1.73524L1059.32 48.7752L1060.68 48.4396L1062.04 48.104L1050.42 1.06397L1049.06 1.3996ZM1060.68 48.4396L1062.03 48.8115L1074.99 1.77146L1073.64 1.3996L1072.29 1.02775L1059.33 48.0677L1060.68 48.4396ZM1073.64 1.3996V2.79961H1086.12V1.3996V-0.000396729H1073.64V1.3996ZM1086.12 1.3996L1084.77 1.77146L1097.73 48.8115L1099.08 48.4396L1100.43 48.0677L1087.47 1.02775L1086.12 1.3996ZM1099.08 48.4396L1100.44 48.7752L1112.06 1.73524L1110.7 1.3996L1109.34 1.06397L1097.72 48.104L1099.08 48.4396ZM1110.7 1.3996V2.79961H1126.82V1.3996V-0.000396729H1110.7V1.3996ZM1126.82 1.3996L1125.47 1.02749L1106.95 68.2275L1108.3 68.5996L1109.65 68.9717L1128.17 1.77172L1126.82 1.3996ZM1108.3 68.5996V67.1996H1090.82V68.5996V69.9996H1108.3V68.5996ZM1090.82 68.5996L1092.17 68.2271L1081.23 28.5791L1079.88 28.9516L1078.53 29.3241L1089.47 68.9721L1090.82 68.5996ZM1079.88 28.9516L1078.53 28.5791L1067.59 68.2271L1068.94 68.5996L1070.29 68.9721L1081.23 29.3241L1079.88 28.9516ZM1068.94 68.5996V67.1996H1051.46V68.5996V69.9996H1068.94V68.5996Z" fill="white" mask="url(#path-1-outside-1_1894_896)"/>
</svg>
