<svg width="2149" height="144" viewBox="0 0 2149 144" fill="none" xmlns="http://www.w3.org/2000/svg">
<mask id="path-1-outside-1_1565_501" maskUnits="userSpaceOnUse" x="0" y="0" width="2149" height="144" fill="black">
<rect fill="white" width="2149" height="144"/>
<path d="M55 1.99999C82.6 1.99999 104 23.4 104 50C104 76.6 82.6 98 55 98H34V142H2V1.99999H55ZM55 68C64.8 68 72 60.2 72 50C72 39.8 64.8 32 55 32H34V68H55ZM192.706 142L185.706 120H133.706L126.706 142H91.7063L139.306 1.99999H180.106L227.706 142H192.706ZM143.306 90H176.106L159.706 38.6L143.306 90ZM311.044 142L284.644 96H269.444V142H237.444V1.99999H293.444C320.044 1.99999 341.444 23.4 341.444 50C341.444 67.2 331.044 82.8 315.644 90.6L345.444 142H311.044ZM269.444 32V68H293.444C302.244 68 309.444 60.2 309.444 50C309.444 39.8 302.244 32 293.444 32H269.444ZM449.361 1.99999V32.8H413.361V142H381.361V32.8H345.361V1.99999H449.361ZM575.169 1.99999L528.169 88.2V142H496.169V88.2L449.169 1.99999H485.569L512.169 56L538.769 1.99999H575.169ZM726.745 1.99999V32.8H690.745V142H658.745V32.8H622.745V1.99999H726.745ZM738.553 1.99999H770.553V142H738.553V1.99999ZM932.408 1.99999V142H900.408V60.6L864.208 120H860.608L824.408 60.6V142H792.408V1.99999H824.408L862.408 64.2L900.408 1.99999H932.408ZM986.27 111.2H1042.27V142H954.27V1.99999H1041.27V32.8H986.27V56H1036.27V86.4H986.27V111.2ZM1158.93 1.99999C1186.53 1.99999 1207.93 23.4 1207.93 50C1207.93 76.6 1186.53 98 1158.93 98H1137.93V142H1105.93V1.99999H1158.93ZM1158.93 68C1168.73 68 1175.93 60.2 1175.93 50C1175.93 39.8 1168.73 32 1158.93 32H1137.93V68H1158.93ZM1296.63 142L1289.63 120H1237.63L1230.63 142H1195.63L1243.23 1.99999H1284.03L1331.63 142H1296.63ZM1247.23 90H1280.03L1263.63 38.6L1247.23 90ZM1414.97 142L1388.57 96H1373.37V142H1341.37V1.99999H1397.37C1423.97 1.99999 1445.37 23.4 1445.37 50C1445.37 67.2 1434.97 82.8 1419.57 90.6L1449.37 142H1414.97ZM1373.37 32V68H1397.37C1406.17 68 1413.37 60.2 1413.37 50C1413.37 39.8 1406.17 32 1397.37 32H1373.37ZM1553.29 1.99999V32.8H1517.29V142H1485.29V32.8H1449.29V1.99999H1553.29ZM1679.09 1.99999L1632.09 88.2V142H1600.09V88.2L1553.09 1.99999H1589.49L1616.09 56L1642.69 1.99999H1679.09ZM1830.67 1.99999V32.8H1794.67V142H1762.67V32.8H1726.67V1.99999H1830.67ZM1842.48 1.99999H1874.48V142H1842.48V1.99999ZM2036.33 1.99999V142H2004.33V60.6L1968.13 120H1964.53L1928.33 60.6V142H1896.33V1.99999H1928.33L1966.33 64.2L2004.33 1.99999H2036.33ZM2090.2 111.2H2146.2V142H2058.2V1.99999H2145.2V32.8H2090.2V56H2140.2V86.4H2090.2V111.2Z"/>
</mask>
<path d="M34 98V96L32 98H34ZM34 142V144L36 142H34ZM2 142H0L2 144V142ZM2 1.99998V-1.52588e-05L0 1.99998H2ZM34 32V30L32 32H34ZM34 68H32L34 70V68ZM55 1.99998V3.99998C81.5225 3.99998 102 24.5314 102 50H104H106C106 22.2685 83.6775 -1.52588e-05 55 -1.52588e-05V1.99998ZM104 50H102C102 75.4685 81.5225 96 55 96V98V100C83.6775 100 106 77.7314 106 50H104ZM55 98V96H34V98V100H55V98ZM34 98H32V142H34H36V98H34ZM34 142V140H2V142V144H34V142ZM2 142H4V1.99998H2H0V142H2ZM2 1.99998V3.99998H55V1.99998V-1.52588e-05H2V1.99998ZM55 68V70C66.0233 70 74 61.182 74 50H72H70C70 59.218 63.5767 66 55 66V68ZM72 50H74C74 38.818 66.0233 30 55 30V32V34C63.5767 34 70 40.782 70 50H72ZM55 32V30H34V32V34H55V32ZM34 32H32V68H34H36V32H34ZM34 68V70H55V68V66H34V68ZM192.706 142L190.8 142.606L192.706 144V142ZM185.706 120L187.612 119.394L185.706 118V120ZM133.706 120V118L131.8 119.394L133.706 120ZM126.706 142V144L128.612 142.606L126.706 142ZM91.7063 142L89.8127 141.356L91.7063 144V142ZM139.306 1.99998V-1.52588e-05L137.413 1.35619L139.306 1.99998ZM180.106 1.99998L182 1.35619L180.106 -1.52588e-05V1.99998ZM227.706 142V144L229.6 141.356L227.706 142ZM143.306 90L141.401 89.3921L143.306 92V90ZM176.106 90V92L178.012 89.3921L176.106 90ZM159.706 38.6L161.612 37.9921H157.801L159.706 38.6ZM192.706 142L194.612 141.394L187.612 119.394L185.706 120L183.8 120.606L190.8 142.606L192.706 142ZM185.706 120V118H133.706V120V122H185.706V120ZM133.706 120L131.8 119.394L124.8 141.394L126.706 142L128.612 142.606L135.612 120.606L133.706 120ZM126.706 142V140H91.7063V142V144H126.706V142ZM91.7063 142L93.5998 142.644L141.2 2.6438L139.306 1.99998L137.413 1.35619L89.8127 141.356L91.7063 142ZM139.306 1.99998V3.99998H180.106V1.99998V-1.52588e-05H139.306V1.99998ZM180.106 1.99998L178.213 2.6438L225.813 142.644L227.706 142L229.6 141.356L182 1.35619L180.106 1.99998ZM227.706 142V140H192.706V142V144H227.706V142ZM143.306 90V92H176.106V90V88H143.306V90ZM176.106 90L178.012 89.3921L161.612 37.9921L159.706 38.6L157.801 39.2079L174.201 90.6079L176.106 90ZM159.706 38.6L157.801 37.9921L141.401 89.3921L143.306 90L145.212 90.6079L161.612 39.2079L159.706 38.6ZM311.044 142L309.309 142.996L311.044 144V142ZM284.644 96L286.378 95.0045L284.644 94V96ZM269.444 96V94L267.444 96H269.444ZM269.444 142V144L271.444 142H269.444ZM237.444 142H235.444L237.444 144V142ZM237.444 1.99998V-1.52588e-05L235.444 1.99998H237.444ZM315.644 90.6L314.74 88.8158L313.914 91.6031L315.644 90.6ZM345.444 142V144L347.174 140.997L345.444 142ZM269.444 32V30L267.444 32H269.444ZM269.444 68H267.444L269.444 70V68ZM311.044 142L312.778 141.004L286.378 95.0045L284.644 96L282.909 96.9955L309.309 142.996L311.044 142ZM284.644 96V94H269.444V96V98H284.644V96ZM269.444 96H267.444V142H269.444H271.444V96H269.444ZM269.444 142V140H237.444V142V144H269.444V142ZM237.444 142H239.444V1.99998H237.444H235.444V142H237.444ZM237.444 1.99998V3.99998H293.444V1.99998V-1.52588e-05H237.444V1.99998ZM293.444 1.99998V3.99998C318.939 3.99998 339.444 24.5046 339.444 50H341.444H343.444C343.444 22.2954 321.148 -1.52588e-05 293.444 -1.52588e-05V1.99998ZM341.444 50H339.444C339.444 66.3808 329.528 81.3258 314.74 88.8158L315.644 90.6L316.547 92.3842C332.56 84.2742 343.444 68.0192 343.444 50H341.444ZM315.644 90.6L313.914 91.6031L343.714 143.003L345.444 142L347.174 140.997L317.374 89.5969L315.644 90.6ZM345.444 142V140H311.044V142V144H345.444V142ZM269.444 32H267.444V68H269.444H271.444V32H269.444ZM269.444 68V70H293.444V68V66H269.444V68ZM293.444 68V70C303.543 70 311.444 61.0994 311.444 50H309.444H307.444C307.444 59.3006 300.945 66 293.444 66V68ZM309.444 50H311.444C311.444 38.9005 303.543 30 293.444 30V32V34C300.945 34 307.444 40.6994 307.444 50H309.444ZM293.444 32V30H269.444V32V34H293.444V32ZM449.361 1.99998H451.361L449.361 -1.52588e-05V1.99998ZM449.361 32.8V34.8L451.361 32.8H449.361ZM413.361 32.8V30.8L411.361 32.8H413.361ZM413.361 142V144L415.361 142H413.361ZM381.361 142H379.361L381.361 144V142ZM381.361 32.8H383.361L381.361 30.8V32.8ZM345.361 32.8H343.361L345.361 34.8V32.8ZM345.361 1.99998V-1.52588e-05L343.361 1.99998H345.361ZM449.361 1.99998H447.361V32.8H449.361H451.361V1.99998H449.361ZM449.361 32.8V30.8H413.361V32.8V34.8H449.361V32.8ZM413.361 32.8H411.361V142H413.361H415.361V32.8H413.361ZM413.361 142V140H381.361V142V144H413.361V142ZM381.361 142H383.361V32.8H381.361H379.361V142H381.361ZM381.361 32.8V30.8H345.361V32.8V34.8H381.361V32.8ZM345.361 32.8H347.361V1.99998H345.361H343.361V32.8H345.361ZM345.361 1.99998V3.99998H449.361V1.99998V-1.52588e-05H345.361V1.99998ZM575.169 1.99998L576.925 2.95741L575.169 -1.52588e-05V1.99998ZM528.169 88.2L526.413 87.2426L526.169 88.2H528.169ZM528.169 142V144L530.169 142H528.169ZM496.169 142H494.169L496.169 144V142ZM496.169 88.2H498.169L497.925 87.2426L496.169 88.2ZM449.169 1.99998V-1.52588e-05L447.413 2.95741L449.169 1.99998ZM485.569 1.99998L487.363 1.11621L485.569 -1.52588e-05V1.99998ZM512.169 56L510.375 56.8838H513.963L512.169 56ZM538.769 1.99998V-1.52588e-05L536.975 1.11621L538.769 1.99998ZM575.169 1.99998L573.413 1.04257L526.413 87.2426L528.169 88.2L529.925 89.1574L576.925 2.95741L575.169 1.99998ZM528.169 88.2H526.169V142H528.169H530.169V88.2H528.169ZM528.169 142V140H496.169V142V144H528.169V142ZM496.169 142H498.169V88.2H496.169H494.169V142H496.169ZM496.169 88.2L497.925 87.2426L450.925 1.04257L449.169 1.99998L447.413 2.95741L494.413 89.1574L496.169 88.2ZM449.169 1.99998V3.99998H485.569V1.99998V-1.52588e-05H449.169V1.99998ZM485.569 1.99998L483.775 2.88377L510.375 56.8838L512.169 56L513.963 55.1162L487.363 1.11621L485.569 1.99998ZM512.169 56L513.963 56.8838L540.563 2.88377L538.769 1.99998L536.975 1.11621L510.375 55.1162L512.169 56ZM538.769 1.99998V3.99998H575.169V1.99998V-1.52588e-05H538.769V1.99998ZM726.745 1.99998H728.745L726.745 -1.52588e-05V1.99998ZM726.745 32.8V34.8L728.745 32.8H726.745ZM690.745 32.8V30.8L688.745 32.8H690.745ZM690.745 142V144L692.745 142H690.745ZM658.745 142H656.745L658.745 144V142ZM658.745 32.8H660.745L658.745 30.8V32.8ZM622.745 32.8H620.745L622.745 34.8V32.8ZM622.745 1.99998V-1.52588e-05L620.745 1.99998H622.745ZM726.745 1.99998H724.745V32.8H726.745H728.745V1.99998H726.745ZM726.745 32.8V30.8H690.745V32.8V34.8H726.745V32.8ZM690.745 32.8H688.745V142H690.745H692.745V32.8H690.745ZM690.745 142V140H658.745V142V144H690.745V142ZM658.745 142H660.745V32.8H658.745H656.745V142H658.745ZM658.745 32.8V30.8H622.745V32.8V34.8H658.745V32.8ZM622.745 32.8H624.745V1.99998H622.745H620.745V32.8H622.745ZM622.745 1.99998V3.99998H726.745V1.99998V-1.52588e-05H622.745V1.99998ZM738.553 1.99998V-1.52588e-05L736.553 1.99998H738.553ZM770.553 1.99998H772.553L770.553 -1.52588e-05V1.99998ZM770.553 142V144L772.553 142H770.553ZM738.553 142H736.553L738.553 144V142ZM738.553 1.99998V3.99998H770.553V1.99998V-1.52588e-05H738.553V1.99998ZM770.553 1.99998H768.553V142H770.553H772.553V1.99998H770.553ZM770.553 142V140H738.553V142V144H770.553V142ZM738.553 142H740.553V1.99998H738.553H736.553V142H738.553ZM932.408 1.99998H934.408L932.408 -1.52588e-05V1.99998ZM932.408 142V144L934.408 142H932.408ZM900.408 142H898.408L900.408 144V142ZM900.408 60.6H902.408L898.7 59.5592L900.408 60.6ZM864.208 120V122L865.916 121.041L864.208 120ZM860.608 120L858.9 121.041L860.608 122V120ZM824.408 60.6L826.116 59.5592L822.408 60.6H824.408ZM824.408 142V144L826.408 142H824.408ZM792.408 142H790.408L792.408 144V142ZM792.408 1.99998V-1.52588e-05L790.408 1.99998H792.408ZM824.408 1.99998L826.115 0.957306L824.408 -1.52588e-05V1.99998ZM862.408 64.2L860.701 65.2427H864.115L862.408 64.2ZM900.408 1.99998V-1.52588e-05L898.701 0.957306L900.408 1.99998ZM932.408 1.99998H930.408V142H932.408H934.408V1.99998H932.408ZM932.408 142V140H900.408V142V144H932.408V142ZM900.408 142H902.408V60.6H900.408H898.408V142H900.408ZM900.408 60.6L898.7 59.5592L862.5 118.959L864.208 120L865.916 121.041L902.116 61.6408L900.408 60.6ZM864.208 120V118H860.608V120V122H864.208V120ZM860.608 120L862.316 118.959L826.116 59.5592L824.408 60.6L822.7 61.6408L858.9 121.041L860.608 120ZM824.408 60.6H822.408V142H824.408H826.408V60.6H824.408ZM824.408 142V140H792.408V142V144H824.408V142ZM792.408 142H794.408V1.99998H792.408H790.408V142H792.408ZM792.408 1.99998V3.99998H824.408V1.99998V-1.52588e-05H792.408V1.99998ZM824.408 1.99998L822.701 3.04266L860.701 65.2427L862.408 64.2L864.115 63.1573L826.115 0.957306L824.408 1.99998ZM862.408 64.2L864.115 65.2427L902.115 3.04266L900.408 1.99998L898.701 0.957306L860.701 63.1573L862.408 64.2ZM900.408 1.99998V3.99998H932.408V1.99998V-1.52588e-05H900.408V1.99998ZM986.27 111.2H984.27L986.27 113.2V111.2ZM1042.27 111.2H1044.27L1042.27 109.2V111.2ZM1042.27 142V144L1044.27 142H1042.27ZM954.27 142H952.27L954.27 144V142ZM954.27 1.99998V-1.52588e-05L952.27 1.99998H954.27ZM1041.27 1.99998H1043.27L1041.27 -1.52588e-05V1.99998ZM1041.27 32.8V34.8L1043.27 32.8H1041.27ZM986.27 32.8V30.8L984.27 32.8H986.27ZM986.27 56H984.27L986.27 58V56ZM1036.27 56H1038.27L1036.27 54V56ZM1036.27 86.4V88.4L1038.27 86.4H1036.27ZM986.27 86.4V84.4L984.27 86.4H986.27ZM986.27 111.2V113.2H1042.27V111.2V109.2H986.27V111.2ZM1042.27 111.2H1040.27V142H1042.27H1044.27V111.2H1042.27ZM1042.27 142V140H954.27V142V144H1042.27V142ZM954.27 142H956.27V1.99998H954.27H952.27V142H954.27ZM954.27 1.99998V3.99998H1041.27V1.99998V-1.52588e-05H954.27V1.99998ZM1041.27 1.99998H1039.27V32.8H1041.27H1043.27V1.99998H1041.27ZM1041.27 32.8V30.8H986.27V32.8V34.8H1041.27V32.8ZM986.27 32.8H984.27V56H986.27H988.27V32.8H986.27ZM986.27 56V58H1036.27V56V54H986.27V56ZM1036.27 56H1034.27V86.4H1036.27H1038.27V56H1036.27ZM1036.27 86.4V84.4H986.27V86.4V88.4H1036.27V86.4ZM986.27 86.4H984.27V111.2H986.27H988.27V86.4H986.27ZM1137.93 98V96L1135.93 98H1137.93ZM1137.93 142V144L1139.93 142H1137.93ZM1105.93 142H1103.93L1105.93 144V142ZM1105.93 1.99998V-1.52588e-05L1103.93 1.99998H1105.93ZM1137.93 32V30L1135.93 32H1137.93ZM1137.93 68H1135.93L1137.93 70V68ZM1158.93 1.99998V3.99998C1185.45 3.99998 1205.93 24.5314 1205.93 50H1207.93H1209.93C1209.93 22.2685 1187.6 -1.52588e-05 1158.93 -1.52588e-05V1.99998ZM1207.93 50H1205.93C1205.93 75.4685 1185.45 96 1158.93 96V98V100C1187.6 100 1209.93 77.7314 1209.93 50H1207.93ZM1158.93 98V96H1137.93V98V100H1158.93V98ZM1137.93 98H1135.93V142H1137.93H1139.93V98H1137.93ZM1137.93 142V140H1105.93V142V144H1137.93V142ZM1105.93 142H1107.93V1.99998H1105.93H1103.93V142H1105.93ZM1105.93 1.99998V3.99998H1158.93V1.99998V-1.52588e-05H1105.93V1.99998ZM1158.93 68V70C1169.95 70 1177.93 61.182 1177.93 50H1175.93H1173.93C1173.93 59.218 1167.5 66 1158.93 66V68ZM1175.93 50H1177.93C1177.93 38.818 1169.95 30 1158.93 30V32V34C1167.5 34 1173.93 40.782 1173.93 50H1175.93ZM1158.93 32V30H1137.93V32V34H1158.93V32ZM1137.93 32H1135.93V68H1137.93H1139.93V32H1137.93ZM1137.93 68V70H1158.93V68V66H1137.93V68ZM1296.63 142L1294.73 142.606L1296.63 144V142ZM1289.63 120L1291.54 119.394L1289.63 118V120ZM1237.63 120V118L1235.73 119.394L1237.63 120ZM1230.63 142V144L1232.54 142.606L1230.63 142ZM1195.63 142L1193.74 141.356L1195.63 144V142ZM1243.23 1.99998V-1.52588e-05L1241.34 1.35619L1243.23 1.99998ZM1284.03 1.99998L1285.92 1.35619L1284.03 -1.52588e-05V1.99998ZM1331.63 142V144L1333.52 141.356L1331.63 142ZM1247.23 90L1245.33 89.3921L1247.23 92V90ZM1280.03 90V92L1281.94 89.3921L1280.03 90ZM1263.63 38.6L1265.54 37.9921H1261.73L1263.63 38.6ZM1296.63 142L1298.54 141.394L1291.54 119.394L1289.63 120L1287.73 120.606L1294.73 142.606L1296.63 142ZM1289.63 120V118H1237.63V120V122H1289.63V120ZM1237.63 120L1235.73 119.394L1228.73 141.394L1230.63 142L1232.54 142.606L1239.54 120.606L1237.63 120ZM1230.63 142V140H1195.63V142V144H1230.63V142ZM1195.63 142L1197.52 142.644L1245.12 2.6438L1243.23 1.99998L1241.34 1.35619L1193.74 141.356L1195.63 142ZM1243.23 1.99998V3.99998H1284.03V1.99998V-1.52588e-05H1243.23V1.99998ZM1284.03 1.99998L1282.14 2.6438L1329.74 142.644L1331.63 142L1333.52 141.356L1285.92 1.35619L1284.03 1.99998ZM1331.63 142V140H1296.63V142V144H1331.63V142ZM1247.23 90V92H1280.03V90V88H1247.23V90ZM1280.03 90L1281.94 89.3921L1265.54 37.9921L1263.63 38.6L1261.73 39.2079L1278.13 90.6079L1280.03 90ZM1263.63 38.6L1261.73 37.9921L1245.33 89.3921L1247.23 90L1249.14 90.6079L1265.54 39.2079L1263.63 38.6ZM1414.97 142L1413.23 142.996L1414.97 144V142ZM1388.57 96L1390.3 95.0045L1388.57 94V96ZM1373.37 96V94L1371.37 96H1373.37ZM1373.37 142V144L1375.37 142H1373.37ZM1341.37 142H1339.37L1341.37 144V142ZM1341.37 1.99998V-1.52588e-05L1339.37 1.99998H1341.37ZM1419.57 90.6L1418.67 88.8158L1417.84 91.6031L1419.57 90.6ZM1449.37 142V144L1451.1 140.997L1449.37 142ZM1373.37 32V30L1371.37 32H1373.37ZM1373.37 68H1371.37L1373.37 70V68ZM1414.97 142L1416.7 141.004L1390.3 95.0045L1388.57 96L1386.83 96.9955L1413.23 142.996L1414.97 142ZM1388.57 96V94H1373.37V96V98H1388.57V96ZM1373.37 96H1371.37V142H1373.37H1375.37V96H1373.37ZM1373.37 142V140H1341.37V142V144H1373.37V142ZM1341.37 142H1343.37V1.99998H1341.37H1339.37V142H1341.37ZM1341.37 1.99998V3.99998H1397.37V1.99998V-1.52588e-05H1341.37V1.99998ZM1397.37 1.99998V3.99998C1422.86 3.99998 1443.37 24.5046 1443.37 50H1445.37H1447.37C1447.37 22.2954 1425.07 -1.52588e-05 1397.37 -1.52588e-05V1.99998ZM1445.37 50H1443.37C1443.37 66.3808 1433.45 81.3258 1418.67 88.8158L1419.57 90.6L1420.47 92.3842C1436.48 84.2742 1447.37 68.0192 1447.37 50H1445.37ZM1419.57 90.6L1417.84 91.6031L1447.64 143.003L1449.37 142L1451.1 140.997L1421.3 89.5969L1419.57 90.6ZM1449.37 142V140H1414.97V142V144H1449.37V142ZM1373.37 32H1371.37V68H1373.37H1375.37V32H1373.37ZM1373.37 68V70H1397.37V68V66H1373.37V68ZM1397.37 68V70C1407.47 70 1415.37 61.0994 1415.37 50H1413.37H1411.37C1411.37 59.3006 1404.87 66 1397.37 66V68ZM1413.37 50H1415.37C1415.37 38.9005 1407.47 30 1397.37 30V32V34C1404.87 34 1411.37 40.6994 1411.37 50H1413.37ZM1397.37 32V30H1373.37V32V34H1397.37V32ZM1553.29 1.99998H1555.29L1553.29 -1.52588e-05V1.99998ZM1553.29 32.8V34.8L1555.29 32.8H1553.29ZM1517.29 32.8V30.8L1515.29 32.8H1517.29ZM1517.29 142V144L1519.29 142H1517.29ZM1485.29 142H1483.29L1485.29 144V142ZM1485.29 32.8H1487.29L1485.29 30.8V32.8ZM1449.29 32.8H1447.29L1449.29 34.8V32.8ZM1449.29 1.99998V-1.52588e-05L1447.29 1.99998H1449.29ZM1553.29 1.99998H1551.29V32.8H1553.29H1555.29V1.99998H1553.29ZM1553.29 32.8V30.8H1517.29V32.8V34.8H1553.29V32.8ZM1517.29 32.8H1515.29V142H1517.29H1519.29V32.8H1517.29ZM1517.29 142V140H1485.29V142V144H1517.29V142ZM1485.29 142H1487.29V32.8H1485.29H1483.29V142H1485.29ZM1485.29 32.8V30.8H1449.29V32.8V34.8H1485.29V32.8ZM1449.29 32.8H1451.29V1.99998H1449.29H1447.29V32.8H1449.29ZM1449.29 1.99998V3.99998H1553.29V1.99998V-1.52588e-05H1449.29V1.99998ZM1679.09 1.99998L1680.85 2.95741L1679.09 -1.52588e-05V1.99998ZM1632.09 88.2L1630.34 87.2426L1630.09 88.2H1632.09ZM1632.09 142V144L1634.09 142H1632.09ZM1600.09 142H1598.09L1600.09 144V142ZM1600.09 88.2H1602.09L1601.85 87.2426L1600.09 88.2ZM1553.09 1.99998V-1.52588e-05L1551.34 2.95741L1553.09 1.99998ZM1589.49 1.99998L1591.29 1.11621L1589.49 -1.52588e-05V1.99998ZM1616.09 56L1614.3 56.8838H1617.89L1616.09 56ZM1642.69 1.99998V-1.52588e-05L1640.9 1.11621L1642.69 1.99998ZM1679.09 1.99998L1677.34 1.04257L1630.34 87.2426L1632.09 88.2L1633.85 89.1574L1680.85 2.95741L1679.09 1.99998ZM1632.09 88.2H1630.09V142H1632.09H1634.09V88.2H1632.09ZM1632.09 142V140H1600.09V142V144H1632.09V142ZM1600.09 142H1602.09V88.2H1600.09H1598.09V142H1600.09ZM1600.09 88.2L1601.85 87.2426L1554.85 1.04257L1553.09 1.99998L1551.34 2.95741L1598.34 89.1574L1600.09 88.2ZM1553.09 1.99998V3.99998H1589.49V1.99998V-1.52588e-05H1553.09V1.99998ZM1589.49 1.99998L1587.7 2.88377L1614.3 56.8838L1616.09 56L1617.89 55.1162L1591.29 1.11621L1589.49 1.99998ZM1616.09 56L1617.89 56.8838L1644.49 2.88377L1642.69 1.99998L1640.9 1.11621L1614.3 55.1162L1616.09 56ZM1642.69 1.99998V3.99998H1679.09V1.99998V-1.52588e-05H1642.69V1.99998ZM1830.67 1.99998H1832.67L1830.67 -1.52588e-05V1.99998ZM1830.67 32.8V34.8L1832.67 32.8H1830.67ZM1794.67 32.8V30.8L1792.67 32.8H1794.67ZM1794.67 142V144L1796.67 142H1794.67ZM1762.67 142H1760.67L1762.67 144V142ZM1762.67 32.8H1764.67L1762.67 30.8V32.8ZM1726.67 32.8H1724.67L1726.67 34.8V32.8ZM1726.67 1.99998V-1.52588e-05L1724.67 1.99998H1726.67ZM1830.67 1.99998H1828.67V32.8H1830.67H1832.67V1.99998H1830.67ZM1830.67 32.8V30.8H1794.67V32.8V34.8H1830.67V32.8ZM1794.67 32.8H1792.67V142H1794.67H1796.67V32.8H1794.67ZM1794.67 142V140H1762.67V142V144H1794.67V142ZM1762.67 142H1764.67V32.8H1762.67H1760.67V142H1762.67ZM1762.67 32.8V30.8H1726.67V32.8V34.8H1762.67V32.8ZM1726.67 32.8H1728.67V1.99998H1726.67H1724.67V32.8H1726.67ZM1726.67 1.99998V3.99998H1830.67V1.99998V-1.52588e-05H1726.67V1.99998ZM1842.48 1.99998V-1.52588e-05L1840.48 1.99998H1842.48ZM1874.48 1.99998H1876.48L1874.48 -1.52588e-05V1.99998ZM1874.48 142V144L1876.48 142H1874.48ZM1842.48 142H1840.48L1842.48 144V142ZM1842.48 1.99998V3.99998H1874.48V1.99998V-1.52588e-05H1842.48V1.99998ZM1874.48 1.99998H1872.48V142H1874.48H1876.48V1.99998H1874.48ZM1874.48 142V140H1842.48V142V144H1874.48V142ZM1842.48 142H1844.48V1.99998H1842.48H1840.48V142H1842.48ZM2036.33 1.99998H2038.33L2036.33 -1.52588e-05V1.99998ZM2036.33 142V144L2038.33 142H2036.33ZM2004.33 142H2002.33L2004.33 144V142ZM2004.33 60.6H2006.33L2002.62 59.5592L2004.33 60.6ZM1968.13 120V122L1969.84 121.041L1968.13 120ZM1964.53 120L1962.82 121.041L1964.53 122V120ZM1928.33 60.6L1930.04 59.5592L1926.33 60.6H1928.33ZM1928.33 142V144L1930.33 142H1928.33ZM1896.33 142H1894.33L1896.33 144V142ZM1896.33 1.99998V-1.52588e-05L1894.33 1.99998H1896.33ZM1928.33 1.99998L1930.04 0.957306L1928.33 -1.52588e-05V1.99998ZM1966.33 64.2L1964.63 65.2427H1968.04L1966.33 64.2ZM2004.33 1.99998V-1.52588e-05L2002.63 0.957306L2004.33 1.99998ZM2036.33 1.99998H2034.33V142H2036.33H2038.33V1.99998H2036.33ZM2036.33 142V140H2004.33V142V144H2036.33V142ZM2004.33 142H2006.33V60.6H2004.33H2002.33V142H2004.33ZM2004.33 60.6L2002.62 59.5592L1966.42 118.959L1968.13 120L1969.84 121.041L2006.04 61.6408L2004.33 60.6ZM1968.13 120V118H1964.53V120V122H1968.13V120ZM1964.53 120L1966.24 118.959L1930.04 59.5592L1928.33 60.6L1926.62 61.6408L1962.82 121.041L1964.53 120ZM1928.33 60.6H1926.33V142H1928.33H1930.33V60.6H1928.33ZM1928.33 142V140H1896.33V142V144H1928.33V142ZM1896.33 142H1898.33V1.99998H1896.33H1894.33V142H1896.33ZM1896.33 1.99998V3.99998H1928.33V1.99998V-1.52588e-05H1896.33V1.99998ZM1928.33 1.99998L1926.63 3.04266L1964.63 65.2427L1966.33 64.2L1968.04 63.1573L1930.04 0.957306L1928.33 1.99998ZM1966.33 64.2L1968.04 65.2427L2006.04 3.04266L2004.33 1.99998L2002.63 0.957306L1964.63 63.1573L1966.33 64.2ZM2004.33 1.99998V3.99998H2036.33V1.99998V-1.52588e-05H2004.33V1.99998ZM2090.2 111.2H2088.2L2090.2 113.2V111.2ZM2146.2 111.2H2148.2L2146.2 109.2V111.2ZM2146.2 142V144L2148.2 142H2146.2ZM2058.2 142H2056.2L2058.2 144V142ZM2058.2 1.99998V-1.52588e-05L2056.2 1.99998H2058.2ZM2145.2 1.99998H2147.2L2145.2 -1.52588e-05V1.99998ZM2145.2 32.8V34.8L2147.2 32.8H2145.2ZM2090.2 32.8V30.8L2088.2 32.8H2090.2ZM2090.2 56H2088.2L2090.2 58V56ZM2140.2 56H2142.2L2140.2 54V56ZM2140.2 86.4V88.4L2142.2 86.4H2140.2ZM2090.2 86.4V84.4L2088.2 86.4H2090.2ZM2090.2 111.2V113.2H2146.2V111.2V109.2H2090.2V111.2ZM2146.2 111.2H2144.2V142H2146.2H2148.2V111.2H2146.2ZM2146.2 142V140H2058.2V142V144H2146.2V142ZM2058.2 142H2060.2V1.99998H2058.2H2056.2V142H2058.2ZM2058.2 1.99998V3.99998H2145.2V1.99998V-1.52588e-05H2058.2V1.99998ZM2145.2 1.99998H2143.2V32.8H2145.2H2147.2V1.99998H2145.2ZM2145.2 32.8V30.8H2090.2V32.8V34.8H2145.2V32.8ZM2090.2 32.8H2088.2V56H2090.2H2092.2V32.8H2090.2ZM2090.2 56V58H2140.2V56V54H2090.2V56ZM2140.2 56H2138.2V86.4H2140.2H2142.2V56H2140.2ZM2140.2 86.4V84.4H2090.2V86.4V88.4H2140.2V86.4ZM2090.2 86.4H2088.2V111.2H2090.2H2092.2V86.4H2090.2Z" fill="white" mask="url(#path-1-outside-1_1565_501)"/>
</svg>
