<svg width="1634" height="111" viewBox="0 0 1634 111" fill="none" xmlns="http://www.w3.org/2000/svg">
<mask id="path-1-outside-1_1567_503" maskUnits="userSpaceOnUse" x="-0.119141" y="-0.599609" width="1634" height="111" fill="black">
<rect fill="white" x="-0.119141" y="-0.599609" width="1634" height="111"/>
<path d="M42.2809 2.00038C63.2569 2.00038 79.5209 18.2644 79.5209 38.4804C79.5209 58.6964 63.2569 74.9604 42.2809 74.9604H26.3209V108.4H2.00086V2.00038H42.2809ZM42.2809 52.1604C49.7289 52.1604 55.2009 46.2324 55.2009 38.4804C55.2009 30.7284 49.7289 24.8004 42.2809 24.8004H26.3209V52.1604H42.2809ZM146.938 108.4L141.618 91.6804H102.098L96.7776 108.4H70.1776L106.354 2.00038H137.362L173.538 108.4H146.938ZM109.394 68.8804H134.322L121.858 29.8164L109.394 68.8804ZM236.874 108.4L216.81 73.4404H205.258V108.4H180.938V2.00038H223.498C243.714 2.00038 259.978 18.2644 259.978 38.4804C259.978 51.5524 252.074 63.4084 240.37 69.3364L263.018 108.4H236.874ZM205.258 24.8004V52.1604H223.498C230.186 52.1604 235.658 46.2324 235.658 38.4804C235.658 30.7284 230.186 24.8004 223.498 24.8004H205.258ZM341.995 2.00038V25.4084H314.635V108.4H290.315V25.4084H262.955V2.00038H341.995ZM437.609 2.00038L401.889 67.5124V108.4H377.569V67.5124L341.849 2.00038H369.513L389.729 43.0404L409.945 2.00038H437.609ZM552.807 2.00038V25.4084H525.447V108.4H501.127V25.4084H473.767V2.00038H552.807ZM561.781 2.00038H586.101V108.4H561.781V2.00038ZM709.111 2.00038V108.4H684.791V46.5364L657.279 91.6804H654.543L627.031 46.5364V108.4H602.711V2.00038H627.031L655.911 49.2724L684.791 2.00038H709.111ZM750.046 84.9924H792.606V108.4H725.726V2.00038H791.846V25.4084H750.046V43.0404H788.046V66.1444H750.046V84.9924ZM881.264 2.00038C902.24 2.00038 918.504 18.2644 918.504 38.4804C918.504 58.6964 902.24 74.9604 881.264 74.9604H865.304V108.4H840.984V2.00038H881.264ZM881.264 52.1604C888.712 52.1604 894.184 46.2324 894.184 38.4804C894.184 30.7284 888.712 24.8004 881.264 24.8004H865.304V52.1604H881.264ZM985.921 108.4L980.601 91.6804H941.081L935.761 108.4H909.161L945.337 2.00038H976.345L1012.52 108.4H985.921ZM948.377 68.8804H973.305L960.841 29.8164L948.377 68.8804ZM1075.86 108.4L1055.79 73.4404H1044.24V108.4H1019.92V2.00038H1062.48C1082.7 2.00038 1098.96 18.2644 1098.96 38.4804C1098.96 51.5524 1091.06 63.4084 1079.35 69.3364L1102 108.4H1075.86ZM1044.24 24.8004V52.1604H1062.48C1069.17 52.1604 1074.64 46.2324 1074.64 38.4804C1074.64 30.7284 1069.17 24.8004 1062.48 24.8004H1044.24ZM1180.98 2.00038V25.4084H1153.62V108.4H1129.3V25.4084H1101.94V2.00038H1180.98ZM1276.59 2.00038L1240.87 67.5124V108.4H1216.55V67.5124L1180.83 2.00038H1208.5L1228.71 43.0404L1248.93 2.00038H1276.59ZM1391.79 2.00038V25.4084H1364.43V108.4H1340.11V25.4084H1312.75V2.00038H1391.79ZM1400.76 2.00038H1425.08V108.4H1400.76V2.00038ZM1548.09 2.00038V108.4H1523.77V46.5364L1496.26 91.6804H1493.53L1466.01 46.5364V108.4H1441.69V2.00038H1466.01L1494.89 49.2724L1523.77 2.00038H1548.09ZM1589.03 84.9924H1631.59V108.4H1564.71V2.00038H1630.83V25.4084H1589.03V43.0404H1627.03V66.1444H1589.03V84.9924Z"/>
</mask>
<path d="M26.3209 74.9604V72.9604L24.3209 74.9604H26.3209ZM26.3209 108.4V110.4L28.3209 108.4H26.3209ZM2.00086 108.4H0.000859737L2.00086 110.4V108.4ZM2.00086 2.00038V0.00038147L0.000859737 2.00038H2.00086ZM26.3209 24.8004V22.8004L24.3209 24.8004H26.3209ZM26.3209 52.1604H24.3209L26.3209 54.1604V52.1604ZM42.2809 2.00038V4.00038C62.1794 4.00038 77.5209 19.3958 77.5209 38.4804H79.5209H81.5209C81.5209 17.1329 64.3344 0.00038147 42.2809 0.00038147V2.00038ZM79.5209 38.4804H77.5209C77.5209 57.5649 62.1794 72.9604 42.2809 72.9604V74.9604V76.9604C64.3344 76.9604 81.5209 59.8278 81.5209 38.4804H79.5209ZM42.2809 74.9604V72.9604H26.3209V74.9604V76.9604H42.2809V74.9604ZM26.3209 74.9604H24.3209V108.4H26.3209H28.3209V74.9604H26.3209ZM26.3209 108.4V106.4H2.00086V108.4V110.4H26.3209V108.4ZM2.00086 108.4H4.00086V2.00038H2.00086H0.000859737V108.4H2.00086ZM2.00086 2.00038V4.00038H42.2809V2.00038V0.00038147H2.00086V2.00038ZM42.2809 52.1604V54.1604C50.9521 54.1604 57.2009 47.2144 57.2009 38.4804H55.2009H53.2009C53.2009 45.2504 48.5056 50.1604 42.2809 50.1604V52.1604ZM55.2009 38.4804H57.2009C57.2009 29.7464 50.9521 22.8004 42.2809 22.8004V24.8004V26.8004C48.5056 26.8004 53.2009 31.7104 53.2009 38.4804H55.2009ZM42.2809 24.8004V22.8004H26.3209V24.8004V26.8004H42.2809V24.8004ZM26.3209 24.8004H24.3209V52.1604H26.3209H28.3209V24.8004H26.3209ZM26.3209 52.1604V54.1604H42.2809V52.1604V50.1604H26.3209V52.1604ZM146.938 108.4L145.032 109.007L146.938 110.4V108.4ZM141.618 91.6804L143.523 91.074L141.618 89.6804V91.6804ZM102.098 91.6804V89.6804L100.192 91.074L102.098 91.6804ZM96.7776 108.4V110.4L98.6835 109.007L96.7776 108.4ZM70.1776 108.4L68.2841 107.757L70.1776 110.4V108.4ZM106.354 2.00038V0.00038147L104.46 1.35658L106.354 2.00038ZM137.362 2.00038L139.255 1.35658L137.362 0.00038147V2.00038ZM173.538 108.4V110.4L175.431 107.757L173.538 108.4ZM109.394 68.8804L107.488 68.2724L109.394 70.8804V68.8804ZM134.322 68.8804V70.8804L136.227 68.2724L134.322 68.8804ZM121.858 29.8164L123.763 29.2085H119.952L121.858 29.8164ZM146.938 108.4L148.843 107.794L143.523 91.074L141.618 91.6804L139.712 92.2868L145.032 109.007L146.938 108.4ZM141.618 91.6804V89.6804H102.098V91.6804V93.6804H141.618V91.6804ZM102.098 91.6804L100.192 91.074L94.8718 107.794L96.7776 108.4L98.6835 109.007L104.003 92.2868L102.098 91.6804ZM96.7776 108.4V106.4H70.1776V108.4V110.4H96.7776V108.4ZM70.1776 108.4L72.0712 109.044L108.247 2.64419L106.354 2.00038L104.46 1.35658L68.2841 107.757L70.1776 108.4ZM106.354 2.00038V4.00038H137.362V2.00038V0.00038147H106.354V2.00038ZM137.362 2.00038L135.468 2.64419L171.644 109.044L173.538 108.4L175.431 107.757L139.255 1.35658L137.362 2.00038ZM173.538 108.4V106.4H146.938V108.4V110.4H173.538V108.4ZM109.394 68.8804V70.8804H134.322V68.8804V66.8804H109.394V68.8804ZM134.322 68.8804L136.227 68.2724L123.763 29.2085L121.858 29.8164L119.952 30.4243L132.416 69.4883L134.322 68.8804ZM121.858 29.8164L119.952 29.2085L107.488 68.2724L109.394 68.8804L111.299 69.4883L123.763 30.4243L121.858 29.8164ZM236.874 108.4L235.139 109.396L236.874 110.4V108.4ZM216.81 73.4404L218.545 72.4449L216.81 71.4404V73.4404ZM205.258 73.4404V71.4404L203.258 73.4404H205.258ZM205.258 108.4V110.4L207.258 108.4H205.258ZM180.938 108.4H178.938L180.938 110.4V108.4ZM180.938 2.00038V0.00038147L178.938 2.00038H180.938ZM240.37 69.3364L239.466 67.5522L238.64 70.3395L240.37 69.3364ZM263.018 108.4V110.4L264.748 107.397L263.018 108.4ZM205.258 24.8004V22.8004L203.258 24.8004H205.258ZM205.258 52.1604H203.258L205.258 54.1604V52.1604ZM236.874 108.4L238.609 107.405L218.545 72.4449L216.81 73.4404L215.075 74.4359L235.139 109.396L236.874 108.4ZM216.81 73.4404V71.4404H205.258V73.4404V75.4404H216.81V73.4404ZM205.258 73.4404H203.258V108.4H205.258H207.258V73.4404H205.258ZM205.258 108.4V106.4H180.938V108.4V110.4H205.258V108.4ZM180.938 108.4H182.938V2.00038H180.938H178.938V108.4H180.938ZM180.938 2.00038V4.00038H223.498V2.00038V0.00038147H180.938V2.00038ZM223.498 2.00038V4.00038C242.61 4.00038 257.978 19.3689 257.978 38.4804H259.978H261.978C261.978 17.1598 244.819 0.00038147 223.498 0.00038147V2.00038ZM259.978 38.4804H257.978C257.978 50.7332 250.558 61.9342 239.466 67.5522L240.37 69.3364L241.274 71.1206C253.59 64.8826 261.978 52.3716 261.978 38.4804H259.978ZM240.37 69.3364L238.64 70.3395L261.288 109.404L263.018 108.4L264.748 107.397L242.1 68.3333L240.37 69.3364ZM263.018 108.4V106.4H236.874V108.4V110.4H263.018V108.4ZM205.258 24.8004H203.258V52.1604H205.258H207.258V24.8004H205.258ZM205.258 52.1604V54.1604H223.498V52.1604V50.1604H205.258V52.1604ZM223.498 52.1604V54.1604C231.485 54.1604 237.658 47.1318 237.658 38.4804H235.658H233.658C233.658 45.3329 228.887 50.1604 223.498 50.1604V52.1604ZM235.658 38.4804H237.658C237.658 29.8289 231.485 22.8004 223.498 22.8004V24.8004V26.8004C228.887 26.8004 233.658 31.6278 233.658 38.4804H235.658ZM223.498 24.8004V22.8004H205.258V24.8004V26.8004H223.498V24.8004ZM341.995 2.00038H343.995L341.995 0.00038147V2.00038ZM341.995 25.4084V27.4084L343.995 25.4084H341.995ZM314.635 25.4084V23.4084L312.635 25.4084H314.635ZM314.635 108.4V110.4L316.635 108.4H314.635ZM290.315 108.4H288.315L290.315 110.4V108.4ZM290.315 25.4084H292.315L290.315 23.4084V25.4084ZM262.955 25.4084H260.955L262.955 27.4084V25.4084ZM262.955 2.00038V0.00038147L260.955 2.00038H262.955ZM341.995 2.00038H339.995V25.4084H341.995H343.995V2.00038H341.995ZM341.995 25.4084V23.4084H314.635V25.4084V27.4084H341.995V25.4084ZM314.635 25.4084H312.635V108.4H314.635H316.635V25.4084H314.635ZM314.635 108.4V106.4H290.315V108.4V110.4H314.635V108.4ZM290.315 108.4H292.315V25.4084H290.315H288.315V108.4H290.315ZM290.315 25.4084V23.4084H262.955V25.4084V27.4084H290.315V25.4084ZM262.955 25.4084H264.955V2.00038H262.955H260.955V25.4084H262.955ZM262.955 2.00038V4.00038H341.995V2.00038V0.00038147H262.955V2.00038ZM437.609 2.00038L439.365 2.9578L437.609 0.00038147V2.00038ZM401.889 67.5124L400.133 66.555L399.889 67.5124H401.889ZM401.889 108.4V110.4L403.889 108.4H401.889ZM377.569 108.4H375.569L377.569 110.4V108.4ZM377.569 67.5124H379.569L379.325 66.555L377.569 67.5124ZM341.849 2.00038V0.00038147L340.093 2.9578L341.849 2.00038ZM369.513 2.00038L371.307 1.11661L369.513 0.00038147V2.00038ZM389.729 43.0404L387.935 43.9242H391.523L389.729 43.0404ZM409.945 2.00038V0.00038147L408.151 1.11661L409.945 2.00038ZM437.609 2.00038L435.853 1.04296L400.133 66.555L401.889 67.5124L403.645 68.4698L439.365 2.9578L437.609 2.00038ZM401.889 67.5124H399.889V108.4H401.889H403.889V67.5124H401.889ZM401.889 108.4V106.4H377.569V108.4V110.4H401.889V108.4ZM377.569 108.4H379.569V67.5124H377.569H375.569V108.4H377.569ZM377.569 67.5124L379.325 66.555L343.605 1.04296L341.849 2.00038L340.093 2.9578L375.813 68.4698L377.569 67.5124ZM341.849 2.00038V4.00038H369.513V2.00038V0.00038147H341.849V2.00038ZM369.513 2.00038L367.719 2.88416L387.935 43.9242L389.729 43.0404L391.523 42.1566L371.307 1.11661L369.513 2.00038ZM389.729 43.0404L391.523 43.9242L411.739 2.88416L409.945 2.00038L408.151 1.11661L387.935 42.1566L389.729 43.0404ZM409.945 2.00038V4.00038H437.609V2.00038V0.00038147H409.945V2.00038ZM552.807 2.00038H554.807L552.807 0.00038147V2.00038ZM552.807 25.4084V27.4084L554.807 25.4084H552.807ZM525.447 25.4084V23.4084L523.447 25.4084H525.447ZM525.447 108.4V110.4L527.447 108.4H525.447ZM501.127 108.4H499.127L501.127 110.4V108.4ZM501.127 25.4084H503.127L501.127 23.4084V25.4084ZM473.767 25.4084H471.767L473.767 27.4084V25.4084ZM473.767 2.00038V0.00038147L471.767 2.00038H473.767ZM552.807 2.00038H550.807V25.4084H552.807H554.807V2.00038H552.807ZM552.807 25.4084V23.4084H525.447V25.4084V27.4084H552.807V25.4084ZM525.447 25.4084H523.447V108.4H525.447H527.447V25.4084H525.447ZM525.447 108.4V106.4H501.127V108.4V110.4H525.447V108.4ZM501.127 108.4H503.127V25.4084H501.127H499.127V108.4H501.127ZM501.127 25.4084V23.4084H473.767V25.4084V27.4084H501.127V25.4084ZM473.767 25.4084H475.767V2.00038H473.767H471.767V25.4084H473.767ZM473.767 2.00038V4.00038H552.807V2.00038V0.00038147H473.767V2.00038ZM561.781 2.00038V0.00038147L559.781 2.00038H561.781ZM586.101 2.00038H588.101L586.101 0.00038147V2.00038ZM586.101 108.4V110.4L588.101 108.4H586.101ZM561.781 108.4H559.781L561.781 110.4V108.4ZM561.781 2.00038V4.00038H586.101V2.00038V0.00038147H561.781V2.00038ZM586.101 2.00038H584.101V108.4H586.101H588.101V2.00038H586.101ZM586.101 108.4V106.4H561.781V108.4V110.4H586.101V108.4ZM561.781 108.4H563.781V2.00038H561.781H559.781V108.4H561.781ZM709.111 2.00038H711.111L709.111 0.00038147V2.00038ZM709.111 108.4V110.4L711.111 108.4H709.111ZM684.791 108.4H682.791L684.791 110.4V108.4ZM684.791 46.5364H686.791L683.083 45.4956L684.791 46.5364ZM657.279 91.6804V93.6804L658.987 92.7212L657.279 91.6804ZM654.543 91.6804L652.835 92.7212L654.543 93.6804V91.6804ZM627.031 46.5364L628.739 45.4956L625.031 46.5364H627.031ZM627.031 108.4V110.4L629.031 108.4H627.031ZM602.711 108.4H600.711L602.711 110.4V108.4ZM602.711 2.00038V0.00038147L600.711 2.00038H602.711ZM627.031 2.00038L628.738 0.957703L627.031 0.00038147V2.00038ZM655.911 49.2724L654.204 50.3151H657.618L655.911 49.2724ZM684.791 2.00038V0.00038147L683.084 0.957703L684.791 2.00038ZM709.111 2.00038H707.111V108.4H709.111H711.111V2.00038H709.111ZM709.111 108.4V106.4H684.791V108.4V110.4H709.111V108.4ZM684.791 108.4H686.791V46.5364H684.791H682.791V108.4H684.791ZM684.791 46.5364L683.083 45.4956L655.571 90.6396L657.279 91.6804L658.987 92.7212L686.499 47.5772L684.791 46.5364ZM657.279 91.6804V89.6804H654.543V91.6804V93.6804H657.279V91.6804ZM654.543 91.6804L656.251 90.6396L628.739 45.4956L627.031 46.5364L625.323 47.5772L652.835 92.7212L654.543 91.6804ZM627.031 46.5364H625.031V108.4H627.031H629.031V46.5364H627.031ZM627.031 108.4V106.4H602.711V108.4V110.4H627.031V108.4ZM602.711 108.4H604.711V2.00038H602.711H600.711V108.4H602.711ZM602.711 2.00038V4.00038H627.031V2.00038V0.00038147H602.711V2.00038ZM627.031 2.00038L625.324 3.04306L654.204 50.3151L655.911 49.2724L657.618 48.2297L628.738 0.957703L627.031 2.00038ZM655.911 49.2724L657.618 50.3151L686.497 3.04306L684.791 2.00038L683.084 0.957703L654.204 48.2297L655.911 49.2724ZM684.791 2.00038V4.00038H709.111V2.00038V0.00038147H684.791V2.00038ZM750.046 84.9924H748.046L750.046 86.9924V84.9924ZM792.606 84.9924H794.606L792.606 82.9924V84.9924ZM792.606 108.4V110.4L794.606 108.4H792.606ZM725.726 108.4H723.726L725.726 110.4V108.4ZM725.726 2.00038V0.00038147L723.726 2.00038H725.726ZM791.846 2.00038H793.846L791.846 0.00038147V2.00038ZM791.846 25.4084V27.4084L793.846 25.4084H791.846ZM750.046 25.4084V23.4084L748.046 25.4084H750.046ZM750.046 43.0404H748.046L750.046 45.0404V43.0404ZM788.046 43.0404H790.046L788.046 41.0404V43.0404ZM788.046 66.1444V68.1444L790.046 66.1444H788.046ZM750.046 66.1444V64.1444L748.046 66.1444H750.046ZM750.046 84.9924V86.9924H792.606V84.9924V82.9924H750.046V84.9924ZM792.606 84.9924H790.606V108.4H792.606H794.606V84.9924H792.606ZM792.606 108.4V106.4H725.726V108.4V110.4H792.606V108.4ZM725.726 108.4H727.726V2.00038H725.726H723.726V108.4H725.726ZM725.726 2.00038V4.00038H791.846V2.00038V0.00038147H725.726V2.00038ZM791.846 2.00038H789.846V25.4084H791.846H793.846V2.00038H791.846ZM791.846 25.4084V23.4084H750.046V25.4084V27.4084H791.846V25.4084ZM750.046 25.4084H748.046V43.0404H750.046H752.046V25.4084H750.046ZM750.046 43.0404V45.0404H788.046V43.0404V41.0404H750.046V43.0404ZM788.046 43.0404H786.046V66.1444H788.046H790.046V43.0404H788.046ZM788.046 66.1444V64.1444H750.046V66.1444V68.1444H788.046V66.1444ZM750.046 66.1444H748.046V84.9924H750.046H752.046V66.1444H750.046ZM865.304 74.9604V72.9604L863.304 74.9604H865.304ZM865.304 108.4V110.4L867.304 108.4H865.304ZM840.984 108.4H838.984L840.984 110.4V108.4ZM840.984 2.00038V0.00038147L838.984 2.00038H840.984ZM865.304 24.8004V22.8004L863.304 24.8004H865.304ZM865.304 52.1604H863.304L865.304 54.1604V52.1604ZM881.264 2.00038V4.00038C901.162 4.00038 916.504 19.3958 916.504 38.4804H918.504H920.504C920.504 17.1329 903.317 0.00038147 881.264 0.00038147V2.00038ZM918.504 38.4804H916.504C916.504 57.5649 901.162 72.9604 881.264 72.9604V74.9604V76.9604C903.317 76.9604 920.504 59.8278 920.504 38.4804H918.504ZM881.264 74.9604V72.9604H865.304V74.9604V76.9604H881.264V74.9604ZM865.304 74.9604H863.304V108.4H865.304H867.304V74.9604H865.304ZM865.304 108.4V106.4H840.984V108.4V110.4H865.304V108.4ZM840.984 108.4H842.984V2.00038H840.984H838.984V108.4H840.984ZM840.984 2.00038V4.00038H881.264V2.00038V0.00038147H840.984V2.00038ZM881.264 52.1604V54.1604C889.935 54.1604 896.184 47.2144 896.184 38.4804H894.184H892.184C892.184 45.2504 887.489 50.1604 881.264 50.1604V52.1604ZM894.184 38.4804H896.184C896.184 29.7464 889.935 22.8004 881.264 22.8004V24.8004V26.8004C887.489 26.8004 892.184 31.7104 892.184 38.4804H894.184ZM881.264 24.8004V22.8004H865.304V24.8004V26.8004H881.264V24.8004ZM865.304 24.8004H863.304V52.1604H865.304H867.304V24.8004H865.304ZM865.304 52.1604V54.1604H881.264V52.1604V50.1604H865.304V52.1604ZM985.921 108.4L984.015 109.007L985.921 110.4V108.4ZM980.601 91.6804L982.506 91.074L980.601 89.6804V91.6804ZM941.081 91.6804V89.6804L939.175 91.074L941.081 91.6804ZM935.761 108.4V110.4L937.666 109.007L935.761 108.4ZM909.161 108.4L907.267 107.757L909.161 110.4V108.4ZM945.337 2.00038V0.00038147L943.443 1.35658L945.337 2.00038ZM976.345 2.00038L978.238 1.35658L976.345 0.00038147V2.00038ZM1012.52 108.4V110.4L1014.41 107.757L1012.52 108.4ZM948.377 68.8804L946.471 68.2724L948.377 70.8804V68.8804ZM973.305 68.8804V70.8804L975.21 68.2724L973.305 68.8804ZM960.841 29.8164L962.746 29.2085H958.935L960.841 29.8164ZM985.921 108.4L987.826 107.794L982.506 91.074L980.601 91.6804L978.695 92.2868L984.015 109.007L985.921 108.4ZM980.601 91.6804V89.6804H941.081V91.6804V93.6804H980.601V91.6804ZM941.081 91.6804L939.175 91.074L933.855 107.794L935.761 108.4L937.666 109.007L942.986 92.2868L941.081 91.6804ZM935.761 108.4V106.4H909.161V108.4V110.4H935.761V108.4ZM909.161 108.4L911.054 109.044L947.23 2.64419L945.337 2.00038L943.443 1.35658L907.267 107.757L909.161 108.4ZM945.337 2.00038V4.00038H976.345V2.00038V0.00038147H945.337V2.00038ZM976.345 2.00038L974.451 2.64419L1010.63 109.044L1012.52 108.4L1014.41 107.757L978.238 1.35658L976.345 2.00038ZM1012.52 108.4V106.4H985.921V108.4V110.4H1012.52V108.4ZM948.377 68.8804V70.8804H973.305V68.8804V66.8804H948.377V68.8804ZM973.305 68.8804L975.21 68.2724L962.746 29.2085L960.841 29.8164L958.935 30.4243L971.399 69.4883L973.305 68.8804ZM960.841 29.8164L958.935 29.2085L946.471 68.2724L948.377 68.8804L950.282 69.4883L962.746 30.4243L960.841 29.8164ZM1075.86 108.4L1074.12 109.396L1075.86 110.4V108.4ZM1055.79 73.4404L1057.53 72.4449L1055.79 71.4404V73.4404ZM1044.24 73.4404V71.4404L1042.24 73.4404H1044.24ZM1044.24 108.4V110.4L1046.24 108.4H1044.24ZM1019.92 108.4H1017.92L1019.92 110.4V108.4ZM1019.92 2.00038V0.00038147L1017.92 2.00038H1019.92ZM1079.35 69.3364L1078.45 67.5522L1077.62 70.3395L1079.35 69.3364ZM1102 108.4V110.4L1103.73 107.397L1102 108.4ZM1044.24 24.8004V22.8004L1042.24 24.8004H1044.24ZM1044.24 52.1604H1042.24L1044.24 54.1604V52.1604ZM1075.86 108.4L1077.59 107.405L1057.53 72.4449L1055.79 73.4404L1054.06 74.4359L1074.12 109.396L1075.86 108.4ZM1055.79 73.4404V71.4404H1044.24V73.4404V75.4404H1055.79V73.4404ZM1044.24 73.4404H1042.24V108.4H1044.24H1046.24V73.4404H1044.24ZM1044.24 108.4V106.4H1019.92V108.4V110.4H1044.24V108.4ZM1019.92 108.4H1021.92V2.00038H1019.92H1017.92V108.4H1019.92ZM1019.92 2.00038V4.00038H1062.48V2.00038V0.00038147H1019.92V2.00038ZM1062.48 2.00038V4.00038C1081.59 4.00038 1096.96 19.3689 1096.96 38.4804H1098.96H1100.96C1100.96 17.1598 1083.8 0.00038147 1062.48 0.00038147V2.00038ZM1098.96 38.4804H1096.96C1096.96 50.7332 1089.54 61.9342 1078.45 67.5522L1079.35 69.3364L1080.26 71.1206C1092.57 64.8826 1100.96 52.3716 1100.96 38.4804H1098.96ZM1079.35 69.3364L1077.62 70.3395L1100.27 109.404L1102 108.4L1103.73 107.397L1081.08 68.3333L1079.35 69.3364ZM1102 108.4V106.4H1075.86V108.4V110.4H1102V108.4ZM1044.24 24.8004H1042.24V52.1604H1044.24H1046.24V24.8004H1044.24ZM1044.24 52.1604V54.1604H1062.48V52.1604V50.1604H1044.24V52.1604ZM1062.48 52.1604V54.1604C1070.47 54.1604 1076.64 47.1318 1076.64 38.4804H1074.64H1072.64C1072.64 45.3329 1067.87 50.1604 1062.48 50.1604V52.1604ZM1074.64 38.4804H1076.64C1076.64 29.8289 1070.47 22.8004 1062.48 22.8004V24.8004V26.8004C1067.87 26.8004 1072.64 31.6278 1072.64 38.4804H1074.64ZM1062.48 24.8004V22.8004H1044.24V24.8004V26.8004H1062.48V24.8004ZM1180.98 2.00038H1182.98L1180.98 0.00038147V2.00038ZM1180.98 25.4084V27.4084L1182.98 25.4084H1180.98ZM1153.62 25.4084V23.4084L1151.62 25.4084H1153.62ZM1153.62 108.4V110.4L1155.62 108.4H1153.62ZM1129.3 108.4H1127.3L1129.3 110.4V108.4ZM1129.3 25.4084H1131.3L1129.3 23.4084V25.4084ZM1101.94 25.4084H1099.94L1101.94 27.4084V25.4084ZM1101.94 2.00038V0.00038147L1099.94 2.00038H1101.94ZM1180.98 2.00038H1178.98V25.4084H1180.98H1182.98V2.00038H1180.98ZM1180.98 25.4084V23.4084H1153.62V25.4084V27.4084H1180.98V25.4084ZM1153.62 25.4084H1151.62V108.4H1153.62H1155.62V25.4084H1153.62ZM1153.62 108.4V106.4H1129.3V108.4V110.4H1153.62V108.4ZM1129.3 108.4H1131.3V25.4084H1129.3H1127.3V108.4H1129.3ZM1129.3 25.4084V23.4084H1101.94V25.4084V27.4084H1129.3V25.4084ZM1101.94 25.4084H1103.94V2.00038H1101.94H1099.94V25.4084H1101.94ZM1101.94 2.00038V4.00038H1180.98V2.00038V0.00038147H1101.94V2.00038ZM1276.59 2.00038L1278.35 2.9578L1276.59 0.00038147V2.00038ZM1240.87 67.5124L1239.12 66.555L1238.87 67.5124H1240.87ZM1240.87 108.4V110.4L1242.87 108.4H1240.87ZM1216.55 108.4H1214.55L1216.55 110.4V108.4ZM1216.55 67.5124H1218.55L1218.31 66.555L1216.55 67.5124ZM1180.83 2.00038V0.00038147L1179.08 2.9578L1180.83 2.00038ZM1208.5 2.00038L1210.29 1.11661L1208.5 0.00038147V2.00038ZM1228.71 43.0404L1226.92 43.9242H1230.51L1228.71 43.0404ZM1248.93 2.00038V0.00038147L1247.13 1.11661L1248.93 2.00038ZM1276.59 2.00038L1274.84 1.04296L1239.12 66.555L1240.87 67.5124L1242.63 68.4698L1278.35 2.9578L1276.59 2.00038ZM1240.87 67.5124H1238.87V108.4H1240.87H1242.87V67.5124H1240.87ZM1240.87 108.4V106.4H1216.55V108.4V110.4H1240.87V108.4ZM1216.55 108.4H1218.55V67.5124H1216.55H1214.55V108.4H1216.55ZM1216.55 67.5124L1218.31 66.555L1182.59 1.04296L1180.83 2.00038L1179.08 2.9578L1214.8 68.4698L1216.55 67.5124ZM1180.83 2.00038V4.00038H1208.5V2.00038V0.00038147H1180.83V2.00038ZM1208.5 2.00038L1206.7 2.88416L1226.92 43.9242L1228.71 43.0404L1230.51 42.1566L1210.29 1.11661L1208.5 2.00038ZM1228.71 43.0404L1230.51 43.9242L1250.72 2.88416L1248.93 2.00038L1247.13 1.11661L1226.92 42.1566L1228.71 43.0404ZM1248.93 2.00038V4.00038H1276.59V2.00038V0.00038147H1248.93V2.00038ZM1391.79 2.00038H1393.79L1391.79 0.00038147V2.00038ZM1391.79 25.4084V27.4084L1393.79 25.4084H1391.79ZM1364.43 25.4084V23.4084L1362.43 25.4084H1364.43ZM1364.43 108.4V110.4L1366.43 108.4H1364.43ZM1340.11 108.4H1338.11L1340.11 110.4V108.4ZM1340.11 25.4084H1342.11L1340.11 23.4084V25.4084ZM1312.75 25.4084H1310.75L1312.75 27.4084V25.4084ZM1312.75 2.00038V0.00038147L1310.75 2.00038H1312.75ZM1391.79 2.00038H1389.79V25.4084H1391.79H1393.79V2.00038H1391.79ZM1391.79 25.4084V23.4084H1364.43V25.4084V27.4084H1391.79V25.4084ZM1364.43 25.4084H1362.43V108.4H1364.43H1366.43V25.4084H1364.43ZM1364.43 108.4V106.4H1340.11V108.4V110.4H1364.43V108.4ZM1340.11 108.4H1342.11V25.4084H1340.11H1338.11V108.4H1340.11ZM1340.11 25.4084V23.4084H1312.75V25.4084V27.4084H1340.11V25.4084ZM1312.75 25.4084H1314.75V2.00038H1312.75H1310.75V25.4084H1312.75ZM1312.75 2.00038V4.00038H1391.79V2.00038V0.00038147H1312.75V2.00038ZM1400.76 2.00038V0.00038147L1398.76 2.00038H1400.76ZM1425.08 2.00038H1427.08L1425.08 0.00038147V2.00038ZM1425.08 108.4V110.4L1427.08 108.4H1425.08ZM1400.76 108.4H1398.76L1400.76 110.4V108.4ZM1400.76 2.00038V4.00038H1425.08V2.00038V0.00038147H1400.76V2.00038ZM1425.08 2.00038H1423.08V108.4H1425.08H1427.08V2.00038H1425.08ZM1425.08 108.4V106.4H1400.76V108.4V110.4H1425.08V108.4ZM1400.76 108.4H1402.76V2.00038H1400.76H1398.76V108.4H1400.76ZM1548.09 2.00038H1550.09L1548.09 0.00038147V2.00038ZM1548.09 108.4V110.4L1550.09 108.4H1548.09ZM1523.77 108.4H1521.77L1523.77 110.4V108.4ZM1523.77 46.5364H1525.77L1522.07 45.4956L1523.77 46.5364ZM1496.26 91.6804V93.6804L1497.97 92.7212L1496.26 91.6804ZM1493.53 91.6804L1491.82 92.7212L1493.53 93.6804V91.6804ZM1466.01 46.5364L1467.72 45.4956L1464.01 46.5364H1466.01ZM1466.01 108.4V110.4L1468.01 108.4H1466.01ZM1441.69 108.4H1439.69L1441.69 110.4V108.4ZM1441.69 2.00038V0.00038147L1439.69 2.00038H1441.69ZM1466.01 2.00038L1467.72 0.957703L1466.01 0.00038147V2.00038ZM1494.89 49.2724L1493.19 50.3151H1496.6L1494.89 49.2724ZM1523.77 2.00038V0.00038147L1522.07 0.957703L1523.77 2.00038ZM1548.09 2.00038H1546.09V108.4H1548.09H1550.09V2.00038H1548.09ZM1548.09 108.4V106.4H1523.77V108.4V110.4H1548.09V108.4ZM1523.77 108.4H1525.77V46.5364H1523.77H1521.77V108.4H1523.77ZM1523.77 46.5364L1522.07 45.4956L1494.55 90.6396L1496.26 91.6804L1497.97 92.7212L1525.48 47.5772L1523.77 46.5364ZM1496.26 91.6804V89.6804H1493.53V91.6804V93.6804H1496.26V91.6804ZM1493.53 91.6804L1495.23 90.6396L1467.72 45.4956L1466.01 46.5364L1464.31 47.5772L1491.82 92.7212L1493.53 91.6804ZM1466.01 46.5364H1464.01V108.4H1466.01H1468.01V46.5364H1466.01ZM1466.01 108.4V106.4H1441.69V108.4V110.4H1466.01V108.4ZM1441.69 108.4H1443.69V2.00038H1441.69H1439.69V108.4H1441.69ZM1441.69 2.00038V4.00038H1466.01V2.00038V0.00038147H1441.69V2.00038ZM1466.01 2.00038L1464.31 3.04306L1493.19 50.3151L1494.89 49.2724L1496.6 48.2297L1467.72 0.957703L1466.01 2.00038ZM1494.89 49.2724L1496.6 50.3151L1525.48 3.04306L1523.77 2.00038L1522.07 0.957703L1493.19 48.2297L1494.89 49.2724ZM1523.77 2.00038V4.00038H1548.09V2.00038V0.00038147H1523.77V2.00038ZM1589.03 84.9924H1587.03L1589.03 86.9924V84.9924ZM1631.59 84.9924H1633.59L1631.59 82.9924V84.9924ZM1631.59 108.4V110.4L1633.59 108.4H1631.59ZM1564.71 108.4H1562.71L1564.71 110.4V108.4ZM1564.71 2.00038V0.00038147L1562.71 2.00038H1564.71ZM1630.83 2.00038H1632.83L1630.83 0.00038147V2.00038ZM1630.83 25.4084V27.4084L1632.83 25.4084H1630.83ZM1589.03 25.4084V23.4084L1587.03 25.4084H1589.03ZM1589.03 43.0404H1587.03L1589.03 45.0404V43.0404ZM1627.03 43.0404H1629.03L1627.03 41.0404V43.0404ZM1627.03 66.1444V68.1444L1629.03 66.1444H1627.03ZM1589.03 66.1444V64.1444L1587.03 66.1444H1589.03ZM1589.03 84.9924V86.9924H1631.59V84.9924V82.9924H1589.03V84.9924ZM1631.59 84.9924H1629.59V108.4H1631.59H1633.59V84.9924H1631.59ZM1631.59 108.4V106.4H1564.71V108.4V110.4H1631.59V108.4ZM1564.71 108.4H1566.71V2.00038H1564.71H1562.71V108.4H1564.71ZM1564.71 2.00038V4.00038H1630.83V2.00038V0.00038147H1564.71V2.00038ZM1630.83 2.00038H1628.83V25.4084H1630.83H1632.83V2.00038H1630.83ZM1630.83 25.4084V23.4084H1589.03V25.4084V27.4084H1630.83V25.4084ZM1589.03 25.4084H1587.03V43.0404H1589.03H1591.03V25.4084H1589.03ZM1589.03 43.0404V45.0404H1627.03V43.0404V41.0404H1589.03V43.0404ZM1627.03 43.0404H1625.03V66.1444H1627.03H1629.03V43.0404H1627.03ZM1627.03 66.1444V64.1444H1589.03V66.1444V68.1444H1627.03V66.1444ZM1589.03 66.1444H1587.03V84.9924H1589.03H1591.03V66.1444H1589.03Z" fill="white" mask="url(#path-1-outside-1_1567_503)"/>
</svg>
