<svg width="1891" height="128" viewBox="0 0 1891 128" fill="none" xmlns="http://www.w3.org/2000/svg">
<mask id="path-1-outside-1_1566_502" maskUnits="userSpaceOnUse" x="-0.560547" y="-0.800781" width="1892" height="128" fill="black">
<rect fill="white" x="-0.560547" y="-0.800781" width="1892" height="128"/>
<path d="M48.6395 1.99921C72.9275 1.99921 91.7595 20.8312 91.7595 44.2392C91.7595 67.6472 72.9275 86.4792 48.6395 86.4792H30.1595V125.199H1.99945V1.99921H48.6395ZM48.6395 60.0792C57.2635 60.0792 63.5995 53.2152 63.5995 44.2392C63.5995 35.2632 57.2635 28.3992 48.6395 28.3992H30.1595V60.0792H48.6395ZM169.821 125.199L163.661 105.839H117.901L111.741 125.199H80.941L122.829 1.99921H158.733L200.621 125.199H169.821ZM126.349 79.4392H155.213L140.781 34.2072L126.349 79.4392ZM273.958 125.199L250.726 84.7192H237.35V125.199H209.19V1.99921H258.47C281.878 1.99921 300.71 20.8312 300.71 44.2392C300.71 59.3752 291.558 73.1032 278.006 79.9672L304.23 125.199H273.958ZM237.35 28.3992V60.0792H258.47C266.214 60.0792 272.55 53.2152 272.55 44.2392C272.55 35.2632 266.214 28.3992 258.47 28.3992H237.35ZM395.677 1.99921V29.1032H363.997V125.199H335.837V29.1032H304.157V1.99921H395.677ZM506.388 1.99921L465.028 77.8552V125.199H436.868V77.8552L395.508 1.99921H427.54L450.948 49.5192L474.356 1.99921H506.388ZM639.775 1.99921V29.1032H608.095V125.199H579.935V29.1032H548.255V1.99921H639.775ZM650.166 1.99921H678.326V125.199H650.166V1.99921ZM820.758 1.99921V125.199H792.598V53.5672L760.742 105.839H757.574L725.718 53.5672V125.199H697.558V1.99921H725.718L759.158 56.7352L792.598 1.99921H820.758ZM868.157 98.0952H917.437V125.199H839.997V1.99921H916.557V29.1032H868.157V49.5192H912.157V76.2712H868.157V98.0952ZM1020.09 1.99921C1044.38 1.99921 1063.21 20.8312 1063.21 44.2392C1063.21 67.6472 1044.38 86.4792 1020.09 86.4792H1001.61V125.199H973.453V1.99921H1020.09ZM1020.09 60.0792C1028.72 60.0792 1035.05 53.2152 1035.05 44.2392C1035.05 35.2632 1028.72 28.3992 1020.09 28.3992H1001.61V60.0792H1020.09ZM1141.27 125.199L1135.11 105.839H1089.35L1083.19 125.199H1052.39L1094.28 1.99921H1130.19L1172.07 125.199H1141.27ZM1097.8 79.4392H1126.67L1112.23 34.2072L1097.8 79.4392ZM1245.41 125.199L1222.18 84.7192H1208.8V125.199H1180.64V1.99921H1229.92C1253.33 1.99921 1272.16 20.8312 1272.16 44.2392C1272.16 59.3752 1263.01 73.1032 1249.46 79.9672L1275.68 125.199H1245.41ZM1208.8 28.3992V60.0792H1229.92C1237.67 60.0792 1244 53.2152 1244 44.2392C1244 35.2632 1237.67 28.3992 1229.92 28.3992H1208.8ZM1367.13 1.99921V29.1032H1335.45V125.199H1307.29V29.1032H1275.61V1.99921H1367.13ZM1477.84 1.99921L1436.48 77.8552V125.199H1408.32V77.8552L1366.96 1.99921H1398.99L1422.4 49.5192L1445.81 1.99921H1477.84ZM1611.23 1.99921V29.1032H1579.55V125.199H1551.39V29.1032H1519.71V1.99921H1611.23ZM1621.62 1.99921H1649.78V125.199H1621.62V1.99921ZM1792.21 1.99921V125.199H1764.05V53.5672L1732.2 105.839H1729.03L1697.17 53.5672V125.199H1669.01V1.99921H1697.17L1730.61 56.7352L1764.05 1.99921H1792.21ZM1839.61 98.0952H1888.89V125.199H1811.45V1.99921H1888.01V29.1032H1839.61V49.5192H1883.61V76.2712H1839.61V98.0952Z"/>
</mask>
<path d="M30.1595 86.4792V84.4792L28.1595 86.4792H30.1595ZM30.1595 125.199V127.199L32.1595 125.199H30.1595ZM1.99945 125.199H-0.000546455L1.99945 127.199V125.199ZM1.99945 1.99921V-0.000793457L-0.000546455 1.99921H1.99945ZM30.1595 28.3992V26.3992L28.1595 28.3992H30.1595ZM30.1595 60.0792H28.1595L30.1595 62.0792V60.0792ZM48.6395 1.99921V3.99921C71.85 3.99921 89.7595 21.9627 89.7595 44.2392H91.7595H93.7595C93.7595 19.6998 74.005 -0.000793457 48.6395 -0.000793457V1.99921ZM91.7595 44.2392H89.7595C89.7595 66.5158 71.85 84.4792 48.6395 84.4792V86.4792V88.4792C74.005 88.4792 93.7595 68.7787 93.7595 44.2392H91.7595ZM48.6395 86.4792V84.4792H30.1595V86.4792V88.4792H48.6395V86.4792ZM30.1595 86.4792H28.1595V125.199H30.1595H32.1595V86.4792H30.1595ZM30.1595 125.199V123.199H1.99945V125.199V127.199H30.1595V125.199ZM1.99945 125.199H3.99945V1.99921H1.99945H-0.000546455V125.199H1.99945ZM1.99945 1.99921V3.99921H48.6395V1.99921V-0.000793457H1.99945V1.99921ZM48.6395 60.0792V62.0792C58.4867 62.0792 65.5995 54.1972 65.5995 44.2392H63.5995H61.5995C61.5995 52.2332 56.0402 58.0792 48.6395 58.0792V60.0792ZM63.5995 44.2392H65.5995C65.5995 34.2812 58.4867 26.3992 48.6395 26.3992V28.3992V30.3992C56.0402 30.3992 61.5995 36.2452 61.5995 44.2392H63.5995ZM48.6395 28.3992V26.3992H30.1595V28.3992V30.3992H48.6395V28.3992ZM30.1595 28.3992H28.1595V60.0792H30.1595H32.1595V28.3992H30.1595ZM30.1595 60.0792V62.0792H48.6395V60.0792V58.0792H30.1595V60.0792ZM169.821 125.199L167.915 125.806L169.821 127.199V125.199ZM163.661 105.839L165.567 105.233L163.661 103.839V105.839ZM117.901 105.839V103.839L115.995 105.233L117.901 105.839ZM111.741 125.199V127.199L113.647 125.806L111.741 125.199ZM80.941 125.199L79.0474 124.555L80.941 127.199V125.199ZM122.829 1.99921V-0.000793457L120.935 1.35541L122.829 1.99921ZM158.733 1.99921L160.627 1.35541L158.733 -0.000793457V1.99921ZM200.621 125.199V127.199L202.514 124.555L200.621 125.199ZM126.349 79.4392L124.444 78.8313L126.349 81.4392V79.4392ZM155.213 79.4392V81.4392L157.118 78.8313L155.213 79.4392ZM140.781 34.2072L142.686 33.5993H138.876L140.781 34.2072ZM169.821 125.199L171.727 124.593L165.567 105.233L163.661 105.839L161.755 106.446L167.915 125.806L169.821 125.199ZM163.661 105.839V103.839H117.901V105.839V107.839H163.661V105.839ZM117.901 105.839L115.995 105.233L109.835 124.593L111.741 125.199L113.647 125.806L119.807 106.446L117.901 105.839ZM111.741 125.199V123.199H80.941V125.199V127.199H111.741V125.199ZM80.941 125.199L82.8345 125.843L124.723 2.64301L122.829 1.99921L120.935 1.35541L79.0474 124.555L80.941 125.199ZM122.829 1.99921V3.99921H158.733V1.99921V-0.000793457H122.829V1.99921ZM158.733 1.99921L156.839 2.64301L198.727 125.843L200.621 125.199L202.514 124.555L160.627 1.35541L158.733 1.99921ZM200.621 125.199V123.199H169.821V125.199V127.199H200.621V125.199ZM126.349 79.4392V81.4392H155.213V79.4392V77.4392H126.349V79.4392ZM155.213 79.4392L157.118 78.8313L142.686 33.5993L140.781 34.2072L138.876 34.8152L153.308 80.0471L155.213 79.4392ZM140.781 34.2072L138.876 33.5993L124.444 78.8313L126.349 79.4392L128.254 80.0471L142.686 34.8152L140.781 34.2072ZM273.958 125.199L272.223 126.195L273.958 127.199V125.199ZM250.726 84.7192L252.461 83.7237L250.726 82.7192V84.7192ZM237.35 84.7192V82.7192L235.35 84.7192H237.35ZM237.35 125.199V127.199L239.35 125.199H237.35ZM209.19 125.199H207.19L209.19 127.199V125.199ZM209.19 1.99921V-0.000793457L207.19 1.99921H209.19ZM278.006 79.9672L277.102 78.183L276.276 80.9704L278.006 79.9672ZM304.23 125.199V127.199L305.96 124.196L304.23 125.199ZM237.35 28.3992V26.3992L235.35 28.3992H237.35ZM237.35 60.0792H235.35L237.35 62.0792V60.0792ZM273.958 125.199L275.693 124.204L252.461 83.7237L250.726 84.7192L248.991 85.7147L272.223 126.195L273.958 125.199ZM250.726 84.7192V82.7192H237.35V84.7192V86.7192H250.726V84.7192ZM237.35 84.7192H235.35V125.199H237.35H239.35V84.7192H237.35ZM237.35 125.199V123.199H209.19V125.199V127.199H237.35V125.199ZM209.19 125.199H211.19V1.99921H209.19H207.19V125.199H209.19ZM209.19 1.99921V3.99921H258.47V1.99921V-0.000793457H209.19V1.99921ZM258.47 1.99921V3.99921C280.773 3.99921 298.71 21.9358 298.71 44.2392H300.71H302.71C302.71 19.7266 282.983 -0.000793457 258.47 -0.000793457V1.99921ZM300.71 44.2392H298.71C298.71 58.556 290.042 71.6291 277.102 78.183L278.006 79.9672L278.91 81.7514C293.074 74.5774 302.71 60.1944 302.71 44.2392H300.71ZM278.006 79.9672L276.276 80.9704L302.5 126.202L304.23 125.199L305.96 124.196L279.736 78.9641L278.006 79.9672ZM304.23 125.199V123.199H273.958V125.199V127.199H304.23V125.199ZM237.35 28.3992H235.35V60.0792H237.35H239.35V28.3992H237.35ZM237.35 60.0792V62.0792H258.47V60.0792V58.0792H237.35V60.0792ZM258.47 60.0792V62.0792C267.513 62.0792 274.55 54.1147 274.55 44.2392H272.55H270.55C270.55 52.3158 264.915 58.0792 258.47 58.0792V60.0792ZM272.55 44.2392H274.55C274.55 34.3638 267.513 26.3992 258.47 26.3992V28.3992V30.3992C264.915 30.3992 270.55 36.1627 270.55 44.2392H272.55ZM258.47 28.3992V26.3992H237.35V28.3992V30.3992H258.47V28.3992ZM395.677 1.99921H397.677L395.677 -0.000793457V1.99921ZM395.677 29.1032V31.1032L397.677 29.1032H395.677ZM363.997 29.1032V27.1032L361.997 29.1032H363.997ZM363.997 125.199V127.199L365.997 125.199H363.997ZM335.837 125.199H333.837L335.837 127.199V125.199ZM335.837 29.1032H337.837L335.837 27.1032V29.1032ZM304.157 29.1032H302.157L304.157 31.1032V29.1032ZM304.157 1.99921V-0.000793457L302.157 1.99921H304.157ZM395.677 1.99921H393.677V29.1032H395.677H397.677V1.99921H395.677ZM395.677 29.1032V27.1032H363.997V29.1032V31.1032H395.677V29.1032ZM363.997 29.1032H361.997V125.199H363.997H365.997V29.1032H363.997ZM363.997 125.199V123.199H335.837V125.199V127.199H363.997V125.199ZM335.837 125.199H337.837V29.1032H335.837H333.837V125.199H335.837ZM335.837 29.1032V27.1032H304.157V29.1032V31.1032H335.837V29.1032ZM304.157 29.1032H306.157V1.99921H304.157H302.157V29.1032H304.157ZM304.157 1.99921V3.99921H395.677V1.99921V-0.000793457H304.157V1.99921ZM506.388 1.99921L508.144 2.95663L506.388 -0.000793457V1.99921ZM465.028 77.8552L463.272 76.8978L463.028 77.8552H465.028ZM465.028 125.199V127.199L467.028 125.199H465.028ZM436.868 125.199H434.868L436.868 127.199V125.199ZM436.868 77.8552H438.868L438.624 76.8978L436.868 77.8552ZM395.508 1.99921V-0.000793457L393.752 2.95663L395.508 1.99921ZM427.54 1.99921L429.334 1.11543L427.54 -0.000793457V1.99921ZM450.948 49.5192L449.154 50.403H452.742L450.948 49.5192ZM474.356 1.99921V-0.000793457L472.562 1.11543L474.356 1.99921ZM506.388 1.99921L504.632 1.04179L463.272 76.8978L465.028 77.8552L466.784 78.8126L508.144 2.95663L506.388 1.99921ZM465.028 77.8552H463.028V125.199H465.028H467.028V77.8552H465.028ZM465.028 125.199V123.199H436.868V125.199V127.199H465.028V125.199ZM436.868 125.199H438.868V77.8552H436.868H434.868V125.199H436.868ZM436.868 77.8552L438.624 76.8978L397.264 1.04179L395.508 1.99921L393.752 2.95663L435.112 78.8126L436.868 77.8552ZM395.508 1.99921V3.99921H427.54V1.99921V-0.000793457H395.508V1.99921ZM427.54 1.99921L425.746 2.88299L449.154 50.403L450.948 49.5192L452.742 48.6354L429.334 1.11543L427.54 1.99921ZM450.948 49.5192L452.742 50.403L476.15 2.88299L474.356 1.99921L472.562 1.11543L449.154 48.6354L450.948 49.5192ZM474.356 1.99921V3.99921H506.388V1.99921V-0.000793457H474.356V1.99921ZM639.775 1.99921H641.775L639.775 -0.000793457V1.99921ZM639.775 29.1032V31.1032L641.775 29.1032H639.775ZM608.095 29.1032V27.1032L606.095 29.1032H608.095ZM608.095 125.199V127.199L610.095 125.199H608.095ZM579.935 125.199H577.935L579.935 127.199V125.199ZM579.935 29.1032H581.935L579.935 27.1032V29.1032ZM548.255 29.1032H546.255L548.255 31.1032V29.1032ZM548.255 1.99921V-0.000793457L546.255 1.99921H548.255ZM639.775 1.99921H637.775V29.1032H639.775H641.775V1.99921H639.775ZM639.775 29.1032V27.1032H608.095V29.1032V31.1032H639.775V29.1032ZM608.095 29.1032H606.095V125.199H608.095H610.095V29.1032H608.095ZM608.095 125.199V123.199H579.935V125.199V127.199H608.095V125.199ZM579.935 125.199H581.935V29.1032H579.935H577.935V125.199H579.935ZM579.935 29.1032V27.1032H548.255V29.1032V31.1032H579.935V29.1032ZM548.255 29.1032H550.255V1.99921H548.255H546.255V29.1032H548.255ZM548.255 1.99921V3.99921H639.775V1.99921V-0.000793457H548.255V1.99921ZM650.166 1.99921V-0.000793457L648.166 1.99921H650.166ZM678.326 1.99921H680.326L678.326 -0.000793457V1.99921ZM678.326 125.199V127.199L680.326 125.199H678.326ZM650.166 125.199H648.166L650.166 127.199V125.199ZM650.166 1.99921V3.99921H678.326V1.99921V-0.000793457H650.166V1.99921ZM678.326 1.99921H676.326V125.199H678.326H680.326V1.99921H678.326ZM678.326 125.199V123.199H650.166V125.199V127.199H678.326V125.199ZM650.166 125.199H652.166V1.99921H650.166H648.166V125.199H650.166ZM820.758 1.99921H822.758L820.758 -0.000793457V1.99921ZM820.758 125.199V127.199L822.758 125.199H820.758ZM792.598 125.199H790.598L792.598 127.199V125.199ZM792.598 53.5672H794.598L790.891 52.5264L792.598 53.5672ZM760.742 105.839V107.839L762.45 106.88L760.742 105.839ZM757.574 105.839L755.867 106.88L757.574 107.839V105.839ZM725.718 53.5672L727.426 52.5264L723.718 53.5672H725.718ZM725.718 125.199V127.199L727.718 125.199H725.718ZM697.558 125.199H695.558L697.558 127.199V125.199ZM697.558 1.99921V-0.000793457L695.558 1.99921H697.558ZM725.718 1.99921L727.425 0.956535L725.718 -0.000793457V1.99921ZM759.158 56.7352L757.452 57.7779H760.865L759.158 56.7352ZM792.598 1.99921V-0.000793457L790.892 0.956535L792.598 1.99921ZM820.758 1.99921H818.758V125.199H820.758H822.758V1.99921H820.758ZM820.758 125.199V123.199H792.598V125.199V127.199H820.758V125.199ZM792.598 125.199H794.598V53.5672H792.598H790.598V125.199H792.598ZM792.598 53.5672L790.891 52.5264L759.035 104.798L760.742 105.839L762.45 106.88L794.306 54.608L792.598 53.5672ZM760.742 105.839V103.839H757.574V105.839V107.839H760.742V105.839ZM757.574 105.839L759.282 104.798L727.426 52.5264L725.718 53.5672L724.01 54.608L755.867 106.88L757.574 105.839ZM725.718 53.5672H723.718V125.199H725.718H727.718V53.5672H725.718ZM725.718 125.199V123.199H697.558V125.199V127.199H725.718V125.199ZM697.558 125.199H699.558V1.99921H697.558H695.558V125.199H697.558ZM697.558 1.99921V3.99921H725.718V1.99921V-0.000793457H697.558V1.99921ZM725.718 1.99921L724.012 3.04189L757.452 57.7779L759.158 56.7352L760.865 55.6925L727.425 0.956535L725.718 1.99921ZM759.158 56.7352L760.865 57.7779L794.305 3.04189L792.598 1.99921L790.892 0.956535L757.452 55.6925L759.158 56.7352ZM792.598 1.99921V3.99921H820.758V1.99921V-0.000793457H792.598V1.99921ZM868.157 98.0952H866.157L868.157 100.095V98.0952ZM917.437 98.0952H919.437L917.437 96.0952V98.0952ZM917.437 125.199V127.199L919.437 125.199H917.437ZM839.997 125.199H837.997L839.997 127.199V125.199ZM839.997 1.99921V-0.000793457L837.997 1.99921H839.997ZM916.557 1.99921H918.557L916.557 -0.000793457V1.99921ZM916.557 29.1032V31.1032L918.557 29.1032H916.557ZM868.157 29.1032V27.1032L866.157 29.1032H868.157ZM868.157 49.5192H866.157L868.157 51.5192V49.5192ZM912.157 49.5192H914.157L912.157 47.5192V49.5192ZM912.157 76.2712V78.2712L914.157 76.2712H912.157ZM868.157 76.2712V74.2712L866.157 76.2712H868.157ZM868.157 98.0952V100.095H917.437V98.0952V96.0952H868.157V98.0952ZM917.437 98.0952H915.437V125.199H917.437H919.437V98.0952H917.437ZM917.437 125.199V123.199H839.997V125.199V127.199H917.437V125.199ZM839.997 125.199H841.997V1.99921H839.997H837.997V125.199H839.997ZM839.997 1.99921V3.99921H916.557V1.99921V-0.000793457H839.997V1.99921ZM916.557 1.99921H914.557V29.1032H916.557H918.557V1.99921H916.557ZM916.557 29.1032V27.1032H868.157V29.1032V31.1032H916.557V29.1032ZM868.157 29.1032H866.157V49.5192H868.157H870.157V29.1032H868.157ZM868.157 49.5192V51.5192H912.157V49.5192V47.5192H868.157V49.5192ZM912.157 49.5192H910.157V76.2712H912.157H914.157V49.5192H912.157ZM912.157 76.2712V74.2712H868.157V76.2712V78.2712H912.157V76.2712ZM868.157 76.2712H866.157V98.0952H868.157H870.157V76.2712H868.157ZM1001.61 86.4792V84.4792L999.613 86.4792H1001.61ZM1001.61 125.199V127.199L1003.61 125.199H1001.61ZM973.453 125.199H971.453L973.453 127.199V125.199ZM973.453 1.99921V-0.000793457L971.453 1.99921H973.453ZM1001.61 28.3992V26.3992L999.613 28.3992H1001.61ZM1001.61 60.0792H999.613L1001.61 62.0792V60.0792ZM1020.09 1.99921V3.99921C1043.3 3.99921 1061.21 21.9627 1061.21 44.2392H1063.21H1065.21C1065.21 19.6998 1045.46 -0.000793457 1020.09 -0.000793457V1.99921ZM1063.21 44.2392H1061.21C1061.21 66.5158 1043.3 84.4792 1020.09 84.4792V86.4792V88.4792C1045.46 88.4792 1065.21 68.7787 1065.21 44.2392H1063.21ZM1020.09 86.4792V84.4792H1001.61V86.4792V88.4792H1020.09V86.4792ZM1001.61 86.4792H999.613V125.199H1001.61H1003.61V86.4792H1001.61ZM1001.61 125.199V123.199H973.453V125.199V127.199H1001.61V125.199ZM973.453 125.199H975.453V1.99921H973.453H971.453V125.199H973.453ZM973.453 1.99921V3.99921H1020.09V1.99921V-0.000793457H973.453V1.99921ZM1020.09 60.0792V62.0792C1029.94 62.0792 1037.05 54.1972 1037.05 44.2392H1035.05H1033.05C1033.05 52.2332 1027.49 58.0792 1020.09 58.0792V60.0792ZM1035.05 44.2392H1037.05C1037.05 34.2812 1029.94 26.3992 1020.09 26.3992V28.3992V30.3992C1027.49 30.3992 1033.05 36.2452 1033.05 44.2392H1035.05ZM1020.09 28.3992V26.3992H1001.61V28.3992V30.3992H1020.09V28.3992ZM1001.61 28.3992H999.613V60.0792H1001.61H1003.61V28.3992H1001.61ZM1001.61 60.0792V62.0792H1020.09V60.0792V58.0792H1001.61V60.0792ZM1141.27 125.199L1139.37 125.806L1141.27 127.199V125.199ZM1135.11 105.839L1137.02 105.233L1135.11 103.839V105.839ZM1089.35 105.839V103.839L1087.45 105.233L1089.35 105.839ZM1083.19 125.199V127.199L1085.1 125.806L1083.19 125.199ZM1052.39 125.199L1050.5 124.555L1052.39 127.199V125.199ZM1094.28 1.99921V-0.000793457L1092.39 1.35541L1094.28 1.99921ZM1130.19 1.99921L1132.08 1.35541L1130.19 -0.000793457V1.99921ZM1172.07 125.199V127.199L1173.97 124.555L1172.07 125.199ZM1097.8 79.4392L1095.9 78.8313L1097.8 81.4392V79.4392ZM1126.67 79.4392V81.4392L1128.57 78.8313L1126.67 79.4392ZM1112.23 34.2072L1114.14 33.5993H1110.33L1112.23 34.2072ZM1141.27 125.199L1143.18 124.593L1137.02 105.233L1135.11 105.839L1133.21 106.446L1139.37 125.806L1141.27 125.199ZM1135.11 105.839V103.839H1089.35V105.839V107.839H1135.11V105.839ZM1089.35 105.839L1087.45 105.233L1081.29 124.593L1083.19 125.199L1085.1 125.806L1091.26 106.446L1089.35 105.839ZM1083.19 125.199V123.199H1052.39V125.199V127.199H1083.19V125.199ZM1052.39 125.199L1054.29 125.843L1096.18 2.64301L1094.28 1.99921L1092.39 1.35541L1050.5 124.555L1052.39 125.199ZM1094.28 1.99921V3.99921H1130.19V1.99921V-0.000793457H1094.28V1.99921ZM1130.19 1.99921L1128.29 2.64301L1170.18 125.843L1172.07 125.199L1173.97 124.555L1132.08 1.35541L1130.19 1.99921ZM1172.07 125.199V123.199H1141.27V125.199V127.199H1172.07V125.199ZM1097.8 79.4392V81.4392H1126.67V79.4392V77.4392H1097.8V79.4392ZM1126.67 79.4392L1128.57 78.8313L1114.14 33.5993L1112.23 34.2072L1110.33 34.8152L1124.76 80.0471L1126.67 79.4392ZM1112.23 34.2072L1110.33 33.5993L1095.9 78.8313L1097.8 79.4392L1099.71 80.0471L1114.14 34.8152L1112.23 34.2072ZM1245.41 125.199L1243.68 126.195L1245.41 127.199V125.199ZM1222.18 84.7192L1223.91 83.7237L1222.18 82.7192V84.7192ZM1208.8 84.7192V82.7192L1206.8 84.7192H1208.8ZM1208.8 125.199V127.199L1210.8 125.199H1208.8ZM1180.64 125.199H1178.64L1180.64 127.199V125.199ZM1180.64 1.99921V-0.000793457L1178.64 1.99921H1180.64ZM1249.46 79.9672L1248.56 78.183L1247.73 80.9704L1249.46 79.9672ZM1275.68 125.199V127.199L1277.41 124.196L1275.68 125.199ZM1208.8 28.3992V26.3992L1206.8 28.3992H1208.8ZM1208.8 60.0792H1206.8L1208.8 62.0792V60.0792ZM1245.41 125.199L1247.15 124.204L1223.91 83.7237L1222.18 84.7192L1220.45 85.7147L1243.68 126.195L1245.41 125.199ZM1222.18 84.7192V82.7192H1208.8V84.7192V86.7192H1222.18V84.7192ZM1208.8 84.7192H1206.8V125.199H1208.8H1210.8V84.7192H1208.8ZM1208.8 125.199V123.199H1180.64V125.199V127.199H1208.8V125.199ZM1180.64 125.199H1182.64V1.99921H1180.64H1178.64V125.199H1180.64ZM1180.64 1.99921V3.99921H1229.92V1.99921V-0.000793457H1180.64V1.99921ZM1229.92 1.99921V3.99921C1252.23 3.99921 1270.16 21.9358 1270.16 44.2392H1272.16H1274.16C1274.16 19.7266 1254.44 -0.000793457 1229.92 -0.000793457V1.99921ZM1272.16 44.2392H1270.16C1270.16 58.556 1261.5 71.6291 1248.56 78.183L1249.46 79.9672L1250.36 81.7514C1264.53 74.5774 1274.16 60.1944 1274.16 44.2392H1272.16ZM1249.46 79.9672L1247.73 80.9704L1273.95 126.202L1275.68 125.199L1277.41 124.196L1251.19 78.9641L1249.46 79.9672ZM1275.68 125.199V123.199H1245.41V125.199V127.199H1275.68V125.199ZM1208.8 28.3992H1206.8V60.0792H1208.8H1210.8V28.3992H1208.8ZM1208.8 60.0792V62.0792H1229.92V60.0792V58.0792H1208.8V60.0792ZM1229.92 60.0792V62.0792C1238.97 62.0792 1246 54.1147 1246 44.2392H1244H1242C1242 52.3158 1236.37 58.0792 1229.92 58.0792V60.0792ZM1244 44.2392H1246C1246 34.3638 1238.97 26.3992 1229.92 26.3992V28.3992V30.3992C1236.37 30.3992 1242 36.1627 1242 44.2392H1244ZM1229.92 28.3992V26.3992H1208.8V28.3992V30.3992H1229.92V28.3992ZM1367.13 1.99921H1369.13L1367.13 -0.000793457V1.99921ZM1367.13 29.1032V31.1032L1369.13 29.1032H1367.13ZM1335.45 29.1032V27.1032L1333.45 29.1032H1335.45ZM1335.45 125.199V127.199L1337.45 125.199H1335.45ZM1307.29 125.199H1305.29L1307.29 127.199V125.199ZM1307.29 29.1032H1309.29L1307.29 27.1032V29.1032ZM1275.61 29.1032H1273.61L1275.61 31.1032V29.1032ZM1275.61 1.99921V-0.000793457L1273.61 1.99921H1275.61ZM1367.13 1.99921H1365.13V29.1032H1367.13H1369.13V1.99921H1367.13ZM1367.13 29.1032V27.1032H1335.45V29.1032V31.1032H1367.13V29.1032ZM1335.45 29.1032H1333.45V125.199H1335.45H1337.45V29.1032H1335.45ZM1335.45 125.199V123.199H1307.29V125.199V127.199H1335.45V125.199ZM1307.29 125.199H1309.29V29.1032H1307.29H1305.29V125.199H1307.29ZM1307.29 29.1032V27.1032H1275.61V29.1032V31.1032H1307.29V29.1032ZM1275.61 29.1032H1277.61V1.99921H1275.61H1273.61V29.1032H1275.61ZM1275.61 1.99921V3.99921H1367.13V1.99921V-0.000793457H1275.61V1.99921ZM1477.84 1.99921L1479.6 2.95663L1477.84 -0.000793457V1.99921ZM1436.48 77.8552L1434.73 76.8978L1434.48 77.8552H1436.48ZM1436.48 125.199V127.199L1438.48 125.199H1436.48ZM1408.32 125.199H1406.32L1408.32 127.199V125.199ZM1408.32 77.8552H1410.32L1410.08 76.8978L1408.32 77.8552ZM1366.96 1.99921V-0.000793457L1365.21 2.95663L1366.96 1.99921ZM1398.99 1.99921L1400.79 1.11543L1398.99 -0.000793457V1.99921ZM1422.4 49.5192L1420.61 50.403H1424.2L1422.4 49.5192ZM1445.81 1.99921V-0.000793457L1444.02 1.11543L1445.81 1.99921ZM1477.84 1.99921L1476.09 1.04179L1434.73 76.8978L1436.48 77.8552L1438.24 78.8126L1479.6 2.95663L1477.84 1.99921ZM1436.48 77.8552H1434.48V125.199H1436.48H1438.48V77.8552H1436.48ZM1436.48 125.199V123.199H1408.32V125.199V127.199H1436.48V125.199ZM1408.32 125.199H1410.32V77.8552H1408.32H1406.32V125.199H1408.32ZM1408.32 77.8552L1410.08 76.8978L1368.72 1.04179L1366.96 1.99921L1365.21 2.95663L1406.57 78.8126L1408.32 77.8552ZM1366.96 1.99921V3.99921H1398.99V1.99921V-0.000793457H1366.96V1.99921ZM1398.99 1.99921L1397.2 2.88299L1420.61 50.403L1422.4 49.5192L1424.2 48.6354L1400.79 1.11543L1398.99 1.99921ZM1422.4 49.5192L1424.2 50.403L1447.6 2.88299L1445.81 1.99921L1444.02 1.11543L1420.61 48.6354L1422.4 49.5192ZM1445.81 1.99921V3.99921H1477.84V1.99921V-0.000793457H1445.81V1.99921ZM1611.23 1.99921H1613.23L1611.23 -0.000793457V1.99921ZM1611.23 29.1032V31.1032L1613.23 29.1032H1611.23ZM1579.55 29.1032V27.1032L1577.55 29.1032H1579.55ZM1579.55 125.199V127.199L1581.55 125.199H1579.55ZM1551.39 125.199H1549.39L1551.39 127.199V125.199ZM1551.39 29.1032H1553.39L1551.39 27.1032V29.1032ZM1519.71 29.1032H1517.71L1519.71 31.1032V29.1032ZM1519.71 1.99921V-0.000793457L1517.71 1.99921H1519.71ZM1611.23 1.99921H1609.23V29.1032H1611.23H1613.23V1.99921H1611.23ZM1611.23 29.1032V27.1032H1579.55V29.1032V31.1032H1611.23V29.1032ZM1579.55 29.1032H1577.55V125.199H1579.55H1581.55V29.1032H1579.55ZM1579.55 125.199V123.199H1551.39V125.199V127.199H1579.55V125.199ZM1551.39 125.199H1553.39V29.1032H1551.39H1549.39V125.199H1551.39ZM1551.39 29.1032V27.1032H1519.71V29.1032V31.1032H1551.39V29.1032ZM1519.71 29.1032H1521.71V1.99921H1519.71H1517.71V29.1032H1519.71ZM1519.71 1.99921V3.99921H1611.23V1.99921V-0.000793457H1519.71V1.99921ZM1621.62 1.99921V-0.000793457L1619.62 1.99921H1621.62ZM1649.78 1.99921H1651.78L1649.78 -0.000793457V1.99921ZM1649.78 125.199V127.199L1651.78 125.199H1649.78ZM1621.62 125.199H1619.62L1621.62 127.199V125.199ZM1621.62 1.99921V3.99921H1649.78V1.99921V-0.000793457H1621.62V1.99921ZM1649.78 1.99921H1647.78V125.199H1649.78H1651.78V1.99921H1649.78ZM1649.78 125.199V123.199H1621.62V125.199V127.199H1649.78V125.199ZM1621.62 125.199H1623.62V1.99921H1621.62H1619.62V125.199H1621.62ZM1792.21 1.99921H1794.21L1792.21 -0.000793457V1.99921ZM1792.21 125.199V127.199L1794.21 125.199H1792.21ZM1764.05 125.199H1762.05L1764.05 127.199V125.199ZM1764.05 53.5672H1766.05L1762.34 52.5264L1764.05 53.5672ZM1732.2 105.839V107.839L1733.9 106.88L1732.2 105.839ZM1729.03 105.839L1727.32 106.88L1729.03 107.839V105.839ZM1697.17 53.5672L1698.88 52.5264L1695.17 53.5672H1697.17ZM1697.17 125.199V127.199L1699.17 125.199H1697.17ZM1669.01 125.199H1667.01L1669.01 127.199V125.199ZM1669.01 1.99921V-0.000793457L1667.01 1.99921H1669.01ZM1697.17 1.99921L1698.88 0.956535L1697.17 -0.000793457V1.99921ZM1730.61 56.7352L1728.91 57.7779H1732.32L1730.61 56.7352ZM1764.05 1.99921V-0.000793457L1762.35 0.956535L1764.05 1.99921ZM1792.21 1.99921H1790.21V125.199H1792.21H1794.21V1.99921H1792.21ZM1792.21 125.199V123.199H1764.05V125.199V127.199H1792.21V125.199ZM1764.05 125.199H1766.05V53.5672H1764.05H1762.05V125.199H1764.05ZM1764.05 53.5672L1762.34 52.5264L1730.49 104.798L1732.2 105.839L1733.9 106.88L1765.76 54.608L1764.05 53.5672ZM1732.2 105.839V103.839H1729.03V105.839V107.839H1732.2V105.839ZM1729.03 105.839L1730.74 104.798L1698.88 52.5264L1697.17 53.5672L1695.46 54.608L1727.32 106.88L1729.03 105.839ZM1697.17 53.5672H1695.17V125.199H1697.17H1699.17V53.5672H1697.17ZM1697.17 125.199V123.199H1669.01V125.199V127.199H1697.17V125.199ZM1669.01 125.199H1671.01V1.99921H1669.01H1667.01V125.199H1669.01ZM1669.01 1.99921V3.99921H1697.17V1.99921V-0.000793457H1669.01V1.99921ZM1697.17 1.99921L1695.47 3.04189L1728.91 57.7779L1730.61 56.7352L1732.32 55.6925L1698.88 0.956535L1697.17 1.99921ZM1730.61 56.7352L1732.32 57.7779L1765.76 3.04189L1764.05 1.99921L1762.35 0.956535L1728.91 55.6925L1730.61 56.7352ZM1764.05 1.99921V3.99921H1792.21V1.99921V-0.000793457H1764.05V1.99921ZM1839.61 98.0952H1837.61L1839.61 100.095V98.0952ZM1888.89 98.0952H1890.89L1888.89 96.0952V98.0952ZM1888.89 125.199V127.199L1890.89 125.199H1888.89ZM1811.45 125.199H1809.45L1811.45 127.199V125.199ZM1811.45 1.99921V-0.000793457L1809.45 1.99921H1811.45ZM1888.01 1.99921H1890.01L1888.01 -0.000793457V1.99921ZM1888.01 29.1032V31.1032L1890.01 29.1032H1888.01ZM1839.61 29.1032V27.1032L1837.61 29.1032H1839.61ZM1839.61 49.5192H1837.61L1839.61 51.5192V49.5192ZM1883.61 49.5192H1885.61L1883.61 47.5192V49.5192ZM1883.61 76.2712V78.2712L1885.61 76.2712H1883.61ZM1839.61 76.2712V74.2712L1837.61 76.2712H1839.61ZM1839.61 98.0952V100.095H1888.89V98.0952V96.0952H1839.61V98.0952ZM1888.89 98.0952H1886.89V125.199H1888.89H1890.89V98.0952H1888.89ZM1888.89 125.199V123.199H1811.45V125.199V127.199H1888.89V125.199ZM1811.45 125.199H1813.45V1.99921H1811.45H1809.45V125.199H1811.45ZM1811.45 1.99921V3.99921H1888.01V1.99921V-0.000793457H1811.45V1.99921ZM1888.01 1.99921H1886.01V29.1032H1888.01H1890.01V1.99921H1888.01ZM1888.01 29.1032V27.1032H1839.61V29.1032V31.1032H1888.01V29.1032ZM1839.61 29.1032H1837.61V49.5192H1839.61H1841.61V29.1032H1839.61ZM1839.61 49.5192V51.5192H1883.61V49.5192V47.5192H1839.61V49.5192ZM1883.61 49.5192H1881.61V76.2712H1883.61H1885.61V49.5192H1883.61ZM1883.61 76.2712V74.2712H1839.61V76.2712V78.2712H1883.61V76.2712ZM1839.61 76.2712H1837.61V98.0952H1839.61H1841.61V76.2712H1839.61Z" fill="white" mask="url(#path-1-outside-1_1566_502)"/>
</svg>
