<svg width="1290" height="88" viewBox="0 0 1290 88" fill="none" xmlns="http://www.w3.org/2000/svg">
<mask id="path-1-outside-1_1567_504" maskUnits="userSpaceOnUse" x="-0.599609" y="-0.400391" width="1291" height="88" fill="black">
<rect fill="white" x="-0.599609" y="-0.400391" width="1291" height="88"/>
<path d="M33.4004 1.5996C49.9604 1.5996 62.8004 14.4396 62.8004 30.3996C62.8004 46.3596 49.9604 59.1996 33.4004 59.1996H20.8004V85.5996H1.60039V1.5996H33.4004ZM33.4004 41.1996C39.2804 41.1996 43.6004 36.5196 43.6004 30.3996C43.6004 24.2796 39.2804 19.5996 33.4004 19.5996H20.8004V41.1996H33.4004ZM116.024 85.5996L111.824 72.3996H80.6241L76.4241 85.5996H55.4241L83.9841 1.5996H108.464L137.024 85.5996H116.024ZM86.3841 54.3996H106.064L96.2241 23.5596L86.3841 54.3996ZM187.027 85.5996L171.187 57.9996H162.067V85.5996H142.867V1.5996H176.467C192.427 1.5996 205.267 14.4396 205.267 30.3996C205.267 40.7196 199.027 50.0796 189.787 54.7596L207.667 85.5996H187.027ZM162.067 19.5996V41.1996H176.467C181.747 41.1996 186.067 36.5196 186.067 30.3996C186.067 24.2796 181.747 19.5996 176.467 19.5996H162.067ZM270.017 1.5996V20.0796H248.417V85.5996H229.217V20.0796H207.617V1.5996H270.017ZM345.502 1.5996L317.302 53.3196V85.5996H298.102V53.3196L269.902 1.5996H291.742L307.702 33.9996L323.662 1.5996H345.502ZM436.448 1.5996V20.0796H414.848V85.5996H395.648V20.0796H374.048V1.5996H436.448ZM443.532 1.5996H462.732V85.5996H443.532V1.5996ZM559.845 1.5996V85.5996H540.645V36.7596L518.925 72.3996H516.765L495.045 36.7596V85.5996H475.845V1.5996H495.045L517.845 38.9196L540.645 1.5996H559.845ZM592.163 67.1196H625.763V85.5996H572.963V1.5996H625.163V20.0796H592.163V33.9996H622.163V52.2396H592.163V67.1196ZM695.755 1.5996C712.315 1.5996 725.155 14.4396 725.155 30.3996C725.155 46.3596 712.315 59.1996 695.755 59.1996H683.155V85.5996H663.955V1.5996H695.755ZM695.755 41.1996C701.635 41.1996 705.955 36.5196 705.955 30.3996C705.955 24.2796 701.635 19.5996 695.755 19.5996H683.155V41.1996H695.755ZM778.379 85.5996L774.179 72.3996H742.979L738.779 85.5996H717.779L746.339 1.5996H770.819L799.379 85.5996H778.379ZM748.739 54.3996H768.419L758.579 23.5596L748.739 54.3996ZM849.382 85.5996L833.542 57.9996H824.422V85.5996H805.222V1.5996H838.822C854.782 1.5996 867.622 14.4396 867.622 30.3996C867.622 40.7196 861.382 50.0796 852.142 54.7596L870.022 85.5996H849.382ZM824.422 19.5996V41.1996H838.822C844.102 41.1996 848.422 36.5196 848.422 30.3996C848.422 24.2796 844.102 19.5996 838.822 19.5996H824.422ZM932.372 1.5996V20.0796H910.772V85.5996H891.572V20.0796H869.972V1.5996H932.372ZM1007.86 1.5996L979.657 53.3196V85.5996H960.457V53.3196L932.257 1.5996H954.097L970.057 33.9996L986.017 1.5996H1007.86ZM1098.8 1.5996V20.0796H1077.2V85.5996H1058V20.0796H1036.4V1.5996H1098.8ZM1105.89 1.5996H1125.09V85.5996H1105.89V1.5996ZM1222.2 1.5996V85.5996H1203V36.7596L1181.28 72.3996H1179.12L1157.4 36.7596V85.5996H1138.2V1.5996H1157.4L1180.2 38.9196L1203 1.5996H1222.2ZM1254.52 67.1196H1288.12V85.5996H1235.32V1.5996H1287.52V20.0796H1254.52V33.9996H1284.52V52.2396H1254.52V67.1196Z"/>
</mask>
<path d="M20.8004 59.1996V57.5996L19.2004 59.1996H20.8004ZM20.8004 85.5996V87.1996L22.4004 85.5996H20.8004ZM1.60039 85.5996H0.000391006L1.60039 87.1996V85.5996ZM1.60039 1.5996V-0.000396729L0.000391006 1.5996H1.60039ZM20.8004 19.5996V17.9996L19.2004 19.5996H20.8004ZM20.8004 41.1996H19.2004L20.8004 42.7996V41.1996ZM33.4004 1.5996V3.1996C49.0984 3.1996 61.2004 15.3448 61.2004 30.3996H62.8004H64.4004C64.4004 13.5344 50.8224 -0.000396729 33.4004 -0.000396729V1.5996ZM62.8004 30.3996H61.2004C61.2004 45.4545 49.0984 57.5996 33.4004 57.5996V59.1996V60.7996C50.8224 60.7996 64.4004 47.2648 64.4004 30.3996H62.8004ZM33.4004 59.1996V57.5996H20.8004V59.1996V60.7996H33.4004V59.1996ZM20.8004 59.1996H19.2004V85.5996H20.8004H22.4004V59.1996H20.8004ZM20.8004 85.5996V83.9996H1.60039V85.5996V87.1996H20.8004V85.5996ZM1.60039 85.5996H3.20039V1.5996H1.60039H0.000391006V85.5996H1.60039ZM1.60039 1.5996V3.1996H33.4004V1.5996V-0.000396729H1.60039V1.5996ZM33.4004 41.1996V42.7996C40.259 42.7996 45.2004 37.3052 45.2004 30.3996H43.6004H42.0004C42.0004 35.734 38.3018 39.5996 33.4004 39.5996V41.1996ZM43.6004 30.3996H45.2004C45.2004 23.494 40.259 17.9996 33.4004 17.9996V19.5996V21.1996C38.3018 21.1996 42.0004 25.0652 42.0004 30.3996H43.6004ZM33.4004 19.5996V17.9996H20.8004V19.5996V21.1996H33.4004V19.5996ZM20.8004 19.5996H19.2004V41.1996H20.8004H22.4004V19.5996H20.8004ZM20.8004 41.1996V42.7996H33.4004V41.1996V39.5996H20.8004V41.1996ZM116.024 85.5996L114.499 86.0847L116.024 87.1996V85.5996ZM111.824 72.3996L113.349 71.9145L111.824 70.7996V72.3996ZM80.6241 72.3996V70.7996L79.0995 71.9145L80.6241 72.3996ZM76.4241 85.5996V87.1996L77.9488 86.0847L76.4241 85.5996ZM55.4241 85.5996L53.9093 85.0846L55.4241 87.1996V85.5996ZM83.9841 1.5996V-0.000396729L82.4693 1.08456L83.9841 1.5996ZM108.464 1.5996L109.979 1.08456L108.464 -0.000396729V1.5996ZM137.024 85.5996V87.1996L138.539 85.0846L137.024 85.5996ZM86.3841 54.3996L84.8598 53.9133L86.3841 55.9996V54.3996ZM106.064 54.3996V55.9996L107.588 53.9133L106.064 54.3996ZM96.2241 23.5596L97.7484 23.0733H94.6998L96.2241 23.5596ZM116.024 85.5996L117.549 85.1145L113.349 71.9145L111.824 72.3996L110.299 72.8847L114.499 86.0847L116.024 85.5996ZM111.824 72.3996V70.7996H80.6241V72.3996V73.9996H111.824V72.3996ZM80.6241 72.3996L79.0995 71.9145L74.8995 85.1145L76.4241 85.5996L77.9488 86.0847L82.1488 72.8847L80.6241 72.3996ZM76.4241 85.5996V83.9996H55.4241V85.5996V87.1996H76.4241V85.5996ZM55.4241 85.5996L56.939 86.1147L85.499 2.11465L83.9841 1.5996L82.4693 1.08456L53.9093 85.0846L55.4241 85.5996ZM83.9841 1.5996V3.1996H108.464V1.5996V-0.000396729H83.9841V1.5996ZM108.464 1.5996L106.949 2.11465L135.509 86.1147L137.024 85.5996L138.539 85.0846L109.979 1.08456L108.464 1.5996ZM137.024 85.5996V83.9996H116.024V85.5996V87.1996H137.024V85.5996ZM86.3841 54.3996V55.9996H106.064V54.3996V52.7996H86.3841V54.3996ZM106.064 54.3996L107.588 53.9133L97.7484 23.0733L96.2241 23.5596L94.6998 24.046L104.54 54.886L106.064 54.3996ZM96.2241 23.5596L94.6998 23.0733L84.8598 53.9133L86.3841 54.3996L87.9084 54.886L97.7484 24.046L96.2241 23.5596ZM187.027 85.5996L185.639 86.396L187.027 87.1996V85.5996ZM171.187 57.9996L172.574 57.2032L171.187 56.3996V57.9996ZM162.067 57.9996V56.3996L160.467 57.9996H162.067ZM162.067 85.5996V87.1996L163.667 85.5996H162.067ZM142.867 85.5996H141.267L142.867 87.1996V85.5996ZM142.867 1.5996V-0.000396729L141.267 1.5996H142.867ZM189.787 54.7596L189.064 53.3323L188.402 55.5621L189.787 54.7596ZM207.667 85.5996V87.1996L209.051 84.7971L207.667 85.5996ZM162.067 19.5996V17.9996L160.467 19.5996H162.067ZM162.067 41.1996H160.467L162.067 42.7996V41.1996ZM187.027 85.5996L188.414 84.8032L172.574 57.2032L171.187 57.9996L169.799 58.796L185.639 86.396L187.027 85.5996ZM171.187 57.9996V56.3996H162.067V57.9996V59.5996H171.187V57.9996ZM162.067 57.9996H160.467V85.5996H162.067H163.667V57.9996H162.067ZM162.067 85.5996V83.9996H142.867V85.5996V87.1996H162.067V85.5996ZM142.867 85.5996H144.467V1.5996H142.867H141.267V85.5996H142.867ZM142.867 1.5996V3.1996H176.467V1.5996V-0.000396729H142.867V1.5996ZM176.467 1.5996V3.1996C191.543 3.1996 203.667 15.3233 203.667 30.3996H205.267H206.867C206.867 13.5559 193.31 -0.000396729 176.467 -0.000396729V1.5996ZM205.267 30.3996H203.667C203.667 40.0643 197.814 48.9003 189.064 53.3323L189.787 54.7596L190.51 56.187C200.239 51.2589 206.867 41.3749 206.867 30.3996H205.267ZM189.787 54.7596L188.402 55.5621L206.282 86.4021L207.667 85.5996L209.051 84.7971L191.171 53.9571L189.787 54.7596ZM207.667 85.5996V83.9996H187.027V85.5996V87.1996H207.667V85.5996ZM162.067 19.5996H160.467V41.1996H162.067H163.667V19.5996H162.067ZM162.067 41.1996V42.7996H176.467V41.1996V39.5996H162.067V41.1996ZM176.467 41.1996V42.7996C182.786 42.7996 187.667 37.2392 187.667 30.3996H186.067H184.467C184.467 35.8 180.707 39.5996 176.467 39.5996V41.1996ZM186.067 30.3996H187.667C187.667 23.56 182.786 17.9996 176.467 17.9996V19.5996V21.1996C180.707 21.1996 184.467 24.9992 184.467 30.3996H186.067ZM176.467 19.5996V17.9996H162.067V19.5996V21.1996H176.467V19.5996ZM270.017 1.5996H271.617L270.017 -0.000396729V1.5996ZM270.017 20.0796V21.6796L271.617 20.0796H270.017ZM248.417 20.0796V18.4796L246.817 20.0796H248.417ZM248.417 85.5996V87.1996L250.017 85.5996H248.417ZM229.217 85.5996H227.617L229.217 87.1996V85.5996ZM229.217 20.0796H230.817L229.217 18.4796V20.0796ZM207.617 20.0796H206.017L207.617 21.6796V20.0796ZM207.617 1.5996V-0.000396729L206.017 1.5996H207.617ZM270.017 1.5996H268.417V20.0796H270.017H271.617V1.5996H270.017ZM270.017 20.0796V18.4796H248.417V20.0796V21.6796H270.017V20.0796ZM248.417 20.0796H246.817V85.5996H248.417H250.017V20.0796H248.417ZM248.417 85.5996V83.9996H229.217V85.5996V87.1996H248.417V85.5996ZM229.217 85.5996H230.817V20.0796H229.217H227.617V85.5996H229.217ZM229.217 20.0796V18.4796H207.617V20.0796V21.6796H229.217V20.0796ZM207.617 20.0796H209.217V1.5996H207.617H206.017V20.0796H207.617ZM207.617 1.5996V3.1996H270.017V1.5996V-0.000396729H207.617V1.5996ZM345.502 1.5996L346.906 2.36554L345.502 -0.000396729V1.5996ZM317.302 53.3196L315.897 52.5537L315.702 53.3196H317.302ZM317.302 85.5996V87.1996L318.902 85.5996H317.302ZM298.102 85.5996H296.502L298.102 87.1996V85.5996ZM298.102 53.3196H299.702L299.506 52.5537L298.102 53.3196ZM269.902 1.5996V-0.000396729L268.497 2.36554L269.902 1.5996ZM291.742 1.5996L293.177 0.892578L291.742 -0.000396729V1.5996ZM307.702 33.9996L306.266 34.7066H309.137L307.702 33.9996ZM323.662 1.5996V-0.000396729L322.226 0.892578L323.662 1.5996ZM345.502 1.5996L344.097 0.833672L315.897 52.5537L317.302 53.3196L318.706 54.0855L346.906 2.36554L345.502 1.5996ZM317.302 53.3196H315.702V85.5996H317.302H318.902V53.3196H317.302ZM317.302 85.5996V83.9996H298.102V85.5996V87.1996H317.302V85.5996ZM298.102 85.5996H299.702V53.3196H298.102H296.502V85.5996H298.102ZM298.102 53.3196L299.506 52.5537L271.306 0.833672L269.902 1.5996L268.497 2.36554L296.697 54.0855L298.102 53.3196ZM269.902 1.5996V3.1996H291.742V1.5996V-0.000396729H269.902V1.5996ZM291.742 1.5996L290.306 2.30663L306.266 34.7066L307.702 33.9996L309.137 33.2926L293.177 0.892578L291.742 1.5996ZM307.702 33.9996L309.137 34.7066L325.097 2.30663L323.662 1.5996L322.226 0.892578L306.266 33.2926L307.702 33.9996ZM323.662 1.5996V3.1996H345.502V1.5996V-0.000396729H323.662V1.5996ZM436.448 1.5996H438.048L436.448 -0.000396729V1.5996ZM436.448 20.0796V21.6796L438.048 20.0796H436.448ZM414.848 20.0796V18.4796L413.248 20.0796H414.848ZM414.848 85.5996V87.1996L416.448 85.5996H414.848ZM395.648 85.5996H394.048L395.648 87.1996V85.5996ZM395.648 20.0796H397.248L395.648 18.4796V20.0796ZM374.048 20.0796H372.448L374.048 21.6796V20.0796ZM374.048 1.5996V-0.000396729L372.448 1.5996H374.048ZM436.448 1.5996H434.848V20.0796H436.448H438.048V1.5996H436.448ZM436.448 20.0796V18.4796H414.848V20.0796V21.6796H436.448V20.0796ZM414.848 20.0796H413.248V85.5996H414.848H416.448V20.0796H414.848ZM414.848 85.5996V83.9996H395.648V85.5996V87.1996H414.848V85.5996ZM395.648 85.5996H397.248V20.0796H395.648H394.048V85.5996H395.648ZM395.648 20.0796V18.4796H374.048V20.0796V21.6796H395.648V20.0796ZM374.048 20.0796H375.648V1.5996H374.048H372.448V20.0796H374.048ZM374.048 1.5996V3.1996H436.448V1.5996V-0.000396729H374.048V1.5996ZM443.532 1.5996V-0.000396729L441.932 1.5996H443.532ZM462.732 1.5996H464.332L462.732 -0.000396729V1.5996ZM462.732 85.5996V87.1996L464.332 85.5996H462.732ZM443.532 85.5996H441.932L443.532 87.1996V85.5996ZM443.532 1.5996V3.1996H462.732V1.5996V-0.000396729H443.532V1.5996ZM462.732 1.5996H461.132V85.5996H462.732H464.332V1.5996H462.732ZM462.732 85.5996V83.9996H443.532V85.5996V87.1996H462.732V85.5996ZM443.532 85.5996H445.132V1.5996H443.532H441.932V85.5996H443.532ZM559.845 1.5996H561.445L559.845 -0.000396729V1.5996ZM559.845 85.5996V87.1996L561.445 85.5996H559.845ZM540.645 85.5996H539.045L540.645 87.1996V85.5996ZM540.645 36.7596H542.245L539.279 35.927L540.645 36.7596ZM518.925 72.3996V73.9996L520.291 73.2323L518.925 72.3996ZM516.765 72.3996L515.399 73.2323L516.765 73.9996V72.3996ZM495.045 36.7596L496.411 35.927L493.445 36.7596H495.045ZM495.045 85.5996V87.1996L496.645 85.5996H495.045ZM475.845 85.5996H474.245L475.845 87.1996V85.5996ZM475.845 1.5996V-0.000396729L474.245 1.5996H475.845ZM495.045 1.5996L496.41 0.765465L495.045 -0.000396729V1.5996ZM517.845 38.9196L516.48 39.7538H519.21L517.845 38.9196ZM540.645 1.5996V-0.000396729L539.28 0.765465L540.645 1.5996ZM559.845 1.5996H558.245V85.5996H559.845H561.445V1.5996H559.845ZM559.845 85.5996V83.9996H540.645V85.5996V87.1996H559.845V85.5996ZM540.645 85.5996H542.245V36.7596H540.645H539.045V85.5996H540.645ZM540.645 36.7596L539.279 35.927L517.559 71.567L518.925 72.3996L520.291 73.2323L542.011 37.5923L540.645 36.7596ZM518.925 72.3996V70.7996H516.765V72.3996V73.9996H518.925V72.3996ZM516.765 72.3996L518.131 71.567L496.411 35.927L495.045 36.7596L493.679 37.5923L515.399 73.2323L516.765 72.3996ZM495.045 36.7596H493.445V85.5996H495.045H496.645V36.7596H495.045ZM495.045 85.5996V83.9996H475.845V85.5996V87.1996H495.045V85.5996ZM475.845 85.5996H477.445V1.5996H475.845H474.245V85.5996H475.845ZM475.845 1.5996V3.1996H495.045V1.5996V-0.000396729H475.845V1.5996ZM495.045 1.5996L493.68 2.43375L516.48 39.7538L517.845 38.9196L519.21 38.0855L496.41 0.765465L495.045 1.5996ZM517.845 38.9196L519.21 39.7538L542.01 2.43375L540.645 1.5996L539.28 0.765465L516.48 38.0855L517.845 38.9196ZM540.645 1.5996V3.1996H559.845V1.5996V-0.000396729H540.645V1.5996ZM592.163 67.1196H590.563L592.163 68.7196V67.1196ZM625.763 67.1196H627.363L625.763 65.5196V67.1196ZM625.763 85.5996V87.1996L627.363 85.5996H625.763ZM572.963 85.5996H571.363L572.963 87.1996V85.5996ZM572.963 1.5996V-0.000396729L571.363 1.5996H572.963ZM625.163 1.5996H626.763L625.163 -0.000396729V1.5996ZM625.163 20.0796V21.6796L626.763 20.0796H625.163ZM592.163 20.0796V18.4796L590.563 20.0796H592.163ZM592.163 33.9996H590.563L592.163 35.5996V33.9996ZM622.163 33.9996H623.763L622.163 32.3996V33.9996ZM622.163 52.2396V53.8396L623.763 52.2396H622.163ZM592.163 52.2396V50.6396L590.563 52.2396H592.163ZM592.163 67.1196V68.7196H625.763V67.1196V65.5196H592.163V67.1196ZM625.763 67.1196H624.163V85.5996H625.763H627.363V67.1196H625.763ZM625.763 85.5996V83.9996H572.963V85.5996V87.1996H625.763V85.5996ZM572.963 85.5996H574.563V1.5996H572.963H571.363V85.5996H572.963ZM572.963 1.5996V3.1996H625.163V1.5996V-0.000396729H572.963V1.5996ZM625.163 1.5996H623.563V20.0796H625.163H626.763V1.5996H625.163ZM625.163 20.0796V18.4796H592.163V20.0796V21.6796H625.163V20.0796ZM592.163 20.0796H590.563V33.9996H592.163H593.763V20.0796H592.163ZM592.163 33.9996V35.5996H622.163V33.9996V32.3996H592.163V33.9996ZM622.163 33.9996H620.563V52.2396H622.163H623.763V33.9996H622.163ZM622.163 52.2396V50.6396H592.163V52.2396V53.8396H622.163V52.2396ZM592.163 52.2396H590.563V67.1196H592.163H593.763V52.2396H592.163ZM683.155 59.1996V57.5996L681.555 59.1996H683.155ZM683.155 85.5996V87.1996L684.755 85.5996H683.155ZM663.955 85.5996H662.355L663.955 87.1996V85.5996ZM663.955 1.5996V-0.000396729L662.355 1.5996H663.955ZM683.155 19.5996V17.9996L681.555 19.5996H683.155ZM683.155 41.1996H681.555L683.155 42.7996V41.1996ZM695.755 1.5996V3.1996C711.453 3.1996 723.555 15.3448 723.555 30.3996H725.155H726.755C726.755 13.5344 713.177 -0.000396729 695.755 -0.000396729V1.5996ZM725.155 30.3996H723.555C723.555 45.4545 711.453 57.5996 695.755 57.5996V59.1996V60.7996C713.177 60.7996 726.755 47.2648 726.755 30.3996H725.155ZM695.755 59.1996V57.5996H683.155V59.1996V60.7996H695.755V59.1996ZM683.155 59.1996H681.555V85.5996H683.155H684.755V59.1996H683.155ZM683.155 85.5996V83.9996H663.955V85.5996V87.1996H683.155V85.5996ZM663.955 85.5996H665.555V1.5996H663.955H662.355V85.5996H663.955ZM663.955 1.5996V3.1996H695.755V1.5996V-0.000396729H663.955V1.5996ZM695.755 41.1996V42.7996C702.614 42.7996 707.555 37.3052 707.555 30.3996H705.955H704.355C704.355 35.734 700.657 39.5996 695.755 39.5996V41.1996ZM705.955 30.3996H707.555C707.555 23.494 702.614 17.9996 695.755 17.9996V19.5996V21.1996C700.657 21.1996 704.355 25.0652 704.355 30.3996H705.955ZM695.755 19.5996V17.9996H683.155V19.5996V21.1996H695.755V19.5996ZM683.155 19.5996H681.555V41.1996H683.155H684.755V19.5996H683.155ZM683.155 41.1996V42.7996H695.755V41.1996V39.5996H683.155V41.1996ZM778.379 85.5996L776.854 86.0847L778.379 87.1996V85.5996ZM774.179 72.3996L775.704 71.9145L774.179 70.7996V72.3996ZM742.979 72.3996V70.7996L741.454 71.9145L742.979 72.3996ZM738.779 85.5996V87.1996L740.304 86.0847L738.779 85.5996ZM717.779 85.5996L716.264 85.0846L717.779 87.1996V85.5996ZM746.339 1.5996V-0.000396729L744.824 1.08456L746.339 1.5996ZM770.819 1.5996L772.334 1.08456L770.819 -0.000396729V1.5996ZM799.379 85.5996V87.1996L800.894 85.0846L799.379 85.5996ZM748.739 54.3996L747.215 53.9133L748.739 55.9996V54.3996ZM768.419 54.3996V55.9996L769.943 53.9133L768.419 54.3996ZM758.579 23.5596L760.103 23.0733H757.055L758.579 23.5596ZM778.379 85.5996L779.904 85.1145L775.704 71.9145L774.179 72.3996L772.654 72.8847L776.854 86.0847L778.379 85.5996ZM774.179 72.3996V70.7996H742.979V72.3996V73.9996H774.179V72.3996ZM742.979 72.3996L741.454 71.9145L737.254 85.1145L738.779 85.5996L740.304 86.0847L744.504 72.8847L742.979 72.3996ZM738.779 85.5996V83.9996H717.779V85.5996V87.1996H738.779V85.5996ZM717.779 85.5996L719.294 86.1147L747.854 2.11465L746.339 1.5996L744.824 1.08456L716.264 85.0846L717.779 85.5996ZM746.339 1.5996V3.1996H770.819V1.5996V-0.000396729H746.339V1.5996ZM770.819 1.5996L769.304 2.11465L797.864 86.1147L799.379 85.5996L800.894 85.0846L772.334 1.08456L770.819 1.5996ZM799.379 85.5996V83.9996H778.379V85.5996V87.1996H799.379V85.5996ZM748.739 54.3996V55.9996H768.419V54.3996V52.7996H748.739V54.3996ZM768.419 54.3996L769.943 53.9133L760.103 23.0733L758.579 23.5596L757.055 24.046L766.895 54.886L768.419 54.3996ZM758.579 23.5596L757.055 23.0733L747.215 53.9133L748.739 54.3996L750.263 54.886L760.103 24.046L758.579 23.5596ZM849.382 85.5996L847.994 86.396L849.382 87.1996V85.5996ZM833.542 57.9996L834.929 57.2032L833.542 56.3996V57.9996ZM824.422 57.9996V56.3996L822.822 57.9996H824.422ZM824.422 85.5996V87.1996L826.022 85.5996H824.422ZM805.222 85.5996H803.622L805.222 87.1996V85.5996ZM805.222 1.5996V-0.000396729L803.622 1.5996H805.222ZM852.142 54.7596L851.419 53.3323L850.758 55.5621L852.142 54.7596ZM870.022 85.5996V87.1996L871.406 84.7971L870.022 85.5996ZM824.422 19.5996V17.9996L822.822 19.5996H824.422ZM824.422 41.1996H822.822L824.422 42.7996V41.1996ZM849.382 85.5996L850.769 84.8032L834.929 57.2032L833.542 57.9996L832.154 58.796L847.994 86.396L849.382 85.5996ZM833.542 57.9996V56.3996H824.422V57.9996V59.5996H833.542V57.9996ZM824.422 57.9996H822.822V85.5996H824.422H826.022V57.9996H824.422ZM824.422 85.5996V83.9996H805.222V85.5996V87.1996H824.422V85.5996ZM805.222 85.5996H806.822V1.5996H805.222H803.622V85.5996H805.222ZM805.222 1.5996V3.1996H838.822V1.5996V-0.000396729H805.222V1.5996ZM838.822 1.5996V3.1996C853.898 3.1996 866.022 15.3233 866.022 30.3996H867.622H869.222C869.222 13.5559 855.665 -0.000396729 838.822 -0.000396729V1.5996ZM867.622 30.3996H866.022C866.022 40.0643 860.169 48.9003 851.419 53.3323L852.142 54.7596L852.865 56.187C862.594 51.2589 869.222 41.3749 869.222 30.3996H867.622ZM852.142 54.7596L850.758 55.5621L868.637 86.4021L870.022 85.5996L871.406 84.7971L853.526 53.9571L852.142 54.7596ZM870.022 85.5996V83.9996H849.382V85.5996V87.1996H870.022V85.5996ZM824.422 19.5996H822.822V41.1996H824.422H826.022V19.5996H824.422ZM824.422 41.1996V42.7996H838.822V41.1996V39.5996H824.422V41.1996ZM838.822 41.1996V42.7996C845.141 42.7996 850.022 37.2392 850.022 30.3996H848.422H846.822C846.822 35.8 843.062 39.5996 838.822 39.5996V41.1996ZM848.422 30.3996H850.022C850.022 23.56 845.141 17.9996 838.822 17.9996V19.5996V21.1996C843.062 21.1996 846.822 24.9992 846.822 30.3996H848.422ZM838.822 19.5996V17.9996H824.422V19.5996V21.1996H838.822V19.5996ZM932.372 1.5996H933.972L932.372 -0.000396729V1.5996ZM932.372 20.0796V21.6796L933.972 20.0796H932.372ZM910.772 20.0796V18.4796L909.172 20.0796H910.772ZM910.772 85.5996V87.1996L912.372 85.5996H910.772ZM891.572 85.5996H889.972L891.572 87.1996V85.5996ZM891.572 20.0796H893.172L891.572 18.4796V20.0796ZM869.972 20.0796H868.372L869.972 21.6796V20.0796ZM869.972 1.5996V-0.000396729L868.372 1.5996H869.972ZM932.372 1.5996H930.772V20.0796H932.372H933.972V1.5996H932.372ZM932.372 20.0796V18.4796H910.772V20.0796V21.6796H932.372V20.0796ZM910.772 20.0796H909.172V85.5996H910.772H912.372V20.0796H910.772ZM910.772 85.5996V83.9996H891.572V85.5996V87.1996H910.772V85.5996ZM891.572 85.5996H893.172V20.0796H891.572H889.972V85.5996H891.572ZM891.572 20.0796V18.4796H869.972V20.0796V21.6796H891.572V20.0796ZM869.972 20.0796H871.572V1.5996H869.972H868.372V20.0796H869.972ZM869.972 1.5996V3.1996H932.372V1.5996V-0.000396729H869.972V1.5996ZM1007.86 1.5996L1009.26 2.36554L1007.86 -0.000396729V1.5996ZM979.657 53.3196L978.252 52.5537L978.057 53.3196H979.657ZM979.657 85.5996V87.1996L981.257 85.5996H979.657ZM960.457 85.5996H958.857L960.457 87.1996V85.5996ZM960.457 53.3196H962.057L961.861 52.5537L960.457 53.3196ZM932.257 1.5996V-0.000396729L930.852 2.36554L932.257 1.5996ZM954.097 1.5996L955.532 0.892578L954.097 -0.000396729V1.5996ZM970.057 33.9996L968.621 34.7066H971.492L970.057 33.9996ZM986.017 1.5996V-0.000396729L984.581 0.892578L986.017 1.5996ZM1007.86 1.5996L1006.45 0.833672L978.252 52.5537L979.657 53.3196L981.061 54.0855L1009.26 2.36554L1007.86 1.5996ZM979.657 53.3196H978.057V85.5996H979.657H981.257V53.3196H979.657ZM979.657 85.5996V83.9996H960.457V85.5996V87.1996H979.657V85.5996ZM960.457 85.5996H962.057V53.3196H960.457H958.857V85.5996H960.457ZM960.457 53.3196L961.861 52.5537L933.661 0.833672L932.257 1.5996L930.852 2.36554L959.052 54.0855L960.457 53.3196ZM932.257 1.5996V3.1996H954.097V1.5996V-0.000396729H932.257V1.5996ZM954.097 1.5996L952.661 2.30663L968.621 34.7066L970.057 33.9996L971.492 33.2926L955.532 0.892578L954.097 1.5996ZM970.057 33.9996L971.492 34.7066L987.452 2.30663L986.017 1.5996L984.581 0.892578L968.621 33.2926L970.057 33.9996ZM986.017 1.5996V3.1996H1007.86V1.5996V-0.000396729H986.017V1.5996ZM1098.8 1.5996H1100.4L1098.8 -0.000396729V1.5996ZM1098.8 20.0796V21.6796L1100.4 20.0796H1098.8ZM1077.2 20.0796V18.4796L1075.6 20.0796H1077.2ZM1077.2 85.5996V87.1996L1078.8 85.5996H1077.2ZM1058 85.5996H1056.4L1058 87.1996V85.5996ZM1058 20.0796H1059.6L1058 18.4796V20.0796ZM1036.4 20.0796H1034.8L1036.4 21.6796V20.0796ZM1036.4 1.5996V-0.000396729L1034.8 1.5996H1036.4ZM1098.8 1.5996H1097.2V20.0796H1098.8H1100.4V1.5996H1098.8ZM1098.8 20.0796V18.4796H1077.2V20.0796V21.6796H1098.8V20.0796ZM1077.2 20.0796H1075.6V85.5996H1077.2H1078.8V20.0796H1077.2ZM1077.2 85.5996V83.9996H1058V85.5996V87.1996H1077.2V85.5996ZM1058 85.5996H1059.6V20.0796H1058H1056.4V85.5996H1058ZM1058 20.0796V18.4796H1036.4V20.0796V21.6796H1058V20.0796ZM1036.4 20.0796H1038V1.5996H1036.4H1034.8V20.0796H1036.4ZM1036.4 1.5996V3.1996H1098.8V1.5996V-0.000396729H1036.4V1.5996ZM1105.89 1.5996V-0.000396729L1104.29 1.5996H1105.89ZM1125.09 1.5996H1126.69L1125.09 -0.000396729V1.5996ZM1125.09 85.5996V87.1996L1126.69 85.5996H1125.09ZM1105.89 85.5996H1104.29L1105.89 87.1996V85.5996ZM1105.89 1.5996V3.1996H1125.09V1.5996V-0.000396729H1105.89V1.5996ZM1125.09 1.5996H1123.49V85.5996H1125.09H1126.69V1.5996H1125.09ZM1125.09 85.5996V83.9996H1105.89V85.5996V87.1996H1125.09V85.5996ZM1105.89 85.5996H1107.49V1.5996H1105.89H1104.29V85.5996H1105.89ZM1222.2 1.5996H1223.8L1222.2 -0.000396729V1.5996ZM1222.2 85.5996V87.1996L1223.8 85.5996H1222.2ZM1203 85.5996H1201.4L1203 87.1996V85.5996ZM1203 36.7596H1204.6L1201.63 35.927L1203 36.7596ZM1181.28 72.3996V73.9996L1182.65 73.2323L1181.28 72.3996ZM1179.12 72.3996L1177.75 73.2323L1179.12 73.9996V72.3996ZM1157.4 36.7596L1158.77 35.927L1155.8 36.7596H1157.4ZM1157.4 85.5996V87.1996L1159 85.5996H1157.4ZM1138.2 85.5996H1136.6L1138.2 87.1996V85.5996ZM1138.2 1.5996V-0.000396729L1136.6 1.5996H1138.2ZM1157.4 1.5996L1158.77 0.765465L1157.4 -0.000396729V1.5996ZM1180.2 38.9196L1178.83 39.7538H1181.57L1180.2 38.9196ZM1203 1.5996V-0.000396729L1201.63 0.765465L1203 1.5996ZM1222.2 1.5996H1220.6V85.5996H1222.2H1223.8V1.5996H1222.2ZM1222.2 85.5996V83.9996H1203V85.5996V87.1996H1222.2V85.5996ZM1203 85.5996H1204.6V36.7596H1203H1201.4V85.5996H1203ZM1203 36.7596L1201.63 35.927L1179.91 71.567L1181.28 72.3996L1182.65 73.2323L1204.37 37.5923L1203 36.7596ZM1181.28 72.3996V70.7996H1179.12V72.3996V73.9996H1181.28V72.3996ZM1179.12 72.3996L1180.49 71.567L1158.77 35.927L1157.4 36.7596L1156.03 37.5923L1177.75 73.2323L1179.12 72.3996ZM1157.4 36.7596H1155.8V85.5996H1157.4H1159V36.7596H1157.4ZM1157.4 85.5996V83.9996H1138.2V85.5996V87.1996H1157.4V85.5996ZM1138.2 85.5996H1139.8V1.5996H1138.2H1136.6V85.5996H1138.2ZM1138.2 1.5996V3.1996H1157.4V1.5996V-0.000396729H1138.2V1.5996ZM1157.4 1.5996L1156.03 2.43375L1178.83 39.7538L1180.2 38.9196L1181.57 38.0855L1158.77 0.765465L1157.4 1.5996ZM1180.2 38.9196L1181.57 39.7538L1204.37 2.43375L1203 1.5996L1201.63 0.765465L1178.83 38.0855L1180.2 38.9196ZM1203 1.5996V3.1996H1222.2V1.5996V-0.000396729H1203V1.5996ZM1254.52 67.1196H1252.92L1254.52 68.7196V67.1196ZM1288.12 67.1196H1289.72L1288.12 65.5196V67.1196ZM1288.12 85.5996V87.1996L1289.72 85.5996H1288.12ZM1235.32 85.5996H1233.72L1235.32 87.1996V85.5996ZM1235.32 1.5996V-0.000396729L1233.72 1.5996H1235.32ZM1287.52 1.5996H1289.12L1287.52 -0.000396729V1.5996ZM1287.52 20.0796V21.6796L1289.12 20.0796H1287.52ZM1254.52 20.0796V18.4796L1252.92 20.0796H1254.52ZM1254.52 33.9996H1252.92L1254.52 35.5996V33.9996ZM1284.52 33.9996H1286.12L1284.52 32.3996V33.9996ZM1284.52 52.2396V53.8396L1286.12 52.2396H1284.52ZM1254.52 52.2396V50.6396L1252.92 52.2396H1254.52ZM1254.52 67.1196V68.7196H1288.12V67.1196V65.5196H1254.52V67.1196ZM1288.12 67.1196H1286.52V85.5996H1288.12H1289.72V67.1196H1288.12ZM1288.12 85.5996V83.9996H1235.32V85.5996V87.1996H1288.12V85.5996ZM1235.32 85.5996H1236.92V1.5996H1235.32H1233.72V85.5996H1235.32ZM1235.32 1.5996V3.1996H1287.52V1.5996V-0.000396729H1235.32V1.5996ZM1287.52 1.5996H1285.92V20.0796H1287.52H1289.12V1.5996H1287.52ZM1287.52 20.0796V18.4796H1254.52V20.0796V21.6796H1287.52V20.0796ZM1254.52 20.0796H1252.92V33.9996H1254.52H1256.12V20.0796H1254.52ZM1254.52 33.9996V35.5996H1284.52V33.9996V32.3996H1254.52V33.9996ZM1284.52 33.9996H1282.92V52.2396H1284.52H1286.12V33.9996H1284.52ZM1284.52 52.2396V50.6396H1254.52V52.2396V53.8396H1284.52V52.2396ZM1254.52 52.2396H1252.92V67.1196H1254.52H1256.12V52.2396H1254.52Z" fill="white" mask="url(#path-1-outside-1_1567_504)"/>
</svg>
