<svg width="1033" height="70" viewBox="0 0 1033 70" fill="none" xmlns="http://www.w3.org/2000/svg">
<mask id="path-1-outside-1_1567_505" maskUnits="userSpaceOnUse" x="-0.359375" y="-0.400391" width="1033" height="71" fill="black">
<rect fill="white" x="-0.359375" y="-0.400391" width="1033" height="71"/>
<path d="M26.8406 1.3996C40.0886 1.3996 50.3606 11.6716 50.3606 24.4396C50.3606 37.2076 40.0886 47.4796 26.8406 47.4796H16.7606V68.5996H1.40063V1.3996H26.8406ZM26.8406 33.0796C31.5446 33.0796 35.0006 29.3356 35.0006 24.4396C35.0006 19.5436 31.5446 15.7996 26.8406 15.7996H16.7606V33.0796H26.8406ZM92.9396 68.5996L89.5796 58.0396H64.6196L61.2596 68.5996H44.4596L67.3076 1.3996H86.8916L109.74 68.5996H92.9396ZM69.2276 43.6396H84.9716L77.0996 18.9676L69.2276 43.6396ZM149.742 68.5996L137.07 46.5196H129.774V68.5996H114.414V1.3996H141.294C154.062 1.3996 164.334 11.6716 164.334 24.4396C164.334 32.6956 159.342 40.1836 151.95 43.9276L166.254 68.5996H149.742ZM129.774 15.7996V33.0796H141.294C145.518 33.0796 148.974 29.3356 148.974 24.4396C148.974 19.5436 145.518 15.7996 141.294 15.7996H129.774ZM216.134 1.3996V16.1836H198.854V68.5996H183.494V16.1836H166.214V1.3996H216.134ZM276.522 1.3996L253.962 42.7756V68.5996H238.602V42.7756L216.042 1.3996H233.514L246.282 27.3196L259.05 1.3996H276.522ZM349.278 1.3996V16.1836H331.998V68.5996H316.638V16.1836H299.358V1.3996H349.278ZM354.946 1.3996H370.306V68.5996H354.946V1.3996ZM447.996 1.3996V68.5996H432.636V29.5276L415.26 58.0396H413.532L396.156 29.5276V68.5996H380.796V1.3996H396.156L414.396 31.2556L432.636 1.3996H447.996ZM473.85 53.8156H500.73V68.5996H458.49V1.3996H500.25V16.1836H473.85V27.3196H497.85V41.9116H473.85V53.8156ZM556.725 1.3996C569.973 1.3996 580.245 11.6716 580.245 24.4396C580.245 37.2076 569.973 47.4796 556.725 47.4796H546.645V68.5996H531.285V1.3996H556.725ZM556.725 33.0796C561.429 33.0796 564.885 29.3356 564.885 24.4396C564.885 19.5436 561.429 15.7996 556.725 15.7996H546.645V33.0796H556.725ZM622.824 68.5996L619.464 58.0396H594.504L591.144 68.5996H574.344L597.192 1.3996H616.776L639.624 68.5996H622.824ZM599.112 43.6396H614.856L606.984 18.9676L599.112 43.6396ZM679.626 68.5996L666.954 46.5196H659.658V68.5996H644.298V1.3996H671.178C683.946 1.3996 694.218 11.6716 694.218 24.4396C694.218 32.6956 689.226 40.1836 681.834 43.9276L696.138 68.5996H679.626ZM659.658 15.7996V33.0796H671.178C675.402 33.0796 678.858 29.3356 678.858 24.4396C678.858 19.5436 675.402 15.7996 671.178 15.7996H659.658ZM746.018 1.3996V16.1836H728.738V68.5996H713.378V16.1836H696.098V1.3996H746.018ZM806.406 1.3996L783.846 42.7756V68.5996H768.486V42.7756L745.926 1.3996H763.398L776.166 27.3196L788.934 1.3996H806.406ZM879.162 1.3996V16.1836H861.882V68.5996H846.522V16.1836H829.242V1.3996H879.162ZM884.83 1.3996H900.19V68.5996H884.83V1.3996ZM977.88 1.3996V68.5996H962.52V29.5276L945.144 58.0396H943.416L926.04 29.5276V68.5996H910.68V1.3996H926.04L944.28 31.2556L962.52 1.3996H977.88ZM1003.73 53.8156H1030.61V68.5996H988.374V1.3996H1030.13V16.1836H1003.73V27.3196H1027.73V41.9116H1003.73V53.8156Z"/>
</mask>
<path d="M16.7606 47.4796V46.0796L15.3606 47.4796H16.7606ZM16.7606 68.5996V69.9996L18.1606 68.5996H16.7606ZM1.40063 68.5996H0.000625134L1.40063 69.9996V68.5996ZM1.40063 1.3996V-0.000396729L0.000625134 1.3996H1.40063ZM16.7606 15.7996V14.3996L15.3606 15.7996H16.7606ZM16.7606 33.0796H15.3606L16.7606 34.4796V33.0796ZM26.8406 1.3996V2.79961C39.3344 2.79961 48.9606 12.4636 48.9606 24.4396H50.3606H51.7606C51.7606 10.8796 40.8429 -0.000396729 26.8406 -0.000396729V1.3996ZM50.3606 24.4396H48.9606C48.9606 36.4156 39.3344 46.0796 26.8406 46.0796V47.4796V48.8796C40.8429 48.8796 51.7606 37.9996 51.7606 24.4396H50.3606ZM26.8406 47.4796V46.0796H16.7606V47.4796V48.8796H26.8406V47.4796ZM16.7606 47.4796H15.3606V68.5996H16.7606H18.1606V47.4796H16.7606ZM16.7606 68.5996V67.1996H1.40063V68.5996V69.9996H16.7606V68.5996ZM1.40063 68.5996H2.80063V1.3996H1.40063H0.000625134V68.5996H1.40063ZM1.40063 1.3996V2.79961H26.8406V1.3996V-0.000396729H1.40063V1.3996ZM26.8406 33.0796V34.4796C32.4009 34.4796 36.4006 30.023 36.4006 24.4396H35.0006H33.6006C33.6006 28.6482 30.6883 31.6796 26.8406 31.6796V33.0796ZM35.0006 24.4396H36.4006C36.4006 18.8562 32.4009 14.3996 26.8406 14.3996V15.7996V17.1996C30.6883 17.1996 33.6006 20.231 33.6006 24.4396H35.0006ZM26.8406 15.7996V14.3996H16.7606V15.7996V17.1996H26.8406V15.7996ZM16.7606 15.7996H15.3606V33.0796H16.7606H18.1606V15.7996H16.7606ZM16.7606 33.0796V34.4796H26.8406V33.0796V31.6796H16.7606V33.0796ZM92.9396 68.5996L91.6055 69.0241L92.9396 69.9996V68.5996ZM89.5796 58.0396L90.9137 57.6151L89.5796 56.6396V58.0396ZM64.6196 58.0396V56.6396L63.2855 57.6151L64.6196 58.0396ZM61.2596 68.5996V69.9996L62.5937 69.0241L61.2596 68.5996ZM44.4596 68.5996L43.1341 68.1489L44.4596 69.9996V68.5996ZM67.3076 1.3996V-0.000396729L65.9821 0.948944L67.3076 1.3996ZM86.8916 1.3996L88.2171 0.948944L86.8916 -0.000396729V1.3996ZM109.74 68.5996V69.9996L111.065 68.1489L109.74 68.5996ZM69.2276 43.6396L67.8939 43.2141L69.2276 45.0396V43.6396ZM84.9716 43.6396V45.0396L86.3054 43.2141L84.9716 43.6396ZM77.0996 18.9676L78.4334 18.5421H75.7659L77.0996 18.9676ZM92.9396 68.5996L94.2737 68.1751L90.9137 57.6151L89.5796 58.0396L88.2455 58.4641L91.6055 69.0241L92.9396 68.5996ZM89.5796 58.0396V56.6396H64.6196V58.0396V59.4396H89.5796V58.0396ZM64.6196 58.0396L63.2855 57.6151L59.9255 68.1751L61.2596 68.5996L62.5937 69.0241L65.9537 58.4641L64.6196 58.0396ZM61.2596 68.5996V67.1996H44.4596V68.5996V69.9996H61.2596V68.5996ZM44.4596 68.5996L45.7851 69.0503L68.6331 1.85027L67.3076 1.3996L65.9821 0.948944L43.1341 68.1489L44.4596 68.5996ZM67.3076 1.3996V2.79961H86.8916V1.3996V-0.000396729H67.3076V1.3996ZM86.8916 1.3996L85.5661 1.85027L108.414 69.0503L109.74 68.5996L111.065 68.1489L88.2171 0.948944L86.8916 1.3996ZM109.74 68.5996V67.1996H92.9396V68.5996V69.9996H109.74V68.5996ZM69.2276 43.6396V45.0396H84.9716V43.6396V42.2396H69.2276V43.6396ZM84.9716 43.6396L86.3054 43.2141L78.4334 18.5421L77.0996 18.9676L75.7659 19.3932L83.6379 44.0652L84.9716 43.6396ZM77.0996 18.9676L75.7659 18.5421L67.8939 43.2141L69.2276 43.6396L70.5614 44.0652L78.4334 19.3932L77.0996 18.9676ZM149.742 68.5996L148.527 69.2965L149.742 69.9996V68.5996ZM137.07 46.5196L138.284 45.8227L137.07 45.1196V46.5196ZM129.774 46.5196V45.1196L128.374 46.5196H129.774ZM129.774 68.5996V69.9996L131.174 68.5996H129.774ZM114.414 68.5996H113.014L114.414 69.9996V68.5996ZM114.414 1.3996V-0.000396729L113.014 1.3996H114.414ZM151.95 43.9276L151.317 42.6787L150.738 44.6298L151.95 43.9276ZM166.254 68.5996V69.9996L167.465 67.8974L166.254 68.5996ZM129.774 15.7996V14.3996L128.374 15.7996H129.774ZM129.774 33.0796H128.374L129.774 34.4796V33.0796ZM149.742 68.5996L150.956 67.9027L138.284 45.8227L137.07 46.5196L135.855 47.2165L148.527 69.2965L149.742 68.5996ZM137.07 46.5196V45.1196H129.774V46.5196V47.9196H137.07V46.5196ZM129.774 46.5196H128.374V68.5996H129.774H131.174V46.5196H129.774ZM129.774 68.5996V67.1996H114.414V68.5996V69.9996H129.774V68.5996ZM114.414 68.5996H115.814V1.3996H114.414H113.014V68.5996H114.414ZM114.414 1.3996V2.79961H141.294V1.3996V-0.000396729H114.414V1.3996ZM141.294 1.3996V2.79961C153.288 2.79961 162.934 12.4448 162.934 24.4396H164.334H165.734C165.734 10.8984 154.835 -0.000396729 141.294 -0.000396729V1.3996ZM164.334 24.4396H162.934C162.934 32.1222 158.281 39.1517 151.317 42.6787L151.95 43.9276L152.582 45.1765C160.403 41.2155 165.734 33.269 165.734 24.4396H164.334ZM151.95 43.9276L150.738 44.6298L165.042 69.3018L166.254 68.5996L167.465 67.8974L153.161 43.2254L151.95 43.9276ZM166.254 68.5996V67.1996H149.742V68.5996V69.9996H166.254V68.5996ZM129.774 15.7996H128.374V33.0796H129.774H131.174V15.7996H129.774ZM129.774 33.0796V34.4796H141.294V33.0796V31.6796H129.774V33.0796ZM141.294 33.0796V34.4796C146.427 34.4796 150.374 29.9652 150.374 24.4396H148.974H147.574C147.574 28.706 144.608 31.6796 141.294 31.6796V33.0796ZM148.974 24.4396H150.374C150.374 18.914 146.427 14.3996 141.294 14.3996V15.7996V17.1996C144.608 17.1996 147.574 20.1732 147.574 24.4396H148.974ZM141.294 15.7996V14.3996H129.774V15.7996V17.1996H141.294V15.7996ZM216.134 1.3996H217.534L216.134 -0.000396729V1.3996ZM216.134 16.1836V17.5836L217.534 16.1836H216.134ZM198.854 16.1836V14.7836L197.454 16.1836H198.854ZM198.854 68.5996V69.9996L200.254 68.5996H198.854ZM183.494 68.5996H182.094L183.494 69.9996V68.5996ZM183.494 16.1836H184.894L183.494 14.7836V16.1836ZM166.214 16.1836H164.814L166.214 17.5836V16.1836ZM166.214 1.3996V-0.000396729L164.814 1.3996H166.214ZM216.134 1.3996H214.734V16.1836H216.134H217.534V1.3996H216.134ZM216.134 16.1836V14.7836H198.854V16.1836V17.5836H216.134V16.1836ZM198.854 16.1836H197.454V68.5996H198.854H200.254V16.1836H198.854ZM198.854 68.5996V67.1996H183.494V68.5996V69.9996H198.854V68.5996ZM183.494 68.5996H184.894V16.1836H183.494H182.094V68.5996H183.494ZM183.494 16.1836V14.7836H166.214V16.1836V17.5836H183.494V16.1836ZM166.214 16.1836H167.614V1.3996H166.214H164.814V16.1836H166.214ZM166.214 1.3996V2.79961H216.134V1.3996V-0.000396729H166.214V1.3996ZM276.522 1.3996L277.751 2.0698L276.522 -0.000396729V1.3996ZM253.962 42.7756L252.732 42.1054L252.562 42.7756H253.962ZM253.962 68.5996V69.9996L255.362 68.5996H253.962ZM238.602 68.5996H237.202L238.602 69.9996V68.5996ZM238.602 42.7756H240.002L239.831 42.1054L238.602 42.7756ZM216.042 1.3996V-0.000396729L214.812 2.0698L216.042 1.3996ZM233.514 1.3996L234.77 0.78096L233.514 -0.000396729V1.3996ZM246.282 27.3196L245.026 27.9383H247.538L246.282 27.3196ZM259.05 1.3996V-0.000396729L257.794 0.78096L259.05 1.3996ZM276.522 1.3996L275.292 0.729408L252.732 42.1054L253.962 42.7756L255.191 43.4458L277.751 2.0698L276.522 1.3996ZM253.962 42.7756H252.562V68.5996H253.962H255.362V42.7756H253.962ZM253.962 68.5996V67.1996H238.602V68.5996V69.9996H253.962V68.5996ZM238.602 68.5996H240.002V42.7756H238.602H237.202V68.5996H238.602ZM238.602 42.7756L239.831 42.1054L217.271 0.729408L216.042 1.3996L214.812 2.0698L237.372 43.4458L238.602 42.7756ZM216.042 1.3996V2.79961H233.514V1.3996V-0.000396729H216.042V1.3996ZM233.514 1.3996L232.258 2.01825L245.026 27.9383L246.282 27.3196L247.538 26.701L234.77 0.78096L233.514 1.3996ZM246.282 27.3196L247.538 27.9383L260.306 2.01825L259.05 1.3996L257.794 0.78096L245.026 26.701L246.282 27.3196ZM259.05 1.3996V2.79961H276.522V1.3996V-0.000396729H259.05V1.3996ZM349.278 1.3996H350.678L349.278 -0.000396729V1.3996ZM349.278 16.1836V17.5836L350.678 16.1836H349.278ZM331.998 16.1836V14.7836L330.598 16.1836H331.998ZM331.998 68.5996V69.9996L333.398 68.5996H331.998ZM316.638 68.5996H315.238L316.638 69.9996V68.5996ZM316.638 16.1836H318.038L316.638 14.7836V16.1836ZM299.358 16.1836H297.958L299.358 17.5836V16.1836ZM299.358 1.3996V-0.000396729L297.958 1.3996H299.358ZM349.278 1.3996H347.878V16.1836H349.278H350.678V1.3996H349.278ZM349.278 16.1836V14.7836H331.998V16.1836V17.5836H349.278V16.1836ZM331.998 16.1836H330.598V68.5996H331.998H333.398V16.1836H331.998ZM331.998 68.5996V67.1996H316.638V68.5996V69.9996H331.998V68.5996ZM316.638 68.5996H318.038V16.1836H316.638H315.238V68.5996H316.638ZM316.638 16.1836V14.7836H299.358V16.1836V17.5836H316.638V16.1836ZM299.358 16.1836H300.758V1.3996H299.358H297.958V16.1836H299.358ZM299.358 1.3996V2.79961H349.278V1.3996V-0.000396729H299.358V1.3996ZM354.946 1.3996V-0.000396729L353.546 1.3996H354.946ZM370.306 1.3996H371.706L370.306 -0.000396729V1.3996ZM370.306 68.5996V69.9996L371.706 68.5996H370.306ZM354.946 68.5996H353.546L354.946 69.9996V68.5996ZM354.946 1.3996V2.79961H370.306V1.3996V-0.000396729H354.946V1.3996ZM370.306 1.3996H368.906V68.5996H370.306H371.706V1.3996H370.306ZM370.306 68.5996V67.1996H354.946V68.5996V69.9996H370.306V68.5996ZM354.946 68.5996H356.346V1.3996H354.946H353.546V68.5996H354.946ZM447.996 1.3996H449.396L447.996 -0.000396729V1.3996ZM447.996 68.5996V69.9996L449.396 68.5996H447.996ZM432.636 68.5996H431.236L432.636 69.9996V68.5996ZM432.636 29.5276H434.036L431.441 28.799L432.636 29.5276ZM415.26 58.0396V59.4396L416.456 58.7682L415.26 58.0396ZM413.532 58.0396L412.337 58.7682L413.532 59.4396V58.0396ZM396.156 29.5276L397.352 28.799L394.756 29.5276H396.156ZM396.156 68.5996V69.9996L397.556 68.5996H396.156ZM380.796 68.5996H379.396L380.796 69.9996V68.5996ZM380.796 1.3996V-0.000396729L379.396 1.3996H380.796ZM396.156 1.3996L397.351 0.669731L396.156 -0.000396729V1.3996ZM414.396 31.2556L413.202 31.9855H415.591L414.396 31.2556ZM432.636 1.3996V-0.000396729L431.442 0.669731L432.636 1.3996ZM447.996 1.3996H446.596V68.5996H447.996H449.396V1.3996H447.996ZM447.996 68.5996V67.1996H432.636V68.5996V69.9996H447.996V68.5996ZM432.636 68.5996H434.036V29.5276H432.636H431.236V68.5996H432.636ZM432.636 29.5276L431.441 28.799L414.065 57.311L415.26 58.0396L416.456 58.7682L433.832 30.2562L432.636 29.5276ZM415.26 58.0396V56.6396H413.532V58.0396V59.4396H415.26V58.0396ZM413.532 58.0396L414.728 57.311L397.352 28.799L396.156 29.5276L394.961 30.2562L412.337 58.7682L413.532 58.0396ZM396.156 29.5276H394.756V68.5996H396.156H397.556V29.5276H396.156ZM396.156 68.5996V67.1996H380.796V68.5996V69.9996H396.156V68.5996ZM380.796 68.5996H382.196V1.3996H380.796H379.396V68.5996H380.796ZM380.796 1.3996V2.79961H396.156V1.3996V-0.000396729H380.796V1.3996ZM396.156 1.3996L394.962 2.12948L413.202 31.9855L414.396 31.2556L415.591 30.5257L397.351 0.669731L396.156 1.3996ZM414.396 31.2556L415.591 31.9855L433.831 2.12948L432.636 1.3996L431.442 0.669731L413.202 30.5257L414.396 31.2556ZM432.636 1.3996V2.79961H447.996V1.3996V-0.000396729H432.636V1.3996ZM473.85 53.8156H472.45L473.85 55.2156V53.8156ZM500.73 53.8156H502.13L500.73 52.4156V53.8156ZM500.73 68.5996V69.9996L502.13 68.5996H500.73ZM458.49 68.5996H457.09L458.49 69.9996V68.5996ZM458.49 1.3996V-0.000396729L457.09 1.3996H458.49ZM500.25 1.3996H501.65L500.25 -0.000396729V1.3996ZM500.25 16.1836V17.5836L501.65 16.1836H500.25ZM473.85 16.1836V14.7836L472.45 16.1836H473.85ZM473.85 27.3196H472.45L473.85 28.7196V27.3196ZM497.85 27.3196H499.25L497.85 25.9196V27.3196ZM497.85 41.9116V43.3116L499.25 41.9116H497.85ZM473.85 41.9116V40.5116L472.45 41.9116H473.85ZM473.85 53.8156V55.2156H500.73V53.8156V52.4156H473.85V53.8156ZM500.73 53.8156H499.33V68.5996H500.73H502.13V53.8156H500.73ZM500.73 68.5996V67.1996H458.49V68.5996V69.9996H500.73V68.5996ZM458.49 68.5996H459.89V1.3996H458.49H457.09V68.5996H458.49ZM458.49 1.3996V2.79961H500.25V1.3996V-0.000396729H458.49V1.3996ZM500.25 1.3996H498.85V16.1836H500.25H501.65V1.3996H500.25ZM500.25 16.1836V14.7836H473.85V16.1836V17.5836H500.25V16.1836ZM473.85 16.1836H472.45V27.3196H473.85H475.25V16.1836H473.85ZM473.85 27.3196V28.7196H497.85V27.3196V25.9196H473.85V27.3196ZM497.85 27.3196H496.45V41.9116H497.85H499.25V27.3196H497.85ZM497.85 41.9116V40.5116H473.85V41.9116V43.3116H497.85V41.9116ZM473.85 41.9116H472.45V53.8156H473.85H475.25V41.9116H473.85ZM546.645 47.4796V46.0796L545.245 47.4796H546.645ZM546.645 68.5996V69.9996L548.045 68.5996H546.645ZM531.285 68.5996H529.885L531.285 69.9996V68.5996ZM531.285 1.3996V-0.000396729L529.885 1.3996H531.285ZM546.645 15.7996V14.3996L545.245 15.7996H546.645ZM546.645 33.0796H545.245L546.645 34.4796V33.0796ZM556.725 1.3996V2.79961C569.218 2.79961 578.845 12.4636 578.845 24.4396H580.245H581.645C581.645 10.8796 570.727 -0.000396729 556.725 -0.000396729V1.3996ZM580.245 24.4396H578.845C578.845 36.4156 569.218 46.0796 556.725 46.0796V47.4796V48.8796C570.727 48.8796 581.645 37.9996 581.645 24.4396H580.245ZM556.725 47.4796V46.0796H546.645V47.4796V48.8796H556.725V47.4796ZM546.645 47.4796H545.245V68.5996H546.645H548.045V47.4796H546.645ZM546.645 68.5996V67.1996H531.285V68.5996V69.9996H546.645V68.5996ZM531.285 68.5996H532.685V1.3996H531.285H529.885V68.5996H531.285ZM531.285 1.3996V2.79961H556.725V1.3996V-0.000396729H531.285V1.3996ZM556.725 33.0796V34.4796C562.285 34.4796 566.285 30.023 566.285 24.4396H564.885H563.485C563.485 28.6482 560.572 31.6796 556.725 31.6796V33.0796ZM564.885 24.4396H566.285C566.285 18.8562 562.285 14.3996 556.725 14.3996V15.7996V17.1996C560.572 17.1996 563.485 20.231 563.485 24.4396H564.885ZM556.725 15.7996V14.3996H546.645V15.7996V17.1996H556.725V15.7996ZM546.645 15.7996H545.245V33.0796H546.645H548.045V15.7996H546.645ZM546.645 33.0796V34.4796H556.725V33.0796V31.6796H546.645V33.0796ZM622.824 68.5996L621.49 69.0241L622.824 69.9996V68.5996ZM619.464 58.0396L620.798 57.6151L619.464 56.6396V58.0396ZM594.504 58.0396V56.6396L593.17 57.6151L594.504 58.0396ZM591.144 68.5996V69.9996L592.478 69.0241L591.144 68.5996ZM574.344 68.5996L573.018 68.1489L574.344 69.9996V68.5996ZM597.192 1.3996V-0.000396729L595.866 0.948944L597.192 1.3996ZM616.776 1.3996L618.101 0.948944L616.776 -0.000396729V1.3996ZM639.624 68.5996V69.9996L640.949 68.1489L639.624 68.5996ZM599.112 43.6396L597.778 43.2141L599.112 45.0396V43.6396ZM614.856 43.6396V45.0396L616.189 43.2141L614.856 43.6396ZM606.984 18.9676L608.317 18.5421H605.65L606.984 18.9676ZM622.824 68.5996L624.158 68.1751L620.798 57.6151L619.464 58.0396L618.13 58.4641L621.49 69.0241L622.824 68.5996ZM619.464 58.0396V56.6396H594.504V58.0396V59.4396H619.464V58.0396ZM594.504 58.0396L593.17 57.6151L589.81 68.1751L591.144 68.5996L592.478 69.0241L595.838 58.4641L594.504 58.0396ZM591.144 68.5996V67.1996H574.344V68.5996V69.9996H591.144V68.5996ZM574.344 68.5996L575.669 69.0503L598.517 1.85027L597.192 1.3996L595.866 0.948944L573.018 68.1489L574.344 68.5996ZM597.192 1.3996V2.79961H616.776V1.3996V-0.000396729H597.192V1.3996ZM616.776 1.3996L615.45 1.85027L638.298 69.0503L639.624 68.5996L640.949 68.1489L618.101 0.948944L616.776 1.3996ZM639.624 68.5996V67.1996H622.824V68.5996V69.9996H639.624V68.5996ZM599.112 43.6396V45.0396H614.856V43.6396V42.2396H599.112V43.6396ZM614.856 43.6396L616.189 43.2141L608.317 18.5421L606.984 18.9676L605.65 19.3932L613.522 44.0652L614.856 43.6396ZM606.984 18.9676L605.65 18.5421L597.778 43.2141L599.112 43.6396L600.445 44.0652L608.317 19.3932L606.984 18.9676ZM679.626 68.5996L678.411 69.2965L679.626 69.9996V68.5996ZM666.954 46.5196L668.168 45.8227L666.954 45.1196V46.5196ZM659.658 46.5196V45.1196L658.258 46.5196H659.658ZM659.658 68.5996V69.9996L661.058 68.5996H659.658ZM644.298 68.5996H642.898L644.298 69.9996V68.5996ZM644.298 1.3996V-0.000396729L642.898 1.3996H644.298ZM681.834 43.9276L681.201 42.6787L680.622 44.6298L681.834 43.9276ZM696.138 68.5996V69.9996L697.349 67.8974L696.138 68.5996ZM659.658 15.7996V14.3996L658.258 15.7996H659.658ZM659.658 33.0796H658.258L659.658 34.4796V33.0796ZM679.626 68.5996L680.84 67.9027L668.168 45.8227L666.954 46.5196L665.739 47.2165L678.411 69.2965L679.626 68.5996ZM666.954 46.5196V45.1196H659.658V46.5196V47.9196H666.954V46.5196ZM659.658 46.5196H658.258V68.5996H659.658H661.058V46.5196H659.658ZM659.658 68.5996V67.1996H644.298V68.5996V69.9996H659.658V68.5996ZM644.298 68.5996H645.698V1.3996H644.298H642.898V68.5996H644.298ZM644.298 1.3996V2.79961H671.178V1.3996V-0.000396729H644.298V1.3996ZM671.178 1.3996V2.79961C683.172 2.79961 692.818 12.4448 692.818 24.4396H694.218H695.618C695.618 10.8984 684.719 -0.000396729 671.178 -0.000396729V1.3996ZM694.218 24.4396H692.818C692.818 32.1222 688.165 39.1517 681.201 42.6787L681.834 43.9276L682.466 45.1765C690.287 41.2155 695.618 33.269 695.618 24.4396H694.218ZM681.834 43.9276L680.622 44.6298L694.926 69.3018L696.138 68.5996L697.349 67.8974L683.045 43.2254L681.834 43.9276ZM696.138 68.5996V67.1996H679.626V68.5996V69.9996H696.138V68.5996ZM659.658 15.7996H658.258V33.0796H659.658H661.058V15.7996H659.658ZM659.658 33.0796V34.4796H671.178V33.0796V31.6796H659.658V33.0796ZM671.178 33.0796V34.4796C676.311 34.4796 680.258 29.9652 680.258 24.4396H678.858H677.458C677.458 28.706 674.492 31.6796 671.178 31.6796V33.0796ZM678.858 24.4396H680.258C680.258 18.914 676.311 14.3996 671.178 14.3996V15.7996V17.1996C674.492 17.1996 677.458 20.1732 677.458 24.4396H678.858ZM671.178 15.7996V14.3996H659.658V15.7996V17.1996H671.178V15.7996ZM746.018 1.3996H747.418L746.018 -0.000396729V1.3996ZM746.018 16.1836V17.5836L747.418 16.1836H746.018ZM728.738 16.1836V14.7836L727.338 16.1836H728.738ZM728.738 68.5996V69.9996L730.138 68.5996H728.738ZM713.378 68.5996H711.978L713.378 69.9996V68.5996ZM713.378 16.1836H714.778L713.378 14.7836V16.1836ZM696.098 16.1836H694.698L696.098 17.5836V16.1836ZM696.098 1.3996V-0.000396729L694.698 1.3996H696.098ZM746.018 1.3996H744.618V16.1836H746.018H747.418V1.3996H746.018ZM746.018 16.1836V14.7836H728.738V16.1836V17.5836H746.018V16.1836ZM728.738 16.1836H727.338V68.5996H728.738H730.138V16.1836H728.738ZM728.738 68.5996V67.1996H713.378V68.5996V69.9996H728.738V68.5996ZM713.378 68.5996H714.778V16.1836H713.378H711.978V68.5996H713.378ZM713.378 16.1836V14.7836H696.098V16.1836V17.5836H713.378V16.1836ZM696.098 16.1836H697.498V1.3996H696.098H694.698V16.1836H696.098ZM696.098 1.3996V2.79961H746.018V1.3996V-0.000396729H696.098V1.3996ZM806.406 1.3996L807.635 2.0698L806.406 -0.000396729V1.3996ZM783.846 42.7756L782.616 42.1054L782.446 42.7756H783.846ZM783.846 68.5996V69.9996L785.246 68.5996H783.846ZM768.486 68.5996H767.086L768.486 69.9996V68.5996ZM768.486 42.7756H769.886L769.715 42.1054L768.486 42.7756ZM745.926 1.3996V-0.000396729L744.696 2.0698L745.926 1.3996ZM763.398 1.3996L764.654 0.78096L763.398 -0.000396729V1.3996ZM776.166 27.3196L774.91 27.9383H777.422L776.166 27.3196ZM788.934 1.3996V-0.000396729L787.678 0.78096L788.934 1.3996ZM806.406 1.3996L805.176 0.729408L782.616 42.1054L783.846 42.7756L785.075 43.4458L807.635 2.0698L806.406 1.3996ZM783.846 42.7756H782.446V68.5996H783.846H785.246V42.7756H783.846ZM783.846 68.5996V67.1996H768.486V68.5996V69.9996H783.846V68.5996ZM768.486 68.5996H769.886V42.7756H768.486H767.086V68.5996H768.486ZM768.486 42.7756L769.715 42.1054L747.155 0.729408L745.926 1.3996L744.696 2.0698L767.256 43.4458L768.486 42.7756ZM745.926 1.3996V2.79961H763.398V1.3996V-0.000396729H745.926V1.3996ZM763.398 1.3996L762.142 2.01825L774.91 27.9383L776.166 27.3196L777.422 26.701L764.654 0.78096L763.398 1.3996ZM776.166 27.3196L777.422 27.9383L790.19 2.01825L788.934 1.3996L787.678 0.78096L774.91 26.701L776.166 27.3196ZM788.934 1.3996V2.79961H806.406V1.3996V-0.000396729H788.934V1.3996ZM879.162 1.3996H880.562L879.162 -0.000396729V1.3996ZM879.162 16.1836V17.5836L880.562 16.1836H879.162ZM861.882 16.1836V14.7836L860.482 16.1836H861.882ZM861.882 68.5996V69.9996L863.282 68.5996H861.882ZM846.522 68.5996H845.122L846.522 69.9996V68.5996ZM846.522 16.1836H847.922L846.522 14.7836V16.1836ZM829.242 16.1836H827.842L829.242 17.5836V16.1836ZM829.242 1.3996V-0.000396729L827.842 1.3996H829.242ZM879.162 1.3996H877.762V16.1836H879.162H880.562V1.3996H879.162ZM879.162 16.1836V14.7836H861.882V16.1836V17.5836H879.162V16.1836ZM861.882 16.1836H860.482V68.5996H861.882H863.282V16.1836H861.882ZM861.882 68.5996V67.1996H846.522V68.5996V69.9996H861.882V68.5996ZM846.522 68.5996H847.922V16.1836H846.522H845.122V68.5996H846.522ZM846.522 16.1836V14.7836H829.242V16.1836V17.5836H846.522V16.1836ZM829.242 16.1836H830.642V1.3996H829.242H827.842V16.1836H829.242ZM829.242 1.3996V2.79961H879.162V1.3996V-0.000396729H829.242V1.3996ZM884.83 1.3996V-0.000396729L883.43 1.3996H884.83ZM900.19 1.3996H901.59L900.19 -0.000396729V1.3996ZM900.19 68.5996V69.9996L901.59 68.5996H900.19ZM884.83 68.5996H883.43L884.83 69.9996V68.5996ZM884.83 1.3996V2.79961H900.19V1.3996V-0.000396729H884.83V1.3996ZM900.19 1.3996H898.79V68.5996H900.19H901.59V1.3996H900.19ZM900.19 68.5996V67.1996H884.83V68.5996V69.9996H900.19V68.5996ZM884.83 68.5996H886.23V1.3996H884.83H883.43V68.5996H884.83ZM977.88 1.3996H979.28L977.88 -0.000396729V1.3996ZM977.88 68.5996V69.9996L979.28 68.5996H977.88ZM962.52 68.5996H961.12L962.52 69.9996V68.5996ZM962.52 29.5276H963.92L961.325 28.799L962.52 29.5276ZM945.144 58.0396V59.4396L946.34 58.7682L945.144 58.0396ZM943.416 58.0396L942.221 58.7682L943.416 59.4396V58.0396ZM926.04 29.5276L927.236 28.799L924.64 29.5276H926.04ZM926.04 68.5996V69.9996L927.44 68.5996H926.04ZM910.68 68.5996H909.28L910.68 69.9996V68.5996ZM910.68 1.3996V-0.000396729L909.28 1.3996H910.68ZM926.04 1.3996L927.235 0.669731L926.04 -0.000396729V1.3996ZM944.28 31.2556L943.086 31.9855H945.475L944.28 31.2556ZM962.52 1.3996V-0.000396729L961.326 0.669731L962.52 1.3996ZM977.88 1.3996H976.48V68.5996H977.88H979.28V1.3996H977.88ZM977.88 68.5996V67.1996H962.52V68.5996V69.9996H977.88V68.5996ZM962.52 68.5996H963.92V29.5276H962.52H961.12V68.5996H962.52ZM962.52 29.5276L961.325 28.799L943.949 57.311L945.144 58.0396L946.34 58.7682L963.716 30.2562L962.52 29.5276ZM945.144 58.0396V56.6396H943.416V58.0396V59.4396H945.144V58.0396ZM943.416 58.0396L944.612 57.311L927.236 28.799L926.04 29.5276L924.845 30.2562L942.221 58.7682L943.416 58.0396ZM926.04 29.5276H924.64V68.5996H926.04H927.44V29.5276H926.04ZM926.04 68.5996V67.1996H910.68V68.5996V69.9996H926.04V68.5996ZM910.68 68.5996H912.08V1.3996H910.68H909.28V68.5996H910.68ZM910.68 1.3996V2.79961H926.04V1.3996V-0.000396729H910.68V1.3996ZM926.04 1.3996L924.846 2.12948L943.086 31.9855L944.28 31.2556L945.475 30.5257L927.235 0.669731L926.04 1.3996ZM944.28 31.2556L945.475 31.9855L963.715 2.12948L962.52 1.3996L961.326 0.669731L943.086 30.5257L944.28 31.2556ZM962.52 1.3996V2.79961H977.88V1.3996V-0.000396729H962.52V1.3996ZM1003.73 53.8156H1002.33L1003.73 55.2156V53.8156ZM1030.61 53.8156H1032.01L1030.61 52.4156V53.8156ZM1030.61 68.5996V69.9996L1032.01 68.5996H1030.61ZM988.374 68.5996H986.974L988.374 69.9996V68.5996ZM988.374 1.3996V-0.000396729L986.974 1.3996H988.374ZM1030.13 1.3996H1031.53L1030.13 -0.000396729V1.3996ZM1030.13 16.1836V17.5836L1031.53 16.1836H1030.13ZM1003.73 16.1836V14.7836L1002.33 16.1836H1003.73ZM1003.73 27.3196H1002.33L1003.73 28.7196V27.3196ZM1027.73 27.3196H1029.13L1027.73 25.9196V27.3196ZM1027.73 41.9116V43.3116L1029.13 41.9116H1027.73ZM1003.73 41.9116V40.5116L1002.33 41.9116H1003.73ZM1003.73 53.8156V55.2156H1030.61V53.8156V52.4156H1003.73V53.8156ZM1030.61 53.8156H1029.21V68.5996H1030.61H1032.01V53.8156H1030.61ZM1030.61 68.5996V67.1996H988.374V68.5996V69.9996H1030.61V68.5996ZM988.374 68.5996H989.774V1.3996H988.374H986.974V68.5996H988.374ZM988.374 1.3996V2.79961H1030.13V1.3996V-0.000396729H988.374V1.3996ZM1030.13 1.3996H1028.73V16.1836H1030.13H1031.53V1.3996H1030.13ZM1030.13 16.1836V14.7836H1003.73V16.1836V17.5836H1030.13V16.1836ZM1003.73 16.1836H1002.33V27.3196H1003.73H1005.13V16.1836H1003.73ZM1003.73 27.3196V28.7196H1027.73V27.3196V25.9196H1003.73V27.3196ZM1027.73 27.3196H1026.33V41.9116H1027.73H1029.13V27.3196H1027.73ZM1027.73 41.9116V40.5116H1003.73V41.9116V43.3116H1027.73V41.9116ZM1003.73 41.9116H1002.33V53.8156H1003.73H1005.13V41.9116H1003.73Z" fill="white" mask="url(#path-1-outside-1_1567_505)"/>
</svg>
