<svg width="2478" height="133" viewBox="0 0 2478 133" fill="none" xmlns="http://www.w3.org/2000/svg">
<mask id="path-1-outside-1_1850_888" maskUnits="userSpaceOnUse" x="-0.560547" y="-0.335938" width="2478" height="133" fill="black">
<rect fill="white" x="-0.560547" y="-0.335938" width="2478" height="133"/>
<path d="M48.6395 4.46405C72.9275 4.46405 91.7595 23.2961 91.7595 46.7041C91.7595 70.1121 72.9275 88.9441 48.6395 88.9441H30.1595V127.664H1.99945V4.46405H48.6395ZM48.6395 62.5441C57.2635 62.5441 63.5995 55.6801 63.5995 46.7041C63.5995 37.7281 57.2635 30.8641 48.6395 30.8641H30.1595V62.5441H48.6395ZM132.036 100.56H181.316V127.664H103.876V4.46405H180.436V31.5681H132.036V51.9841H176.036V78.7361H132.036V100.56ZM260.036 127.664L236.804 87.1841H223.428V127.664H195.268V4.46405H244.548C267.956 4.46405 286.788 23.2961 286.788 46.7041C286.788 61.8401 277.636 75.5681 264.084 82.4321L290.308 127.664H260.036ZM223.428 30.8641V62.5441H244.548C252.292 62.5441 258.628 55.6801 258.628 46.7041C258.628 37.7281 252.292 30.8641 244.548 30.8641H223.428ZM376.413 31.5681H329.773V55.3281H375.533V82.4321H329.773V127.664H301.613V4.46405H376.413V31.5681ZM449.899 130.128C414.523 130.128 385.835 102.32 385.835 66.0641C385.835 29.8081 414.523 2.00005 449.899 2.00005C485.275 2.00005 513.963 29.8081 513.963 66.0641C513.963 102.32 485.275 130.128 449.899 130.128ZM449.899 102.672C469.963 102.672 485.803 88.0641 485.803 66.0641C485.803 44.0641 469.963 29.4561 449.899 29.4561C429.835 29.4561 413.995 44.0641 413.995 66.0641C413.995 88.0641 429.835 102.672 449.899 102.672ZM592.65 127.664L569.418 87.1841H556.042V127.664H527.882V4.46405H577.162C600.57 4.46405 619.402 23.2961 619.402 46.7041C619.402 61.8401 610.25 75.5681 596.698 82.4321L622.922 127.664H592.65ZM556.042 30.8641V62.5441H577.162C584.906 62.5441 591.242 55.6801 591.242 46.7041C591.242 37.7281 584.906 30.8641 577.162 30.8641H556.042ZM757.427 4.46405V127.664H729.267V56.0321L697.411 108.304H694.243L662.387 56.0321V127.664H634.227V4.46405H662.387L695.827 59.2001L729.267 4.46405H757.427ZM854.986 127.664L848.826 108.304H803.066L796.906 127.664H766.106L807.994 4.46405H843.898L885.786 127.664H854.986ZM811.514 81.9041H840.378L825.946 36.6721L811.514 81.9041ZM962.995 4.46405H991.155V127.664H970.035L922.515 60.7841V127.664H894.355V4.46405H915.475L962.995 71.3441V4.46405ZM1069.11 130.128C1031.97 130.128 1005.05 102.32 1005.05 66.0641C1005.05 29.8081 1031.97 2.00005 1069.11 2.00005C1091.46 2.00005 1111.17 13.0881 1121.91 30.5121L1097.62 44.5921C1092.17 35.0881 1081.61 29.4561 1069.11 29.4561C1047.29 29.4561 1033.21 44.0641 1033.21 66.0641C1033.21 88.0641 1047.29 102.672 1069.11 102.672C1081.61 102.672 1092.34 97.0401 1097.62 87.5361L1121.91 101.616C1111.35 119.04 1091.64 130.128 1069.11 130.128ZM1161.33 100.56H1210.61V127.664H1133.17V4.46405H1209.73V31.5681H1161.33V51.9841H1205.33V78.7361H1161.33V100.56ZM1313.27 4.46405C1337.55 4.46405 1356.39 23.2961 1356.39 46.7041C1356.39 70.1121 1337.55 88.9441 1313.27 88.9441H1294.79V127.664H1266.63V4.46405H1313.27ZM1313.27 62.5441C1321.89 62.5441 1328.23 55.6801 1328.23 46.7041C1328.23 37.7281 1321.89 30.8641 1313.27 30.8641H1294.79V62.5441H1313.27ZM1396.66 100.56H1445.94V127.664H1368.5V4.46405H1445.06V31.5681H1396.66V51.9841H1440.66V78.7361H1396.66V100.56ZM1524.66 127.664L1501.43 87.1841H1488.06V127.664H1459.9V4.46405H1509.18C1532.58 4.46405 1551.42 23.2961 1551.42 46.7041C1551.42 61.8401 1542.26 75.5681 1528.71 82.4321L1554.94 127.664H1524.66ZM1488.06 30.8641V62.5441H1509.18C1516.92 62.5441 1523.26 55.6801 1523.26 46.7041C1523.26 37.7281 1516.92 30.8641 1509.18 30.8641H1488.06ZM1641.04 31.5681H1594.4V55.3281H1640.16V82.4321H1594.4V127.664H1566.24V4.46405H1641.04V31.5681ZM1714.53 130.128C1679.15 130.128 1650.46 102.32 1650.46 66.0641C1650.46 29.8081 1679.15 2.00005 1714.53 2.00005C1749.9 2.00005 1778.59 29.8081 1778.59 66.0641C1778.59 102.32 1749.9 130.128 1714.53 130.128ZM1714.53 102.672C1734.59 102.672 1750.43 88.0641 1750.43 66.0641C1750.43 44.0641 1734.59 29.4561 1714.53 29.4561C1694.46 29.4561 1678.62 44.0641 1678.62 66.0641C1678.62 88.0641 1694.46 102.672 1714.53 102.672ZM1857.28 127.664L1834.05 87.1841H1820.67V127.664H1792.51V4.46405H1841.79C1865.2 4.46405 1884.03 23.2961 1884.03 46.7041C1884.03 61.8401 1874.88 75.5681 1861.33 82.4321L1887.55 127.664H1857.28ZM1820.67 30.8641V62.5441H1841.79C1849.53 62.5441 1855.87 55.6801 1855.87 46.7041C1855.87 37.7281 1849.53 30.8641 1841.79 30.8641H1820.67ZM2022.05 4.46405V127.664H1993.89V56.0321L1962.04 108.304H1958.87L1927.01 56.0321V127.664H1898.85V4.46405H1927.01L1960.45 59.2001L1993.89 4.46405H2022.05ZM2119.61 127.664L2113.45 108.304H2067.69L2061.53 127.664H2030.73L2072.62 4.46405H2108.53L2150.41 127.664H2119.61ZM2076.14 81.9041H2105.01L2090.57 36.6721L2076.14 81.9041ZM2227.62 4.46405H2255.78V127.664H2234.66L2187.14 60.7841V127.664H2158.98V4.46405H2180.1L2227.62 71.3441V4.46405ZM2333.74 130.128C2296.6 130.128 2269.67 102.32 2269.67 66.0641C2269.67 29.8081 2296.6 2.00005 2333.74 2.00005C2356.09 2.00005 2375.8 13.0881 2386.54 30.5121L2362.25 44.5921C2356.79 35.0881 2346.23 29.4561 2333.74 29.4561C2311.91 29.4561 2297.83 44.0641 2297.83 66.0641C2297.83 88.0641 2311.91 102.672 2333.74 102.672C2346.23 102.672 2356.97 97.0401 2362.25 87.5361L2386.54 101.616C2375.98 119.04 2356.26 130.128 2333.74 130.128ZM2425.96 100.56H2475.24V127.664H2397.8V4.46405H2474.36V31.5681H2425.96V51.9841H2469.96V78.7361H2425.96V100.56Z"/>
</mask>
<path d="M30.1595 88.9441V86.9441L28.1595 88.9441H30.1595ZM30.1595 127.664V129.664L32.1595 127.664H30.1595ZM1.99945 127.664H-0.000546455L1.99945 129.664V127.664ZM1.99945 4.46405V2.46405L-0.000546455 4.46405H1.99945ZM30.1595 30.8641V28.8641L28.1595 30.8641H30.1595ZM30.1595 62.5441H28.1595L30.1595 64.5441V62.5441ZM48.6395 4.46405V6.46405C71.85 6.46405 89.7595 24.4275 89.7595 46.7041H91.7595H93.7595C93.7595 22.1646 74.005 2.46405 48.6395 2.46405V4.46405ZM91.7595 46.7041H89.7595C89.7595 68.9806 71.85 86.9441 48.6395 86.9441V88.9441V90.9441C74.005 90.9441 93.7595 71.2435 93.7595 46.7041H91.7595ZM48.6395 88.9441V86.9441H30.1595V88.9441V90.9441H48.6395V88.9441ZM30.1595 88.9441H28.1595V127.664H30.1595H32.1595V88.9441H30.1595ZM30.1595 127.664V125.664H1.99945V127.664V129.664H30.1595V127.664ZM1.99945 127.664H3.99945V4.46405H1.99945H-0.000546455V127.664H1.99945ZM1.99945 4.46405V6.46405H48.6395V4.46405V2.46405H1.99945V4.46405ZM48.6395 62.5441V64.5441C58.4867 64.5441 65.5995 56.6621 65.5995 46.7041H63.5995H61.5995C61.5995 54.698 56.0402 60.5441 48.6395 60.5441V62.5441ZM63.5995 46.7041H65.5995C65.5995 36.746 58.4867 28.8641 48.6395 28.8641V30.8641V32.8641C56.0402 32.8641 61.5995 38.7101 61.5995 46.7041H63.5995ZM48.6395 30.8641V28.8641H30.1595V30.8641V32.8641H48.6395V30.8641ZM30.1595 30.8641H28.1595V62.5441H30.1595H32.1595V30.8641H30.1595ZM30.1595 62.5441V64.5441H48.6395V62.5441V60.5441H30.1595V62.5441ZM132.036 100.56H130.036L132.036 102.56V100.56ZM181.316 100.56H183.316L181.316 98.5601V100.56ZM181.316 127.664V129.664L183.316 127.664H181.316ZM103.876 127.664H101.876L103.876 129.664V127.664ZM103.876 4.46405V2.46405L101.876 4.46405H103.876ZM180.436 4.46405H182.436L180.436 2.46405V4.46405ZM180.436 31.5681V33.5681L182.436 31.5681H180.436ZM132.036 31.5681V29.5681L130.036 31.5681H132.036ZM132.036 51.9841H130.036L132.036 53.9841V51.9841ZM176.036 51.9841H178.036L176.036 49.9841V51.9841ZM176.036 78.7361V80.7361L178.036 78.7361H176.036ZM132.036 78.7361V76.7361L130.036 78.7361H132.036ZM132.036 100.56V102.56H181.316V100.56V98.5601H132.036V100.56ZM181.316 100.56H179.316V127.664H181.316H183.316V100.56H181.316ZM181.316 127.664V125.664H103.876V127.664V129.664H181.316V127.664ZM103.876 127.664H105.876V4.46405H103.876H101.876V127.664H103.876ZM103.876 4.46405V6.46405H180.436V4.46405V2.46405H103.876V4.46405ZM180.436 4.46405H178.436V31.5681H180.436H182.436V4.46405H180.436ZM180.436 31.5681V29.5681H132.036V31.5681V33.5681H180.436V31.5681ZM132.036 31.5681H130.036V51.9841H132.036H134.036V31.5681H132.036ZM132.036 51.9841V53.9841H176.036V51.9841V49.9841H132.036V51.9841ZM176.036 51.9841H174.036V78.7361H176.036H178.036V51.9841H176.036ZM176.036 78.7361V76.7361H132.036V78.7361V80.7361H176.036V78.7361ZM132.036 78.7361H130.036V100.56H132.036H134.036V78.7361H132.036ZM260.036 127.664L258.301 128.66L260.036 129.664V127.664ZM236.804 87.1841L238.539 86.1885L236.804 85.1841V87.1841ZM223.428 87.1841V85.1841L221.428 87.1841H223.428ZM223.428 127.664V129.664L225.428 127.664H223.428ZM195.268 127.664H193.268L195.268 129.664V127.664ZM195.268 4.46405V2.46405L193.268 4.46405H195.268ZM264.084 82.4321L263.18 80.6479L262.354 83.4352L264.084 82.4321ZM290.308 127.664V129.664L292.038 126.661L290.308 127.664ZM223.428 30.8641V28.8641L221.428 30.8641H223.428ZM223.428 62.5441H221.428L223.428 64.5441V62.5441ZM260.036 127.664L261.771 126.669L238.539 86.1885L236.804 87.1841L235.069 88.1796L258.301 128.66L260.036 127.664ZM236.804 87.1841V85.1841H223.428V87.1841V89.1841H236.804V87.1841ZM223.428 87.1841H221.428V127.664H223.428H225.428V87.1841H223.428ZM223.428 127.664V125.664H195.268V127.664V129.664H223.428V127.664ZM195.268 127.664H197.268V4.46405H195.268H193.268V127.664H195.268ZM195.268 4.46405V6.46405H244.548V4.46405V2.46405H195.268V4.46405ZM244.548 4.46405V6.46405C266.852 6.46405 284.788 24.4006 284.788 46.7041H286.788H288.788C288.788 22.1915 269.061 2.46405 244.548 2.46405V4.46405ZM286.788 46.7041H284.788C284.788 61.0209 276.12 74.0939 263.18 80.6479L264.084 82.4321L264.988 84.2163C279.152 77.0422 288.788 62.6592 288.788 46.7041H286.788ZM264.084 82.4321L262.354 83.4352L288.578 128.667L290.308 127.664L292.038 126.661L265.814 81.4289L264.084 82.4321ZM290.308 127.664V125.664H260.036V127.664V129.664H290.308V127.664ZM223.428 30.8641H221.428V62.5441H223.428H225.428V30.8641H223.428ZM223.428 62.5441V64.5441H244.548V62.5441V60.5441H223.428V62.5441ZM244.548 62.5441V64.5441C253.591 64.5441 260.628 56.5795 260.628 46.7041H258.628H256.628C256.628 54.7806 250.993 60.5441 244.548 60.5441V62.5441ZM258.628 46.7041H260.628C260.628 36.8286 253.591 28.8641 244.548 28.8641V30.8641V32.8641C250.993 32.8641 256.628 38.6275 256.628 46.7041H258.628ZM244.548 30.8641V28.8641H223.428V30.8641V32.8641H244.548V30.8641ZM376.413 31.5681V33.5681L378.413 31.5681H376.413ZM329.773 31.5681V29.5681L327.773 31.5681H329.773ZM329.773 55.3281H327.773L329.773 57.3281V55.3281ZM375.533 55.3281H377.533L375.533 53.3281V55.3281ZM375.533 82.4321V84.4321L377.533 82.4321H375.533ZM329.773 82.4321V80.4321L327.773 82.4321H329.773ZM329.773 127.664V129.664L331.773 127.664H329.773ZM301.613 127.664H299.613L301.613 129.664V127.664ZM301.613 4.46405V2.46405L299.613 4.46405H301.613ZM376.413 4.46405H378.413L376.413 2.46405V4.46405ZM376.413 31.5681V29.5681H329.773V31.5681V33.5681H376.413V31.5681ZM329.773 31.5681H327.773V55.3281H329.773H331.773V31.5681H329.773ZM329.773 55.3281V57.3281H375.533V55.3281V53.3281H329.773V55.3281ZM375.533 55.3281H373.533V82.4321H375.533H377.533V55.3281H375.533ZM375.533 82.4321V80.4321H329.773V82.4321V84.4321H375.533V82.4321ZM329.773 82.4321H327.773V127.664H329.773H331.773V82.4321H329.773ZM329.773 127.664V125.664H301.613V127.664V129.664H329.773V127.664ZM301.613 127.664H303.613V4.46405H301.613H299.613V127.664H301.613ZM301.613 4.46405V6.46405H376.413V4.46405V2.46405H301.613V4.46405ZM376.413 4.46405H374.413V31.5681H376.413H378.413V4.46405H376.413ZM449.899 130.128V128.128C415.609 128.128 387.835 101.198 387.835 66.0641H385.835H383.835C383.835 103.443 413.436 132.128 449.899 132.128V130.128ZM385.835 66.0641H387.835C387.835 30.9306 415.609 4.00005 449.899 4.00005V2.00005V5.34058e-05C413.436 5.34058e-05 383.835 28.6856 383.835 66.0641H385.835ZM449.899 2.00005V4.00005C484.188 4.00005 511.963 30.9306 511.963 66.0641H513.963H515.963C515.963 28.6856 486.361 5.34058e-05 449.899 5.34058e-05V2.00005ZM513.963 66.0641H511.963C511.963 101.198 484.188 128.128 449.899 128.128V130.128V132.128C486.361 132.128 515.963 103.443 515.963 66.0641H513.963ZM449.899 102.672V104.672C471.048 104.672 487.803 89.1879 487.803 66.0641H485.803H483.803C483.803 86.9402 468.878 100.672 449.899 100.672V102.672ZM485.803 66.0641H487.803C487.803 42.9402 471.048 27.4561 449.899 27.4561V29.4561V31.4561C468.878 31.4561 483.803 45.1879 483.803 66.0641H485.803ZM449.899 29.4561V27.4561C428.75 27.4561 411.995 42.9402 411.995 66.0641H413.995H415.995C415.995 45.1879 430.92 31.4561 449.899 31.4561V29.4561ZM413.995 66.0641H411.995C411.995 89.1879 428.75 104.672 449.899 104.672V102.672V100.672C430.92 100.672 415.995 86.9402 415.995 66.0641H413.995ZM592.65 127.664L590.915 128.66L592.65 129.664V127.664ZM569.418 87.1841L571.153 86.1885L569.418 85.1841V87.1841ZM556.042 87.1841V85.1841L554.042 87.1841H556.042ZM556.042 127.664V129.664L558.042 127.664H556.042ZM527.882 127.664H525.882L527.882 129.664V127.664ZM527.882 4.46405V2.46405L525.882 4.46405H527.882ZM596.698 82.4321L595.794 80.6479L594.968 83.4352L596.698 82.4321ZM622.922 127.664V129.664L624.652 126.661L622.922 127.664ZM556.042 30.8641V28.8641L554.042 30.8641H556.042ZM556.042 62.5441H554.042L556.042 64.5441V62.5441ZM592.65 127.664L594.385 126.669L571.153 86.1885L569.418 87.1841L567.683 88.1796L590.915 128.66L592.65 127.664ZM569.418 87.1841V85.1841H556.042V87.1841V89.1841H569.418V87.1841ZM556.042 87.1841H554.042V127.664H556.042H558.042V87.1841H556.042ZM556.042 127.664V125.664H527.882V127.664V129.664H556.042V127.664ZM527.882 127.664H529.882V4.46405H527.882H525.882V127.664H527.882ZM527.882 4.46405V6.46405H577.162V4.46405V2.46405H527.882V4.46405ZM577.162 4.46405V6.46405C599.465 6.46405 617.402 24.4006 617.402 46.7041H619.402H621.402C621.402 22.1915 601.675 2.46405 577.162 2.46405V4.46405ZM619.402 46.7041H617.402C617.402 61.0209 608.734 74.0939 595.794 80.6479L596.698 82.4321L597.602 84.2163C611.766 77.0422 621.402 62.6592 621.402 46.7041H619.402ZM596.698 82.4321L594.968 83.4352L621.192 128.667L622.922 127.664L624.652 126.661L598.428 81.4289L596.698 82.4321ZM622.922 127.664V125.664H592.65V127.664V129.664H622.922V127.664ZM556.042 30.8641H554.042V62.5441H556.042H558.042V30.8641H556.042ZM556.042 62.5441V64.5441H577.162V62.5441V60.5441H556.042V62.5441ZM577.162 62.5441V64.5441C586.205 64.5441 593.242 56.5795 593.242 46.7041H591.242H589.242C589.242 54.7806 583.607 60.5441 577.162 60.5441V62.5441ZM591.242 46.7041H593.242C593.242 36.8286 586.205 28.8641 577.162 28.8641V30.8641V32.8641C583.607 32.8641 589.242 38.6275 589.242 46.7041H591.242ZM577.162 30.8641V28.8641H556.042V30.8641V32.8641H577.162V30.8641ZM757.427 4.46405H759.427L757.427 2.46405V4.46405ZM757.427 127.664V129.664L759.427 127.664H757.427ZM729.267 127.664H727.267L729.267 129.664V127.664ZM729.267 56.0321H731.267L727.559 54.9913L729.267 56.0321ZM697.411 108.304V110.304L699.119 109.345L697.411 108.304ZM694.243 108.304L692.535 109.345L694.243 110.304V108.304ZM662.387 56.0321L664.095 54.9913L660.387 56.0321H662.387ZM662.387 127.664V129.664L664.387 127.664H662.387ZM634.227 127.664H632.227L634.227 129.664V127.664ZM634.227 4.46405V2.46405L632.227 4.46405H634.227ZM662.387 4.46405L664.094 3.42138L662.387 2.46405V4.46405ZM695.827 59.2001L694.12 60.2427H697.534L695.827 59.2001ZM729.267 4.46405V2.46405L727.56 3.42138L729.267 4.46405ZM757.427 4.46405H755.427V127.664H757.427H759.427V4.46405H757.427ZM757.427 127.664V125.664H729.267V127.664V129.664H757.427V127.664ZM729.267 127.664H731.267V56.0321H729.267H727.267V127.664H729.267ZM729.267 56.0321L727.559 54.9913L695.703 107.263L697.411 108.304L699.119 109.345L730.975 57.0729L729.267 56.0321ZM697.411 108.304V106.304H694.243V108.304V110.304H697.411V108.304ZM694.243 108.304L695.951 107.263L664.095 54.9913L662.387 56.0321L660.679 57.0729L692.535 109.345L694.243 108.304ZM662.387 56.0321H660.387V127.664H662.387H664.387V56.0321H662.387ZM662.387 127.664V125.664H634.227V127.664V129.664H662.387V127.664ZM634.227 127.664H636.227V4.46405H634.227H632.227V127.664H634.227ZM634.227 4.46405V6.46405H662.387V4.46405V2.46405H634.227V4.46405ZM662.387 4.46405L660.68 5.50673L694.12 60.2427L695.827 59.2001L697.534 58.1574L664.094 3.42138L662.387 4.46405ZM695.827 59.2001L697.534 60.2427L730.974 5.50673L729.267 4.46405L727.56 3.42138L694.12 58.1574L695.827 59.2001ZM729.267 4.46405V6.46405H757.427V4.46405V2.46405H729.267V4.46405ZM854.986 127.664L853.08 128.27L854.986 129.664V127.664ZM848.826 108.304L850.732 107.698L848.826 106.304V108.304ZM803.066 108.304V106.304L801.16 107.698L803.066 108.304ZM796.906 127.664V129.664L798.812 128.27L796.906 127.664ZM766.106 127.664L764.213 127.02L766.106 129.664V127.664ZM807.994 4.46405V2.46405L806.101 3.82025L807.994 4.46405ZM843.898 4.46405L845.792 3.82025L843.898 2.46405V4.46405ZM885.786 127.664V129.664L887.68 127.02L885.786 127.664ZM811.514 81.9041L809.609 81.2961L811.514 83.9041V81.9041ZM840.378 81.9041V83.9041L842.284 81.2961L840.378 81.9041ZM825.946 36.6721L827.852 36.0641H824.041L825.946 36.6721ZM854.986 127.664L856.892 127.058L850.732 107.698L848.826 108.304L846.92 108.91L853.08 128.27L854.986 127.664ZM848.826 108.304V106.304H803.066V108.304V110.304H848.826V108.304ZM803.066 108.304L801.16 107.698L795 127.058L796.906 127.664L798.812 128.27L804.972 108.91L803.066 108.304ZM796.906 127.664V125.664H766.106V127.664V129.664H796.906V127.664ZM766.106 127.664L768 128.308L809.888 5.10786L807.994 4.46405L806.101 3.82025L764.213 127.02L766.106 127.664ZM807.994 4.46405V6.46405H843.898V4.46405V2.46405H807.994V4.46405ZM843.898 4.46405L842.005 5.10786L883.893 128.308L885.786 127.664L887.68 127.02L845.792 3.82025L843.898 4.46405ZM885.786 127.664V125.664H854.986V127.664V129.664H885.786V127.664ZM811.514 81.9041V83.9041H840.378V81.9041V79.9041H811.514V81.9041ZM840.378 81.9041L842.284 81.2961L827.852 36.0641L825.946 36.6721L824.041 37.28L838.473 82.512L840.378 81.9041ZM825.946 36.6721L824.041 36.0641L809.609 81.2961L811.514 81.9041L813.42 82.512L827.852 37.28L825.946 36.6721ZM962.995 4.46405V2.46405L960.995 4.46405H962.995ZM991.155 4.46405H993.155L991.155 2.46405V4.46405ZM991.155 127.664V129.664L993.155 127.664H991.155ZM970.035 127.664L968.405 128.822L970.035 129.664V127.664ZM922.515 60.7841L924.146 59.6256L920.515 60.7841H922.515ZM922.515 127.664V129.664L924.515 127.664H922.515ZM894.355 127.664H892.355L894.355 129.664V127.664ZM894.355 4.46405V2.46405L892.355 4.46405H894.355ZM915.475 4.46405L917.106 3.30564L915.475 2.46405V4.46405ZM962.995 71.3441L961.365 72.5025L964.995 71.3441H962.995ZM962.995 4.46405V6.46405H991.155V4.46405V2.46405H962.995V4.46405ZM991.155 4.46405H989.155V127.664H991.155H993.155V4.46405H991.155ZM991.155 127.664V125.664H970.035V127.664V129.664H991.155V127.664ZM970.035 127.664L971.666 126.506L924.146 59.6256L922.515 60.7841L920.885 61.9425L968.405 128.822L970.035 127.664ZM922.515 60.7841H920.515V127.664H922.515H924.515V60.7841H922.515ZM922.515 127.664V125.664H894.355V127.664V129.664H922.515V127.664ZM894.355 127.664H896.355V4.46405H894.355H892.355V127.664H894.355ZM894.355 4.46405V6.46405H915.475V4.46405V2.46405H894.355V4.46405ZM915.475 4.46405L913.845 5.62247L961.365 72.5025L962.995 71.3441L964.626 70.1856L917.106 3.30564L915.475 4.46405ZM962.995 71.3441H964.995V4.46405H962.995H960.995V71.3441H962.995ZM1121.91 30.5121L1122.91 32.2423L1123.61 29.4629L1121.91 30.5121ZM1097.62 44.5921L1095.89 45.5878L1098.62 46.3223L1097.62 44.5921ZM1097.62 87.5361L1098.62 85.8058L1095.87 86.5648L1097.62 87.5361ZM1121.91 101.616L1123.62 102.653L1122.91 99.8858L1121.91 101.616ZM1069.11 130.128V128.128C1033.1 128.128 1007.05 101.234 1007.05 66.0641H1005.05H1003.05C1003.05 103.406 1030.85 132.128 1069.11 132.128V130.128ZM1005.05 66.0641H1007.05C1007.05 30.8944 1033.1 4.00005 1069.11 4.00005V2.00005V5.34058e-05C1030.85 5.34058e-05 1003.05 28.7217 1003.05 66.0641H1005.05ZM1069.11 2.00005V4.00005C1090.8 4.00005 1109.85 14.7525 1120.21 31.5612L1121.91 30.5121L1123.61 29.4629C1112.5 11.4236 1092.13 5.34058e-05 1069.11 5.34058e-05V2.00005ZM1121.91 30.5121L1120.91 28.7818L1096.62 42.8618L1097.62 44.5921L1098.62 46.3223L1122.91 32.2423L1121.91 30.5121ZM1097.62 44.5921L1099.36 43.5963C1093.49 33.3772 1082.21 27.4561 1069.11 27.4561V29.4561V31.4561C1081 31.4561 1090.84 36.7989 1095.89 45.5878L1097.62 44.5921ZM1069.11 29.4561V27.4561C1057.74 27.4561 1048.22 31.2721 1041.54 38.1132C1034.87 44.9489 1031.21 54.6327 1031.21 66.0641H1033.21H1035.21C1035.21 55.4955 1038.58 46.8752 1044.4 40.907C1050.22 34.944 1058.66 31.4561 1069.11 31.4561V29.4561ZM1033.21 66.0641H1031.21C1031.21 77.4955 1034.87 87.1792 1041.54 94.015C1048.22 100.856 1057.74 104.672 1069.11 104.672V102.672V100.672C1058.66 100.672 1050.22 97.1841 1044.4 91.2212C1038.58 85.2529 1035.21 76.6327 1035.21 66.0641H1033.21ZM1069.11 102.672V104.672C1082.19 104.672 1093.67 98.7637 1099.37 88.5073L1097.62 87.5361L1095.87 86.5648C1091.01 95.3164 1081.02 100.672 1069.11 100.672V102.672ZM1097.62 87.5361L1096.62 89.2663L1120.91 103.346L1121.91 101.616L1122.91 99.8858L1098.62 85.8058L1097.62 87.5361ZM1121.91 101.616L1120.2 100.579C1110.02 117.371 1090.98 128.128 1069.11 128.128V130.128V132.128C1092.3 132.128 1112.68 120.709 1123.62 102.653L1121.91 101.616ZM1161.33 100.56H1159.33L1161.33 102.56V100.56ZM1210.61 100.56H1212.61L1210.61 98.5601V100.56ZM1210.61 127.664V129.664L1212.61 127.664H1210.61ZM1133.17 127.664H1131.17L1133.17 129.664V127.664ZM1133.17 4.46405V2.46405L1131.17 4.46405H1133.17ZM1209.73 4.46405H1211.73L1209.73 2.46405V4.46405ZM1209.73 31.5681V33.5681L1211.73 31.5681H1209.73ZM1161.33 31.5681V29.5681L1159.33 31.5681H1161.33ZM1161.33 51.9841H1159.33L1161.33 53.9841V51.9841ZM1205.33 51.9841H1207.33L1205.33 49.9841V51.9841ZM1205.33 78.7361V80.7361L1207.33 78.7361H1205.33ZM1161.33 78.7361V76.7361L1159.33 78.7361H1161.33ZM1161.33 100.56V102.56H1210.61V100.56V98.5601H1161.33V100.56ZM1210.61 100.56H1208.61V127.664H1210.61H1212.61V100.56H1210.61ZM1210.61 127.664V125.664H1133.17V127.664V129.664H1210.61V127.664ZM1133.17 127.664H1135.17V4.46405H1133.17H1131.17V127.664H1133.17ZM1133.17 4.46405V6.46405H1209.73V4.46405V2.46405H1133.17V4.46405ZM1209.73 4.46405H1207.73V31.5681H1209.73H1211.73V4.46405H1209.73ZM1209.73 31.5681V29.5681H1161.33V31.5681V33.5681H1209.73V31.5681ZM1161.33 31.5681H1159.33V51.9841H1161.33H1163.33V31.5681H1161.33ZM1161.33 51.9841V53.9841H1205.33V51.9841V49.9841H1161.33V51.9841ZM1205.33 51.9841H1203.33V78.7361H1205.33H1207.33V51.9841H1205.33ZM1205.33 78.7361V76.7361H1161.33V78.7361V80.7361H1205.33V78.7361ZM1161.33 78.7361H1159.33V100.56H1161.33H1163.33V78.7361H1161.33ZM1294.79 88.9441V86.9441L1292.79 88.9441H1294.79ZM1294.79 127.664V129.664L1296.79 127.664H1294.79ZM1266.63 127.664H1264.63L1266.63 129.664V127.664ZM1266.63 4.46405V2.46405L1264.63 4.46405H1266.63ZM1294.79 30.8641V28.8641L1292.79 30.8641H1294.79ZM1294.79 62.5441H1292.79L1294.79 64.5441V62.5441ZM1313.27 4.46405V6.46405C1336.48 6.46405 1354.39 24.4275 1354.39 46.7041H1356.39H1358.39C1358.39 22.1646 1338.63 2.46405 1313.27 2.46405V4.46405ZM1356.39 46.7041H1354.39C1354.39 68.9806 1336.48 86.9441 1313.27 86.9441V88.9441V90.9441C1338.63 90.9441 1358.39 71.2435 1358.39 46.7041H1356.39ZM1313.27 88.9441V86.9441H1294.79V88.9441V90.9441H1313.27V88.9441ZM1294.79 88.9441H1292.79V127.664H1294.79H1296.79V88.9441H1294.79ZM1294.79 127.664V125.664H1266.63V127.664V129.664H1294.79V127.664ZM1266.63 127.664H1268.63V4.46405H1266.63H1264.63V127.664H1266.63ZM1266.63 4.46405V6.46405H1313.27V4.46405V2.46405H1266.63V4.46405ZM1313.27 62.5441V64.5441C1323.11 64.5441 1330.23 56.6621 1330.23 46.7041H1328.23H1326.23C1326.23 54.698 1320.67 60.5441 1313.27 60.5441V62.5441ZM1328.23 46.7041H1330.23C1330.23 36.746 1323.11 28.8641 1313.27 28.8641V30.8641V32.8641C1320.67 32.8641 1326.23 38.7101 1326.23 46.7041H1328.23ZM1313.27 30.8641V28.8641H1294.79V30.8641V32.8641H1313.27V30.8641ZM1294.79 30.8641H1292.79V62.5441H1294.79H1296.79V30.8641H1294.79ZM1294.79 62.5441V64.5441H1313.27V62.5441V60.5441H1294.79V62.5441ZM1396.66 100.56H1394.66L1396.66 102.56V100.56ZM1445.94 100.56H1447.94L1445.94 98.5601V100.56ZM1445.94 127.664V129.664L1447.94 127.664H1445.94ZM1368.5 127.664H1366.5L1368.5 129.664V127.664ZM1368.5 4.46405V2.46405L1366.5 4.46405H1368.5ZM1445.06 4.46405H1447.06L1445.06 2.46405V4.46405ZM1445.06 31.5681V33.5681L1447.06 31.5681H1445.06ZM1396.66 31.5681V29.5681L1394.66 31.5681H1396.66ZM1396.66 51.9841H1394.66L1396.66 53.9841V51.9841ZM1440.66 51.9841H1442.66L1440.66 49.9841V51.9841ZM1440.66 78.7361V80.7361L1442.66 78.7361H1440.66ZM1396.66 78.7361V76.7361L1394.66 78.7361H1396.66ZM1396.66 100.56V102.56H1445.94V100.56V98.5601H1396.66V100.56ZM1445.94 100.56H1443.94V127.664H1445.94H1447.94V100.56H1445.94ZM1445.94 127.664V125.664H1368.5V127.664V129.664H1445.94V127.664ZM1368.5 127.664H1370.5V4.46405H1368.5H1366.5V127.664H1368.5ZM1368.5 4.46405V6.46405H1445.06V4.46405V2.46405H1368.5V4.46405ZM1445.06 4.46405H1443.06V31.5681H1445.06H1447.06V4.46405H1445.06ZM1445.06 31.5681V29.5681H1396.66V31.5681V33.5681H1445.06V31.5681ZM1396.66 31.5681H1394.66V51.9841H1396.66H1398.66V31.5681H1396.66ZM1396.66 51.9841V53.9841H1440.66V51.9841V49.9841H1396.66V51.9841ZM1440.66 51.9841H1438.66V78.7361H1440.66H1442.66V51.9841H1440.66ZM1440.66 78.7361V76.7361H1396.66V78.7361V80.7361H1440.66V78.7361ZM1396.66 78.7361H1394.66V100.56H1396.66H1398.66V78.7361H1396.66ZM1524.66 127.664L1522.93 128.66L1524.66 129.664V127.664ZM1501.43 87.1841L1503.17 86.1885L1501.43 85.1841V87.1841ZM1488.06 87.1841V85.1841L1486.06 87.1841H1488.06ZM1488.06 127.664V129.664L1490.06 127.664H1488.06ZM1459.9 127.664H1457.9L1459.9 129.664V127.664ZM1459.9 4.46405V2.46405L1457.9 4.46405H1459.9ZM1528.71 82.4321L1527.81 80.6479L1526.98 83.4352L1528.71 82.4321ZM1554.94 127.664V129.664L1556.67 126.661L1554.94 127.664ZM1488.06 30.8641V28.8641L1486.06 30.8641H1488.06ZM1488.06 62.5441H1486.06L1488.06 64.5441V62.5441ZM1524.66 127.664L1526.4 126.669L1503.17 86.1885L1501.43 87.1841L1499.7 88.1796L1522.93 128.66L1524.66 127.664ZM1501.43 87.1841V85.1841H1488.06V87.1841V89.1841H1501.43V87.1841ZM1488.06 87.1841H1486.06V127.664H1488.06H1490.06V87.1841H1488.06ZM1488.06 127.664V125.664H1459.9V127.664V129.664H1488.06V127.664ZM1459.9 127.664H1461.9V4.46405H1459.9H1457.9V127.664H1459.9ZM1459.9 4.46405V6.46405H1509.18V4.46405V2.46405H1459.9V4.46405ZM1509.18 4.46405V6.46405C1531.48 6.46405 1549.42 24.4006 1549.42 46.7041H1551.42H1553.42C1553.42 22.1915 1533.69 2.46405 1509.18 2.46405V4.46405ZM1551.42 46.7041H1549.42C1549.42 61.0209 1540.75 74.0939 1527.81 80.6479L1528.71 82.4321L1529.62 84.2163C1543.78 77.0422 1553.42 62.6592 1553.42 46.7041H1551.42ZM1528.71 82.4321L1526.98 83.4352L1553.21 128.667L1554.94 127.664L1556.67 126.661L1530.44 81.4289L1528.71 82.4321ZM1554.94 127.664V125.664H1524.66V127.664V129.664H1554.94V127.664ZM1488.06 30.8641H1486.06V62.5441H1488.06H1490.06V30.8641H1488.06ZM1488.06 62.5441V64.5441H1509.18V62.5441V60.5441H1488.06V62.5441ZM1509.18 62.5441V64.5441C1518.22 64.5441 1525.26 56.5795 1525.26 46.7041H1523.26H1521.26C1521.26 54.7806 1515.62 60.5441 1509.18 60.5441V62.5441ZM1523.26 46.7041H1525.26C1525.26 36.8286 1518.22 28.8641 1509.18 28.8641V30.8641V32.8641C1515.62 32.8641 1521.26 38.6275 1521.26 46.7041H1523.26ZM1509.18 30.8641V28.8641H1488.06V30.8641V32.8641H1509.18V30.8641ZM1641.04 31.5681V33.5681L1643.04 31.5681H1641.04ZM1594.4 31.5681V29.5681L1592.4 31.5681H1594.4ZM1594.4 55.3281H1592.4L1594.4 57.3281V55.3281ZM1640.16 55.3281H1642.16L1640.16 53.3281V55.3281ZM1640.16 82.4321V84.4321L1642.16 82.4321H1640.16ZM1594.4 82.4321V80.4321L1592.4 82.4321H1594.4ZM1594.4 127.664V129.664L1596.4 127.664H1594.4ZM1566.24 127.664H1564.24L1566.24 129.664V127.664ZM1566.24 4.46405V2.46405L1564.24 4.46405H1566.24ZM1641.04 4.46405H1643.04L1641.04 2.46405V4.46405ZM1641.04 31.5681V29.5681H1594.4V31.5681V33.5681H1641.04V31.5681ZM1594.4 31.5681H1592.4V55.3281H1594.4H1596.4V31.5681H1594.4ZM1594.4 55.3281V57.3281H1640.16V55.3281V53.3281H1594.4V55.3281ZM1640.16 55.3281H1638.16V82.4321H1640.16H1642.16V55.3281H1640.16ZM1640.16 82.4321V80.4321H1594.4V82.4321V84.4321H1640.16V82.4321ZM1594.4 82.4321H1592.4V127.664H1594.4H1596.4V82.4321H1594.4ZM1594.4 127.664V125.664H1566.24V127.664V129.664H1594.4V127.664ZM1566.24 127.664H1568.24V4.46405H1566.24H1564.24V127.664H1566.24ZM1566.24 4.46405V6.46405H1641.04V4.46405V2.46405H1566.24V4.46405ZM1641.04 4.46405H1639.04V31.5681H1641.04H1643.04V4.46405H1641.04ZM1714.53 130.128V128.128C1680.24 128.128 1652.46 101.198 1652.46 66.0641H1650.46H1648.46C1648.46 103.443 1678.06 132.128 1714.53 132.128V130.128ZM1650.46 66.0641H1652.46C1652.46 30.9306 1680.24 4.00005 1714.53 4.00005V2.00005V5.34058e-05C1678.06 5.34058e-05 1648.46 28.6856 1648.46 66.0641H1650.46ZM1714.53 2.00005V4.00005C1748.82 4.00005 1776.59 30.9306 1776.59 66.0641H1778.59H1780.59C1780.59 28.6856 1750.99 5.34058e-05 1714.53 5.34058e-05V2.00005ZM1778.59 66.0641H1776.59C1776.59 101.198 1748.82 128.128 1714.53 128.128V130.128V132.128C1750.99 132.128 1780.59 103.443 1780.59 66.0641H1778.59ZM1714.53 102.672V104.672C1735.68 104.672 1752.43 89.1879 1752.43 66.0641H1750.43H1748.43C1748.43 86.9402 1733.51 100.672 1714.53 100.672V102.672ZM1750.43 66.0641H1752.43C1752.43 42.9402 1735.68 27.4561 1714.53 27.4561V29.4561V31.4561C1733.51 31.4561 1748.43 45.1879 1748.43 66.0641H1750.43ZM1714.53 29.4561V27.4561C1693.38 27.4561 1676.62 42.9402 1676.62 66.0641H1678.62H1680.62C1680.62 45.1879 1695.55 31.4561 1714.53 31.4561V29.4561ZM1678.62 66.0641H1676.62C1676.62 89.1879 1693.38 104.672 1714.53 104.672V102.672V100.672C1695.55 100.672 1680.62 86.9402 1680.62 66.0641H1678.62ZM1857.28 127.664L1855.54 128.66L1857.28 129.664V127.664ZM1834.05 87.1841L1835.78 86.1885L1834.05 85.1841V87.1841ZM1820.67 87.1841V85.1841L1818.67 87.1841H1820.67ZM1820.67 127.664V129.664L1822.67 127.664H1820.67ZM1792.51 127.664H1790.51L1792.51 129.664V127.664ZM1792.51 4.46405V2.46405L1790.51 4.46405H1792.51ZM1861.33 82.4321L1860.42 80.6479L1859.6 83.4352L1861.33 82.4321ZM1887.55 127.664V129.664L1889.28 126.661L1887.55 127.664ZM1820.67 30.8641V28.8641L1818.67 30.8641H1820.67ZM1820.67 62.5441H1818.67L1820.67 64.5441V62.5441ZM1857.28 127.664L1859.01 126.669L1835.78 86.1885L1834.05 87.1841L1832.31 88.1796L1855.54 128.66L1857.28 127.664ZM1834.05 87.1841V85.1841H1820.67V87.1841V89.1841H1834.05V87.1841ZM1820.67 87.1841H1818.67V127.664H1820.67H1822.67V87.1841H1820.67ZM1820.67 127.664V125.664H1792.51V127.664V129.664H1820.67V127.664ZM1792.51 127.664H1794.51V4.46405H1792.51H1790.51V127.664H1792.51ZM1792.51 4.46405V6.46405H1841.79V4.46405V2.46405H1792.51V4.46405ZM1841.79 4.46405V6.46405C1864.09 6.46405 1882.03 24.4006 1882.03 46.7041H1884.03H1886.03C1886.03 22.1915 1866.3 2.46405 1841.79 2.46405V4.46405ZM1884.03 46.7041H1882.03C1882.03 61.0209 1873.36 74.0939 1860.42 80.6479L1861.33 82.4321L1862.23 84.2163C1876.39 77.0422 1886.03 62.6592 1886.03 46.7041H1884.03ZM1861.33 82.4321L1859.6 83.4352L1885.82 128.667L1887.55 127.664L1889.28 126.661L1863.06 81.4289L1861.33 82.4321ZM1887.55 127.664V125.664H1857.28V127.664V129.664H1887.55V127.664ZM1820.67 30.8641H1818.67V62.5441H1820.67H1822.67V30.8641H1820.67ZM1820.67 62.5441V64.5441H1841.79V62.5441V60.5441H1820.67V62.5441ZM1841.79 62.5441V64.5441C1850.83 64.5441 1857.87 56.5795 1857.87 46.7041H1855.87H1853.87C1853.87 54.7806 1848.23 60.5441 1841.79 60.5441V62.5441ZM1855.87 46.7041H1857.87C1857.87 36.8286 1850.83 28.8641 1841.79 28.8641V30.8641V32.8641C1848.23 32.8641 1853.87 38.6275 1853.87 46.7041H1855.87ZM1841.79 30.8641V28.8641H1820.67V30.8641V32.8641H1841.79V30.8641ZM2022.05 4.46405H2024.05L2022.05 2.46405V4.46405ZM2022.05 127.664V129.664L2024.05 127.664H2022.05ZM1993.89 127.664H1991.89L1993.89 129.664V127.664ZM1993.89 56.0321H1995.89L1992.19 54.9913L1993.89 56.0321ZM1962.04 108.304V110.304L1963.75 109.345L1962.04 108.304ZM1958.87 108.304L1957.16 109.345L1958.87 110.304V108.304ZM1927.01 56.0321L1928.72 54.9913L1925.01 56.0321H1927.01ZM1927.01 127.664V129.664L1929.01 127.664H1927.01ZM1898.85 127.664H1896.85L1898.85 129.664V127.664ZM1898.85 4.46405V2.46405L1896.85 4.46405H1898.85ZM1927.01 4.46405L1928.72 3.42138L1927.01 2.46405V4.46405ZM1960.45 59.2001L1958.75 60.2427H1962.16L1960.45 59.2001ZM1993.89 4.46405V2.46405L1992.19 3.42138L1993.89 4.46405ZM2022.05 4.46405H2020.05V127.664H2022.05H2024.05V4.46405H2022.05ZM2022.05 127.664V125.664H1993.89V127.664V129.664H2022.05V127.664ZM1993.89 127.664H1995.89V56.0321H1993.89H1991.89V127.664H1993.89ZM1993.89 56.0321L1992.19 54.9913L1960.33 107.263L1962.04 108.304L1963.75 109.345L1995.6 57.0729L1993.89 56.0321ZM1962.04 108.304V106.304H1958.87V108.304V110.304H1962.04V108.304ZM1958.87 108.304L1960.58 107.263L1928.72 54.9913L1927.01 56.0321L1925.31 57.0729L1957.16 109.345L1958.87 108.304ZM1927.01 56.0321H1925.01V127.664H1927.01H1929.01V56.0321H1927.01ZM1927.01 127.664V125.664H1898.85V127.664V129.664H1927.01V127.664ZM1898.85 127.664H1900.85V4.46405H1898.85H1896.85V127.664H1898.85ZM1898.85 4.46405V6.46405H1927.01V4.46405V2.46405H1898.85V4.46405ZM1927.01 4.46405L1925.31 5.50673L1958.75 60.2427L1960.45 59.2001L1962.16 58.1574L1928.72 3.42138L1927.01 4.46405ZM1960.45 59.2001L1962.16 60.2427L1995.6 5.50673L1993.89 4.46405L1992.19 3.42138L1958.75 58.1574L1960.45 59.2001ZM1993.89 4.46405V6.46405H2022.05V4.46405V2.46405H1993.89V4.46405ZM2119.61 127.664L2117.71 128.27L2119.61 129.664V127.664ZM2113.45 108.304L2115.36 107.698L2113.45 106.304V108.304ZM2067.69 108.304V106.304L2065.79 107.698L2067.69 108.304ZM2061.53 127.664V129.664L2063.44 128.27L2061.53 127.664ZM2030.73 127.664L2028.84 127.02L2030.73 129.664V127.664ZM2072.62 4.46405V2.46405L2070.73 3.82025L2072.62 4.46405ZM2108.53 4.46405L2110.42 3.82025L2108.53 2.46405V4.46405ZM2150.41 127.664V129.664L2152.31 127.02L2150.41 127.664ZM2076.14 81.9041L2074.24 81.2961L2076.14 83.9041V81.9041ZM2105.01 81.9041V83.9041L2106.91 81.2961L2105.01 81.9041ZM2090.57 36.6721L2092.48 36.0641H2088.67L2090.57 36.6721ZM2119.61 127.664L2121.52 127.058L2115.36 107.698L2113.45 108.304L2111.55 108.91L2117.71 128.27L2119.61 127.664ZM2113.45 108.304V106.304H2067.69V108.304V110.304H2113.45V108.304ZM2067.69 108.304L2065.79 107.698L2059.63 127.058L2061.53 127.664L2063.44 128.27L2069.6 108.91L2067.69 108.304ZM2061.53 127.664V125.664H2030.73V127.664V129.664H2061.53V127.664ZM2030.73 127.664L2032.63 128.308L2074.52 5.10786L2072.62 4.46405L2070.73 3.82025L2028.84 127.02L2030.73 127.664ZM2072.62 4.46405V6.46405H2108.53V4.46405V2.46405H2072.62V4.46405ZM2108.53 4.46405L2106.63 5.10786L2148.52 128.308L2150.41 127.664L2152.31 127.02L2110.42 3.82025L2108.53 4.46405ZM2150.41 127.664V125.664H2119.61V127.664V129.664H2150.41V127.664ZM2076.14 81.9041V83.9041H2105.01V81.9041V79.9041H2076.14V81.9041ZM2105.01 81.9041L2106.91 81.2961L2092.48 36.0641L2090.57 36.6721L2088.67 37.28L2103.1 82.512L2105.01 81.9041ZM2090.57 36.6721L2088.67 36.0641L2074.24 81.2961L2076.14 81.9041L2078.05 82.512L2092.48 37.28L2090.57 36.6721ZM2227.62 4.46405V2.46405L2225.62 4.46405H2227.62ZM2255.78 4.46405H2257.78L2255.78 2.46405V4.46405ZM2255.78 127.664V129.664L2257.78 127.664H2255.78ZM2234.66 127.664L2233.03 128.822L2234.66 129.664V127.664ZM2187.14 60.7841L2188.77 59.6256L2185.14 60.7841H2187.14ZM2187.14 127.664V129.664L2189.14 127.664H2187.14ZM2158.98 127.664H2156.98L2158.98 129.664V127.664ZM2158.98 4.46405V2.46405L2156.98 4.46405H2158.98ZM2180.1 4.46405L2181.73 3.30564L2180.1 2.46405V4.46405ZM2227.62 71.3441L2225.99 72.5025L2229.62 71.3441H2227.62ZM2227.62 4.46405V6.46405H2255.78V4.46405V2.46405H2227.62V4.46405ZM2255.78 4.46405H2253.78V127.664H2255.78H2257.78V4.46405H2255.78ZM2255.78 127.664V125.664H2234.66V127.664V129.664H2255.78V127.664ZM2234.66 127.664L2236.29 126.506L2188.77 59.6256L2187.14 60.7841L2185.51 61.9425L2233.03 128.822L2234.66 127.664ZM2187.14 60.7841H2185.14V127.664H2187.14H2189.14V60.7841H2187.14ZM2187.14 127.664V125.664H2158.98V127.664V129.664H2187.14V127.664ZM2158.98 127.664H2160.98V4.46405H2158.98H2156.98V127.664H2158.98ZM2158.98 4.46405V6.46405H2180.1V4.46405V2.46405H2158.98V4.46405ZM2180.1 4.46405L2178.47 5.62247L2225.99 72.5025L2227.62 71.3441L2229.25 70.1856L2181.73 3.30564L2180.1 4.46405ZM2227.62 71.3441H2229.62V4.46405H2227.62H2225.62V71.3441H2227.62ZM2386.54 30.5121L2387.54 32.2423L2388.24 29.4629L2386.54 30.5121ZM2362.25 44.5921L2360.51 45.5878L2363.25 46.3223L2362.25 44.5921ZM2362.25 87.5361L2363.25 85.8058L2360.5 86.5648L2362.25 87.5361ZM2386.54 101.616L2388.25 102.653L2387.54 99.8858L2386.54 101.616ZM2333.74 130.128V128.128C2297.72 128.128 2271.67 101.234 2271.67 66.0641H2269.67H2267.67C2267.67 103.406 2295.48 132.128 2333.74 132.128V130.128ZM2269.67 66.0641H2271.67C2271.67 30.8944 2297.72 4.00005 2333.74 4.00005V2.00005V5.34058e-05C2295.48 5.34058e-05 2267.67 28.7217 2267.67 66.0641H2269.67ZM2333.74 2.00005V4.00005C2355.42 4.00005 2374.48 14.7525 2384.83 31.5612L2386.54 30.5121L2388.24 29.4629C2377.12 11.4236 2356.75 5.34058e-05 2333.74 5.34058e-05V2.00005ZM2386.54 30.5121L2385.53 28.7818L2361.25 42.8618L2362.25 44.5921L2363.25 46.3223L2387.54 32.2423L2386.54 30.5121ZM2362.25 44.5921L2363.98 43.5963C2358.12 33.3772 2346.83 27.4561 2333.74 27.4561V29.4561V31.4561C2345.63 31.4561 2355.47 36.7989 2360.51 45.5878L2362.25 44.5921ZM2333.74 29.4561V27.4561C2322.37 27.4561 2312.85 31.2721 2306.17 38.1132C2299.5 44.9489 2295.83 54.6327 2295.83 66.0641H2297.83H2299.83C2299.83 55.4955 2303.21 46.8752 2309.03 40.907C2314.85 34.944 2323.28 31.4561 2333.74 31.4561V29.4561ZM2297.83 66.0641H2295.83C2295.83 77.4955 2299.5 87.1792 2306.17 94.015C2312.85 100.856 2322.37 104.672 2333.74 104.672V102.672V100.672C2323.28 100.672 2314.85 97.1841 2309.03 91.2212C2303.21 85.2529 2299.83 76.6327 2299.83 66.0641H2297.83ZM2333.74 102.672V104.672C2346.81 104.672 2358.3 98.7637 2364 88.5073L2362.25 87.5361L2360.5 86.5648C2355.64 95.3164 2345.65 100.672 2333.74 100.672V102.672ZM2362.25 87.5361L2361.25 89.2663L2385.53 103.346L2386.54 101.616L2387.54 99.8858L2363.25 85.8058L2362.25 87.5361ZM2386.54 101.616L2384.83 100.579C2374.65 117.371 2355.61 128.128 2333.74 128.128V130.128V132.128C2356.92 132.128 2377.3 120.709 2388.25 102.653L2386.54 101.616ZM2425.96 100.56H2423.96L2425.96 102.56V100.56ZM2475.24 100.56H2477.24L2475.24 98.5601V100.56ZM2475.24 127.664V129.664L2477.24 127.664H2475.24ZM2397.8 127.664H2395.8L2397.8 129.664V127.664ZM2397.8 4.46405V2.46405L2395.8 4.46405H2397.8ZM2474.36 4.46405H2476.36L2474.36 2.46405V4.46405ZM2474.36 31.5681V33.5681L2476.36 31.5681H2474.36ZM2425.96 31.5681V29.5681L2423.96 31.5681H2425.96ZM2425.96 51.9841H2423.96L2425.96 53.9841V51.9841ZM2469.96 51.9841H2471.96L2469.96 49.9841V51.9841ZM2469.96 78.7361V80.7361L2471.96 78.7361H2469.96ZM2425.96 78.7361V76.7361L2423.96 78.7361H2425.96ZM2425.96 100.56V102.56H2475.24V100.56V98.5601H2425.96V100.56ZM2475.24 100.56H2473.24V127.664H2475.24H2477.24V100.56H2475.24ZM2475.24 127.664V125.664H2397.8V127.664V129.664H2475.24V127.664ZM2397.8 127.664H2399.8V4.46405H2397.8H2395.8V127.664H2397.8ZM2397.8 4.46405V6.46405H2474.36V4.46405V2.46405H2397.8V4.46405ZM2474.36 4.46405H2472.36V31.5681H2474.36H2476.36V4.46405H2474.36ZM2474.36 31.5681V29.5681H2425.96V31.5681V33.5681H2474.36V31.5681ZM2425.96 31.5681H2423.96V51.9841H2425.96H2427.96V31.5681H2425.96ZM2425.96 51.9841V53.9841H2469.96V51.9841V49.9841H2425.96V51.9841ZM2469.96 51.9841H2467.96V78.7361H2469.96H2471.96V51.9841H2469.96ZM2469.96 78.7361V76.7361H2425.96V78.7361V80.7361H2469.96V78.7361ZM2425.96 78.7361H2423.96V100.56H2425.96H2427.96V78.7361H2425.96Z" fill="white" mask="url(#path-1-outside-1_1850_888)"/>
</svg>
