<svg width="1690" height="91" viewBox="0 0 1690 91" fill="none" xmlns="http://www.w3.org/2000/svg">
<mask id="path-1-outside-1_1861_890" maskUnits="userSpaceOnUse" x="-0.599609" y="-0.720703" width="1691" height="92" fill="black">
<rect fill="white" x="-0.599609" y="-0.720703" width="1691" height="92"/>
<path d="M33.4004 3.27929C49.9604 3.27929 62.8004 16.1193 62.8004 32.0793C62.8004 48.0393 49.9604 60.8793 33.4004 60.8793H20.8004V87.2793H1.60039V3.27929H33.4004ZM33.4004 42.8793C39.2804 42.8793 43.6004 38.1993 43.6004 32.0793C43.6004 25.9593 39.2804 21.2793 33.4004 21.2793H20.8004V42.8793H33.4004ZM90.2616 68.7993H123.862V87.2793H71.0616V3.27929H123.262V21.7593H90.2616V35.6793H120.262V53.9193H90.2616V68.7993ZM177.534 87.2793L161.694 59.6793H152.574V87.2793H133.374V3.27929H166.974C182.934 3.27929 195.774 16.1193 195.774 32.0793C195.774 42.3993 189.534 51.7593 180.294 56.4393L198.174 87.2793H177.534ZM152.574 21.2793V42.8793H166.974C172.254 42.8793 176.574 38.1993 176.574 32.0793C176.574 25.9593 172.254 21.2793 166.974 21.2793H152.574ZM256.883 21.7593H225.083V37.9593H256.283V56.4393H225.083V87.2793H205.883V3.27929H256.883V21.7593ZM306.986 88.9593C282.866 88.9593 263.306 69.9993 263.306 45.2793C263.306 20.5593 282.866 1.59929 306.986 1.59929C331.106 1.59929 350.666 20.5593 350.666 45.2793C350.666 69.9993 331.106 88.9593 306.986 88.9593ZM306.986 70.2393C320.666 70.2393 331.466 60.2793 331.466 45.2793C331.466 30.2793 320.666 20.3193 306.986 20.3193C293.306 20.3193 282.506 30.2793 282.506 45.2793C282.506 60.2793 293.306 70.2393 306.986 70.2393ZM404.317 87.2793L388.477 59.6793H379.357V87.2793H360.157V3.27929H393.757C409.717 3.27929 422.557 16.1193 422.557 32.0793C422.557 42.3993 416.317 51.7593 407.077 56.4393L424.957 87.2793H404.317ZM379.357 21.2793V42.8793H393.757C399.037 42.8793 403.357 38.1993 403.357 32.0793C403.357 25.9593 399.037 21.2793 393.757 21.2793H379.357ZM516.665 3.27929V87.2793H497.465V38.4393L475.745 74.0793H473.585L451.865 38.4393V87.2793H432.665V3.27929H451.865L474.665 40.5993L497.465 3.27929H516.665ZM583.182 87.2793L578.982 74.0793H547.782L543.582 87.2793H522.582L551.142 3.27929H575.622L604.182 87.2793H583.182ZM553.542 56.0793H573.222L563.382 25.2393L553.542 56.0793ZM656.825 3.27929H676.025V87.2793H661.625L629.225 41.6793V87.2793H610.025V3.27929H624.425L656.825 48.8793V3.27929ZM729.175 88.9593C703.855 88.9593 685.495 69.9993 685.495 45.2793C685.495 20.5593 703.855 1.59929 729.175 1.59929C744.415 1.59929 757.855 9.15929 765.175 21.0393L748.615 30.6393C744.895 24.1593 737.695 20.3193 729.175 20.3193C714.295 20.3193 704.695 30.2793 704.695 45.2793C704.695 60.2793 714.295 70.2393 729.175 70.2393C737.695 70.2393 745.015 66.3993 748.615 59.9193L765.175 69.5193C757.975 81.3993 744.535 88.9593 729.175 88.9593ZM792.054 68.7993H825.654V87.2793H772.854V3.27929H825.054V21.7593H792.054V35.6793H822.054V53.9193H792.054V68.7993ZM895.646 3.27929C912.206 3.27929 925.046 16.1193 925.046 32.0793C925.046 48.0393 912.206 60.8793 895.646 60.8793H883.046V87.2793H863.846V3.27929H895.646ZM895.646 42.8793C901.526 42.8793 905.846 38.1993 905.846 32.0793C905.846 25.9593 901.526 21.2793 895.646 21.2793H883.046V42.8793H895.646ZM952.508 68.7993H986.108V87.2793H933.308V3.27929H985.508V21.7593H952.508V35.6793H982.508V53.9193H952.508V68.7993ZM1039.78 87.2793L1023.94 59.6793H1014.82V87.2793H995.62V3.27929H1029.22C1045.18 3.27929 1058.02 16.1193 1058.02 32.0793C1058.02 42.3993 1051.78 51.7593 1042.54 56.4393L1060.42 87.2793H1039.78ZM1014.82 21.2793V42.8793H1029.22C1034.5 42.8793 1038.82 38.1993 1038.82 32.0793C1038.82 25.9593 1034.5 21.2793 1029.22 21.2793H1014.82ZM1119.13 21.7593H1087.33V37.9593H1118.53V56.4393H1087.33V87.2793H1068.13V3.27929H1119.13V21.7593ZM1169.23 88.9593C1145.11 88.9593 1125.55 69.9993 1125.55 45.2793C1125.55 20.5593 1145.11 1.59929 1169.23 1.59929C1193.35 1.59929 1212.91 20.5593 1212.91 45.2793C1212.91 69.9993 1193.35 88.9593 1169.23 88.9593ZM1169.23 70.2393C1182.91 70.2393 1193.71 60.2793 1193.71 45.2793C1193.71 30.2793 1182.91 20.3193 1169.23 20.3193C1155.55 20.3193 1144.75 30.2793 1144.75 45.2793C1144.75 60.2793 1155.55 70.2393 1169.23 70.2393ZM1266.56 87.2793L1250.72 59.6793H1241.6V87.2793H1222.4V3.27929H1256C1271.96 3.27929 1284.8 16.1193 1284.8 32.0793C1284.8 42.3993 1278.56 51.7593 1269.32 56.4393L1287.2 87.2793H1266.56ZM1241.6 21.2793V42.8793H1256C1261.28 42.8793 1265.6 38.1993 1265.6 32.0793C1265.6 25.9593 1261.28 21.2793 1256 21.2793H1241.6ZM1378.91 3.27929V87.2793H1359.71V38.4393L1337.99 74.0793H1335.83L1314.11 38.4393V87.2793H1294.91V3.27929H1314.11L1336.91 40.5993L1359.71 3.27929H1378.91ZM1445.43 87.2793L1441.23 74.0793H1410.03L1405.83 87.2793H1384.83L1413.39 3.27929H1437.87L1466.43 87.2793H1445.43ZM1415.79 56.0793H1435.47L1425.63 25.2393L1415.79 56.0793ZM1519.07 3.27929H1538.27V87.2793H1523.87L1491.47 41.6793V87.2793H1472.27V3.27929H1486.67L1519.07 48.8793V3.27929ZM1591.42 88.9593C1566.1 88.9593 1547.74 69.9993 1547.74 45.2793C1547.74 20.5593 1566.1 1.59929 1591.42 1.59929C1606.66 1.59929 1620.1 9.15929 1627.42 21.0393L1610.86 30.6393C1607.14 24.1593 1599.94 20.3193 1591.42 20.3193C1576.54 20.3193 1566.94 30.2793 1566.94 45.2793C1566.94 60.2793 1576.54 70.2393 1591.42 70.2393C1599.94 70.2393 1607.26 66.3993 1610.86 59.9193L1627.42 69.5193C1620.22 81.3993 1606.78 88.9593 1591.42 88.9593ZM1654.3 68.7993H1687.9V87.2793H1635.1V3.27929H1687.3V21.7593H1654.3V35.6793H1684.3V53.9193H1654.3V68.7993Z"/>
</mask>
<path d="M20.8004 60.8793V59.2793L19.2004 60.8793H20.8004ZM20.8004 87.2793V88.8793L22.4004 87.2793H20.8004ZM1.60039 87.2793H0.000391006L1.60039 88.8793V87.2793ZM1.60039 3.27929V1.67929L0.000391006 3.27929H1.60039ZM20.8004 21.2793V19.6793L19.2004 21.2793H20.8004ZM20.8004 42.8793H19.2004L20.8004 44.4793V42.8793ZM33.4004 3.27929V4.87929C49.0984 4.87929 61.2004 17.0245 61.2004 32.0793H62.8004H64.4004C64.4004 15.2141 50.8224 1.67929 33.4004 1.67929V3.27929ZM62.8004 32.0793H61.2004C61.2004 47.1341 49.0984 59.2793 33.4004 59.2793V60.8793V62.4793C50.8224 62.4793 64.4004 48.9445 64.4004 32.0793H62.8004ZM33.4004 60.8793V59.2793H20.8004V60.8793V62.4793H33.4004V60.8793ZM20.8004 60.8793H19.2004V87.2793H20.8004H22.4004V60.8793H20.8004ZM20.8004 87.2793V85.6793H1.60039V87.2793V88.8793H20.8004V87.2793ZM1.60039 87.2793H3.20039V3.27929H1.60039H0.000391006V87.2793H1.60039ZM1.60039 3.27929V4.87929H33.4004V3.27929V1.67929H1.60039V3.27929ZM33.4004 42.8793V44.4793C40.259 44.4793 45.2004 38.9849 45.2004 32.0793H43.6004H42.0004C42.0004 37.4137 38.3018 41.2793 33.4004 41.2793V42.8793ZM43.6004 32.0793H45.2004C45.2004 25.1737 40.259 19.6793 33.4004 19.6793V21.2793V22.8793C38.3018 22.8793 42.0004 26.7449 42.0004 32.0793H43.6004ZM33.4004 21.2793V19.6793H20.8004V21.2793V22.8793H33.4004V21.2793ZM20.8004 21.2793H19.2004V42.8793H20.8004H22.4004V21.2793H20.8004ZM20.8004 42.8793V44.4793H33.4004V42.8793V41.2793H20.8004V42.8793ZM90.2616 68.7993H88.6616L90.2616 70.3993V68.7993ZM123.862 68.7993H125.462L123.862 67.1993V68.7993ZM123.862 87.2793V88.8793L125.462 87.2793H123.862ZM71.0616 87.2793H69.4616L71.0616 88.8793V87.2793ZM71.0616 3.27929V1.67929L69.4616 3.27929H71.0616ZM123.262 3.27929H124.862L123.262 1.67929V3.27929ZM123.262 21.7593V23.3593L124.862 21.7593H123.262ZM90.2616 21.7593V20.1593L88.6616 21.7593H90.2616ZM90.2616 35.6793H88.6616L90.2616 37.2793V35.6793ZM120.262 35.6793H121.862L120.262 34.0793V35.6793ZM120.262 53.9193V55.5193L121.862 53.9193H120.262ZM90.2616 53.9193V52.3193L88.6616 53.9193H90.2616ZM90.2616 68.7993V70.3993H123.862V68.7993V67.1993H90.2616V68.7993ZM123.862 68.7993H122.262V87.2793H123.862H125.462V68.7993H123.862ZM123.862 87.2793V85.6793H71.0616V87.2793V88.8793H123.862V87.2793ZM71.0616 87.2793H72.6616V3.27929H71.0616H69.4616V87.2793H71.0616ZM71.0616 3.27929V4.87929H123.262V3.27929V1.67929H71.0616V3.27929ZM123.262 3.27929H121.662V21.7593H123.262H124.862V3.27929H123.262ZM123.262 21.7593V20.1593H90.2616V21.7593V23.3593H123.262V21.7593ZM90.2616 21.7593H88.6616V35.6793H90.2616H91.8616V21.7593H90.2616ZM90.2616 35.6793V37.2793H120.262V35.6793V34.0793H90.2616V35.6793ZM120.262 35.6793H118.662V53.9193H120.262H121.862V35.6793H120.262ZM120.262 53.9193V52.3193H90.2616V53.9193V55.5193H120.262V53.9193ZM90.2616 53.9193H88.6616V68.7993H90.2616H91.8616V53.9193H90.2616ZM177.534 87.2793L176.147 88.0757L177.534 88.8793V87.2793ZM161.694 59.6793L163.082 58.8829L161.694 58.0793V59.6793ZM152.574 59.6793V58.0793L150.974 59.6793H152.574ZM152.574 87.2793V88.8793L154.174 87.2793H152.574ZM133.374 87.2793H131.774L133.374 88.8793V87.2793ZM133.374 3.27929V1.67929L131.774 3.27929H133.374ZM180.294 56.4393L179.572 55.0119L178.91 57.2418L180.294 56.4393ZM198.174 87.2793V88.8793L199.559 86.4768L198.174 87.2793ZM152.574 21.2793V19.6793L150.974 21.2793H152.574ZM152.574 42.8793H150.974L152.574 44.4793V42.8793ZM177.534 87.2793L178.922 86.4829L163.082 58.8829L161.694 59.6793L160.307 60.4757L176.147 88.0757L177.534 87.2793ZM161.694 59.6793V58.0793H152.574V59.6793V61.2793H161.694V59.6793ZM152.574 59.6793H150.974V87.2793H152.574H154.174V59.6793H152.574ZM152.574 87.2793V85.6793H133.374V87.2793V88.8793H152.574V87.2793ZM133.374 87.2793H134.974V3.27929H133.374H131.774V87.2793H133.374ZM133.374 3.27929V4.87929H166.974V3.27929V1.67929H133.374V3.27929ZM166.974 3.27929V4.87929C182.051 4.87929 194.174 17.0029 194.174 32.0793H195.774H197.374C197.374 15.2356 183.818 1.67929 166.974 1.67929V3.27929ZM195.774 32.0793H194.174C194.174 41.744 188.322 50.58 179.572 55.0119L180.294 56.4393L181.017 57.8667C190.747 52.9386 197.374 43.0546 197.374 32.0793H195.774ZM180.294 56.4393L178.91 57.2418L196.79 88.0818L198.174 87.2793L199.559 86.4768L181.679 55.6368L180.294 56.4393ZM198.174 87.2793V85.6793H177.534V87.2793V88.8793H198.174V87.2793ZM152.574 21.2793H150.974V42.8793H152.574H154.174V21.2793H152.574ZM152.574 42.8793V44.4793H166.974V42.8793V41.2793H152.574V42.8793ZM166.974 42.8793V44.4793C173.294 44.4793 178.174 38.9189 178.174 32.0793H176.574H174.974C174.974 37.4797 171.215 41.2793 166.974 41.2793V42.8793ZM176.574 32.0793H178.174C178.174 25.2397 173.294 19.6793 166.974 19.6793V21.2793V22.8793C171.215 22.8793 174.974 26.6789 174.974 32.0793H176.574ZM166.974 21.2793V19.6793H152.574V21.2793V22.8793H166.974V21.2793ZM256.883 21.7593V23.3593L258.483 21.7593H256.883ZM225.083 21.7593V20.1593L223.483 21.7593H225.083ZM225.083 37.9593H223.483L225.083 39.5593V37.9593ZM256.283 37.9593H257.883L256.283 36.3593V37.9593ZM256.283 56.4393V58.0393L257.883 56.4393H256.283ZM225.083 56.4393V54.8393L223.483 56.4393H225.083ZM225.083 87.2793V88.8793L226.683 87.2793H225.083ZM205.883 87.2793H204.283L205.883 88.8793V87.2793ZM205.883 3.27929V1.67929L204.283 3.27929H205.883ZM256.883 3.27929H258.483L256.883 1.67929V3.27929ZM256.883 21.7593V20.1593H225.083V21.7593V23.3593H256.883V21.7593ZM225.083 21.7593H223.483V37.9593H225.083H226.683V21.7593H225.083ZM225.083 37.9593V39.5593H256.283V37.9593V36.3593H225.083V37.9593ZM256.283 37.9593H254.683V56.4393H256.283H257.883V37.9593H256.283ZM256.283 56.4393V54.8393H225.083V56.4393V58.0393H256.283V56.4393ZM225.083 56.4393H223.483V87.2793H225.083H226.683V56.4393H225.083ZM225.083 87.2793V85.6793H205.883V87.2793V88.8793H225.083V87.2793ZM205.883 87.2793H207.483V3.27929H205.883H204.283V87.2793H205.883ZM205.883 3.27929V4.87929H256.883V3.27929V1.67929H205.883V3.27929ZM256.883 3.27929H255.283V21.7593H256.883H258.483V3.27929H256.883ZM306.986 88.9593V87.3593C283.736 87.3593 264.906 69.1013 264.906 45.2793H263.306H261.706C261.706 70.8973 281.997 90.5593 306.986 90.5593V88.9593ZM263.306 45.2793H264.906C264.906 21.4573 283.736 3.1993 306.986 3.1993V1.59929V-0.000709534C281.997 -0.000709534 261.706 19.6613 261.706 45.2793H263.306ZM306.986 1.59929V3.1993C330.237 3.1993 349.066 21.4573 349.066 45.2793H350.666H352.266C352.266 19.6613 331.976 -0.000709534 306.986 -0.000709534V1.59929ZM350.666 45.2793H349.066C349.066 69.1013 330.237 87.3593 306.986 87.3593V88.9593V90.5593C331.976 90.5593 352.266 70.8973 352.266 45.2793H350.666ZM306.986 70.2393V71.8393C321.534 71.8393 333.066 61.1784 333.066 45.2793H331.466H329.866C329.866 59.3802 319.798 68.6393 306.986 68.6393V70.2393ZM331.466 45.2793H333.066C333.066 29.3802 321.534 18.7193 306.986 18.7193V20.3193V21.9193C319.798 21.9193 329.866 31.1784 329.866 45.2793H331.466ZM306.986 20.3193V18.7193C292.438 18.7193 280.906 29.3802 280.906 45.2793H282.506H284.106C284.106 31.1784 294.174 21.9193 306.986 21.9193V20.3193ZM282.506 45.2793H280.906C280.906 61.1784 292.438 71.8393 306.986 71.8393V70.2393V68.6393C294.174 68.6393 284.106 59.3802 284.106 45.2793H282.506ZM404.317 87.2793L402.929 88.0757L404.317 88.8793V87.2793ZM388.477 59.6793L389.864 58.8829L388.477 58.0793V59.6793ZM379.357 59.6793V58.0793L377.757 59.6793H379.357ZM379.357 87.2793V88.8793L380.957 87.2793H379.357ZM360.157 87.2793H358.557L360.157 88.8793V87.2793ZM360.157 3.27929V1.67929L358.557 3.27929H360.157ZM407.077 56.4393L406.354 55.0119L405.692 57.2418L407.077 56.4393ZM424.957 87.2793V88.8793L426.341 86.4768L424.957 87.2793ZM379.357 21.2793V19.6793L377.757 21.2793H379.357ZM379.357 42.8793H377.757L379.357 44.4793V42.8793ZM404.317 87.2793L405.704 86.4829L389.864 58.8829L388.477 59.6793L387.089 60.4757L402.929 88.0757L404.317 87.2793ZM388.477 59.6793V58.0793H379.357V59.6793V61.2793H388.477V59.6793ZM379.357 59.6793H377.757V87.2793H379.357H380.957V59.6793H379.357ZM379.357 87.2793V85.6793H360.157V87.2793V88.8793H379.357V87.2793ZM360.157 87.2793H361.757V3.27929H360.157H358.557V87.2793H360.157ZM360.157 3.27929V4.87929H393.757V3.27929V1.67929H360.157V3.27929ZM393.757 3.27929V4.87929C408.833 4.87929 420.957 17.0029 420.957 32.0793H422.557H424.157C424.157 15.2356 410.6 1.67929 393.757 1.67929V3.27929ZM422.557 32.0793H420.957C420.957 41.744 415.104 50.58 406.354 55.0119L407.077 56.4393L407.8 57.8667C417.529 52.9386 424.157 43.0546 424.157 32.0793H422.557ZM407.077 56.4393L405.692 57.2418L423.572 88.0818L424.957 87.2793L426.341 86.4768L408.461 55.6368L407.077 56.4393ZM424.957 87.2793V85.6793H404.317V87.2793V88.8793H424.957V87.2793ZM379.357 21.2793H377.757V42.8793H379.357H380.957V21.2793H379.357ZM379.357 42.8793V44.4793H393.757V42.8793V41.2793H379.357V42.8793ZM393.757 42.8793V44.4793C400.076 44.4793 404.957 38.9189 404.957 32.0793H403.357H401.757C401.757 37.4797 397.997 41.2793 393.757 41.2793V42.8793ZM403.357 32.0793H404.957C404.957 25.2397 400.076 19.6793 393.757 19.6793V21.2793V22.8793C397.997 22.8793 401.757 26.6789 401.757 32.0793H403.357ZM393.757 21.2793V19.6793H379.357V21.2793V22.8793H393.757V21.2793ZM516.665 3.27929H518.265L516.665 1.67929V3.27929ZM516.665 87.2793V88.8793L518.265 87.2793H516.665ZM497.465 87.2793H495.865L497.465 88.8793V87.2793ZM497.465 38.4393H499.065L496.098 37.6067L497.465 38.4393ZM475.745 74.0793V75.6793L477.111 74.9119L475.745 74.0793ZM473.585 74.0793L472.218 74.9119L473.585 75.6793V74.0793ZM451.865 38.4393L453.231 37.6067L450.265 38.4393H451.865ZM451.865 87.2793V88.8793L453.465 87.2793H451.865ZM432.665 87.2793H431.065L432.665 88.8793V87.2793ZM432.665 3.27929V1.67929L431.065 3.27929H432.665ZM451.865 3.27929L453.23 2.44515L451.865 1.67929V3.27929ZM474.665 40.5993L473.299 41.4334H476.03L474.665 40.5993ZM497.465 3.27929V1.67929L496.099 2.44515L497.465 3.27929ZM516.665 3.27929H515.065V87.2793H516.665H518.265V3.27929H516.665ZM516.665 87.2793V85.6793H497.465V87.2793V88.8793H516.665V87.2793ZM497.465 87.2793H499.065V38.4393H497.465H495.865V87.2793H497.465ZM497.465 38.4393L496.098 37.6067L474.378 73.2467L475.745 74.0793L477.111 74.9119L498.831 39.2719L497.465 38.4393ZM475.745 74.0793V72.4793H473.585V74.0793V75.6793H475.745V74.0793ZM473.585 74.0793L474.951 73.2467L453.231 37.6067L451.865 38.4393L450.498 39.2719L472.218 74.9119L473.585 74.0793ZM451.865 38.4393H450.265V87.2793H451.865H453.465V38.4393H451.865ZM451.865 87.2793V85.6793H432.665V87.2793V88.8793H451.865V87.2793ZM432.665 87.2793H434.265V3.27929H432.665H431.065V87.2793H432.665ZM432.665 3.27929V4.87929H451.865V3.27929V1.67929H432.665V3.27929ZM451.865 3.27929L450.499 4.11343L473.299 41.4334L474.665 40.5993L476.03 39.7652L453.23 2.44515L451.865 3.27929ZM474.665 40.5993L476.03 41.4334L498.83 4.11343L497.465 3.27929L496.099 2.44515L473.299 39.7652L474.665 40.5993ZM497.465 3.27929V4.87929H516.665V3.27929V1.67929H497.465V3.27929ZM583.182 87.2793L581.658 87.7644L583.182 88.8793V87.2793ZM578.982 74.0793L580.507 73.5942L578.982 72.4793V74.0793ZM547.782 74.0793V72.4793L546.258 73.5942L547.782 74.0793ZM543.582 87.2793V88.8793L545.107 87.7644L543.582 87.2793ZM522.582 87.2793L521.067 86.7643L522.582 88.8793V87.2793ZM551.142 3.27929V1.67929L549.627 2.76424L551.142 3.27929ZM575.622 3.27929L577.137 2.76424L575.622 1.67929V3.27929ZM604.182 87.2793V88.8793L605.697 86.7643L604.182 87.2793ZM553.542 56.0793L552.018 55.5929L553.542 57.6793V56.0793ZM573.222 56.0793V57.6793L574.747 55.5929L573.222 56.0793ZM563.382 25.2393L564.907 24.7529H561.858L563.382 25.2393ZM583.182 87.2793L584.707 86.7942L580.507 73.5942L578.982 74.0793L577.458 74.5644L581.658 87.7644L583.182 87.2793ZM578.982 74.0793V72.4793H547.782V74.0793V75.6793H578.982V74.0793ZM547.782 74.0793L546.258 73.5942L542.058 86.7942L543.582 87.2793L545.107 87.7644L549.307 74.5644L547.782 74.0793ZM543.582 87.2793V85.6793H522.582V87.2793V88.8793H543.582V87.2793ZM522.582 87.2793L524.097 87.7943L552.657 3.79433L551.142 3.27929L549.627 2.76424L521.067 86.7643L522.582 87.2793ZM551.142 3.27929V4.87929H575.622V3.27929V1.67929H551.142V3.27929ZM575.622 3.27929L574.107 3.79433L602.667 87.7943L604.182 87.2793L605.697 86.7643L577.137 2.76424L575.622 3.27929ZM604.182 87.2793V85.6793H583.182V87.2793V88.8793H604.182V87.2793ZM553.542 56.0793V57.6793H573.222V56.0793V54.4793H553.542V56.0793ZM573.222 56.0793L574.747 55.5929L564.907 24.7529L563.382 25.2393L561.858 25.7256L571.698 56.5656L573.222 56.0793ZM563.382 25.2393L561.858 24.7529L552.018 55.5929L553.542 56.0793L555.067 56.5656L564.907 25.7256L563.382 25.2393ZM656.825 3.27929V1.67929L655.225 3.27929H656.825ZM676.025 3.27929H677.625L676.025 1.67929V3.27929ZM676.025 87.2793V88.8793L677.625 87.2793H676.025ZM661.625 87.2793L660.32 88.206L661.625 88.8793V87.2793ZM629.225 41.6793L630.529 40.7526L627.625 41.6793H629.225ZM629.225 87.2793V88.8793L630.825 87.2793H629.225ZM610.025 87.2793H608.425L610.025 88.8793V87.2793ZM610.025 3.27929V1.67929L608.425 3.27929H610.025ZM624.425 3.27929L625.729 2.35256L624.425 1.67929V3.27929ZM656.825 48.8793L655.521 49.806L658.425 48.8793H656.825ZM656.825 3.27929V4.87929H676.025V3.27929V1.67929H656.825V3.27929ZM676.025 3.27929H674.425V87.2793H676.025H677.625V3.27929H676.025ZM676.025 87.2793V85.6793H661.625V87.2793V88.8793H676.025V87.2793ZM661.625 87.2793L662.929 86.3526L630.529 40.7526L629.225 41.6793L627.92 42.606L660.32 88.206L661.625 87.2793ZM629.225 41.6793H627.625V87.2793H629.225H630.825V41.6793H629.225ZM629.225 87.2793V85.6793H610.025V87.2793V88.8793H629.225V87.2793ZM610.025 87.2793H611.625V3.27929H610.025H608.425V87.2793H610.025ZM610.025 3.27929V4.87929H624.425V3.27929V1.67929H610.025V3.27929ZM624.425 3.27929L623.12 4.20602L655.521 49.806L656.825 48.8793L658.129 47.9526L625.729 2.35256L624.425 3.27929ZM656.825 48.8793H658.425V3.27929H656.825H655.225V48.8793H656.825ZM765.175 21.0393L765.978 22.4235L766.538 20.2L765.175 21.0393ZM748.615 30.6393L747.228 31.4359L749.418 32.0235L748.615 30.6393ZM748.615 59.9193L749.418 58.5351L747.217 59.1423L748.615 59.9193ZM765.175 69.5193L766.544 70.3486L765.978 68.1351L765.175 69.5193ZM729.175 88.9593V87.3593C704.754 87.3593 687.095 69.1302 687.095 45.2793H685.495H683.895C683.895 70.8684 702.957 90.5593 729.175 90.5593V88.9593ZM685.495 45.2793H687.095C687.095 21.4284 704.754 3.1993 729.175 3.1993V1.59929V-0.000709534C702.957 -0.000709534 683.895 19.6902 683.895 45.2793H685.495ZM729.175 1.59929V3.1993C743.883 3.1993 756.797 10.4908 763.813 21.8786L765.175 21.0393L766.538 20.2C758.914 7.82776 744.947 -0.000709534 729.175 -0.000709534V1.59929ZM765.175 21.0393L764.373 19.6551L747.813 29.2551L748.615 30.6393L749.418 32.0235L765.978 22.4235L765.175 21.0393ZM748.615 30.6393L750.003 29.8427C745.955 22.7906 738.176 18.7193 729.175 18.7193V20.3193V21.9193C737.215 21.9193 743.836 25.528 747.228 31.4359L748.615 30.6393ZM729.175 20.3193V18.7193C721.368 18.7193 714.813 21.3405 710.21 26.0568C705.612 30.7688 703.095 37.4342 703.095 45.2793H704.695H706.295C706.295 38.1244 708.579 32.3098 712.5 28.2918C716.418 24.278 722.103 21.9193 729.175 21.9193V20.3193ZM704.695 45.2793H703.095C703.095 53.1244 705.612 59.7898 710.21 64.5018C714.813 69.218 721.368 71.8393 729.175 71.8393V70.2393V68.6393C722.103 68.6393 716.418 66.2805 712.5 62.2668C708.579 58.2488 706.295 52.4342 706.295 45.2793H704.695ZM729.175 70.2393V71.8393C738.16 71.8393 746.08 67.7782 750.014 60.6963L748.615 59.9193L747.217 59.1423C743.951 65.0204 737.23 68.6393 729.175 68.6393V70.2393ZM748.615 59.9193L747.813 61.3035L764.373 70.9035L765.175 69.5193L765.978 68.1351L749.418 58.5351L748.615 59.9193ZM765.175 69.5193L763.807 68.69C756.914 80.0644 744.008 87.3593 729.175 87.3593V88.9593V90.5593C745.062 90.5593 759.037 82.7342 766.544 70.3486L765.175 69.5193ZM792.054 68.7993H790.453L792.054 70.3993V68.7993ZM825.654 68.7993H827.253L825.654 67.1993V68.7993ZM825.654 87.2793V88.8793L827.253 87.2793H825.654ZM772.854 87.2793H771.253L772.854 88.8793V87.2793ZM772.854 3.27929V1.67929L771.253 3.27929H772.854ZM825.054 3.27929H826.654L825.054 1.67929V3.27929ZM825.054 21.7593V23.3593L826.654 21.7593H825.054ZM792.054 21.7593V20.1593L790.453 21.7593H792.054ZM792.054 35.6793H790.453L792.054 37.2793V35.6793ZM822.054 35.6793H823.654L822.054 34.0793V35.6793ZM822.054 53.9193V55.5193L823.654 53.9193H822.054ZM792.054 53.9193V52.3193L790.453 53.9193H792.054ZM792.054 68.7993V70.3993H825.654V68.7993V67.1993H792.054V68.7993ZM825.654 68.7993H824.054V87.2793H825.654H827.253V68.7993H825.654ZM825.654 87.2793V85.6793H772.854V87.2793V88.8793H825.654V87.2793ZM772.854 87.2793H774.453V3.27929H772.854H771.253V87.2793H772.854ZM772.854 3.27929V4.87929H825.054V3.27929V1.67929H772.854V3.27929ZM825.054 3.27929H823.453V21.7593H825.054H826.654V3.27929H825.054ZM825.054 21.7593V20.1593H792.054V21.7593V23.3593H825.054V21.7593ZM792.054 21.7593H790.453V35.6793H792.054H793.654V21.7593H792.054ZM792.054 35.6793V37.2793H822.054V35.6793V34.0793H792.054V35.6793ZM822.054 35.6793H820.453V53.9193H822.054H823.654V35.6793H822.054ZM822.054 53.9193V52.3193H792.054V53.9193V55.5193H822.054V53.9193ZM792.054 53.9193H790.453V68.7993H792.054H793.654V53.9193H792.054ZM883.046 60.8793V59.2793L881.446 60.8793H883.046ZM883.046 87.2793V88.8793L884.646 87.2793H883.046ZM863.846 87.2793H862.246L863.846 88.8793V87.2793ZM863.846 3.27929V1.67929L862.246 3.27929H863.846ZM883.046 21.2793V19.6793L881.446 21.2793H883.046ZM883.046 42.8793H881.446L883.046 44.4793V42.8793ZM895.646 3.27929V4.87929C911.344 4.87929 923.446 17.0245 923.446 32.0793H925.046H926.646C926.646 15.2141 913.068 1.67929 895.646 1.67929V3.27929ZM925.046 32.0793H923.446C923.446 47.1341 911.344 59.2793 895.646 59.2793V60.8793V62.4793C913.068 62.4793 926.646 48.9445 926.646 32.0793H925.046ZM895.646 60.8793V59.2793H883.046V60.8793V62.4793H895.646V60.8793ZM883.046 60.8793H881.446V87.2793H883.046H884.646V60.8793H883.046ZM883.046 87.2793V85.6793H863.846V87.2793V88.8793H883.046V87.2793ZM863.846 87.2793H865.446V3.27929H863.846H862.246V87.2793H863.846ZM863.846 3.27929V4.87929H895.646V3.27929V1.67929H863.846V3.27929ZM895.646 42.8793V44.4793C902.505 44.4793 907.446 38.9849 907.446 32.0793H905.846H904.246C904.246 37.4137 900.548 41.2793 895.646 41.2793V42.8793ZM905.846 32.0793H907.446C907.446 25.1737 902.505 19.6793 895.646 19.6793V21.2793V22.8793C900.548 22.8793 904.246 26.7449 904.246 32.0793H905.846ZM895.646 21.2793V19.6793H883.046V21.2793V22.8793H895.646V21.2793ZM883.046 21.2793H881.446V42.8793H883.046H884.646V21.2793H883.046ZM883.046 42.8793V44.4793H895.646V42.8793V41.2793H883.046V42.8793ZM952.508 68.7993H950.908L952.508 70.3993V68.7993ZM986.108 68.7993H987.708L986.108 67.1993V68.7993ZM986.108 87.2793V88.8793L987.708 87.2793H986.108ZM933.308 87.2793H931.708L933.308 88.8793V87.2793ZM933.308 3.27929V1.67929L931.708 3.27929H933.308ZM985.508 3.27929H987.108L985.508 1.67929V3.27929ZM985.508 21.7593V23.3593L987.108 21.7593H985.508ZM952.508 21.7593V20.1593L950.908 21.7593H952.508ZM952.508 35.6793H950.908L952.508 37.2793V35.6793ZM982.508 35.6793H984.108L982.508 34.0793V35.6793ZM982.508 53.9193V55.5193L984.108 53.9193H982.508ZM952.508 53.9193V52.3193L950.908 53.9193H952.508ZM952.508 68.7993V70.3993H986.108V68.7993V67.1993H952.508V68.7993ZM986.108 68.7993H984.508V87.2793H986.108H987.708V68.7993H986.108ZM986.108 87.2793V85.6793H933.308V87.2793V88.8793H986.108V87.2793ZM933.308 87.2793H934.908V3.27929H933.308H931.708V87.2793H933.308ZM933.308 3.27929V4.87929H985.508V3.27929V1.67929H933.308V3.27929ZM985.508 3.27929H983.908V21.7593H985.508H987.108V3.27929H985.508ZM985.508 21.7593V20.1593H952.508V21.7593V23.3593H985.508V21.7593ZM952.508 21.7593H950.908V35.6793H952.508H954.108V21.7593H952.508ZM952.508 35.6793V37.2793H982.508V35.6793V34.0793H952.508V35.6793ZM982.508 35.6793H980.908V53.9193H982.508H984.108V35.6793H982.508ZM982.508 53.9193V52.3193H952.508V53.9193V55.5193H982.508V53.9193ZM952.508 53.9193H950.908V68.7993H952.508H954.108V53.9193H952.508ZM1039.78 87.2793L1038.39 88.0757L1039.78 88.8793V87.2793ZM1023.94 59.6793L1025.33 58.8829L1023.94 58.0793V59.6793ZM1014.82 59.6793V58.0793L1013.22 59.6793H1014.82ZM1014.82 87.2793V88.8793L1016.42 87.2793H1014.82ZM995.62 87.2793H994.02L995.62 88.8793V87.2793ZM995.62 3.27929V1.67929L994.02 3.27929H995.62ZM1042.54 56.4393L1041.82 55.0119L1041.16 57.2418L1042.54 56.4393ZM1060.42 87.2793V88.8793L1061.8 86.4768L1060.42 87.2793ZM1014.82 21.2793V19.6793L1013.22 21.2793H1014.82ZM1014.82 42.8793H1013.22L1014.82 44.4793V42.8793ZM1039.78 87.2793L1041.17 86.4829L1025.33 58.8829L1023.94 59.6793L1022.55 60.4757L1038.39 88.0757L1039.78 87.2793ZM1023.94 59.6793V58.0793H1014.82V59.6793V61.2793H1023.94V59.6793ZM1014.82 59.6793H1013.22V87.2793H1014.82H1016.42V59.6793H1014.82ZM1014.82 87.2793V85.6793H995.62V87.2793V88.8793H1014.82V87.2793ZM995.62 87.2793H997.22V3.27929H995.62H994.02V87.2793H995.62ZM995.62 3.27929V4.87929H1029.22V3.27929V1.67929H995.62V3.27929ZM1029.22 3.27929V4.87929C1044.3 4.87929 1056.42 17.0029 1056.42 32.0793H1058.02H1059.62C1059.62 15.2356 1046.06 1.67929 1029.22 1.67929V3.27929ZM1058.02 32.0793H1056.42C1056.42 41.744 1050.57 50.58 1041.82 55.0119L1042.54 56.4393L1043.26 57.8667C1052.99 52.9386 1059.62 43.0546 1059.62 32.0793H1058.02ZM1042.54 56.4393L1041.16 57.2418L1059.04 88.0818L1060.42 87.2793L1061.8 86.4768L1043.92 55.6368L1042.54 56.4393ZM1060.42 87.2793V85.6793H1039.78V87.2793V88.8793H1060.42V87.2793ZM1014.82 21.2793H1013.22V42.8793H1014.82H1016.42V21.2793H1014.82ZM1014.82 42.8793V44.4793H1029.22V42.8793V41.2793H1014.82V42.8793ZM1029.22 42.8793V44.4793C1035.54 44.4793 1040.42 38.9189 1040.42 32.0793H1038.82H1037.22C1037.22 37.4797 1033.46 41.2793 1029.22 41.2793V42.8793ZM1038.82 32.0793H1040.42C1040.42 25.2397 1035.54 19.6793 1029.22 19.6793V21.2793V22.8793C1033.46 22.8793 1037.22 26.6789 1037.22 32.0793H1038.82ZM1029.22 21.2793V19.6793H1014.82V21.2793V22.8793H1029.22V21.2793ZM1119.13 21.7593V23.3593L1120.73 21.7593H1119.13ZM1087.33 21.7593V20.1593L1085.73 21.7593H1087.33ZM1087.33 37.9593H1085.73L1087.33 39.5593V37.9593ZM1118.53 37.9593H1120.13L1118.53 36.3593V37.9593ZM1118.53 56.4393V58.0393L1120.13 56.4393H1118.53ZM1087.33 56.4393V54.8393L1085.73 56.4393H1087.33ZM1087.33 87.2793V88.8793L1088.93 87.2793H1087.33ZM1068.13 87.2793H1066.53L1068.13 88.8793V87.2793ZM1068.13 3.27929V1.67929L1066.53 3.27929H1068.13ZM1119.13 3.27929H1120.73L1119.13 1.67929V3.27929ZM1119.13 21.7593V20.1593H1087.33V21.7593V23.3593H1119.13V21.7593ZM1087.33 21.7593H1085.73V37.9593H1087.33H1088.93V21.7593H1087.33ZM1087.33 37.9593V39.5593H1118.53V37.9593V36.3593H1087.33V37.9593ZM1118.53 37.9593H1116.93V56.4393H1118.53H1120.13V37.9593H1118.53ZM1118.53 56.4393V54.8393H1087.33V56.4393V58.0393H1118.53V56.4393ZM1087.33 56.4393H1085.73V87.2793H1087.33H1088.93V56.4393H1087.33ZM1087.33 87.2793V85.6793H1068.13V87.2793V88.8793H1087.33V87.2793ZM1068.13 87.2793H1069.73V3.27929H1068.13H1066.53V87.2793H1068.13ZM1068.13 3.27929V4.87929H1119.13V3.27929V1.67929H1068.13V3.27929ZM1119.13 3.27929H1117.53V21.7593H1119.13H1120.73V3.27929H1119.13ZM1169.23 88.9593V87.3593C1145.98 87.3593 1127.15 69.1013 1127.15 45.2793H1125.55H1123.95C1123.95 70.8973 1144.24 90.5593 1169.23 90.5593V88.9593ZM1125.55 45.2793H1127.15C1127.15 21.4573 1145.98 3.1993 1169.23 3.1993V1.59929V-0.000709534C1144.24 -0.000709534 1123.95 19.6613 1123.95 45.2793H1125.55ZM1169.23 1.59929V3.1993C1192.48 3.1993 1211.31 21.4573 1211.31 45.2793H1212.91H1214.51C1214.51 19.6613 1194.22 -0.000709534 1169.23 -0.000709534V1.59929ZM1212.91 45.2793H1211.31C1211.31 69.1013 1192.48 87.3593 1169.23 87.3593V88.9593V90.5593C1194.22 90.5593 1214.51 70.8973 1214.51 45.2793H1212.91ZM1169.23 70.2393V71.8393C1183.78 71.8393 1195.31 61.1784 1195.31 45.2793H1193.71H1192.11C1192.11 59.3802 1182.04 68.6393 1169.23 68.6393V70.2393ZM1193.71 45.2793H1195.31C1195.31 29.3802 1183.78 18.7193 1169.23 18.7193V20.3193V21.9193C1182.04 21.9193 1192.11 31.1784 1192.11 45.2793H1193.71ZM1169.23 20.3193V18.7193C1154.68 18.7193 1143.15 29.3802 1143.15 45.2793H1144.75H1146.35C1146.35 31.1784 1156.42 21.9193 1169.23 21.9193V20.3193ZM1144.75 45.2793H1143.15C1143.15 61.1784 1154.68 71.8393 1169.23 71.8393V70.2393V68.6393C1156.42 68.6393 1146.35 59.3802 1146.35 45.2793H1144.75ZM1266.56 87.2793L1265.17 88.0757L1266.56 88.8793V87.2793ZM1250.72 59.6793L1252.11 58.8829L1250.72 58.0793V59.6793ZM1241.6 59.6793V58.0793L1240 59.6793H1241.6ZM1241.6 87.2793V88.8793L1243.2 87.2793H1241.6ZM1222.4 87.2793H1220.8L1222.4 88.8793V87.2793ZM1222.4 3.27929V1.67929L1220.8 3.27929H1222.4ZM1269.32 56.4393L1268.6 55.0119L1267.94 57.2418L1269.32 56.4393ZM1287.2 87.2793V88.8793L1288.59 86.4768L1287.2 87.2793ZM1241.6 21.2793V19.6793L1240 21.2793H1241.6ZM1241.6 42.8793H1240L1241.6 44.4793V42.8793ZM1266.56 87.2793L1267.95 86.4829L1252.11 58.8829L1250.72 59.6793L1249.33 60.4757L1265.17 88.0757L1266.56 87.2793ZM1250.72 59.6793V58.0793H1241.6V59.6793V61.2793H1250.72V59.6793ZM1241.6 59.6793H1240V87.2793H1241.6H1243.2V59.6793H1241.6ZM1241.6 87.2793V85.6793H1222.4V87.2793V88.8793H1241.6V87.2793ZM1222.4 87.2793H1224V3.27929H1222.4H1220.8V87.2793H1222.4ZM1222.4 3.27929V4.87929H1256V3.27929V1.67929H1222.4V3.27929ZM1256 3.27929V4.87929C1271.08 4.87929 1283.2 17.0029 1283.2 32.0793H1284.8H1286.4C1286.4 15.2356 1272.85 1.67929 1256 1.67929V3.27929ZM1284.8 32.0793H1283.2C1283.2 41.744 1277.35 50.58 1268.6 55.0119L1269.32 56.4393L1270.05 57.8667C1279.78 52.9386 1286.4 43.0546 1286.4 32.0793H1284.8ZM1269.32 56.4393L1267.94 57.2418L1285.82 88.0818L1287.2 87.2793L1288.59 86.4768L1270.71 55.6368L1269.32 56.4393ZM1287.2 87.2793V85.6793H1266.56V87.2793V88.8793H1287.2V87.2793ZM1241.6 21.2793H1240V42.8793H1241.6H1243.2V21.2793H1241.6ZM1241.6 42.8793V44.4793H1256V42.8793V41.2793H1241.6V42.8793ZM1256 42.8793V44.4793C1262.32 44.4793 1267.2 38.9189 1267.2 32.0793H1265.6H1264C1264 37.4797 1260.24 41.2793 1256 41.2793V42.8793ZM1265.6 32.0793H1267.2C1267.2 25.2397 1262.32 19.6793 1256 19.6793V21.2793V22.8793C1260.24 22.8793 1264 26.6789 1264 32.0793H1265.6ZM1256 21.2793V19.6793H1241.6V21.2793V22.8793H1256V21.2793ZM1378.91 3.27929H1380.51L1378.91 1.67929V3.27929ZM1378.91 87.2793V88.8793L1380.51 87.2793H1378.91ZM1359.71 87.2793H1358.11L1359.71 88.8793V87.2793ZM1359.71 38.4393H1361.31L1358.34 37.6067L1359.71 38.4393ZM1337.99 74.0793V75.6793L1339.36 74.9119L1337.99 74.0793ZM1335.83 74.0793L1334.46 74.9119L1335.83 75.6793V74.0793ZM1314.11 38.4393L1315.48 37.6067L1312.51 38.4393H1314.11ZM1314.11 87.2793V88.8793L1315.71 87.2793H1314.11ZM1294.91 87.2793H1293.31L1294.91 88.8793V87.2793ZM1294.91 3.27929V1.67929L1293.31 3.27929H1294.91ZM1314.11 3.27929L1315.48 2.44515L1314.11 1.67929V3.27929ZM1336.91 40.5993L1335.55 41.4334H1338.28L1336.91 40.5993ZM1359.71 3.27929V1.67929L1358.35 2.44515L1359.71 3.27929ZM1378.91 3.27929H1377.31V87.2793H1378.91H1380.51V3.27929H1378.91ZM1378.91 87.2793V85.6793H1359.71V87.2793V88.8793H1378.91V87.2793ZM1359.71 87.2793H1361.31V38.4393H1359.71H1358.11V87.2793H1359.71ZM1359.71 38.4393L1358.34 37.6067L1336.62 73.2467L1337.99 74.0793L1339.36 74.9119L1361.08 39.2719L1359.71 38.4393ZM1337.99 74.0793V72.4793H1335.83V74.0793V75.6793H1337.99V74.0793ZM1335.83 74.0793L1337.2 73.2467L1315.48 37.6067L1314.11 38.4393L1312.74 39.2719L1334.46 74.9119L1335.83 74.0793ZM1314.11 38.4393H1312.51V87.2793H1314.11H1315.71V38.4393H1314.11ZM1314.11 87.2793V85.6793H1294.91V87.2793V88.8793H1314.11V87.2793ZM1294.91 87.2793H1296.51V3.27929H1294.91H1293.31V87.2793H1294.91ZM1294.91 3.27929V4.87929H1314.11V3.27929V1.67929H1294.91V3.27929ZM1314.11 3.27929L1312.75 4.11343L1335.55 41.4334L1336.91 40.5993L1338.28 39.7652L1315.48 2.44515L1314.11 3.27929ZM1336.91 40.5993L1338.28 41.4334L1361.08 4.11343L1359.71 3.27929L1358.35 2.44515L1335.55 39.7652L1336.91 40.5993ZM1359.71 3.27929V4.87929H1378.91V3.27929V1.67929H1359.71V3.27929ZM1445.43 87.2793L1443.9 87.7644L1445.43 88.8793V87.2793ZM1441.23 74.0793L1442.75 73.5942L1441.23 72.4793V74.0793ZM1410.03 74.0793V72.4793L1408.5 73.5942L1410.03 74.0793ZM1405.83 87.2793V88.8793L1407.35 87.7644L1405.83 87.2793ZM1384.83 87.2793L1383.31 86.7643L1384.83 88.8793V87.2793ZM1413.39 3.27929V1.67929L1411.87 2.76424L1413.39 3.27929ZM1437.87 3.27929L1439.38 2.76424L1437.87 1.67929V3.27929ZM1466.43 87.2793V88.8793L1467.94 86.7643L1466.43 87.2793ZM1415.79 56.0793L1414.26 55.5929L1415.79 57.6793V56.0793ZM1435.47 56.0793V57.6793L1436.99 55.5929L1435.47 56.0793ZM1425.63 25.2393L1427.15 24.7529H1424.1L1425.63 25.2393ZM1445.43 87.2793L1446.95 86.7942L1442.75 73.5942L1441.23 74.0793L1439.7 74.5644L1443.9 87.7644L1445.43 87.2793ZM1441.23 74.0793V72.4793H1410.03V74.0793V75.6793H1441.23V74.0793ZM1410.03 74.0793L1408.5 73.5942L1404.3 86.7942L1405.83 87.2793L1407.35 87.7644L1411.55 74.5644L1410.03 74.0793ZM1405.83 87.2793V85.6793H1384.83V87.2793V88.8793H1405.83V87.2793ZM1384.83 87.2793L1386.34 87.7943L1414.9 3.79433L1413.39 3.27929L1411.87 2.76424L1383.31 86.7643L1384.83 87.2793ZM1413.39 3.27929V4.87929H1437.87V3.27929V1.67929H1413.39V3.27929ZM1437.87 3.27929L1436.35 3.79433L1464.91 87.7943L1466.43 87.2793L1467.94 86.7643L1439.38 2.76424L1437.87 3.27929ZM1466.43 87.2793V85.6793H1445.43V87.2793V88.8793H1466.43V87.2793ZM1415.79 56.0793V57.6793H1435.47V56.0793V54.4793H1415.79V56.0793ZM1435.47 56.0793L1436.99 55.5929L1427.15 24.7529L1425.63 25.2393L1424.1 25.7256L1433.94 56.5656L1435.47 56.0793ZM1425.63 25.2393L1424.1 24.7529L1414.26 55.5929L1415.79 56.0793L1417.31 56.5656L1427.15 25.7256L1425.63 25.2393ZM1519.07 3.27929V1.67929L1517.47 3.27929H1519.07ZM1538.27 3.27929H1539.87L1538.27 1.67929V3.27929ZM1538.27 87.2793V88.8793L1539.87 87.2793H1538.27ZM1523.87 87.2793L1522.57 88.206L1523.87 88.8793V87.2793ZM1491.47 41.6793L1492.78 40.7526L1489.87 41.6793H1491.47ZM1491.47 87.2793V88.8793L1493.07 87.2793H1491.47ZM1472.27 87.2793H1470.67L1472.27 88.8793V87.2793ZM1472.27 3.27929V1.67929L1470.67 3.27929H1472.27ZM1486.67 3.27929L1487.97 2.35256L1486.67 1.67929V3.27929ZM1519.07 48.8793L1517.77 49.806L1520.67 48.8793H1519.07ZM1519.07 3.27929V4.87929H1538.27V3.27929V1.67929H1519.07V3.27929ZM1538.27 3.27929H1536.67V87.2793H1538.27H1539.87V3.27929H1538.27ZM1538.27 87.2793V85.6793H1523.87V87.2793V88.8793H1538.27V87.2793ZM1523.87 87.2793L1525.17 86.3526L1492.78 40.7526L1491.47 41.6793L1490.17 42.606L1522.57 88.206L1523.87 87.2793ZM1491.47 41.6793H1489.87V87.2793H1491.47H1493.07V41.6793H1491.47ZM1491.47 87.2793V85.6793H1472.27V87.2793V88.8793H1491.47V87.2793ZM1472.27 87.2793H1473.87V3.27929H1472.27H1470.67V87.2793H1472.27ZM1472.27 3.27929V4.87929H1486.67V3.27929V1.67929H1472.27V3.27929ZM1486.67 3.27929L1485.37 4.20602L1517.77 49.806L1519.07 48.8793L1520.38 47.9526L1487.97 2.35256L1486.67 3.27929ZM1519.07 48.8793H1520.67V3.27929H1519.07H1517.47V48.8793H1519.07ZM1627.42 21.0393L1628.22 22.4235L1628.78 20.2L1627.42 21.0393ZM1610.86 30.6393L1609.47 31.4359L1611.66 32.0235L1610.86 30.6393ZM1610.86 59.9193L1611.66 58.5351L1609.46 59.1423L1610.86 59.9193ZM1627.42 69.5193L1628.79 70.3486L1628.22 68.1351L1627.42 69.5193ZM1591.42 88.9593V87.3593C1567 87.3593 1549.34 69.1302 1549.34 45.2793H1547.74H1546.14C1546.14 70.8684 1565.2 90.5593 1591.42 90.5593V88.9593ZM1547.74 45.2793H1549.34C1549.34 21.4284 1567 3.1993 1591.42 3.1993V1.59929V-0.000709534C1565.2 -0.000709534 1546.14 19.6902 1546.14 45.2793H1547.74ZM1591.42 1.59929V3.1993C1606.13 3.1993 1619.04 10.4908 1626.06 21.8786L1627.42 21.0393L1628.78 20.2C1621.16 7.82776 1607.19 -0.000709534 1591.42 -0.000709534V1.59929ZM1627.42 21.0393L1626.62 19.6551L1610.06 29.2551L1610.86 30.6393L1611.66 32.0235L1628.22 22.4235L1627.42 21.0393ZM1610.86 30.6393L1612.25 29.8427C1608.2 22.7906 1600.42 18.7193 1591.42 18.7193V20.3193V21.9193C1599.46 21.9193 1606.08 25.528 1609.47 31.4359L1610.86 30.6393ZM1591.42 20.3193V18.7193C1583.61 18.7193 1577.06 21.3405 1572.46 26.0568C1567.86 30.7688 1565.34 37.4342 1565.34 45.2793H1566.94H1568.54C1568.54 38.1244 1570.83 32.3098 1574.75 28.2918C1578.66 24.278 1584.35 21.9193 1591.42 21.9193V20.3193ZM1566.94 45.2793H1565.34C1565.34 53.1244 1567.86 59.7898 1572.46 64.5018C1577.06 69.218 1583.61 71.8393 1591.42 71.8393V70.2393V68.6393C1584.35 68.6393 1578.66 66.2805 1574.75 62.2668C1570.83 58.2488 1568.54 52.4342 1568.54 45.2793H1566.94ZM1591.42 70.2393V71.8393C1600.41 71.8393 1608.33 67.7782 1612.26 60.6963L1610.86 59.9193L1609.46 59.1423C1606.2 65.0204 1599.48 68.6393 1591.42 68.6393V70.2393ZM1610.86 59.9193L1610.06 61.3035L1626.62 70.9035L1627.42 69.5193L1628.22 68.1351L1611.66 58.5351L1610.86 59.9193ZM1627.42 69.5193L1626.05 68.69C1619.16 80.0644 1606.25 87.3593 1591.42 87.3593V88.9593V90.5593C1607.31 90.5593 1621.28 82.7342 1628.79 70.3486L1627.42 69.5193ZM1654.3 68.7993H1652.7L1654.3 70.3993V68.7993ZM1687.9 68.7993H1689.5L1687.9 67.1993V68.7993ZM1687.9 87.2793V88.8793L1689.5 87.2793H1687.9ZM1635.1 87.2793H1633.5L1635.1 88.8793V87.2793ZM1635.1 3.27929V1.67929L1633.5 3.27929H1635.1ZM1687.3 3.27929H1688.9L1687.3 1.67929V3.27929ZM1687.3 21.7593V23.3593L1688.9 21.7593H1687.3ZM1654.3 21.7593V20.1593L1652.7 21.7593H1654.3ZM1654.3 35.6793H1652.7L1654.3 37.2793V35.6793ZM1684.3 35.6793H1685.9L1684.3 34.0793V35.6793ZM1684.3 53.9193V55.5193L1685.9 53.9193H1684.3ZM1654.3 53.9193V52.3193L1652.7 53.9193H1654.3ZM1654.3 68.7993V70.3993H1687.9V68.7993V67.1993H1654.3V68.7993ZM1687.9 68.7993H1686.3V87.2793H1687.9H1689.5V68.7993H1687.9ZM1687.9 87.2793V85.6793H1635.1V87.2793V88.8793H1687.9V87.2793ZM1635.1 87.2793H1636.7V3.27929H1635.1H1633.5V87.2793H1635.1ZM1635.1 3.27929V4.87929H1687.3V3.27929V1.67929H1635.1V3.27929ZM1687.3 3.27929H1685.7V21.7593H1687.3H1688.9V3.27929H1687.3ZM1687.3 21.7593V20.1593H1654.3V21.7593V23.3593H1687.3V21.7593ZM1654.3 21.7593H1652.7V35.6793H1654.3H1655.9V21.7593H1654.3ZM1654.3 35.6793V37.2793H1684.3V35.6793V34.0793H1654.3V35.6793ZM1684.3 35.6793H1682.7V53.9193H1684.3H1685.9V35.6793H1684.3ZM1684.3 53.9193V52.3193H1654.3V53.9193V55.5193H1684.3V53.9193ZM1654.3 53.9193H1652.7V68.7993H1654.3H1655.9V53.9193H1654.3Z" fill="white" mask="url(#path-1-outside-1_1861_890)"/>
</svg>
