<svg width="1352" height="73" viewBox="0 0 1352 73" fill="none" xmlns="http://www.w3.org/2000/svg">
<mask id="path-1-outside-1_1867_892" maskUnits="userSpaceOnUse" x="-0.359375" y="-0.0566406" width="1353" height="73" fill="black">
<rect fill="white" x="-0.359375" y="-0.0566406" width="1353" height="73"/>
<path d="M26.8406 2.74335C40.0886 2.74335 50.3606 13.0154 50.3606 25.7834C50.3606 38.5514 40.0886 48.8234 26.8406 48.8234H16.7606V69.9434H1.40063V2.74335H26.8406ZM26.8406 34.4234C31.5446 34.4234 35.0006 30.6794 35.0006 25.7834C35.0006 20.8874 31.5446 17.1434 26.8406 17.1434H16.7606V34.4234H26.8406ZM72.3296 55.1594H99.2096V69.9434H56.9696V2.74335H98.7296V17.5274H72.3296V28.6634H96.3296V43.2554H72.3296V55.1594ZM142.148 69.9434L129.476 47.8634H122.18V69.9434H106.82V2.74335H133.7C146.468 2.74335 156.74 13.0154 156.74 25.7834C156.74 34.0394 151.748 41.5274 144.356 45.2714L158.66 69.9434H142.148ZM122.18 17.1434V34.4234H133.7C137.924 34.4234 141.38 30.6794 141.38 25.7834C141.38 20.8874 137.924 17.1434 133.7 17.1434H122.18ZM205.626 17.5274H180.186V30.4874H205.146V45.2714H180.186V69.9434H164.826V2.74335H205.626V17.5274ZM245.709 71.2874C226.413 71.2874 210.765 56.1194 210.765 36.3434C210.765 16.5674 226.413 1.39935 245.709 1.39935C265.005 1.39935 280.653 16.5674 280.653 36.3434C280.653 56.1194 265.005 71.2874 245.709 71.2874ZM245.709 56.3114C256.653 56.3114 265.293 48.3434 265.293 36.3434C265.293 24.3434 256.653 16.3754 245.709 16.3754C234.765 16.3754 226.125 24.3434 226.125 36.3434C226.125 48.3434 234.765 56.3114 245.709 56.3114ZM323.574 69.9434L310.902 47.8634H303.606V69.9434H288.246V2.74335H315.126C327.894 2.74335 338.166 13.0154 338.166 25.7834C338.166 34.0394 333.174 41.5274 325.782 45.2714L340.086 69.9434H323.574ZM303.606 17.1434V34.4234H315.126C319.35 34.4234 322.806 30.6794 322.806 25.7834C322.806 20.8874 319.35 17.1434 315.126 17.1434H303.606ZM413.452 2.74335V69.9434H398.092V30.8714L380.716 59.3834H378.988L361.612 30.8714V69.9434H346.252V2.74335H361.612L379.852 32.5994L398.092 2.74335H413.452ZM466.666 69.9434L463.306 59.3834H438.346L434.986 69.9434H418.186L441.034 2.74335H460.618L483.466 69.9434H466.666ZM442.954 44.9834H458.698L450.826 20.3114L442.954 44.9834ZM525.58 2.74335H540.94V69.9434H529.42L503.5 33.4634V69.9434H488.14V2.74335H499.66L525.58 39.2234V2.74335ZM583.461 71.2874C563.205 71.2874 548.517 56.1194 548.517 36.3434C548.517 16.5674 563.205 1.39935 583.461 1.39935C595.653 1.39935 606.405 7.44736 612.261 16.9514L599.013 24.6314C596.037 19.4474 590.277 16.3754 583.461 16.3754C571.557 16.3754 563.877 24.3434 563.877 36.3434C563.877 48.3434 571.557 56.3114 583.461 56.3114C590.277 56.3114 596.133 53.2394 599.013 48.0554L612.261 55.7354C606.501 65.2394 595.749 71.2874 583.461 71.2874ZM633.763 55.1594H660.643V69.9434H618.403V2.74335H660.163V17.5274H633.763V28.6634H657.763V43.2554H633.763V55.1594ZM716.637 2.74335C729.885 2.74335 740.157 13.0154 740.157 25.7834C740.157 38.5514 729.885 48.8234 716.637 48.8234H706.557V69.9434H691.197V2.74335H716.637ZM716.637 34.4234C721.341 34.4234 724.797 30.6794 724.797 25.7834C724.797 20.8874 721.341 17.1434 716.637 17.1434H706.557V34.4234H716.637ZM762.126 55.1594H789.006V69.9434H746.766V2.74335H788.526V17.5274H762.126V28.6634H786.126V43.2554H762.126V55.1594ZM831.945 69.9434L819.273 47.8634H811.977V69.9434H796.617V2.74335H823.497C836.265 2.74335 846.537 13.0154 846.537 25.7834C846.537 34.0394 841.545 41.5274 834.153 45.2714L848.457 69.9434H831.945ZM811.977 17.1434V34.4234H823.497C827.721 34.4234 831.177 30.6794 831.177 25.7834C831.177 20.8874 827.721 17.1434 823.497 17.1434H811.977ZM895.423 17.5274H869.983V30.4874H894.943V45.2714H869.983V69.9434H854.623V2.74335H895.423V17.5274ZM935.506 71.2874C916.21 71.2874 900.562 56.1194 900.562 36.3434C900.562 16.5674 916.21 1.39935 935.506 1.39935C954.802 1.39935 970.45 16.5674 970.45 36.3434C970.45 56.1194 954.802 71.2874 935.506 71.2874ZM935.506 56.3114C946.45 56.3114 955.09 48.3434 955.09 36.3434C955.09 24.3434 946.45 16.3754 935.506 16.3754C924.562 16.3754 915.922 24.3434 915.922 36.3434C915.922 48.3434 924.562 56.3114 935.506 56.3114ZM1013.37 69.9434L1000.7 47.8634H993.402V69.9434H978.042V2.74335H1004.92C1017.69 2.74335 1027.96 13.0154 1027.96 25.7834C1027.96 34.0394 1022.97 41.5274 1015.58 45.2714L1029.88 69.9434H1013.37ZM993.402 17.1434V34.4234H1004.92C1009.15 34.4234 1012.6 30.6794 1012.6 25.7834C1012.6 20.8874 1009.15 17.1434 1004.92 17.1434H993.402ZM1103.25 2.74335V69.9434H1087.89V30.8714L1070.51 59.3834H1068.78L1051.41 30.8714V69.9434H1036.05V2.74335H1051.41L1069.65 32.5994L1087.89 2.74335H1103.25ZM1156.46 69.9434L1153.1 59.3834H1128.14L1124.78 69.9434H1107.98L1130.83 2.74335H1150.41L1173.26 69.9434H1156.46ZM1132.75 44.9834H1148.49L1140.62 20.3114L1132.75 44.9834ZM1215.38 2.74335H1230.74V69.9434H1219.22L1193.3 33.4634V69.9434H1177.94V2.74335H1189.46L1215.38 39.2234V2.74335ZM1273.26 71.2874C1253 71.2874 1238.31 56.1194 1238.31 36.3434C1238.31 16.5674 1253 1.39935 1273.26 1.39935C1285.45 1.39935 1296.2 7.44736 1302.06 16.9514L1288.81 24.6314C1285.83 19.4474 1280.07 16.3754 1273.26 16.3754C1261.35 16.3754 1253.67 24.3434 1253.67 36.3434C1253.67 48.3434 1261.35 56.3114 1273.26 56.3114C1280.07 56.3114 1285.93 53.2394 1288.81 48.0554L1302.06 55.7354C1296.3 65.2394 1285.55 71.2874 1273.26 71.2874ZM1323.56 55.1594H1350.44V69.9434H1308.2V2.74335H1349.96V17.5274H1323.56V28.6634H1347.56V43.2554H1323.56V55.1594Z"/>
</mask>
<path d="M16.7606 48.8234V47.4234L15.3606 48.8234H16.7606ZM16.7606 69.9434V71.3434L18.1606 69.9434H16.7606ZM1.40063 69.9434H0.000625134L1.40063 71.3434V69.9434ZM1.40063 2.74335V1.34335L0.000625134 2.74335H1.40063ZM16.7606 17.1434V15.7434L15.3606 17.1434H16.7606ZM16.7606 34.4234H15.3606L16.7606 35.8234V34.4234ZM26.8406 2.74335V4.14336C39.3344 4.14336 48.9606 13.8074 48.9606 25.7834H50.3606H51.7606C51.7606 12.2233 40.8429 1.34335 26.8406 1.34335V2.74335ZM50.3606 25.7834H48.9606C48.9606 37.7593 39.3344 47.4234 26.8406 47.4234V48.8234V50.2234C40.8429 50.2234 51.7606 39.3434 51.7606 25.7834H50.3606ZM26.8406 48.8234V47.4234H16.7606V48.8234V50.2234H26.8406V48.8234ZM16.7606 48.8234H15.3606V69.9434H16.7606H18.1606V48.8234H16.7606ZM16.7606 69.9434V68.5434H1.40063V69.9434V71.3434H16.7606V69.9434ZM1.40063 69.9434H2.80063V2.74335H1.40063H0.000625134V69.9434H1.40063ZM1.40063 2.74335V4.14336H26.8406V2.74335V1.34335H1.40063V2.74335ZM26.8406 34.4234V35.8234C32.4009 35.8234 36.4006 31.3668 36.4006 25.7834H35.0006H33.6006C33.6006 29.9919 30.6883 33.0234 26.8406 33.0234V34.4234ZM35.0006 25.7834H36.4006C36.4006 20.1999 32.4009 15.7434 26.8406 15.7434V17.1434V18.5434C30.6883 18.5434 33.6006 21.5748 33.6006 25.7834H35.0006ZM26.8406 17.1434V15.7434H16.7606V17.1434V18.5434H26.8406V17.1434ZM16.7606 17.1434H15.3606V34.4234H16.7606H18.1606V17.1434H16.7606ZM16.7606 34.4234V35.8234H26.8406V34.4234V33.0234H16.7606V34.4234ZM72.3296 55.1594H70.9296L72.3296 56.5594V55.1594ZM99.2096 55.1594H100.61L99.2096 53.7594V55.1594ZM99.2096 69.9434V71.3434L100.61 69.9434H99.2096ZM56.9696 69.9434H55.5696L56.9696 71.3434V69.9434ZM56.9696 2.74335V1.34335L55.5696 2.74335H56.9696ZM98.7296 2.74335H100.13L98.7296 1.34335V2.74335ZM98.7296 17.5274V18.9274L100.13 17.5274H98.7296ZM72.3296 17.5274V16.1274L70.9296 17.5274H72.3296ZM72.3296 28.6634H70.9296L72.3296 30.0634V28.6634ZM96.3296 28.6634H97.7296L96.3296 27.2634V28.6634ZM96.3296 43.2554V44.6554L97.7296 43.2554H96.3296ZM72.3296 43.2554V41.8554L70.9296 43.2554H72.3296ZM72.3296 55.1594V56.5594H99.2096V55.1594V53.7594H72.3296V55.1594ZM99.2096 55.1594H97.8096V69.9434H99.2096H100.61V55.1594H99.2096ZM99.2096 69.9434V68.5434H56.9696V69.9434V71.3434H99.2096V69.9434ZM56.9696 69.9434H58.3696V2.74335H56.9696H55.5696V69.9434H56.9696ZM56.9696 2.74335V4.14336H98.7296V2.74335V1.34335H56.9696V2.74335ZM98.7296 2.74335H97.3296V17.5274H98.7296H100.13V2.74335H98.7296ZM98.7296 17.5274V16.1274H72.3296V17.5274V18.9274H98.7296V17.5274ZM72.3296 17.5274H70.9296V28.6634H72.3296H73.7296V17.5274H72.3296ZM72.3296 28.6634V30.0634H96.3296V28.6634V27.2634H72.3296V28.6634ZM96.3296 28.6634H94.9296V43.2554H96.3296H97.7296V28.6634H96.3296ZM96.3296 43.2554V41.8554H72.3296V43.2554V44.6554H96.3296V43.2554ZM72.3296 43.2554H70.9296V55.1594H72.3296H73.7296V43.2554H72.3296ZM142.148 69.9434L140.934 70.6402L142.148 71.3434V69.9434ZM129.476 47.8634L130.69 47.1665L129.476 46.4634V47.8634ZM122.18 47.8634V46.4634L120.78 47.8634H122.18ZM122.18 69.9434V71.3434L123.58 69.9434H122.18ZM106.82 69.9434H105.42L106.82 71.3434V69.9434ZM106.82 2.74335V1.34335L105.42 2.74335H106.82ZM144.356 45.2714L143.723 44.0224L143.145 45.9736L144.356 45.2714ZM158.66 69.9434V71.3434L159.871 69.2412L158.66 69.9434ZM122.18 17.1434V15.7434L120.78 17.1434H122.18ZM122.18 34.4234H120.78L122.18 35.8234V34.4234ZM142.148 69.9434L143.362 69.2465L130.69 47.1665L129.476 47.8634L128.262 48.5602L140.934 70.6402L142.148 69.9434ZM129.476 47.8634V46.4634H122.18V47.8634V49.2634H129.476V47.8634ZM122.18 47.8634H120.78V69.9434H122.18H123.58V47.8634H122.18ZM122.18 69.9434V68.5434H106.82V69.9434V71.3434H122.18V69.9434ZM106.82 69.9434H108.22V2.74335H106.82H105.42V69.9434H106.82ZM106.82 2.74335V4.14336H133.7V2.74335V1.34335H106.82V2.74335ZM133.7 2.74335V4.14336C145.695 4.14336 155.34 13.7886 155.34 25.7834H156.74H158.14C158.14 12.2422 147.241 1.34335 133.7 1.34335V2.74335ZM156.74 25.7834H155.34C155.34 33.4659 150.687 40.4954 143.723 44.0224L144.356 45.2714L144.988 46.5203C152.809 42.5593 158.14 34.6128 158.14 25.7834H156.74ZM144.356 45.2714L143.145 45.9736L157.449 70.6456L158.66 69.9434L159.871 69.2412L145.567 44.5692L144.356 45.2714ZM158.66 69.9434V68.5434H142.148V69.9434V71.3434H158.66V69.9434ZM122.18 17.1434H120.78V34.4234H122.18H123.58V17.1434H122.18ZM122.18 34.4234V35.8234H133.7V34.4234V33.0234H122.18V34.4234ZM133.7 34.4234V35.8234C138.833 35.8234 142.78 31.309 142.78 25.7834H141.38H139.98C139.98 30.0497 137.015 33.0234 133.7 33.0234V34.4234ZM141.38 25.7834H142.78C142.78 20.2577 138.833 15.7434 133.7 15.7434V17.1434V18.5434C137.015 18.5434 139.98 21.517 139.98 25.7834H141.38ZM133.7 17.1434V15.7434H122.18V17.1434V18.5434H133.7V17.1434ZM205.626 17.5274V18.9274L207.026 17.5274H205.626ZM180.186 17.5274V16.1274L178.786 17.5274H180.186ZM180.186 30.4874H178.786L180.186 31.8874V30.4874ZM205.146 30.4874H206.546L205.146 29.0874V30.4874ZM205.146 45.2714V46.6714L206.546 45.2714H205.146ZM180.186 45.2714V43.8714L178.786 45.2714H180.186ZM180.186 69.9434V71.3434L181.586 69.9434H180.186ZM164.826 69.9434H163.426L164.826 71.3434V69.9434ZM164.826 2.74335V1.34335L163.426 2.74335H164.826ZM205.626 2.74335H207.026L205.626 1.34335V2.74335ZM205.626 17.5274V16.1274H180.186V17.5274V18.9274H205.626V17.5274ZM180.186 17.5274H178.786V30.4874H180.186H181.586V17.5274H180.186ZM180.186 30.4874V31.8874H205.146V30.4874V29.0874H180.186V30.4874ZM205.146 30.4874H203.746V45.2714H205.146H206.546V30.4874H205.146ZM205.146 45.2714V43.8714H180.186V45.2714V46.6714H205.146V45.2714ZM180.186 45.2714H178.786V69.9434H180.186H181.586V45.2714H180.186ZM180.186 69.9434V68.5434H164.826V69.9434V71.3434H180.186V69.9434ZM164.826 69.9434H166.226V2.74335H164.826H163.426V69.9434H164.826ZM164.826 2.74335V4.14336H205.626V2.74335V1.34335H164.826V2.74335ZM205.626 2.74335H204.226V17.5274H205.626H207.026V2.74335H205.626ZM245.709 71.2874V69.8874C227.174 69.8874 212.165 55.3336 212.165 36.3434H210.765H209.365C209.365 56.9051 225.653 72.6874 245.709 72.6874V71.2874ZM210.765 36.3434H212.165C212.165 17.3531 227.174 2.79935 245.709 2.79935V1.39935V-0.000648499C225.653 -0.000648499 209.365 15.7816 209.365 36.3434H210.765ZM245.709 1.39935V2.79935C264.245 2.79935 279.253 17.3531 279.253 36.3434H280.653H282.053C282.053 15.7816 265.766 -0.000648499 245.709 -0.000648499V1.39935ZM280.653 36.3434H279.253C279.253 55.3336 264.245 69.8874 245.709 69.8874V71.2874V72.6874C265.766 72.6874 282.053 56.9051 282.053 36.3434H280.653ZM245.709 56.3114V57.7114C257.413 57.7114 266.693 49.1301 266.693 36.3434H265.293H263.893C263.893 47.5567 255.894 54.9114 245.709 54.9114V56.3114ZM265.293 36.3434H266.693C266.693 23.5567 257.413 14.9754 245.709 14.9754V16.3754V17.7754C255.894 17.7754 263.893 25.1301 263.893 36.3434H265.293ZM245.709 16.3754V14.9754C234.006 14.9754 224.725 23.5567 224.725 36.3434H226.125H227.525C227.525 25.1301 235.525 17.7754 245.709 17.7754V16.3754ZM226.125 36.3434H224.725C224.725 49.1301 234.006 57.7114 245.709 57.7114V56.3114V54.9114C235.525 54.9114 227.525 47.5567 227.525 36.3434H226.125ZM323.574 69.9434L322.359 70.6402L323.574 71.3434V69.9434ZM310.902 47.8634L312.116 47.1665L310.902 46.4634V47.8634ZM303.606 47.8634V46.4634L302.206 47.8634H303.606ZM303.606 69.9434V71.3434L305.006 69.9434H303.606ZM288.246 69.9434H286.846L288.246 71.3434V69.9434ZM288.246 2.74335V1.34335L286.846 2.74335H288.246ZM325.782 45.2714L325.149 44.0224L324.57 45.9736L325.782 45.2714ZM340.086 69.9434V71.3434L341.297 69.2412L340.086 69.9434ZM303.606 17.1434V15.7434L302.206 17.1434H303.606ZM303.606 34.4234H302.206L303.606 35.8234V34.4234ZM323.574 69.9434L324.788 69.2465L312.116 47.1665L310.902 47.8634L309.687 48.5602L322.359 70.6402L323.574 69.9434ZM310.902 47.8634V46.4634H303.606V47.8634V49.2634H310.902V47.8634ZM303.606 47.8634H302.206V69.9434H303.606H305.006V47.8634H303.606ZM303.606 69.9434V68.5434H288.246V69.9434V71.3434H303.606V69.9434ZM288.246 69.9434H289.646V2.74335H288.246H286.846V69.9434H288.246ZM288.246 2.74335V4.14336H315.126V2.74335V1.34335H288.246V2.74335ZM315.126 2.74335V4.14336C327.12 4.14336 336.766 13.7886 336.766 25.7834H338.166H339.566C339.566 12.2422 328.667 1.34335 315.126 1.34335V2.74335ZM338.166 25.7834H336.766C336.766 33.4659 332.113 40.4954 325.149 44.0224L325.782 45.2714L326.414 46.5203C334.235 42.5593 339.566 34.6128 339.566 25.7834H338.166ZM325.782 45.2714L324.57 45.9736L338.874 70.6456L340.086 69.9434L341.297 69.2412L326.993 44.5692L325.782 45.2714ZM340.086 69.9434V68.5434H323.574V69.9434V71.3434H340.086V69.9434ZM303.606 17.1434H302.206V34.4234H303.606H305.006V17.1434H303.606ZM303.606 34.4234V35.8234H315.126V34.4234V33.0234H303.606V34.4234ZM315.126 34.4234V35.8234C320.259 35.8234 324.206 31.309 324.206 25.7834H322.806H321.406C321.406 30.0497 318.44 33.0234 315.126 33.0234V34.4234ZM322.806 25.7834H324.206C324.206 20.2577 320.259 15.7434 315.126 15.7434V17.1434V18.5434C318.44 18.5434 321.406 21.517 321.406 25.7834H322.806ZM315.126 17.1434V15.7434H303.606V17.1434V18.5434H315.126V17.1434ZM413.452 2.74335H414.852L413.452 1.34335V2.74335ZM413.452 69.9434V71.3434L414.852 69.9434H413.452ZM398.092 69.9434H396.692L398.092 71.3434V69.9434ZM398.092 30.8714H399.492L396.897 30.1428L398.092 30.8714ZM380.716 59.3834V60.7834L381.912 60.1119L380.716 59.3834ZM378.988 59.3834L377.793 60.1119L378.988 60.7834V59.3834ZM361.612 30.8714L362.808 30.1428L360.212 30.8714H361.612ZM361.612 69.9434V71.3434L363.012 69.9434H361.612ZM346.252 69.9434H344.852L346.252 71.3434V69.9434ZM346.252 2.74335V1.34335L344.852 2.74335H346.252ZM361.612 2.74335L362.807 2.01348L361.612 1.34335V2.74335ZM379.852 32.5994L378.657 33.3292H381.047L379.852 32.5994ZM398.092 2.74335V1.34335L396.897 2.01348L398.092 2.74335ZM413.452 2.74335H412.052V69.9434H413.452H414.852V2.74335H413.452ZM413.452 69.9434V68.5434H398.092V69.9434V71.3434H413.452V69.9434ZM398.092 69.9434H399.492V30.8714H398.092H396.692V69.9434H398.092ZM398.092 30.8714L396.897 30.1428L379.521 58.6548L380.716 59.3834L381.912 60.1119L399.288 31.5999L398.092 30.8714ZM380.716 59.3834V57.9834H378.988V59.3834V60.7834H380.716V59.3834ZM378.988 59.3834L380.184 58.6548L362.808 30.1428L361.612 30.8714L360.417 31.5999L377.793 60.1119L378.988 59.3834ZM361.612 30.8714H360.212V69.9434H361.612H363.012V30.8714H361.612ZM361.612 69.9434V68.5434H346.252V69.9434V71.3434H361.612V69.9434ZM346.252 69.9434H347.652V2.74335H346.252H344.852V69.9434H346.252ZM346.252 2.74335V4.14336H361.612V2.74335V1.34335H346.252V2.74335ZM361.612 2.74335L360.417 3.47323L378.657 33.3292L379.852 32.5994L381.047 31.8695L362.807 2.01348L361.612 2.74335ZM379.852 32.5994L381.047 33.3292L399.287 3.47323L398.092 2.74335L396.897 2.01348L378.657 31.8695L379.852 32.5994ZM398.092 2.74335V4.14336H413.452V2.74335V1.34335H398.092V2.74335ZM466.666 69.9434L465.332 70.3678L466.666 71.3434V69.9434ZM463.306 59.3834L464.64 58.9589L463.306 57.9834V59.3834ZM438.346 59.3834V57.9834L437.012 58.9589L438.346 59.3834ZM434.986 69.9434V71.3434L436.32 70.3678L434.986 69.9434ZM418.186 69.9434L416.861 69.4927L418.186 71.3434V69.9434ZM441.034 2.74335V1.34335L439.709 2.29269L441.034 2.74335ZM460.618 2.74335L461.944 2.29269L460.618 1.34335V2.74335ZM483.466 69.9434V71.3434L484.792 69.4927L483.466 69.9434ZM442.954 44.9834L441.62 44.5578L442.954 46.3834V44.9834ZM458.698 44.9834V46.3834L460.032 44.5578L458.698 44.9834ZM450.826 20.3114L452.16 19.8858H449.492L450.826 20.3114ZM466.666 69.9434L468 69.5189L464.64 58.9589L463.306 59.3834L461.972 59.8078L465.332 70.3678L466.666 69.9434ZM463.306 59.3834V57.9834H438.346V59.3834V60.7834H463.306V59.3834ZM438.346 59.3834L437.012 58.9589L433.652 69.5189L434.986 69.9434L436.32 70.3678L439.68 59.8078L438.346 59.3834ZM434.986 69.9434V68.5434H418.186V69.9434V71.3434H434.986V69.9434ZM418.186 69.9434L419.512 70.394L442.36 3.19402L441.034 2.74335L439.709 2.29269L416.861 69.4927L418.186 69.9434ZM441.034 2.74335V4.14336H460.618V2.74335V1.34335H441.034V2.74335ZM460.618 2.74335L459.293 3.19402L482.141 70.394L483.466 69.9434L484.792 69.4927L461.944 2.29269L460.618 2.74335ZM483.466 69.9434V68.5434H466.666V69.9434V71.3434H483.466V69.9434ZM442.954 44.9834V46.3834H458.698V44.9834V43.5834H442.954V44.9834ZM458.698 44.9834L460.032 44.5578L452.16 19.8858L450.826 20.3114L449.492 20.7369L457.364 45.4089L458.698 44.9834ZM450.826 20.3114L449.492 19.8858L441.62 44.5578L442.954 44.9834L444.288 45.4089L452.16 20.7369L450.826 20.3114ZM525.58 2.74335V1.34335L524.18 2.74335H525.58ZM540.94 2.74335H542.34L540.94 1.34335V2.74335ZM540.94 69.9434V71.3434L542.34 69.9434H540.94ZM529.42 69.9434L528.279 70.7542L529.42 71.3434V69.9434ZM503.5 33.4634L504.641 32.6525L502.1 33.4634H503.5ZM503.5 69.9434V71.3434L504.9 69.9434H503.5ZM488.14 69.9434H486.74L488.14 71.3434V69.9434ZM488.14 2.74335V1.34335L486.74 2.74335H488.14ZM499.66 2.74335L500.801 1.93246L499.66 1.34335V2.74335ZM525.58 39.2234L524.439 40.0342L526.98 39.2234H525.58ZM525.58 2.74335V4.14336H540.94V2.74335V1.34335H525.58V2.74335ZM540.94 2.74335H539.54V69.9434H540.94H542.34V2.74335H540.94ZM540.94 69.9434V68.5434H529.42V69.9434V71.3434H540.94V69.9434ZM529.42 69.9434L530.561 69.1325L504.641 32.6525L503.5 33.4634L502.359 34.2742L528.279 70.7542L529.42 69.9434ZM503.5 33.4634H502.1V69.9434H503.5H504.9V33.4634H503.5ZM503.5 69.9434V68.5434H488.14V69.9434V71.3434H503.5V69.9434ZM488.14 69.9434H489.54V2.74335H488.14H486.74V69.9434H488.14ZM488.14 2.74335V4.14336H499.66V2.74335V1.34335H488.14V2.74335ZM499.66 2.74335L498.519 3.55424L524.439 40.0342L525.58 39.2234L526.721 38.4125L500.801 1.93246L499.66 2.74335ZM525.58 39.2234H526.98V2.74335H525.58H524.18V39.2234H525.58ZM612.261 16.9514L612.963 18.1626L613.453 16.2169L612.261 16.9514ZM599.013 24.6314L597.798 25.3284L599.715 25.8426L599.013 24.6314ZM599.013 48.0554L599.715 46.8442L597.789 47.3755L599.013 48.0554ZM612.261 55.7354L613.458 56.461L612.963 54.5242L612.261 55.7354ZM583.461 71.2874V69.8874C563.99 69.8874 549.917 55.3589 549.917 36.3434H548.517H547.117C547.117 56.8798 562.419 72.6874 583.461 72.6874V71.2874ZM548.517 36.3434H549.917C549.917 17.3278 563.99 2.79935 583.461 2.79935V1.39935V-0.000648499C562.419 -0.000648499 547.117 15.8069 547.117 36.3434H548.517ZM583.461 1.39935V2.79935C595.187 2.79935 605.478 8.61245 611.069 17.6858L612.261 16.9514L613.453 16.2169C607.331 6.28226 596.118 -0.000648499 583.461 -0.000648499V1.39935ZM612.261 16.9514L611.558 15.7402L598.31 23.4202L599.013 24.6314L599.715 25.8426L612.963 18.1626L612.261 16.9514ZM599.013 24.6314L600.227 23.9343C596.963 18.2498 590.697 14.9754 583.461 14.9754V16.3754V17.7754C589.856 17.7754 595.11 20.6449 597.798 25.3284L599.013 24.6314ZM583.461 16.3754V14.9754C577.187 14.9754 571.911 17.0822 568.203 20.8815C564.498 24.6772 562.477 30.0414 562.477 36.3434H563.877H565.277C565.277 30.6453 567.095 26.0256 570.207 22.8372C573.315 19.6525 577.83 17.7754 583.461 17.7754V16.3754ZM563.877 36.3434H562.477C562.477 42.6453 564.498 48.0096 568.203 51.8052C571.911 55.6045 577.187 57.7114 583.461 57.7114V56.3114V54.9114C577.83 54.9114 573.315 53.0342 570.207 49.8495C567.095 46.6612 565.277 42.0414 565.277 36.3434H563.877ZM583.461 56.3114V57.7114C590.684 57.7114 597.064 54.4459 600.236 48.7353L599.013 48.0554L597.789 47.3755C595.201 52.0328 589.87 54.9114 583.461 54.9114V56.3114ZM599.013 48.0554L598.31 49.2666L611.558 56.9466L612.261 55.7354L612.963 54.5242L599.715 46.8442L599.013 48.0554ZM612.261 55.7354L611.063 55.0097C605.571 64.0713 595.287 69.8874 583.461 69.8874V71.2874V72.6874C596.21 72.6874 607.43 66.4074 613.458 56.461L612.261 55.7354ZM633.763 55.1594H632.363L633.763 56.5594V55.1594ZM660.643 55.1594H662.043L660.643 53.7594V55.1594ZM660.643 69.9434V71.3434L662.043 69.9434H660.643ZM618.403 69.9434H617.003L618.403 71.3434V69.9434ZM618.403 2.74335V1.34335L617.003 2.74335H618.403ZM660.163 2.74335H661.563L660.163 1.34335V2.74335ZM660.163 17.5274V18.9274L661.563 17.5274H660.163ZM633.763 17.5274V16.1274L632.363 17.5274H633.763ZM633.763 28.6634H632.363L633.763 30.0634V28.6634ZM657.763 28.6634H659.163L657.763 27.2634V28.6634ZM657.763 43.2554V44.6554L659.163 43.2554H657.763ZM633.763 43.2554V41.8554L632.363 43.2554H633.763ZM633.763 55.1594V56.5594H660.643V55.1594V53.7594H633.763V55.1594ZM660.643 55.1594H659.243V69.9434H660.643H662.043V55.1594H660.643ZM660.643 69.9434V68.5434H618.403V69.9434V71.3434H660.643V69.9434ZM618.403 69.9434H619.803V2.74335H618.403H617.003V69.9434H618.403ZM618.403 2.74335V4.14336H660.163V2.74335V1.34335H618.403V2.74335ZM660.163 2.74335H658.763V17.5274H660.163H661.563V2.74335H660.163ZM660.163 17.5274V16.1274H633.763V17.5274V18.9274H660.163V17.5274ZM633.763 17.5274H632.363V28.6634H633.763H635.163V17.5274H633.763ZM633.763 28.6634V30.0634H657.763V28.6634V27.2634H633.763V28.6634ZM657.763 28.6634H656.363V43.2554H657.763H659.163V28.6634H657.763ZM657.763 43.2554V41.8554H633.763V43.2554V44.6554H657.763V43.2554ZM633.763 43.2554H632.363V55.1594H633.763H635.163V43.2554H633.763ZM706.557 48.8234V47.4234L705.157 48.8234H706.557ZM706.557 69.9434V71.3434L707.957 69.9434H706.557ZM691.197 69.9434H689.797L691.197 71.3434V69.9434ZM691.197 2.74335V1.34335L689.797 2.74335H691.197ZM706.557 17.1434V15.7434L705.157 17.1434H706.557ZM706.557 34.4234H705.157L706.557 35.8234V34.4234ZM716.637 2.74335V4.14336C729.131 4.14336 738.757 13.8074 738.757 25.7834H740.157H741.557C741.557 12.2233 730.64 1.34335 716.637 1.34335V2.74335ZM740.157 25.7834H738.757C738.757 37.7593 729.131 47.4234 716.637 47.4234V48.8234V50.2234C730.64 50.2234 741.557 39.3434 741.557 25.7834H740.157ZM716.637 48.8234V47.4234H706.557V48.8234V50.2234H716.637V48.8234ZM706.557 48.8234H705.157V69.9434H706.557H707.957V48.8234H706.557ZM706.557 69.9434V68.5434H691.197V69.9434V71.3434H706.557V69.9434ZM691.197 69.9434H692.597V2.74335H691.197H689.797V69.9434H691.197ZM691.197 2.74335V4.14336H716.637V2.74335V1.34335H691.197V2.74335ZM716.637 34.4234V35.8234C722.198 35.8234 726.197 31.3668 726.197 25.7834H724.797H723.397C723.397 29.9919 720.485 33.0234 716.637 33.0234V34.4234ZM724.797 25.7834H726.197C726.197 20.1999 722.198 15.7434 716.637 15.7434V17.1434V18.5434C720.485 18.5434 723.397 21.5748 723.397 25.7834H724.797ZM716.637 17.1434V15.7434H706.557V17.1434V18.5434H716.637V17.1434ZM706.557 17.1434H705.157V34.4234H706.557H707.957V17.1434H706.557ZM706.557 34.4234V35.8234H716.637V34.4234V33.0234H706.557V34.4234ZM762.126 55.1594H760.726L762.126 56.5594V55.1594ZM789.006 55.1594H790.406L789.006 53.7594V55.1594ZM789.006 69.9434V71.3434L790.406 69.9434H789.006ZM746.766 69.9434H745.366L746.766 71.3434V69.9434ZM746.766 2.74335V1.34335L745.366 2.74335H746.766ZM788.526 2.74335H789.926L788.526 1.34335V2.74335ZM788.526 17.5274V18.9274L789.926 17.5274H788.526ZM762.126 17.5274V16.1274L760.726 17.5274H762.126ZM762.126 28.6634H760.726L762.126 30.0634V28.6634ZM786.126 28.6634H787.526L786.126 27.2634V28.6634ZM786.126 43.2554V44.6554L787.526 43.2554H786.126ZM762.126 43.2554V41.8554L760.726 43.2554H762.126ZM762.126 55.1594V56.5594H789.006V55.1594V53.7594H762.126V55.1594ZM789.006 55.1594H787.606V69.9434H789.006H790.406V55.1594H789.006ZM789.006 69.9434V68.5434H746.766V69.9434V71.3434H789.006V69.9434ZM746.766 69.9434H748.166V2.74335H746.766H745.366V69.9434H746.766ZM746.766 2.74335V4.14336H788.526V2.74335V1.34335H746.766V2.74335ZM788.526 2.74335H787.126V17.5274H788.526H789.926V2.74335H788.526ZM788.526 17.5274V16.1274H762.126V17.5274V18.9274H788.526V17.5274ZM762.126 17.5274H760.726V28.6634H762.126H763.526V17.5274H762.126ZM762.126 28.6634V30.0634H786.126V28.6634V27.2634H762.126V28.6634ZM786.126 28.6634H784.726V43.2554H786.126H787.526V28.6634H786.126ZM786.126 43.2554V41.8554H762.126V43.2554V44.6554H786.126V43.2554ZM762.126 43.2554H760.726V55.1594H762.126H763.526V43.2554H762.126ZM831.945 69.9434L830.73 70.6402L831.945 71.3434V69.9434ZM819.273 47.8634L820.487 47.1665L819.273 46.4634V47.8634ZM811.977 47.8634V46.4634L810.577 47.8634H811.977ZM811.977 69.9434V71.3434L813.377 69.9434H811.977ZM796.617 69.9434H795.217L796.617 71.3434V69.9434ZM796.617 2.74335V1.34335L795.217 2.74335H796.617ZM834.153 45.2714L833.52 44.0224L832.941 45.9736L834.153 45.2714ZM848.457 69.9434V71.3434L849.668 69.2412L848.457 69.9434ZM811.977 17.1434V15.7434L810.577 17.1434H811.977ZM811.977 34.4234H810.577L811.977 35.8234V34.4234ZM831.945 69.9434L833.159 69.2465L820.487 47.1665L819.273 47.8634L818.058 48.5602L830.73 70.6402L831.945 69.9434ZM819.273 47.8634V46.4634H811.977V47.8634V49.2634H819.273V47.8634ZM811.977 47.8634H810.577V69.9434H811.977H813.377V47.8634H811.977ZM811.977 69.9434V68.5434H796.617V69.9434V71.3434H811.977V69.9434ZM796.617 69.9434H798.017V2.74335H796.617H795.217V69.9434H796.617ZM796.617 2.74335V4.14336H823.497V2.74335V1.34335H796.617V2.74335ZM823.497 2.74335V4.14336C835.491 4.14336 845.137 13.7886 845.137 25.7834H846.537H847.937C847.937 12.2422 837.038 1.34335 823.497 1.34335V2.74335ZM846.537 25.7834H845.137C845.137 33.4659 840.484 40.4954 833.52 44.0224L834.153 45.2714L834.785 46.5203C842.606 42.5593 847.937 34.6128 847.937 25.7834H846.537ZM834.153 45.2714L832.941 45.9736L847.245 70.6456L848.457 69.9434L849.668 69.2412L835.364 44.5692L834.153 45.2714ZM848.457 69.9434V68.5434H831.945V69.9434V71.3434H848.457V69.9434ZM811.977 17.1434H810.577V34.4234H811.977H813.377V17.1434H811.977ZM811.977 34.4234V35.8234H823.497V34.4234V33.0234H811.977V34.4234ZM823.497 34.4234V35.8234C828.63 35.8234 832.577 31.309 832.577 25.7834H831.177H829.777C829.777 30.0497 826.811 33.0234 823.497 33.0234V34.4234ZM831.177 25.7834H832.577C832.577 20.2577 828.63 15.7434 823.497 15.7434V17.1434V18.5434C826.811 18.5434 829.777 21.517 829.777 25.7834H831.177ZM823.497 17.1434V15.7434H811.977V17.1434V18.5434H823.497V17.1434ZM895.423 17.5274V18.9274L896.823 17.5274H895.423ZM869.983 17.5274V16.1274L868.583 17.5274H869.983ZM869.983 30.4874H868.583L869.983 31.8874V30.4874ZM894.943 30.4874H896.343L894.943 29.0874V30.4874ZM894.943 45.2714V46.6714L896.343 45.2714H894.943ZM869.983 45.2714V43.8714L868.583 45.2714H869.983ZM869.983 69.9434V71.3434L871.383 69.9434H869.983ZM854.623 69.9434H853.223L854.623 71.3434V69.9434ZM854.623 2.74335V1.34335L853.223 2.74335H854.623ZM895.423 2.74335H896.823L895.423 1.34335V2.74335ZM895.423 17.5274V16.1274H869.983V17.5274V18.9274H895.423V17.5274ZM869.983 17.5274H868.583V30.4874H869.983H871.383V17.5274H869.983ZM869.983 30.4874V31.8874H894.943V30.4874V29.0874H869.983V30.4874ZM894.943 30.4874H893.543V45.2714H894.943H896.343V30.4874H894.943ZM894.943 45.2714V43.8714H869.983V45.2714V46.6714H894.943V45.2714ZM869.983 45.2714H868.583V69.9434H869.983H871.383V45.2714H869.983ZM869.983 69.9434V68.5434H854.623V69.9434V71.3434H869.983V69.9434ZM854.623 69.9434H856.023V2.74335H854.623H853.223V69.9434H854.623ZM854.623 2.74335V4.14336H895.423V2.74335V1.34335H854.623V2.74335ZM895.423 2.74335H894.023V17.5274H895.423H896.823V2.74335H895.423ZM935.506 71.2874V69.8874C916.971 69.8874 901.962 55.3336 901.962 36.3434H900.562H899.162C899.162 56.9051 915.45 72.6874 935.506 72.6874V71.2874ZM900.562 36.3434H901.962C901.962 17.3531 916.971 2.79935 935.506 2.79935V1.39935V-0.000648499C915.45 -0.000648499 899.162 15.7816 899.162 36.3434H900.562ZM935.506 1.39935V2.79935C954.042 2.79935 969.05 17.3531 969.05 36.3434H970.45H971.85C971.85 15.7816 955.563 -0.000648499 935.506 -0.000648499V1.39935ZM970.45 36.3434H969.05C969.05 55.3336 954.042 69.8874 935.506 69.8874V71.2874V72.6874C955.563 72.6874 971.85 56.9051 971.85 36.3434H970.45ZM935.506 56.3114V57.7114C947.21 57.7114 956.49 49.1301 956.49 36.3434H955.09H953.69C953.69 47.5567 945.69 54.9114 935.506 54.9114V56.3114ZM955.09 36.3434H956.49C956.49 23.5567 947.21 14.9754 935.506 14.9754V16.3754V17.7754C945.69 17.7754 953.69 25.1301 953.69 36.3434H955.09ZM935.506 16.3754V14.9754C923.802 14.9754 914.522 23.5567 914.522 36.3434H915.922H917.322C917.322 25.1301 925.322 17.7754 935.506 17.7754V16.3754ZM915.922 36.3434H914.522C914.522 49.1301 923.802 57.7114 935.506 57.7114V56.3114V54.9114C925.322 54.9114 917.322 47.5567 917.322 36.3434H915.922ZM1013.37 69.9434L1012.16 70.6402L1013.37 71.3434V69.9434ZM1000.7 47.8634L1001.91 47.1665L1000.7 46.4634V47.8634ZM993.402 47.8634V46.4634L992.002 47.8634H993.402ZM993.402 69.9434V71.3434L994.802 69.9434H993.402ZM978.042 69.9434H976.642L978.042 71.3434V69.9434ZM978.042 2.74335V1.34335L976.642 2.74335H978.042ZM1015.58 45.2714L1014.95 44.0224L1014.37 45.9736L1015.58 45.2714ZM1029.88 69.9434V71.3434L1031.09 69.2412L1029.88 69.9434ZM993.402 17.1434V15.7434L992.002 17.1434H993.402ZM993.402 34.4234H992.002L993.402 35.8234V34.4234ZM1013.37 69.9434L1014.58 69.2465L1001.91 47.1665L1000.7 47.8634L999.484 48.5602L1012.16 70.6402L1013.37 69.9434ZM1000.7 47.8634V46.4634H993.402V47.8634V49.2634H1000.7V47.8634ZM993.402 47.8634H992.002V69.9434H993.402H994.802V47.8634H993.402ZM993.402 69.9434V68.5434H978.042V69.9434V71.3434H993.402V69.9434ZM978.042 69.9434H979.442V2.74335H978.042H976.642V69.9434H978.042ZM978.042 2.74335V4.14336H1004.92V2.74335V1.34335H978.042V2.74335ZM1004.92 2.74335V4.14336C1016.92 4.14336 1026.56 13.7886 1026.56 25.7834H1027.96H1029.36C1029.36 12.2422 1018.46 1.34335 1004.92 1.34335V2.74335ZM1027.96 25.7834H1026.56C1026.56 33.4659 1021.91 40.4954 1014.95 44.0224L1015.58 45.2714L1016.21 46.5203C1024.03 42.5593 1029.36 34.6128 1029.36 25.7834H1027.96ZM1015.58 45.2714L1014.37 45.9736L1028.67 70.6456L1029.88 69.9434L1031.09 69.2412L1016.79 44.5692L1015.58 45.2714ZM1029.88 69.9434V68.5434H1013.37V69.9434V71.3434H1029.88V69.9434ZM993.402 17.1434H992.002V34.4234H993.402H994.802V17.1434H993.402ZM993.402 34.4234V35.8234H1004.92V34.4234V33.0234H993.402V34.4234ZM1004.92 34.4234V35.8234C1010.06 35.8234 1014 31.309 1014 25.7834H1012.6H1011.2C1011.2 30.0497 1008.24 33.0234 1004.92 33.0234V34.4234ZM1012.6 25.7834H1014C1014 20.2577 1010.06 15.7434 1004.92 15.7434V17.1434V18.5434C1008.24 18.5434 1011.2 21.517 1011.2 25.7834H1012.6ZM1004.92 17.1434V15.7434H993.402V17.1434V18.5434H1004.92V17.1434ZM1103.25 2.74335H1104.65L1103.25 1.34335V2.74335ZM1103.25 69.9434V71.3434L1104.65 69.9434H1103.25ZM1087.89 69.9434H1086.49L1087.89 71.3434V69.9434ZM1087.89 30.8714H1089.29L1086.69 30.1428L1087.89 30.8714ZM1070.51 59.3834V60.7834L1071.71 60.1119L1070.51 59.3834ZM1068.78 59.3834L1067.59 60.1119L1068.78 60.7834V59.3834ZM1051.41 30.8714L1052.6 30.1428L1050.01 30.8714H1051.41ZM1051.41 69.9434V71.3434L1052.81 69.9434H1051.41ZM1036.05 69.9434H1034.65L1036.05 71.3434V69.9434ZM1036.05 2.74335V1.34335L1034.65 2.74335H1036.05ZM1051.41 2.74335L1052.6 2.01348L1051.41 1.34335V2.74335ZM1069.65 32.5994L1068.45 33.3292H1070.84L1069.65 32.5994ZM1087.89 2.74335V1.34335L1086.69 2.01348L1087.89 2.74335ZM1103.25 2.74335H1101.85V69.9434H1103.25H1104.65V2.74335H1103.25ZM1103.25 69.9434V68.5434H1087.89V69.9434V71.3434H1103.25V69.9434ZM1087.89 69.9434H1089.29V30.8714H1087.89H1086.49V69.9434H1087.89ZM1087.89 30.8714L1086.69 30.1428L1069.32 58.6548L1070.51 59.3834L1071.71 60.1119L1089.08 31.5999L1087.89 30.8714ZM1070.51 59.3834V57.9834H1068.78V59.3834V60.7834H1070.51V59.3834ZM1068.78 59.3834L1069.98 58.6548L1052.6 30.1428L1051.41 30.8714L1050.21 31.5999L1067.59 60.1119L1068.78 59.3834ZM1051.41 30.8714H1050.01V69.9434H1051.41H1052.81V30.8714H1051.41ZM1051.41 69.9434V68.5434H1036.05V69.9434V71.3434H1051.41V69.9434ZM1036.05 69.9434H1037.45V2.74335H1036.05H1034.65V69.9434H1036.05ZM1036.05 2.74335V4.14336H1051.41V2.74335V1.34335H1036.05V2.74335ZM1051.41 2.74335L1050.21 3.47323L1068.45 33.3292L1069.65 32.5994L1070.84 31.8695L1052.6 2.01348L1051.41 2.74335ZM1069.65 32.5994L1070.84 33.3292L1089.08 3.47323L1087.89 2.74335L1086.69 2.01348L1068.45 31.8695L1069.65 32.5994ZM1087.89 2.74335V4.14336H1103.25V2.74335V1.34335H1087.89V2.74335ZM1156.46 69.9434L1155.13 70.3678L1156.46 71.3434V69.9434ZM1153.1 59.3834L1154.44 58.9589L1153.1 57.9834V59.3834ZM1128.14 59.3834V57.9834L1126.81 58.9589L1128.14 59.3834ZM1124.78 69.9434V71.3434L1126.12 70.3678L1124.78 69.9434ZM1107.98 69.9434L1106.66 69.4927L1107.98 71.3434V69.9434ZM1130.83 2.74335V1.34335L1129.51 2.29269L1130.83 2.74335ZM1150.41 2.74335L1151.74 2.29269L1150.41 1.34335V2.74335ZM1173.26 69.9434V71.3434L1174.59 69.4927L1173.26 69.9434ZM1132.75 44.9834L1131.42 44.5578L1132.75 46.3834V44.9834ZM1148.49 44.9834V46.3834L1149.83 44.5578L1148.49 44.9834ZM1140.62 20.3114L1141.96 19.8858H1139.29L1140.62 20.3114ZM1156.46 69.9434L1157.8 69.5189L1154.44 58.9589L1153.1 59.3834L1151.77 59.8078L1155.13 70.3678L1156.46 69.9434ZM1153.1 59.3834V57.9834H1128.14V59.3834V60.7834H1153.1V59.3834ZM1128.14 59.3834L1126.81 58.9589L1123.45 69.5189L1124.78 69.9434L1126.12 70.3678L1129.48 59.8078L1128.14 59.3834ZM1124.78 69.9434V68.5434H1107.98V69.9434V71.3434H1124.78V69.9434ZM1107.98 69.9434L1109.31 70.394L1132.16 3.19402L1130.83 2.74335L1129.51 2.29269L1106.66 69.4927L1107.98 69.9434ZM1130.83 2.74335V4.14336H1150.41V2.74335V1.34335H1130.83V2.74335ZM1150.41 2.74335L1149.09 3.19402L1171.94 70.394L1173.26 69.9434L1174.59 69.4927L1151.74 2.29269L1150.41 2.74335ZM1173.26 69.9434V68.5434H1156.46V69.9434V71.3434H1173.26V69.9434ZM1132.75 44.9834V46.3834H1148.49V44.9834V43.5834H1132.75V44.9834ZM1148.49 44.9834L1149.83 44.5578L1141.96 19.8858L1140.62 20.3114L1139.29 20.7369L1147.16 45.4089L1148.49 44.9834ZM1140.62 20.3114L1139.29 19.8858L1131.42 44.5578L1132.75 44.9834L1134.08 45.4089L1141.96 20.7369L1140.62 20.3114ZM1215.38 2.74335V1.34335L1213.98 2.74335H1215.38ZM1230.74 2.74335H1232.14L1230.74 1.34335V2.74335ZM1230.74 69.9434V71.3434L1232.14 69.9434H1230.74ZM1219.22 69.9434L1218.08 70.7542L1219.22 71.3434V69.9434ZM1193.3 33.4634L1194.44 32.6525L1191.9 33.4634H1193.3ZM1193.3 69.9434V71.3434L1194.7 69.9434H1193.3ZM1177.94 69.9434H1176.54L1177.94 71.3434V69.9434ZM1177.94 2.74335V1.34335L1176.54 2.74335H1177.94ZM1189.46 2.74335L1190.6 1.93246L1189.46 1.34335V2.74335ZM1215.38 39.2234L1214.24 40.0342L1216.78 39.2234H1215.38ZM1215.38 2.74335V4.14336H1230.74V2.74335V1.34335H1215.38V2.74335ZM1230.74 2.74335H1229.34V69.9434H1230.74H1232.14V2.74335H1230.74ZM1230.74 69.9434V68.5434H1219.22V69.9434V71.3434H1230.74V69.9434ZM1219.22 69.9434L1220.36 69.1325L1194.44 32.6525L1193.3 33.4634L1192.16 34.2742L1218.08 70.7542L1219.22 69.9434ZM1193.3 33.4634H1191.9V69.9434H1193.3H1194.7V33.4634H1193.3ZM1193.3 69.9434V68.5434H1177.94V69.9434V71.3434H1193.3V69.9434ZM1177.94 69.9434H1179.34V2.74335H1177.94H1176.54V69.9434H1177.94ZM1177.94 2.74335V4.14336H1189.46V2.74335V1.34335H1177.94V2.74335ZM1189.46 2.74335L1188.32 3.55424L1214.24 40.0342L1215.38 39.2234L1216.52 38.4125L1190.6 1.93246L1189.46 2.74335ZM1215.38 39.2234H1216.78V2.74335H1215.38H1213.98V39.2234H1215.38ZM1302.06 16.9514L1302.76 18.1626L1303.25 16.2169L1302.06 16.9514ZM1288.81 24.6314L1287.6 25.3284L1289.51 25.8426L1288.81 24.6314ZM1288.81 48.0554L1289.51 46.8442L1287.59 47.3755L1288.81 48.0554ZM1302.06 55.7354L1303.25 56.461L1302.76 54.5242L1302.06 55.7354ZM1273.26 71.2874V69.8874C1253.79 69.8874 1239.71 55.3589 1239.71 36.3434H1238.31H1236.91C1236.91 56.8798 1252.22 72.6874 1273.26 72.6874V71.2874ZM1238.31 36.3434H1239.71C1239.71 17.3278 1253.79 2.79935 1273.26 2.79935V1.39935V-0.000648499C1252.22 -0.000648499 1236.91 15.8069 1236.91 36.3434H1238.31ZM1273.26 1.39935V2.79935C1284.98 2.79935 1295.27 8.61245 1300.87 17.6858L1302.06 16.9514L1303.25 16.2169C1297.13 6.28226 1285.91 -0.000648499 1273.26 -0.000648499V1.39935ZM1302.06 16.9514L1301.36 15.7402L1288.11 23.4202L1288.81 24.6314L1289.51 25.8426L1302.76 18.1626L1302.06 16.9514ZM1288.81 24.6314L1290.02 23.9343C1286.76 18.2498 1280.49 14.9754 1273.26 14.9754V16.3754V17.7754C1279.65 17.7754 1284.91 20.6449 1287.6 25.3284L1288.81 24.6314ZM1273.26 16.3754V14.9754C1266.98 14.9754 1261.71 17.0822 1258 20.8815C1254.3 24.6772 1252.27 30.0414 1252.27 36.3434H1253.67H1255.07C1255.07 30.6453 1256.89 26.0256 1260 22.8372C1263.11 19.6525 1267.63 17.7754 1273.26 17.7754V16.3754ZM1253.67 36.3434H1252.27C1252.27 42.6453 1254.3 48.0096 1258 51.8052C1261.71 55.6045 1266.98 57.7114 1273.26 57.7114V56.3114V54.9114C1267.63 54.9114 1263.11 53.0342 1260 49.8495C1256.89 46.6612 1255.07 42.0414 1255.07 36.3434H1253.67ZM1273.26 56.3114V57.7114C1280.48 57.7114 1286.86 54.4459 1290.03 48.7353L1288.81 48.0554L1287.59 47.3755C1285 52.0328 1279.67 54.9114 1273.26 54.9114V56.3114ZM1288.81 48.0554L1288.11 49.2666L1301.36 56.9466L1302.06 55.7354L1302.76 54.5242L1289.51 46.8442L1288.81 48.0554ZM1302.06 55.7354L1300.86 55.0097C1295.37 64.0713 1285.08 69.8874 1273.26 69.8874V71.2874V72.6874C1286.01 72.6874 1297.23 66.4074 1303.25 56.461L1302.06 55.7354ZM1323.56 55.1594H1322.16L1323.56 56.5594V55.1594ZM1350.44 55.1594H1351.84L1350.44 53.7594V55.1594ZM1350.44 69.9434V71.3434L1351.84 69.9434H1350.44ZM1308.2 69.9434H1306.8L1308.2 71.3434V69.9434ZM1308.2 2.74335V1.34335L1306.8 2.74335H1308.2ZM1349.96 2.74335H1351.36L1349.96 1.34335V2.74335ZM1349.96 17.5274V18.9274L1351.36 17.5274H1349.96ZM1323.56 17.5274V16.1274L1322.16 17.5274H1323.56ZM1323.56 28.6634H1322.16L1323.56 30.0634V28.6634ZM1347.56 28.6634H1348.96L1347.56 27.2634V28.6634ZM1347.56 43.2554V44.6554L1348.96 43.2554H1347.56ZM1323.56 43.2554V41.8554L1322.16 43.2554H1323.56ZM1323.56 55.1594V56.5594H1350.44V55.1594V53.7594H1323.56V55.1594ZM1350.44 55.1594H1349.04V69.9434H1350.44H1351.84V55.1594H1350.44ZM1350.44 69.9434V68.5434H1308.2V69.9434V71.3434H1350.44V69.9434ZM1308.2 69.9434H1309.6V2.74335H1308.2H1306.8V69.9434H1308.2ZM1308.2 2.74335V4.14336H1349.96V2.74335V1.34335H1308.2V2.74335ZM1349.96 2.74335H1348.56V17.5274H1349.96H1351.36V2.74335H1349.96ZM1349.96 17.5274V16.1274H1323.56V17.5274V18.9274H1349.96V17.5274ZM1323.56 17.5274H1322.16V28.6634H1323.56H1324.96V17.5274H1323.56ZM1323.56 28.6634V30.0634H1347.56V28.6634V27.2634H1323.56V28.6634ZM1347.56 28.6634H1346.16V43.2554H1347.56H1348.96V28.6634H1347.56ZM1347.56 43.2554V41.8554H1323.56V43.2554V44.6554H1347.56V43.2554ZM1323.56 43.2554H1322.16V55.1594H1323.56H1324.96V43.2554H1323.56Z" fill="white" mask="url(#path-1-outside-1_1867_892)"/>
</svg>
