<svg width="2815" height="150" viewBox="0 0 2815 150" fill="none" xmlns="http://www.w3.org/2000/svg">
<mask id="path-1-outside-1_1354_492" maskUnits="userSpaceOnUse" x="0" y="-0.199219" width="2815" height="150" fill="black">
<rect fill="white" y="-0.199219" width="2815" height="150"/>
<path d="M55 4.80077C82.6 4.80077 104 26.2008 104 52.8008C104 79.4008 82.6 100.801 55 100.801H34V144.801H2V4.80077H55ZM55 70.8008C64.8 70.8008 72 63.0008 72 52.8008C72 42.6008 64.8 34.8008 55 34.8008H34V70.8008H55ZM149.769 114.001H205.769V144.801H117.769V4.80077H204.769V35.6008H149.769V58.8008H199.769V89.2008H149.769V114.001ZM295.223 144.801L268.823 98.8008H253.623V144.801H221.623V4.80077H277.623C304.223 4.80077 325.623 26.2008 325.623 52.8008C325.623 70.0008 315.223 85.6008 299.823 93.4008L329.623 144.801H295.223ZM253.623 34.8008V70.8008H277.623C286.423 70.8008 293.623 63.0008 293.623 52.8008C293.623 42.6008 286.423 34.8008 277.623 34.8008H253.623ZM427.47 35.6008H374.47V62.6008H426.47V93.4008H374.47V144.801H342.47V4.80077H427.47V35.6008ZM510.977 147.601C470.777 147.601 438.177 116.001 438.177 74.8008C438.177 33.6008 470.777 2.00077 510.977 2.00077C551.177 2.00077 583.777 33.6008 583.777 74.8008C583.777 116.001 551.177 147.601 510.977 147.601ZM510.977 116.401C533.777 116.401 551.777 99.8008 551.777 74.8008C551.777 49.8008 533.777 33.2008 510.977 33.2008C488.177 33.2008 470.177 49.8008 470.177 74.8008C470.177 99.8008 488.177 116.401 510.977 116.401ZM673.194 144.801L646.794 98.8008H631.594V144.801H599.594V4.80077H655.594C682.194 4.80077 703.594 26.2008 703.594 52.8008C703.594 70.0008 693.194 85.6008 677.794 93.4008L707.594 144.801H673.194ZM631.594 34.8008V70.8008H655.594C664.394 70.8008 671.594 63.0008 671.594 52.8008C671.594 42.6008 664.394 34.8008 655.594 34.8008H631.594ZM860.441 4.80077V144.801H828.441V63.4008L792.241 122.801H788.641L752.441 63.4008V144.801H720.441V4.80077H752.441L790.441 67.0008L828.441 4.80077H860.441ZM971.303 144.801L964.303 122.801H912.303L905.303 144.801H870.303L917.903 4.80077H958.703L1006.3 144.801H971.303ZM921.903 92.8008H954.703L938.303 41.4008L921.903 92.8008ZM1094.04 4.80077H1126.04V144.801H1102.04L1048.04 68.8008V144.801H1016.04V4.80077H1040.04L1094.04 80.8008V4.80077ZM1214.62 147.601C1172.42 147.601 1141.82 116.001 1141.82 74.8008C1141.82 33.6008 1172.42 2.00077 1214.62 2.00077C1240.02 2.00077 1262.42 14.6008 1274.62 34.4008L1247.02 50.4008C1240.82 39.6008 1228.82 33.2008 1214.62 33.2008C1189.82 33.2008 1173.82 49.8008 1173.82 74.8008C1173.82 99.8008 1189.82 116.401 1214.62 116.401C1228.82 116.401 1241.02 110.001 1247.02 99.2008L1274.62 115.201C1262.62 135.001 1240.22 147.601 1214.62 147.601ZM1319.42 114.001H1375.42V144.801H1287.42V4.80077H1374.42V35.6008H1319.42V58.8008H1369.42V89.2008H1319.42V114.001ZM1492.08 4.80077C1519.68 4.80077 1541.08 26.2008 1541.08 52.8008C1541.08 79.4008 1519.68 100.801 1492.08 100.801H1471.08V144.801H1439.08V4.80077H1492.08ZM1492.08 70.8008C1501.88 70.8008 1509.08 63.0008 1509.08 52.8008C1509.08 42.6008 1501.88 34.8008 1492.08 34.8008H1471.08V70.8008H1492.08ZM1586.85 114.001H1642.85V144.801H1554.85V4.80077H1641.85V35.6008H1586.85V58.8008H1636.85V89.2008H1586.85V114.001ZM1732.3 144.801L1705.9 98.8008H1690.7V144.801H1658.7V4.80077H1714.7C1741.3 4.80077 1762.7 26.2008 1762.7 52.8008C1762.7 70.0008 1752.3 85.6008 1736.9 93.4008L1766.7 144.801H1732.3ZM1690.7 34.8008V70.8008H1714.7C1723.5 70.8008 1730.7 63.0008 1730.7 52.8008C1730.7 42.6008 1723.5 34.8008 1714.7 34.8008H1690.7ZM1864.55 35.6008H1811.55V62.6008H1863.55V93.4008H1811.55V144.801H1779.55V4.80077H1864.55V35.6008ZM1948.05 147.601C1907.85 147.601 1875.25 116.001 1875.25 74.8008C1875.25 33.6008 1907.85 2.00077 1948.05 2.00077C1988.25 2.00077 2020.85 33.6008 2020.85 74.8008C2020.85 116.001 1988.25 147.601 1948.05 147.601ZM1948.05 116.401C1970.85 116.401 1988.85 99.8008 1988.85 74.8008C1988.85 49.8008 1970.85 33.2008 1948.05 33.2008C1925.25 33.2008 1907.25 49.8008 1907.25 74.8008C1907.25 99.8008 1925.25 116.401 1948.05 116.401ZM2110.27 144.801L2083.87 98.8008H2068.67V144.801H2036.67V4.80077H2092.67C2119.27 4.80077 2140.67 26.2008 2140.67 52.8008C2140.67 70.0008 2130.27 85.6008 2114.87 93.4008L2144.67 144.801H2110.27ZM2068.67 34.8008V70.8008H2092.67C2101.47 70.8008 2108.67 63.0008 2108.67 52.8008C2108.67 42.6008 2101.47 34.8008 2092.67 34.8008H2068.67ZM2297.52 4.80077V144.801H2265.52V63.4008L2229.32 122.801H2225.72L2189.52 63.4008V144.801H2157.52V4.80077H2189.52L2227.52 67.0008L2265.52 4.80077H2297.52ZM2408.38 144.801L2401.38 122.801H2349.38L2342.38 144.801H2307.38L2354.98 4.80077H2395.78L2443.38 144.801H2408.38ZM2358.98 92.8008H2391.78L2375.38 41.4008L2358.98 92.8008ZM2531.12 4.80077H2563.12V144.801H2539.12L2485.12 68.8008V144.801H2453.12V4.80077H2477.12L2531.12 80.8008V4.80077ZM2651.7 147.601C2609.5 147.601 2578.9 116.001 2578.9 74.8008C2578.9 33.6008 2609.5 2.00077 2651.7 2.00077C2677.1 2.00077 2699.5 14.6008 2711.7 34.4008L2684.1 50.4008C2677.9 39.6008 2665.9 33.2008 2651.7 33.2008C2626.9 33.2008 2610.9 49.8008 2610.9 74.8008C2610.9 99.8008 2626.9 116.401 2651.7 116.401C2665.9 116.401 2678.1 110.001 2684.1 99.2008L2711.7 115.201C2699.7 135.001 2677.3 147.601 2651.7 147.601ZM2756.5 114.001H2812.5V144.801H2724.5V4.80077H2811.5V35.6008H2756.5V58.8008H2806.5V89.2008H2756.5V114.001Z"/>
</mask>
<path d="M34 100.801V98.8008L32 100.801H34ZM34 144.801V146.801L36 144.801H34ZM2 144.801H0L2 146.801V144.801ZM2 4.80077V2.80077L0 4.80077H2ZM34 34.8008V32.8008L32 34.8008H34ZM34 70.8008H32L34 72.8008V70.8008ZM55 4.80077V6.80077C81.5225 6.80077 102 27.3322 102 52.8008H104H106C106 25.0693 83.6775 2.80077 55 2.80077V4.80077ZM104 52.8008H102C102 78.2693 81.5225 98.8008 55 98.8008V100.801V102.801C83.6775 102.801 106 80.5322 106 52.8008H104ZM55 100.801V98.8008H34V100.801V102.801H55V100.801ZM34 100.801H32V144.801H34H36V100.801H34ZM34 144.801V142.801H2V144.801V146.801H34V144.801ZM2 144.801H4V4.80077H2H0V144.801H2ZM2 4.80077V6.80077H55V4.80077V2.80077H2V4.80077ZM55 70.8008V72.8008C66.0233 72.8008 74 63.9828 74 52.8008H72H70C70 62.0188 63.5767 68.8008 55 68.8008V70.8008ZM72 52.8008H74C74 41.6188 66.0233 32.8008 55 32.8008V34.8008V36.8008C63.5767 36.8008 70 43.5828 70 52.8008H72ZM55 34.8008V32.8008H34V34.8008V36.8008H55V34.8008ZM34 34.8008H32V70.8008H34H36V34.8008H34ZM34 70.8008V72.8008H55V70.8008V68.8008H34V70.8008ZM149.769 114.001H147.769L149.769 116.001V114.001ZM205.769 114.001H207.769L205.769 112.001V114.001ZM205.769 144.801V146.801L207.769 144.801H205.769ZM117.769 144.801H115.769L117.769 146.801V144.801ZM117.769 4.80077V2.80077L115.769 4.80077H117.769ZM204.769 4.80077H206.769L204.769 2.80077V4.80077ZM204.769 35.6008V37.6008L206.769 35.6008H204.769ZM149.769 35.6008V33.6008L147.769 35.6008H149.769ZM149.769 58.8008H147.769L149.769 60.8008V58.8008ZM199.769 58.8008H201.769L199.769 56.8008V58.8008ZM199.769 89.2008V91.2008L201.769 89.2008H199.769ZM149.769 89.2008V87.2008L147.769 89.2008H149.769ZM149.769 114.001V116.001H205.769V114.001V112.001H149.769V114.001ZM205.769 114.001H203.769V144.801H205.769H207.769V114.001H205.769ZM205.769 144.801V142.801H117.769V144.801V146.801H205.769V144.801ZM117.769 144.801H119.769V4.80077H117.769H115.769V144.801H117.769ZM117.769 4.80077V6.80077H204.769V4.80077V2.80077H117.769V4.80077ZM204.769 4.80077H202.769V35.6008H204.769H206.769V4.80077H204.769ZM204.769 35.6008V33.6008H149.769V35.6008V37.6008H204.769V35.6008ZM149.769 35.6008H147.769V58.8008H149.769H151.769V35.6008H149.769ZM149.769 58.8008V60.8008H199.769V58.8008V56.8008H149.769V58.8008ZM199.769 58.8008H197.769V89.2008H199.769H201.769V58.8008H199.769ZM199.769 89.2008V87.2008H149.769V89.2008V91.2008H199.769V89.2008ZM149.769 89.2008H147.769V114.001H149.769H151.769V89.2008H149.769ZM295.223 144.801L293.489 145.796L295.223 146.801V144.801ZM268.823 98.8008L270.558 97.8053L268.823 96.8008V98.8008ZM253.623 98.8008V96.8008L251.623 98.8008H253.623ZM253.623 144.801V146.801L255.623 144.801H253.623ZM221.623 144.801H219.623L221.623 146.801V144.801ZM221.623 4.80077V2.80077L219.623 4.80077H221.623ZM299.823 93.4008L298.92 91.6166L298.093 94.4039L299.823 93.4008ZM329.623 144.801V146.801L331.354 143.798L329.623 144.801ZM253.623 34.8008V32.8008L251.623 34.8008H253.623ZM253.623 70.8008H251.623L253.623 72.8008V70.8008ZM295.223 144.801L296.958 143.805L270.558 97.8053L268.823 98.8008L267.089 99.7963L293.489 145.796L295.223 144.801ZM268.823 98.8008V96.8008H253.623V98.8008V100.801H268.823V98.8008ZM253.623 98.8008H251.623V144.801H253.623H255.623V98.8008H253.623ZM253.623 144.801V142.801H221.623V144.801V146.801H253.623V144.801ZM221.623 144.801H223.623V4.80077H221.623H219.623V144.801H221.623ZM221.623 4.80077V6.80077H277.623V4.80077V2.80077H221.623V4.80077ZM277.623 4.80077V6.80077C303.119 6.80077 323.623 27.3053 323.623 52.8008H325.623H327.623C327.623 25.0962 305.328 2.80077 277.623 2.80077V4.80077ZM325.623 52.8008H323.623C323.623 69.1816 313.708 84.1266 298.92 91.6166L299.823 93.4008L300.727 95.185C316.739 87.075 327.623 70.82 327.623 52.8008H325.623ZM299.823 93.4008L298.093 94.4039L327.893 145.804L329.623 144.801L331.354 143.798L301.554 92.3976L299.823 93.4008ZM329.623 144.801V142.801H295.223V144.801V146.801H329.623V144.801ZM253.623 34.8008H251.623V70.8008H253.623H255.623V34.8008H253.623ZM253.623 70.8008V72.8008H277.623V70.8008V68.8008H253.623V70.8008ZM277.623 70.8008V72.8008C287.723 72.8008 295.623 63.9002 295.623 52.8008H293.623H291.623C291.623 62.1013 285.124 68.8008 277.623 68.8008V70.8008ZM293.623 52.8008H295.623C295.623 41.7013 287.723 32.8008 277.623 32.8008V34.8008V36.8008C285.124 36.8008 291.623 43.5002 291.623 52.8008H293.623ZM277.623 34.8008V32.8008H253.623V34.8008V36.8008H277.623V34.8008ZM427.47 35.6008V37.6008L429.47 35.6008H427.47ZM374.47 35.6008V33.6008L372.47 35.6008H374.47ZM374.47 62.6008H372.47L374.47 64.6008V62.6008ZM426.47 62.6008H428.47L426.47 60.6008V62.6008ZM426.47 93.4008V95.4008L428.47 93.4008H426.47ZM374.47 93.4008V91.4008L372.47 93.4008H374.47ZM374.47 144.801V146.801L376.47 144.801H374.47ZM342.47 144.801H340.47L342.47 146.801V144.801ZM342.47 4.80077V2.80077L340.47 4.80077H342.47ZM427.47 4.80077H429.47L427.47 2.80077V4.80077ZM427.47 35.6008V33.6008H374.47V35.6008V37.6008H427.47V35.6008ZM374.47 35.6008H372.47V62.6008H374.47H376.47V35.6008H374.47ZM374.47 62.6008V64.6008H426.47V62.6008V60.6008H374.47V62.6008ZM426.47 62.6008H424.47V93.4008H426.47H428.47V62.6008H426.47ZM426.47 93.4008V91.4008H374.47V93.4008V95.4008H426.47V93.4008ZM374.47 93.4008H372.47V144.801H374.47H376.47V93.4008H374.47ZM374.47 144.801V142.801H342.47V144.801V146.801H374.47V144.801ZM342.47 144.801H344.47V4.80077H342.47H340.47V144.801H342.47ZM342.47 4.80077V6.80077H427.47V4.80077V2.80077H342.47V4.80077ZM427.47 4.80077H425.47V35.6008H427.47H429.47V4.80077H427.47ZM510.977 147.601V145.601C471.863 145.601 440.177 114.878 440.177 74.8008H438.177H436.177C436.177 117.123 469.69 149.601 510.977 149.601V147.601ZM438.177 74.8008H440.177C440.177 34.7233 471.863 4.00078 510.977 4.00078V2.00078V0.000778198C469.69 0.000778198 436.177 32.4783 436.177 74.8008H438.177ZM510.977 2.00078V4.00078C550.09 4.00078 581.777 34.7233 581.777 74.8008H583.777H585.777C585.777 32.4783 552.263 0.000778198 510.977 0.000778198V2.00078ZM583.777 74.8008H581.777C581.777 114.878 550.09 145.601 510.977 145.601V147.601V149.601C552.263 149.601 585.777 117.123 585.777 74.8008H583.777ZM510.977 116.401V118.401C534.862 118.401 553.777 100.925 553.777 74.8008H551.777H549.777C549.777 98.6769 532.691 114.401 510.977 114.401V116.401ZM551.777 74.8008H553.777C553.777 48.6769 534.862 31.2008 510.977 31.2008V33.2008V35.2008C532.691 35.2008 549.777 50.9246 549.777 74.8008H551.777ZM510.977 33.2008V31.2008C487.091 31.2008 468.177 48.6769 468.177 74.8008H470.177H472.177C472.177 50.9246 489.262 35.2008 510.977 35.2008V33.2008ZM470.177 74.8008H468.177C468.177 100.925 487.091 118.401 510.977 118.401V116.401V114.401C489.262 114.401 472.177 98.6769 472.177 74.8008H470.177ZM673.194 144.801L671.459 145.796L673.194 146.801V144.801ZM646.794 98.8008L648.528 97.8053L646.794 96.8008V98.8008ZM631.594 98.8008V96.8008L629.594 98.8008H631.594ZM631.594 144.801V146.801L633.594 144.801H631.594ZM599.594 144.801H597.594L599.594 146.801V144.801ZM599.594 4.80077V2.80077L597.594 4.80077H599.594ZM677.794 93.4008L676.89 91.6166L676.064 94.4039L677.794 93.4008ZM707.594 144.801V146.801L709.324 143.798L707.594 144.801ZM631.594 34.8008V32.8008L629.594 34.8008H631.594ZM631.594 70.8008H629.594L631.594 72.8008V70.8008ZM673.194 144.801L674.928 143.805L648.528 97.8053L646.794 98.8008L645.059 99.7963L671.459 145.796L673.194 144.801ZM646.794 98.8008V96.8008H631.594V98.8008V100.801H646.794V98.8008ZM631.594 98.8008H629.594V144.801H631.594H633.594V98.8008H631.594ZM631.594 144.801V142.801H599.594V144.801V146.801H631.594V144.801ZM599.594 144.801H601.594V4.80077H599.594H597.594V144.801H599.594ZM599.594 4.80077V6.80077H655.594V4.80077V2.80077H599.594V4.80077ZM655.594 4.80077V6.80077C681.089 6.80077 701.594 27.3053 701.594 52.8008H703.594H705.594C705.594 25.0962 683.298 2.80077 655.594 2.80077V4.80077ZM703.594 52.8008H701.594C701.594 69.1816 691.678 84.1266 676.89 91.6166L677.794 93.4008L678.697 95.185C694.71 87.075 705.594 70.82 705.594 52.8008H703.594ZM677.794 93.4008L676.064 94.4039L705.864 145.804L707.594 144.801L709.324 143.798L679.524 92.3976L677.794 93.4008ZM707.594 144.801V142.801H673.194V144.801V146.801H707.594V144.801ZM631.594 34.8008H629.594V70.8008H631.594H633.594V34.8008H631.594ZM631.594 70.8008V72.8008H655.594V70.8008V68.8008H631.594V70.8008ZM655.594 70.8008V72.8008C665.693 72.8008 673.594 63.9002 673.594 52.8008H671.594H669.594C669.594 62.1013 663.095 68.8008 655.594 68.8008V70.8008ZM671.594 52.8008H673.594C673.594 41.7013 665.693 32.8008 655.594 32.8008V34.8008V36.8008C663.095 36.8008 669.594 43.5002 669.594 52.8008H671.594ZM655.594 34.8008V32.8008H631.594V34.8008V36.8008H655.594V34.8008ZM860.441 4.80077H862.441L860.441 2.80077V4.80077ZM860.441 144.801V146.801L862.441 144.801H860.441ZM828.441 144.801H826.441L828.441 146.801V144.801ZM828.441 63.4008H830.441L826.733 62.36L828.441 63.4008ZM792.241 122.801V124.801L793.948 123.842L792.241 122.801ZM788.641 122.801L786.933 123.842L788.641 124.801V122.801ZM752.441 63.4008L754.148 62.36L750.441 63.4008H752.441ZM752.441 144.801V146.801L754.441 144.801H752.441ZM720.441 144.801H718.441L720.441 146.801V144.801ZM720.441 4.80077V2.80077L718.441 4.80077H720.441ZM752.441 4.80077L754.147 3.75809L752.441 2.80077V4.80077ZM790.441 67.0008L788.734 68.0435H792.147L790.441 67.0008ZM828.441 4.80077V2.80077L826.734 3.75809L828.441 4.80077ZM860.441 4.80077H858.441V144.801H860.441H862.441V4.80077H860.441ZM860.441 144.801V142.801H828.441V144.801V146.801H860.441V144.801ZM828.441 144.801H830.441V63.4008H828.441H826.441V144.801H828.441ZM828.441 63.4008L826.733 62.36L790.533 121.76L792.241 122.801L793.948 123.842L830.148 64.4416L828.441 63.4008ZM792.241 122.801V120.801H788.641V122.801V124.801H792.241V122.801ZM788.641 122.801L790.348 121.76L754.148 62.36L752.441 63.4008L750.733 64.4416L786.933 123.842L788.641 122.801ZM752.441 63.4008H750.441V144.801H752.441H754.441V63.4008H752.441ZM752.441 144.801V142.801H720.441V144.801V146.801H752.441V144.801ZM720.441 144.801H722.441V4.80077H720.441H718.441V144.801H720.441ZM720.441 4.80077V6.80077H752.441V4.80077V2.80077H720.441V4.80077ZM752.441 4.80077L750.734 5.84344L788.734 68.0435L790.441 67.0008L792.147 65.9581L754.147 3.75809L752.441 4.80077ZM790.441 67.0008L792.147 68.0435L830.147 5.84344L828.441 4.80077L826.734 3.75809L788.734 65.9581L790.441 67.0008ZM828.441 4.80077V6.80077H860.441V4.80077V2.80077H828.441V4.80077ZM971.303 144.801L969.397 145.407L971.303 146.801V144.801ZM964.303 122.801L966.209 122.194L964.303 120.801V122.801ZM912.303 122.801V120.801L910.397 122.194L912.303 122.801ZM905.303 144.801V146.801L907.209 145.407L905.303 144.801ZM870.303 144.801L868.41 144.157L870.303 146.801V144.801ZM917.903 4.80077V2.80077L916.01 4.15697L917.903 4.80077ZM958.703 4.80077L960.597 4.15697L958.703 2.80077V4.80077ZM1006.3 144.801V146.801L1008.2 144.157L1006.3 144.801ZM921.903 92.8008L919.998 92.1928L921.903 94.8008V92.8008ZM954.703 92.8008V94.8008L956.608 92.1928L954.703 92.8008ZM938.303 41.4008L940.208 40.7928H936.398L938.303 41.4008ZM971.303 144.801L973.209 144.194L966.209 122.194L964.303 122.801L962.397 123.407L969.397 145.407L971.303 144.801ZM964.303 122.801V120.801H912.303V122.801V124.801H964.303V122.801ZM912.303 122.801L910.397 122.194L903.397 144.194L905.303 144.801L907.209 145.407L914.209 123.407L912.303 122.801ZM905.303 144.801V142.801H870.303V144.801V146.801H905.303V144.801ZM870.303 144.801L872.197 145.445L919.797 5.44458L917.903 4.80077L916.01 4.15697L868.41 144.157L870.303 144.801ZM917.903 4.80077V6.80077H958.703V4.80077V2.80077H917.903V4.80077ZM958.703 4.80077L956.81 5.44458L1004.41 145.445L1006.3 144.801L1008.2 144.157L960.597 4.15697L958.703 4.80077ZM1006.3 144.801V142.801H971.303V144.801V146.801H1006.3V144.801ZM921.903 92.8008V94.8008H954.703V92.8008V90.8008H921.903V92.8008ZM954.703 92.8008L956.608 92.1928L940.208 40.7928L938.303 41.4008L936.398 42.0087L952.798 93.4087L954.703 92.8008ZM938.303 41.4008L936.398 40.7928L919.998 92.1928L921.903 92.8008L923.808 93.4087L940.208 42.0087L938.303 41.4008ZM1094.04 4.80077V2.80077L1092.04 4.80077H1094.04ZM1126.04 4.80077H1128.04L1126.04 2.80077V4.80077ZM1126.04 144.801V146.801L1128.04 144.801H1126.04ZM1102.04 144.801L1100.41 145.959L1102.04 146.801V144.801ZM1048.04 68.8008L1049.67 67.6424L1046.04 68.8008H1048.04ZM1048.04 144.801V146.801L1050.04 144.801H1048.04ZM1016.04 144.801H1014.04L1016.04 146.801V144.801ZM1016.04 4.80077V2.80077L1014.04 4.80077H1016.04ZM1040.04 4.80077L1041.67 3.64236L1040.04 2.80077V4.80077ZM1094.04 80.8008L1092.41 81.9592L1096.04 80.8008H1094.04ZM1094.04 4.80077V6.80077H1126.04V4.80077V2.80077H1094.04V4.80077ZM1126.04 4.80077H1124.04V144.801H1126.04H1128.04V4.80077H1126.04ZM1126.04 144.801V142.801H1102.04V144.801V146.801H1126.04V144.801ZM1102.04 144.801L1103.67 143.642L1049.67 67.6424L1048.04 68.8008L1046.41 69.9592L1100.41 145.959L1102.04 144.801ZM1048.04 68.8008H1046.04V144.801H1048.04H1050.04V68.8008H1048.04ZM1048.04 144.801V142.801H1016.04V144.801V146.801H1048.04V144.801ZM1016.04 144.801H1018.04V4.80077H1016.04H1014.04V144.801H1016.04ZM1016.04 4.80077V6.80077H1040.04V4.80077V2.80077H1016.04V4.80077ZM1040.04 4.80077L1038.41 5.95918L1092.41 81.9592L1094.04 80.8008L1095.67 79.6424L1041.67 3.64236L1040.04 4.80077ZM1094.04 80.8008H1096.04V4.80077H1094.04H1092.04V80.8008H1094.04ZM1274.62 34.4008L1275.63 36.1311L1276.33 33.3516L1274.62 34.4008ZM1247.02 50.4008L1245.29 51.3965L1248.03 52.1311L1247.02 50.4008ZM1247.02 99.2008L1248.03 97.4705L1245.28 98.2295L1247.02 99.2008ZM1274.62 115.201L1276.34 116.237L1275.63 113.471L1274.62 115.201ZM1214.62 147.601V145.601C1173.55 145.601 1143.82 114.914 1143.82 74.8008H1141.82H1139.82C1139.82 117.087 1171.3 149.601 1214.62 149.601V147.601ZM1141.82 74.8008H1143.82C1143.82 34.6871 1173.55 4.00078 1214.62 4.00078V2.00078V0.000778198C1171.3 0.000778198 1139.82 32.5144 1139.82 74.8008H1141.82ZM1214.62 2.00078V4.00078C1239.36 4.00078 1261.1 16.2652 1272.92 35.4499L1274.62 34.4008L1276.33 33.3516C1263.75 12.9364 1240.69 0.000778198 1214.62 0.000778198V2.00078ZM1274.62 34.4008L1273.62 32.6705L1246.02 48.6705L1247.02 50.4008L1248.03 52.1311L1275.63 36.1311L1274.62 34.4008ZM1247.02 50.4008L1248.76 49.405C1242.15 37.89 1229.43 31.2008 1214.62 31.2008V33.2008V35.2008C1228.22 35.2008 1239.5 41.3116 1245.29 51.3965L1247.02 50.4008ZM1214.62 33.2008V31.2008C1201.77 31.2008 1191.02 35.5148 1183.49 43.2289C1175.97 50.9376 1171.82 61.8694 1171.82 74.8008H1173.82H1175.82C1175.82 62.7322 1179.68 52.8639 1186.36 46.0227C1193.03 39.1867 1202.68 35.2008 1214.62 35.2008V33.2008ZM1173.82 74.8008H1171.82C1171.82 87.7322 1175.97 98.6639 1183.49 106.373C1191.02 114.087 1201.77 118.401 1214.62 118.401V116.401V114.401C1202.68 114.401 1193.03 110.415 1186.36 103.579C1179.68 96.7376 1175.82 86.8694 1175.82 74.8008H1173.82ZM1214.62 116.401V118.401C1229.41 118.401 1242.36 111.724 1248.77 100.172L1247.02 99.2008L1245.28 98.2295C1239.69 108.277 1228.24 114.401 1214.62 114.401V116.401ZM1247.02 99.2008L1246.02 100.931L1273.62 116.931L1274.62 115.201L1275.63 113.471L1248.03 97.4705L1247.02 99.2008ZM1274.62 115.201L1272.91 114.164C1261.3 133.332 1239.57 145.601 1214.62 145.601V147.601V149.601C1240.88 149.601 1263.95 136.669 1276.34 116.237L1274.62 115.201ZM1319.42 114.001H1317.42L1319.42 116.001V114.001ZM1375.42 114.001H1377.42L1375.42 112.001V114.001ZM1375.42 144.801V146.801L1377.42 144.801H1375.42ZM1287.42 144.801H1285.42L1287.42 146.801V144.801ZM1287.42 4.80077V2.80077L1285.42 4.80077H1287.42ZM1374.42 4.80077H1376.42L1374.42 2.80077V4.80077ZM1374.42 35.6008V37.6008L1376.42 35.6008H1374.42ZM1319.42 35.6008V33.6008L1317.42 35.6008H1319.42ZM1319.42 58.8008H1317.42L1319.42 60.8008V58.8008ZM1369.42 58.8008H1371.42L1369.42 56.8008V58.8008ZM1369.42 89.2008V91.2008L1371.42 89.2008H1369.42ZM1319.42 89.2008V87.2008L1317.42 89.2008H1319.42ZM1319.42 114.001V116.001H1375.42V114.001V112.001H1319.42V114.001ZM1375.42 114.001H1373.42V144.801H1375.42H1377.42V114.001H1375.42ZM1375.42 144.801V142.801H1287.42V144.801V146.801H1375.42V144.801ZM1287.42 144.801H1289.42V4.80077H1287.42H1285.42V144.801H1287.42ZM1287.42 4.80077V6.80077H1374.42V4.80077V2.80077H1287.42V4.80077ZM1374.42 4.80077H1372.42V35.6008H1374.42H1376.42V4.80077H1374.42ZM1374.42 35.6008V33.6008H1319.42V35.6008V37.6008H1374.42V35.6008ZM1319.42 35.6008H1317.42V58.8008H1319.42H1321.42V35.6008H1319.42ZM1319.42 58.8008V60.8008H1369.42V58.8008V56.8008H1319.42V58.8008ZM1369.42 58.8008H1367.42V89.2008H1369.42H1371.42V58.8008H1369.42ZM1369.42 89.2008V87.2008H1319.42V89.2008V91.2008H1369.42V89.2008ZM1319.42 89.2008H1317.42V114.001H1319.42H1321.42V89.2008H1319.42ZM1471.08 100.801V98.8008L1469.08 100.801H1471.08ZM1471.08 144.801V146.801L1473.08 144.801H1471.08ZM1439.08 144.801H1437.08L1439.08 146.801V144.801ZM1439.08 4.80077V2.80077L1437.08 4.80077H1439.08ZM1471.08 34.8008V32.8008L1469.08 34.8008H1471.08ZM1471.08 70.8008H1469.08L1471.08 72.8008V70.8008ZM1492.08 4.80077V6.80077C1518.6 6.80077 1539.08 27.3322 1539.08 52.8008H1541.08H1543.08C1543.08 25.0693 1520.75 2.80077 1492.08 2.80077V4.80077ZM1541.08 52.8008H1539.08C1539.08 78.2693 1518.6 98.8008 1492.08 98.8008V100.801V102.801C1520.75 102.801 1543.08 80.5322 1543.08 52.8008H1541.08ZM1492.08 100.801V98.8008H1471.08V100.801V102.801H1492.08V100.801ZM1471.08 100.801H1469.08V144.801H1471.08H1473.08V100.801H1471.08ZM1471.08 144.801V142.801H1439.08V144.801V146.801H1471.08V144.801ZM1439.08 144.801H1441.08V4.80077H1439.08H1437.08V144.801H1439.08ZM1439.08 4.80077V6.80077H1492.08V4.80077V2.80077H1439.08V4.80077ZM1492.08 70.8008V72.8008C1503.1 72.8008 1511.08 63.9828 1511.08 52.8008H1509.08H1507.08C1507.08 62.0188 1500.65 68.8008 1492.08 68.8008V70.8008ZM1509.08 52.8008H1511.08C1511.08 41.6188 1503.1 32.8008 1492.08 32.8008V34.8008V36.8008C1500.65 36.8008 1507.08 43.5828 1507.08 52.8008H1509.08ZM1492.08 34.8008V32.8008H1471.08V34.8008V36.8008H1492.08V34.8008ZM1471.08 34.8008H1469.08V70.8008H1471.08H1473.08V34.8008H1471.08ZM1471.08 70.8008V72.8008H1492.08V70.8008V68.8008H1471.08V70.8008ZM1586.85 114.001H1584.85L1586.85 116.001V114.001ZM1642.85 114.001H1644.85L1642.85 112.001V114.001ZM1642.85 144.801V146.801L1644.85 144.801H1642.85ZM1554.85 144.801H1552.85L1554.85 146.801V144.801ZM1554.85 4.80077V2.80077L1552.85 4.80077H1554.85ZM1641.85 4.80077H1643.85L1641.85 2.80077V4.80077ZM1641.85 35.6008V37.6008L1643.85 35.6008H1641.85ZM1586.85 35.6008V33.6008L1584.85 35.6008H1586.85ZM1586.85 58.8008H1584.85L1586.85 60.8008V58.8008ZM1636.85 58.8008H1638.85L1636.85 56.8008V58.8008ZM1636.85 89.2008V91.2008L1638.85 89.2008H1636.85ZM1586.85 89.2008V87.2008L1584.85 89.2008H1586.85ZM1586.85 114.001V116.001H1642.85V114.001V112.001H1586.85V114.001ZM1642.85 114.001H1640.85V144.801H1642.85H1644.85V114.001H1642.85ZM1642.85 144.801V142.801H1554.85V144.801V146.801H1642.85V144.801ZM1554.85 144.801H1556.85V4.80077H1554.85H1552.85V144.801H1554.85ZM1554.85 4.80077V6.80077H1641.85V4.80077V2.80077H1554.85V4.80077ZM1641.85 4.80077H1639.85V35.6008H1641.85H1643.85V4.80077H1641.85ZM1641.85 35.6008V33.6008H1586.85V35.6008V37.6008H1641.85V35.6008ZM1586.85 35.6008H1584.85V58.8008H1586.85H1588.85V35.6008H1586.85ZM1586.85 58.8008V60.8008H1636.85V58.8008V56.8008H1586.85V58.8008ZM1636.85 58.8008H1634.85V89.2008H1636.85H1638.85V58.8008H1636.85ZM1636.85 89.2008V87.2008H1586.85V89.2008V91.2008H1636.85V89.2008ZM1586.85 89.2008H1584.85V114.001H1586.85H1588.85V89.2008H1586.85ZM1732.3 144.801L1730.57 145.796L1732.3 146.801V144.801ZM1705.9 98.8008L1707.63 97.8053L1705.9 96.8008V98.8008ZM1690.7 98.8008V96.8008L1688.7 98.8008H1690.7ZM1690.7 144.801V146.801L1692.7 144.801H1690.7ZM1658.7 144.801H1656.7L1658.7 146.801V144.801ZM1658.7 4.80077V2.80077L1656.7 4.80077H1658.7ZM1736.9 93.4008L1736 91.6166L1735.17 94.4039L1736.9 93.4008ZM1766.7 144.801V146.801L1768.43 143.798L1766.7 144.801ZM1690.7 34.8008V32.8008L1688.7 34.8008H1690.7ZM1690.7 70.8008H1688.7L1690.7 72.8008V70.8008ZM1732.3 144.801L1734.03 143.805L1707.63 97.8053L1705.9 98.8008L1704.17 99.7963L1730.57 145.796L1732.3 144.801ZM1705.9 98.8008V96.8008H1690.7V98.8008V100.801H1705.9V98.8008ZM1690.7 98.8008H1688.7V144.801H1690.7H1692.7V98.8008H1690.7ZM1690.7 144.801V142.801H1658.7V144.801V146.801H1690.7V144.801ZM1658.7 144.801H1660.7V4.80077H1658.7H1656.7V144.801H1658.7ZM1658.7 4.80077V6.80077H1714.7V4.80077V2.80077H1658.7V4.80077ZM1714.7 4.80077V6.80077C1740.2 6.80077 1760.7 27.3053 1760.7 52.8008H1762.7H1764.7C1764.7 25.0962 1742.4 2.80077 1714.7 2.80077V4.80077ZM1762.7 52.8008H1760.7C1760.7 69.1816 1750.78 84.1266 1736 91.6166L1736.9 93.4008L1737.8 95.185C1753.82 87.075 1764.7 70.82 1764.7 52.8008H1762.7ZM1736.9 93.4008L1735.17 94.4039L1764.97 145.804L1766.7 144.801L1768.43 143.798L1738.63 92.3976L1736.9 93.4008ZM1766.7 144.801V142.801H1732.3V144.801V146.801H1766.7V144.801ZM1690.7 34.8008H1688.7V70.8008H1690.7H1692.7V34.8008H1690.7ZM1690.7 70.8008V72.8008H1714.7V70.8008V68.8008H1690.7V70.8008ZM1714.7 70.8008V72.8008C1724.8 72.8008 1732.7 63.9002 1732.7 52.8008H1730.7H1728.7C1728.7 62.1013 1722.2 68.8008 1714.7 68.8008V70.8008ZM1730.7 52.8008H1732.7C1732.7 41.7013 1724.8 32.8008 1714.7 32.8008V34.8008V36.8008C1722.2 36.8008 1728.7 43.5002 1728.7 52.8008H1730.7ZM1714.7 34.8008V32.8008H1690.7V34.8008V36.8008H1714.7V34.8008ZM1864.55 35.6008V37.6008L1866.55 35.6008H1864.55ZM1811.55 35.6008V33.6008L1809.55 35.6008H1811.55ZM1811.55 62.6008H1809.55L1811.55 64.6008V62.6008ZM1863.55 62.6008H1865.55L1863.55 60.6008V62.6008ZM1863.55 93.4008V95.4008L1865.55 93.4008H1863.55ZM1811.55 93.4008V91.4008L1809.55 93.4008H1811.55ZM1811.55 144.801V146.801L1813.55 144.801H1811.55ZM1779.55 144.801H1777.55L1779.55 146.801V144.801ZM1779.55 4.80077V2.80077L1777.55 4.80077H1779.55ZM1864.55 4.80077H1866.55L1864.55 2.80077V4.80077ZM1864.55 35.6008V33.6008H1811.55V35.6008V37.6008H1864.55V35.6008ZM1811.55 35.6008H1809.55V62.6008H1811.55H1813.55V35.6008H1811.55ZM1811.55 62.6008V64.6008H1863.55V62.6008V60.6008H1811.55V62.6008ZM1863.55 62.6008H1861.55V93.4008H1863.55H1865.55V62.6008H1863.55ZM1863.55 93.4008V91.4008H1811.55V93.4008V95.4008H1863.55V93.4008ZM1811.55 93.4008H1809.55V144.801H1811.55H1813.55V93.4008H1811.55ZM1811.55 144.801V142.801H1779.55V144.801V146.801H1811.55V144.801ZM1779.55 144.801H1781.55V4.80077H1779.55H1777.55V144.801H1779.55ZM1779.55 4.80077V6.80077H1864.55V4.80077V2.80077H1779.55V4.80077ZM1864.55 4.80077H1862.55V35.6008H1864.55H1866.55V4.80077H1864.55ZM1948.05 147.601V145.601C1908.94 145.601 1877.25 114.878 1877.25 74.8008H1875.25H1873.25C1873.25 117.123 1906.77 149.601 1948.05 149.601V147.601ZM1875.25 74.8008H1877.25C1877.25 34.7233 1908.94 4.00078 1948.05 4.00078V2.00078V0.000778198C1906.77 0.000778198 1873.25 32.4783 1873.25 74.8008H1875.25ZM1948.05 2.00078V4.00078C1987.17 4.00078 2018.85 34.7233 2018.85 74.8008H2020.85H2022.85C2022.85 32.4783 1989.34 0.000778198 1948.05 0.000778198V2.00078ZM2020.85 74.8008H2018.85C2018.85 114.878 1987.17 145.601 1948.05 145.601V147.601V149.601C1989.34 149.601 2022.85 117.123 2022.85 74.8008H2020.85ZM1948.05 116.401V118.401C1971.94 118.401 1990.85 100.925 1990.85 74.8008H1988.85H1986.85C1986.85 98.6769 1969.77 114.401 1948.05 114.401V116.401ZM1988.85 74.8008H1990.85C1990.85 48.6769 1971.94 31.2008 1948.05 31.2008V33.2008V35.2008C1969.77 35.2008 1986.85 50.9246 1986.85 74.8008H1988.85ZM1948.05 33.2008V31.2008C1924.17 31.2008 1905.25 48.6769 1905.25 74.8008H1907.25H1909.25C1909.25 50.9246 1926.34 35.2008 1948.05 35.2008V33.2008ZM1907.25 74.8008H1905.25C1905.25 100.925 1924.17 118.401 1948.05 118.401V116.401V114.401C1926.34 114.401 1909.25 98.6769 1909.25 74.8008H1907.25ZM2110.27 144.801L2108.54 145.796L2110.27 146.801V144.801ZM2083.87 98.8008L2085.6 97.8053L2083.87 96.8008V98.8008ZM2068.67 98.8008V96.8008L2066.67 98.8008H2068.67ZM2068.67 144.801V146.801L2070.67 144.801H2068.67ZM2036.67 144.801H2034.67L2036.67 146.801V144.801ZM2036.67 4.80077V2.80077L2034.67 4.80077H2036.67ZM2114.87 93.4008L2113.97 91.6166L2113.14 94.4039L2114.87 93.4008ZM2144.67 144.801V146.801L2146.4 143.798L2144.67 144.801ZM2068.67 34.8008V32.8008L2066.67 34.8008H2068.67ZM2068.67 70.8008H2066.67L2068.67 72.8008V70.8008ZM2110.27 144.801L2112 143.805L2085.6 97.8053L2083.87 98.8008L2082.14 99.7963L2108.54 145.796L2110.27 144.801ZM2083.87 98.8008V96.8008H2068.67V98.8008V100.801H2083.87V98.8008ZM2068.67 98.8008H2066.67V144.801H2068.67H2070.67V98.8008H2068.67ZM2068.67 144.801V142.801H2036.67V144.801V146.801H2068.67V144.801ZM2036.67 144.801H2038.67V4.80077H2036.67H2034.67V144.801H2036.67ZM2036.67 4.80077V6.80077H2092.67V4.80077V2.80077H2036.67V4.80077ZM2092.67 4.80077V6.80077C2118.17 6.80077 2138.67 27.3053 2138.67 52.8008H2140.67H2142.67C2142.67 25.0962 2120.37 2.80077 2092.67 2.80077V4.80077ZM2140.67 52.8008H2138.67C2138.67 69.1816 2128.75 84.1266 2113.97 91.6166L2114.87 93.4008L2115.77 95.185C2131.79 87.075 2142.67 70.82 2142.67 52.8008H2140.67ZM2114.87 93.4008L2113.14 94.4039L2142.94 145.804L2144.67 144.801L2146.4 143.798L2116.6 92.3976L2114.87 93.4008ZM2144.67 144.801V142.801H2110.27V144.801V146.801H2144.67V144.801ZM2068.67 34.8008H2066.67V70.8008H2068.67H2070.67V34.8008H2068.67ZM2068.67 70.8008V72.8008H2092.67V70.8008V68.8008H2068.67V70.8008ZM2092.67 70.8008V72.8008C2102.77 72.8008 2110.67 63.9002 2110.67 52.8008H2108.67H2106.67C2106.67 62.1013 2100.17 68.8008 2092.67 68.8008V70.8008ZM2108.67 52.8008H2110.67C2110.67 41.7013 2102.77 32.8008 2092.67 32.8008V34.8008V36.8008C2100.17 36.8008 2106.67 43.5002 2106.67 52.8008H2108.67ZM2092.67 34.8008V32.8008H2068.67V34.8008V36.8008H2092.67V34.8008ZM2297.52 4.80077H2299.52L2297.52 2.80077V4.80077ZM2297.52 144.801V146.801L2299.52 144.801H2297.52ZM2265.52 144.801H2263.52L2265.52 146.801V144.801ZM2265.52 63.4008H2267.52L2263.81 62.36L2265.52 63.4008ZM2229.32 122.801V124.801L2231.02 123.842L2229.32 122.801ZM2225.72 122.801L2224.01 123.842L2225.72 124.801V122.801ZM2189.52 63.4008L2191.22 62.36L2187.52 63.4008H2189.52ZM2189.52 144.801V146.801L2191.52 144.801H2189.52ZM2157.52 144.801H2155.52L2157.52 146.801V144.801ZM2157.52 4.80077V2.80077L2155.52 4.80077H2157.52ZM2189.52 4.80077L2191.22 3.75809L2189.52 2.80077V4.80077ZM2227.52 67.0008L2225.81 68.0435H2229.22L2227.52 67.0008ZM2265.52 4.80077V2.80077L2263.81 3.75809L2265.52 4.80077ZM2297.52 4.80077H2295.52V144.801H2297.52H2299.52V4.80077H2297.52ZM2297.52 144.801V142.801H2265.52V144.801V146.801H2297.52V144.801ZM2265.52 144.801H2267.52V63.4008H2265.52H2263.52V144.801H2265.52ZM2265.52 63.4008L2263.81 62.36L2227.61 121.76L2229.32 122.801L2231.02 123.842L2267.22 64.4416L2265.52 63.4008ZM2229.32 122.801V120.801H2225.72V122.801V124.801H2229.32V122.801ZM2225.72 122.801L2227.43 121.76L2191.22 62.36L2189.52 63.4008L2187.81 64.4416L2224.01 123.842L2225.72 122.801ZM2189.52 63.4008H2187.52V144.801H2189.52H2191.52V63.4008H2189.52ZM2189.52 144.801V142.801H2157.52V144.801V146.801H2189.52V144.801ZM2157.52 144.801H2159.52V4.80077H2157.52H2155.52V144.801H2157.52ZM2157.52 4.80077V6.80077H2189.52V4.80077V2.80077H2157.52V4.80077ZM2189.52 4.80077L2187.81 5.84344L2225.81 68.0435L2227.52 67.0008L2229.22 65.9581L2191.22 3.75809L2189.52 4.80077ZM2227.52 67.0008L2229.22 68.0435L2267.22 5.84344L2265.52 4.80077L2263.81 3.75809L2225.81 65.9581L2227.52 67.0008ZM2265.52 4.80077V6.80077H2297.52V4.80077V2.80077H2265.52V4.80077ZM2408.38 144.801L2406.47 145.407L2408.38 146.801V144.801ZM2401.38 122.801L2403.29 122.194L2401.38 120.801V122.801ZM2349.38 122.801V120.801L2347.47 122.194L2349.38 122.801ZM2342.38 144.801V146.801L2344.29 145.407L2342.38 144.801ZM2307.38 144.801L2305.49 144.157L2307.38 146.801V144.801ZM2354.98 4.80077V2.80077L2353.09 4.15697L2354.98 4.80077ZM2395.78 4.80077L2397.67 4.15697L2395.78 2.80077V4.80077ZM2443.38 144.801V146.801L2445.27 144.157L2443.38 144.801ZM2358.98 92.8008L2357.07 92.1928L2358.98 94.8008V92.8008ZM2391.78 92.8008V94.8008L2393.69 92.1928L2391.78 92.8008ZM2375.38 41.4008L2377.28 40.7928H2373.47L2375.38 41.4008ZM2408.38 144.801L2410.29 144.194L2403.29 122.194L2401.38 122.801L2399.47 123.407L2406.47 145.407L2408.38 144.801ZM2401.38 122.801V120.801H2349.38V122.801V124.801H2401.38V122.801ZM2349.38 122.801L2347.47 122.194L2340.47 144.194L2342.38 144.801L2344.29 145.407L2351.29 123.407L2349.38 122.801ZM2342.38 144.801V142.801H2307.38V144.801V146.801H2342.38V144.801ZM2307.38 144.801L2309.27 145.445L2356.87 5.44458L2354.98 4.80077L2353.09 4.15697L2305.49 144.157L2307.38 144.801ZM2354.98 4.80077V6.80077H2395.78V4.80077V2.80077H2354.98V4.80077ZM2395.78 4.80077L2393.89 5.44458L2441.49 145.445L2443.38 144.801L2445.27 144.157L2397.67 4.15697L2395.78 4.80077ZM2443.38 144.801V142.801H2408.38V144.801V146.801H2443.38V144.801ZM2358.98 92.8008V94.8008H2391.78V92.8008V90.8008H2358.98V92.8008ZM2391.78 92.8008L2393.69 92.1928L2377.28 40.7928L2375.38 41.4008L2373.47 42.0087L2389.87 93.4087L2391.78 92.8008ZM2375.38 41.4008L2373.47 40.7928L2357.07 92.1928L2358.98 92.8008L2360.89 93.4087L2377.28 42.0087L2375.38 41.4008ZM2531.12 4.80077V2.80077L2529.12 4.80077H2531.12ZM2563.12 4.80077H2565.12L2563.12 2.80077V4.80077ZM2563.12 144.801V146.801L2565.12 144.801H2563.12ZM2539.12 144.801L2537.49 145.959L2539.12 146.801V144.801ZM2485.12 68.8008L2486.75 67.6424L2483.12 68.8008H2485.12ZM2485.12 144.801V146.801L2487.12 144.801H2485.12ZM2453.12 144.801H2451.12L2453.12 146.801V144.801ZM2453.12 4.80077V2.80077L2451.12 4.80077H2453.12ZM2477.12 4.80077L2478.75 3.64236L2477.12 2.80077V4.80077ZM2531.12 80.8008L2529.49 81.9592L2533.12 80.8008H2531.12ZM2531.12 4.80077V6.80077H2563.12V4.80077V2.80077H2531.12V4.80077ZM2563.12 4.80077H2561.12V144.801H2563.12H2565.12V4.80077H2563.12ZM2563.12 144.801V142.801H2539.12V144.801V146.801H2563.12V144.801ZM2539.12 144.801L2540.75 143.642L2486.75 67.6424L2485.12 68.8008L2483.49 69.9592L2537.49 145.959L2539.12 144.801ZM2485.12 68.8008H2483.12V144.801H2485.12H2487.12V68.8008H2485.12ZM2485.12 144.801V142.801H2453.12V144.801V146.801H2485.12V144.801ZM2453.12 144.801H2455.12V4.80077H2453.12H2451.12V144.801H2453.12ZM2453.12 4.80077V6.80077H2477.12V4.80077V2.80077H2453.12V4.80077ZM2477.12 4.80077L2475.49 5.95918L2529.49 81.9592L2531.12 80.8008L2532.75 79.6424L2478.75 3.64236L2477.12 4.80077ZM2531.12 80.8008H2533.12V4.80077H2531.12H2529.12V80.8008H2531.12ZM2711.7 34.4008L2712.7 36.1311L2713.4 33.3516L2711.7 34.4008ZM2684.1 50.4008L2682.37 51.3965L2685.1 52.1311L2684.1 50.4008ZM2684.1 99.2008L2685.1 97.4705L2682.35 98.2295L2684.1 99.2008ZM2711.7 115.201L2713.41 116.237L2712.7 113.471L2711.7 115.201ZM2651.7 147.601V145.601C2610.62 145.601 2580.9 114.914 2580.9 74.8008H2578.9H2576.9C2576.9 117.087 2608.38 149.601 2651.7 149.601V147.601ZM2578.9 74.8008H2580.9C2580.9 34.6871 2610.62 4.00078 2651.7 4.00078V2.00078V0.000778198C2608.38 0.000778198 2576.9 32.5144 2576.9 74.8008H2578.9ZM2651.7 2.00078V4.00078C2676.44 4.00078 2698.18 16.2652 2710 35.4499L2711.7 34.4008L2713.4 33.3516C2700.83 12.9364 2677.77 0.000778198 2651.7 0.000778198V2.00078ZM2711.7 34.4008L2710.7 32.6705L2683.1 48.6705L2684.1 50.4008L2685.1 52.1311L2712.7 36.1311L2711.7 34.4008ZM2684.1 50.4008L2685.84 49.405C2679.23 37.89 2666.5 31.2008 2651.7 31.2008V33.2008V35.2008C2665.3 35.2008 2676.58 41.3116 2682.37 51.3965L2684.1 50.4008ZM2651.7 33.2008V31.2008C2638.84 31.2008 2628.1 35.5148 2620.57 43.2289C2613.05 50.9376 2608.9 61.8694 2608.9 74.8008H2610.9H2612.9C2612.9 62.7322 2616.76 52.8639 2623.43 46.0227C2630.1 39.1867 2639.76 35.2008 2651.7 35.2008V33.2008ZM2610.9 74.8008H2608.9C2608.9 87.7322 2613.05 98.6639 2620.57 106.373C2628.1 114.087 2638.84 118.401 2651.7 118.401V116.401V114.401C2639.76 114.401 2630.1 110.415 2623.43 103.579C2616.76 96.7376 2612.9 86.8694 2612.9 74.8008H2610.9ZM2651.7 116.401V118.401C2666.48 118.401 2679.43 111.724 2685.85 100.172L2684.1 99.2008L2682.35 98.2295C2676.77 108.277 2665.32 114.401 2651.7 114.401V116.401ZM2684.1 99.2008L2683.1 100.931L2710.7 116.931L2711.7 115.201L2712.7 113.471L2685.1 97.4705L2684.1 99.2008ZM2711.7 115.201L2709.99 114.164C2698.37 133.332 2676.64 145.601 2651.7 145.601V147.601V149.601C2677.96 149.601 2701.03 136.669 2713.41 116.237L2711.7 115.201ZM2756.5 114.001H2754.5L2756.5 116.001V114.001ZM2812.5 114.001H2814.5L2812.5 112.001V114.001ZM2812.5 144.801V146.801L2814.5 144.801H2812.5ZM2724.5 144.801H2722.5L2724.5 146.801V144.801ZM2724.5 4.80077V2.80077L2722.5 4.80077H2724.5ZM2811.5 4.80077H2813.5L2811.5 2.80077V4.80077ZM2811.5 35.6008V37.6008L2813.5 35.6008H2811.5ZM2756.5 35.6008V33.6008L2754.5 35.6008H2756.5ZM2756.5 58.8008H2754.5L2756.5 60.8008V58.8008ZM2806.5 58.8008H2808.5L2806.5 56.8008V58.8008ZM2806.5 89.2008V91.2008L2808.5 89.2008H2806.5ZM2756.5 89.2008V87.2008L2754.5 89.2008H2756.5ZM2756.5 114.001V116.001H2812.5V114.001V112.001H2756.5V114.001ZM2812.5 114.001H2810.5V144.801H2812.5H2814.5V114.001H2812.5ZM2812.5 144.801V142.801H2724.5V144.801V146.801H2812.5V144.801ZM2724.5 144.801H2726.5V4.80077H2724.5H2722.5V144.801H2724.5ZM2724.5 4.80077V6.80077H2811.5V4.80077V2.80077H2724.5V4.80077ZM2811.5 4.80077H2809.5V35.6008H2811.5H2813.5V4.80077H2811.5ZM2811.5 35.6008V33.6008H2756.5V35.6008V37.6008H2811.5V35.6008ZM2756.5 35.6008H2754.5V58.8008H2756.5H2758.5V35.6008H2756.5ZM2756.5 58.8008V60.8008H2806.5V58.8008V56.8008H2756.5V58.8008ZM2806.5 58.8008H2804.5V89.2008H2806.5H2808.5V58.8008H2806.5ZM2806.5 89.2008V87.2008H2756.5V89.2008V91.2008H2806.5V89.2008ZM2756.5 89.2008H2754.5V114.001H2756.5H2758.5V89.2008H2756.5Z" fill="white" mask="url(#path-1-outside-1_1354_492)"/>
</svg>
