<svg width="2140" height="115" viewBox="0 0 2140 115" fill="none" xmlns="http://www.w3.org/2000/svg">
<mask id="path-1-outside-1_1851_889" maskUnits="userSpaceOnUse" x="-0.119141" y="-0.472656" width="2141" height="116" fill="black">
<rect fill="white" x="-0.119141" y="-0.472656" width="2141" height="116"/>
<path d="M42.2809 4.12734C63.2569 4.12734 79.5209 20.3913 79.5209 40.6073C79.5209 60.8233 63.2569 77.0873 42.2809 77.0873H26.3209V110.527H2.00086V4.12734H42.2809ZM42.2809 54.2873C49.7289 54.2873 55.2009 48.3593 55.2009 40.6073C55.2009 32.8553 49.7289 26.9273 42.2809 26.9273H26.3209V54.2873H42.2809ZM114.305 87.1193H156.865V110.527H89.9851V4.12734H156.105V27.5353H114.305V45.1673H152.305V68.2713H114.305V87.1193ZM224.851 110.527L204.787 75.5673H193.235V110.527H168.915V4.12734H211.475C231.691 4.12734 247.955 20.3913 247.955 40.6073C247.955 53.6793 240.051 65.5353 228.347 71.4633L250.995 110.527H224.851ZM193.235 26.9273V54.2873H211.475C218.163 54.2873 223.635 48.3593 223.635 40.6073C223.635 32.8553 218.163 26.9273 211.475 26.9273H193.235ZM325.358 27.5353H285.078V48.0553H324.598V71.4633H285.078V110.527H260.758V4.12734H325.358V27.5353ZM388.823 112.655C358.271 112.655 333.495 88.6393 333.495 57.3273C333.495 26.0153 358.271 1.99934 388.823 1.99934C419.375 1.99934 444.151 26.0153 444.151 57.3273C444.151 88.6393 419.375 112.655 388.823 112.655ZM388.823 88.9433C406.151 88.9433 419.831 76.3273 419.831 57.3273C419.831 38.3273 406.151 25.7113 388.823 25.7113C371.495 25.7113 357.815 38.3273 357.815 57.3273C357.815 76.3273 371.495 88.9433 388.823 88.9433ZM512.108 110.527L492.044 75.5673H480.492V110.527H456.172V4.12734H498.732C518.948 4.12734 535.212 20.3913 535.212 40.6073C535.212 53.6793 527.308 65.5353 515.604 71.4633L538.252 110.527H512.108ZM480.492 26.9273V54.2873H498.732C505.42 54.2873 510.892 48.3593 510.892 40.6073C510.892 32.8553 505.42 26.9273 498.732 26.9273H480.492ZM654.416 4.12734V110.527H630.096V48.6633L602.584 93.8073H599.848L572.336 48.6633V110.527H548.016V4.12734H572.336L601.216 51.3993L630.096 4.12734H654.416ZM738.671 110.527L733.351 93.8073H693.831L688.511 110.527H661.911L698.087 4.12734H729.095L765.271 110.527H738.671ZM701.127 71.0073H726.055L713.591 31.9433L701.127 71.0073ZM831.952 4.12734H856.272V110.527H838.032L796.992 52.7673V110.527H772.672V4.12734H790.912L831.952 61.8873V4.12734ZM923.596 112.655C891.524 112.655 868.268 88.6393 868.268 57.3273C868.268 26.0153 891.524 1.99934 923.596 1.99934C942.9 1.99934 959.924 11.5753 969.196 26.6233L948.22 38.7833C943.508 30.5753 934.388 25.7113 923.596 25.7113C904.748 25.7113 892.588 38.3273 892.588 57.3273C892.588 76.3273 904.748 88.9433 923.596 88.9433C934.388 88.9433 943.66 84.0793 948.22 75.8713L969.196 88.0313C960.076 103.079 943.052 112.655 923.596 112.655ZM1003.24 87.1193H1045.8V110.527H978.922V4.12734H1045.04V27.5353H1003.24V45.1673H1041.24V68.2713H1003.24V87.1193ZM1134.46 4.12734C1155.44 4.12734 1171.7 20.3913 1171.7 40.6073C1171.7 60.8233 1155.44 77.0873 1134.46 77.0873H1118.5V110.527H1094.18V4.12734H1134.46ZM1134.46 54.2873C1141.91 54.2873 1147.38 48.3593 1147.38 40.6073C1147.38 32.8553 1141.91 26.9273 1134.46 26.9273H1118.5V54.2873H1134.46ZM1206.48 87.1193H1249.04V110.527H1182.16V4.12734H1248.28V27.5353H1206.48V45.1673H1244.48V68.2713H1206.48V87.1193ZM1317.03 110.527L1296.96 75.5673H1285.41V110.527H1261.09V4.12734H1303.65C1323.87 4.12734 1340.13 20.3913 1340.13 40.6073C1340.13 53.6793 1332.23 65.5353 1320.52 71.4633L1343.17 110.527H1317.03ZM1285.41 26.9273V54.2873H1303.65C1310.34 54.2873 1315.81 48.3593 1315.81 40.6073C1315.81 32.8553 1310.34 26.9273 1303.65 26.9273H1285.41ZM1417.54 27.5353H1377.26V48.0553H1416.78V71.4633H1377.26V110.527H1352.94V4.12734H1417.54V27.5353ZM1481 112.655C1450.45 112.655 1425.67 88.6393 1425.67 57.3273C1425.67 26.0153 1450.45 1.99934 1481 1.99934C1511.55 1.99934 1536.33 26.0153 1536.33 57.3273C1536.33 88.6393 1511.55 112.655 1481 112.655ZM1481 88.9433C1498.33 88.9433 1512.01 76.3273 1512.01 57.3273C1512.01 38.3273 1498.33 25.7113 1481 25.7113C1463.67 25.7113 1449.99 38.3273 1449.99 57.3273C1449.99 76.3273 1463.67 88.9433 1481 88.9433ZM1604.29 110.527L1584.22 75.5673H1572.67V110.527H1548.35V4.12734H1590.91C1611.13 4.12734 1627.39 20.3913 1627.39 40.6073C1627.39 53.6793 1619.49 65.5353 1607.78 71.4633L1630.43 110.527H1604.29ZM1572.67 26.9273V54.2873H1590.91C1597.6 54.2873 1603.07 48.3593 1603.07 40.6073C1603.07 32.8553 1597.6 26.9273 1590.91 26.9273H1572.67ZM1746.59 4.12734V110.527H1722.27V48.6633L1694.76 93.8073H1692.03L1664.51 48.6633V110.527H1640.19V4.12734H1664.51L1693.39 51.3993L1722.27 4.12734H1746.59ZM1830.85 110.527L1825.53 93.8073H1786.01L1780.69 110.527H1754.09L1790.27 4.12734H1821.27L1857.45 110.527H1830.85ZM1793.31 71.0073H1818.23L1805.77 31.9433L1793.31 71.0073ZM1924.13 4.12734H1948.45V110.527H1930.21L1889.17 52.7673V110.527H1864.85V4.12734H1883.09L1924.13 61.8873V4.12734ZM2015.77 112.655C1983.7 112.655 1960.45 88.6393 1960.45 57.3273C1960.45 26.0153 1983.7 1.99934 2015.77 1.99934C2035.08 1.99934 2052.1 11.5753 2061.37 26.6233L2040.4 38.7833C2035.69 30.5753 2026.57 25.7113 2015.77 25.7113C1996.93 25.7113 1984.77 38.3273 1984.77 57.3273C1984.77 76.3273 1996.93 88.9433 2015.77 88.9433C2026.57 88.9433 2035.84 84.0793 2040.4 75.8713L2061.37 88.0313C2052.25 103.079 2035.23 112.655 2015.77 112.655ZM2095.42 87.1193H2137.98V110.527H2071.1V4.12734H2137.22V27.5353H2095.42V45.1673H2133.42V68.2713H2095.42V87.1193Z"/>
</mask>
<path d="M26.3209 77.0873V75.0873L24.3209 77.0873H26.3209ZM26.3209 110.527V112.527L28.3209 110.527H26.3209ZM2.00086 110.527H0.000859737L2.00086 112.527V110.527ZM2.00086 4.12733V2.12733L0.000859737 4.12733H2.00086ZM26.3209 26.9273V24.9273L24.3209 26.9273H26.3209ZM26.3209 54.2873H24.3209L26.3209 56.2873V54.2873ZM42.2809 4.12733V6.12733C62.1794 6.12733 77.5209 21.5228 77.5209 40.6073H79.5209H81.5209C81.5209 19.2599 64.3344 2.12733 42.2809 2.12733V4.12733ZM79.5209 40.6073H77.5209C77.5209 59.6919 62.1794 75.0873 42.2809 75.0873V77.0873V79.0873C64.3344 79.0873 81.5209 61.9548 81.5209 40.6073H79.5209ZM42.2809 77.0873V75.0873H26.3209V77.0873V79.0873H42.2809V77.0873ZM26.3209 77.0873H24.3209V110.527H26.3209H28.3209V77.0873H26.3209ZM26.3209 110.527V108.527H2.00086V110.527V112.527H26.3209V110.527ZM2.00086 110.527H4.00086V4.12733H2.00086H0.000859737V110.527H2.00086ZM2.00086 4.12733V6.12733H42.2809V4.12733V2.12733H2.00086V4.12733ZM42.2809 54.2873V56.2873C50.9521 56.2873 57.2009 49.3414 57.2009 40.6073H55.2009H53.2009C53.2009 47.3773 48.5056 52.2873 42.2809 52.2873V54.2873ZM55.2009 40.6073H57.2009C57.2009 31.8733 50.9521 24.9273 42.2809 24.9273V26.9273V28.9273C48.5056 28.9273 53.2009 33.8374 53.2009 40.6073H55.2009ZM42.2809 26.9273V24.9273H26.3209V26.9273V28.9273H42.2809V26.9273ZM26.3209 26.9273H24.3209V54.2873H26.3209H28.3209V26.9273H26.3209ZM26.3209 54.2873V56.2873H42.2809V54.2873V52.2873H26.3209V54.2873ZM114.305 87.1193H112.305L114.305 89.1193V87.1193ZM156.865 87.1193H158.865L156.865 85.1193V87.1193ZM156.865 110.527V112.527L158.865 110.527H156.865ZM89.9851 110.527H87.9851L89.9851 112.527V110.527ZM89.9851 4.12733V2.12733L87.9851 4.12733H89.9851ZM156.105 4.12733H158.105L156.105 2.12733V4.12733ZM156.105 27.5353V29.5353L158.105 27.5353H156.105ZM114.305 27.5353V25.5353L112.305 27.5353H114.305ZM114.305 45.1673H112.305L114.305 47.1673V45.1673ZM152.305 45.1673H154.305L152.305 43.1673V45.1673ZM152.305 68.2713V70.2713L154.305 68.2713H152.305ZM114.305 68.2713V66.2713L112.305 68.2713H114.305ZM114.305 87.1193V89.1193H156.865V87.1193V85.1193H114.305V87.1193ZM156.865 87.1193H154.865V110.527H156.865H158.865V87.1193H156.865ZM156.865 110.527V108.527H89.9851V110.527V112.527H156.865V110.527ZM89.9851 110.527H91.9851V4.12733H89.9851H87.9851V110.527H89.9851ZM89.9851 4.12733V6.12733H156.105V4.12733V2.12733H89.9851V4.12733ZM156.105 4.12733H154.105V27.5353H156.105H158.105V4.12733H156.105ZM156.105 27.5353V25.5353H114.305V27.5353V29.5353H156.105V27.5353ZM114.305 27.5353H112.305V45.1673H114.305H116.305V27.5353H114.305ZM114.305 45.1673V47.1673H152.305V45.1673V43.1673H114.305V45.1673ZM152.305 45.1673H150.305V68.2713H152.305H154.305V45.1673H152.305ZM152.305 68.2713V66.2713H114.305V68.2713V70.2713H152.305V68.2713ZM114.305 68.2713H112.305V87.1193H114.305H116.305V68.2713H114.305ZM224.851 110.527L223.116 111.523L224.851 112.527V110.527ZM204.787 75.5673L206.521 74.5718L204.787 73.5673V75.5673ZM193.235 75.5673V73.5673L191.235 75.5673H193.235ZM193.235 110.527V112.527L195.235 110.527H193.235ZM168.915 110.527H166.915L168.915 112.527V110.527ZM168.915 4.12733V2.12733L166.915 4.12733H168.915ZM228.347 71.4633L227.443 69.6792L226.616 72.4665L228.347 71.4633ZM250.995 110.527V112.527L252.725 109.524L250.995 110.527ZM193.235 26.9273V24.9273L191.235 26.9273H193.235ZM193.235 54.2873H191.235L193.235 56.2873V54.2873ZM224.851 110.527L226.585 109.532L206.521 74.5718L204.787 75.5673L203.052 76.5629L223.116 111.523L224.851 110.527ZM204.787 75.5673V73.5673H193.235V75.5673V77.5673H204.787V75.5673ZM193.235 75.5673H191.235V110.527H193.235H195.235V75.5673H193.235ZM193.235 110.527V108.527H168.915V110.527V112.527H193.235V110.527ZM168.915 110.527H170.915V4.12733H168.915H166.915V110.527H168.915ZM168.915 4.12733V6.12733H211.475V4.12733V2.12733H168.915V4.12733ZM211.475 4.12733V6.12733C230.586 6.12733 245.955 21.4959 245.955 40.6073H247.955H249.955C249.955 19.2868 232.795 2.12733 211.475 2.12733V4.12733ZM247.955 40.6073H245.955C245.955 52.8602 238.535 64.0612 227.443 69.6792L228.347 71.4633L229.25 73.2475C241.566 67.0095 249.955 54.4985 249.955 40.6073H247.955ZM228.347 71.4633L226.616 72.4665L249.264 111.53L250.995 110.527L252.725 109.524L230.077 70.4602L228.347 71.4633ZM250.995 110.527V108.527H224.851V110.527V112.527H250.995V110.527ZM193.235 26.9273H191.235V54.2873H193.235H195.235V26.9273H193.235ZM193.235 54.2873V56.2873H211.475V54.2873V52.2873H193.235V54.2873ZM211.475 54.2873V56.2873C219.462 56.2873 225.635 49.2588 225.635 40.6073H223.635H221.635C221.635 47.4599 216.864 52.2873 211.475 52.2873V54.2873ZM223.635 40.6073H225.635C225.635 31.9559 219.462 24.9273 211.475 24.9273V26.9273V28.9273C216.864 28.9273 221.635 33.7548 221.635 40.6073H223.635ZM211.475 26.9273V24.9273H193.235V26.9273V28.9273H211.475V26.9273ZM325.358 27.5353V29.5353L327.358 27.5353H325.358ZM285.078 27.5353V25.5353L283.078 27.5353H285.078ZM285.078 48.0553H283.078L285.078 50.0553V48.0553ZM324.598 48.0553H326.598L324.598 46.0553V48.0553ZM324.598 71.4633V73.4633L326.598 71.4633H324.598ZM285.078 71.4633V69.4633L283.078 71.4633H285.078ZM285.078 110.527V112.527L287.078 110.527H285.078ZM260.758 110.527H258.758L260.758 112.527V110.527ZM260.758 4.12733V2.12733L258.758 4.12733H260.758ZM325.358 4.12733H327.358L325.358 2.12733V4.12733ZM325.358 27.5353V25.5353H285.078V27.5353V29.5353H325.358V27.5353ZM285.078 27.5353H283.078V48.0553H285.078H287.078V27.5353H285.078ZM285.078 48.0553V50.0553H324.598V48.0553V46.0553H285.078V48.0553ZM324.598 48.0553H322.598V71.4633H324.598H326.598V48.0553H324.598ZM324.598 71.4633V69.4633H285.078V71.4633V73.4633H324.598V71.4633ZM285.078 71.4633H283.078V110.527H285.078H287.078V71.4633H285.078ZM285.078 110.527V108.527H260.758V110.527V112.527H285.078V110.527ZM260.758 110.527H262.758V4.12733H260.758H258.758V110.527H260.758ZM260.758 4.12733V6.12733H325.358V4.12733V2.12733H260.758V4.12733ZM325.358 4.12733H323.358V27.5353H325.358H327.358V4.12733H325.358ZM388.823 112.655V110.655C359.358 110.655 335.495 87.5168 335.495 57.3273H333.495H331.495C331.495 89.7618 357.185 114.655 388.823 114.655V112.655ZM333.495 57.3273H335.495C335.495 27.1378 359.358 3.99934 388.823 3.99934V1.99934V-0.000663757C357.185 -0.000663757 331.495 24.8928 331.495 57.3273H333.495ZM388.823 1.99934V3.99934C418.289 3.99934 442.151 27.1378 442.151 57.3273H444.151H446.151C446.151 24.8928 420.462 -0.000663757 388.823 -0.000663757V1.99934ZM444.151 57.3273H442.151C442.151 87.5168 418.289 110.655 388.823 110.655V112.655V114.655C420.462 114.655 446.151 89.7618 446.151 57.3273H444.151ZM388.823 88.9433V90.9433C407.236 90.9433 421.831 77.4512 421.831 57.3273H419.831H417.831C417.831 75.2035 405.066 86.9433 388.823 86.9433V88.9433ZM419.831 57.3273H421.831C421.831 37.2035 407.236 23.7113 388.823 23.7113V25.7113V27.7113C405.066 27.7113 417.831 39.4512 417.831 57.3273H419.831ZM388.823 25.7113V23.7113C370.41 23.7113 355.815 37.2035 355.815 57.3273H357.815H359.815C359.815 39.4512 372.58 27.7113 388.823 27.7113V25.7113ZM357.815 57.3273H355.815C355.815 77.4512 370.41 90.9433 388.823 90.9433V88.9433V86.9433C372.58 86.9433 359.815 75.2035 359.815 57.3273H357.815ZM512.108 110.527L510.373 111.523L512.108 112.527V110.527ZM492.044 75.5673L493.779 74.5718L492.044 73.5673V75.5673ZM480.492 75.5673V73.5673L478.492 75.5673H480.492ZM480.492 110.527V112.527L482.492 110.527H480.492ZM456.172 110.527H454.172L456.172 112.527V110.527ZM456.172 4.12733V2.12733L454.172 4.12733H456.172ZM515.604 71.4633L514.7 69.6792L513.874 72.4665L515.604 71.4633ZM538.252 110.527V112.527L539.982 109.524L538.252 110.527ZM480.492 26.9273V24.9273L478.492 26.9273H480.492ZM480.492 54.2873H478.492L480.492 56.2873V54.2873ZM512.108 110.527L513.843 109.532L493.779 74.5718L492.044 75.5673L490.31 76.5629L510.373 111.523L512.108 110.527ZM492.044 75.5673V73.5673H480.492V75.5673V77.5673H492.044V75.5673ZM480.492 75.5673H478.492V110.527H480.492H482.492V75.5673H480.492ZM480.492 110.527V108.527H456.172V110.527V112.527H480.492V110.527ZM456.172 110.527H458.172V4.12733H456.172H454.172V110.527H456.172ZM456.172 4.12733V6.12733H498.732V4.12733V2.12733H456.172V4.12733ZM498.732 4.12733V6.12733C517.844 6.12733 533.212 21.4959 533.212 40.6073H535.212H537.212C537.212 19.2868 520.053 2.12733 498.732 2.12733V4.12733ZM535.212 40.6073H533.212C533.212 52.8602 525.792 64.0612 514.7 69.6792L515.604 71.4633L516.508 73.2475C528.824 67.0095 537.212 54.4985 537.212 40.6073H535.212ZM515.604 71.4633L513.874 72.4665L536.522 111.53L538.252 110.527L539.982 109.524L517.334 70.4602L515.604 71.4633ZM538.252 110.527V108.527H512.108V110.527V112.527H538.252V110.527ZM480.492 26.9273H478.492V54.2873H480.492H482.492V26.9273H480.492ZM480.492 54.2873V56.2873H498.732V54.2873V52.2873H480.492V54.2873ZM498.732 54.2873V56.2873C506.719 56.2873 512.892 49.2588 512.892 40.6073H510.892H508.892C508.892 47.4599 504.121 52.2873 498.732 52.2873V54.2873ZM510.892 40.6073H512.892C512.892 31.9559 506.719 24.9273 498.732 24.9273V26.9273V28.9273C504.121 28.9273 508.892 33.7548 508.892 40.6073H510.892ZM498.732 26.9273V24.9273H480.492V26.9273V28.9273H498.732V26.9273ZM654.416 4.12733H656.416L654.416 2.12733V4.12733ZM654.416 110.527V112.527L656.416 110.527H654.416ZM630.096 110.527H628.096L630.096 112.527V110.527ZM630.096 48.6633H632.096L628.388 47.6225L630.096 48.6633ZM602.584 93.8073V95.8073L604.292 94.8481L602.584 93.8073ZM599.848 93.8073L598.14 94.8481L599.848 95.8073V93.8073ZM572.336 48.6633L574.044 47.6225L570.336 48.6633H572.336ZM572.336 110.527V112.527L574.336 110.527H572.336ZM548.016 110.527H546.016L548.016 112.527V110.527ZM548.016 4.12733V2.12733L546.016 4.12733H548.016ZM572.336 4.12733L574.042 3.08466L572.336 2.12733V4.12733ZM601.216 51.3993L599.509 52.442H602.922L601.216 51.3993ZM630.096 4.12733V2.12733L628.389 3.08466L630.096 4.12733ZM654.416 4.12733H652.416V110.527H654.416H656.416V4.12733H654.416ZM654.416 110.527V108.527H630.096V110.527V112.527H654.416V110.527ZM630.096 110.527H632.096V48.6633H630.096H628.096V110.527H630.096ZM630.096 48.6633L628.388 47.6225L600.876 92.7665L602.584 93.8073L604.292 94.8481L631.804 49.7041L630.096 48.6633ZM602.584 93.8073V91.8073H599.848V93.8073V95.8073H602.584V93.8073ZM599.848 93.8073L601.556 92.7665L574.044 47.6225L572.336 48.6633L570.628 49.7041L598.14 94.8481L599.848 93.8073ZM572.336 48.6633H570.336V110.527H572.336H574.336V48.6633H572.336ZM572.336 110.527V108.527H548.016V110.527V112.527H572.336V110.527ZM548.016 110.527H550.016V4.12733H548.016H546.016V110.527H548.016ZM548.016 4.12733V6.12733H572.336V4.12733V2.12733H548.016V4.12733ZM572.336 4.12733L570.629 5.17001L599.509 52.442L601.216 51.3993L602.922 50.3567L574.042 3.08466L572.336 4.12733ZM601.216 51.3993L602.922 52.442L631.802 5.17001L630.096 4.12733L628.389 3.08466L599.509 50.3567L601.216 51.3993ZM630.096 4.12733V6.12733H654.416V4.12733V2.12733H630.096V4.12733ZM738.671 110.527L736.765 111.134L738.671 112.527V110.527ZM733.351 93.8073L735.257 93.2009L733.351 91.8073V93.8073ZM693.831 93.8073V91.8073L691.925 93.2009L693.831 93.8073ZM688.511 110.527V112.527L690.417 111.134L688.511 110.527ZM661.911 110.527L660.018 109.884L661.911 112.527V110.527ZM698.087 4.12733V2.12733L696.194 3.48353L698.087 4.12733ZM729.095 4.12733L730.989 3.48353L729.095 2.12733V4.12733ZM765.271 110.527V112.527L767.165 109.884L765.271 110.527ZM701.127 71.0073L699.222 70.3994L701.127 73.0073V71.0073ZM726.055 71.0073V73.0073L727.961 70.3994L726.055 71.0073ZM713.591 31.9433L715.497 31.3354H711.686L713.591 31.9433ZM738.671 110.527L740.577 109.921L735.257 93.2009L733.351 93.8073L731.445 94.4137L736.765 111.134L738.671 110.527ZM733.351 93.8073V91.8073H693.831V93.8073V95.8073H733.351V93.8073ZM693.831 93.8073L691.925 93.2009L686.605 109.921L688.511 110.527L690.417 111.134L695.737 94.4137L693.831 93.8073ZM688.511 110.527V108.527H661.911V110.527V112.527H688.511V110.527ZM661.911 110.527L663.805 111.171L699.981 4.77114L698.087 4.12733L696.194 3.48353L660.018 109.884L661.911 110.527ZM698.087 4.12733V6.12733H729.095V4.12733V2.12733H698.087V4.12733ZM729.095 4.12733L727.202 4.77114L763.378 111.171L765.271 110.527L767.165 109.884L730.989 3.48353L729.095 4.12733ZM765.271 110.527V108.527H738.671V110.527V112.527H765.271V110.527ZM701.127 71.0073V73.0073H726.055V71.0073V69.0073H701.127V71.0073ZM726.055 71.0073L727.961 70.3994L715.497 31.3354L713.591 31.9433L711.686 32.5513L724.15 71.6153L726.055 71.0073ZM713.591 31.9433L711.686 31.3354L699.222 70.3994L701.127 71.0073L703.033 71.6153L715.497 32.5513L713.591 31.9433ZM831.952 4.12733V2.12733L829.952 4.12733H831.952ZM856.272 4.12733H858.272L856.272 2.12733V4.12733ZM856.272 110.527V112.527L858.272 110.527H856.272ZM838.032 110.527L836.401 111.686L838.032 112.527V110.527ZM796.992 52.7673L798.622 51.6089L794.992 52.7673H796.992ZM796.992 110.527V112.527L798.992 110.527H796.992ZM772.672 110.527H770.672L772.672 112.527V110.527ZM772.672 4.12733V2.12733L770.672 4.12733H772.672ZM790.912 4.12733L792.542 2.96893L790.912 2.12733V4.12733ZM831.952 61.8873L830.321 63.0458L833.952 61.8873H831.952ZM831.952 4.12733V6.12733H856.272V4.12733V2.12733H831.952V4.12733ZM856.272 4.12733H854.272V110.527H856.272H858.272V4.12733H856.272ZM856.272 110.527V108.527H838.032V110.527V112.527H856.272V110.527ZM838.032 110.527L839.662 109.369L798.622 51.6089L796.992 52.7673L795.361 53.9258L836.401 111.686L838.032 110.527ZM796.992 52.7673H794.992V110.527H796.992H798.992V52.7673H796.992ZM796.992 110.527V108.527H772.672V110.527V112.527H796.992V110.527ZM772.672 110.527H774.672V4.12733H772.672H770.672V110.527H772.672ZM772.672 4.12733V6.12733H790.912V4.12733V2.12733H772.672V4.12733ZM790.912 4.12733L789.281 5.28575L830.321 63.0458L831.952 61.8873L833.582 60.7289L792.542 2.96893L790.912 4.12733ZM831.952 61.8873H833.952V4.12733H831.952H829.952V61.8873H831.952ZM969.196 26.6233L970.199 28.3536L970.899 25.5742L969.196 26.6233ZM948.22 38.7833L946.485 39.7791L949.223 40.5136L948.22 38.7833ZM948.22 75.8713L949.223 74.1411L946.472 74.9001L948.22 75.8713ZM969.196 88.0313L970.906 89.0679L970.199 86.3011L969.196 88.0313ZM923.596 112.655V110.655C892.647 110.655 870.268 87.553 870.268 57.3273H868.268H866.268C866.268 89.7257 890.401 114.655 923.596 114.655V112.655ZM868.268 57.3273H870.268C870.268 27.1017 892.647 3.99934 923.596 3.99934V1.99934V-0.000663757C890.401 -0.000663757 866.268 24.929 866.268 57.3273H868.268ZM923.596 1.99934V3.99934C942.235 3.99934 958.6 13.2398 967.493 27.6725L969.196 26.6233L970.899 25.5742C961.247 9.91092 943.565 -0.000663757 923.596 -0.000663757V1.99934ZM969.196 26.6233L968.193 24.8931L947.217 37.0531L948.22 38.7833L949.223 40.5136L970.199 28.3536L969.196 26.6233ZM948.22 38.7833L949.954 37.7876C944.832 28.8645 934.989 23.7113 923.596 23.7113V25.7113V27.7113C933.787 27.7113 942.184 32.2862 946.485 39.7791L948.22 38.7833ZM923.596 25.7113V23.7113C913.712 23.7113 905.417 27.0294 899.593 32.9974C893.773 38.9602 890.588 47.3959 890.588 57.3273H892.588H894.588C894.588 48.2587 897.483 40.8865 902.455 35.7912C907.423 30.7013 914.631 27.7113 923.596 27.7113V25.7113ZM892.588 57.3273H890.588C890.588 67.2587 893.773 75.6945 899.593 81.6572C905.417 87.6253 913.712 90.9433 923.596 90.9433V88.9433V86.9433C914.631 86.9433 907.423 83.9534 902.455 78.8634C897.483 73.7682 894.588 66.3959 894.588 57.3273H892.588ZM923.596 88.9433V90.9433C934.969 90.9433 944.99 85.803 949.968 76.8426L948.22 75.8713L946.472 74.9001C942.33 82.3557 933.807 86.9433 923.596 86.9433V88.9433ZM948.22 75.8713L947.217 77.6016L968.193 89.7616L969.196 88.0313L970.199 86.3011L949.223 74.1411L948.22 75.8713ZM969.196 88.0313L967.485 86.9947C958.749 101.411 942.393 110.655 923.596 110.655V112.655V114.655C943.711 114.655 961.403 104.748 970.906 89.0679L969.196 88.0313ZM1003.24 87.1193H1001.24L1003.24 89.1193V87.1193ZM1045.8 87.1193H1047.8L1045.8 85.1193V87.1193ZM1045.8 110.527V112.527L1047.8 110.527H1045.8ZM978.922 110.527H976.922L978.922 112.527V110.527ZM978.922 4.12733V2.12733L976.922 4.12733H978.922ZM1045.04 4.12733H1047.04L1045.04 2.12733V4.12733ZM1045.04 27.5353V29.5353L1047.04 27.5353H1045.04ZM1003.24 27.5353V25.5353L1001.24 27.5353H1003.24ZM1003.24 45.1673H1001.24L1003.24 47.1673V45.1673ZM1041.24 45.1673H1043.24L1041.24 43.1673V45.1673ZM1041.24 68.2713V70.2713L1043.24 68.2713H1041.24ZM1003.24 68.2713V66.2713L1001.24 68.2713H1003.24ZM1003.24 87.1193V89.1193H1045.8V87.1193V85.1193H1003.24V87.1193ZM1045.8 87.1193H1043.8V110.527H1045.8H1047.8V87.1193H1045.8ZM1045.8 110.527V108.527H978.922V110.527V112.527H1045.8V110.527ZM978.922 110.527H980.922V4.12733H978.922H976.922V110.527H978.922ZM978.922 4.12733V6.12733H1045.04V4.12733V2.12733H978.922V4.12733ZM1045.04 4.12733H1043.04V27.5353H1045.04H1047.04V4.12733H1045.04ZM1045.04 27.5353V25.5353H1003.24V27.5353V29.5353H1045.04V27.5353ZM1003.24 27.5353H1001.24V45.1673H1003.24H1005.24V27.5353H1003.24ZM1003.24 45.1673V47.1673H1041.24V45.1673V43.1673H1003.24V45.1673ZM1041.24 45.1673H1039.24V68.2713H1041.24H1043.24V45.1673H1041.24ZM1041.24 68.2713V66.2713H1003.24V68.2713V70.2713H1041.24V68.2713ZM1003.24 68.2713H1001.24V87.1193H1003.24H1005.24V68.2713H1003.24ZM1118.5 77.0873V75.0873L1116.5 77.0873H1118.5ZM1118.5 110.527V112.527L1120.5 110.527H1118.5ZM1094.18 110.527H1092.18L1094.18 112.527V110.527ZM1094.18 4.12733V2.12733L1092.18 4.12733H1094.18ZM1118.5 26.9273V24.9273L1116.5 26.9273H1118.5ZM1118.5 54.2873H1116.5L1118.5 56.2873V54.2873ZM1134.46 4.12733V6.12733C1154.36 6.12733 1169.7 21.5228 1169.7 40.6073H1171.7H1173.7C1173.7 19.2599 1156.51 2.12733 1134.46 2.12733V4.12733ZM1171.7 40.6073H1169.7C1169.7 59.6919 1154.36 75.0873 1134.46 75.0873V77.0873V79.0873C1156.51 79.0873 1173.7 61.9548 1173.7 40.6073H1171.7ZM1134.46 77.0873V75.0873H1118.5V77.0873V79.0873H1134.46V77.0873ZM1118.5 77.0873H1116.5V110.527H1118.5H1120.5V77.0873H1118.5ZM1118.5 110.527V108.527H1094.18V110.527V112.527H1118.5V110.527ZM1094.18 110.527H1096.18V4.12733H1094.18H1092.18V110.527H1094.18ZM1094.18 4.12733V6.12733H1134.46V4.12733V2.12733H1094.18V4.12733ZM1134.46 54.2873V56.2873C1143.13 56.2873 1149.38 49.3414 1149.38 40.6073H1147.38H1145.38C1145.38 47.3773 1140.68 52.2873 1134.46 52.2873V54.2873ZM1147.38 40.6073H1149.38C1149.38 31.8733 1143.13 24.9273 1134.46 24.9273V26.9273V28.9273C1140.68 28.9273 1145.38 33.8374 1145.38 40.6073H1147.38ZM1134.46 26.9273V24.9273H1118.5V26.9273V28.9273H1134.46V26.9273ZM1118.5 26.9273H1116.5V54.2873H1118.5H1120.5V26.9273H1118.5ZM1118.5 54.2873V56.2873H1134.46V54.2873V52.2873H1118.5V54.2873ZM1206.48 87.1193H1204.48L1206.48 89.1193V87.1193ZM1249.04 87.1193H1251.04L1249.04 85.1193V87.1193ZM1249.04 110.527V112.527L1251.04 110.527H1249.04ZM1182.16 110.527H1180.16L1182.16 112.527V110.527ZM1182.16 4.12733V2.12733L1180.16 4.12733H1182.16ZM1248.28 4.12733H1250.28L1248.28 2.12733V4.12733ZM1248.28 27.5353V29.5353L1250.28 27.5353H1248.28ZM1206.48 27.5353V25.5353L1204.48 27.5353H1206.48ZM1206.48 45.1673H1204.48L1206.48 47.1673V45.1673ZM1244.48 45.1673H1246.48L1244.48 43.1673V45.1673ZM1244.48 68.2713V70.2713L1246.48 68.2713H1244.48ZM1206.48 68.2713V66.2713L1204.48 68.2713H1206.48ZM1206.48 87.1193V89.1193H1249.04V87.1193V85.1193H1206.48V87.1193ZM1249.04 87.1193H1247.04V110.527H1249.04H1251.04V87.1193H1249.04ZM1249.04 110.527V108.527H1182.16V110.527V112.527H1249.04V110.527ZM1182.16 110.527H1184.16V4.12733H1182.16H1180.16V110.527H1182.16ZM1182.16 4.12733V6.12733H1248.28V4.12733V2.12733H1182.16V4.12733ZM1248.28 4.12733H1246.28V27.5353H1248.28H1250.28V4.12733H1248.28ZM1248.28 27.5353V25.5353H1206.48V27.5353V29.5353H1248.28V27.5353ZM1206.48 27.5353H1204.48V45.1673H1206.48H1208.48V27.5353H1206.48ZM1206.48 45.1673V47.1673H1244.48V45.1673V43.1673H1206.48V45.1673ZM1244.48 45.1673H1242.48V68.2713H1244.48H1246.48V45.1673H1244.48ZM1244.48 68.2713V66.2713H1206.48V68.2713V70.2713H1244.48V68.2713ZM1206.48 68.2713H1204.48V87.1193H1206.48H1208.48V68.2713H1206.48ZM1317.03 110.527L1315.29 111.523L1317.03 112.527V110.527ZM1296.96 75.5673L1298.7 74.5718L1296.96 73.5673V75.5673ZM1285.41 75.5673V73.5673L1283.41 75.5673H1285.41ZM1285.41 110.527V112.527L1287.41 110.527H1285.41ZM1261.09 110.527H1259.09L1261.09 112.527V110.527ZM1261.09 4.12733V2.12733L1259.09 4.12733H1261.09ZM1320.52 71.4633L1319.62 69.6792L1318.79 72.4665L1320.52 71.4633ZM1343.17 110.527V112.527L1344.9 109.524L1343.17 110.527ZM1285.41 26.9273V24.9273L1283.41 26.9273H1285.41ZM1285.41 54.2873H1283.41L1285.41 56.2873V54.2873ZM1317.03 110.527L1318.76 109.532L1298.7 74.5718L1296.96 75.5673L1295.23 76.5629L1315.29 111.523L1317.03 110.527ZM1296.96 75.5673V73.5673H1285.41V75.5673V77.5673H1296.96V75.5673ZM1285.41 75.5673H1283.41V110.527H1285.41H1287.41V75.5673H1285.41ZM1285.41 110.527V108.527H1261.09V110.527V112.527H1285.41V110.527ZM1261.09 110.527H1263.09V4.12733H1261.09H1259.09V110.527H1261.09ZM1261.09 4.12733V6.12733H1303.65V4.12733V2.12733H1261.09V4.12733ZM1303.65 4.12733V6.12733C1322.76 6.12733 1338.13 21.4959 1338.13 40.6073H1340.13H1342.13C1342.13 19.2868 1324.97 2.12733 1303.65 2.12733V4.12733ZM1340.13 40.6073H1338.13C1338.13 52.8602 1330.71 64.0612 1319.62 69.6792L1320.52 71.4633L1321.43 73.2475C1333.74 67.0095 1342.13 54.4985 1342.13 40.6073H1340.13ZM1320.52 71.4633L1318.79 72.4665L1341.44 111.53L1343.17 110.527L1344.9 109.524L1322.26 70.4602L1320.52 71.4633ZM1343.17 110.527V108.527H1317.03V110.527V112.527H1343.17V110.527ZM1285.41 26.9273H1283.41V54.2873H1285.41H1287.41V26.9273H1285.41ZM1285.41 54.2873V56.2873H1303.65V54.2873V52.2873H1285.41V54.2873ZM1303.65 54.2873V56.2873C1311.64 56.2873 1317.81 49.2588 1317.81 40.6073H1315.81H1313.81C1313.81 47.4599 1309.04 52.2873 1303.65 52.2873V54.2873ZM1315.81 40.6073H1317.81C1317.81 31.9559 1311.64 24.9273 1303.65 24.9273V26.9273V28.9273C1309.04 28.9273 1313.81 33.7548 1313.81 40.6073H1315.81ZM1303.65 26.9273V24.9273H1285.41V26.9273V28.9273H1303.65V26.9273ZM1417.54 27.5353V29.5353L1419.54 27.5353H1417.54ZM1377.26 27.5353V25.5353L1375.26 27.5353H1377.26ZM1377.26 48.0553H1375.26L1377.26 50.0553V48.0553ZM1416.78 48.0553H1418.78L1416.78 46.0553V48.0553ZM1416.78 71.4633V73.4633L1418.78 71.4633H1416.78ZM1377.26 71.4633V69.4633L1375.26 71.4633H1377.26ZM1377.26 110.527V112.527L1379.26 110.527H1377.26ZM1352.94 110.527H1350.94L1352.94 112.527V110.527ZM1352.94 4.12733V2.12733L1350.94 4.12733H1352.94ZM1417.54 4.12733H1419.54L1417.54 2.12733V4.12733ZM1417.54 27.5353V25.5353H1377.26V27.5353V29.5353H1417.54V27.5353ZM1377.26 27.5353H1375.26V48.0553H1377.26H1379.26V27.5353H1377.26ZM1377.26 48.0553V50.0553H1416.78V48.0553V46.0553H1377.26V48.0553ZM1416.78 48.0553H1414.78V71.4633H1416.78H1418.78V48.0553H1416.78ZM1416.78 71.4633V69.4633H1377.26V71.4633V73.4633H1416.78V71.4633ZM1377.26 71.4633H1375.26V110.527H1377.26H1379.26V71.4633H1377.26ZM1377.26 110.527V108.527H1352.94V110.527V112.527H1377.26V110.527ZM1352.94 110.527H1354.94V4.12733H1352.94H1350.94V110.527H1352.94ZM1352.94 4.12733V6.12733H1417.54V4.12733V2.12733H1352.94V4.12733ZM1417.54 4.12733H1415.54V27.5353H1417.54H1419.54V4.12733H1417.54ZM1481 112.655V110.655C1451.54 110.655 1427.67 87.5168 1427.67 57.3273H1425.67H1423.67C1423.67 89.7618 1449.36 114.655 1481 114.655V112.655ZM1425.67 57.3273H1427.67C1427.67 27.1378 1451.54 3.99934 1481 3.99934V1.99934V-0.000663757C1449.36 -0.000663757 1423.67 24.8928 1423.67 57.3273H1425.67ZM1481 1.99934V3.99934C1510.47 3.99934 1534.33 27.1378 1534.33 57.3273H1536.33H1538.33C1538.33 24.8928 1512.64 -0.000663757 1481 -0.000663757V1.99934ZM1536.33 57.3273H1534.33C1534.33 87.5168 1510.47 110.655 1481 110.655V112.655V114.655C1512.64 114.655 1538.33 89.7618 1538.33 57.3273H1536.33ZM1481 88.9433V90.9433C1499.41 90.9433 1514.01 77.4512 1514.01 57.3273H1512.01H1510.01C1510.01 75.2035 1497.24 86.9433 1481 86.9433V88.9433ZM1512.01 57.3273H1514.01C1514.01 37.2035 1499.41 23.7113 1481 23.7113V25.7113V27.7113C1497.24 27.7113 1510.01 39.4512 1510.01 57.3273H1512.01ZM1481 25.7113V23.7113C1462.59 23.7113 1447.99 37.2035 1447.99 57.3273H1449.99H1451.99C1451.99 39.4512 1464.76 27.7113 1481 27.7113V25.7113ZM1449.99 57.3273H1447.99C1447.99 77.4512 1462.59 90.9433 1481 90.9433V88.9433V86.9433C1464.76 86.9433 1451.99 75.2035 1451.99 57.3273H1449.99ZM1604.29 110.527L1602.55 111.523L1604.29 112.527V110.527ZM1584.22 75.5673L1585.96 74.5718L1584.22 73.5673V75.5673ZM1572.67 75.5673V73.5673L1570.67 75.5673H1572.67ZM1572.67 110.527V112.527L1574.67 110.527H1572.67ZM1548.35 110.527H1546.35L1548.35 112.527V110.527ZM1548.35 4.12733V2.12733L1546.35 4.12733H1548.35ZM1607.78 71.4633L1606.88 69.6792L1606.05 72.4665L1607.78 71.4633ZM1630.43 110.527V112.527L1632.16 109.524L1630.43 110.527ZM1572.67 26.9273V24.9273L1570.67 26.9273H1572.67ZM1572.67 54.2873H1570.67L1572.67 56.2873V54.2873ZM1604.29 110.527L1606.02 109.532L1585.96 74.5718L1584.22 75.5673L1582.49 76.5629L1602.55 111.523L1604.29 110.527ZM1584.22 75.5673V73.5673H1572.67V75.5673V77.5673H1584.22V75.5673ZM1572.67 75.5673H1570.67V110.527H1572.67H1574.67V75.5673H1572.67ZM1572.67 110.527V108.527H1548.35V110.527V112.527H1572.67V110.527ZM1548.35 110.527H1550.35V4.12733H1548.35H1546.35V110.527H1548.35ZM1548.35 4.12733V6.12733H1590.91V4.12733V2.12733H1548.35V4.12733ZM1590.91 4.12733V6.12733C1610.02 6.12733 1625.39 21.4959 1625.39 40.6073H1627.39H1629.39C1629.39 19.2868 1612.23 2.12733 1590.91 2.12733V4.12733ZM1627.39 40.6073H1625.39C1625.39 52.8602 1617.97 64.0612 1606.88 69.6792L1607.78 71.4633L1608.69 73.2475C1621 67.0095 1629.39 54.4985 1629.39 40.6073H1627.39ZM1607.78 71.4633L1606.05 72.4665L1628.7 111.53L1630.43 110.527L1632.16 109.524L1609.51 70.4602L1607.78 71.4633ZM1630.43 110.527V108.527H1604.29V110.527V112.527H1630.43V110.527ZM1572.67 26.9273H1570.67V54.2873H1572.67H1574.67V26.9273H1572.67ZM1572.67 54.2873V56.2873H1590.91V54.2873V52.2873H1572.67V54.2873ZM1590.91 54.2873V56.2873C1598.9 56.2873 1605.07 49.2588 1605.07 40.6073H1603.07H1601.07C1601.07 47.4599 1596.3 52.2873 1590.91 52.2873V54.2873ZM1603.07 40.6073H1605.07C1605.07 31.9559 1598.9 24.9273 1590.91 24.9273V26.9273V28.9273C1596.3 28.9273 1601.07 33.7548 1601.07 40.6073H1603.07ZM1590.91 26.9273V24.9273H1572.67V26.9273V28.9273H1590.91V26.9273ZM1746.59 4.12733H1748.59L1746.59 2.12733V4.12733ZM1746.59 110.527V112.527L1748.59 110.527H1746.59ZM1722.27 110.527H1720.27L1722.27 112.527V110.527ZM1722.27 48.6633H1724.27L1720.57 47.6225L1722.27 48.6633ZM1694.76 93.8073V95.8073L1696.47 94.8481L1694.76 93.8073ZM1692.03 93.8073L1690.32 94.8481L1692.03 95.8073V93.8073ZM1664.51 48.6633L1666.22 47.6225L1662.51 48.6633H1664.51ZM1664.51 110.527V112.527L1666.51 110.527H1664.51ZM1640.19 110.527H1638.19L1640.19 112.527V110.527ZM1640.19 4.12733V2.12733L1638.19 4.12733H1640.19ZM1664.51 4.12733L1666.22 3.08466L1664.51 2.12733V4.12733ZM1693.39 51.3993L1691.69 52.442H1695.1L1693.39 51.3993ZM1722.27 4.12733V2.12733L1720.57 3.08466L1722.27 4.12733ZM1746.59 4.12733H1744.59V110.527H1746.59H1748.59V4.12733H1746.59ZM1746.59 110.527V108.527H1722.27V110.527V112.527H1746.59V110.527ZM1722.27 110.527H1724.27V48.6633H1722.27H1720.27V110.527H1722.27ZM1722.27 48.6633L1720.57 47.6225L1693.05 92.7665L1694.76 93.8073L1696.47 94.8481L1723.98 49.7041L1722.27 48.6633ZM1694.76 93.8073V91.8073H1692.03V93.8073V95.8073H1694.76V93.8073ZM1692.03 93.8073L1693.73 92.7665L1666.22 47.6225L1664.51 48.6633L1662.81 49.7041L1690.32 94.8481L1692.03 93.8073ZM1664.51 48.6633H1662.51V110.527H1664.51H1666.51V48.6633H1664.51ZM1664.51 110.527V108.527H1640.19V110.527V112.527H1664.51V110.527ZM1640.19 110.527H1642.19V4.12733H1640.19H1638.19V110.527H1640.19ZM1640.19 4.12733V6.12733H1664.51V4.12733V2.12733H1640.19V4.12733ZM1664.51 4.12733L1662.81 5.17001L1691.69 52.442L1693.39 51.3993L1695.1 50.3567L1666.22 3.08466L1664.51 4.12733ZM1693.39 51.3993L1695.1 52.442L1723.98 5.17001L1722.27 4.12733L1720.57 3.08466L1691.69 50.3567L1693.39 51.3993ZM1722.27 4.12733V6.12733H1746.59V4.12733V2.12733H1722.27V4.12733ZM1830.85 110.527L1828.94 111.134L1830.85 112.527V110.527ZM1825.53 93.8073L1827.44 93.2009L1825.53 91.8073V93.8073ZM1786.01 93.8073V91.8073L1784.1 93.2009L1786.01 93.8073ZM1780.69 110.527V112.527L1782.6 111.134L1780.69 110.527ZM1754.09 110.527L1752.2 109.884L1754.09 112.527V110.527ZM1790.27 4.12733V2.12733L1788.37 3.48353L1790.27 4.12733ZM1821.27 4.12733L1823.17 3.48353L1821.27 2.12733V4.12733ZM1857.45 110.527V112.527L1859.34 109.884L1857.45 110.527ZM1793.31 71.0073L1791.4 70.3994L1793.31 73.0073V71.0073ZM1818.23 71.0073V73.0073L1820.14 70.3994L1818.23 71.0073ZM1805.77 31.9433L1807.67 31.3354H1803.86L1805.77 31.9433ZM1830.85 110.527L1832.76 109.921L1827.44 93.2009L1825.53 93.8073L1823.62 94.4137L1828.94 111.134L1830.85 110.527ZM1825.53 93.8073V91.8073H1786.01V93.8073V95.8073H1825.53V93.8073ZM1786.01 93.8073L1784.1 93.2009L1778.78 109.921L1780.69 110.527L1782.6 111.134L1787.92 94.4137L1786.01 93.8073ZM1780.69 110.527V108.527H1754.09V110.527V112.527H1780.69V110.527ZM1754.09 110.527L1755.98 111.171L1792.16 4.77114L1790.27 4.12733L1788.37 3.48353L1752.2 109.884L1754.09 110.527ZM1790.27 4.12733V6.12733H1821.27V4.12733V2.12733H1790.27V4.12733ZM1821.27 4.12733L1819.38 4.77114L1855.56 111.171L1857.45 110.527L1859.34 109.884L1823.17 3.48353L1821.27 4.12733ZM1857.45 110.527V108.527H1830.85V110.527V112.527H1857.45V110.527ZM1793.31 71.0073V73.0073H1818.23V71.0073V69.0073H1793.31V71.0073ZM1818.23 71.0073L1820.14 70.3994L1807.67 31.3354L1805.77 31.9433L1803.86 32.5513L1816.33 71.6153L1818.23 71.0073ZM1805.77 31.9433L1803.86 31.3354L1791.4 70.3994L1793.31 71.0073L1795.21 71.6153L1807.67 32.5513L1805.77 31.9433ZM1924.13 4.12733V2.12733L1922.13 4.12733H1924.13ZM1948.45 4.12733H1950.45L1948.45 2.12733V4.12733ZM1948.45 110.527V112.527L1950.45 110.527H1948.45ZM1930.21 110.527L1928.58 111.686L1930.21 112.527V110.527ZM1889.17 52.7673L1890.8 51.6089L1887.17 52.7673H1889.17ZM1889.17 110.527V112.527L1891.17 110.527H1889.17ZM1864.85 110.527H1862.85L1864.85 112.527V110.527ZM1864.85 4.12733V2.12733L1862.85 4.12733H1864.85ZM1883.09 4.12733L1884.72 2.96893L1883.09 2.12733V4.12733ZM1924.13 61.8873L1922.5 63.0458L1926.13 61.8873H1924.13ZM1924.13 4.12733V6.12733H1948.45V4.12733V2.12733H1924.13V4.12733ZM1948.45 4.12733H1946.45V110.527H1948.45H1950.45V4.12733H1948.45ZM1948.45 110.527V108.527H1930.21V110.527V112.527H1948.45V110.527ZM1930.21 110.527L1931.84 109.369L1890.8 51.6089L1889.17 52.7673L1887.54 53.9258L1928.58 111.686L1930.21 110.527ZM1889.17 52.7673H1887.17V110.527H1889.17H1891.17V52.7673H1889.17ZM1889.17 110.527V108.527H1864.85V110.527V112.527H1889.17V110.527ZM1864.85 110.527H1866.85V4.12733H1864.85H1862.85V110.527H1864.85ZM1864.85 4.12733V6.12733H1883.09V4.12733V2.12733H1864.85V4.12733ZM1883.09 4.12733L1881.46 5.28575L1922.5 63.0458L1924.13 61.8873L1925.76 60.7289L1884.72 2.96893L1883.09 4.12733ZM1924.13 61.8873H1926.13V4.12733H1924.13H1922.13V61.8873H1924.13ZM2061.37 26.6233L2062.38 28.3536L2063.08 25.5742L2061.37 26.6233ZM2040.4 38.7833L2038.66 39.7791L2041.4 40.5136L2040.4 38.7833ZM2040.4 75.8713L2041.4 74.1411L2038.65 74.9001L2040.4 75.8713ZM2061.37 88.0313L2063.08 89.0679L2062.38 86.3011L2061.37 88.0313ZM2015.77 112.655V110.655C1984.82 110.655 1962.45 87.553 1962.45 57.3273H1960.45H1958.45C1958.45 89.7257 1982.58 114.655 2015.77 114.655V112.655ZM1960.45 57.3273H1962.45C1962.45 27.1017 1984.82 3.99934 2015.77 3.99934V1.99934V-0.000663757C1982.58 -0.000663757 1958.45 24.929 1958.45 57.3273H1960.45ZM2015.77 1.99934V3.99934C2034.41 3.99934 2050.78 13.2398 2059.67 27.6725L2061.37 26.6233L2063.08 25.5742C2053.43 9.91092 2035.74 -0.000663757 2015.77 -0.000663757V1.99934ZM2061.37 26.6233L2060.37 24.8931L2039.39 37.0531L2040.4 38.7833L2041.4 40.5136L2062.38 28.3536L2061.37 26.6233ZM2040.4 38.7833L2042.13 37.7876C2037.01 28.8645 2027.17 23.7113 2015.77 23.7113V25.7113V27.7113C2025.96 27.7113 2034.36 32.2862 2038.66 39.7791L2040.4 38.7833ZM2015.77 25.7113V23.7113C2005.89 23.7113 1997.6 27.0294 1991.77 32.9974C1985.95 38.9602 1982.77 47.3959 1982.77 57.3273H1984.77H1986.77C1986.77 48.2587 1989.66 40.8865 1994.63 35.7912C1999.6 30.7013 2006.81 27.7113 2015.77 27.7113V25.7113ZM1984.77 57.3273H1982.77C1982.77 67.2587 1985.95 75.6945 1991.77 81.6572C1997.6 87.6253 2005.89 90.9433 2015.77 90.9433V88.9433V86.9433C2006.81 86.9433 1999.6 83.9534 1994.63 78.8634C1989.66 73.7682 1986.77 66.3959 1986.77 57.3273H1984.77ZM2015.77 88.9433V90.9433C2027.15 90.9433 2037.17 85.803 2042.15 76.8426L2040.4 75.8713L2038.65 74.9001C2034.51 82.3557 2025.98 86.9433 2015.77 86.9433V88.9433ZM2040.4 75.8713L2039.39 77.6016L2060.37 89.7616L2061.37 88.0313L2062.38 86.3011L2041.4 74.1411L2040.4 75.8713ZM2061.37 88.0313L2059.66 86.9947C2050.93 101.411 2034.57 110.655 2015.77 110.655V112.655V114.655C2035.89 114.655 2053.58 104.748 2063.08 89.0679L2061.37 88.0313ZM2095.42 87.1193H2093.42L2095.42 89.1193V87.1193ZM2137.98 87.1193H2139.98L2137.98 85.1193V87.1193ZM2137.98 110.527V112.527L2139.98 110.527H2137.98ZM2071.1 110.527H2069.1L2071.1 112.527V110.527ZM2071.1 4.12733V2.12733L2069.1 4.12733H2071.1ZM2137.22 4.12733H2139.22L2137.22 2.12733V4.12733ZM2137.22 27.5353V29.5353L2139.22 27.5353H2137.22ZM2095.42 27.5353V25.5353L2093.42 27.5353H2095.42ZM2095.42 45.1673H2093.42L2095.42 47.1673V45.1673ZM2133.42 45.1673H2135.42L2133.42 43.1673V45.1673ZM2133.42 68.2713V70.2713L2135.42 68.2713H2133.42ZM2095.42 68.2713V66.2713L2093.42 68.2713H2095.42ZM2095.42 87.1193V89.1193H2137.98V87.1193V85.1193H2095.42V87.1193ZM2137.98 87.1193H2135.98V110.527H2137.98H2139.98V87.1193H2137.98ZM2137.98 110.527V108.527H2071.1V110.527V112.527H2137.98V110.527ZM2071.1 110.527H2073.1V4.12733H2071.1H2069.1V110.527H2071.1ZM2071.1 4.12733V6.12733H2137.22V4.12733V2.12733H2071.1V4.12733ZM2137.22 4.12733H2135.22V27.5353H2137.22H2139.22V4.12733H2137.22ZM2137.22 27.5353V25.5353H2095.42V27.5353V29.5353H2137.22V27.5353ZM2095.42 27.5353H2093.42V45.1673H2095.42H2097.42V27.5353H2095.42ZM2095.42 45.1673V47.1673H2133.42V45.1673V43.1673H2095.42V45.1673ZM2133.42 45.1673H2131.42V68.2713H2133.42H2135.42V45.1673H2133.42ZM2133.42 68.2713V66.2713H2095.42V68.2713V70.2713H2133.42V68.2713ZM2095.42 68.2713H2093.42V87.1193H2095.42H2097.42V68.2713H2095.42Z" fill="white" mask="url(#path-1-outside-1_1851_889)"/>
</svg>
