<svg width="1921" height="328" viewBox="0 0 1921 328" fill="none" xmlns="http://www.w3.org/2000/svg">
<g clip-path="url(#clip0_1323_494)">
<path d="M948 504H849L1090.89 0H1191.69L948 504ZM1071 504H968.308L1212 0H1312.85L1071 504ZM1433.85 0L1192 504H1091.15L1333 0H1433.85ZM1921.5 504H1212.15L1454 0H1921.5V504Z" fill="white"/>
<path d="M466 504H0V2.5L707.438 0.84668L466 504ZM587 504H486.154L727.615 0.799805L828.574 0.563477L587 504ZM708 504H607.154L848.752 0.516602L949.71 0.280273L708 504ZM828.11 504H728.154L969.888 0.233398L1070 0L828.11 504Z" fill="white"/>
</g>
<defs>
<clipPath id="clip0_1323_494">
<rect width="1921" height="328" fill="white"/>
</clipPath>
</defs>
</svg>
