<svg width="483" height="184" viewBox="0 0 483 184" fill="none" xmlns="http://www.w3.org/2000/svg">
<g clip-path="url(#clip0_1397_504)">
<path d="M275.754 88H0V0H322.139L275.754 88ZM307.764 88H279.619L326.004 0H354.148L307.764 88ZM386.153 0L339.769 88H311.629L358.014 0H386.153ZM371.606 88H343.634L390.019 0H418L371.606 88Z" fill="white"/>
<path d="M207.246 96H483V184H160.861L207.246 96ZM175.236 96H203.381L156.996 184H128.852L175.236 96ZM96.8467 184L143.231 96H171.371L124.986 184H96.8467ZM111.394 96H139.366L92.9814 184H65L111.394 96Z" fill="white"/>
</g>
<defs>
<clipPath id="clip0_1397_504">
<rect width="483" height="184" fill="white"/>
</clipPath>
</defs>
</svg>
